<?xml version="1.0" encoding="UTF-8" standalone="no"?>
<svg
   viewBox="0 0 32 32"
   version="1.1"
   id="svg27"
   sodipodi:docname="smoke-icon.svg"
   inkscape:version="1.2.2 (732a01da63, 2022-12-09)"
   width="32"
   height="32"
   xmlns:inkscape="http://www.inkscape.org/namespaces/inkscape"
   xmlns:sodipodi="http://sodipodi.sourceforge.net/DTD/sodipodi-0.dtd"
   xmlns="http://www.w3.org/2000/svg"
   xmlns:svg="http://www.w3.org/2000/svg">
  <defs
     id="defs31" />
  <sodipodi:namedview
     id="namedview29"
     pagecolor="#ffffff"
     bordercolor="#000000"
     borderopacity="0.25"
     inkscape:showpageshadow="2"
     inkscape:pageopacity="0.0"
     inkscape:pagecheckerboard="0"
     inkscape:deskcolor="#d1d1d1"
     showgrid="true"
     inkscape:zoom="19.527461"
     inkscape:cx="4.4040544"
     inkscape:cy="18.666021"
     inkscape:window-width="1920"
     inkscape:window-height="1121"
     inkscape:window-x="-9"
     inkscape:window-y="-9"
     inkscape:window-maximized="1"
     inkscape:current-layer="layer1">
    <inkscape:grid
       type="xygrid"
       id="grid130" />
  </sodipodi:namedview>
  <g
     inkscape:groupmode="layer"
     id="layer1"
     inkscape:label="Layer 1">
    <path
       style="fill:#838383;stroke-width:1.1031px;paint-order:fill"
       d="M 8.1660749,22.184906 C 7.701571,22.117843 6.8329489,19.890103 6.8631416,19.833519 6.8886893,19.764359 6.2964469,18.485976 6.2616091,18.368616 6.3916701,18.479689 4.9842233,16.413317 6.3939926,15.501683 4.7960993,15.363366 4.0459255,13.169157 4.097021,13.160774 4.1550839,13.137721 3.2516238,11.947358 4.7101661,10.543231 0.68756248,10.566284 2.8149903,6.7458027 2.8660856,6.7059843 2.9473739,6.6850271 4.5336546,3.4932592 7.1790043,5.3898777 6.8422389,2.4454037 12.411641,2.1855354 12.406996,2.2190669 c 0.239219,0.00419 4.208405,-0.3835152 5.495081,2.6322131 1.066036,-2.5316191 5.17225,-2.4331206 5.160637,-2.3828235 0.178834,-0.00839 3.755514,0.5239277 3.609195,2.3555792 2.450259,-1.4481363 3.978477,2.6804144 2.146008,3.0136326 0.794302,1.5969321 -2.519932,2.5714367 -2.51761,2.6259257 0.03483,0.01467 -2.46187,0.496683 -3.360686,-0.9242086 -0.538824,2.7265196 -4.085312,2.9088476 -4.004023,2.9717176 -0.02787,0.0461 -2.050785,0.155084 -2.982116,-0.188613 0.03483,0.03982 -2.134395,-0.865529 -3.797319,-1.44185 1.379577,1.494242 1.983432,3.732461 -0.578307,4.449195 0.404119,0.85505 -1.082839,3.503254 -1.126967,3.488583 -0.02787,-0.08174 -1.8621155,3.647313 -2.2848141,3.366488 z"
       id="path21"
       sodipodi:nodetypes="ccccccccccccccccccccc" />
    <path
       style="display:inline;fill:#f0f0f0;stroke:#f1f0f0;stroke-width:0.22062px"
       d="m 3.4560056,19.592512 c 1.0544238,0.188613 0.7641089,3.03878 -0.4250211,3.797428 -1.9044659,1.655612 -0.6526279,4.051009 -0.483084,4.336025 1.8185327,2.936092 6.7840792,3.200151 9.0624705,1.104441 1.135712,-1.052047 0.320508,-5.503338 -1.8371127,-7.525698 0.088256,0.534406 -0.9382978,2.005595 -2.5617388,0.794274 -0.3599906,-0.266156 -1.2402254,-3.954606 -3.7555139,-2.50647 z"
       id="path23" />
    <path
       style="display:inline;fill:#838383;stroke:#b2b2b2;stroke-width:0.22062px"
       d="m 4.8448722,22.970798 c 0.6642405,0.117362 0.4552138,1.925958 -0.2694122,2.43312 -1.2053876,1.087675 -0.5179218,2.437313 -0.3065725,2.84388 1.1635822,1.928055 4.3129184,2.099903 5.7621705,0.718829 0.726949,-0.685298 0.455214,-2.806157 -0.8337844,-4.522545 0.046451,0.595182 -1.0265536,1.752015 -1.9927218,0.203284 -0.016258,0.358367 -0.7780439,-2.632212 -2.3596796,-1.676568 z"
       id="path25" />
  </g>
</svg>
