<?xml version="1.0" encoding="utf-8"?>
<svg width="100%" height="100%" version="1.1" viewBox="-318 222 1002.662 330" xmlns:xlink="http://www.w3.org/1999/xlink" xmlns:inkscape="http://www.inkscape.org/namespaces/inkscape" xmlns="http://www.w3.org/2000/svg">
  <defs>
    <filter id="shadow1" width="150%" height="150%">
      <feGaussianBlur in="SourceAlpha" result="blur" stdDeviation="3" />
      <feOffset dx="3" dy="3" in="blur" result="offsetBlur" />
      <feMerge>
        <feMergeNode in="offsetBlur" />
        <feMergeNode in="SourceGraphic" />
      </feMerge>
    </filter>
  </defs>
  <marker id="marker1" markerUnits="strokeWidth" orient="auto" refX="-1.7" refY="0" markerWidth="4.7" markerHeight="4.7" viewBox="-3.7 -2.35 4.7 4.7">
    <path d="M-1.35 -1.35 C-0.6074999 -1.35 3.245571E-08 -0.7425001 0 0 C-3.245571E-08 0.7425001 -0.6075 1.35 -1.35 1.35 C-2.0925 1.35 -2.7 0.7424999 -2.7 -1.180208E-07 C-2.7 -0.7425002 -2.0925 -1.35 -1.35 -1.35 Z " fill="#000000" fill-opacity="1" stroke="#000000" stroke-opacity="1" />
  </marker>
  <marker id="marker2" markerUnits="strokeWidth" orient="auto" refX="1.7" refY="0" markerWidth="4.7" markerHeight="4.7" viewBox="-1 -2.35 4.7 4.7">
    <path d="M1.35 1.35 C0.6075 1.35 3.245571E-08 0.7425001 0 0 C-3.245571E-08 -0.7425001 0.6074999 -1.35 1.35 -1.35 C2.0925 -1.35 2.7 -0.7425002 2.7 -1.180208E-07 C2.7 0.7424999 2.0925 1.35 1.35 1.35 Z " fill="#000000" fill-opacity="1" stroke="#000000" stroke-opacity="1" />
  </marker>
  <marker id="marker3" markerUnits="strokeWidth" orient="auto" refX="1.7" refY="0" markerWidth="4.7" markerHeight="4.7" viewBox="-1 -2.35 4.7 4.7">
    <path d="M1.35 1.35 C0.6075 1.35 3.245571E-08 0.7425001 0 0 C-3.245571E-08 -0.7425001 0.6074999 -1.35 1.35 -1.35 C2.0925 -1.35 2.7 -0.7425002 2.7 -1.180208E-07 C2.7 0.7424999 2.0925 1.35 1.35 1.35 Z " fill="#000000" fill-opacity="1" stroke="#000000" stroke-opacity="1" />
  </marker>
  <marker id="marker4" markerUnits="strokeWidth" orient="auto" refX="1.7" refY="0" markerWidth="4.7" markerHeight="4.7" viewBox="-1 -2.35 4.7 4.7">
    <path d="M1.35 1.35 C0.6075 1.35 3.245571E-08 0.7425001 0 0 C-3.245571E-08 -0.7425001 0.6074999 -1.35 1.35 -1.35 C2.0925 -1.35 2.7 -0.7425002 2.7 -1.180208E-07 C2.7 0.7424999 2.0925 1.35 1.35 1.35 Z " fill="#000000" fill-opacity="1" stroke="#000000" stroke-opacity="1" />
  </marker>
  <marker id="marker5" markerUnits="strokeWidth" orient="auto" refX="-11.17254" refY="0" markerWidth="13.27247" markerHeight="10.22955" viewBox="-12.27247 -5.114774 13.27247 10.22955">
    <path d="M-11.27247 -4.114774 L0 0 L-11.27247 4.114773 Z " fill="#000000" fill-opacity="1" stroke="#000000" stroke-opacity="1" />
  </marker>
  <marker id="marker6" markerUnits="strokeWidth" orient="auto" refX="-11.17254" refY="0" markerWidth="13.27247" markerHeight="10.22955" viewBox="-12.27247 -5.114774 13.27247 10.22955">
    <path d="M-11.27247 -4.114774 L0 0 L-11.27247 4.114773 Z " fill="#000000" fill-opacity="1" stroke="#000000" stroke-opacity="1" />
  </marker>
  <marker id="marker7" markerUnits="strokeWidth" orient="auto" refX="-11.17254" refY="0" markerWidth="13.27247" markerHeight="10.22955" viewBox="-12.27247 -5.114774 13.27247 10.22955">
    <path d="M-11.27247 -4.114774 L0 0 L-11.27247 4.114773 Z " fill="#000000" fill-opacity="1" stroke="#000000" stroke-opacity="1" />
  </marker>
  <marker id="marker8" markerUnits="strokeWidth" orient="auto" refX="11.17254" refY="0" markerWidth="13.27247" markerHeight="10.22955" viewBox="-1 -5.114774 13.27247 10.22955">
    <path d="M11.27247 4.114773 L0 0 L11.27247 -4.114774 Z " fill="#000000" fill-opacity="1" stroke="#000000" stroke-opacity="1" />
  </marker>
  <marker id="marker9" markerUnits="strokeWidth" orient="auto" refX="-11.17254" refY="0" markerWidth="13.27247" markerHeight="10.22955" viewBox="-12.27247 -5.114774 13.27247 10.22955">
    <path d="M-11.27247 -4.114774 L0 0 L-11.27247 4.114773 Z " fill="#000000" fill-opacity="1" stroke="#000000" stroke-opacity="1" />
  </marker>
  <marker id="marker10" markerUnits="strokeWidth" orient="auto" refX="11.17254" refY="0" markerWidth="13.27247" markerHeight="10.22955" viewBox="-1 -5.114774 13.27247 10.22955">
    <path d="M11.27247 4.114773 L0 0 L11.27247 -4.114774 Z " fill="#000000" fill-opacity="1" stroke="#000000" stroke-opacity="1" />
  </marker>
  <marker id="marker11" markerUnits="strokeWidth" orient="auto" refX="-11.17254" refY="0" markerWidth="13.27247" markerHeight="10.22955" viewBox="-12.27247 -5.114774 13.27247 10.22955">
    <path d="M-11.27247 -4.114774 L0 0 L-11.27247 4.114773 Z " fill="#000000" fill-opacity="1" stroke="#000000" stroke-opacity="1" />
  </marker>
  <marker id="marker12" markerUnits="strokeWidth" orient="auto" refX="11.17254" refY="0" markerWidth="13.27247" markerHeight="10.22955" viewBox="-1 -5.114774 13.27247 10.22955">
    <path d="M11.27247 4.114773 L0 0 L11.27247 -4.114774 Z " fill="#000000" fill-opacity="1" stroke="#000000" stroke-opacity="1" />
  </marker>
  <marker id="marker13" markerUnits="strokeWidth" orient="auto" refX="-11.17254" refY="0" markerWidth="13.27247" markerHeight="10.22955" viewBox="-12.27247 -5.114774 13.27247 10.22955">
    <path d="M-11.27247 -4.114774 L0 0 L-11.27247 4.114773 Z " fill="#000000" fill-opacity="1" stroke="#000000" stroke-opacity="1" />
  </marker>
  <g id="layer1" inkscape:label="Layer 1" inkscape:groupmode="layer">
    <rect x="468" y="279" width="207" height="99" rx="18" ry="18" opacity="1" stroke="#000000" stroke-opacity="1" stroke-width="1" stroke-linecap="butt" stroke-linejoin="miter" stroke-dasharray="none" fill="#FDFFDA" fill-opacity="1" />
    <rect x="-315" y="279" width="738" height="108" rx="18" ry="18" opacity="1" stroke="#000000" stroke-opacity="1" stroke-width="1" stroke-linecap="butt" stroke-linejoin="miter" stroke-dasharray="none" fill="#FDFFDA" fill-opacity="1" />
    <g>
      <rect x="18" y="306" width="81" height="63" opacity="1" stroke="#000000" stroke-opacity="1" stroke-width="1" stroke-linecap="butt" stroke-linejoin="miter" stroke-dasharray="none" fill="#FFFFFF" fill-opacity="1" filter="url(#shadow1)" />
      <rect x="27" y="315" width="63" height="45" rx="9" ry="9" opacity="1" stroke="#000000" stroke-opacity="1" stroke-width="1" stroke-linecap="butt" stroke-linejoin="miter" stroke-dasharray="none" fill="#FFFFFF" fill-opacity="1" />
      <g>
        <ellipse cx="58.78729" cy="337.1036" rx="18" ry="18" opacity="1" stroke="#000000" stroke-opacity="1" stroke-width="1" stroke-linecap="butt" stroke-linejoin="miter" stroke-dasharray="none" fill="#FFFFFF" fill-opacity="1" />
        <ellipse cx="58.78729" cy="337.1036" rx="9" ry="18" opacity="1" stroke="#000000" stroke-opacity="1" stroke-width="1" stroke-linecap="butt" stroke-linejoin="miter" stroke-dasharray="none" fill="#FFFFFF" fill-opacity="1" />
        <line x1="40.78729" y1="337.1037" x2="76.78729" y2="337.1037" opacity="1" stroke="#000000" stroke-opacity="1" stroke-width="1" stroke-linecap="butt" stroke-linejoin="miter" stroke-dasharray="none" />
        <path d="M42.59338 329.8782 Q59.69195 323.3807 74.73875 329.8782" opacity="1" stroke="#000000" stroke-opacity="1" stroke-width="1" stroke-linecap="butt" stroke-linejoin="miter" stroke-dasharray="none" fill-opacity="0" />
        <path d="M43.04457 345.7177 Q59.45924 350.1634 75.19002 345.7177" opacity="1" stroke="#000000" stroke-opacity="1" stroke-width="1" stroke-linecap="butt" stroke-linejoin="miter" stroke-dasharray="none" fill-opacity="0" />
        <line x1="58.66603" y1="319.619" x2="58.66603" y2="355.5262" opacity="1" stroke="#000000" stroke-opacity="1" stroke-width="1" stroke-linecap="butt" stroke-linejoin="miter" stroke-dasharray="none" />
      </g>
    </g>
    <g>
      <rect x="-288" y="306" width="81" height="63" opacity="1" stroke="#000000" stroke-opacity="1" stroke-width="1" stroke-linecap="butt" stroke-linejoin="miter" stroke-dasharray="none" fill="#FFFFFF" fill-opacity="1" filter="url(#shadow1)" />
      <path d="M-270 324 L-225 324 L-216 351 L-279 351 Z " opacity="1" stroke="#000000" stroke-opacity="1" stroke-width="1" stroke-linecap="butt" stroke-linejoin="miter" stroke-dasharray="none" fill="#FFFFFF" fill-opacity="1" />
    </g>
    <g>
      <rect x="-84.99995" y="306" width="81" height="63" opacity="1" stroke="#000000" stroke-opacity="1" stroke-width="1" stroke-linecap="butt" stroke-linejoin="miter" stroke-dasharray="none" fill="#FFFFFF" fill-opacity="1" filter="url(#shadow1)" />
      <rect x="-66.99995" y="315" width="18" height="45" opacity="1" stroke="#000000" stroke-opacity="1" stroke-width="1" stroke-linecap="butt" stroke-linejoin="miter" stroke-dasharray="none" fill="#FFFFFF" fill-opacity="1" />
      <rect x="-39.99995" y="315" width="18" height="45" opacity="1" stroke="#000000" stroke-opacity="1" stroke-width="1" stroke-linecap="butt" stroke-linejoin="miter" stroke-dasharray="none" fill="#FFFFFF" fill-opacity="1" />
      <line x1="-57.99995" y1="324" x2="-30.99995" y2="351" opacity="1" stroke="#000000" stroke-opacity="1" stroke-width="1" stroke-linecap="butt" stroke-linejoin="miter" stroke-dasharray="none" />
      <line x1="-57.99995" y1="351" x2="-30.99995" y2="324" opacity="1" stroke="#000000" stroke-opacity="1" stroke-width="1" stroke-linecap="butt" stroke-linejoin="miter" stroke-dasharray="none" />
    </g>
    <g>
      <g>
        <path d="M-267.4454 459.0501 L-295.7841 459.0501 L-295.7841 522 L-267.4454 522" opacity="1" fill="#026C9B" fill-opacity="1" />
        <path d="M-267.4454 459.0501 L-295.7841 459.0501 L-295.7841 522 L-267.4454 522" opacity="1" stroke="#FFFFFF" stroke-opacity="1" stroke-width="0.4" stroke-linecap="butt" stroke-linejoin="miter" stroke-dasharray="none" fill-opacity="0" />
        <path d="M-267.4454 522 L-258.3951 512.9499 L-258.3951 450 L-286.7339 450 L-295.7841 459.0501 L-267.4454 459.0501 Z " opacity="1" fill="#026C9B" fill-opacity="1" />
        <path d="M-267.4454 522 L-258.3951 512.9499 L-258.3951 450 L-286.7339 450 L-295.7841 459.0501 L-267.4454 459.0501 Z " opacity="1" stroke="#FFFFFF" stroke-opacity="1" stroke-width="0.4" stroke-linecap="butt" stroke-linejoin="miter" stroke-dasharray="none" fill-opacity="0" />
        <line x1="-267.4454" y1="459.0501" x2="-258.3951" y2="450" opacity="1" stroke="#026C9B" stroke-opacity="1" stroke-width="0" stroke-linecap="butt" stroke-linejoin="miter" stroke-dasharray="none" />
        <line x1="-267.4454" y1="459.0501" x2="-258.3951" y2="450" opacity="1" stroke="#FFFFFF" stroke-opacity="1" stroke-width="0.4" stroke-linecap="butt" stroke-linejoin="miter" stroke-dasharray="none" />
        <path d="M-279.0576 487.8421 L-279.0576 485.7701 L-293.3309 485.7701 L-293.3309 487.8421 Z " opacity="1" fill="#026C9B" fill-opacity="1" />
        <path d="M-293.3309 487.8421 L-279.0576 487.8421 L-279.0576 485.7701 L-293.3309 485.7701 Z " opacity="1" stroke="#FFFFFF" stroke-opacity="1" stroke-width="0.4" stroke-linecap="butt" stroke-linejoin="miter" stroke-dasharray="none" fill-opacity="0" />
        <path d="M-279.0576 492.1372 L-279.0576 490.0653 L-293.3309 490.0653 L-293.3309 492.1372 Z " opacity="1" fill="#026C9B" fill-opacity="1" />
        <path d="M-293.3309 492.1372 L-279.0576 492.1372 L-279.0576 490.0653 L-293.3309 490.0653 Z " opacity="1" stroke="#FFFFFF" stroke-opacity="1" stroke-width="0.4" stroke-linecap="butt" stroke-linejoin="miter" stroke-dasharray="none" fill-opacity="0" />
        <path d="M-279.0576 496.4394 L-279.0576 494.3675 L-293.3309 494.3675 L-293.3309 496.4394 Z " opacity="1" fill="#026C9B" fill-opacity="1" />
        <path d="M-293.3309 496.4394 L-279.0576 496.4394 L-279.0576 494.3675 L-293.3309 494.3675 Z " opacity="1" stroke="#FFFFFF" stroke-opacity="1" stroke-width="0.4" stroke-linecap="butt" stroke-linejoin="miter" stroke-dasharray="none" fill-opacity="0" />
        <path d="M-279.0576 500.7346 L-279.0576 498.6626 L-293.3309 498.6626 L-293.3309 500.7346 Z " opacity="1" fill="#026C9B" fill-opacity="1" />
        <path d="M-293.3309 500.7346 L-279.0576 500.7346 L-279.0576 498.6626 L-293.3309 498.6626 Z " opacity="1" stroke="#FFFFFF" stroke-opacity="1" stroke-width="0.4" stroke-linecap="butt" stroke-linejoin="miter" stroke-dasharray="none" fill-opacity="0" />
        <path d="M-279.0576 505.0287 L-279.0576 502.9573 L-293.3309 502.9573 L-293.3309 505.0287 Z " opacity="1" fill="#026C9B" fill-opacity="1" />
        <path d="M-293.3309 505.0287 L-279.0576 505.0287 L-279.0576 502.9573 L-293.3309 502.9573 Z " opacity="1" stroke="#FFFFFF" stroke-opacity="1" stroke-width="0.4" stroke-linecap="butt" stroke-linejoin="miter" stroke-dasharray="none" fill-opacity="0" />
        <path d="M-279.0576 509.324 L-279.0576 507.252 L-293.3309 507.252 L-293.3309 509.324 Z " opacity="1" fill="#026C9B" fill-opacity="1" />
        <path d="M-293.3309 509.324 L-279.0576 509.324 L-279.0576 507.252 L-293.3309 507.252 Z " opacity="1" stroke="#FFFFFF" stroke-opacity="1" stroke-width="0.4" stroke-linecap="butt" stroke-linejoin="miter" stroke-dasharray="none" fill-opacity="0" />
        <path d="M-279.0576 513.6262 L-279.0576 511.5542 L-293.3309 511.5542 L-293.3309 513.6262 Z " opacity="1" fill="#026C9B" fill-opacity="1" />
        <path d="M-293.3309 513.6262 L-279.0576 513.6262 L-279.0576 511.5542 L-293.3309 511.5542 Z " opacity="1" stroke="#FFFFFF" stroke-opacity="1" stroke-width="0.4" stroke-linecap="butt" stroke-linejoin="miter" stroke-dasharray="none" fill-opacity="0" />
        <path d="M-279.0576 517.9137 L-279.0576 515.8417 L-293.3309 515.8417 L-293.3309 517.9137 Z " opacity="1" fill="#026C9B" fill-opacity="1" />
        <path d="M-293.3309 517.9137 L-279.0576 517.9137 L-279.0576 515.8417 L-293.3309 515.8417 Z " opacity="1" stroke="#FFFFFF" stroke-opacity="1" stroke-width="0.4" stroke-linecap="butt" stroke-linejoin="miter" stroke-dasharray="none" fill-opacity="0" />
        <path d="M-277.3374 466.3804 L-277.3558 466.653 L-277.411 466.9237 L-277.5031 467.1887 L-277.6284 467.4488 L-277.7887 467.7067 L-277.982 467.9571 L-278.2085 468.204 L-278.4645 468.4453 L-278.7518 468.679 L-279.0686 468.9091 L-279.4131 469.1302 L-279.7851 469.3457 L-280.1848 469.5536 L-280.6102 469.7545 L-281.0614 469.9462 L-281.5366 470.1302 L-282.0338 470.3053 L-282.5532 470.4727 L-283.0947 470.6295 L-283.6564 470.7788 L-284.2384 470.9148 L-284.8388 471.0438 L-285.4558 471.1597 L-286.0912 471.2664 L-286.7413 471.3625 L-287.408 471.4454 L-288.0878 471.5173 L-288.7811 471.576 L-289.4868 471.6219 L-290.2038 471.6554 L-290.9317 471.6756 L-291.6689 471.6827 C-299.5827 471.6827 -306 469.3087 -306 466.3804 L-306 478.6114 C-306 481.5326 -299.5827 483.9137 -291.6689 483.9137 C-283.7559 483.9137 -277.3374 481.5326 -277.3374 478.6114 Z " opacity="1" fill="#026C9B" fill-opacity="1" />
        <path d="M-277.3374 466.3804 L-277.3558 466.653 L-277.411 466.9237 L-277.5031 467.1887 L-277.6284 467.4488 L-277.7887 467.7067 L-277.982 467.9571 L-278.2085 468.204 L-278.4645 468.4453 L-278.7518 468.679 L-279.0686 468.9091 L-279.4131 469.1302 L-279.7851 469.3457 L-280.1848 469.5536 L-280.6102 469.7545 L-281.0614 469.9462 L-281.5366 470.1302 L-282.0338 470.3053 L-282.5532 470.4727 L-283.0947 470.6295 L-283.6564 470.7788 L-284.2384 470.9148 L-284.8388 471.0438 L-285.4558 471.1597 L-286.0912 471.2664 L-286.7413 471.3625 L-287.408 471.4454 L-288.0878 471.5173 L-288.7811 471.576 L-289.4868 471.6219 L-290.2038 471.6554 L-290.9317 471.6756 L-291.6689 471.6827 C-299.5827 471.6827 -306 469.3087 -306 466.3804 L-306 478.6114 C-306 481.5326 -299.5827 483.9137 -291.6689 483.9137 C-283.7559 483.9137 -277.3374 481.5326 -277.3374 478.6114 Z " opacity="1" stroke="#FFFFFF" stroke-opacity="1" stroke-width="0.4" stroke-linecap="butt" stroke-linejoin="miter" stroke-dasharray="none" fill-opacity="0" />
        <path d="M-291.6689 471.6827 L-290.9317 471.6756 L-290.2038 471.6554 L-289.4868 471.6219 L-288.7811 471.576 L-288.0878 471.5173 L-287.408 471.4454 L-286.7413 471.3625 L-286.0912 471.2664 L-285.4558 471.1597 L-284.8388 471.0438 L-284.2384 470.9148 L-283.6564 470.7788 L-283.0947 470.6295 L-282.5532 470.4727 L-282.0338 470.3053 L-281.5366 470.1302 L-281.0614 469.9462 L-280.6102 469.7545 L-280.1848 469.5536 L-279.7851 469.3457 L-279.4131 469.1302 L-279.0686 468.9091 L-278.7518 468.679 L-278.4645 468.4453 L-278.2085 468.204 L-277.982 467.9571 L-277.7887 467.7067 L-277.6284 467.4488 L-277.5031 467.1887 L-277.411 466.9237 L-277.3558 466.653 L-277.3374 466.3804 C-277.3374 463.4465 -283.7559 461.0725 -291.6689 461.0725 C-299.5827 461.0725 -306 463.4465 -306 466.3804 C-306 469.3087 -299.5827 471.6827 -291.6689 471.6827 Z " opacity="1" fill="#026C9B" fill-opacity="1" />
        <path d="M-291.6689 471.6827 L-290.9317 471.6756 L-290.2038 471.6554 L-289.4868 471.6219 L-288.7811 471.576 L-288.0878 471.5173 L-287.408 471.4454 L-286.7413 471.3625 L-286.0912 471.2664 L-285.4558 471.1597 L-284.8388 471.0438 L-284.2384 470.9148 L-283.6564 470.7788 L-283.0947 470.6295 L-282.5532 470.4727 L-282.0338 470.3053 L-281.5366 470.1302 L-281.0614 469.9462 L-280.6102 469.7545 L-280.1848 469.5536 L-279.7851 469.3457 L-279.4131 469.1302 L-279.0686 468.9091 L-278.7518 468.679 L-278.4645 468.4453 L-278.2085 468.204 L-277.982 467.9571 L-277.7887 467.7067 L-277.6284 467.4488 L-277.5031 467.1887 L-277.411 466.9237 L-277.3558 466.653 L-277.3374 466.3804 C-277.3374 463.4465 -283.7559 461.0725 -291.6689 461.0725 C-299.5827 461.0725 -306 463.4465 -306 466.3804 C-306 469.3087 -299.5827 471.6827 -291.6689 471.6827 Z " opacity="1" stroke="#FFFFFF" stroke-opacity="1" stroke-width="0.4" stroke-linecap="butt" stroke-linejoin="miter" stroke-dasharray="none" fill-opacity="0" />
        <path d="M-261.992 477.4306 L-262.0104 477.7034 L-262.0657 477.9739 L-262.1577 478.2395 L-262.283 478.499 L-262.4432 478.757 L-262.6366 479.0074 L-262.8613 479.2543 L-263.1192 479.4956 L-263.4065 479.7292 L-263.7214 479.9594 L-264.0677 480.1805 L-264.4397 480.3959 L-264.8393 480.6044 L-265.2648 480.8052 L-265.716 480.9963 L-266.1912 481.1805 L-266.6884 481.3556 L-267.2079 481.523 L-267.7493 481.6797 L-268.311 481.829 L-268.893 481.9651 L-269.4934 482.0941 L-270.1104 482.2104 L-270.7458 482.3172 L-271.3959 482.4128 L-272.0627 482.4957 L-272.7422 482.5675 L-273.4348 482.6262 L-274.142 482.6723 L-274.8584 482.7057 L-275.5859 482.7259 L-276.3244 482.7335 C-284.2366 482.7335 -290.6546 480.359 -290.6546 477.4306 L-290.6546 489.6621 C-290.6546 492.5829 -284.2366 494.9644 -276.3244 494.9644 C-268.4105 494.9644 -261.992 492.5829 -261.992 489.6621 Z " opacity="1" fill="#026C9B" fill-opacity="1" />
        <path d="M-261.992 477.4306 L-262.0104 477.7034 L-262.0657 477.9739 L-262.1577 478.2395 L-262.283 478.499 L-262.4432 478.757 L-262.6366 479.0074 L-262.8613 479.2543 L-263.1192 479.4956 L-263.4065 479.7292 L-263.7214 479.9594 L-264.0677 480.1805 L-264.4397 480.3959 L-264.8393 480.6044 L-265.2648 480.8052 L-265.716 480.9963 L-266.1912 481.1805 L-266.6884 481.3556 L-267.2079 481.523 L-267.7493 481.6797 L-268.311 481.829 L-268.893 481.9651 L-269.4934 482.0941 L-270.1104 482.2104 L-270.7458 482.3172 L-271.3959 482.4128 L-272.0627 482.4957 L-272.7422 482.5675 L-273.4348 482.6262 L-274.142 482.6723 L-274.8584 482.7057 L-275.5859 482.7259 L-276.3244 482.7335 C-284.2366 482.7335 -290.6546 480.359 -290.6546 477.4306 L-290.6546 489.6621 C-290.6546 492.5829 -284.2366 494.9644 -276.3244 494.9644 C-268.4105 494.9644 -261.992 492.5829 -261.992 489.6621 Z " opacity="1" stroke="#FFFFFF" stroke-opacity="1" stroke-width="0.4" stroke-linecap="butt" stroke-linejoin="miter" stroke-dasharray="none" fill-opacity="0" />
        <path d="M-276.3244 482.7335 L-275.5859 482.7259 L-274.8584 482.7057 L-274.142 482.6723 L-273.4348 482.6262 L-272.7422 482.5675 L-272.0627 482.4957 L-271.3959 482.4128 L-270.7458 482.3172 L-270.1104 482.2104 L-269.4934 482.0941 L-268.893 481.9651 L-268.311 481.829 L-267.7493 481.6797 L-267.2079 481.523 L-266.6884 481.3556 L-266.1912 481.1805 L-265.716 480.9963 L-265.2648 480.8052 L-264.8393 480.6044 L-264.4397 480.3959 L-264.0677 480.1805 L-263.7214 479.9594 L-263.4065 479.7292 L-263.1192 479.4956 L-262.8613 479.2543 L-262.6366 479.0074 L-262.4432 478.757 L-262.283 478.499 L-262.1577 478.2395 L-262.0657 477.9739 L-262.0104 477.7034 L-261.992 477.4306 C-261.992 474.4967 -268.4105 472.1228 -276.3244 472.1228 C-284.2366 472.1228 -290.6546 474.4967 -290.6546 477.4306 C-290.6546 480.359 -284.2366 482.7335 -276.3244 482.7335 Z " opacity="1" fill="#026C9B" fill-opacity="1" />
        <path d="M-276.3244 482.7335 L-275.5859 482.7259 L-274.8584 482.7057 L-274.142 482.6723 L-273.4348 482.6262 L-272.7422 482.5675 L-272.0627 482.4957 L-271.3959 482.4128 L-270.7458 482.3172 L-270.1104 482.2104 L-269.4934 482.0941 L-268.893 481.9651 L-268.311 481.829 L-267.7493 481.6797 L-267.2079 481.523 L-266.6884 481.3556 L-266.1912 481.1805 L-265.716 480.9963 L-265.2648 480.8052 L-264.8393 480.6044 L-264.4397 480.3959 L-264.0677 480.1805 L-263.7214 479.9594 L-263.4065 479.7292 L-263.1192 479.4956 L-262.8613 479.2543 L-262.6366 479.0074 L-262.4432 478.757 L-262.283 478.499 L-262.1577 478.2395 L-262.0657 477.9739 L-262.0104 477.7034 L-261.992 477.4306 C-261.992 474.4967 -268.4105 472.1228 -276.3244 472.1228 C-284.2366 472.1228 -290.6546 474.4967 -290.6546 477.4306 C-290.6546 480.359 -284.2366 482.7335 -276.3244 482.7335 Z " opacity="1" stroke="#FFFFFF" stroke-opacity="1" stroke-width="0.4" stroke-linecap="butt" stroke-linejoin="miter" stroke-dasharray="none" fill-opacity="0" />
      </g>
    </g>
    <g>
      <rect x="117" y="306" width="81" height="63" opacity="1" stroke="#000000" stroke-opacity="1" stroke-width="1" stroke-linecap="butt" stroke-linejoin="miter" stroke-dasharray="none" fill="#FFFFFF" fill-opacity="1" filter="url(#shadow1)" />
      <g>
        <g>
          <g>
            <path d="M139.5 324 L139.5 351 Q144.25 355.5 158.5 355.5 Q172.75 355.5 177.5 351 L177.5 324 Z " opacity="1" stroke="#000000" stroke-opacity="1" stroke-width="1" stroke-linecap="butt" stroke-linejoin="miter" stroke-dasharray="none" fill="#FFFFFF" fill-opacity="1" />
            <ellipse cx="158.5" cy="324" rx="19" ry="4.5" opacity="1" stroke="#000000" stroke-opacity="1" stroke-width="1" stroke-linecap="butt" stroke-linejoin="miter" stroke-dasharray="none" fill="#FFFFFF" fill-opacity="1" />
          </g>
        </g>
      </g>
    </g>
    <g>
      <rect x="-297" y="297" width="81" height="63" opacity="1" stroke="#000000" stroke-opacity="1" stroke-width="1" stroke-linecap="butt" stroke-linejoin="miter" stroke-dasharray="none" fill="#FFFFFF" fill-opacity="1" filter="url(#shadow1)" />
      <path d="M-279 315 L-234 315 L-225 342 L-288 342 Z " opacity="1" stroke="#000000" stroke-opacity="1" stroke-width="1" stroke-linecap="butt" stroke-linejoin="miter" stroke-dasharray="none" fill="#FFFFFF" fill-opacity="1" />
    </g>
    <g>
      <rect x="-189" y="306" width="81" height="63" opacity="1" stroke="#000000" stroke-opacity="1" stroke-width="1" stroke-linecap="butt" stroke-linejoin="miter" stroke-dasharray="none" fill="#FFFFFF" fill-opacity="1" filter="url(#shadow1)" />
      <path d="M-171 324 L-126 324 L-117 351 L-180 351 Z " opacity="1" stroke="#000000" stroke-opacity="1" stroke-width="1" stroke-linecap="butt" stroke-linejoin="miter" stroke-dasharray="none" fill="#FFFFFF" fill-opacity="1" />
    </g>
    <g>
      <rect x="-198" y="297" width="81" height="63" opacity="1" stroke="#000000" stroke-opacity="1" stroke-width="1" stroke-linecap="butt" stroke-linejoin="miter" stroke-dasharray="none" fill="#FFFFFF" fill-opacity="1" filter="url(#shadow1)" />
      <path d="M-180 315 L-135 315 L-126 342 L-189 342 Z " opacity="1" stroke="#000000" stroke-opacity="1" stroke-width="1" stroke-linecap="butt" stroke-linejoin="miter" stroke-dasharray="none" fill="#FFFFFF" fill-opacity="1" />
    </g>
    <g>
      <rect x="9" y="297" width="81" height="63" opacity="1" stroke="#000000" stroke-opacity="1" stroke-width="1" stroke-linecap="butt" stroke-linejoin="miter" stroke-dasharray="none" fill="#FFFFFF" fill-opacity="1" filter="url(#shadow1)" />
      <rect x="18" y="306" width="63" height="45" rx="9" ry="9" opacity="1" stroke="#000000" stroke-opacity="1" stroke-width="1" stroke-linecap="butt" stroke-linejoin="miter" stroke-dasharray="none" fill="#FFFFFF" fill-opacity="1" />
      <g>
        <ellipse cx="49.78728" cy="328.1036" rx="18" ry="18" opacity="1" stroke="#000000" stroke-opacity="1" stroke-width="1" stroke-linecap="butt" stroke-linejoin="miter" stroke-dasharray="none" fill="#FFFFFF" fill-opacity="1" />
        <ellipse cx="49.78728" cy="328.1036" rx="9" ry="18" opacity="1" stroke="#000000" stroke-opacity="1" stroke-width="1" stroke-linecap="butt" stroke-linejoin="miter" stroke-dasharray="none" fill="#FFFFFF" fill-opacity="1" />
        <line x1="31.78728" y1="328.1037" x2="67.78728" y2="328.1037" opacity="1" stroke="#000000" stroke-opacity="1" stroke-width="1" stroke-linecap="butt" stroke-linejoin="miter" stroke-dasharray="none" />
        <path d="M33.59339 320.8782 Q50.69196 314.3807 65.73874 320.8782" opacity="1" stroke="#000000" stroke-opacity="1" stroke-width="1" stroke-linecap="butt" stroke-linejoin="miter" stroke-dasharray="none" fill-opacity="0" />
        <path d="M34.04456 336.7177 Q50.45926 341.1634 66.19003 336.7177" opacity="1" stroke="#000000" stroke-opacity="1" stroke-width="1" stroke-linecap="butt" stroke-linejoin="miter" stroke-dasharray="none" fill-opacity="0" />
        <line x1="49.66603" y1="310.619" x2="49.66603" y2="346.5261" opacity="1" stroke="#000000" stroke-opacity="1" stroke-width="1" stroke-linecap="butt" stroke-linejoin="miter" stroke-dasharray="none" />
      </g>
    </g>
    <g>
      <rect x="108" y="297" width="81" height="63" opacity="1" stroke="#000000" stroke-opacity="1" stroke-width="1" stroke-linecap="butt" stroke-linejoin="miter" stroke-dasharray="none" fill="#FFFFFF" fill-opacity="1" filter="url(#shadow1)" />
      <g>
        <g>
          <g>
            <path d="M130.5 315 L130.5 342 Q135.25 346.5 149.5 346.5 Q163.75 346.5 168.5 342 L168.5 315 Z " opacity="1" stroke="#000000" stroke-opacity="1" stroke-width="1" stroke-linecap="butt" stroke-linejoin="miter" stroke-dasharray="none" fill="#FFFFFF" fill-opacity="1" />
            <ellipse cx="149.5" cy="315" rx="19" ry="4.5" opacity="1" stroke="#000000" stroke-opacity="1" stroke-width="1" stroke-linecap="butt" stroke-linejoin="miter" stroke-dasharray="none" fill="#FFFFFF" fill-opacity="1" />
          </g>
        </g>
      </g>
    </g>
    <g>
      <rect x="-93.99995" y="297" width="81" height="63" opacity="1" stroke="#000000" stroke-opacity="1" stroke-width="1" stroke-linecap="butt" stroke-linejoin="miter" stroke-dasharray="none" fill="#FFFFFF" fill-opacity="1" filter="url(#shadow1)" />
      <rect x="-75.99996" y="306" width="18" height="45" opacity="1" stroke="#000000" stroke-opacity="1" stroke-width="1" stroke-linecap="butt" stroke-linejoin="miter" stroke-dasharray="none" fill="#FFFFFF" fill-opacity="1" />
      <rect x="-48.99996" y="306" width="18" height="45" opacity="1" stroke="#000000" stroke-opacity="1" stroke-width="1" stroke-linecap="butt" stroke-linejoin="miter" stroke-dasharray="none" fill="#FFFFFF" fill-opacity="1" />
      <line x1="-66.99996" y1="315" x2="-39.99996" y2="342" opacity="1" stroke="#000000" stroke-opacity="1" stroke-width="1" stroke-linecap="butt" stroke-linejoin="miter" stroke-dasharray="none" />
      <line x1="-66.99996" y1="342" x2="-39.99996" y2="315" opacity="1" stroke="#000000" stroke-opacity="1" stroke-width="1" stroke-linecap="butt" stroke-linejoin="miter" stroke-dasharray="none" />
    </g>
    <g>
      <rect x="324" y="306" width="81" height="63" opacity="1" stroke="#000000" stroke-opacity="1" stroke-width="1" stroke-linecap="butt" stroke-linejoin="miter" stroke-dasharray="none" fill="#FFFFFF" fill-opacity="1" filter="url(#shadow1)" />
      <path d="M342 324 L387 324 L396 351 L333 351 Z " opacity="1" stroke="#000000" stroke-opacity="1" stroke-width="1" stroke-linecap="butt" stroke-linejoin="miter" stroke-dasharray="none" fill="#FFFFFF" fill-opacity="1" />
    </g>
    <g>
      <rect x="315" y="297" width="81" height="63" opacity="1" stroke="#000000" stroke-opacity="1" stroke-width="1" stroke-linecap="butt" stroke-linejoin="miter" stroke-dasharray="none" fill="#FFFFFF" fill-opacity="1" filter="url(#shadow1)" />
      <path d="M333 315 L378 315 L387 342 L324 342 Z " opacity="1" stroke="#000000" stroke-opacity="1" stroke-width="1" stroke-linecap="butt" stroke-linejoin="miter" stroke-dasharray="none" fill="#FFFFFF" fill-opacity="1" />
    </g>
    <g>
      <rect x="576" y="297" width="81" height="63" opacity="1" stroke="#000000" stroke-opacity="1" stroke-width="1" stroke-linecap="butt" stroke-linejoin="miter" stroke-dasharray="none" fill="#FFFFFF" fill-opacity="1" filter="url(#shadow1)" />
      <path d="M594 315 L639 315 L648 342 L585 342 Z " opacity="1" stroke="#000000" stroke-opacity="1" stroke-width="1" stroke-linecap="butt" stroke-linejoin="miter" stroke-dasharray="none" fill="#FFFFFF" fill-opacity="1" />
    </g>
    <rect x="486" y="297" width="81" height="63" opacity="1" stroke="#000000" stroke-opacity="1" stroke-width="1" stroke-linecap="butt" stroke-linejoin="miter" stroke-dasharray="none" fill="#FFFFFF" fill-opacity="1" filter="url(#shadow1)" />
    <text x="511.5488" y="335.5659" font-size="24" fill="#000000" fill-opacity="1" font-family="Arial" font-weight="normal" font-style="normal">. . .</text>
    <g>
      <g>
        <path d="M-111.4192 492.5897 L-111.4202 492.6232 L-111.4222 492.6562 L-111.4262 492.6889 L-111.4322 492.7209 L-111.4392 492.7522 L-111.4482 492.7831 L-111.4582 492.8133 L-111.4702 492.8427 L-111.4832 492.8714 L-111.4972 492.8994 L-111.5122 492.9266 L-111.5292 492.9528 L-111.5472 492.9782 L-111.5662 493.0028 L-111.5872 493.0263 L-111.6082 493.0488 L-111.6312 493.0703 L-111.6542 493.0906 L-111.6792 493.1098 L-111.7042 493.1279 L-111.7302 493.1447 L-111.7582 493.1602 L-111.7862 493.1745 L-111.8142 493.1875 L-111.8442 493.1991 L-111.8742 493.2092 L-111.9052 493.2179 L-111.9362 493.2252 L-111.9682 493.2308 L-112.0012 493.2349 L-112.0342 493.2374 L-112.0672 493.2382 L-173.3487 493.2382 C-173.7081 493.2382 -173.9972 492.9491 -173.9972 492.5897 L-170.5948 472.0629 C-170.5948 471.7069 -170.3058 471.4139 -169.9462 471.4139 L-109.7432 471.4139 C-109.3842 471.4139 -109.0952 471.7069 -109.0952 472.0629 Z " opacity="1" fill="#036998" fill-opacity="1" />
        <path d="M-111.4192 492.5897 L-111.4202 492.6232 L-111.4222 492.6562 L-111.4262 492.6889 L-111.4322 492.7209 L-111.4392 492.7522 L-111.4482 492.7831 L-111.4582 492.8133 L-111.4702 492.8427 L-111.4832 492.8714 L-111.4972 492.8994 L-111.5122 492.9266 L-111.5292 492.9528 L-111.5472 492.9782 L-111.5662 493.0028 L-111.5872 493.0263 L-111.6082 493.0488 L-111.6312 493.0703 L-111.6542 493.0906 L-111.6792 493.1098 L-111.7042 493.1279 L-111.7302 493.1447 L-111.7582 493.1602 L-111.7862 493.1745 L-111.8142 493.1875 L-111.8442 493.1991 L-111.8742 493.2092 L-111.9052 493.2179 L-111.9362 493.2252 L-111.9682 493.2308 L-112.0012 493.2349 L-112.0342 493.2374 L-112.0672 493.2382 L-173.3487 493.2382 C-173.7081 493.2382 -173.9972 492.9491 -173.9972 492.5897 L-170.5948 472.0629 C-170.5948 471.7069 -170.3058 471.4139 -169.9462 471.4139 L-109.7432 471.4139 C-109.3842 471.4139 -109.0952 471.7069 -109.0952 472.0629 Z " opacity="1" stroke="#FFFFFF" stroke-opacity="1" stroke-width="0.39999" stroke-linecap="butt" stroke-linejoin="miter" stroke-dasharray="none" fill-opacity="0" />
        <path d="M-103.1302 489.6641 L-103.1312 489.6974 L-103.1332 489.7305 L-103.1372 489.7631 L-103.1432 489.7951 L-103.1502 489.8264 L-103.1592 489.8573 L-103.1692 489.8875 L-103.1812 489.9169 L-103.1942 489.9456 L-103.2082 489.9736 L-103.2232 490.0008 L-103.2402 490.0272 L-103.2582 490.0526 L-103.2772 490.077 L-103.2982 490.1005 L-103.3192 490.1229 L-103.3422 490.1445 L-103.3652 490.1648 L-103.3902 490.184 L-103.4152 490.202 L-103.4412 490.2189 L-103.4692 490.2344 L-103.4972 490.2488 L-103.5252 490.2616 L-103.5552 490.2733 L-103.5852 490.2833 L-103.6162 490.2922 L-103.6472 490.2994 L-103.6792 490.305 L-103.7122 490.3091 L-103.7452 490.3116 L-103.7782 490.3124 L-112.2702 493.2382 C-112.6302 493.2382 -112.9192 492.9491 -112.9192 492.5897 L-110.5952 472.0629 C-110.5952 471.7069 -110.3062 471.4139 -109.9462 471.4139 L-103.7432 471.4139 C-103.3842 471.4139 -103.0952 471.7069 -103.0952 472.0629 Z " opacity="1" fill="#036998" fill-opacity="1" />
        <path d="M-103.1302 489.6641 L-103.1312 489.6974 L-103.1332 489.7305 L-103.1372 489.7631 L-103.1432 489.7951 L-103.1502 489.8264 L-103.1592 489.8573 L-103.1692 489.8875 L-103.1812 489.9169 L-103.1942 489.9456 L-103.2082 489.9736 L-103.2232 490.0008 L-103.2402 490.0272 L-103.2582 490.0526 L-103.2772 490.077 L-103.2982 490.1005 L-103.3192 490.1229 L-103.3422 490.1445 L-103.3652 490.1648 L-103.3902 490.184 L-103.4152 490.202 L-103.4412 490.2189 L-103.4692 490.2344 L-103.4972 490.2488 L-103.5252 490.2616 L-103.5552 490.2733 L-103.5852 490.2833 L-103.6162 490.2922 L-103.6472 490.2994 L-103.6792 490.305 L-103.7122 490.3091 L-103.7452 490.3116 L-103.7782 490.3124 L-112.2702 493.2382 C-112.6302 493.2382 -112.9192 492.9491 -112.9192 492.5897 L-110.5952 472.0629 C-110.5952 471.7069 -110.3062 471.4139 -109.9462 471.4139 L-103.7432 471.4139 C-103.3842 471.4139 -103.0952 471.7069 -103.0952 472.0629 Z " opacity="1" stroke="#FFFFFF" stroke-opacity="1" stroke-width="0.39999" stroke-linecap="butt" stroke-linejoin="miter" stroke-dasharray="none" fill-opacity="0" />
        <path d="M-117.3452 496.0977 L-138.4422 496.0977 L-132.4892 488.3828 L-112.5362 488.3828 Z " opacity="1" fill="#036998" fill-opacity="1" />
        <path d="M-117.3452 496.0977 L-138.4422 496.0977 L-132.4892 488.3828 L-112.5362 488.3828 Z " opacity="1" stroke="#FFFFFF" stroke-opacity="1" stroke-width="0.39999" stroke-linecap="butt" stroke-linejoin="miter" stroke-dasharray="none" fill-opacity="0" />
        <path d="M-117.3452 498.5976 L-138.4422 498.5976 L-138.2042 496.1992 L-117.3452 496.1992 Z " opacity="1" fill="#036998" fill-opacity="1" />
        <path d="M-117.3452 498.5976 L-138.4422 498.5976 L-138.2042 496.1992 L-117.3452 496.1992 Z " opacity="1" stroke="#FFFFFF" stroke-opacity="1" stroke-width="0.39999" stroke-linecap="butt" stroke-linejoin="miter" stroke-dasharray="none" fill-opacity="0" />
        <path d="M-112.4072 488.4019 L-112.4072 493.328 L-117.4772 498.7461 L-117.4772 495.9179 Z " opacity="1" fill="#036998" fill-opacity="1" />
        <path d="M-112.4072 488.4019 L-112.4072 493.328 L-117.4772 498.7461 L-117.4772 495.9179 Z " opacity="1" stroke="#FFFFFF" stroke-opacity="1" stroke-width="0.39999" stroke-linecap="butt" stroke-linejoin="miter" stroke-dasharray="none" fill-opacity="0" />
        <line x1="-152.4112" y1="471.7338" x2="-155.5592" y2="493.1641" opacity="1" stroke="#036998" stroke-opacity="1" stroke-width="0" stroke-linecap="butt" stroke-linejoin="miter" stroke-dasharray="none" />
        <line x1="-152.4112" y1="471.7338" x2="-155.5592" y2="493.1641" opacity="1" stroke="#FFFFFF" stroke-opacity="1" stroke-width="0.39999" stroke-linecap="butt" stroke-linejoin="miter" stroke-dasharray="none" />
        <line x1="-130.5242" y1="471.5858" x2="-132.7042" y2="488.6018" opacity="1" stroke="#036998" stroke-opacity="1" stroke-width="0" stroke-linecap="butt" stroke-linejoin="miter" stroke-dasharray="none" />
        <line x1="-130.5242" y1="471.5858" x2="-132.7042" y2="488.6018" opacity="1" stroke="#FFFFFF" stroke-opacity="1" stroke-width="0.39999" stroke-linecap="butt" stroke-linejoin="miter" stroke-dasharray="none" />
        <path d="M-112.3452 479.1639 L-112.3482 479.2928 L-112.3572 479.4199 L-112.3732 479.5449 L-112.3952 479.6689 L-112.4232 479.7899 L-112.4572 479.9078 L-112.4962 480.0248 L-112.5412 480.1378 L-112.5912 480.2489 L-112.6462 480.3569 L-112.7062 480.4608 L-112.7712 480.5629 L-112.8412 480.6609 L-112.9152 480.7549 L-112.9932 480.8459 L-113.0762 480.9328 L-113.1632 481.0148 L-113.2542 481.0939 L-113.3482 481.1678 L-113.4462 481.2379 L-113.5472 481.3028 L-113.6522 481.3628 L-113.7602 481.4179 L-113.8712 481.4679 L-113.9842 481.5129 L-114.1002 481.5519 L-114.2192 481.5858 L-114.3402 481.6129 L-114.4632 481.6349 L-114.5892 481.6509 L-114.7162 481.6608 L-114.8452 481.6638 C-116.2242 481.6638 -117.3452 480.5468 -117.3452 479.1639 C-117.3452 477.7849 -116.2242 476.6638 -114.8452 476.6638 C-113.4622 476.6638 -112.3452 477.7849 -112.3452 479.1639 Z " opacity="1" fill="#036998" fill-opacity="1" />
        <path d="M-112.3452 479.1639 L-112.3482 479.2928 L-112.3572 479.4199 L-112.3732 479.5449 L-112.3952 479.6689 L-112.4232 479.7899 L-112.4572 479.9078 L-112.4962 480.0248 L-112.5412 480.1378 L-112.5912 480.2489 L-112.6462 480.3569 L-112.7062 480.4608 L-112.7712 480.5629 L-112.8412 480.6609 L-112.9152 480.7549 L-112.9932 480.8459 L-113.0762 480.9328 L-113.1632 481.0148 L-113.2542 481.0939 L-113.3482 481.1678 L-113.4462 481.2379 L-113.5472 481.3028 L-113.6522 481.3628 L-113.7602 481.4179 L-113.8712 481.4679 L-113.9842 481.5129 L-114.1002 481.5519 L-114.2192 481.5858 L-114.3402 481.6129 L-114.4632 481.6349 L-114.5892 481.6509 L-114.7162 481.6608 L-114.8452 481.6638 C-116.2242 481.6638 -117.3452 480.5468 -117.3452 479.1639 C-117.3452 477.7849 -116.2242 476.6638 -114.8452 476.6638 C-113.4622 476.6638 -112.3452 477.7849 -112.3452 479.1639 Z " opacity="1" stroke="#FFFFFF" stroke-opacity="1" stroke-width="0.39999" stroke-linecap="butt" stroke-linejoin="miter" stroke-dasharray="none" fill-opacity="0" />
        <path d="M-160.0952 476.1638 L-160.0982 476.2929 L-160.1072 476.4199 L-160.1232 476.5449 L-160.1452 476.6689 L-160.1732 476.7899 L-160.2072 476.9078 L-160.2462 477.0248 L-160.2912 477.1379 L-160.3412 477.2488 L-160.3962 477.3569 L-160.4562 477.4609 L-160.5212 477.5629 L-160.5912 477.6608 L-160.6652 477.7549 L-160.7432 477.8458 L-160.8262 477.9329 L-160.9132 478.0149 L-161.0042 478.0938 L-161.0982 478.1678 L-161.1962 478.2379 L-161.2972 478.3029 L-161.4022 478.3629 L-161.5102 478.4179 L-161.6212 478.4679 L-161.7342 478.5128 L-161.8502 478.5518 L-161.9692 478.5859 L-162.0901 478.6128 L-162.2132 478.6349 L-162.3392 478.6508 L-162.4662 478.6609 L-162.5952 478.6639 C-163.9742 478.6639 -165.0952 477.5468 -165.0952 476.1638 C-165.0952 474.7849 -163.9742 473.6639 -162.5952 473.6639 C-161.2122 473.6639 -160.0952 474.7849 -160.0952 476.1638 Z " opacity="1" fill="#036998" fill-opacity="1" />
        <path d="M-160.0952 476.1638 L-160.0982 476.2929 L-160.1072 476.4199 L-160.1232 476.5449 L-160.1452 476.6689 L-160.1732 476.7899 L-160.2072 476.9078 L-160.2462 477.0248 L-160.2912 477.1379 L-160.3412 477.2488 L-160.3962 477.3569 L-160.4562 477.4609 L-160.5212 477.5629 L-160.5912 477.6608 L-160.6652 477.7549 L-160.7432 477.8458 L-160.8262 477.9329 L-160.9132 478.0149 L-161.0042 478.0938 L-161.0982 478.1678 L-161.1962 478.2379 L-161.2972 478.3029 L-161.4022 478.3629 L-161.5102 478.4179 L-161.6212 478.4679 L-161.7342 478.5128 L-161.8502 478.5518 L-161.9692 478.5859 L-162.0901 478.6128 L-162.2132 478.6349 L-162.3392 478.6508 L-162.4662 478.6609 L-162.5952 478.6639 C-163.9742 478.6639 -165.0952 477.5468 -165.0952 476.1638 C-165.0952 474.7849 -163.9742 473.6639 -162.5952 473.6639 C-161.2122 473.6639 -160.0952 474.7849 -160.0952 476.1638 Z " opacity="1" stroke="#FFFFFF" stroke-opacity="1" stroke-width="0.39999" stroke-linecap="butt" stroke-linejoin="miter" stroke-dasharray="none" fill-opacity="0" />
        <path d="M-126.8562 492.4258 L-126.9142 492.5329 L-126.9782 492.6382 L-127.0492 492.7416 L-127.1262 492.8428 L-127.2092 492.942 L-127.2982 493.0387 L-127.3932 493.133 L-127.4922 493.2247 L-127.5972 493.3139 L-127.7062 493.4001 L-127.8202 493.4835 L-127.9382 493.5638 L-128.0602 493.6409 L-128.1862 493.7146 L-128.3162 493.785 L-128.4492 493.8519 L-128.5842 493.9152 L-128.7232 493.9747 L-128.8642 494.0303 L-129.0082 494.0818 L-129.1532 494.1293 L-129.3002 494.1725 L-129.4492 494.2113 L-129.5992 494.2457 L-129.7502 494.2753 L-129.9022 494.3003 L-130.0552 494.3204 L-130.2082 494.3354 L-130.3612 494.3455 L-130.5132 494.3503 L-130.6662 494.3497 L-130.8172 494.3437 C-132.4272 494.2499 -133.2662 493.246 -132.6922 492.0937 C-132.1182 490.9414 -130.3452 490.0858 -128.7352 490.1758 C-127.1222 490.2694 -126.2822 491.2773 -126.8562 492.4258 Z " opacity="1" fill="#036998" fill-opacity="1" />
        <path d="M-126.8562 492.4258 L-126.9142 492.5329 L-126.9782 492.6382 L-127.0492 492.7416 L-127.1262 492.8428 L-127.2092 492.942 L-127.2982 493.0387 L-127.3932 493.133 L-127.4922 493.2247 L-127.5972 493.3139 L-127.7062 493.4001 L-127.8202 493.4835 L-127.9382 493.5638 L-128.0602 493.6409 L-128.1862 493.7146 L-128.3162 493.785 L-128.4492 493.8519 L-128.5842 493.9152 L-128.7232 493.9747 L-128.8642 494.0303 L-129.0082 494.0818 L-129.1532 494.1293 L-129.3002 494.1725 L-129.4492 494.2113 L-129.5992 494.2457 L-129.7502 494.2753 L-129.9022 494.3003 L-130.0552 494.3204 L-130.2082 494.3354 L-130.3612 494.3455 L-130.5132 494.3503 L-130.6662 494.3497 L-130.8172 494.3437 C-132.4272 494.2499 -133.2662 493.246 -132.6922 492.0937 C-132.1182 490.9414 -130.3452 490.0858 -128.7352 490.1758 C-127.1222 490.2694 -126.2822 491.2773 -126.8562 492.4258 Z " opacity="1" stroke="#FFFFFF" stroke-opacity="1" stroke-width="0.39999" stroke-linecap="butt" stroke-linejoin="miter" stroke-dasharray="none" fill-opacity="0" />
        <path d="M-144.3802 484.8279 L-144.4182 485.0349 L-144.4642 485.2308 L-144.5192 485.4178 L-144.5822 485.5958 L-144.6522 485.7638 L-144.7302 485.9228 L-144.8162 486.0729 L-144.9082 486.2138 L-145.0082 486.3469 L-145.1142 486.4719 L-145.2272 486.5889 L-145.3462 486.6989 L-145.4722 486.7998 L-145.6032 486.8948 L-145.7402 486.9819 L-145.8832 487.0629 L-146.0312 487.1368 L-146.1832 487.2049 L-146.3412 487.2668 L-146.5042 487.3219 L-146.6702 487.3719 L-146.8422 487.4168 L-147.0172 487.4558 L-147.1962 487.4908 L-147.3782 487.5198 L-147.5642 487.5459 L-147.7532 487.5658 L-147.9452 487.5829 L-148.1402 487.5959 L-148.3382 487.6048 L-148.5372 487.6109 L-148.7392 487.6128 C-150.9032 487.6249 -152.5792 487.1249 -152.2162 484.8709 L-151.1532 478.2309 C-150.7902 475.9729 -148.9542 475.4568 -146.7902 475.4449 C-144.6262 475.4339 -142.9542 475.9339 -143.3132 478.1879 Z " opacity="1" fill="#036998" fill-opacity="1" />
        <path d="M-144.3802 484.8279 L-144.4182 485.0349 L-144.4642 485.2308 L-144.5192 485.4178 L-144.5822 485.5958 L-144.6522 485.7638 L-144.7302 485.9228 L-144.8162 486.0729 L-144.9082 486.2138 L-145.0082 486.3469 L-145.1142 486.4719 L-145.2272 486.5889 L-145.3462 486.6989 L-145.4722 486.7998 L-145.6032 486.8948 L-145.7402 486.9819 L-145.8832 487.0629 L-146.0312 487.1368 L-146.1832 487.2049 L-146.3412 487.2668 L-146.5042 487.3219 L-146.6702 487.3719 L-146.8422 487.4168 L-147.0172 487.4558 L-147.1962 487.4908 L-147.3782 487.5198 L-147.5642 487.5459 L-147.7532 487.5658 L-147.9452 487.5829 L-148.1402 487.5959 L-148.3382 487.6048 L-148.5372 487.6109 L-148.7392 487.6128 C-150.9032 487.6249 -152.5792 487.1249 -152.2162 484.8709 L-151.1532 478.2309 C-150.7902 475.9729 -148.9542 475.4568 -146.7902 475.4449 C-144.6262 475.4339 -142.9542 475.9339 -143.3132 478.1879 Z " opacity="1" stroke="#FFFFFF" stroke-opacity="1" stroke-width="0.39999" stroke-linecap="butt" stroke-linejoin="miter" stroke-dasharray="none" fill-opacity="0" />
        <path d="M-135.6302 484.8279 L-135.6682 485.0349 L-135.7142 485.2308 L-135.7692 485.4178 L-135.8322 485.5958 L-135.9022 485.7638 L-135.9802 485.9228 L-136.0662 486.0729 L-136.1582 486.2138 L-136.2582 486.3469 L-136.3642 486.4719 L-136.4772 486.5889 L-136.5962 486.6989 L-136.7222 486.7998 L-136.8532 486.8948 L-136.9902 486.9819 L-137.1332 487.0629 L-137.2812 487.1368 L-137.4332 487.2049 L-137.5912 487.2668 L-137.7542 487.3219 L-137.9202 487.3719 L-138.0922 487.4168 L-138.2672 487.4558 L-138.4462 487.4908 L-138.6282 487.5198 L-138.8142 487.5459 L-139.0032 487.5658 L-139.1952 487.5829 L-139.3902 487.5959 L-139.5882 487.6048 L-139.7872 487.6109 L-139.9892 487.6128 C-142.1532 487.6249 -143.8292 487.1249 -143.4662 484.8709 L-142.4032 478.2309 C-142.0402 475.9729 -140.2042 475.4568 -138.0402 475.4449 C-135.8762 475.4339 -134.2042 475.9339 -134.5632 478.1879 Z " opacity="1" fill="#036998" fill-opacity="1" />
        <path d="M-135.6302 484.8279 L-135.6682 485.0349 L-135.7142 485.2308 L-135.7692 485.4178 L-135.8322 485.5958 L-135.9022 485.7638 L-135.9802 485.9228 L-136.0662 486.0729 L-136.1582 486.2138 L-136.2582 486.3469 L-136.3642 486.4719 L-136.4772 486.5889 L-136.5962 486.6989 L-136.7222 486.7998 L-136.8532 486.8948 L-136.9902 486.9819 L-137.1332 487.0629 L-137.2812 487.1368 L-137.4332 487.2049 L-137.5912 487.2668 L-137.7542 487.3219 L-137.9202 487.3719 L-138.0922 487.4168 L-138.2672 487.4558 L-138.4462 487.4908 L-138.6282 487.5198 L-138.8142 487.5459 L-139.0032 487.5658 L-139.1952 487.5829 L-139.3902 487.5959 L-139.5882 487.6048 L-139.7872 487.6109 L-139.9892 487.6128 C-142.1532 487.6249 -143.8292 487.1249 -143.4662 484.8709 L-142.4032 478.2309 C-142.0402 475.9729 -140.2042 475.4568 -138.0402 475.4449 C-135.8762 475.4339 -134.2042 475.9339 -134.5632 478.1879 Z " opacity="1" stroke="#FFFFFF" stroke-opacity="1" stroke-width="0.39999" stroke-linecap="butt" stroke-linejoin="miter" stroke-dasharray="none" fill-opacity="0" />
        <path d="M-120.2662 484.4299 L-120.3132 484.6049 L-120.3702 484.7719 L-120.4372 484.9309 L-120.5142 485.0818 L-120.6002 485.2238 L-120.6962 485.3588 L-120.8012 485.4868 L-120.9142 485.6068 L-121.0362 485.7198 L-121.1662 485.8259 L-121.3042 485.9258 L-121.4502 486.0188 L-121.6042 486.1049 L-121.7652 486.1848 L-121.9322 486.2598 L-122.1072 486.3278 L-122.2882 486.3908 L-122.4752 486.4489 L-122.6682 486.5009 L-122.8672 486.5489 L-123.0712 486.5909 L-123.2802 486.6288 L-123.4942 486.6629 L-123.7132 486.6919 L-123.9372 486.7169 L-124.1642 486.7388 L-124.3962 486.7559 L-124.6312 486.7708 L-124.8692 486.7818 L-125.1112 486.7899 L-125.6022 486.7969 C-128.2512 486.8049 -130.3022 486.3829 -129.8562 484.4648 L-128.9892 478.8199 C-128.5442 476.9018 -126.2982 476.4648 -123.6492 476.4529 C-121.0012 476.4449 -118.9502 476.8669 -119.3952 478.7849 Z " opacity="1" fill="#036998" fill-opacity="1" />
        <path d="M-120.2662 484.4299 L-120.3132 484.6049 L-120.3702 484.7719 L-120.4372 484.9309 L-120.5142 485.0818 L-120.6002 485.2238 L-120.6962 485.3588 L-120.8012 485.4868 L-120.9142 485.6068 L-121.0362 485.7198 L-121.1662 485.8259 L-121.3042 485.9258 L-121.4502 486.0188 L-121.6042 486.1049 L-121.7652 486.1848 L-121.9322 486.2598 L-122.1072 486.3278 L-122.2882 486.3908 L-122.4752 486.4489 L-122.6682 486.5009 L-122.8672 486.5489 L-123.0712 486.5909 L-123.2802 486.6288 L-123.4942 486.6629 L-123.7132 486.6919 L-123.9372 486.7169 L-124.1642 486.7388 L-124.3962 486.7559 L-124.6312 486.7708 L-124.8692 486.7818 L-125.1112 486.7899 L-125.6022 486.7969 C-128.2512 486.8049 -130.3022 486.3829 -129.8562 484.4648 L-128.9892 478.8199 C-128.5442 476.9018 -126.2982 476.4648 -123.6492 476.4529 C-121.0012 476.4449 -118.9502 476.8669 -119.3952 478.7849 Z " opacity="1" stroke="#FFFFFF" stroke-opacity="1" stroke-width="0.39999" stroke-linecap="butt" stroke-linejoin="miter" stroke-dasharray="none" fill-opacity="0" />
        <path d="M-156.6382 482.6639 L-168.9732 482.6639 L-168.6382 480.6638 L-156.3062 480.6638 Z " opacity="1" fill="#036998" fill-opacity="1" />
        <path d="M-156.6382 482.6639 L-168.9732 482.6639 L-168.6382 480.6638 L-156.3062 480.6638 Z " opacity="1" stroke="#FFFFFF" stroke-opacity="1" stroke-width="0.39999" stroke-linecap="butt" stroke-linejoin="miter" stroke-dasharray="none" fill-opacity="0" />
        <path d="M-157.3062 485.6638 L-169.6382 485.6638 L-169.3062 483.6639 L-156.9742 483.6639 Z " opacity="1" fill="#036998" fill-opacity="1" />
        <path d="M-157.3062 485.6638 L-169.6382 485.6638 L-169.3062 483.6639 L-156.9742 483.6639 Z " opacity="1" stroke="#FFFFFF" stroke-opacity="1" stroke-width="0.39999" stroke-linecap="butt" stroke-linejoin="miter" stroke-dasharray="none" fill-opacity="0" />
        <path d="M-157.9742 488.6639 L-170.3058 488.6639 L-169.9732 486.6638 L-157.6382 486.6638 Z " opacity="1" fill="#036998" fill-opacity="1" />
        <path d="M-157.9742 488.6639 L-170.3058 488.6639 L-169.9732 486.6638 L-157.6382 486.6638 Z " opacity="1" stroke="#FFFFFF" stroke-opacity="1" stroke-width="0.39999" stroke-linecap="butt" stroke-linejoin="miter" stroke-dasharray="none" fill-opacity="0" />
        <path d="M-158.6382 491.664 L-170.9737 491.664 L-170.6378 489.6641 L-158.3062 489.6641 Z " opacity="1" fill="#036998" fill-opacity="1" />
        <path d="M-158.6382 491.664 L-170.9737 491.664 L-170.6378 489.6641 L-158.3062 489.6641 Z " opacity="1" stroke="#FFFFFF" stroke-opacity="1" stroke-width="0.39999" stroke-linecap="butt" stroke-linejoin="miter" stroke-dasharray="none" fill-opacity="0" />
        <path d="M-118.6382 494.332 L-125.3062 494.332 L-122.9702 491 L-116.3062 491 Z " opacity="1" fill="#036998" fill-opacity="1" />
        <path d="M-118.6382 494.332 L-125.3062 494.332 L-122.9702 491 L-116.3062 491 Z " opacity="1" stroke="#FFFFFF" stroke-opacity="1" stroke-width="0.39999" stroke-linecap="butt" stroke-linejoin="miter" stroke-dasharray="none" fill-opacity="0" />
        <path d="M-161.6772 474.9998 C-156.6772 467.9999 -147.0132 469.6639 -147.0132 469.6639" opacity="1" fill="#036998" fill-opacity="1" />
        <path d="M-161.6772 474.9998 C-156.6772 467.9999 -147.0132 469.6639 -147.0132 469.6639" opacity="1" stroke="#FFFFFF" stroke-opacity="1" stroke-width="0.39999" stroke-linecap="butt" stroke-linejoin="miter" stroke-dasharray="none" fill-opacity="0" />
        <path d="M-144.6772 469.3318 L-144.6802 469.4009 L-144.6892 469.4689 L-144.7042 469.5359 L-144.7242 469.6008 L-144.7502 469.6658 L-144.7822 469.7288 L-144.8192 469.7909 L-144.8602 469.8519 L-144.9072 469.9108 L-144.9592 469.9679 L-145.0152 470.0238 L-145.0762 470.0779 L-145.1412 470.1298 L-145.2102 470.1809 L-145.2842 470.2289 L-145.3612 470.2748 L-145.4422 470.3188 L-145.5272 470.3608 L-145.6152 470.3998 L-145.7072 470.4369 L-145.8022 470.4719 L-145.9001 470.5039 L-146.0002 470.5329 L-146.1042 470.5598 L-146.2102 470.5839 L-146.3182 470.6049 L-146.4292 470.6219 L-146.5422 470.6368 L-146.6572 470.6488 L-146.7742 470.6569 L-146.8922 470.6619 L-147.0132 470.6639 C-148.3022 470.6639 -149.3452 470.0698 -149.3452 469.3318 C-149.3452 468.5979 -148.3022 467.9999 -147.0132 467.9999 C-145.7242 467.9999 -144.6772 468.5979 -144.6772 469.3318 Z " opacity="1" fill="#036998" fill-opacity="1" />
        <path d="M-144.6772 469.3318 L-144.6802 469.4009 L-144.6892 469.4689 L-144.7042 469.5359 L-144.7242 469.6008 L-144.7502 469.6658 L-144.7822 469.7288 L-144.8192 469.7909 L-144.8602 469.8519 L-144.9072 469.9108 L-144.9592 469.9679 L-145.0152 470.0238 L-145.0762 470.0779 L-145.1412 470.1298 L-145.2102 470.1809 L-145.2842 470.2289 L-145.3612 470.2748 L-145.4422 470.3188 L-145.5272 470.3608 L-145.6152 470.3998 L-145.7072 470.4369 L-145.8022 470.4719 L-145.9001 470.5039 L-146.0002 470.5329 L-146.1042 470.5598 L-146.2102 470.5839 L-146.3182 470.6049 L-146.4292 470.6219 L-146.5422 470.6368 L-146.6572 470.6488 L-146.7742 470.6569 L-146.8922 470.6619 L-147.0132 470.6639 C-148.3022 470.6639 -149.3452 470.0698 -149.3452 469.3318 C-149.3452 468.5979 -148.3022 467.9999 -147.0132 467.9999 C-145.7242 467.9999 -144.6772 468.5979 -144.6772 469.3318 Z " opacity="1" stroke="#FFFFFF" stroke-opacity="1" stroke-width="0.39999" stroke-linecap="butt" stroke-linejoin="miter" stroke-dasharray="none" fill-opacity="0" />
        <line x1="-166.1102" y1="479.6639" x2="-168.7742" y2="492.664" opacity="1" stroke="#036998" stroke-opacity="1" stroke-width="0.8" stroke-linecap="butt" stroke-linejoin="miter" stroke-dasharray="none" />
        <line x1="-158.2862" y1="479.6639" x2="-160.9542" y2="492.664" opacity="1" stroke="#036998" stroke-opacity="1" stroke-width="0.8" stroke-linecap="butt" stroke-linejoin="miter" stroke-dasharray="none" />
        <line x1="-162.3452" y1="479.6639" x2="-165.0132" y2="492.664" opacity="1" stroke="#036998" stroke-opacity="1" stroke-width="0.8" stroke-linecap="butt" stroke-linejoin="miter" stroke-dasharray="none" />
        <line x1="-179.3721" y1="485.3978" x2="-178.6065" y2="480.8279" opacity="1" stroke="#036998" stroke-opacity="1" stroke-width="0" stroke-linecap="butt" stroke-linejoin="miter" stroke-dasharray="none" />
        <line x1="-179.3721" y1="485.3978" x2="-178.6065" y2="480.8279" opacity="1" stroke="#FFFFFF" stroke-opacity="1" stroke-width="0.39999" stroke-linecap="butt" stroke-linejoin="miter" stroke-dasharray="none" />
        <path d="M-173.1065 478.8669 L-173.2072 479.1719 L-173.3108 479.4829 L-173.4164 479.7978 L-173.523 480.1189 L-173.6295 480.4438 L-173.735 480.7728 L-173.8385 481.1049 L-173.9391 481.4398 L-174.0356 481.7778 L-174.1272 482.1169 L-174.2128 482.4579 L-174.2914 482.7998 L-174.3621 483.1419 L-174.4239 483.4848 L-174.4758 483.8269 L-174.5167 484.1679 L-173.9464 485.3359 L-174.6769 490.6601 L-176.4581 487.2269 C-176.9854 484.6168 -174.3214 474.3049 -173.2276 473.0739 L-171.4464 476.5078 L-172.5714 479.9608 Z " opacity="1" fill="#036998" fill-opacity="1" />
        <path d="M-173.1065 478.8669 L-173.2072 479.1719 L-173.3108 479.4829 L-173.4164 479.7978 L-173.523 480.1189 L-173.6295 480.4438 L-173.735 480.7728 L-173.8385 481.1049 L-173.9391 481.4398 L-174.0356 481.7778 L-174.1272 482.1169 L-174.2128 482.4579 L-174.2914 482.7998 L-174.3621 483.1419 L-174.4239 483.4848 L-174.4758 483.8269 L-174.5167 484.1679 L-173.9464 485.3359 L-174.6769 490.6601 L-176.4581 487.2269 C-176.9854 484.6168 -174.3214 474.3049 -173.2276 473.0739 L-171.4464 476.5078 L-172.5714 479.9608 Z " opacity="1" stroke="#FFFFFF" stroke-opacity="1" stroke-width="0.39999" stroke-linecap="butt" stroke-linejoin="miter" stroke-dasharray="none" fill-opacity="0" />
        <path d="M-179.9307 487.2729 L-178.8331 490.7148 L-174.6769 490.6601 L-176.4581 487.2269 Z " opacity="1" fill="#036998" fill-opacity="1" />
        <path d="M-179.9307 487.2729 L-178.8331 490.7148 L-174.6769 490.6601 L-176.4581 487.2269 Z " opacity="1" stroke="#FFFFFF" stroke-opacity="1" stroke-width="0.39999" stroke-linecap="butt" stroke-linejoin="miter" stroke-dasharray="none" fill-opacity="0" />
        <path d="M-173.2276 473.0739 L-173.28 473.1389 L-173.3346 473.2159 L-173.3913 473.3049 L-173.45 473.4069 L-173.5105 473.5209 L-173.5727 473.6459 L-173.6367 473.7818 L-173.7021 473.9289 L-173.8372 474.2519 L-173.9771 474.6139 L-174.121 475.0098 L-174.268 475.4379 L-174.4172 475.8938 L-174.5678 476.3759 L-174.7188 476.8808 L-174.8695 477.4048 L-175.0189 477.9448 L-175.1661 478.4988 L-175.4508 479.6329 L-175.7164 480.7838 L-175.8399 481.3578 L-175.9561 481.9268 L-176.064 482.4868 L-176.1628 483.0359 L-176.2517 483.5698 L-176.3296 484.0878 L-176.3959 484.5839 L-176.4495 485.0568 L-176.4897 485.5029 L-176.5156 485.9198 L-176.5262 486.3039 L-176.5207 486.6508 L-176.5117 486.8109 L-176.4983 486.9599 L-176.4805 487.0989 L-176.4581 487.2269 L-179.9307 487.2729 C-180.462 484.6639 -177.798 474.3519 -176.7042 473.1208 Z " opacity="1" fill="#036998" fill-opacity="1" />
        <path d="M-173.2276 473.0739 L-173.28 473.1389 L-173.3346 473.2159 L-173.3913 473.3049 L-173.45 473.4069 L-173.5105 473.5209 L-173.5727 473.6459 L-173.6367 473.7818 L-173.7021 473.9289 L-173.8372 474.2519 L-173.9771 474.6139 L-174.121 475.0098 L-174.268 475.4379 L-174.4172 475.8938 L-174.5678 476.3759 L-174.7188 476.8808 L-174.8695 477.4048 L-175.0189 477.9448 L-175.1661 478.4988 L-175.4508 479.6329 L-175.7164 480.7838 L-175.8399 481.3578 L-175.9561 481.9268 L-176.064 482.4868 L-176.1628 483.0359 L-176.2517 483.5698 L-176.3296 484.0878 L-176.3959 484.5839 L-176.4495 485.0568 L-176.4897 485.5029 L-176.5156 485.9198 L-176.5262 486.3039 L-176.5207 486.6508 L-176.5117 486.8109 L-176.4983 486.9599 L-176.4805 487.0989 L-176.4581 487.2269 L-179.9307 487.2729 C-180.462 484.6639 -177.798 474.3519 -176.7042 473.1208 Z " opacity="1" stroke="#FFFFFF" stroke-opacity="1" stroke-width="0.39999" stroke-linecap="butt" stroke-linejoin="miter" stroke-dasharray="none" fill-opacity="0" />
      </g>
    </g>
    <g>
      <g>
        <path d="M364.5974 502.2575 L366.2148 502.2447 L367.808 502.2112 L369.3805 502.1535 L370.9273 502.0746 L372.4452 501.9737 L373.9358 501.8534 L375.3943 501.7119 L376.8208 501.5515 L378.2119 501.3704 L379.5662 501.173 L380.8804 500.9565 L382.1544 500.7221 L383.3866 500.4718 L384.5724 500.2056 L385.7116 499.9231 L386.8027 499.6248 L387.8424 499.3132 L388.8293 498.9861 L389.7615 498.6472 L390.636 498.2943 L391.4527 497.9303 L392.2101 497.553 L392.9032 497.1665 L393.5323 496.7686 L394.0938 496.3591 L394.588 495.9422 L395.0116 495.5152 L395.3614 495.0807 L395.6374 494.6377 L395.838 494.1882 L395.9583 493.7312 L396 493.2689 C396 488.2996 381.9409 484.2756 364.5974 484.2756 C347.2551 484.2756 333.2027 488.2996 333.2027 493.2689 C333.2027 498.2335 347.2551 502.2575 364.5974 502.2575 Z " opacity="1" fill="#036998" fill-opacity="1" />
        <path d="M364.5974 502.2575 L366.2148 502.2447 L367.808 502.2112 L369.3805 502.1535 L370.9273 502.0746 L372.4452 501.9737 L373.9358 501.8534 L375.3943 501.7119 L376.8208 501.5515 L378.2119 501.3704 L379.5662 501.173 L380.8804 500.9565 L382.1544 500.7221 L383.3866 500.4718 L384.5724 500.2056 L385.7116 499.9231 L386.8027 499.6248 L387.8424 499.3132 L388.8293 498.9861 L389.7615 498.6472 L390.636 498.2943 L391.4527 497.9303 L392.2101 497.553 L392.9032 497.1665 L393.5323 496.7686 L394.0938 496.3591 L394.588 495.9422 L395.0116 495.5152 L395.3614 495.0807 L395.6374 494.6377 L395.838 494.1882 L395.9583 493.7312 L396 493.2689 C396 488.2996 381.9409 484.2756 364.5974 484.2756 C347.2551 484.2756 333.2027 488.2996 333.2027 493.2689 C333.2027 498.2335 347.2551 502.2575 364.5974 502.2575 Z " opacity="1" stroke="#FFFFFF" stroke-opacity="1" stroke-width="0.39999" stroke-linecap="butt" stroke-linejoin="miter" stroke-dasharray="none" fill-opacity="0" />
        <path d="M364.14 460.7398 L365.2616 460.7319 L366.3687 460.7081 L367.4598 460.6679 L368.5349 460.6133 L369.5891 460.5428 L370.624 460.459 L371.6365 460.3612 L372.6265 460.2488 L373.5924 460.1237 L374.5327 459.9857 L375.4457 459.835 L376.3314 459.6728 L377.1866 459.4996 L378.0098 459.3136 L378.8008 459.1175 L379.5582 458.9108 L380.2802 458.694 L380.9653 458.4679 L381.6136 458.2321 L382.2217 457.9867 L382.7881 457.7328 L383.3144 457.4715 L383.7958 457.2035 L384.2322 456.9259 L384.6221 456.6434 L384.9655 456.353 L385.2592 456.0564 L385.5031 455.7545 L385.694 455.4482 L385.8336 455.1353 L385.9171 454.8176 L385.9459 454.4967 C385.9459 451.05 376.1806 448.2533 364.14 448.2533 C352.0931 448.2533 342.3348 451.05 342.3348 454.4967 C342.3348 457.9448 352.0931 460.7398 364.14 460.7398 Z " opacity="1" fill="#036998" fill-opacity="1" />
        <path d="M364.14 460.7398 L365.2616 460.7319 L366.3687 460.7081 L367.4598 460.6679 L368.5349 460.6133 L369.5891 460.5428 L370.624 460.459 L371.6365 460.3612 L372.6265 460.2488 L373.5924 460.1237 L374.5327 459.9857 L375.4457 459.835 L376.3314 459.6728 L377.1866 459.4996 L378.0098 459.3136 L378.8008 459.1175 L379.5582 458.9108 L380.2802 458.694 L380.9653 458.4679 L381.6136 458.2321 L382.2217 457.9867 L382.7881 457.7328 L383.3144 457.4715 L383.7958 457.2035 L384.2322 456.9259 L384.6221 456.6434 L384.9655 456.353 L385.2592 456.0564 L385.5031 455.7545 L385.694 455.4482 L385.8336 455.1353 L385.9171 454.8176 L385.9459 454.4967 C385.9459 451.05 376.1806 448.2533 364.14 448.2533 C352.0931 448.2533 342.3348 451.05 342.3348 454.4967 C342.3348 457.9448 352.0931 460.7398 364.14 460.7398 Z " opacity="1" stroke="#FFFFFF" stroke-opacity="1" stroke-width="0.39999" stroke-linecap="butt" stroke-linejoin="miter" stroke-dasharray="none" fill-opacity="0" />
        <path d="M364.1962 488.2996 L364.14 495.3005 C352.0931 495.3005 342.3348 492.5052 342.3348 489.0505 L342.3348 454.4967 C342.3348 457.9448 352.0931 460.7398 364.14 460.7398 C376.1806 460.7398 385.9459 457.9448 385.9459 454.4967 L385.9459 489.0505 C385.9459 491.2633 381.4772 493.3011 375.4168 494.4099" opacity="1" fill="#036998" fill-opacity="1" />
        <path d="M364.1962 488.2996 L364.14 495.3005 C352.0931 495.3005 342.3348 492.5052 342.3348 489.0505 L342.3348 454.4967 C342.3348 457.9448 352.0931 460.7398 364.14 460.7398 C376.1806 460.7398 385.9459 457.9448 385.9459 454.4967 L385.9459 489.0505 C385.9459 491.2633 381.4772 493.3011 375.4168 494.4099" opacity="1" stroke="#FFFFFF" stroke-opacity="1" stroke-width="0.39999" stroke-linecap="butt" stroke-linejoin="miter" stroke-dasharray="none" fill-opacity="0" />
        <path d="M391.0724 513.9468 L391.0724 498.1775 L382.7063 492.3738 L382.7063 457.813" opacity="1" stroke="#FFFFFF" stroke-opacity="1" stroke-width="0.39999" stroke-linecap="butt" stroke-linejoin="miter" stroke-dasharray="none" fill-opacity="0" />
        <path d="M347.4744 516.8862 L347.4744 501.1104 L352.4188 494.3169 L352.4188 459.7548" opacity="1" stroke="#FFFFFF" stroke-opacity="1" stroke-width="0.39999" stroke-linecap="butt" stroke-linejoin="miter" stroke-dasharray="none" fill-opacity="0" />
        <path d="M337.6152 513.8528 L337.6152 498.0827 L345.5753 492.1777 L345.5753 457.624" opacity="1" stroke="#FFFFFF" stroke-opacity="1" stroke-width="0.39999" stroke-linecap="butt" stroke-linejoin="miter" stroke-dasharray="none" fill-opacity="0" />
        <line x1="364.14" y1="460.7398" x2="364.14" y2="495.3005" opacity="1" stroke="#FFFFFF" stroke-opacity="1" stroke-width="0.39999" stroke-linecap="butt" stroke-linejoin="miter" stroke-dasharray="none" />
        <line x1="375.266" y1="494.4161" x2="375.266" y2="459.8367" opacity="1" stroke="#000000" stroke-opacity="1" stroke-width="0" stroke-linecap="butt" stroke-linejoin="miter" stroke-dasharray="none" />
        <line x1="375.266" y1="494.4161" x2="375.266" y2="459.8367" opacity="1" stroke="#FFFFFF" stroke-opacity="1" stroke-width="0.39999" stroke-linecap="butt" stroke-linejoin="miter" stroke-dasharray="none" />
        <path d="M396 509.1955 L395.9454 509.4916 L395.862 509.786 L395.7465 510.0787 L395.6005 510.3695 L395.4256 510.6577 L395.2202 510.9438 L394.9875 511.2272 L394.726 511.5079 L394.4355 511.7855 L394.1194 512.0601 L393.7745 512.3311 L393.4039 512.5986 L393.0075 512.8622 L392.5855 513.1218 L392.1378 513.3773 L391.6661 513.6285 L391.1703 513.8754 L390.6504 514.1169 L390.1081 514.3535 L389.5417 514.5853 L388.9544 514.8114 L388.3447 515.0317 L387.7125 515.2468 L387.061 515.4553 L386.3887 515.658 L385.6972 515.8541 L384.9848 516.0441 L384.2547 516.2269 L383.5054 516.4027 L382.7384 516.5712 L381.9538 516.7324 L381.1515 516.8862 L381.1756 500.9164 C389.7936 499.3119 395.5989 496.5341 396 493.3703 Z " opacity="1" fill="#036998" fill-opacity="1" />
        <path d="M396 509.1955 L395.9454 509.4916 L395.862 509.786 L395.7465 510.0787 L395.6005 510.3695 L395.4256 510.6577 L395.2202 510.9438 L394.9875 511.2272 L394.726 511.5079 L394.4355 511.7855 L394.1194 512.0601 L393.7745 512.3311 L393.4039 512.5986 L393.0075 512.8622 L392.5855 513.1218 L392.1378 513.3773 L391.6661 513.6285 L391.1703 513.8754 L390.6504 514.1169 L390.1081 514.3535 L389.5417 514.5853 L388.9544 514.8114 L388.3447 515.0317 L387.7125 515.2468 L387.061 515.4553 L386.3887 515.658 L385.6972 515.8541 L384.9848 516.0441 L384.2547 516.2269 L383.5054 516.4027 L382.7384 516.5712 L381.9538 516.7324 L381.1515 516.8862 L381.1756 500.9164 C389.7936 499.3119 395.5989 496.5341 396 493.3703 Z " opacity="1" stroke="#FFFFFF" stroke-opacity="1" stroke-width="0.39999" stroke-linecap="butt" stroke-linejoin="miter" stroke-dasharray="none" fill-opacity="0" />
        <path d="M333.0021 508.9576 L333.027 509.4564 L333.1381 509.946 L333.3329 510.426 L333.6091 510.8966 L333.9644 511.3568 L334.3966 511.8058 L334.9032 512.2439 L335.4821 512.6705 L336.1308 513.0847 L336.8471 513.4862 L337.6285 513.8754 L338.473 514.2504 L339.3781 514.6118 L340.3417 514.9586 L341.3612 515.2909 L342.4343 515.6077 L343.559 515.9088 L344.7325 516.1938 L345.9529 516.4623 L347.2178 516.7134 L348.5248 516.947 L349.8723 517.163 L351.2555 517.3604 L352.6755 517.5389 L354.1292 517.698 L355.6119 517.8377 L357.1234 517.9567 L358.6605 518.0554 L360.2217 518.1326 L361.8038 518.1885 L363.4052 518.2224 L365.0242 518.2339 L365.0242 502.2192 C347.3804 502.3139 332.8015 498.4018 333.0021 493.038 Z " opacity="1" fill="#036998" fill-opacity="1" />
        <path d="M333.0021 508.9576 L333.027 509.4564 L333.1381 509.946 L333.3329 510.426 L333.6091 510.8966 L333.9644 511.3568 L334.3966 511.8058 L334.9032 512.2439 L335.4821 512.6705 L336.1308 513.0847 L336.8471 513.4862 L337.6285 513.8754 L338.473 514.2504 L339.3781 514.6118 L340.3417 514.9586 L341.3612 515.2909 L342.4343 515.6077 L343.559 515.9088 L344.7325 516.1938 L345.9529 516.4623 L347.2178 516.7134 L348.5248 516.947 L349.8723 517.163 L351.2555 517.3604 L352.6755 517.5389 L354.1292 517.698 L355.6119 517.8377 L357.1234 517.9567 L358.6605 518.0554 L360.2217 518.1326 L361.8038 518.1885 L363.4052 518.2224 L365.0242 518.2339 L365.0242 502.2192 C347.3804 502.3139 332.8015 498.4018 333.0021 493.038 Z " opacity="1" stroke="#FFFFFF" stroke-opacity="1" stroke-width="0.39999" stroke-linecap="butt" stroke-linejoin="miter" stroke-dasharray="none" fill-opacity="0" />
        <path d="M364.1962 460.6018 L364.0967 456.4896 C365.4574 456.4896 366.8164 456.3773 367.8642 456.2649 L375.266 459.8367 L375.266 494.4161 L381.182 500.8151 L381.182 516.9739 L367.6877 510.8627 C367.2304 510.8627 365.106 511.1513 364.9552 511.1513 L364.9552 502.2447 L364.1962 495.2746 Z " opacity="1" fill="#036998" fill-opacity="1" />
        <path d="M364.1962 460.6018 L364.0967 456.4896 C365.4574 456.4896 366.8164 456.3773 367.8642 456.2649 L375.266 459.8367 L375.266 494.4161 L381.182 500.8151 L381.182 516.9739 L367.6877 510.8627 C367.2304 510.8627 365.106 511.1513 364.9552 511.1513 L364.9552 502.2447 L364.1962 495.2746 Z " opacity="1" stroke="#FFFFFF" stroke-opacity="1" stroke-width="0.39999" stroke-linecap="butt" stroke-linejoin="miter" stroke-dasharray="none" fill-opacity="0" />
        <line x1="367.6877" y1="456.3018" x2="367.6877" y2="510.8627" opacity="1" stroke="#FFFFFF" stroke-opacity="1" stroke-width="0.39999" stroke-linecap="butt" stroke-linejoin="miter" stroke-dasharray="none" />
        <line x1="333.3092" y1="492.7489" x2="342.1343" y2="489.5401" opacity="1" stroke="#000000" stroke-opacity="1" stroke-width="0" stroke-linecap="butt" stroke-linejoin="miter" stroke-dasharray="none" />
        <line x1="333.3092" y1="492.7489" x2="342.1343" y2="489.5401" opacity="1" stroke="#FFFFFF" stroke-opacity="1" stroke-width="0.39999" stroke-linecap="butt" stroke-linejoin="miter" stroke-dasharray="none" />
        <line x1="395.6855" y1="492.3479" x2="386.0582" y2="489.5401" opacity="1" stroke="#000000" stroke-opacity="1" stroke-width="0" stroke-linecap="butt" stroke-linejoin="miter" stroke-dasharray="none" />
        <line x1="395.6855" y1="492.3479" x2="386.0582" y2="489.5401" opacity="1" stroke="#FFFFFF" stroke-opacity="1" stroke-width="0.39999" stroke-linecap="butt" stroke-linejoin="miter" stroke-dasharray="none" />
        <path d="M369.5121 461.868 L373.1223 461.3784 L380.6428 464.6951 C377.8349 465.446 371.2161 466.2935 369.9132 466.0609 Z " opacity="1" fill="#036998" fill-opacity="1" />
        <path d="M369.5121 461.868 L373.1223 461.3784 L380.6428 464.6951 C377.8349 465.446 371.2161 466.2935 369.9132 466.0609 Z " opacity="1" stroke="#FFFFFF" stroke-opacity="1" stroke-width="0.39999" stroke-linecap="butt" stroke-linejoin="miter" stroke-dasharray="none" fill-opacity="0" />
        <path d="M369.4109 461.8746 L369.9132 466.0609 L369.9132 500.5586 L370.7155 507.5349 L370.7155 523.48 L369.4109 516.7293 Z " opacity="1" fill="#036998" fill-opacity="1" />
        <path d="M369.4109 461.8746 L369.9132 466.0609 L369.9132 500.5586 L370.7155 507.5349 L370.7155 523.48 L369.4109 516.7293 Z " opacity="1" stroke="#FFFFFF" stroke-opacity="1" stroke-width="0.39999" stroke-linecap="butt" stroke-linejoin="miter" stroke-dasharray="none" fill-opacity="0" />
        <path d="M369.9132 466.0609 L370.1154 466.067 L370.3464 466.067 L370.6031 466.0621 L370.8839 466.0525 L371.1873 466.0383 L371.5114 466.0189 L371.8515 465.9965 L372.2109 465.9674 L372.5832 465.937 L372.9667 465.9017 L373.363 465.8616 L373.7673 465.8198 L374.5921 465.7255 L375.4281 465.621 L376.2609 465.5069 L376.67 465.4478 L377.0727 465.3866 L377.4659 465.3226 L377.8477 465.2583 L378.2167 465.1944 L378.5714 465.127 L378.91 465.0609 L379.2292 464.9934 L379.5276 464.926 L379.8036 464.859 L380.0556 464.7916 L380.2802 464.7255 L380.4776 464.6598 L380.6428 464.5942 L380.6428 499.2924 C377.7354 499.8508 372.32 500.634 369.9132 500.459 Z " opacity="1" fill="#036998" fill-opacity="1" />
        <path d="M369.9132 466.0609 L370.1154 466.067 L370.3464 466.067 L370.6031 466.0621 L370.8839 466.0525 L371.1873 466.0383 L371.5114 466.0189 L371.8515 465.9965 L372.2109 465.9674 L372.5832 465.937 L372.9667 465.9017 L373.363 465.8616 L373.7673 465.8198 L374.5921 465.7255 L375.4281 465.621 L376.2609 465.5069 L376.67 465.4478 L377.0727 465.3866 L377.4659 465.3226 L377.8477 465.2583 L378.2167 465.1944 L378.5714 465.127 L378.91 465.0609 L379.2292 464.9934 L379.5276 464.926 L379.8036 464.859 L380.0556 464.7916 L380.2802 464.7255 L380.4776 464.6598 L380.6428 464.5942 L380.6428 499.2924 C377.7354 499.8508 372.32 500.634 369.9132 500.459 Z " opacity="1" stroke="#FFFFFF" stroke-opacity="1" stroke-width="0.39999" stroke-linecap="butt" stroke-linejoin="miter" stroke-dasharray="none" fill-opacity="0" />
        <path d="M380.6428 499.2924 L386.66 505.398 C383.4508 506.2692 372.7212 507.434 370.7155 507.434 L369.9132 500.459 C371.1166 500.597 380.1422 499.5252 380.6428 499.2924 Z " opacity="1" fill="#036998" fill-opacity="1" />
        <path d="M380.6428 499.2924 L386.66 505.398 C383.4508 506.2692 372.7212 507.434 370.7155 507.434 L369.9132 500.459 C371.1166 500.597 380.1422 499.5252 380.6428 499.2924 Z " opacity="1" stroke="#FFFFFF" stroke-opacity="1" stroke-width="0.39999" stroke-linecap="butt" stroke-linejoin="miter" stroke-dasharray="none" fill-opacity="0" />
        <path d="M386.5605 505.3032 L386.5605 521.3488 C384.4536 521.9631 373.3229 523.4487 370.7155 523.3795 L370.7155 507.5349 C372.7212 507.5349 382.5491 506.3186 386.5605 505.3032 Z " opacity="1" fill="#036998" fill-opacity="1" />
        <path d="M386.5605 505.3032 L386.5605 521.3488 C384.4536 521.9631 373.3229 523.4487 370.7155 523.3795 L370.7155 507.5349 C372.7212 507.5349 382.5491 506.3186 386.5605 505.3032 Z " opacity="1" stroke="#FFFFFF" stroke-opacity="1" stroke-width="0.39999" stroke-linecap="butt" stroke-linejoin="miter" stroke-dasharray="none" fill-opacity="0" />
      </g>
    </g>
    <g>
      <path d="M604.6477 456.9591 C603.8008 456.8144 602.5922 456.6076 601.1413 456.359 C599.6932 456.1063 598.0027 455.8098 596.1929 455.4938 C595.2877 455.3388 594.3521 455.1776 593.4017 455.0146 C592.4525 454.8503 591.4875 454.6879 590.5205 454.5349 C589.5543 454.3864 588.5901 454.225 587.6385 454.0874 C586.6875 453.9457 585.7491 453.8191 584.8434 453.7117 C584.6177 453.6841 584.3931 453.6567 584.1713 453.6298 C583.9474 453.6041 583.7252 453.5788 583.5051 453.5544 C583.0688 453.5073 582.6429 453.4609 582.2283 453.4167 C581.812 453.3694 581.4079 453.3403 581.0164 453.2979 C580.6248 453.2651 580.2469 453.2335 579.8837 453.2028 C579.5211 453.1801 579.1731 453.1583 578.8422 453.1383 C578.5121 453.1275 578.1957 453.1058 577.9022 453.1066 C577.3115 453.0896 576.7994 453.1102 576.379 453.1475 C575.9566 453.1801 575.6331 453.2552 575.4192 453.3261 C575.3115 453.3615 575.2341 453.402 575.1848 453.433 C575.1345 453.4627 575.1129 453.4873 575.1129 453.4873 C575.1129 453.4873 575.1264 453.4593 575.1689 453.4147 C575.2097 453.3694 575.2795 453.3098 575.3804 453.248 C575.5788 453.1193 575.8995 452.9762 576.3229 452.8555 C576.4279 452.8203 576.5401 452.8012 576.6581 452.7712 C576.7766 452.7424 576.9 452.7142 577.0296 452.6925 C577.1602 452.669 577.2949 452.6436 577.4358 452.6182 C577.5762 452.6001 577.7221 452.5811 577.8731 452.5612 C578.175 452.5157 578.497 452.5032 578.8366 452.472 C579.1756 452.4543 579.5326 452.4387 579.9053 452.4303 C580.6493 452.4224 581.455 452.4404 582.3033 452.4912 C582.7281 452.5194 583.1605 452.5511 583.6092 452.5891 C584.0487 452.6327 584.4995 452.6787 584.9616 452.7369 C585.8821 452.8537 586.8248 452.9896 587.7827 453.1402 C588.7407 453.2898 589.7114 453.4493 590.6775 453.6322 C591.6443 453.8107 592.6086 453.9983 593.5575 454.1879 C594.5054 454.3781 595.4355 454.5829 596.3341 454.7788 C597.2344 454.9728 598.1017 455.1721 598.9227 455.3679 C599.7428 455.5637 600.5204 455.7421 601.2336 455.9252 C602.6627 456.2785 603.8502 456.591 604.6793 456.8144 C605.5077 457.0435 605.9805 457.1741 605.9805 457.1741 C605.9805 457.1741 605.4958 457.0959 604.6477 456.9591M681.6555 462.871 L680.9685 457.2446 C680.9205 457.1035 680.7546 457.0092 680.7546 457.0092 C679.3564 456.4182 676.8902 456.1111 676.8902 456.1111 C676.7247 456.1343 676.701 456.2524 676.701 456.2524 L677.0551 459.9391 L673.4035 461.7825 L670.1293 461.1672 C669.7503 461.1199 669.4617 461.3077 669.4617 461.3077 L656.081 466.3155 C653.5208 465.559 646.6749 463.9927 646.6749 463.9927 L630.7793 460.3298 L629.9023 459.8214 L629.854 459.5376 L631.5851 457.6236 C631.9885 457.7648 633.6716 457.7415 633.8846 457.6942 C634.0983 457.6472 634.2405 457.5049 634.0983 457.387 C633.9561 457.2692 632.6752 456.4889 632.6752 456.4889 L632.5812 456.2757 L634.4061 453.984 L635.9715 451.9745 L637.8911 450.7695 C638.4368 450.8871 639.8596 450.9105 640.191 450.8636 C640.5228 450.8164 640.476 450.6506 640.4276 450.5564 C640.3806 450.462 639.2668 449.8231 639.2668 449.8231 L639.1244 449.6113 L643.2018 446.3251 C644.1262 446.4672 645.4777 446.4201 645.4777 446.4201 C645.4777 446.4201 646.1182 446.5143 645.7621 446.1362 C645.4068 445.7576 644.5532 445.2149 644.5532 445.2149 L659.0865 433.1602 L653.3486 432.0021 C653.0168 431.9785 652.7792 432.1669 652.7792 432.1669 L638.1758 440.7477 C637.7486 440.7231 636.3967 440.7231 636.3967 440.7231 C636.3967 440.582 636.3486 440.416 636.3486 440.416 C634.6647 439.6603 632.0309 439.3765 631.8652 439.4471 C631.6992 439.5177 631.3394 440.0379 631.0552 441.2906 C630.7704 442.5438 631.0933 443.3233 631.259 443.3706 C631.4249 443.4184 631.9531 443.6541 631.9531 443.6541 L628.4557 445.4749 L628.4557 445.9234 L621.2246 449.7055 C619.6838 449.351 618.996 449.5396 618.996 449.5396 C618.9487 449.351 618.7359 449.2559 618.7359 449.2559 C616.3883 448.1694 614.5632 448.287 614.4683 448.287 C614.374 448.287 613.8517 449.1381 613.7334 450.1277 C613.6144 451.1165 613.686 451.9745 613.8989 452.1396 C614.1129 452.3054 615.2982 452.5891 615.2982 452.5891 L609.3233 455.5671 L601.6893 453.7944 C601.6893 453.7944 591.5191 450.5564 586.6115 450.2256 C581.7041 449.8949 580.4716 450.5092 580.4716 450.5092 C577.1519 450.8164 574.9478 451.3357 573.8093 452.0688 C572.6712 452.8021 573.0983 453.3686 573.2875 453.6758 C573.4779 453.984 573.7862 454.3855 574.3072 454.8575 C574.8293 455.3307 578.5984 458.7347 584.7381 460.4839 C590.8784 462.2318 597.5651 463.509 597.5651 463.509 C600.1017 464.9037 602.7493 465.8018 602.7493 465.8018 L604.7002 468.4256 L604.8671 468.7801 L604.6766 469.0872 C604.3922 469.4417 604.6062 469.7253 604.6062 469.7253 L608.9206 475.6812 L607.1427 475.7049 C605.6962 475.1376 603.8239 475.0196 603.8239 475.0196 C603.8239 475.0196 603.0886 474.8776 602.8279 476.7688 C602.5669 478.6593 603.0408 478.7782 603.0408 478.7782 C605.8856 479.5572 607.119 479.581 607.119 479.581 C607.2849 479.5103 607.4037 479.1324 607.4037 479.1324 C610.746 480.0067 611.5763 479.9835 611.5763 479.9835 L611.7186 479.7233 L612.9747 479.7939 L613.8281 481.0231 C613.164 481.3546 613.2355 481.8974 613.2355 481.8974 L616.7437 486.6724 L615.0843 486.696 C613.9226 486.3174 612.3113 486.1761 612.3113 486.1761 C612.3113 486.1761 611.6234 486.1761 611.3622 488.043 C611.1012 489.9098 611.7419 489.958 611.7419 489.958 C613.5204 490.4774 615.7006 490.6432 615.7006 490.6432 C615.8674 490.4774 615.9146 490.2414 615.9146 490.2414 L616.4117 490.3123 C618.8064 491.0446 620.1578 490.9269 620.1578 490.9269 L620.2997 490.7373 L620.8456 490.761 L624.3784 496.0084 C624.7808 496.5283 624.9231 496.4579 624.9231 496.4579 L630.2808 497.1665 L627.0574 489.0116 L626.5823 487.3107 C627.1996 487.4522 627.6254 487.4286 627.6254 487.4286 C627.6254 487.4286 627.9581 487.358 627.5782 487.0505 C627.1989 486.7435 626.0613 486.1288 626.0613 486.1288 L624.9702 483.1028 C624.9702 483.1028 625.5864 483.2216 626.0133 483.198 C626.4403 483.1743 626.2263 482.9613 626.0125 482.7956 C625.7995 482.6306 624.5259 481.8504 624.5259 481.8504 L623.8518 480.1718 L623.9425 477.2175 C623.9425 477.2175 624.8108 477.2645 625.3083 477.2411 C625.8067 477.2175 625.4803 476.8866 625.4803 476.8866 C624.9829 476.2958 623.7622 475.6812 623.7622 475.6812 L623.7622 474.2158 C623.7622 474.2158 624.6684 474.3815 625.1903 474.3346 C625.7118 474.2866 625.4569 473.9557 625.4569 473.9557 L623.7622 472.8455 L623.7622 471.9465 C623.9034 472.0649 626.334 473.3882 626.713 473.5309 C627.0928 473.672 627.4599 473.6015 627.4599 473.6015 C628.1947 474.0977 629.1907 474.0745 629.1907 474.0745 L631.2064 471.4271 C632.1543 471.4036 632.6752 471.2614 632.6752 471.2614 C639.6693 472.8455 643.8417 473.5776 648.2283 473.8379 C652.6136 474.0977 659.7027 474.0509 659.7027 474.0509 L665.772 483.2452 C665.7484 484.2148 665.9614 485.7755 665.9614 485.7755 C666.0331 485.9404 666.3649 486.0835 666.3649 486.0835 C667.6442 486.4143 669.5411 486.7713 669.8962 486.7245 C670.2524 486.6761 670.1813 486.3972 670.1813 486.3972 L669.921 483.5694 L669.7304 483.4219 L670.9878 474.1215 L671.7226 474.1215 C672.2201 474.1215 672.8365 473.992 673.2161 473.7789 C673.5949 473.5662 674.0933 473.0575 673.8323 472.4195 C673.5714 471.7814 672.4815 471.285 672.4815 471.285 L679.261 462.9181 C679.9725 463.1782 681.2051 463.2726 681.2051 463.2726 C681.7507 463.2487 681.6555 462.871 681.6555 462.871 Z " fill-rule="evenodd" opacity="1" fill="#026C9B" fill-opacity="1" />
    </g>
    <g>
      <rect x="-180" y="439.4483" width="27" height="19.55171" opacity="1" stroke="#000000" stroke-opacity="1" stroke-width="1" stroke-linecap="butt" stroke-linejoin="miter" stroke-dasharray="none" fill="#FFFFFF" fill-opacity="1" />
      <g>
        <line x1="-156.0002" y1="449.6176" x2="-162.3003" y2="449.6176" marker-end="url(#marker1)" opacity="1" stroke="#000000" stroke-opacity="1" stroke-width="1" stroke-linecap="butt" stroke-linejoin="miter" stroke-dasharray="none" />
        <line x1="-170.7002" y1="444.0314" x2="-177" y2="444.0314" marker-start="url(#marker2)" opacity="1" stroke="#000000" stroke-opacity="1" stroke-width="1" stroke-linecap="butt" stroke-linejoin="miter" stroke-dasharray="none" />
        <line x1="-170.7002" y1="449.6176" x2="-177" y2="449.6176" marker-start="url(#marker3)" opacity="1" stroke="#000000" stroke-opacity="1" stroke-width="1" stroke-linecap="butt" stroke-linejoin="miter" stroke-dasharray="none" />
        <line x1="-170.7002" y1="455.2037" x2="-177" y2="455.2037" marker-start="url(#marker4)" opacity="1" stroke="#000000" stroke-opacity="1" stroke-width="1" stroke-linecap="butt" stroke-linejoin="miter" stroke-dasharray="none" />
        <line x1="-163.7945" y1="449.5836" x2="-169.4322" y2="444.0257" opacity="1" stroke="#000000" stroke-opacity="1" stroke-width="1" stroke-linecap="butt" stroke-linejoin="miter" stroke-dasharray="none" />
      </g>
    </g>
    <line x1="-270" y1="432" x2="-270" y2="390.1725" marker-end="url(#marker5)" opacity="1" stroke="#000000" stroke-opacity="1" stroke-width="1" stroke-linecap="butt" stroke-linejoin="miter" stroke-dasharray="none" />
    <line x1="-252" y1="450" x2="-201.1725" y2="450" marker-end="url(#marker6)" opacity="1" stroke="#000000" stroke-opacity="1" stroke-width="1" stroke-linecap="butt" stroke-linejoin="miter" stroke-dasharray="none" />
    <line x1="-162" y1="378" x2="-162" y2="419.8275" marker-end="url(#marker7)" opacity="1" stroke="#000000" stroke-opacity="1" stroke-width="1" stroke-linecap="butt" stroke-linejoin="miter" stroke-dasharray="none" />
    <line x1="360" y1="390.1725" x2="360" y2="428.8275" marker-start="url(#marker8)" marker-end="url(#marker9)" opacity="1" stroke="#000000" stroke-opacity="1" stroke-width="1" stroke-linecap="butt" stroke-linejoin="miter" stroke-dasharray="none" />
    <line x1="621" y1="381.1725" x2="621" y2="419.8275" marker-start="url(#marker10)" marker-end="url(#marker11)" opacity="1" stroke="#000000" stroke-opacity="1" stroke-width="1" stroke-linecap="butt" stroke-linejoin="miter" stroke-dasharray="none" />
    <line x1="-306" y1="414" x2="666" y2="414" opacity="1" stroke="#000000" stroke-opacity="1" stroke-width="2" stroke-linecap="butt" stroke-linejoin="miter" stroke-dasharray="16,8,4,8" />
    <line x1="81" y1="396" x2="81" y2="477" opacity="1" stroke="#000000" stroke-opacity="1" stroke-width="2" stroke-linecap="butt" stroke-linejoin="miter" stroke-dasharray="16,8,4,8" />
    <line x1="426.1725" y1="324" x2="464.8275" y2="324" marker-start="url(#marker12)" marker-end="url(#marker13)" opacity="1" stroke="#000000" stroke-opacity="1" stroke-width="1" stroke-linecap="butt" stroke-linejoin="miter" stroke-dasharray="none" />
    <rect x="225" y="306" width="81" height="63" opacity="1" stroke="#000000" stroke-opacity="1" stroke-width="1" stroke-linecap="butt" stroke-linejoin="miter" stroke-dasharray="none" fill="#FFFFFF" fill-opacity="1" filter="url(#shadow1)" />
    <text x="250.5488" y="344.5659" font-size="24" fill="#000000" fill-opacity="1" font-family="Arial" font-weight="normal" font-style="normal">. . .</text>
    <rect x="216" y="297" width="81" height="63" opacity="1" stroke="#000000" stroke-opacity="1" stroke-width="1" stroke-linecap="butt" stroke-linejoin="miter" stroke-dasharray="none" fill="#FFFFFF" fill-opacity="1" filter="url(#shadow1)" />
    <text x="241.5488" y="335.5659" font-size="24" fill="#000000" fill-opacity="1" font-family="Arial" font-weight="normal" font-style="normal">. . .</text>
    <text x="5.466553" y="464.5867" font-size="19" fill="#000000" fill-opacity="1" font-family="Arial" font-weight="normal" font-style="normal">NAS</text>
    <text x="116.7119" y="464.5867" font-size="19" fill="#000000" fill-opacity="1" font-family="Arial" font-weight="normal" font-style="normal">simulators</text>
    <text x="-5.001953" y="252.2937" font-size="24" fill="#000000" fill-opacity="1" font-family="Arial" font-weight="normal" font-style="normal">LVC airspace simulation</text>
    <text x="17.81323" y="507.5867" font-size="19" fill="#000000" fill-opacity="1" font-family="Arial" font-weight="normal" font-style="normal">existing systems</text>
    <text x="469.8997" y="264.5867" font-size="19" fill="#000000" fill-opacity="1" font-family="Arial" font-weight="normal" font-style="normal">remote facility</text>
    <text x="-244.356" y="500.5867" font-size="19" fill="#000000" fill-opacity="1" font-family="Arial" font-weight="normal" font-style="normal">SWIM</text>
    <text x="-253.894" y="536.5867" font-size="19" fill="#000000" fill-opacity="1" font-family="Arial" font-weight="normal" font-style="normal">server</text>
    <text x="-159.6775" y="518.5867" font-size="19" fill="#000000" fill-opacity="1" font-family="Arial" font-weight="normal" font-style="normal">client</text>
  </g>
</svg>