<?xml version="1.0" encoding="utf-8"?>
<svg width="100%" height="100%" version="1.1" viewBox="-453 33 1248 726" xmlns:xlink="http://www.w3.org/1999/xlink" xmlns:inkscape="http://www.inkscape.org/namespaces/inkscape" xmlns="http://www.w3.org/2000/svg">
  <defs>
    <filter id="shadow1" width="150%" height="150%">
      <feGaussianBlur in="SourceAlpha" result="blur" stdDeviation="3" />
      <feOffset dx="3" dy="3" in="blur" result="offsetBlur" />
      <feMerge>
        <feMergeNode in="offsetBlur" />
        <feMergeNode in="SourceGraphic" />
      </feMerge>
    </filter>
  </defs>
  <linearGradient id="gradient1" x1="100%" y1="50%" x2="0%" y2="49.99999%">
    <stop offset="2%" stop-color="#969696" stop-opacity="1" />
    <stop offset="44%" stop-color="#FFFFFF" stop-opacity="1" />
  </linearGradient>
  <linearGradient id="gradient2" x1="100%" y1="50.0006%" x2="0%" y2="49.9994%">
    <stop offset="1%" stop-color="#9B9B9B" stop-opacity="1" />
    <stop offset="41%" stop-color="#FFFFFF" stop-opacity="1" />
  </linearGradient>
  <marker id="marker1" markerUnits="strokeWidth" orient="auto" refX="-8.971846" refY="0" markerWidth="12.27247" markerHeight="9.229548" viewBox="-11.77247 -4.614774 12.27247 9.229548">
    <path d="M-11.27247 -4.114774 L0 0 L-11.27247 4.114773 Z " fill="#000000" fill-opacity="1" stroke="#000000" stroke-opacity="1" />
  </marker>
  <marker id="marker2" markerUnits="strokeWidth" orient="auto" refX="-8.971846" refY="0" markerWidth="12.27247" markerHeight="9.229548" viewBox="-11.77247 -4.614774 12.27247 9.229548">
    <path d="M-11.27247 -4.114774 L0 0 L-11.27247 4.114773 Z " fill="#000000" fill-opacity="1" stroke="#000000" stroke-opacity="1" />
  </marker>
  <marker id="marker3" markerUnits="strokeWidth" orient="auto" refX="-8.971846" refY="0" markerWidth="12.27247" markerHeight="9.229548" viewBox="-11.77247 -4.614774 12.27247 9.229548">
    <path d="M-11.27247 -4.114774 L0 0 L-11.27247 4.114773 Z " fill="#000000" fill-opacity="1" stroke="#000000" stroke-opacity="1" />
  </marker>
  <marker id="marker4" markerUnits="strokeWidth" orient="auto" refX="8.971846" refY="0" markerWidth="12.27247" markerHeight="9.229548" viewBox="-0.5 -4.614774 12.27247 9.229548">
    <path d="M11.27247 4.114773 L0 0 L11.27247 -4.114774 Z " fill="#000000" fill-opacity="1" stroke="#000000" stroke-opacity="1" />
  </marker>
  <marker id="marker5" markerUnits="strokeWidth" orient="auto" refX="-8.971846" refY="0" markerWidth="12.27247" markerHeight="9.229548" viewBox="-11.77247 -4.614774 12.27247 9.229548">
    <path d="M-11.27247 -4.114774 L0 0 L-11.27247 4.114773 Z " fill="#000000" fill-opacity="1" stroke="#000000" stroke-opacity="1" />
  </marker>
  <g id="layer1" inkscape:label="Layer 1" inkscape:groupmode="layer">
    <rect x="72" y="36" width="720" height="720" opacity="1" stroke="#000000" stroke-opacity="1" stroke-width="1" stroke-linecap="butt" stroke-linejoin="miter" stroke-dasharray="none" fill="#FFFFFF" fill-opacity="1" filter="url(#shadow1)" />
    <g>
      <path d="M630.2371 483.6093 L631.8268 488.6614 L634.3885 495.3743 L638.0507 501.8797 L640.618 506.2401 L643.9368 510.0461 L646.7025 512.6065 L647.8087 514.6138 L647.0518 515.5134 L646.5681 516.482 L648.5717 521.6038 L650.5803 523.6103 L652.3848 527.2786 L654.871 531.2926 L657.9856 536.9671 L658.888 542.2271 L659.2322 550.532 L659.6451 551.7775 L659.441 554.1305 L657.7767 555.0308 L657.9856 556.3453 L657.5669 557.6606 L657.7767 559.3215 L658.1259 560.6362 L656.2567 562.8511 L654.1138 563.8888 L651.4128 564.027 L650.3705 565.1343 L648.711 565.8267 L647.8087 565.4805 L647.0518 564.7883 L646.8427 562.7814 L646.2896 560.4285 L643.9368 556.8297 L641.4447 555.2381 L638.7488 555.0308 L638.1957 555.9301 L636.0479 552.8851 L635.634 550.3937 L633.8297 547.6254 L632.584 546.8643 L631.4778 548.3173 L630.2371 548.1098 L628.7759 544.6493 L626.7731 541.9502 L624.7646 538.2825 L622.9708 536.137 L620.4731 533.5764 L621.9283 531.9151 L624.1418 528.109 L624.0017 527.0017 L620.8927 526.3096 L619.7807 526.725 L619.9954 527.1404 L621.7891 527.832 L620.7526 530.9465 L620.1995 531.2926 L618.9538 528.5243 L618.0515 525.2026 L617.8475 523.3339 L618.884 520.0812 L618.884 513.5064 L616.8051 510.9456 L615.9086 508.8005 L612.3047 507.9008 L610.9944 507.4858 L609.8882 505.6862 L607.5362 504.5793 L606.7733 502.2258 L604.905 501.5336 L603.2448 498.9733 L600.334 497.9349 L598.3312 496.8968 L596.5317 496.8968 L593.7609 497.4507 L593.6266 498.7654 L594.1797 499.4578 L593.8309 500.2189 L591.6878 500.0804 L589.1262 502.5719 L586.6342 503.8865 L583.9331 503.8865 L581.7206 504.7866 L581.5109 502.9178 L580.4104 501.6028 L578.3961 500.8416 L577.2899 499.8035 L571.683 497.1044 L566.4255 495.8588 L563.3801 496.2741 L559.2286 496.6201 L555.0774 498.0735 L552.6559 498.4888 L552.5158 492.952 L550.717 491.6373 L549.4706 490.3916 L549.6747 488.2462 L556.7368 487.3464 L574.3838 485.3395 L579.0885 484.9241 L582.8318 485.1318 L584.6256 487.8308 L585.6624 488.8689 L591.269 489.2149 L598.745 488.7996 L613.6265 487.9001 L617.3584 487.4156 L620.5485 487.4156 L620.6827 489.4227 L623.3143 489.9764 L623.5182 486.6545 L622.412 483.5401 L623.1052 483.0557 L626.6331 483.4015 L630.2371 483.6093 Z M638.8831 575.2387 L640.5426 574.8235 L641.4447 574.6848 L642.4871 573.0932 L644.077 571.9862 L644.9734 572.3323 L646.1552 572.5395 L646.4288 573.3009 L644.0015 574.1312 L641.0956 575.1696 L639.5012 576 L638.8831 575.2387 Z M648.2225 571.7781 L649.0601 572.5395 L650.9235 571.0861 L654.5916 568.1795 L657.1589 565.4805 L658.888 560.9127 L659.5754 559.7362 L659.7156 557.3832 L659.2322 557.7293 L658.5388 559.6671 L657.4973 562.8507 L655.2847 566.5188 L652.2396 569.4253 L649.8879 570.74 L648.2225 571.7781 Z " fill-rule="evenodd" opacity="1" fill="#D3D3D3" fill-opacity="0.58" />
      <path d="M634.2483 461.0479 L633.0027 461.7403 L631.2039 460.8403 L630.7902 459.3872 L629.8879 456.8958 L628.2982 455.4424 L626.4993 455.0272 L625.3874 451.7053 L623.5182 447.5529 L620.6182 446.2379 L619.1628 444.9229 L618.2607 443.1238 L616.8051 441.7394 L615.2153 440.8398 L613.6265 438.8328 L611.4779 437.241 L608.3631 435.9955 L608.0197 434.9573 L606.3546 432.9503 L606.0162 431.9124 L603.6585 428.3134 L601.3068 428.4519 L598.5352 426.791 L597.6329 425.8913 L597.429 424.6457 L597.9821 423.3306 L599.5767 422.6385 L599.3678 421.1853 L603.5887 419.386 L609.8882 416.2717 L614.9417 415.718 L626.3593 415.3719 L627.949 416.6868 L629.0553 418.9016 L632.1005 418.5555 L640.8221 417.5173 L642.8256 418.0711 L651.5472 423.3306 L658.5388 428.9365 L654.8014 432.7428 L653.0025 436.9644 L652.6582 441.3243 L651.5472 441.8779 L650.7899 443.7467 L649.1248 444.1619 L647.6746 446.6534 L645.8059 448.5218 L644.2162 450.8746 L643.11 451.4283 L640.618 453.7814 L638.6095 453.9197 L639.2971 456.1346 L635.8381 459.941 L634.2483 461.0479 Z " opacity="1" fill="#D3D3D3" fill-opacity="0.58" />
      <path d="M584.6953 423.0538 L581.3763 423.6075 L575.5609 424.3686 L569.6098 424.9915 L569.6098 426.5141 L569.7498 427.9673 L570.1628 430.3205 L572.5156 435.7877 L574.1799 442.6391 L575.2114 446.8608 L576.3228 450.1826 L577.3594 455.0272 L578.8099 459.3872 L580.6086 461.7403 L580.9578 464.0932 L582.2737 464.647 L582.413 466.1002 L581.1616 469.4219 L580.8234 471.6365 L580.684 472.9515 L581.7902 475.9966 L581.9994 479.6647 L581.4412 481.3254 L581.8599 481.8792 L582.8965 482.433 L583.3105 484.786 L585.1092 487.4849 L586.1457 488.5231 L591.6124 488.6614 L599.0941 488.2462 L613.9755 487.3464 L617.7075 486.8621 L620.8927 486.8621 L621.0262 488.8691 L622.8258 489.4228 L623.0355 486.3774 L621.9283 483.2635 L622.6915 482.1561 L626.7084 482.7096 L630.1674 482.9173 L629.6085 478.5573 L631.2039 471.6365 L632.2399 468.73 L631.8964 466.9307 L634.1786 462.6398 L633.8297 461.6707 L632.5192 462.1555 L630.7206 461.2556 L630.3018 459.8024 L629.3996 457.3111 L627.8099 455.8576 L626.0159 455.4424 L624.9039 452.1206 L622.9012 447.7606 L619.9954 446.4456 L618.5399 445.1306 L617.6378 443.3314 L616.1824 442.0164 L614.5926 441.1169 L612.998 439.1098 L610.8551 437.5179 L607.7451 436.2723 L607.3963 435.2341 L605.7318 433.2271 L605.3876 432.189 L603.0357 428.7982 L600.683 428.9365 L597.8477 426.8602 L596.9454 425.9606 L596.7365 424.7148 L597.2947 423.4001 L598.954 422.5694 L598.1918 421.7389 L598.2615 421.5314 L594.2494 422.2235 L589.4056 422.777 L584.6953 423.0538 Z " opacity="1" fill="#D3D3D3" fill-opacity="0.58" />
      <path d="M540.4057 498.3505 L539.2936 487.8308 L537.4252 474.8199 L537.5702 465.062 L538.1234 443.608 L537.9833 432.0505 L538.1234 427.6213 L543.5204 427.3446 L562.7575 425.5453 L568.9174 425.0609 L568.8477 426.5833 L568.987 428.0367 L569.4006 430.3897 L571.7584 435.8568 L573.4178 442.7084 L574.4544 446.93 L575.5609 450.2518 L576.6022 455.0965 L578.0527 459.4564 L579.8514 461.8092 L580.1947 464.1622 L581.5109 464.716 L581.6559 466.1693 L580.4104 469.4913 L580.0612 471.7058 L579.921 473.0207 L581.033 476.0657 L581.2372 479.7338 L580.684 481.3948 L581.1027 481.9483 L582.1393 482.502 L582.8318 484.2324 L578.4658 484.2324 L573.7612 484.6476 L556.114 486.6545 L548.9175 487.6233 L548.8479 490.2531 L550.0944 491.4988 L551.8931 492.8139 L552.3118 498.2808 L548.4987 500.0804 L546.6353 499.8728 L548.4987 498.5579 L548.4987 497.8659 L546.356 493.7134 L544.7661 493.2982 L543.7245 496.3434 L542.8272 498.2119 L542.4143 498.0735 L540.4057 498.0735 Z " opacity="1" fill="#D3D3D3" fill-opacity="0.58" />
      <path d="M683.3128 381.876 L684.4888 385.1286 L686.9807 389.6273 L688.6459 391.2881 L689.0588 392.8798 L687.3994 393.0183 L687.9526 393.4335 L687.7437 396.3401 L685.9442 397.2399 L685.5313 398.6932 L684.634 400.7002 L682.0723 401.8076 L680.4079 401.5998 L679.3713 401.4614 L678.265 400.5618 L678.4691 401.4614 L678.4691 402.1536 L679.7843 402.1536 L680.3373 403.0532 L679.0221 407.4131 L681.933 407.4131 L682.341 408.5204 L683.9357 406.9288 L684.8379 406.5827 L683.5227 409.0742 L681.3798 412.3961 L680.4775 412.3961 L679.7147 412.05 L677.8511 412.4652 L674.2529 414.1262 L669.7475 417.7942 L667.4005 421.0467 L666.0845 425.5453 L665.7354 427.2063 L662.4863 427.5522 L658.6791 428.4519 L651.8209 422.7768 L643.11 417.5173 L641.0956 416.9636 L632.3801 418.0018 L629.3996 418.5554 L628.2982 416.3408 L626.22 414.8876 L614.8025 415.2335 L609.7488 415.787 L603.4547 418.9012 L599.2335 420.7008 L598.1215 420.9083 L594.1101 421.6004 L589.2605 422.1541 L584.5559 422.5001 L584.9051 419.6626 L586.1457 418.6246 L588.02 418.2092 L588.4337 415.6487 L591.3387 413.7801 L594.0404 412.742 L596.9454 410.2504 L599.9907 408.7972 L600.4045 406.6517 L603.1053 403.9528 L603.5241 403.8145 C603.5241 403.8145 603.5241 404.5756 604.0723 404.5756 C604.6254 404.5756 605.3876 404.7834 605.3876 404.7834 L606.9773 402.2916 L608.4326 401.8765 L610.0225 402.0842 L611.1287 399.5927 L613.1372 397.7934 L613.4863 396.3401 L613.4863 393.5718 L616.6011 394.0563 L621.5154 393.1564 L632.4495 391.8417 L644.281 390.0423 L658.0504 387.274 L671.6863 384.3674 L679.5802 382.4297 L683.3128 381.876 Z M686.0146 404.7141 L687.8134 402.984 L690.0259 401.1847 L691.0682 400.7693 L691.2077 399.3852 L690.7889 395.1637 L689.7465 393.5719 L689.3334 392.257 L689.8219 392.1186 L691.6852 395.925 L691.9648 398.9701 L691.8304 401.3231 L689.4785 402.3611 L687.5339 404.0221 L686.7768 404.8526 L686.0146 404.7141 Z " fill-rule="evenodd" opacity="1" fill="#D3D3D3" fill-opacity="0.58" />
      <path d="M589.8833 397.1706 L553.9712 400.6308 L543.0369 401.8768 L539.8526 402.2228 L537.1509 402.2228 L537.1509 404.9217 L531.3352 405.2676 L526.4961 405.6831 L518.8112 405.7523 L518.6014 409.7662 L517.1519 414.1262 L516.4586 416.2024 L515.5563 419.2474 L515.3524 421.0467 L512.5817 422.6385 L513.6231 425.1299 L512.9307 428.175 L512.2325 428.7288 L517.2911 428.5903 L533.9664 427.2753 L537.6342 427.137 L543.241 426.7909 L562.4778 424.9915 L569.54 424.4378 L575.3566 423.7458 L581.1616 422.9846 L584.4912 422.4308 L584.4216 419.3166 L585.6624 418.2787 L587.5315 417.8632 L587.9503 415.3025 L590.8553 413.434 L593.5513 412.3961 L596.4571 409.9045 L599.5072 408.4511 L600.1298 406.029 L603.1053 403.3299 L603.5241 403.1915 C603.5241 403.1915 603.5241 403.9528 604.0723 403.9528 C604.6254 403.9528 605.3876 404.1604 605.3876 404.1604 L606.9773 401.669 L608.4326 401.2539 L610.0225 401.4614 L611.1287 398.97 L612.5842 397.4473 L612.998 396.7554 L613.1372 394.0565 L612.1007 393.8486 L610.4414 395.1636 L604.9747 395.3021 L596.6719 396.617 L589.8833 397.1706 Z " opacity="1" fill="#D3D3D3" fill-opacity="0.58" />
      <path d="M712.3833 299.728 L712.0343 296.8217 L711.4813 293.7764 L710.3052 289.6934 L714.2518 288.6551 L715.358 289.4166 L717.7106 292.4615 L719.7192 295.5066 L717.7106 296.5446 L716.8085 296.4063 L716.0513 297.6519 L714.386 298.9669 L712.3833 299.728 Z " opacity="1" fill="#D3D3D3" fill-opacity="0.58" />
      <path d="M711.7606 299.9358 L711.3467 297.0291 L710.7878 293.984 L709.6816 289.8318 L706.7766 290.4547 L691.6852 293.7764 L692.1042 296.0602 L693.1408 301.1124 L693.1408 306.7179 L692.3786 308.3097 L693.63 309.763 L697.088 307.41 L699.5801 305.1955 L700.8962 303.7421 L701.4492 304.1574 L703.3177 303.1193 L706.9159 302.3578 L711.7606 299.9358 Z " opacity="1" fill="#D3D3D3" fill-opacity="0.58" />
      <path d="M730.3043 295.645 L731.8292 295.1606 L732.1783 293.984 L732.8659 294.0533 L733.5593 295.645 L732.6569 295.991 L729.9609 296.0602 L730.3043 295.645 Z M723.8011 296.1986 L725.3907 294.3993 L726.502 294.3993 L727.7482 295.4374 L726.0832 296.1295 L724.5631 296.8217 L723.8011 296.1986 Z M699.7145 280.9731 L711.8246 278.0665 L713.42 277.6513 L714.8754 275.4367 L717.4313 274.2603 L719.4456 277.3054 L717.7803 280.904 L717.5715 281.9421 L718.8867 283.7415 L719.6495 283.1878 L720.8953 283.1878 L722.4849 284.9872 L725.1866 289.1396 L727.6729 289.4856 L729.2676 288.7933 L730.514 287.5478 L729.9609 285.6793 L728.5055 284.572 L727.4689 285.1256 L726.7755 284.226 L727.1248 283.8799 L728.5753 283.7415 L729.8208 284.2952 L731.1368 285.956 L731.8292 287.9629 L732.0389 289.6241 L729.1284 290.6621 L726.4323 291.9769 L723.7363 295.0912 L722.4152 296.1294 L722.4152 295.4373 L724.0746 294.3992 L724.4237 293.1534 L723.8707 291.008 L721.8622 292.0461 L721.309 293.0842 L721.6524 294.676 L720.2028 295.368 L718.3336 292.2539 L715.9817 289.2086 L714.5262 287.9629 L710.0308 289.2778 L706.5029 290.0391 L691.4118 293.3612 L691.1323 289.97 L691.551 282.6342 L695.1492 282.0111 L699.7145 280.9731 Z " fill-rule="evenodd" opacity="1" fill="#D3D3D3" fill-opacity="0.58" />
      <path d="M746.3617 228.7917 L747.6776 230.245 L749.2674 232.8057 L749.2674 234.1205 L747.817 237.3732 L746.5018 237.7886 L744.1491 239.9338 L740.8253 243.7402 C740.8253 243.7402 740.4116 243.7402 739.928 243.7402 C739.515 243.7402 739.2299 242.287 739.2299 242.287 L737.989 242.4254 L737.2968 243.4633 L735.6373 244.5015 L734.9441 245.5395 L736.0504 246.5777 L735.7012 246.9928 L735.3578 248.8615 L734.0417 248.7229 L734.0417 247.6157 L733.8377 246.7162 L732.802 246.9237 L731.5507 244.7092 L730.1002 245.6088 L730.9975 246.6469 L731.2015 247.4082 L730.6534 248.308 L730.8573 250.4533 L730.9975 251.5606 L729.8904 253.36 L727.882 253.7059 L727.6729 255.7128 L724.0099 257.8584 L723.1077 258.2044 L722.0015 257.1663 L719.8536 259.6575 L720.5518 261.8723 L719.5094 262.772 L719.37 265.817 L718.613 270.1771 L716.8782 269.3465 L716.5349 267.2012 L713.833 266.4399 L713.6289 264.5713 L708.5753 248.377 L705.6646 238.965 L706.6366 238.8957 L707.6788 239.1728 L707.6788 237.3732 L708.232 233.5669 L710.0308 230.3141 L711.0731 227.5459 L709.7513 225.8851 L709.7513 221.7326 L710.3052 221.0407 L710.8583 219.1721 L710.7241 218.1339 L710.5839 214.812 L711.8246 211.4901 L713.833 205.3306 L715.2883 202.424 L716.1906 202.424 L717.0928 202.5625 L717.0928 203.3237 L717.9901 204.9155 L719.8536 205.3306 L720.4067 204.7771 L720.4067 204.0851 L723.1774 202.0782 L724.4237 200.8321 L725.4606 200.9707 L729.6168 202.6316 L730.9269 203.3237 L737.2213 224.0164 L741.3784 224.0164 L741.9316 225.3313 L742.0709 228.6532 L744.0745 230.245 L744.6326 230.245 L744.7727 229.8989 L744.4236 229.1378 L746.3617 228.7917 Z M731.8997 249.6919 L732.9355 248.6539 L733.9026 249.4151 L734.3163 251.0762 L733.1453 251.699 L731.8997 249.6919 Z M736.5338 245.6088 L737.7803 246.9237 C737.7803 246.9237 738.6825 246.9928 738.6825 246.7854 C738.6825 246.5777 738.8168 245.4012 738.8168 245.4012 L739.4446 244.8476 L738.8914 243.6018 L737.5057 244.0862 L736.5338 245.6088 Z " fill-rule="evenodd" opacity="1" fill="#D3D3D3" fill-opacity="0.58" />
      <path d="M717.0233 273.8449 L717.6411 273.0836 L718.4032 270.8 L716.6742 270.1771 L716.325 268.0316 L713.6289 267.2704 L713.42 265.4018 L708.3712 249.2074 L705.1812 239.1728 L704.5583 239.1728 L704.1453 240.2799 L703.7316 239.9338 L703.0439 239.2419 L702.0024 240.5569 L702.0024 244.017 L702.2064 247.9619 L703.5275 249.8303 L703.5275 252.5985 L700.9601 256.1282 L699.1614 256.8895 L699.1614 257.6507 L699.9235 258.8965 L699.9235 264.848 L699.3702 271.2151 L699.231 274.5371 L699.9235 275.4367 L699.7841 278.5511 L699.4351 279.7966 L700.4766 280.4195 L711.8246 277.1669 L713.42 276.7517 L714.4509 274.9523 L717.0233 273.8449 Z " opacity="1" fill="#D3D3D3" fill-opacity="0.58" />
      <path d="M691.7607 281.6653 L691.2077 277.7205 L689.5426 270.8 L689.1295 270.5923 L687.1259 269.6925 L687.674 267.6857 L687.1259 266.2323 L685.2575 263.0488 L685.9442 260.3497 L685.391 256.7511 L683.7317 252.2527 L683.1785 248.8615 L701.3091 244.2247 L701.5188 248.2386 L702.8293 250.1072 L702.8293 252.8755 L700.2725 255.6438 L698.4739 256.4051 L698.4739 257.1663 L699.231 258.412 L699.231 264.3637 L698.6778 270.7306 L698.5386 274.0526 L699.231 274.9523 L699.0966 278.0665 L698.7474 279.3123 L699.231 280.4195 L694.3921 281.3884 L691.7607 281.6653 Z " opacity="1" fill="#D3D3D3" fill-opacity="0.58" />
      <path d="M680.8904 306.3718 L680.1334 305.68 L678.3345 305.5415 L676.7401 304.2265 L675.6328 300.0049 L673.2113 300.074 L671.552 298.2057 L658.1259 301.2506 L628.3678 307.2716 L623.1749 308.1021 L622.6915 303.6037 L623.6584 302.8424 L624.5549 302.0811 L625.2482 300.9738 L626.4993 300.2123 L627.8099 298.9669 L628.1588 297.8596 L629.6085 295.991 L630.3715 295.2989 L630.2371 294.6068 L629.3349 292.4615 L628.0834 292.3231 L626.7731 288.1014 L628.7759 286.8557 L631.8268 285.8178 L634.5924 284.918 L636.8099 284.572 L641.1654 284.4337 L642.4871 285.3332 L643.5934 285.4716 L645.0431 284.572 L646.8427 283.8105 L650.4457 283.4648 L651.8963 282.2189 L653.1418 280.0045 L654.2482 278.6894 L655.7036 278.6894 L657.0139 277.9282 L657.1589 276.3364 L656.1172 274.8831 L655.9075 273.8449 L656.6705 272.3915 L656.6705 271.3535 L655.424 271.3535 L654.1786 270.7998 L653.6252 270.0385 L653.4852 268.2391 L657.4973 264.4329 L657.916 263.8792 L658.9583 261.8722 L660.9612 258.7579 L662.8303 256.1973 L664.2857 254.5364 L665.9396 253.2907 L668.0883 252.4602 L671.9009 251.5604 L674.1136 251.6989 L677.2284 250.6608 L682.4861 249.2074 L682.8294 252.6678 L684.4888 257.1661 L685.0477 260.7649 L684.3554 263.4639 L686.1539 266.5782 L686.707 268.0316 L686.1539 270.0385 L688.1567 270.9383 L688.5762 271.146 L690.7192 278.7586 L690.3749 282.288 L690.0259 289.7625 L690.5848 293.5687 L691.1323 296.0601 L692.1689 301.1124 L692.1689 306.7179 L691.4118 308.3097 L692.6572 309.6937 L693.2104 310.8703 L691.9 312.116 L692.1042 313.0157 L693.0062 312.808 L694.043 311.9084 L695.6327 310.109 L696.3956 309.6937 L697.502 310.109 L699.0966 310.2474 L704.5583 307.5485 L706.5726 305.6797 L707.469 304.6416 L710.3749 305.7489 L708.0222 308.2404 L705.3262 310.2474 L700.4069 313.9153 L698.6132 314.6074 L694.5962 315.9223 L691.8304 316.6837 L690.9979 316.3376 L690.8585 313.777 L691.2077 311.9084 L691.0682 310.4549 L689.1295 309.2785 L686.0146 308.5865 L683.3128 307.8251 L680.8904 306.3718 Z " opacity="1" fill="#D3D3D3" fill-opacity="0.58" />
      <path d="M680.6168 306.9948 L679.1617 308.6559 L679.1617 310.8011 L677.8511 312.9465 L677.712 314.0538 L678.6083 314.9536 L678.4691 316.6145 L676.8792 317.3758 L677.4325 319.2444 L677.5718 320.0056 L679.4409 320.2133 L680.1334 322.0125 L682.6254 323.6736 L684.2848 324.7808 L684.2848 325.3346 L682.0723 327.4799 L680.9611 329.0715 L679.9294 330.9401 L678.3345 331.8398 L677.5021 332.3243 L677.3627 333.1548 L676.944 334.9542 L677.712 336.4766 L679.9294 338.4837 L683.2432 340.0753 L686.0146 340.4907 L686.1539 341.5287 L685.6007 342.2208 L685.8049 344.0894 L686.3581 344.0894 L687.8134 342.4285 L688.3665 339.1067 L690.2356 336.3383 L692.3786 331.8398 L693.1408 328.0335 L692.7277 327.2723 L692.5875 320.7669 L691.4814 318.4138 L690.7192 318.9674 L688.855 319.1751 L688.5059 318.829 L689.2688 318.1368 L690.7192 316.8221 L690.7889 316.0608 L690.5096 313.7078 L690.8585 311.8392 L690.7192 310.3859 L688.9197 309.6246 L685.8049 308.9324 L683.1088 308.1714 L680.6168 306.9948 Z " opacity="1" fill="#D3D3D3" fill-opacity="0.58" />
      <path d="M676.4655 332.0475 L677.2284 331.6321 L678.8182 331.217 L679.8597 329.3484 L680.9611 327.7567 L683.1785 325.6111 L683.1785 325.0576 L681.5142 323.9503 L679.0221 322.2894 L678.3345 320.4899 L676.4655 320.2823 L676.3261 319.5212 L675.7671 317.6526 L677.3627 316.8913 L677.5021 315.2304 L676.6056 314.3307 L676.7401 313.2234 L678.0552 311.078 L678.0552 308.9324 L679.645 307.2716 L679.7843 306.5104 L677.9855 306.3718 L676.3957 305.0569 L674.7308 301.3891 L672.6583 300.7662 L671.0626 299.3127 L658.1898 302.0811 L628.4375 308.1021 L622.2776 309.1403 L621.9283 304.2265 L618.1213 308.1021 L617.2247 308.4481 L614.319 310.5243 L616.3224 323.7427 L618.0515 330.4556 L620.5485 343.8124 L622.8258 343.3972 L631.0639 342.3593 L657.2932 337.0303 L667.6046 335.0925 L673.3507 333.9852 L673.5604 333.847 L675.0101 332.7395 L676.4655 332.0475 Z " opacity="1" fill="#D3D3D3" fill-opacity="0.58" />
      <path d="M676.6056 334.7466 L677.0137 333.2931 L677.0137 332.4628 L676.1162 332.3935 L674.6611 333.5009 L673.63 334.5388 L674.6611 337.4456 L676.2507 341.3903 L677.712 348.1032 L678.8182 352.4633 L682.282 352.325 L686.5031 351.4943 L684.9084 346.3732 L684.2152 346.7193 L681.7183 345.0582 L680.4775 341.8054 L679.1617 339.3141 L677.5718 338.6221 L676.1162 336.1306 L676.6056 334.7466 Z " opacity="1" fill="#D3D3D3" fill-opacity="0.58" />
      <path d="M686.707 351.9788 L682.4861 352.8784 L678.4691 353.0171 L677.2284 348.1032 L675.7671 341.3903 L674.1833 337.4456 L673.2811 334.4003 L668.0883 335.5078 L657.7767 337.4456 L631.8268 342.7053 L632.584 346.1655 L633.2763 350.1104 L633.4861 349.9027 L634.9417 348.2418 L636.5362 346.4423 L638.1957 346.0272 L639.2323 344.989 L640.4728 343.1897 L641.3751 343.6049 L643.3837 343.3972 L645.1832 341.9441 L646.5681 340.9058 L647.8087 340.5599 L648.9208 341.3211 L650.9235 342.3593 L652.2396 343.6049 L653.0723 344.643 L655.9075 345.8195 L655.9075 347.8265 L659.7156 348.7263 L660.4777 349.0722 L661.4447 347.6881 L663.458 349.0722 L662.551 350.8024 L661.9978 353.5706 L660.7571 355.37 L660.7571 356.8235 L661.171 358.0689 L664.6937 359.0381 L667.6742 358.9687 L669.822 359.6607 L671.2725 359.8684 L671.9649 358.4151 L670.9292 356.9617 L670.9292 355.716 L669.264 354.2627 L667.8137 350.4563 L668.711 346.7885 L668.5764 345.3351 L667.6742 344.4354 C667.6742 344.4354 668.711 343.3281 668.711 342.8437 C668.711 342.4285 669.0599 341.3903 669.0599 341.3903 L670.3752 340.4907 L671.6863 339.3832 L672.0354 340.0753 L670.9929 341.1826 L670.1014 343.7432 L670.3006 344.5045 L671.552 344.7122 L671.9009 348.5185 L670.4398 349.2106 L670.6498 351.702 L670.9929 351.5637 L671.7559 350.2488 L672.8673 351.4943 L671.7559 352.3942 L671.552 354.7471 L673.3507 357.1002 L676.0525 357.4462 L677.1587 356.8925 L679.3713 359.7993 L680.3373 360.1453 L684.9723 358.2075 L686.3581 355.4392 L686.707 351.9788 Z M675.1503 358.2075 L675.9123 359.9376 L676.0525 361.1832 L676.8096 362.4983 C676.8096 362.4983 677.4325 361.8754 677.4325 361.6678 C677.4325 361.4602 676.944 359.5224 676.944 359.5224 L676.4655 357.9307 L675.1503 358.2075 Z " fill-rule="evenodd" opacity="1" fill="#D3D3D3" fill-opacity="0.58" />
      <path d="M631.0639 342.7744 L631.8268 346.1655 L632.584 350.9409 L635.0759 349.0722 L636.6708 346.9268 L638.3996 346.5115 L639.4363 345.4734 L640.6877 343.6741 L641.5145 344.0894 L643.5181 343.8817 L645.3226 342.4285 L646.7025 341.3903 L647.9539 341.0444 L648.8512 341.7365 L650.3705 342.4976 L651.6924 343.7432 L652.6582 344.643 L652.5887 347.8956 L648.6414 345.7504 L645.5325 344.5045 L645.3923 348.1724 L645.0431 349.6258 L643.9368 351.4943 L643.5181 352.6017 L641.3751 354.2627 L641.0318 355.8545 L638.6743 356.0622 L638.4702 358.2075 L637.707 362.0139 L635.9076 362.0139 L635.0055 361.4602 L633.8992 359.5916 L632.6594 359.7301 L632.4495 362.7751 L630.9999 367.3427 L627.5304 374.817 L628.0834 375.7166 L627.949 377.5853 L626.4993 378.9001 L625.4629 378.6925 L623.2445 380.3535 L621.4459 379.6616 L620.1995 382.9141 C620.1995 382.9141 617.6378 383.4678 617.1542 383.6062 C616.7413 383.7446 615.4948 382.7064 615.4948 382.7064 L613.8304 384.2982 L612.0309 384.7136 L610.0225 384.16 L609.1259 383.2601 L607.6059 381.184 L605.4582 379.7998 L603.6585 377.9312 L601.65 375.3707 L601.2363 373.7789 L599.4374 372.7409 L598.8843 371.6335 L598.745 367.9655 L600.2643 367.8966 L601.5803 367.3427 L601.7195 365.4742 L602.8259 364.4362 L602.9709 360.9759 L603.6585 358.2766 L604.5608 357.8614 L605.4582 358.6228 L605.8071 359.8684 L607.0469 359.1764 L607.3963 358.0689 L606.634 356.8235 L606.634 355.1623 L607.3265 354.2627 L608.9219 351.9098 L609.8183 350.8716 L611.2738 351.2178 L612.8635 350.1104 L615.0114 347.7574 L616.6011 345.0582 L616.8051 341.1136 L617.1542 337.6532 L617.1542 334.4003 L616.3921 332.2551 L617.0798 331.217 L617.9867 330.3174 L620.4091 344.0201 L623.5938 343.4665 L631.0639 342.7744 Z " opacity="1" fill="#D3D3D3" fill-opacity="0.58" />
      <path d="M606.9773 381.3916 L605.3876 383.2601 L602.4825 385.7516 L599.5072 389.8349 L598.2615 391.0804 L598.2615 392.5338 L595.5598 393.987 L591.6124 396.3401 L589.191 396.6171 L553.2787 400.0081 L542.3445 401.2539 L539.1595 401.5998 L536.4582 401.5998 L536.319 404.5067 L530.6475 404.5756 L525.8036 404.9909 L518.6014 405.1294 L519.9222 404.9909 L521.4424 403.7452 L522.8931 402.984 L523.0323 400.7693 L523.6552 399.5236 L522.5487 397.7935 L523.1017 396.4787 L524.6918 395.2328 L526.1471 394.8178 L528.0163 395.7173 L530.5082 396.6171 L531.2655 396.4092 L531.4048 394.8178 L530.5082 393.1567 L530.7173 391.5649 L532.0275 390.5269 L533.8322 390.1115 L534.9382 389.6962 L534.3802 388.4507 L533.9664 387.1359 L534.7294 386.5821 L535.4914 384.2982 L537.5702 383.1218 L541.5817 382.4298 L544.0737 382.0837 L545.1104 383.3985 L546.356 383.9523 L547.6022 381.7375 L549.6108 380.6995 L550.921 381.8068 L551.4743 382.5681 L552.9296 382.222 L552.7896 379.869 L554.798 378.7618 L555.5608 378.2081 L556.3238 379.3153 L559.5778 379.3153 L560.1262 377.8621 L559.922 376.2704 L561.9305 373.7789 L565.1798 371.0801 L565.5288 367.9655 L567.3923 367.7581 L570.0932 366.5123 L571.9625 365.1975 L571.7584 363.8826 L570.716 362.8445 L571.1299 361.3218 L573.971 361.1834 L575.6304 360.6298 L577.639 361.7372 L578.7451 364.7823 L582.7621 364.9898 L584.0027 366.2354 L585.4583 366.374 L587.1176 365.3357 L589.2605 365.6819 L590.1627 366.7198 L592.032 364.9205 L593.2776 364.0209 L594.3839 364.0209 L594.8026 365.8893 L596.0491 366.5815 L597.7084 368.1041 L597.8477 371.9103 L598.4009 373.0178 L600.2004 374.0557 L600.6084 375.6476 L602.6169 378.2082 L604.4214 380.0768 L606.9773 381.3916 Z " opacity="1" fill="#D3D3D3" fill-opacity="0.58" />
      <path d="M613.6265 310.2475 L609.4045 313.0849 L606.7035 314.6767 L604.3519 317.2373 L601.5803 319.9363 L599.3678 320.4899 L597.3593 320.836 L593.5513 322.6355 L592.1015 322.774 L589.7488 320.6282 L586.1457 321.0438 L584.3519 320.0056 L582.6866 319.0367 L579.2983 319.5212 L572.2363 320.6282 L566.8392 321.4589 L567.7413 331.563 L568.987 341.0444 L570.7866 357.2386 L571.2053 360.5605 L574.0405 360.4914 L575.6951 359.9376 L578.0527 360.9759 L579.5024 364.0209 L583.0358 364.0209 L584.3519 365.4742 L585.5975 365.405 L587.3275 364.5054 L589.0564 364.7822 L590.4421 365.8202 L591.6124 364.3668 L593.2078 363.4673 L594.6575 362.9828 L595.0762 364.8513 L596.3226 365.5434 L598.745 367.1351 L600.2643 367.0659 L601.0271 366.3047 L600.9574 365.3356 L602.0688 364.2977 L602.2089 360.8373 L602.9014 358.1384 L603.9379 357.1693 L604.9747 357.7922 L605.5278 358.6228 L606.3546 358.4843 L606.081 356.8235 L605.6671 356.4082 L605.6671 354.7471 L606.3546 353.8474 L607.9493 351.4946 L608.8465 350.4563 L610.302 350.8024 L611.8966 349.6952 L614.0395 347.3422 L615.6294 344.643 L615.7685 340.9059 L616.1177 337.4456 L616.1177 334.1928 L615.3497 332.0475 L616.048 331.0095 L616.6707 330.3174 L615.6989 323.535 L613.6265 310.2475 Z " opacity="1" fill="#D3D3D3" fill-opacity="0.58" />
      <path d="M509.9552 232.1134 L511.196 230.6602 L512.7208 230.1066 L516.4586 227.4075 L518.0483 226.9924 L518.3975 227.3384 L514.8687 230.8679 L512.5817 232.1828 L511.1312 232.8057 L509.9552 232.1134 Z M569.6098 254.3288 L570.0234 256.0589 L572.2363 256.1974 L573.1327 255.3669 C573.1327 255.3669 573.0688 254.3288 572.8589 254.2595 C572.6549 254.121 571.7584 252.9446 571.7584 252.9446 L570.2334 253.083 L569.1214 253.2215 L568.9174 253.9828 L569.6098 254.3288 Z M590.4421 297.9289 L588.2239 292.254 L586.6342 285.9561 L584.9749 283.7415 L583.176 282.4956 L582.064 283.257 L579.363 284.5027 L578.0527 287.963 L576.1835 290.5238 L575.4263 290.9391 L574.3838 290.5238 C574.3838 290.5238 572.5851 289.4856 572.7245 289.0705 C572.8589 288.6551 573.0688 285.61 573.0688 285.61 L575.4263 284.7104 L575.9796 282.3575 L576.3926 280.558 L578.0527 279.4507 L577.8431 272.5301 L576.7367 270.9383 L575.8344 270.3846 L575.2862 268.9314 L575.8344 268.3777 L576.9465 268.5853 L577.0857 267.4781 L575.2862 265.9553 L574.3838 264.1561 L572.5851 264.1561 L569.4706 263.118 L565.6624 260.7649 L563.7941 260.7649 L563.3801 261.1802 L562.6879 260.8342 L560.5449 259.2425 L558.5365 260.4881 L556.5278 262.08 L556.7368 264.5713 L557.4302 264.779 L558.8855 265.125 L559.2286 265.6786 L557.4302 266.2323 L555.6306 266.4399 L554.594 267.6857 L554.385 269.139 L554.594 270.2462 L554.798 274.0526 L552.3118 275.5059 L551.8931 275.3676 L551.8931 272.461 L552.7896 270.8 L553.2092 269.139 L552.6559 268.5853 L551.3398 269.139 L550.6474 272.0457 L548.7782 272.8069 L547.5374 274.1219 L547.3925 274.8138 L547.8113 275.3676 L547.3925 277.167 L545.8027 277.5129 L545.8027 278.2744 L546.356 279.9352 L545.5988 284.1566 L544.4875 286.9252 L544.9003 290.1779 L545.2495 290.9391 L544.6915 292.5999 L544.4875 293.1536 L544.2776 295.022 L546.7699 299.1746 L548.7782 303.673 L549.8148 306.9948 L549.2617 310.2475 L548.5684 314.4 L546.9149 317.9987 L546.705 319.8671 L544.417 322.0128 L547.4622 321.8743 L562.2739 320.2823 L567.3218 319.5905 L567.3923 320.767 L572.1666 319.9366 L579.2983 318.8984 L581.9994 318.5523 L582.064 318.137 L582.2034 317.099 L583.6594 314.5384 L585.0395 313.3619 L584.9051 309.8323 L586.0114 308.7251 L586.7687 308.5175 L586.9078 306.0259 L587.9503 303.9497 L588.7075 304.365 L588.8525 304.7803 L589.4056 304.9187 L590.7158 304.2267 L590.4421 297.9289 Z M500.1971 252.2527 L500.6805 251.8373 L502.549 251.2836 L505.036 249.6919 L505.036 248.9999 L505.4549 248.5848 L509.6063 247.8925 L511.2713 246.5777 L514.3108 245.1243 L514.4501 244.2247 L515.766 242.2176 L517.0118 241.664 L517.9141 240.4184 L519.5036 238.8266 L522.5487 237.1656 L525.8036 236.8196 L526.5658 237.5809 L526.3569 238.2729 L523.7953 238.965 L522.7587 241.1103 L521.1688 241.664 L520.8196 243.3251 L519.1602 245.5395 L518.9505 247.3389 L519.5036 247.685 L520.197 246.9237 L522.6881 244.9168 L523.5854 245.8164 L525.1801 245.8164 L527.3928 246.5085 L528.4293 247.2698 L529.4717 249.4151 L531.3352 251.2836 L534.0362 251.1453 L535.0726 250.4533 L536.179 251.353 L537.2852 251.699 L538.1932 251.1453 L538.9504 251.1453 L540.0567 250.4533 L542.8222 247.9619 L545.1797 247.2005 L549.7451 246.9928 L552.8598 245.6779 L554.6644 244.7784 L555.6954 244.9168 L555.6954 248.8615 L556.0443 249.0691 L558.0529 249.6228 L559.369 249.2768 L563.59 248.1694 L564.3522 247.4082 L565.3887 247.7542 L565.3887 252.5985 L567.6012 254.7441 L568.5034 255.1592 L569.4006 255.8514 L568.5034 256.0589 L567.9504 255.8514 L565.3887 255.5053 L563.9393 255.9206 L562.3436 255.782 L560.1262 256.8202 L558.8855 256.8202 L554.8685 255.9206 L551.2703 256.0589 L549.9599 257.8584 L545.1104 258.2735 L543.4451 258.8272 L542.688 260.9726 L541.7856 261.7338 L541.4423 261.5955 L540.4057 260.4881 L537.2852 262.1491 L536.8771 262.1491 L536.1143 261.0419 L535.561 261.1802 L534.2458 264.2253 L533.5526 266.9935 L531.3352 271.838 L530.5082 271.146 L529.5412 270.4538 L528.2252 263.3256 L525.8036 262.3568 L524.3484 260.7649 L515.975 258.8965 L513.9616 258.2044 L508.2959 256.6818 L502.8235 255.9206 L500.1971 252.2527 Z " fill-rule="evenodd" opacity="1" fill="#D3D3D3" fill-opacity="0.58" />
      <path d="M352.6444 274.8138 L345.383 274.2603 L323.1657 271.9764 L311.9523 270.523 L292.3719 267.6857 L278.5966 265.6093 L277.6296 273.3606 L275.0033 290.1776 L271.3305 311.2164 L270.2938 318.483 L269.1123 326.7186 L273.6127 327.3414 L291.5394 329.0715 L305.798 330.6633 L331.2645 333.5006 L347.7357 335.5077 L350.8505 304.9185 L351.8175 287.3402 L352.6444 274.8138 Z " opacity="1" fill="#D3D3D3" fill-opacity="0.58" />
      <path d="M354.3087 259.9346 L354.7224 252.1833 L356.318 235.0203 C356.6613 231.5598 357.08 229.1378 357.2841 224.3624 L357.907 214.2583 L336.6615 212.3205 L316.4527 209.8983 L296.1744 207.1301 L273.8225 203.462 L261.0888 201.1091 L238.4577 196.334 L235.343 211.0748 L237.6956 216.2653 L236.7287 219.4489 L237.9693 222.6322 L240.1867 223.6012 L243.3721 231.0755 L245.2404 233.2901 L245.5895 234.0514 L247.9422 234.8128 L248.2807 236.2661 L243.3721 248.4463 L243.3721 250.1763 L245.1011 252.391 L245.7239 252.391 L249.0427 250.3147 L249.532 249.5536 L250.6382 250.038 L250.4981 253.7059 L252.3673 262.426 L254.4406 264.1561 L255.069 264.6404 L256.3147 266.2323 L255.9713 268.5853 L256.449 270.9383 L257.2112 271.5612 L258.8009 269.9695 L260.6701 269.9695 L262.8883 271.0767 L264.6174 270.4538 L267.4585 270.4538 L270.0145 271.5612 L271.8837 271.2151 L272.2327 269.139 L274.3051 268.6545 L275.2721 269.6235 L275.6212 271.838 L276.8676 272.8069 L277.9035 264.779 L292.2317 266.8552 L311.7482 269.6235 L323.2354 270.9383 L344.9643 273.3606 L352.5747 274.3986 L353.3367 263.7408 L354.3087 259.9346 Z " opacity="1" fill="#D3D3D3" fill-opacity="0.58" />
      <path d="M219.6289 300.5587 C203.9959 297.5826 209.8764 298.6208 205.0326 297.5135 L208.0778 285.4024 L211.0523 273.1529 L212.0193 270.2462 L213.7542 266.163 L212.8519 264.5713 L211.1171 264.6404 L210.5689 263.9486 L210.9131 263.1873 L211.1171 261.0419 L214.2319 257.2355 L215.4775 256.8895 L216.2404 256.1282 L216.6592 253.9135 L217.277 253.4292 L219.978 249.4151 L222.6797 246.4394 L222.8191 243.8095 L220.4672 242.0101 L219.5649 238.965 L219.8387 232.252 L222.4003 220.8329 L225.5151 206.438 L228.1464 197.0952 L228.6995 194.4655 L237.6956 196.1955 L234.7898 211.0748 L236.7934 216.4037 L236.0362 219.5873 L237.4211 222.7707 L239.6337 223.9473 L242.7493 230.7294 L244.6127 233.3592 L245.0315 234.1205 L247.3833 234.8818 L247.7275 236.612 L242.9533 248.2386 L243.1623 250.5225 L245.0315 252.5295 L246.3467 252.8755 L249.6663 250.3841 L249.945 250.038 L250.0851 250.5917 L250.2891 253.4292 L252.0879 262.3568 L254.5151 264.2253 L254.7896 264.779 L256.245 266.4399 L255.686 268.3777 L256.1803 271.0074 L257.4905 271.6303 L258.946 270.523 L260.7397 270.1771 L263.0974 271.2843 L264.8216 270.8691 L267.4585 270.7306 L270.2243 271.838 L272.0926 271.6303 L272.7162 270.0385 L274.4395 268.9314 L274.9336 270.1078 L275.3418 271.6303 L276.9373 273.3606 L274.3051 289.9701 L270.7774 310.0399 L267.8665 309.8322 L262.1952 308.7941 L255.4125 307.5485 L246.9703 305.8875 L238.3184 304.1574 L232.4379 302.9117 L225.9986 301.7351 L219.6289 300.5587 Z " opacity="1" fill="#D3D3D3" fill-opacity="0.58" />
      <path d="M172.2246 179.7244 L175.2697 180.7625 L181.9827 182.631 L187.9385 183.946 L201.7777 187.8907 L217.6958 191.8355 L228.2169 194.1885 L227.5236 196.8875 L224.6883 206.438 L221.5735 220.8329 L219.3552 231.9752 L219.0758 238.4806 L209.9461 235.7815 L199.1513 233.4285 L189.6677 233.8438 L188.5613 232.8057 L184.8877 234.1205 L182.1277 233.9129 L180.2586 232.6672 L179.1465 233.0132 L176.2415 232.8748 L174.9254 231.9059 L171.6066 230.7294 L170.6348 230.591 L167.1709 229.6913 L165.9302 230.7294 L161.9829 230.522 L158.664 227.892 L158.8033 227.3384 L158.868 221.871 L157.4176 219.1721 L154.5822 218.6876 L154.3029 217.0266 L152.5737 216.6114 L150.5653 216.2653 L149.3197 216.9574 L147.7299 214.9504 L147.9339 212.9434 L149.8081 212.7357 L150.9143 209.9676 L149.1156 209.2063 L149.2492 206.6457 L152.2943 206.2304 L150.4309 204.3619 L149.3893 199.4482 L149.8081 197.441 L149.8081 191.9738 L148.5625 189.7593 L150.1514 183.2539 L151.6068 183.5999 L153.2613 185.6069 L155.1354 187.4062 L157.3479 188.7213 L160.4628 190.1746 L162.6057 190.5898 L164.6142 191.6279 L166.9669 192.3199 L168.5615 192.1815 L168.5615 190.5206 L169.4588 189.7593 L170.9142 188.8595 L171.1182 189.6209 L171.3272 190.8665 L169.7325 191.2125 L169.5285 192.666 L170.7741 193.7041 L171.537 195.3652 L171.9451 196.6799 L172.9866 196.5416 L173.1317 195.6418 L172.4335 194.7422 L172.0901 192.5276 L172.6376 191.2817 L172.2246 190.2436 L172.2246 188.4443 L173.4758 185.953 L172.7072 184.1535 L171.0535 180.8315 L171.2575 180.278 L172.2246 179.7244 Z M165.6508 183.8076 L167.0365 183.669 L167.3856 184.6379 L168.4165 183.5308 L170.012 183.5308 L170.5651 184.5689 L169.5285 185.7453 L169.9415 186.2989 L169.4588 187.6832 L168.4919 187.96 C168.4919 187.96 167.8691 188.0291 167.8691 187.8215 C167.8691 187.614 168.9106 186.0222 168.9106 186.0222 L167.7289 185.6069 L167.52 186.6451 L167.0365 187.0603 L165.9941 185.4686 L165.6508 183.8076 Z " fill-rule="evenodd" opacity="1" fill="#D3D3D3" fill-opacity="0.58" />
      <path d="M354.5881 406.0291 L370.2972 406.7903 L391.8213 407.5516 L390.2266 423.8151 L390.0168 436.4106 L390.0872 437.8639 L393.0619 440.4939 L394.2436 441.0472 L395.4843 441.2549 L395.9678 440.3553 L396.5963 440.9781 L397.7722 441.3242 L398.8785 440.8398 L399.6406 441.1167 L399.4316 443.4696 L402.4071 444.1618 L404.2755 444.7155 L407.0412 445.0614 L408.5662 446.307 L410.7796 445.1998 L412.7176 445.4765 L414.1032 447.4144 L414.8662 447.6219 L414.7261 449.006 L416.869 449.8364 L418.8079 448.5908 L419.8502 448.8676 L421.5039 449.006 L421.7833 450.321 L424.9678 451.7051 L426.8369 451.5668 L428.2226 448.7293 L428.4267 448.7293 L429.1889 450.0443 L432.2339 450.7362 L434.5162 451.5668 L436.8041 452.1204 L438.2546 451.5668 L438.8126 449.8364 L441.3693 449.8364 L442.6854 450.3902 L444.8333 449.2829 L445.3167 449.2829 L445.5904 450.0443 L448.5658 450.0443 L450.2253 449.1445 L451.4012 449.3521 L452.3731 450.667 L454.3816 451.8436 L456.8039 452.6049 L458.6674 453.5736 L460.3326 454.6812 L462.6148 454.0583 L463.9309 454.7502 L464.2799 461.7401 L464.489 468.4532 L464.9667 475.0279 L465.3109 477.7959 L467.1849 480.9794 L467.9479 483.8168 L470.6382 488.1768 L470.9873 490.1838 L471.3364 490.876 L470.8586 496.0663 L468.9837 499.1114 L469.6712 501.1187 L469.3975 502.8487 L468.8444 507.9004 L467.8725 509.7691 L468.2913 512.8141 L464.3438 513.9219 L457.4963 517.0359 L456.8039 518.3506 L454.9995 519.6661 L453.549 520.704 L452.6467 521.2578 L448.7052 524.9255 L446.8417 526.3785 L443.1681 528.5933 L439.2207 530.2546 L434.8653 532.6074 L433.6196 533.6454 L429.6027 536.137 L427.25 536.552 L424.5491 540.3581 L421.7833 540.5664 L421.0901 541.881 L422.6855 543.1956 L421.644 547.0023 L420.7467 550.1166 L419.9838 552.8153 L419.4306 555.9301 L419.9838 557.5911 L421.2303 562.4354 L421.9226 566.6572 L423.169 568.5256 L422.4758 569.5638 L420.3329 570.879 L416.3913 568.1795 L412.5783 567.4184 L411.6818 567.7644 L409.4692 567.3489 L406.5577 565.2036 L402.9603 564.4429 L397.7025 562.0897 L396.2521 559.3906 L395.3499 554.892 L393.1317 553.5772 L392.7185 551.9854 L393.1317 551.57 L393.3414 549.2169 L392.4392 548.802 L392.0252 548.1098 L392.9276 545.0646 L391.8213 543.4729 L389.6038 542.5729 L387.2568 539.5282 L384.7591 534.9603 L381.8541 533.1613 L381.9886 531.8462 L378.3255 523.3339 L377.7724 520.4272 L376.5268 519.1122 L376.3867 518.0739 L372.2353 514.406 L370.4365 512.2607 L370.4365 511.4995 L368.632 510.0461 L363.9276 509.2851 L358.8091 508.8695 L356.6613 507.2777 L353.5465 508.5236 L351.0546 509.5616 L349.4647 511.7766 L348.7723 514.3372 L345.7272 518.5583 L344.0678 520.2195 L342.2683 519.5276 L341.0227 518.7665 L339.7067 518.3513 L337.0106 516.7594 L337.0106 516.3442 L335.765 515.029 L332.161 513.5756 L327.0435 508.1777 L325.448 504.9253 L325.448 499.3195 L323.2354 494.821 L322.892 492.9522 L321.7799 492.2604 L321.0179 490.807 L317.5647 489.3538 L316.6567 488.2463 L311.7482 482.7791 L310.8516 480.5641 L307.5968 478.9728 L306.5553 475.9276 L304.7557 473.9206 L303.4404 473.5745 L303.0266 470.3219 L308.5638 470.8064 L328.6382 472.675 L348.7027 473.7822 L350.2974 457.3113 L352.9934 418.8324 L354.0997 405.8909 L355.0667 405.8909M423.8615 567.9025 L423.4427 562.9893 L421.5793 558.0061 L421.1606 553.1618 L422.1972 547.4868 L424.4794 542.7116 L426.9009 538.9747 L429.1191 536.483 L429.538 536.6216 L426.2142 541.1889 L423.169 545.6877 L421.7833 550.2549 L421.5793 553.8536 L422.1972 558.0753 L423.9958 563.0585 L424.3449 566.6572 L424.4794 567.695 L423.8615 567.9025 Z " fill-rule="evenodd" opacity="1" fill="#D3D3D3" fill-opacity="0.58" />
      <path d="M202.0571 442.9852 L204.6835 442.6391 L205.725 441.2549 L206.2028 439.9402 L203.9959 439.8709 L203.233 438.6252 L203.7813 437.4487 L203.7813 433.158 L205.3063 432.2582 L207.1747 430.4588 L207.4541 427.0676 L208.5604 424.6457 L209.8764 423.1923 L212.1587 422.0159 L213.056 421.5312 L213.614 420.4933 L212.9912 419.8705 L212.2988 418.8321 L211.6752 415.1643 L209.6667 411.5656 L209.7371 409.6277 L208.2113 407.4131 L197.8303 391.3574 L184.4099 371.4952 L168.9106 348.6569 L160.1136 335.1617 L161.3601 330.1787 L166.0695 312.2545 L171.6763 290.5237 L163.0948 288.2399 L153.7448 285.8869 L145.0281 283.0493 L139.8401 281.596 L131.9511 279.5199 L127.0376 277.8589 L125.9256 281.1115 L125.7912 286.2329 L122.193 294.3992 L120.0452 296.1986 L119.8354 296.9599 L118.5898 297.5134 L117.5531 300.4202 L117 302.6349 L118.8692 305.5415 L119.9755 308.4481 L120.7376 310.9396 L120.5286 315.438 L119.2879 317.5834 L118.8692 321.5972 L118.1759 324.1579 L119.4223 326.857 L121.2907 329.9714 L122.8805 333.2931 L123.7827 336.0614 L123.5737 338.2761 L123.364 338.6221 L123.364 340.0753 L127.3162 344.4354 L126.9671 346.0963 L126.5484 347.6881 L126.1354 349.003 L126.2747 354.678 L127.7251 357.2386 L129.0461 359.0381 L130.9096 359.384 L131.602 361.2526 L130.8399 363.744 L129.3895 364.8512 L128.6274 364.8512 L128.0685 367.5503 L128.4176 369.5574 L130.6301 372.6024 L131.7364 376.2703 L132.778 379.523 L133.6802 381.6685 L136.0329 385.6823 L137.0695 387.4818 L137.4186 389.4886 L138.5248 390.1808 L138.5248 391.8418 L137.9717 393.1567 L136.7253 398.0703 L136.3763 399.3852 L138.0414 401.2539 L140.9472 401.5998 L144.062 402.8455 L146.7629 404.2991 L148.7665 404.2991 L150.7693 406.4442 L152.5737 409.7662 L153.3367 411.3579 L156.0327 412.8111 L159.3564 413.3651 L160.3931 414.8183 L160.8069 417.0329 L159.7703 417.4481 L159.9793 418.1404 L162.1927 418.6938 L164.061 418.8321 L166.0695 422.0848 L168.7655 424.9915 L169.3187 426.5833 L171.1182 429.4901 L171.3272 431.7046 L171.3272 438.2099 L171.6763 439.4556 L178.5934 440.4939 L192.2293 442.3623 L202.0571 442.9852 Z M141.2209 408.5204 L142.1231 409.5586 L141.983 410.4583 L139.7704 410.389 L139.3575 409.5586 L138.9379 408.5204 L141.2209 408.5204 Z M142.5362 408.5204 L143.3687 408.1053 L145.8607 409.5586 L148.0036 410.389 L147.3857 410.8043 L144.266 410.6659 L143.1598 409.5586 L142.5362 408.5204 Z M156.8644 422.2234 L158.1109 423.8151 L158.664 424.5071 L159.7007 424.9224 L160.1136 423.8843 L159.4212 422.6385 L157.5578 421.2545 L156.7948 421.3929 L156.7948 422.2234 Z M155.8925 428.2443 L157.139 430.4588 L157.9659 431.7738 L156.9292 431.9124 L156.0327 431.0818 C156.0327 431.0818 155.5435 430.0437 155.5435 429.7668 C155.5435 429.4901 155.5435 428.2443 155.5435 428.2443 L155.8925 428.2443 Z " fill-rule="evenodd" opacity="1" fill="#D3D3D3" fill-opacity="0.58" />
      <path d="M202.7446 443.4696 L200.9508 444.9921 L200.741 446.0303 L201.0852 446.7224 L214.1622 454.1274 L222.5396 459.3872 L232.7166 465.3387 L244.3382 472.2595 L252.8508 473.9206 L270.2243 475.7891 L271.9533 467.1382 L274.5846 448.3142 L279.4292 411.7039 L282.4039 390.2501 L265.3795 387.6893 L246.5565 384.5058 L223.4419 380.1461 L221.4333 392.6722 L221.0842 393.0184 L219.9084 394.8178 L218.1792 394.7484 L217.277 392.8798 L215.4079 392.6722 L214.7907 391.9112 L214.1622 391.9112 L213.5443 392.3264 L212.2283 393.0184 L212.1587 397.8629 L212.0193 399.0394 L211.6055 407.7592 L210.5689 409.2819 L210.1502 411.5657 L212.0193 414.9568 L212.9216 418.9708 L213.4747 419.6628 L214.1622 420.0779 L214.0975 421.6696 L212.9912 422.6385 L210.6336 423.8152 L209.3233 425.13 L208.2818 427.6906 L207.8679 431.082 L205.8594 432.9503 L204.4041 433.4348 L204.3393 437.4487 L203.9959 438.6252 L204.3393 439.1789 L206.901 439.5941 L206.4822 441.4628 L205.4456 442.9853 L202.7446 443.4696 Z " opacity="1" fill="#D3D3D3" fill-opacity="0.58" />
      <path d="M204.8228 298.2057 L219.3552 301.3199 L226.0682 302.6349 L232.5076 303.8806 L237.072 304.9879 L236.659 309.071 L234.2366 321.0438 L231.4013 334.8849 L230.0804 341.5979 L228.5602 350.8024 L226.3477 362.1521 L223.9254 373.0178 L222.5396 380.0768 L220.8105 391.7034 L220.4672 392.4647 L219.6986 394.1948 L218.3833 394.1257 L217.6261 392.257 L215.7569 391.9109 L214.7907 391.2188 L213.4051 391.4265 L212.7814 391.9109 L211.8792 392.8107 L211.6055 397.6551 L211.2564 398.8316 L210.9828 407.2056 L210.0805 408.382 L208.7702 406.7903 L198.7326 391.0804 L185.3064 371.0106 L169.4588 347.6189 L160.8766 334.7466 L161.9829 330.1789 L166.8324 312.2546 L172.2991 290.5928 L195.5481 296.1986 L205.0326 298.2748" opacity="1" fill="#D3D3D3" fill-opacity="0.58" />
      <path d="M282.5441 389.3503 L265.5141 386.9281 L247.1096 383.537 L223.7213 379.3846 L224.8227 373.0178 L227.0401 362.4983 L229.2526 351.0791 L230.7728 341.6673 L232.0938 335.5078 L234.7201 321.3204 L237.1425 309.2094 L237.9046 305.3338 L246.6909 306.9255 L254.9937 308.3789 L262.1255 309.6246 L267.8665 310.5935 L270.4332 310.9396 L269.3916 318.2755 L267.8018 327.4106 L273.1939 328.0335 L284.5468 329.2791 L290.2233 329.9021 L288.7679 345.1273 L286.5554 360.7683 L283.9298 380.0075 L282.748 387.6893 L282.5441 389.3503 Z " opacity="1" fill="#D3D3D3" fill-opacity="0.58" />
      <path d="M369.4647 353.0171 L370.4365 338.2761 L348.2192 336.1306 L331.2645 334.2621 L305.449 331.4246 L291.1255 329.6945 L289.3269 345.0582 L287.1084 360.5605 L284.4772 379.9383 L283.4405 387.6203 L283.2316 389.558 L306.6945 392.1878 L332.7847 395.1637 L354.9323 397.3784 L366.4195 397.932" opacity="1" fill="#D3D3D3" fill-opacity="0.58" />
      <path d="M303.0963 473.5744 L302.6078 469.3527 L308.5638 469.6988 L328.9823 471.8442 L348.6322 472.8132 L350.0179 457.3801 L352.5747 418.6938 L353.3367 405.2676 L354.7224 405.4754 L354.7224 397.7935 L332.4405 396.1327 L306.8986 393.0875 L283.0275 390.2501 L280.1216 411.5656 L275.2721 448.3832 L272.6458 466.9999 L271.2609 476.2042 L281.9908 477.5883 L282.8874 470.6678 L294.4501 472.4671 L303.0963 473.5744 Z " opacity="1" fill="#D3D3D3" fill-opacity="0.58" />
      <path d="M204.5491 297.5826 L207.5238 285.1948 L210.773 272.8069 L211.5416 269.9003 L213.1953 266.0247 L212.7814 265.1941 L211.0523 265.1941 L210.1502 264.0176 L210.4993 262.9796 L210.8434 260.7649 L213.9582 256.9585 L215.2038 256.1974 L215.9667 255.4361 L217.0034 252.9446 L219.7739 248.9999 L222.2659 246.3009 L222.4003 243.8786 L220.123 242.1485 L219.2855 239.0342 L210.1502 236.4735 L199.7045 234.0514 L189.0391 234.1205 L188.7007 233.1517 L184.8877 234.605 L181.7786 234.1898 L180.1135 233.0824 L179.2161 233.5669 L175.9621 233.4285 L174.7862 232.4597 L171.1182 231.0063 L170.5651 231.0755 L167.5896 230.0374 L166.2736 231.2831 L161.9829 231.0755 L157.9011 228.238 L158.3846 227.6843 L158.5239 222.2862 L156.9292 219.5873 L154.0938 219.1721 L153.6104 217.4417 L151.951 217.0958 L147.9339 218.5491 L146.3442 223.0477 L144.1259 229.9681 L141.9134 234.4666 L138.4552 244.2247 L133.9547 253.6367 L128.3479 262.3568 L127.0376 264.3637 L126.4787 270.3155 L125.5822 274.4678 L127.4506 276.8901 L132.0855 278.482 L140.1147 280.7656 L145.5813 282.4956 L154.1684 284.9872 L163.3686 287.4787 L172.5032 289.9701" opacity="1" fill="#D3D3D3" fill-opacity="0.58" />
      <path d="M433.6196 263.6717 L433.3459 258.4812 L431.9545 253.4292 L430.7146 244.017 L430.3655 237.2349 L428.9799 235.0895 L427.8736 231.3523 L427.8736 224.2241 L428.3571 221.525 L426.9009 217.7187 L407.251 217.3034 L394.3779 216.8882 L376.0376 215.9885 L358.8091 214.6736 L357.907 224.5008 L356.9408 234.9509 L355.3453 252.1833 L354.9962 259.7959 L394.3083 262.426 L433.6196 263.6717 Z " opacity="1" fill="#D3D3D3" fill-opacity="0.58" />
      <path d="M434.6563 315.9225 L433.963 315.1612 L432.9215 312.6697 L434.1729 310.109 L434.9357 306.2336 L433.1362 304.7803 L432.9215 302.9115 L433.3459 300.8354 L434.8653 300.2817 L435.075 296.337 L435.0054 275.5059 L434.5916 273.4296 L431.7505 270.9383 L431.058 269.5542 L431.058 268.2393 L432.3741 267.3394 L433.4157 266.0247 L433.55 264.1561 L393.8249 263.0488 L354.9323 260.3497 L354.3791 264.0176 L353.2729 275.0214 L352.3707 287.4093 L351.2645 304.434 L362.3377 305.1263 L375.9039 305.8875 L388.3574 306.7871 L404.8286 307.6869 L412.235 307.1331 L414.2434 308.7249 L417.2181 310.8011 L417.9056 311.3546 L420.3329 310.732 L423.0994 310.5243 L424.9678 310.4551 L427.1107 311.2856 L430.2255 312.2546 L432.3741 313.5002 L432.7928 314.815 L433.4157 316.13 L433.8933 315.7839 L434.6563 315.9225 Z " opacity="1" fill="#D3D3D3" fill-opacity="0.58" />
      <path d="M442.5453 346.2348 L443.5172 348.1032 L443.5818 349.5566 L445.247 352.1174 L447.1154 354.3321 L443.6516 354.3321 L413.5501 353.7092 L385.3074 353.0862 L370.6407 352.3942 L371.4035 337.6532 L348.2889 335.7846 L351.2645 305.3338 L361.9886 306.0259 L375.9679 306.7871 L388.2877 307.5485 L404.7589 308.3097 L412.1645 307.9637 L413.6198 309.5553 L416.9395 311.6316 L417.7016 312.2546 L420.677 311.2856 L423.3781 310.9396 L425.2472 310.8011 L426.4879 311.7701 L429.9518 312.8774 L432.025 313.9846 L432.3741 315.092 L432.9969 316.5453 L434.2425 316.5453 L434.7956 316.5453 L435.4888 320.144 L437.3523 325.6805 L438.1849 328.864 L439.6403 331.4939 L439.9836 334.8849 L440.9555 337.8608 L441.3046 342.3593" opacity="1" fill="#D3D3D3" fill-opacity="0.58" />
      <path d="M499.5742 314.8151 L499.7137 316.1301 L501.3033 316.8913 L502.0605 317.7911 L502.2752 318.6906 L504.9714 320.9051 L505.4549 322.428 L504.9015 324.4348 L503.86 326.857 L503.307 328.7255 L501.7868 329.8328 L500.6108 330.248 L496.8029 331.2862 L496.3144 332.878 L495.7662 334.4695 L496.18 335.4385 L497.3561 336.6151 L497.3561 339.1758 L495.8311 340.2831 L495.4876 341.3211 L495.4876 343.0514 L494.4509 343.3972 L493.2743 344.3662 L492.931 345.4042 L493.2743 346.5806 L492.3081 347.4113 L490.7127 345.5427 L489.6769 343.7432 L483.9299 344.2968 L476.8736 344.7122 L459.5697 345.1965 L450.5686 345.3351 L444.0703 345.4736 L443.1681 345.5427 L441.9922 342.4285 L441.8471 337.8608 L440.7465 335.0233 L440.2631 331.3556 L438.6675 328.7948 L438.0448 325.4728 L436.1764 320.2823 L435.4184 316.5453 L434.4522 315.0228 L433.3459 313.1542 L434.5916 310.1784 L435.5528 306.2336 L433.6893 304.7803 L433.3459 302.9115 L433.963 301.1815 L435.1447 301.1815 L443.0984 301.1815 L477.4267 300.6971 L491.2018 300.2123 L492.5122 302.0811 L493.7578 303.8806 L494.1019 304.434 L492.8555 306.3028 L493.2046 309.2094 L494.9337 311.9085 L497.0126 313.1542 L498.6769 313.2926 L499.5742 314.8151 Z " opacity="1" fill="#D3D3D3" fill-opacity="0.58" />
      <path d="M539.7124 498.489 L539.5035 499.3882 L535.9053 499.3882 L534.8687 498.8345 L533.4132 498.6272 L528.7087 499.942 L527.4573 499.3882 L525.6693 502.2955 L524.9014 502.8487 L524.1442 501.1187 L523.3813 498.4195 L521.0237 496.205 L521.7859 491.0144 L521.3031 490.3916 L520.0569 490.5299 L514.3802 491.0144 L497.6355 491.4988 L497.2863 490.3916 L497.7748 484.8552 L500.1275 480.5641 L503.7953 474.2665 L503.1725 472.8132 L503.9299 472.8132 L504.4182 470.5986 L502.8235 469.3529 L502.9627 468.1072 L501.5074 464.9238 L501.3033 461.2556 L502.2752 459.3872 L501.9959 456.4111 L501.0296 454.3351 L501.9959 453.3662 L501.0296 451.9128 L501.3731 450.6671 L501.9959 446.3762 L504.0748 444.5078 L503.5855 443.0545 L506.1472 439.3867 L508.0164 438.7638 L508.0164 437.0336 L507.5329 436.0647 L509.4021 432.3967 L511.2713 431.6355 L511.3353 429.2824 L517.3558 429.2134 L534.0362 427.8984 L537.2212 427.7599 L537.2212 432.189 L537.3606 443.7467 L536.8018 465.2003 L536.6682 474.9587 L538.5366 487.9694 L539.7124 498.489 Z " opacity="1" fill="#D3D3D3" fill-opacity="0.58" />
      <path d="M535.4216 383.537 L535.4914 381.53 L535.8405 378.4156 L537.4252 376.4088 L538.6709 373.7097 L540.4755 370.8031 L540.1262 366.7892 L538.8856 364.9205 L538.6709 362.7061 L539.2298 358.8995 L538.8856 354.0551 L537.9833 342.9821 L537.081 332.3243 L536.3936 324.2273 L538.5366 324.85 L539.5731 325.5421 L540.3361 325.3346 L541.7856 324.0196 L543.7245 322.9121 L547.2531 322.774 L562.4778 321.1821 L566.3558 320.836 L567.3923 331.9091 L570.3669 357.377 L570.7866 361.3909 L570.4374 362.8444 L571.2692 364.0901 L571.3395 365.059 L569.6098 366.1663 L567.1882 367.2735 L564.9699 367.6888 L564.556 371.08 L561.3718 373.3636 L559.4327 376.132 L559.6426 377.793 L559.2286 378.8311 L556.9466 378.8311 L555.8404 377.7238 L554.1054 378.6233 L552.2419 379.6616 L552.3764 381.8068 L551.5496 382.0145 L551.2004 381.3224 L549.6747 380.2844 L547.3925 381.1839 L546.292 383.2601 L545.3194 382.7064 L544.2776 381.5992 L541.1679 381.9451 L537.2852 382.6373 L535.4216 383.537 Z " opacity="1" fill="#D3D3D3" fill-opacity="0.58" />
      <path d="M535.003 384.0213 L535.003 381.53 L535.2178 378.1389 L536.8771 375.9935 L538.1234 373.3636 L539.9222 370.6646 L539.6428 366.9969 L538.2628 364.5745 L538.1932 362.2907 L538.6709 358.6228 L538.1234 353.6398 L537.3606 342.7053 L536.4582 332.3243 L535.8405 324.2964 L535.6316 323.6736 L535.0726 321.8742 L534.1763 319.3136 L533.0699 318.0677 L532.0275 316.2683 L531.8932 312.4621 L525.0406 313.3617 L506.2177 314.5383 L500.1971 314.2614 L500.3315 315.9225 L501.9261 316.4069 L502.549 317.1681 L502.8931 318.4138 L505.5941 320.7669 L506.0775 322.3586 L505.5941 324.7116 L504.3485 327.2723 L503.86 329.0023 L502.2752 330.248 L501.0296 330.7325 L497.3561 331.7013 L496.8726 332.9472 L496.3898 334.4695 L496.8726 335.4385 L498.1189 336.5459 L497.9787 339.3832 L496.7333 340.4907 L496.2498 341.5979 L496.2498 343.4665 L495.0041 343.8124 L493.8979 344.5738 L493.7578 345.5427 L493.8979 346.9961 L492.7269 347.8956 L492.0287 349.8334 L492.3778 352.3942 L493.9675 357.4462 L499.0155 362.6368 L502.8235 365.1974 L502.6891 368.1732 L503.307 369.1421 L507.7371 369.4882 L509.6063 370.457 L509.1227 373.0178 L507.5329 377.1009 L507.0444 379.3153 L508.6393 382.0145 L513.0701 385.6823 L516.2496 386.1667 L517.6991 389.6273 L519.1602 391.8418 L518.5319 393.9178 L519.6437 396.7554 L520.8894 398.2087 L522.1995 397.6551 L522.6881 396.1327 L524.0691 395.1637 L526.2863 394.4025 L528.4293 395.2328 L530.4379 395.9942 L530.9908 395.8557 L530.9211 395.0253 L530.164 393.0875 L530.4379 391.4265 L532.0275 390.3192 L533.6927 389.6273 L534.5252 389.3503 L534.1057 388.4508 L533.5526 386.9281 L534.3802 386.0285 L535.003 384.0213 Z " opacity="1" fill="#D3D3D3" fill-opacity="0.58" />
      <path d="M434.0384 264.2253 L433.6893 258.3427 L432.4437 253.2907 L431.1974 243.9479 L430.8483 237.1656 L429.6027 234.8128 L428.4964 231.3523 L428.4964 224.2241 L428.9799 221.525 L427.7334 217.7187 L448.5658 217.7187 L448.7748 212.0437 L449.1936 211.9054 L450.7834 212.2513 L452.0994 212.8049 L452.6467 216.6114 L453.6891 220.8329 L454.7955 221.9402 L458.12 221.9402 L458.329 222.9783 L462.6844 223.1858 L462.6844 224.6394 L466.009 224.6394 L466.218 223.7396 L466.9752 222.9783 L468.565 222.5631 L469.4673 223.2551 L471.4758 223.2551 L474.1718 225.0545 L477.8396 226.7156 L479.5048 227.0614 L479.8482 226.3694 L480.8848 226.0234 L481.2339 228.0304 L483.0334 228.9301 L483.3768 228.584 L484.279 228.7224 L484.279 230.1758 L486.0786 230.8679 L488.2206 230.8679 L489.3326 230.3141 L491.5452 228.0996 L493.3497 227.7536 L493.8979 228.9994 L494.247 229.8989 L494.9337 229.8989 L495.627 229.3453 L501.7868 229.1378 L503.0326 231.2831 L503.452 231.2831 L503.9299 230.522 L506.9749 230.245 L506.561 231.8368 L503.86 233.0824 L497.4963 235.92 L494.1765 237.3041 L492.0287 239.1034 L490.3635 241.5948 L488.7746 244.2939 L487.5282 244.8476 L484.4135 248.308 L483.5168 248.4463 L480.8848 250.4533 L478.9516 252.6678 L478.8124 254.7441 L478.9516 260.1422 L477.8396 261.2494 L474.2471 263.8793 L472.9958 267.8241 L474.7248 270.3155 L475.0691 272.0457 L474.3119 274.1216 L474.1718 276.6826 L474.5208 281.5962 L476.8736 284.4337 L478.9516 284.4337 L480.6806 286.0255 L482.8932 286.9942 L485.4549 290.4547 L490.3635 293.9148 L491.6148 295.368 L491.7492 299.1745 L477.4962 299.659 L435.8322 300.0049 L435.6233 275.2982 L435.279 273.2221 L432.4437 270.8691 L431.6865 269.6235 L431.6865 268.516 L433.1362 267.4088 L434.1031 266.4399 L434.0384 264.2253 Z " opacity="1" fill="#D3D3D3" fill-opacity="0.58" />
      <path d="M531.6146 311.7701 L531.8932 309.6939 L530.782 306.5795 L530.368 302.358 L529.611 300.6971 L530.2983 298.5517 L530.8517 296.5446 L531.8932 294.7453 L531.4744 292.3922 L531.0614 289.9008 L531.4048 288.6551 L532.7208 286.9942 L532.86 285.1256 L532.3071 284.226 L532.7208 282.4266 L533.0699 280.2119 L534.9382 276.2672 L536.9468 271.5612 L537.081 269.9695 L536.8771 269.2773 L536.319 269.6235 L533.4132 273.9833 L531.5439 276.7517 L530.2338 277.9974 L529.6758 279.5891 L528.639 280.1429 L527.8761 281.4576 L526.8396 281.2501 L526.7 280.0045 L527.6022 278.3433 L529.0529 275.0907 L530.2983 273.9833 L531.0614 272.3915 L529.9494 271.7689 L528.9882 270.8 L527.8761 263.6717 L525.3202 262.9103 L524.3484 261.3187 L515.6268 259.4501 L513.8969 258.6888 L508.2204 257.097 L502.549 256.3358 L499.644 252.5985 L499.3006 253.4983 L498.5319 253.36 L498.1189 252.5985 L496.2498 252.0449 L495.4876 252.1833 L494.247 252.8755 L493.5537 252.4602 L493.9675 251.1453 L495.2828 248.9999 L496.0456 248.2386 L494.7297 247.2005 L493.2743 247.7542 L491.2658 249.0691 L486.1482 251.2836 L484.1396 251.699 L482.1312 251.353 L481.4378 250.73 L479.9882 252.6678 L479.8482 254.5364 L479.8482 260.4189 L479.0861 261.5262 L475.418 264.2253 L473.8283 268.3084 L474.1718 268.4469 L475.9065 269.9003 L476.3843 272.115 L475.1386 274.3296 L475.1386 277.0284 L475.4878 281.5962 L477.566 283.6721 L479.9129 283.6721 L481.1643 285.8869 L483.5168 286.2329 L486.2122 290.1776 L491.1265 293.0152 L492.5818 294.8838 L493.2046 300.0049 L493.6882 302.2888 L495.2828 303.396 L495.4229 304.365 L493.9675 306.7179 L494.1019 308.9324 L495.8311 311.6316 L497.5658 312.3929 L499.644 312.7388 L500.5461 313.7078 L506.9102 313.7078 L524.9713 312.6697 L531.6146 311.7701 Z " opacity="1" fill="#D3D3D3" fill-opacity="0.58" />
      <path d="M492.0983 347.9649 L490.3635 345.8195 L489.6064 344.2279 L484.2093 344.7122 L477.4267 345.0582 L459.8491 345.681 L450.5048 345.8195 L445.0373 345.8887 L443.4475 345.9578 L444.3448 347.6881 L444.2047 349.2798 L445.9395 351.9788 L448.0824 354.8164 L450.2253 356.6849 L451.8199 356.8235 L452.7918 357.4462 L452.7918 359.5224 L451.5462 360.6298 L451.1972 362.2214 L452.6467 364.5745 L454.3816 366.6508 L456.1115 367.8966 L457.0776 375.9935 L456.5893 400.4233 L456.7342 403.6761 L457.0776 407.4131 L473.2753 407.3441 L489.3326 406.8595 L503.7256 406.3059 L511.8244 406.1674 L513.3438 408.5204 L512.8552 410.8043 L510.7125 412.4652 L510.2986 413.711 L514.0419 414.0569 L516.7331 413.5724 L517.9141 409.7662 L518.3975 405.6831 L519.9929 404.2991 L521.1688 403.2608 L522.6185 402.5687 L522.6881 400.5618 L523.1017 399.3852 L522.4146 398.2086 L520.5402 398.2778 L519.0203 396.4786 L518.0483 393.5718 L518.6014 391.8418 L517.2911 389.4886 L516.0455 386.305 L512.7208 385.7515 L507.877 381.876 L506.7061 379.0386 L507.2534 376.8238 L508.7088 372.6024 L509.0531 370.5954 L507.7371 369.9033 L502.9627 369.3496 L502.2752 368.173 L502.2007 365.2664 L498.3984 362.9136 L493.5537 357.5154 L491.959 352.4633 L491.8189 349.5566 L492.0983 347.9649 Z " opacity="1" fill="#D3D3D3" fill-opacity="0.58" />
      <path d="M516.4586 414.0569 L513.8271 414.6799 L509.5366 414.3339 L510.0249 412.2577 L512.2325 410.389 L512.5817 408.7974 L511.3353 406.7211 L503.7256 407.0671 L489.3326 407.6901 L473.2056 408.1745 L456.9384 408.5204 L458.0447 413.2957 L458.0447 418.9708 L459.0165 426.5833 L459.1558 452.7433 L460.7513 454.0583 L462.8295 453.0893 L464.6931 453.8506 L464.9667 460.9789 L480.8151 460.9099 L493.8979 460.356 L500.8846 460.2176 L501.6526 458.7643 L501.4427 456.342 L500.1971 454.2658 L501.3033 453.2275 L500.1971 451.4977 L500.6805 449.7674 L501.6526 445.8919 L503.3815 444.4384 L502.8931 442.8466 L505.4549 439.1098 L507.3239 438.1407 L507.2534 437.1028 L507.0444 435.8568 L509.0531 431.9815 L510.7125 431.0818 L510.992 428.7288 L512.2325 427.8983 L512.8552 424.9915 L511.9637 422.2234 L514.7294 420.5624 L515.1481 419.1782 L515.975 416.2024 L516.4586 414.0569 Z " opacity="1" fill="#D3D3D3" fill-opacity="0.58" />
      <path d="M367.1816 398.5548 L359.7762 398.2087 L355.3453 397.8626 L355.5551 398.0012 L355.0667 405.1986 L370.2972 406.1674 L392.5088 407.0671 L390.919 423.9536 L390.5699 436.2722 L390.7101 437.3796 L393.6848 439.9402 L395.1401 440.7013 L395.6293 440.5631 L396.1071 439.1098 L397.0789 440.3553 L398.5295 440.3553 L398.5295 439.3864 L400.3978 440.3553 L400.0544 443.0545 L402.8955 443.1928 L404.6246 443.9543 L407.455 444.4384 L409.1898 445.6843 L410.7796 444.2309 L413.1314 444.7155 L414.8662 447.0684 L415.4841 447.0684 L415.4841 448.6601 L417.0787 449.1448 L418.6735 447.5529 L419.9199 448.0372 L421.644 448.0372 L422.2717 449.7674 L425.5905 451.0132 L426.5576 450.5288 L427.8089 447.6912 L428.566 447.6912 L429.3289 449.1448 L432.1643 449.6289 L434.7259 450.5979 L436.8041 451.2207 L438.0448 450.5979 L438.5339 448.8677 L441.5038 448.8677 L442.9641 449.4906 L444.8333 448.0372 L445.5904 448.0372 L446.0739 449.1448 L448.9149 449.1448 L450.0213 447.6912 L451.2668 448.0372 L452.7173 449.7674 L454.9347 451.0132 L457.1473 451.6361 L458.4633 452.3972 L458.1897 426.6527 L457.2177 419.0399 L457.0776 412.8806 L456.1115 408.382 L455.5576 403.3992 L455.4879 400.7693 L447.1154 400.9769 L415.0006 400.6308 L383.8626 399.1774 L367.1816 398.5548 Z " opacity="1" fill="#D3D3D3" fill-opacity="0.58" />
      <path d="M455.837 400.2849 L447.1154 400.4233 L415.2096 400.0775 L384.3404 398.624 L367.316 397.7244 L370.1571 352.9478 L385.2426 353.5013 L413.2708 354.4702 L443.7917 354.8164 L447.3194 354.8164 L449.5378 357.031 L451.4709 357.1693 L452.0994 357.9307 L452.0994 359.3148 L450.8481 360.4221 L450.5048 362.2214 L452.0297 364.713 L453.7589 366.8582 L455.4879 368.2424 L456.2508 375.9935 L455.837 400.2849 Z " opacity="1" fill="#D3D3D3" fill-opacity="0.58" />
      <path d="M524.2082 502.6408 L523.5207 500.8416 L522.7587 498.6962 L520.4756 496.2741 L521.0992 491.5681 L521.0237 490.8066 L520.1263 491.0146 L514.4501 491.6373 L497.1519 491.9833 L496.6635 490.3223 L497.2863 484.4401 L499.5742 480.3565 L503.0326 474.3357 L502.6193 472.6749 L503.5159 472.1902 L503.86 470.8064 L502.2752 469.3527 L502.2007 468.0378 L500.9543 465.062 L500.6108 460.9789 L493.8979 461.0479 L480.6112 461.6707 L465.2462 461.6707 L465.2462 468.3148 L465.7354 474.8199 L466.218 477.5192 L467.9479 480.3565 L468.565 483.8168 L471.5404 487.6233 L471.6797 489.838 L472.1632 490.3223 L471.6797 496.205 L469.6073 499.665 L470.7136 501.1187 L470.23 502.8487 L469.7466 507.9008 L468.7797 510.1154 L468.8444 512.6065 L472.0935 511.5687 L477.7061 511.3613 L484.8322 513.8527 L489.3326 514.6138 L491.8895 513.5756 L494.1019 514.3369 L496.3144 515.029 L496.8726 513.5756 L494.66 512.8141 L492.8555 513.1602 L490.9922 512.0531 C490.9922 512.0531 491.1265 511.1535 491.5452 511.0147 C491.959 510.8764 493.6882 510.3231 493.6882 510.3231 L494.9337 511.3613 L496.18 510.6689 L498.3984 511.0839 L499.4342 512.7452 L499.644 514.3369 L502.7538 514.5447 L504.0052 515.7903 L503.452 516.8972 L502.549 517.4512 L503.6561 518.5581 L509.4717 521.0499 L511.9637 520.1503 L512.6515 518.489 L514.4501 518.0739 L515.6964 517.0359 L516.5986 517.7278 L517.1519 519.7351 L515.5563 520.2888 L515.975 520.704 L518.3278 519.8042 L519.9222 517.4512 L520.4756 517.1052 L519.0203 516.8972 L519.5734 515.7903 L519.434 514.7521 L520.8894 514.406 L521.6523 513.5061 L522.0603 514.0601 C522.0603 514.0601 521.926 516.2055 522.4789 516.2055 C523.0323 516.2055 525.3841 516.6202 525.3841 516.6202 L528.1556 517.9357 L528.8479 518.9738 L530.8517 518.9738 L531.6146 519.6661 L533.2092 517.5204 L533.2092 516.482 L532.3071 516.482 L529.9494 514.6138 L525.9373 514.0601 L523.7247 512.4683 L524.4875 510.5995 L526.0775 510.8072 L526.2167 510.3921 L524.9713 509.7001 L524.9713 509.354 L527.1837 509.354 L528.4293 507.2083 L527.5328 505.8935 L527.3229 504.0252 L526.2863 504.1636 L524.9713 505.6171 L524.5573 507.416 L522.4146 507.0007 L521.7162 505.7552 L522.9625 504.4405 L524.3484 503.1948 L524.2082 502.6408 Z " opacity="1" fill="#D3D3D3" fill-opacity="0.58" />
      <path d="M681.1005 361.5986 L681.0308 360.2836 L685.5313 358.5534 L684.9723 360.7683 L682.9637 363.3979 L682.6902 366.5814 L683.0392 368.9345 L681.793 372.3948 L680.2678 373.7097 L679.2313 370.5263 L679.5106 366.7892 L680.6168 363.8824 L681.1005 361.5986 Z M682.6902 381.184 L642.4167 389.904 L616.5314 393.5719 L611.8966 393.2952 L610.0978 394.61 L605.0441 394.7484 L599.2335 395.4406 L593.0736 396.1327 L598.954 392.7415 L598.954 391.2881 L599.9907 389.8349 L607.3265 381.876 L610.0225 384.9904 L612.6539 385.6823 L614.3835 384.9211 L615.9086 384.0213 L617.6378 384.9211 L620.3395 383.9523 L621.6547 380.7688 L623.4542 381.1147 L625.4629 379.6616 L626.7084 380.0075 L628.6415 377.4469 L628.8464 375.9935 L628.1588 375.0938 L628.8464 373.7789 L632.5192 365.2666 L632.9378 361.3217 L633.7656 360.9759 L635.285 362.6368 L637.9867 362.4291 L639.2971 357.1693 L641.2358 356.7542 L641.934 354.8856 L643.7328 353.2938 L644.6243 351.702 L645.6658 349.349 L645.7364 345.8195 L652.5191 348.4492 C653.0025 348.6569 653.0025 345.1273 653.0025 345.1273 L655.8378 346.0963 L655.4938 347.8956 L661.171 349.9027 L662.0674 351.1484 L661.4447 353.7092 L660.5424 354.6088 L660.1932 355.7853 L660.5424 357.4462 L661.933 358.3458 L664.629 359.3148 L666.6375 360.0069 L670.0269 360.6298 L671.552 362.0829 L673.7645 362.3599 L674.3872 363.1904 L674.1136 366.443 L675.0797 367.2043 L674.7308 368.5193 L675.5632 369.0728 L675.424 370.0417 L673.5604 369.9727 L673.63 371.08 L675.2197 372.118 L675.2837 373.087 L676.535 374.3324 L676.8792 376.0625 L675.0797 377.0314 L676.186 378.0697 L680.2038 376.8931 L682.6902 381.184 Z " fill-rule="evenodd" opacity="1" fill="#D3D3D3" fill-opacity="0.58" />
      <g>
        <path d="M662.3468 350.9409 L661.5839 349.8334 L660.8915 349.2798 L661.6536 348.1724 L663.1738 349.2106 L662.3468 350.9409 Z " opacity="1" fill="#D3D3D3" fill-opacity="0.58" />
        <ellipse cx="662.0002" cy="349.5567" rx="3.461449" ry="3.460402" opacity="1" stroke="#FFFFFF" stroke-opacity="1" stroke-width="1.5" stroke-linecap="butt" stroke-linejoin="miter" stroke-dasharray="none" fill="#D3D3D3" fill-opacity="0.58" />
      </g>
    </g>
    <text x="584.8115" y="89.69063" font-size="36" fill="#000000" fill-opacity="1" font-family="Arial" font-weight="normal" font-style="normal">WorldWind</text>
    <text x="633.7959" y="142.2422" font-size="30" fill="#000000" fill-opacity="1" font-family="Arial" font-weight="normal" font-style="normal">OpenGL</text>
    <rect x="-162" y="36" width="216" height="720" opacity="1" stroke="#000000" stroke-opacity="1" stroke-width="1" stroke-linecap="butt" stroke-linejoin="miter" stroke-dasharray="none" fill="#FFFFFF" fill-opacity="1" filter="url(#shadow1)" />
    <rect x="-144" y="108" width="180" height="72" opacity="1" stroke="#000000" stroke-opacity="1" stroke-width="1" stroke-linecap="butt" stroke-linejoin="miter" stroke-dasharray="none" fill="#DDF5FF" fill-opacity="1" filter="url(#shadow1)" />
    <text x="-100.0234" y="152.6906" font-size="36" fill="#000000" fill-opacity="1" font-family="Arial" font-weight="bold" font-style="normal">Panel</text>
    <rect x="-144" y="216" width="180" height="72" opacity="1" stroke="#000000" stroke-opacity="1" stroke-width="1" stroke-linecap="butt" stroke-linejoin="miter" stroke-dasharray="none" fill="#DDF5FF" fill-opacity="1" filter="url(#shadow1)" />
    <rect x="-144" y="324" width="180" height="162" opacity="1" stroke="#000000" stroke-opacity="1" stroke-width="1" stroke-linecap="butt" stroke-linejoin="miter" stroke-dasharray="none" fill="#DDF5FF" fill-opacity="1" filter="url(#shadow1)" />
    <rect x="-144" y="522" width="180" height="72" opacity="1" stroke="#000000" stroke-opacity="1" stroke-width="1" stroke-linecap="butt" stroke-linejoin="miter" stroke-dasharray="none" fill="#DDF5FF" fill-opacity="1" filter="url(#shadow1)" />
    <text x="-124.3545" y="74.74219" font-size="30" fill="#000000" fill-opacity="1" font-family="Arial" font-weight="normal" font-style="normal">Swing</text>
    <rect x="-18" y="396" width="180" height="72" opacity="1" stroke="#000000" stroke-opacity="1" stroke-width="1" stroke-linecap="butt" stroke-linejoin="miter" stroke-dasharray="none" fill="#CDFFD3" fill-opacity="1" filter="url(#shadow1)" />
    <rect x="-36" y="378" width="180" height="72" opacity="1" stroke="#000000" stroke-opacity="1" stroke-width="1" stroke-linecap="butt" stroke-linejoin="miter" stroke-dasharray="none" fill="#CDFFD3" fill-opacity="1" filter="url(#shadow1)" />
    <rect x="-54" y="360" width="180" height="72" opacity="1" stroke="#000000" stroke-opacity="1" stroke-width="1" stroke-linecap="butt" stroke-linejoin="miter" stroke-dasharray="none" fill="#CDFFD3" fill-opacity="1" filter="url(#shadow1)" />
    <text x="-10.03223" y="404.6906" font-size="36" fill="#000000" fill-opacity="1" font-family="Arial" font-weight="bold" font-style="normal">Layer</text>
    <rect x="-342" y="396" width="162" height="72" opacity="1" stroke="#7F7F7F" stroke-opacity="1" stroke-width="1" stroke-linecap="butt" stroke-linejoin="miter" stroke-dasharray="none" fill="#CDFFD3" fill-opacity="1" filter="url(#shadow1)" />
    <rect x="-360" y="378" width="162" height="72" opacity="1" stroke="#7F7F7F" stroke-opacity="1" stroke-width="1" stroke-linecap="butt" stroke-linejoin="miter" stroke-dasharray="none" fill="#CDFFD3" fill-opacity="1" filter="url(#shadow1)" />
    <rect x="-378" y="360" width="162" height="72" opacity="1" stroke="#7F7F7F" stroke-opacity="1" stroke-width="1" stroke-linecap="butt" stroke-linejoin="miter" stroke-dasharray="none" fill="#CDFFD3" fill-opacity="1" filter="url(#shadow1)" />
    <text x="-367.5317" y="403.2422" font-size="30" fill="#616161" fill-opacity="1" font-family="Arial" font-weight="normal" font-style="normal">LayerActor</text>
    <g>
      <rect x="-449.9714" y="129.0129" width="17.85059" height="516.1089" opacity="1" stroke="#000000" stroke-opacity="1" stroke-width="1" stroke-linecap="butt" stroke-linejoin="miter" stroke-dasharray="none" fill="url(#gradient1)" />
      <ellipse cx="-441.0439" cy="128.6109" rx="8.956055" ry="2.610918" opacity="1" stroke="#000000" stroke-opacity="1" stroke-width="1" stroke-linecap="butt" stroke-linejoin="miter" stroke-dasharray="none" fill="#FFFFFF" fill-opacity="1" />
      <ellipse cx="-440.9572" cy="645.3889" rx="8.956055" ry="2.611038" opacity="1" stroke="#000000" stroke-opacity="1" stroke-width="1" stroke-linecap="butt" stroke-linejoin="miter" stroke-dasharray="none" fill="#FFFFFF" fill-opacity="1" />
      <rect x="-448.9124" y="639.5198" width="15.80273" height="5.704445" opacity="1" fill="url(#gradient2)" />
    </g>
    <line x1="-432" y1="396" x2="-396.9437" y2="396" marker-end="url(#marker1)" opacity="1" stroke="#000000" stroke-opacity="1" stroke-width="2" stroke-linecap="butt" stroke-linejoin="miter" stroke-dasharray="none" />
    <line x1="-207" y1="396" x2="-72.9437" y2="396" marker-end="url(#marker2)" opacity="1" stroke="#000000" stroke-opacity="1" stroke-width="2" stroke-linecap="butt" stroke-linejoin="miter" stroke-dasharray="none" />
    <line x1="135" y1="396" x2="273.5563" y2="396" marker-end="url(#marker3)" opacity="1" stroke="#000000" stroke-opacity="1" stroke-width="2" stroke-linecap="butt" stroke-linejoin="miter" stroke-dasharray="none" />
    <text x="-368.8472" y="326.7422" font-size="30" fill="#000000" fill-opacity="1" font-family="Arial" font-weight="normal" font-style="normal">Akka</text>
    <line x1="9.943691" y1="558" x2="134.0563" y2="558" marker-start="url(#marker4)" marker-end="url(#marker5)" opacity="1" stroke="#000000" stroke-opacity="1" stroke-width="2" stroke-linecap="butt" stroke-linejoin="miter" stroke-dasharray="none" />
    <text x="215.8057" y="371.7422" font-size="30" fill="#000000" fill-opacity="1" font-family="Arial" font-weight="normal" font-style="normal">data</text>
    <text x="130.7935" y="605.7422" font-size="30" fill="#000000" fill-opacity="1" font-family="Arial" font-weight="normal" font-style="normal">interaction</text>
  </g>
</svg>