<?xml version="1.0" encoding="utf-8"?><svg width="100%" height="100%" version="1.1" viewBox="192.3937 224 807.6063 281" style="background-color:#FFFFFF" xmlns:xlink="http://www.w3.org/1999/xlink" xmlns="http://www.w3.org/2000/svg"><defs><filter id="shadow1" width="150%" height="150%"><feGaussianBlur in="SourceAlpha" result="blur" stdDeviation="5" /><feOffset dx="2" dy="2" in="blur" result="offsetBlur" /><feMerge><feMergeNode in="offsetBlur" /><feMergeNode in="SourceGraphic" /></feMerge></filter></defs><marker id="marker1" markerUnits="strokeWidth" orient="auto" refX="-5.086271" refY="0" markerWidth="7.636236" markerHeight="6.114774" viewBox="-6.636236 -3.057387 7.636236 6.114774"><path d="M-5.636236 -2.057387 L0 0 L-5.636236 2.057387 Z " fill="#000000" fill-opacity="1" stroke="#000000" stroke-opacity="1" /></marker><marker id="marker2" markerUnits="strokeWidth" orient="auto" refX="-5.086271" refY="0" markerWidth="7.636236" markerHeight="6.114774" viewBox="-6.636236 -3.057387 7.636236 6.114774"><path d="M-5.636236 -2.057387 L0 0 L-5.636236 2.057387 Z " fill="#000000" fill-opacity="1" stroke="#000000" stroke-opacity="1" /></marker><marker id="marker3" markerUnits="strokeWidth" orient="auto" refX="-5.086271" refY="0" markerWidth="7.636236" markerHeight="6.114774" viewBox="-6.636236 -3.057387 7.636236 6.114774"><path d="M-5.636236 -2.057387 L0 0 L-5.636236 2.057387 Z " fill="#000000" fill-opacity="1" stroke="#000000" stroke-opacity="1" /></marker><marker id="marker4" markerUnits="strokeWidth" orient="auto" refX="5.086271" refY="0" markerWidth="7.636236" markerHeight="6.114774" viewBox="-1 -3.057387 7.636236 6.114774"><path d="M5.636236 2.057387 L0 0 L5.636236 -2.057387 Z " fill="#000000" fill-opacity="1" stroke="#000000" stroke-opacity="1" /></marker><marker id="marker5" markerUnits="strokeWidth" orient="auto" refX="-5.086271" refY="0" markerWidth="7.636236" markerHeight="6.114774" viewBox="-6.636236 -3.057387 7.636236 6.114774"><path d="M-5.636236 -2.057387 L0 0 L-5.636236 2.057387 Z " fill="#000000" fill-opacity="1" stroke="#000000" stroke-opacity="1" /></marker><marker id="marker6" markerUnits="strokeWidth" orient="auto" refX="5.086271" refY="0" markerWidth="7.636236" markerHeight="6.114774" viewBox="-1 -3.057387 7.636236 6.114774"><path d="M5.636236 2.057387 L0 0 L5.636236 -2.057387 Z " fill="#000000" fill-opacity="1" stroke="#000000" stroke-opacity="1" /></marker><marker id="marker7" markerUnits="strokeWidth" orient="auto" refX="-5.086271" refY="0" markerWidth="7.636236" markerHeight="6.114774" viewBox="-6.636236 -3.057387 7.636236 6.114774"><path d="M-5.636236 -2.057387 L0 0 L-5.636236 2.057387 Z " fill="#000000" fill-opacity="1" stroke="#000000" stroke-opacity="1" /></marker><marker id="marker8" markerUnits="strokeWidth" orient="auto" refX="5.086271" refY="0" markerWidth="7.636236" markerHeight="6.114774" viewBox="-1 -3.057387 7.636236 6.114774"><path d="M5.636236 2.057387 L0 0 L5.636236 -2.057387 Z " fill="#000000" fill-opacity="1" stroke="#000000" stroke-opacity="1" /></marker><marker id="marker9" markerUnits="strokeWidth" orient="auto" refX="-5.086271" refY="0" markerWidth="7.636236" markerHeight="6.114774" viewBox="-6.636236 -3.057387 7.636236 6.114774"><path d="M-5.636236 -2.057387 L0 0 L-5.636236 2.057387 Z " fill="#000000" fill-opacity="1" stroke="#000000" stroke-opacity="1" /></marker><marker id="marker10" markerUnits="strokeWidth" orient="auto" refX="5.086271" refY="0" markerWidth="7.636236" markerHeight="6.114774" viewBox="-1 -3.057387 7.636236 6.114774"><path d="M5.636236 2.057387 L0 0 L5.636236 -2.057387 Z " fill="#000000" fill-opacity="1" stroke="#000000" stroke-opacity="1" /></marker><marker id="marker11" markerUnits="strokeWidth" orient="auto" refX="-5.086271" refY="0" markerWidth="7.636236" markerHeight="6.114774" viewBox="-6.636236 -3.057387 7.636236 6.114774"><path d="M-5.636236 -2.057387 L0 0 L-5.636236 2.057387 Z " fill="#000000" fill-opacity="1" stroke="#000000" stroke-opacity="1" /></marker><marker id="marker12" markerUnits="strokeWidth" orient="auto" refX="-5.086271" refY="0" markerWidth="7.636236" markerHeight="6.114774" viewBox="-6.636236 -3.057387 7.636236 6.114774"><path d="M-5.636236 -2.057387 L0 0 L-5.636236 2.057387 Z " fill="#000000" fill-opacity="1" stroke="#000000" stroke-opacity="1" /></marker><marker id="marker13" markerUnits="strokeWidth" orient="auto" refX="-5.086271" refY="0" markerWidth="7.636236" markerHeight="6.114774" viewBox="-6.636236 -3.057387 7.636236 6.114774"><path d="M-5.636236 -2.057387 L0 0 L-5.636236 2.057387 Z " fill="#000000" fill-opacity="1" stroke="#000000" stroke-opacity="1" /></marker><g id="layer1"><g><rect x="217.7204" y="275.3577" width="50.4865" height="32.52468" opacity="1" stroke="#000000" stroke-opacity="1" stroke-width="1" stroke-linecap="butt" stroke-linejoin="miter" stroke-dasharray="none" fill="#FFFFFF" fill-opacity="1" filter="url(#shadow1)" /><path d="M223.2069 291.3889 C237.8319 276.7639 247.5819 276.7639 262.2069 291.3889" opacity="1" stroke="#000000" stroke-opacity="1" stroke-width="1" stroke-linecap="butt" stroke-linejoin="miter" stroke-dasharray="none" fill-opacity="0" /><path d="M223.2069 291.3889 C237.8319 306.0139 247.5819 306.0139 262.2069 291.3889" opacity="1" stroke="#000000" stroke-opacity="1" stroke-width="1" stroke-linecap="butt" stroke-linejoin="miter" stroke-dasharray="none" fill-opacity="0" /><ellipse cx="242.7069" cy="291.3889" rx="4.875001" ry="4.874994" opacity="1" stroke="#000000" stroke-opacity="1" stroke-width="1" stroke-linecap="butt" stroke-linejoin="miter" stroke-dasharray="none" fill="#FFFFFF" fill-opacity="1" /></g><rect x="374.0957" y="315.1121" width="99" height="54" opacity="1" stroke="#000000" stroke-opacity="1" stroke-width="1" stroke-linecap="butt" stroke-linejoin="miter" stroke-dasharray="none" fill="#FFFFFF" fill-opacity="1" filter="url(#shadow1)" /><text x="401.9912" y="340.1457" font-size="12" fill="#000000" fill-opacity="1" font-family="Arial" font-weight="normal" font-style="normal">Delphire
</text><text x="407.8945" y="355.1457" font-size="12" fill="#000000" fill-opacity="1" font-family="Arial" font-weight="normal" font-style="normal">server</text><rect x="574.3458" y="234" width="316.6542" height="261" opacity="1" stroke="#000000" stroke-opacity="1" stroke-width="1" stroke-linecap="butt" stroke-linejoin="miter" stroke-dasharray="none" fill="#FCFBC3" fill-opacity="1" filter="url(#shadow1)" /><text x="691.5005" y="252.7859" font-size="17" fill="#000000" fill-opacity="1" font-family="Arial" font-weight="normal" font-style="normal">ODIN Node
</text><g><rect x="244.2419" y="323.0405" width="50.4865" height="32.52468" opacity="1" stroke="#000000" stroke-opacity="1" stroke-width="1" stroke-linecap="butt" stroke-linejoin="miter" stroke-dasharray="none" fill="#FFFFFF" fill-opacity="1" filter="url(#shadow1)" /><path d="M249.7283 339.0718 C264.3533 324.4468 274.1034 324.4468 288.7282 339.0718" opacity="1" stroke="#000000" stroke-opacity="1" stroke-width="1" stroke-linecap="butt" stroke-linejoin="miter" stroke-dasharray="none" fill-opacity="0" /><path d="M249.7283 339.0718 C264.3533 353.6968 274.1034 353.6968 288.7282 339.0718" opacity="1" stroke="#000000" stroke-opacity="1" stroke-width="1" stroke-linecap="butt" stroke-linejoin="miter" stroke-dasharray="none" fill-opacity="0" /><ellipse cx="269.2283" cy="339.0718" rx="4.875001" ry="4.874994" opacity="1" stroke="#000000" stroke-opacity="1" stroke-width="1" stroke-linecap="butt" stroke-linejoin="miter" stroke-dasharray="none" fill="#FFFFFF" fill-opacity="1" /></g><g><rect x="202.3937" y="365.3408" width="50.4865" height="32.52468" opacity="1" stroke="#000000" stroke-opacity="1" stroke-width="1" stroke-linecap="butt" stroke-linejoin="miter" stroke-dasharray="none" fill="#FFFFFF" fill-opacity="1" filter="url(#shadow1)" /><path d="M207.8803 381.372 C222.5053 366.747 232.2553 366.747 246.8801 381.372" opacity="1" stroke="#000000" stroke-opacity="1" stroke-width="1" stroke-linecap="butt" stroke-linejoin="miter" stroke-dasharray="none" fill-opacity="0" /><path d="M207.8803 381.372 C222.5053 395.997 232.2553 395.997 246.8801 381.372" opacity="1" stroke="#000000" stroke-opacity="1" stroke-width="1" stroke-linecap="butt" stroke-linejoin="miter" stroke-dasharray="none" fill-opacity="0" /><ellipse cx="227.3803" cy="381.372" rx="4.875001" ry="4.874994" opacity="1" stroke="#000000" stroke-opacity="1" stroke-width="1" stroke-linecap="butt" stroke-linejoin="miter" stroke-dasharray="none" fill="#FFFFFF" fill-opacity="1" /></g><line x1="268.2069" y1="298.6763" x2="368.2341" y2="326.6369" marker-end="url(#marker1)" opacity="1" stroke="#000000" stroke-opacity="1" stroke-width="1" stroke-linecap="butt" stroke-linejoin="miter" stroke-dasharray="none" /><line x1="294.7283" y1="339.763" x2="368.0104" y2="341.0988" marker-end="url(#marker2)" opacity="1" stroke="#000000" stroke-opacity="1" stroke-width="1" stroke-linecap="butt" stroke-linejoin="miter" stroke-dasharray="none" /><line x1="252.8802" y1="376.516" x2="368.1293" y2="353.2901" marker-end="url(#marker3)" opacity="1" stroke="#000000" stroke-opacity="1" stroke-width="1" stroke-linecap="butt" stroke-linejoin="miter" stroke-dasharray="none" /><rect x="599.0956" y="324.1121" width="66.90434" height="35.8879" opacity="1" stroke="#000000" stroke-opacity="1" stroke-width="1" stroke-linecap="butt" stroke-linejoin="miter" stroke-dasharray="none" fill="#FED7CE" fill-opacity="1" filter="url(#shadow1)" /><text x="615.9971" y="340.0897" font-size="12" fill="#000000" fill-opacity="1" font-family="Arial" font-weight="normal" font-style="normal">import
</text><text x="619.8555" y="355.0896" font-size="12" fill="#000000" fill-opacity="1" font-family="Arial" font-weight="normal" font-style="normal">actor</text><rect x="599.0956" y="378.1121" width="66.90434" height="35.8879" opacity="1" stroke="#000000" stroke-opacity="1" stroke-width="1" stroke-linecap="butt" stroke-linejoin="miter" stroke-dasharray="none" fill="#FED7CE" fill-opacity="1" filter="url(#shadow1)" /><text x="614.1074" y="394.0897" font-size="12" fill="#000000" fill-opacity="1" font-family="Arial" font-weight="normal" font-style="normal">archive
</text><text x="619.8555" y="409.0896" font-size="12" fill="#000000" fill-opacity="1" font-family="Arial" font-weight="normal" font-style="normal">actor</text><rect x="599.0956" y="432.1121" width="66.90434" height="35.8879" opacity="1" stroke="#000000" stroke-opacity="1" stroke-width="1" stroke-linecap="butt" stroke-linejoin="miter" stroke-dasharray="none" fill="#FED7CE" fill-opacity="1" filter="url(#shadow1)" /><text x="617.292" y="448.0897" font-size="12" fill="#000000" fill-opacity="1" font-family="Arial" font-weight="normal" font-style="normal">replay
</text><text x="619.8555" y="463.0896" font-size="12" fill="#000000" fill-opacity="1" font-family="Arial" font-weight="normal" font-style="normal">actor</text><line x1="479.1819" y1="342.0972" x2="593.0094" y2="342.0667" marker-start="url(#marker4)" marker-end="url(#marker5)" opacity="1" stroke="#000000" stroke-opacity="1" stroke-width="1" stroke-linecap="butt" stroke-linejoin="miter" stroke-dasharray="none" /><line x1="711" y1="306" x2="711" y2="477" opacity="1" stroke="#000000" stroke-opacity="1" stroke-width="4" stroke-linecap="butt" stroke-linejoin="miter" stroke-dasharray="none" /><line x1="666" y1="342" x2="711" y2="342" opacity="1" stroke="#000000" stroke-opacity="1" stroke-width="1" stroke-linecap="butt" stroke-linejoin="miter" stroke-dasharray="none" /><line x1="666" y1="396" x2="711" y2="396" opacity="1" stroke="#000000" stroke-opacity="1" stroke-width="1" stroke-linecap="butt" stroke-linejoin="miter" stroke-dasharray="none" /><line x1="666" y1="450" x2="711" y2="450" opacity="1" stroke="#000000" stroke-opacity="1" stroke-width="1" stroke-linecap="butt" stroke-linejoin="miter" stroke-dasharray="none" /><rect x="756" y="324.1121" width="99" height="71.88786" opacity="1" stroke="#000000" stroke-opacity="1" stroke-width="1" stroke-linecap="butt" stroke-linejoin="miter" stroke-dasharray="none" fill="#FFFFFF" fill-opacity="1" filter="url(#shadow1)" /><text x="760.2617" y="339.8434" font-size="12" fill="#000000" fill-opacity="1" font-family="Arial" font-weight="normal" font-style="normal">HttpServer actor</text><rect x="773.3174" y="351.1121" width="64.3658" height="35.8879" opacity="1" stroke="#000000" stroke-opacity="1" stroke-width="1" stroke-linecap="butt" stroke-linejoin="miter" stroke-dasharray="none" fill="#FED7CE" fill-opacity="1" filter="url(#shadow1)" /><text x="784.6399" y="367.0897" font-size="12" fill="#000000" fill-opacity="1" font-family="Arial" font-weight="normal" font-style="normal">Sentinel
</text><text x="791.0588" y="382.0896" font-size="12" fill="#000000" fill-opacity="1" font-family="Arial" font-weight="normal" font-style="normal">Route</text><line x1="711" y1="369" x2="774" y2="369" opacity="1" stroke="#000000" stroke-opacity="1" stroke-width="1" stroke-linecap="butt" stroke-linejoin="miter" stroke-dasharray="none" /><g><g><path d="M986.5548 360.0001 L987.5981 361.3481 L984.7808 376.7852 L983.4919 375.9881 Z " opacity="1" fill="#02709F" fill-opacity="1" /><path d="M986.5548 360.0001 L987.5981 361.3481 L984.7808 376.7852 L983.4919 375.9881 Z " opacity="1" stroke="#FFFFFF" stroke-opacity="1" stroke-width="0.39999" stroke-linecap="butt" stroke-linejoin="miter" stroke-dasharray="none" fill-opacity="0" /><path d="M956.4221 375.9881 L957.5856 376.7852 L984.7808 376.7852 L983.4919 375.9881 Z " opacity="1" fill="#000000" fill-opacity="1" /><path d="M956.4221 375.9881 L957.5856 376.7852 L984.7808 376.7852 L983.4919 375.9881 Z " opacity="1" stroke="#FFFFFF" stroke-opacity="1" stroke-width="0.2" stroke-linecap="butt" stroke-linejoin="miter" stroke-dasharray="none" fill-opacity="0" /><path d="M983.7374 377.242 L983.7374 379.9692 L983.0347 380.5819 C983.0347 380.5819 981.3788 381.0708 981.7459 382.0507 L974.3666 388.9138 L974.3666 385.9106 Z " opacity="1" fill="#02709F" fill-opacity="1" /><path d="M983.7374 377.242 L983.7374 379.9692 L983.0347 380.5819 C983.0347 380.5819 981.3788 381.0708 981.7459 382.0507 L974.3666 388.9138 L974.3666 385.9106 Z " opacity="1" stroke="#FFFFFF" stroke-opacity="1" stroke-width="0.39999" stroke-linecap="butt" stroke-linejoin="miter" stroke-dasharray="none" fill-opacity="0" /><path d="M945 385.9106 L945 388.9138 L974.3666 388.9138 L974.3666 385.9106 Z " opacity="1" fill="#02709F" fill-opacity="1" /><path d="M945 385.9106 L945 388.9138 L974.3666 388.9138 L974.3666 385.9106 Z " opacity="1" stroke="#FFFFFF" stroke-opacity="1" stroke-width="0.39999" stroke-linecap="butt" stroke-linejoin="miter" stroke-dasharray="none" fill-opacity="0" /><path d="M956.731 377.4261 L983.7374 377.242 L974.3666 385.9106 L945 385.9106 Z " opacity="1" fill="#02709F" fill-opacity="1" /><path d="M956.731 377.4261 L983.7374 377.242 L974.3666 385.9106 L945 385.9106 Z " opacity="1" stroke="#FFFFFF" stroke-opacity="1" stroke-width="0.39999" stroke-linecap="butt" stroke-linejoin="miter" stroke-dasharray="none" fill-opacity="0" /><path d="M983.4919 375.9881 L986.5548 360.0001 L959.9141 360.0001 L956.4221 375.9881 Z " opacity="1" fill="#02709F" fill-opacity="1" /><path d="M983.4919 375.9881 L986.5548 360.0001 L959.9141 360.0001 L956.4221 375.9881 Z " opacity="1" stroke="#FFFFFF" stroke-opacity="1" stroke-width="0.39999" stroke-linecap="butt" stroke-linejoin="miter" stroke-dasharray="none" fill-opacity="0" /><path d="M981.2347 374.1991 L983.5941 362.1951 L961.9301 362.1951 L959.5706 374.1991 Z " opacity="1" fill="#02709F" fill-opacity="1" /><path d="M981.2347 374.1991 L983.5941 362.1951 L961.9301 362.1951 L959.5706 374.1991 Z " opacity="1" stroke="#FFFFFF" stroke-opacity="1" stroke-width="0.39999" stroke-linecap="butt" stroke-linejoin="miter" stroke-dasharray="none" fill-opacity="0" /><line x1="957.3638" y1="377.6212" x2="950.5505" y2="383.1213" opacity="1" stroke="#FFFFFF" stroke-opacity="1" stroke-width="0.10001" stroke-linecap="butt" stroke-linejoin="miter" stroke-dasharray="none" /><line x1="959.5505" y1="377.6212" x2="952.7386" y2="383.1213" opacity="1" stroke="#FFFFFF" stroke-opacity="1" stroke-width="0.10001" stroke-linecap="butt" stroke-linejoin="miter" stroke-dasharray="none" /><line x1="961.7378" y1="377.6212" x2="954.926" y2="383.1213" opacity="1" stroke="#FFFFFF" stroke-opacity="1" stroke-width="0.10001" stroke-linecap="butt" stroke-linejoin="miter" stroke-dasharray="none" /><line x1="963.926" y1="377.6212" x2="957.114" y2="383.1213" opacity="1" stroke="#FFFFFF" stroke-opacity="1" stroke-width="0.10001" stroke-linecap="butt" stroke-linejoin="miter" stroke-dasharray="none" /><line x1="966.1125" y1="377.6212" x2="959.3007" y2="383.1213" opacity="1" stroke="#FFFFFF" stroke-opacity="1" stroke-width="0.10001" stroke-linecap="butt" stroke-linejoin="miter" stroke-dasharray="none" /><line x1="968.3007" y1="377.6212" x2="961.488" y2="383.1213" opacity="1" stroke="#FFFFFF" stroke-opacity="1" stroke-width="0.10001" stroke-linecap="butt" stroke-linejoin="miter" stroke-dasharray="none" /><line x1="970.488" y1="377.6212" x2="963.6761" y2="383.1213" opacity="1" stroke="#FFFFFF" stroke-opacity="1" stroke-width="0.10001" stroke-linecap="butt" stroke-linejoin="miter" stroke-dasharray="none" /><line x1="972.6761" y1="377.6212" x2="965.8627" y2="383.1213" opacity="1" stroke="#FFFFFF" stroke-opacity="1" stroke-width="0.10001" stroke-linecap="butt" stroke-linejoin="miter" stroke-dasharray="none" /><line x1="974.8627" y1="377.6212" x2="968.0508" y2="383.1213" opacity="1" stroke="#FFFFFF" stroke-opacity="1" stroke-width="0.10001" stroke-linecap="butt" stroke-linejoin="miter" stroke-dasharray="none" /><line x1="977.0508" y1="377.6212" x2="970.2374" y2="383.1213" opacity="1" stroke="#FFFFFF" stroke-opacity="1" stroke-width="0.10001" stroke-linecap="butt" stroke-linejoin="miter" stroke-dasharray="none" /><line x1="979.2374" y1="377.6212" x2="972.4255" y2="383.1213" opacity="1" stroke="#FFFFFF" stroke-opacity="1" stroke-width="0.10001" stroke-linecap="butt" stroke-linejoin="miter" stroke-dasharray="none" /><line x1="981.4255" y1="377.6212" x2="974.6129" y2="383.1213" opacity="1" stroke="#FFFFFF" stroke-opacity="1" stroke-width="0.10001" stroke-linecap="butt" stroke-linejoin="miter" stroke-dasharray="none" /><line x1="951.3123" y1="382.5389" x2="975.5626" y2="382.5389" opacity="1" stroke="#FFFFFF" stroke-opacity="1" stroke-width="0.10001" stroke-linecap="butt" stroke-linejoin="miter" stroke-dasharray="none" /><line x1="952.9452" y1="381.281" x2="976.8212" y2="381.281" opacity="1" stroke="#FFFFFF" stroke-opacity="1" stroke-width="0.10001" stroke-linecap="butt" stroke-linejoin="miter" stroke-dasharray="none" /><line x1="954.6365" y1="380.0196" x2="978.449" y2="380.0196" opacity="1" stroke="#FFFFFF" stroke-opacity="1" stroke-width="0.10001" stroke-linecap="butt" stroke-linejoin="miter" stroke-dasharray="none" /><line x1="956.1406" y1="378.7581" x2="980.1447" y2="378.7581" opacity="1" stroke="#FFFFFF" stroke-opacity="1" stroke-width="0.10001" stroke-linecap="butt" stroke-linejoin="miter" stroke-dasharray="none" /></g></g><g><g><path d="M971.4139 408.3854 L971.4435 408.3365 L971.4715 408.2904 L971.4981 408.2451 L971.5255 408.2011 L971.55 408.1601 L971.5752 408.1198 L971.5989 408.0809 L971.622 408.0442 L971.6443 408.0081 L971.666 407.9743 L971.6875 407.9412 L971.7069 407.9095 L971.7264 407.8793 L971.7451 407.8505 L971.7631 407.8224 L971.7811 407.7965 L971.7984 407.7705 L971.8143 407.7461 L971.8301 407.7223 L971.8452 407.7 L971.874 407.6582 L971.9013 407.6201 L971.9273 407.5855 L971.9503 407.5524 L971.9734 407.5236 L971.9943 407.4962 L972.0144 407.4703 L972.0331 407.4458 L972.0511 407.4242 L972.0692 407.4034 L972.1029 407.3623 L972.1375 407.3213 L972.1541 407.299 L972.1714 407.2774 L972.1894 407.2543 L972.2081 407.2291 L972.2275 407.2025 L972.2484 407.1737 L972.27 407.142 L972.2931 407.1075 C974.8015 403.3073 977.359 405.1461 975.6252 408.6742 C974.1909 411.5923 974.0434 411.7831 973.4882 412.7522 C972.5155 414.4514 971.5313 416.3184 970.8444 417.6706" opacity="1" stroke="#000000" stroke-opacity="1" stroke-width="0.4" stroke-linecap="butt" stroke-linejoin="miter" stroke-dasharray="none" fill-opacity="0" /><path d="M973.9145 412.0999 L974.0319 411.9286 L974.1513 411.7644 L974.2694 411.6082 L974.3861 411.4605 L974.5034 411.3194 L974.6201 411.1862 L974.736 411.0609 L974.8512 410.9436 L974.965 410.8327 L975.078 410.729 L975.1903 410.6333 L975.3012 410.544 L975.4114 410.4619 L975.5193 410.3863 L975.6259 410.3179 L975.7325 410.256 L975.8362 410.2013 L975.9384 410.153 L976.0392 410.1113 L976.1371 410.0753 L976.2343 410.0465 L976.3293 410.0234 L976.4222 410.0062 L976.5122 409.9954 L976.6001 409.9911 L976.6865 409.9925 L976.7693 409.9982 L976.8499 410.0112 L976.9284 410.0292 L977.004 410.0529 L977.076 410.0825 L977.1465 410.1163 L977.212 410.1559 L977.2762 410.2013 L977.3359 410.2509 L977.3936 410.3064 L977.4475 410.3662 L977.4979 410.4302 L977.5439 410.5001 L977.5872 410.5742 L977.6276 410.6534 L977.6635 410.7362 L977.6945 410.8241 L977.7226 410.9162 L977.7463 411.012 L977.765 411.1121 L977.7809 411.2172 L977.791 411.3252 L977.7982 411.4375 L977.8003 411.5534 L977.7974 411.6737 L977.7902 411.7975 L977.778 411.9242 L977.7614 412.0546 L977.7391 412.1885 L977.7125 412.3253 L977.6801 412.465 L977.6433 412.6082 L977.6002 412.7551 L977.5519 412.9041 L977.4993 413.0561 L977.4403 413.2109 L977.3755 413.3693 L977.3043 413.5291 C975.9694 416.4753 975.613 416.592 975.1255 417.6274 C974.2219 419.5491 974.5042 419.2445 973.8159 420.6003" opacity="1" stroke="#000000" stroke-opacity="1" stroke-width="0.4" stroke-linecap="butt" stroke-linejoin="miter" stroke-dasharray="none" fill-opacity="0" /><path d="M968.7931 412.9322 L968.8564 412.8502 L968.9155 412.7731 L968.9709 412.6982 L969.025 412.6262 L969.125 412.4851 L969.2194 412.3469 L969.3101 412.205 L969.4016 412.0553 L969.4483 411.9753 L969.4966 411.8925 L969.5463 411.804 L969.5981 411.7111 L969.6521 411.6132 L969.7104 411.5081 L969.7709 411.3965 L969.835 411.2762 L969.9041 411.1495 L969.9775 411.012 L970.056 410.8673 L970.1395 410.711 L970.2296 410.544 L970.2763 410.4569 L970.3239 410.3662 L970.3742 410.2733 L970.4261 410.1775 L970.4801 410.0774 L970.5362 409.9752 L970.5931 409.8694 L970.6522 409.7599 L970.7134 409.6469 L970.7774 409.531 L970.8422 409.4115 L970.9092 409.2869 L970.979 409.1602 L971.051 409.0291 C973.008 405.4637 970.2583 403.7213 967.6951 407.4206 C964.9843 411.3381 964.2974 412.4592 962.7934 414.1973 C961.285 415.9353 958.4806 422.717 956.7115 424.5573 C955.535 425.7828 957.199 420.9826 957.0471 419.58 C956.7224 416.5452 956.6445 416.8922 956.2975 415.8223 C955.9455 414.756 953.7775 412.8574 953.3203 414.5026 C953.0856 415.3536 953.1951 415.381 953.3671 416.3501 C953.4572 416.8461 953.1014 416.7014 953.2029 419.0839 C953.262 420.4325 951.1013 424.4436 950.449 426.2321 C949.0623 430.025 950.5937 430.2252 950.0234 433.381 C949.4021 436.842 950.1329 436.1234 949.5115 437.5995 C948.8865 439.0762 945.3478 444.7598 945 445.6699" opacity="1" stroke="#000000" stroke-opacity="1" stroke-width="0.4" stroke-linecap="butt" stroke-linejoin="miter" stroke-dasharray="none" fill-opacity="0" /><path d="M957.785 426.2364 C959.855 427.4121 957.937 433.7993 957.937 433.7993" opacity="1" stroke="#000000" stroke-opacity="1" stroke-width="0.4" stroke-linecap="butt" stroke-linejoin="miter" stroke-dasharray="none" fill-opacity="0" /><path d="M956.8015 425.7792 C956.312 425.1586 956.2975 424.7482 956.2975 424.7482" opacity="1" stroke="#000000" stroke-opacity="1" stroke-width="0.4" stroke-linecap="butt" stroke-linejoin="miter" stroke-dasharray="none" fill-opacity="0" /><path d="M950.5584 430.8141 L966.3862 430.8141 L976.5511 412.1935 L961.4959 412.1935 Z " opacity="1" fill="#00AAD7" fill-opacity="1" /><path d="M950.5584 430.8141 L966.3862 430.8141 L976.5511 412.1935 L961.4959 412.1935 Z " opacity="1" stroke="#FFFFFF" stroke-opacity="1" stroke-width="0.4" stroke-linecap="butt" stroke-linejoin="miter" stroke-dasharray="none" fill-opacity="0" /><path d="M950.5584 430.8141 L950.5584 433.8922 L966.3862 433.8922 L966.3862 430.8141 Z " opacity="1" fill="#00AAD7" fill-opacity="1" /><path d="M950.5584 433.8922 L966.3862 433.8922 L966.3862 430.8141 L950.5584 430.8141 Z " opacity="1" stroke="#FFFFFF" stroke-opacity="1" stroke-width="0.4" stroke-linecap="butt" stroke-linejoin="miter" stroke-dasharray="none" fill-opacity="0" /><path d="M976.5511 412.1935 L976.5511 415.08 L966.3862 433.8922 L966.3862 430.8141 Z " opacity="1" fill="#00AAD7" fill-opacity="1" /><path d="M976.5511 412.1935 L976.5511 415.08 L966.3862 433.8922 L966.3862 430.8141 Z " opacity="1" stroke="#FFFFFF" stroke-opacity="1" stroke-width="0.4" stroke-linecap="butt" stroke-linejoin="miter" stroke-dasharray="none" fill-opacity="0" /><path d="M973.8979 414.072 L967.2034 426.5251 L954.8475 426.5251 L962.0662 414.072 Z " opacity="1" fill="#FFFFFF" fill-opacity="1" /><path d="M973.8979 414.072 L967.2034 426.5251 L954.8475 426.5251 L962.0662 414.072 Z " opacity="1" stroke="#FFFFFF" stroke-opacity="1" stroke-width="0.1926" stroke-linecap="butt" stroke-linejoin="miter" stroke-dasharray="none" fill-opacity="0" /><path d="M955.4652 428.2524 L954.7264 429.611 L953.3088 429.611 L954.0936 428.2524 Z " opacity="1" fill="#FFFFFF" fill-opacity="1" /><path d="M955.4652 428.2524 L954.7264 429.611 L953.3088 429.611 L954.0936 428.2524 Z " opacity="1" stroke="#FFFFFF" stroke-opacity="1" stroke-width="0.1926" stroke-linecap="butt" stroke-linejoin="miter" stroke-dasharray="none" fill-opacity="0" /><path d="M966.41 428.2524 L965.6719 429.611 L964.2542 429.611 L965.0391 428.2524 Z " opacity="1" fill="#FFFFFF" fill-opacity="1" /><path d="M966.41 428.2524 L965.6719 429.611 L964.2542 429.611 L965.0391 428.2524 Z " opacity="1" stroke="#FFFFFF" stroke-opacity="1" stroke-width="0.1926" stroke-linecap="butt" stroke-linejoin="miter" stroke-dasharray="none" fill-opacity="0" /><path d="M963.679 428.2524 L962.9409 429.611 L961.5269 429.611 L962.308 428.2524 Z " opacity="1" fill="#FFFFFF" fill-opacity="1" /><path d="M963.679 428.2524 L962.9409 429.611 L961.5269 429.611 L962.308 428.2524 Z " opacity="1" stroke="#FFFFFF" stroke-opacity="1" stroke-width="0.1926" stroke-linecap="butt" stroke-linejoin="miter" stroke-dasharray="none" fill-opacity="0" /><path d="M960.8198 428.2524 L960.0862 429.611 L958.6685 429.611 L959.4532 428.2524 Z " opacity="1" fill="#FFFFFF" fill-opacity="1" /><path d="M960.8198 428.2524 L960.0862 429.611 L958.6685 429.611 L959.4532 428.2524 Z " opacity="1" stroke="#FFFFFF" stroke-opacity="1" stroke-width="0.1926" stroke-linecap="butt" stroke-linejoin="miter" stroke-dasharray="none" fill-opacity="0" /><path d="M958.117 428.2524 L957.379 429.611 L955.9649 429.611 L956.7461 428.2524 Z " opacity="1" fill="#FFFFFF" fill-opacity="1" /><path d="M958.117 428.2524 L957.379 429.611 L955.9649 429.611 L956.7461 428.2524 Z " opacity="1" stroke="#FFFFFF" stroke-opacity="1" stroke-width="0.1926" stroke-linecap="butt" stroke-linejoin="miter" stroke-dasharray="none" fill-opacity="0" /><path d="M955.9764 450.9626 L956.0211 450.8943 L956.07 450.8187 L956.124 450.7366 L956.183 450.648 L956.2465 450.5522 L956.3134 450.4514 L956.4595 450.2318 L956.6193 449.9921 L956.7928 449.7329 L956.9794 449.4571 L957.1752 449.167 L957.3811 448.8631 L957.5942 448.5492 L957.8153 448.2274 L958.0399 447.8983 L958.5015 447.2287 L958.9673 446.5584 L959.1992 446.2279 L959.4274 445.9025 L959.652 445.5857 L959.8709 445.2783 L960.0833 444.983 L960.287 444.7015 L960.4821 444.4366 L960.6665 444.1896 L960.8378 443.9628 L960.9962 443.7576 L961.069 443.6647 L961.1395 443.5776 L961.205 443.4969 L961.2662 443.4235 L961.3231 443.3566 L961.3764 443.2975 L961.4232 443.2464 L961.4664 443.2025 L961.5046 443.1665 L961.537 443.1398 L961.5643 443.1211 L961.5859 443.111 C966.0391 441.8964 971.1209 431.9899 973.5005 429.1035 C974.0189 428.4756 974.4653 427.248 974.6914 426.6706 C974.8015 426.389 975.808 424.2643 976.3711 423.2599 L977.269 419.1826 L977.4144 415.5999 C977.4144 415.5999 976.0003 412.2014 975.1874 416.5603 L974.6129 419.3611 C974.3472 419.7989 973.3672 421.236 973.1131 421.8574 C972.859 422.478 971.3239 424.3925 971.3362 425.4552" opacity="1" fill="#FFFFFF" fill-opacity="1" /><path d="M955.9764 450.9626 L956.0211 450.8943 L956.07 450.8187 L956.124 450.7366 L956.183 450.648 L956.2465 450.5522 L956.3134 450.4514 L956.4595 450.2318 L956.6193 449.9921 L956.7928 449.7329 L956.9794 449.4571 L957.1752 449.167 L957.3811 448.8631 L957.5942 448.5492 L957.8153 448.2274 L958.0399 447.8983 L958.5015 447.2287 L958.9673 446.5584 L959.1992 446.2279 L959.4274 445.9025 L959.652 445.5857 L959.8709 445.2783 L960.0833 444.983 L960.287 444.7015 L960.4821 444.4366 L960.6665 444.1896 L960.8378 443.9628 L960.9962 443.7576 L961.069 443.6647 L961.1395 443.5776 L961.205 443.4969 L961.2662 443.4235 L961.3231 443.3566 L961.3764 443.2975 L961.4232 443.2464 L961.4664 443.2025 L961.5046 443.1665 L961.537 443.1398 L961.5643 443.1211 L961.5859 443.111 C966.0391 441.8964 971.1209 431.9899 973.5005 429.1035 C974.0189 428.4756 974.4653 427.248 974.6914 426.6706 C974.8015 426.389 975.808 424.2643 976.3711 423.2599 L977.269 419.1826 L977.4144 415.5999 C977.4144 415.5999 976.0003 412.2014 975.1874 416.5603 L974.6129 419.3611 C974.3472 419.7989 973.3672 421.236 973.1131 421.8574 C972.859 422.478 971.3239 424.3925 971.3362 425.4552" opacity="1" stroke="#000000" stroke-opacity="1" stroke-width="0.4" stroke-linecap="butt" stroke-linejoin="miter" stroke-dasharray="none" fill-opacity="0" /></g></g><g><g><path d="M984.5683 336.8584 L984.5892 336.8302 L984.6064 336.8019 L984.6187 336.7729 L984.6259 336.7439 L984.631 336.7147 L984.631 336.6851 L984.6281 336.6553 L984.6209 336.6252 L984.6122 336.595 L984.6 336.5645 L984.5856 336.5339 L984.5683 336.503 L984.5488 336.4719 L984.5266 336.4408 L984.5035 336.4095 L984.479 336.378 L984.425 336.3148 L984.366 336.251 L984.3063 336.187 L984.245 336.1228 L984.1853 336.0586 L984.1277 335.9941 L984.0737 335.9301 L984.0492 335.898 L984.0255 335.866 L984.0053 335.834 L983.9851 335.8023 L983.9692 335.7705 L983.9549 335.739 L983.9434 335.7073 L983.9354 335.6762 L983.929 335.6449 L983.9275 335.6137 L983.929 335.5829 L983.934 335.5521 L983.9434 335.5215 L983.9564 335.491 L983.9744 335.461 L983.9966 335.4313 L984.0233 335.4015 L984.0549 335.3721 L984.0917 335.3429 L984.1349 335.314 L984.1824 335.2854 L984.2364 335.2572 L984.2961 335.2291 L984.3286 335.2152 L984.3624 335.2016 L984.3976 335.1879 L984.4344 335.1741 L984.474 335.1606 L984.5143 335.1472 L984.5561 335.1339 L984.6 335.1207 L984.6453 335.1074 L984.6929 335.0943 L984.7418 335.0813 L984.7936 335.0684 L984.8463 335.0558 L984.901 335.0431 L984.9578 335.0304 L985.0162 335.0179 L985.0759 335.0055 L985.1385 334.9934 L985.2034 334.9812 L985.2711 334.9691 L985.3395 334.9572 L985.4093 334.9453 C987.3662 334.6248 993.2919 331.1383 979.3929 330.9566" opacity="1" stroke="#000000" stroke-opacity="1" stroke-width="0.39999" stroke-linecap="butt" stroke-linejoin="miter" stroke-dasharray="none" fill-opacity="0" /><path d="M952.7724 335.8396 L952.7724 332.4488 L975.2421 332.4488 L975.2421 335.8396 Z " opacity="1" fill="#036998" fill-opacity="1" /><path d="M952.7724 335.8396 L975.2421 335.8396 L975.2421 332.4488 L952.7724 332.4488 Z " opacity="1" stroke="#FFFFFF" stroke-opacity="1" stroke-width="0.39999" stroke-linecap="butt" stroke-linejoin="miter" stroke-dasharray="none" fill-opacity="0" /><path d="M975.2177 335.8541 L975.2177 332.4488 L979.7515 327.8336 L979.7515 331.32 Z " opacity="1" fill="#036998" fill-opacity="1" /><path d="M975.2177 335.8541 L975.2177 332.4488 L979.7515 327.8336 L979.7515 331.32 Z " opacity="1" stroke="#FFFFFF" stroke-opacity="1" stroke-width="0.39999" stroke-linecap="butt" stroke-linejoin="miter" stroke-dasharray="none" fill-opacity="0" /><path d="M952.7724 336.4519 L952.7724 332.4488 L975.2421 332.4488 L975.2421 336.4519 Z " opacity="1" fill="#036998" fill-opacity="1" /><path d="M952.7724 336.4519 L975.2421 336.4519 L975.2421 332.4488 L952.7724 332.4488 Z " opacity="1" stroke="#FFFFFF" stroke-opacity="1" stroke-width="0.39999" stroke-linecap="butt" stroke-linejoin="miter" stroke-dasharray="none" fill-opacity="0" /><path d="M975.2177 336.4663 L975.2177 332.4488 L979.7515 327.8336 L979.7515 331.9321 Z " opacity="1" fill="#036998" fill-opacity="1" /><path d="M975.2177 336.4663 L975.2177 332.4488 L979.7515 327.8336 L979.7515 331.9321 Z " opacity="1" stroke="#FFFFFF" stroke-opacity="1" stroke-width="0.39999" stroke-linecap="butt" stroke-linejoin="miter" stroke-dasharray="none" fill-opacity="0" /><path d="M981.3262 327.2214 L978.1495 331.8366 L950.1847 331.8366 L954.6854 327.2214 Z " opacity="1" fill="#036998" fill-opacity="1" /><path d="M981.3262 327.2214 L978.1495 331.8366 L950.1847 331.8366 L954.6854 327.2214 Z " opacity="1" stroke="#FFFFFF" stroke-opacity="1" stroke-width="0.39999" stroke-linecap="butt" stroke-linejoin="miter" stroke-dasharray="none" fill-opacity="0" /><path d="M950.1178 333.391 L950.1178 331.8366 L976.873 331.8366 L976.873 333.391 Z " opacity="1" fill="#036998" fill-opacity="1" /><path d="M950.1178 333.391 L976.873 333.391 L976.873 331.8366 L950.1178 331.8366 Z " opacity="1" stroke="#FFFFFF" stroke-opacity="1" stroke-width="0.39999" stroke-linecap="butt" stroke-linejoin="miter" stroke-dasharray="none" fill-opacity="0" /><path d="M976.8484 333.4053 L976.8484 331.8366 L981.3823 327.2214 L981.3823 328.8719 Z " opacity="1" fill="#036998" fill-opacity="1" /><path d="M976.8484 333.4053 L976.8484 331.8366 L981.3823 327.2214 L981.3823 328.8719 Z " opacity="1" stroke="#FFFFFF" stroke-opacity="1" stroke-width="0.39999" stroke-linecap="butt" stroke-linejoin="miter" stroke-dasharray="none" fill-opacity="0" /><path d="M981.3262 327.2214 L978.1495 331.8366 L950.1847 331.8366 L954.6854 327.2214 Z " opacity="1" fill="#036998" fill-opacity="1" /><path d="M981.3262 327.2214 L978.1495 331.8366 L950.1847 331.8366 L954.6854 327.2214 Z " opacity="1" stroke="#FFFFFF" stroke-opacity="1" stroke-width="0.39999" stroke-linecap="butt" stroke-linejoin="miter" stroke-dasharray="none" fill-opacity="0" /><path d="M950.1178 333.391 L950.1178 331.8366 L976.873 331.8366 L976.873 333.391 Z " opacity="1" fill="#036998" fill-opacity="1" /><path d="M950.1178 333.391 L976.873 333.391 L976.873 331.8366 L950.1178 331.8366 Z " opacity="1" stroke="#FFFFFF" stroke-opacity="1" stroke-width="0.39999" stroke-linecap="butt" stroke-linejoin="miter" stroke-dasharray="none" fill-opacity="0" /><path d="M976.8484 333.4053 L976.8484 331.8366 L981.3823 327.2214 L981.3823 328.8719 Z " opacity="1" fill="#036998" fill-opacity="1" /><path d="M976.8484 333.4053 L976.8484 331.8366 L981.3823 327.2214 L981.3823 328.8719 Z " opacity="1" stroke="#FFFFFF" stroke-opacity="1" stroke-width="0.39999" stroke-linecap="butt" stroke-linejoin="miter" stroke-dasharray="none" fill-opacity="0" /><path d="M981.4695 306 L957.3055 306 L950.2372 307.664 L978.2258 307.664 Z " opacity="1" fill="#036998" fill-opacity="1" /><path d="M981.4695 306 L957.3055 306 L950.2372 307.664 L978.2258 307.664 Z " opacity="1" stroke="#FFFFFF" stroke-opacity="1" stroke-width="0.39999" stroke-linecap="butt" stroke-linejoin="miter" stroke-dasharray="none" fill-opacity="0" /><path d="M977.0162 329.8758 L975.7771 328.8571 L953.0784 328.8571 L954.2736 329.8758 Z " opacity="1" fill="#036998" fill-opacity="1" /><path d="M977.0162 329.8758 L975.7771 328.8571 L953.0784 328.8571 L954.2736 329.8758 Z " opacity="1" stroke="#FFFFFF" stroke-opacity="1" stroke-width="0.39999" stroke-linecap="butt" stroke-linejoin="miter" stroke-dasharray="none" fill-opacity="0" /><path d="M977.1545 329.6984 L975.5906 328.6514 L981.3788 325.5903 L977.6527 329.2772 Z " opacity="1" fill="#036998" fill-opacity="1" /><path d="M977.1545 329.6984 L975.5906 328.6514 L981.3788 325.5903 L977.6527 329.2772 Z " opacity="1" stroke="#FFFFFF" stroke-opacity="1" stroke-width="0.39999" stroke-linecap="butt" stroke-linejoin="miter" stroke-dasharray="none" fill-opacity="0" /><path d="M978.2258 307.664 L978.2258 328.5363 L981.4695 325.5182 L981.4695 306 Z " opacity="1" fill="#036998" fill-opacity="1" /><path d="M978.2258 307.664 L978.2258 328.5363 L981.4695 325.5182 L981.4695 306 Z " opacity="1" stroke="#FFFFFF" stroke-opacity="1" stroke-width="0.39999" stroke-linecap="butt" stroke-linejoin="miter" stroke-dasharray="none" fill-opacity="0" /><path d="M978.2258 328.7665 L978.2258 307.664 L950.2372 307.664 L950.2372 328.7665 Z " opacity="1" fill="#036998" fill-opacity="1" /><path d="M950.2372 328.7665 L978.2258 328.7665 L978.2258 307.664 L950.2372 307.664 Z " opacity="1" stroke="#FFFFFF" stroke-opacity="1" stroke-width="0.39999" stroke-linecap="butt" stroke-linejoin="miter" stroke-dasharray="none" fill-opacity="0" /><path d="M975.8729 341.9281 L975.8729 340.3067 L979.3742 335.4618 L979.3742 338.4272 Z " opacity="1" fill="#036998" fill-opacity="1" /><path d="M975.8729 341.9281 L975.8729 340.3067 L979.3742 335.4618 L979.3742 338.4272 Z " opacity="1" stroke="#FFFFFF" stroke-opacity="1" stroke-width="0.39999" stroke-linecap="butt" stroke-linejoin="miter" stroke-dasharray="none" fill-opacity="0" /><path d="M975.8729 340.3308 L975.8729 341.9281 L945 341.9281 L945 340.3308 Z " opacity="1" fill="#036998" fill-opacity="1" /><path d="M945 341.9281 L975.8729 341.9281 L975.8729 340.3308 L945 340.3308 Z " opacity="1" stroke="#FFFFFF" stroke-opacity="1" stroke-width="0.39999" stroke-linecap="butt" stroke-linejoin="miter" stroke-dasharray="none" fill-opacity="0" /><path d="M984.649 340.6465 L986.7009 336.5521 L982.0188 336.5521 L979.9718 340.6465 Z " opacity="1" fill="#036998" fill-opacity="1" /><path d="M984.649 340.6465 L986.7009 336.5521 L982.0188 336.5521 L979.9718 340.6465 Z " opacity="1" stroke="#FFFFFF" stroke-opacity="1" stroke-width="0.39999" stroke-linecap="butt" stroke-linejoin="miter" stroke-dasharray="none" fill-opacity="0" /><path d="M979.9718 340.6465 L984.649 340.6465 L984.649 341.9667 L979.9718 341.9667 Z " opacity="1" fill="#036998" fill-opacity="1" /><path d="M979.9718 341.9667 L984.649 341.9667 L984.649 340.6465 L979.9718 340.6465 Z " opacity="1" stroke="#FFFFFF" stroke-opacity="1" stroke-width="0.39999" stroke-linecap="butt" stroke-linejoin="miter" stroke-dasharray="none" fill-opacity="0" /><path d="M984.6158 342 L984.6259 340.6465 L986.6729 336.5521 L986.6628 339.3693 Z " opacity="1" fill="#036998" fill-opacity="1" /><path d="M984.6158 342 L984.6259 340.6465 L986.6729 336.5521 L986.6628 339.3693 Z " opacity="1" stroke="#FFFFFF" stroke-opacity="1" stroke-width="0.39999" stroke-linecap="butt" stroke-linejoin="miter" stroke-dasharray="none" fill-opacity="0" /><path d="M975.8729 340.3308 L945.1008 340.3308 L948.6014 335.4618 L979.3742 335.4618 Z " opacity="1" fill="#036998" fill-opacity="1" /><path d="M975.8729 340.3308 L945.1008 340.3308 L948.6014 335.4618 L979.3742 335.4618 Z " opacity="1" stroke="#FFFFFF" stroke-opacity="1" stroke-width="0.39999" stroke-linecap="butt" stroke-linejoin="miter" stroke-dasharray="none" fill-opacity="0" /><path d="M954.3024 309.8691 L973.9598 309.8691 C975.2371 309.8691 976.2753 310.9025 976.2753 312.1844 L976.2753 324.5997 C976.2753 325.8818 975.2371 326.92 973.9598 326.92 L954.3024 326.92 C953.0208 326.92 951.9875 325.8818 951.9875 324.5997 L951.9875 312.1844 C951.9875 310.9025 953.0208 309.8691 954.3024 309.8691 Z " opacity="1" fill="#036998" fill-opacity="1" /><path d="M954.3024 309.8691 L973.9598 309.8691 C975.2371 309.8691 976.2753 310.9025 976.2753 312.1844 L976.2753 324.5997 C976.2753 325.8818 975.2371 326.92 973.9598 326.92 L954.3024 326.92 C953.0208 326.92 951.9875 325.8818 951.9875 324.5997 L951.9875 312.1844 C951.9875 310.9025 953.0208 309.8691 954.3024 309.8691 Z " opacity="1" stroke="#FFFFFF" stroke-opacity="1" stroke-width="0.39999" stroke-linecap="butt" stroke-linejoin="miter" stroke-dasharray="none" fill-opacity="0" /></g></g><line x1="860.9413" y1="349.6797" x2="930.0587" y2="334.3203" marker-start="url(#marker6)" marker-end="url(#marker7)" opacity="1" stroke="#000000" stroke-opacity="1" stroke-width="1" stroke-linecap="butt" stroke-linejoin="miter" stroke-dasharray="none" /><line x1="860.9413" y1="361.3203" x2="930.0587" y2="376.6797" marker-start="url(#marker8)" marker-end="url(#marker9)" opacity="1" stroke="#000000" stroke-opacity="1" stroke-width="1" stroke-linecap="butt" stroke-linejoin="miter" stroke-dasharray="none" /><line x1="860.3203" y1="371.9558" x2="930.6797" y2="411.0442" marker-start="url(#marker10)" marker-end="url(#marker11)" opacity="1" stroke="#000000" stroke-opacity="1" stroke-width="1" stroke-linecap="butt" stroke-linejoin="miter" stroke-dasharray="none" /><g><path d="M504 410.625 L504 444.3749 C504 447.4688 514.125 450 526.5 450 C538.8749 450 549 447.4688 549 444.3749 L549 410.625 Z " opacity="1" stroke="#000000" stroke-opacity="1" stroke-width="1" stroke-linecap="butt" stroke-linejoin="miter" stroke-dasharray="none" fill="#FFFFFF" fill-opacity="1" /><text x="508.0596" y="435.8461" font-size="12" fill="#000000" fill-opacity="1" font-family="Arial" font-weight="normal" font-style="normal">archive</text><ellipse cx="526.5" cy="410.625" rx="22.49998" ry="5.625" opacity="1" stroke="#000000" stroke-opacity="1" stroke-width="1" stroke-linecap="butt" stroke-linejoin="miter" stroke-dasharray="none" fill="#FFFFFF" fill-opacity="1" /></g><line x1="599.0956" y1="405.9749" x2="554.8352" y2="419.0984" marker-end="url(#marker12)" opacity="1" stroke="#000000" stroke-opacity="1" stroke-width="1" stroke-linecap="butt" stroke-linejoin="miter" stroke-dasharray="none" /><line x1="549" y1="432.2857" x2="593.1426" y2="441.6747" marker-end="url(#marker13)" opacity="1" stroke="#000000" stroke-opacity="1" stroke-width="1" stroke-linecap="butt" stroke-linejoin="miter" stroke-dasharray="none" /><text x="463.5859" y="288.5336" font-size="12" fill="#000000" fill-opacity="1" font-family="Arial" font-weight="normal" font-style="normal">HTTP GET
</text><text x="410.4824" y="303.5336" font-size="12" fill="#000000" fill-opacity="1" font-family="Arial" font-weight="normal" font-style="normal">&lt;server&gt;/records-all?filter=…</text><text x="479.3711" y="369.5336" font-size="12" fill="#000000" fill-opacity="1" font-family="Arial" font-weight="normal" font-style="normal">sensor readings
</text><text x="479.9688" y="384.5336" font-size="12" fill="#000000" fill-opacity="1" font-family="Arial" font-weight="normal" font-style="normal">since last query</text><rect x="603" y="261" width="54" height="36" opacity="1" stroke="#000000" stroke-opacity="1" stroke-width="1" stroke-linecap="butt" stroke-linejoin="miter" stroke-dasharray="none" fill-opacity="0" /><text x="609.8223" y="277.0336" font-size="12" fill="#000000" fill-opacity="1" font-family="Arial" font-weight="normal" font-style="normal">sentinel
</text><text x="611.1846" y="292.0336" font-size="12" fill="#000000" fill-opacity="1" font-family="Arial" font-weight="normal" font-style="normal">objects</text><line x1="630" y1="324" x2="630" y2="297" opacity="1" stroke="#000000" stroke-opacity="1" stroke-width="1" stroke-linecap="butt" stroke-linejoin="miter" stroke-dasharray="none" /><text x="729.5313" y="414.5336" font-size="12" fill="#000000" fill-opacity="1" font-family="Arial" font-weight="normal" font-style="normal">changed
</text><text x="728.6816" y="429.5336" font-size="12" fill="#000000" fill-opacity="1" font-family="Arial" font-weight="normal" font-style="normal">sentinels</text><text x="463.3662" y="404.0336" font-size="12" fill="#000000" fill-opacity="1" font-family="Arial" font-weight="normal" font-style="normal">JSON</text><text x="900.0225" y="278.0336" font-size="12" fill="#000000" fill-opacity="1" font-family="Arial" font-weight="normal" font-style="normal">JSON + scripts</text><g><g><path d="M519.9087 327.1234 L519.5331 327.0507 L519.1631 326.9871 L518.7986 326.9315 L518.4399 326.8837 L517.7392 326.8122 L517.062 326.7712 L516.4078 326.7599 L515.7767 326.777 L515.1696 326.8207 L514.586 326.8906 L514.0265 326.9849 L513.4906 327.103 L512.98 327.2438 L512.4934 327.4052 L512.032 327.5876 L511.5954 327.788 L511.184 328.0068 L510.7982 328.2419 L510.4378 328.4918 L510.1031 328.7566 L509.7948 329.0343 L509.5128 329.3239 L509.2569 329.6244 L509.0278 329.9347 L508.8255 330.2527 L508.6505 330.5782 L508.5026 330.9093 L508.3821 331.2463 L508.2895 331.5858 L508.2246 331.9285 L508.188 332.2727 L508.1794 332.6168 L508.1996 332.9599 L508.2483 333.3008 L508.3031 333.4978 C502.012 334.5833 503.6609 342.1052 506.6783 342.1052 L506.9762 342.0961 C506.2142 345.6307 513.5674 349.2274 517.6664 347.4303 L517.9293 347.1374 C519.3896 350.3169 524.5815 350.8496 529.7186 350.9805 C534.1684 351.0958 536.765 350.7388 538.6726 348.7639 L538.9681 348.8505 C546.0912 349.4318 549.3342 344.4461 547.7774 340.8646 L548.1608 340.7561 C550.5892 340.1057 550.8696 334.4254 546.7023 333.5847 L546.7834 333.3648 C548.592 329.6703 544.3265 326.1846 538.4075 326.8394 L537.996 326.6219 C533.7587 322.7343 521.564 323.3688 520.1519 327.2143 Z " opacity="1" fill-opacity="0" /><path d="M519.9087 327.1234 L519.5331 327.0507 L519.1631 326.9871 L518.7986 326.9315 L518.4399 326.8837 L517.7392 326.8122 L517.062 326.7712 L516.4078 326.7599 L515.7767 326.777 L515.1696 326.8207 L514.586 326.8906 L514.0265 326.9849 L513.4906 327.103 L512.98 327.2438 L512.4934 327.4052 L512.032 327.5876 L511.5954 327.788 L511.184 328.0068 L510.7982 328.2419 L510.4378 328.4918 L510.1031 328.7566 L509.7948 329.0343 L509.5128 329.3239 L509.2569 329.6244 L509.0278 329.9347 L508.8255 330.2527 L508.6505 330.5782 L508.5026 330.9093 L508.3821 331.2463 L508.2895 331.5858 L508.2246 331.9285 L508.188 332.2727 L508.1794 332.6168 L508.1996 332.9599 L508.2483 333.3008 L508.3031 333.4978 C502.012 334.5833 503.6609 342.1052 506.6783 342.1052 L506.9762 342.0961 C506.2142 345.6307 513.5674 349.2274 517.6664 347.4303 L517.9293 347.1374 C519.3896 350.3169 524.5815 350.8496 529.7186 350.9805 C534.1684 351.0958 536.765 350.7388 538.6726 348.7639 L538.9681 348.8505 C546.0912 349.4318 549.3342 344.4461 547.7774 340.8646 L548.1608 340.7561 C550.5892 340.1057 550.8696 334.4254 546.7023 333.5847 L546.7834 333.3648 C548.592 329.6703 544.3265 326.1846 538.4075 326.8394 L537.996 326.6219 C533.7587 322.7343 521.564 323.3688 520.1519 327.2143 Z " opacity="1" stroke="#02709F" stroke-opacity="1" stroke-width="0.39999" stroke-linecap="butt" stroke-linejoin="miter" stroke-dasharray="none" fill-opacity="0" /></g></g></g></svg>