<?xml version="1.0" encoding="utf-8"?>
<svg width="100%" height="100%" version="1.1" viewBox="-12333 -66 1950 1158" xmlns:xlink="http://www.w3.org/1999/xlink" xmlns:inkscape="http://www.inkscape.org/namespaces/inkscape" xmlns="http://www.w3.org/2000/svg">
  <defs>
    <filter id="shadow1" width="150%" height="150%">
      <feGaussianBlur in="SourceAlpha" result="blur" stdDeviation="5" />
      <feOffset dx="5" dy="5" in="blur" result="offsetBlur" />
      <feMerge>
        <feMergeNode in="offsetBlur" />
        <feMergeNode in="SourceGraphic" />
      </feMerge>
    </filter>
  </defs>
  <marker id="marker1" markerUnits="strokeWidth" orient="auto" refX="-0.4947562" refY="0" markerWidth="12.27247" markerHeight="9.229548" viewBox="-11.77247 -4.614774 12.27247 9.229548">
    <path d="M-11.27247 -4.114774 L0 0 L-11.27247 4.114773" fill="none" stroke="#000000" stroke-opacity="1" />
  </marker>
  <marker id="marker2" markerUnits="strokeWidth" orient="auto" refX="-0.4947562" refY="0" markerWidth="12.27247" markerHeight="9.229548" viewBox="-11.77247 -4.614774 12.27247 9.229548">
    <path d="M-11.27247 -4.114774 L0 0 L-11.27247 4.114773" fill="none" stroke="#000000" stroke-opacity="1" />
  </marker>
  <marker id="marker3" markerUnits="strokeWidth" orient="auto" refX="-0.4947562" refY="0" markerWidth="12.27247" markerHeight="9.229548" viewBox="-11.77247 -4.614774 12.27247 9.229548">
    <path d="M-11.27247 -4.114774 L0 0 L-11.27247 4.114773" fill="none" stroke="#000000" stroke-opacity="1" />
  </marker>
  <linearGradient id="gradient1" x1="100%" y1="50%" x2="0%" y2="50%">
    <stop offset="2%" stop-color="#969696" stop-opacity="1" />
    <stop offset="44%" stop-color="#FFFFFF" stop-opacity="1" />
  </linearGradient>
  <linearGradient id="gradient2" x1="100%" y1="50.0006%" x2="0%" y2="49.9994%">
    <stop offset="1%" stop-color="#9B9B9B" stop-opacity="1" />
    <stop offset="41%" stop-color="#FFFFFF" stop-opacity="1" />
  </linearGradient>
  <marker id="marker4" markerUnits="strokeWidth" orient="auto" refX="8.971846" refY="0" markerWidth="12.27247" markerHeight="9.229548" viewBox="-0.5 -4.614774 12.27247 9.229548">
    <path d="M11.27247 4.114773 L0 0 L11.27247 -4.114774 Z " fill="#000000" fill-opacity="1" stroke="#000000" stroke-opacity="1" />
  </marker>
  <marker id="marker5" markerUnits="strokeWidth" orient="auto" refX="-8.971846" refY="0" markerWidth="12.27247" markerHeight="9.229548" viewBox="-11.77247 -4.614774 12.27247 9.229548">
    <path d="M-11.27247 -4.114774 L0 0 L-11.27247 4.114773 Z " fill="#000000" fill-opacity="1" stroke="#000000" stroke-opacity="1" />
  </marker>
  <marker id="marker6" markerUnits="strokeWidth" orient="auto" refX="-8.971846" refY="0" markerWidth="12.27247" markerHeight="9.229548" viewBox="-11.77247 -4.614774 12.27247 9.229548">
    <path d="M-11.27247 -4.114774 L0 0 L-11.27247 4.114773 Z " fill="#000000" fill-opacity="1" stroke="#000000" stroke-opacity="1" />
  </marker>
  <marker id="marker7" markerUnits="strokeWidth" orient="auto" refX="-8.971846" refY="0" markerWidth="12.27247" markerHeight="9.229548" viewBox="-11.77247 -4.614774 12.27247 9.229548">
    <path d="M-11.27247 -4.114774 L0 0 L-11.27247 4.114773 Z " fill="#000000" fill-opacity="1" stroke="#000000" stroke-opacity="1" />
  </marker>
  <marker id="marker8" markerUnits="strokeWidth" orient="auto" refX="-8.971846" refY="0" markerWidth="12.27247" markerHeight="9.229548" viewBox="-11.77247 -4.614774 12.27247 9.229548">
    <path d="M-11.27247 -4.114774 L0 0 L-11.27247 4.114773 Z " fill="#000000" fill-opacity="1" stroke="#000000" stroke-opacity="1" />
  </marker>
  <marker id="marker9" markerUnits="strokeWidth" orient="auto" refX="8.971846" refY="0" markerWidth="12.27247" markerHeight="9.229548" viewBox="-0.5 -4.614774 12.27247 9.229548">
    <path d="M11.27247 4.114773 L0 0 L11.27247 -4.114774 Z " fill="#000000" fill-opacity="1" stroke="#000000" stroke-opacity="1" />
  </marker>
  <marker id="marker10" markerUnits="strokeWidth" orient="auto" refX="-8.971846" refY="0" markerWidth="12.27247" markerHeight="9.229548" viewBox="-11.77247 -4.614774 12.27247 9.229548">
    <path d="M-11.27247 -4.114774 L0 0 L-11.27247 4.114773 Z " fill="#000000" fill-opacity="1" stroke="#000000" stroke-opacity="1" />
  </marker>
  <marker id="marker11" markerUnits="strokeWidth" orient="auto" refX="8.971846" refY="0" markerWidth="12.27247" markerHeight="9.229548" viewBox="-0.5 -4.614774 12.27247 9.229548">
    <path d="M11.27247 4.114773 L0 0 L11.27247 -4.114774 Z " fill="#000000" fill-opacity="1" stroke="#000000" stroke-opacity="1" />
  </marker>
  <marker id="marker12" markerUnits="strokeWidth" orient="auto" refX="-8.971846" refY="0" markerWidth="12.27247" markerHeight="9.229548" viewBox="-11.77247 -4.614774 12.27247 9.229548">
    <path d="M-11.27247 -4.114774 L0 0 L-11.27247 4.114773 Z " fill="#000000" fill-opacity="1" stroke="#000000" stroke-opacity="1" />
  </marker>
  <marker id="marker13" markerUnits="strokeWidth" orient="auto" refX="8.971846" refY="0" markerWidth="12.27247" markerHeight="9.229548" viewBox="-0.5 -4.614774 12.27247 9.229548">
    <path d="M11.27247 4.114773 L0 0 L11.27247 -4.114774 Z " fill="#000000" fill-opacity="1" stroke="#000000" stroke-opacity="1" />
  </marker>
  <marker id="marker14" markerUnits="strokeWidth" orient="auto" refX="-8.971846" refY="0" markerWidth="12.27247" markerHeight="9.229548" viewBox="-11.77247 -4.614774 12.27247 9.229548">
    <path d="M-11.27247 -4.114774 L0 0 L-11.27247 4.114773 Z " fill="#000000" fill-opacity="1" stroke="#000000" stroke-opacity="1" />
  </marker>
  <marker id="marker15" markerUnits="strokeWidth" orient="auto" refX="8.971846" refY="0" markerWidth="12.27247" markerHeight="9.229548" viewBox="-0.5 -4.614774 12.27247 9.229548">
    <path d="M11.27247 4.114773 L0 0 L11.27247 -4.114774 Z " fill="#000000" fill-opacity="1" stroke="#000000" stroke-opacity="1" />
  </marker>
  <marker id="marker16" markerUnits="strokeWidth" orient="auto" refX="8.971846" refY="0" markerWidth="12.27247" markerHeight="9.229548" viewBox="-0.5 -4.614774 12.27247 9.229548">
    <path d="M11.27247 4.114773 L0 0 L11.27247 -4.114774 Z " fill="#000000" fill-opacity="1" stroke="#000000" stroke-opacity="1" />
  </marker>
  <marker id="marker17" markerUnits="strokeWidth" orient="auto" refX="-8.971846" refY="0" markerWidth="12.27247" markerHeight="9.229548" viewBox="-11.77247 -4.614774 12.27247 9.229548">
    <path d="M-11.27247 -4.114774 L0 0 L-11.27247 4.114773 Z " fill="#000000" fill-opacity="1" stroke="#000000" stroke-opacity="1" />
  </marker>
  <marker id="marker18" markerUnits="strokeWidth" orient="auto" refX="-8.971846" refY="0" markerWidth="12.27247" markerHeight="9.229548" viewBox="-11.77247 -4.614774 12.27247 9.229548">
    <path d="M-11.27247 -4.114774 L0 0 L-11.27247 4.114773 Z " fill="#000000" fill-opacity="1" stroke="#000000" stroke-opacity="1" />
  </marker>
  <marker id="marker19" markerUnits="strokeWidth" orient="auto" refX="8.971846" refY="0" markerWidth="12.27247" markerHeight="9.229548" viewBox="-0.5 -4.614774 12.27247 9.229548">
    <path d="M11.27247 4.114773 L0 0 L11.27247 -4.114774 Z " fill="#000000" fill-opacity="1" stroke="#000000" stroke-opacity="1" />
  </marker>
  <marker id="marker20" markerUnits="strokeWidth" orient="auto" refX="-8.971846" refY="0" markerWidth="12.27247" markerHeight="9.229548" viewBox="-11.77247 -4.614774 12.27247 9.229548">
    <path d="M-11.27247 -4.114774 L0 0 L-11.27247 4.114773 Z " fill="#000000" fill-opacity="1" stroke="#000000" stroke-opacity="1" />
  </marker>
  <marker id="marker21" markerUnits="strokeWidth" orient="auto" refX="-8.971846" refY="0" markerWidth="12.27247" markerHeight="9.229548" viewBox="-11.77247 -4.614774 12.27247 9.229548">
    <path d="M-11.27247 -4.114774 L0 0 L-11.27247 4.114773 Z " fill="#000000" fill-opacity="1" stroke="#000000" stroke-opacity="1" />
  </marker>
  <marker id="marker22" markerUnits="strokeWidth" orient="auto" refX="-8.971846" refY="0" markerWidth="12.27247" markerHeight="9.229548" viewBox="-11.77247 -4.614774 12.27247 9.229548">
    <path d="M-11.27247 -4.114774 L0 0 L-11.27247 4.114773 Z " fill="#000000" fill-opacity="1" stroke="#000000" stroke-opacity="1" />
  </marker>
  <g id="layer1" inkscape:label="Layer 1" inkscape:groupmode="layer">
    <rect x="-11682" y="-45" width="1296" height="981" opacity="1" stroke="#000000" stroke-opacity="1" stroke-width="1" stroke-linecap="butt" stroke-linejoin="miter" stroke-dasharray="none" fill="#FFFFFF" fill-opacity="1" filter="url(#shadow1)" />
    <rect x="-11340" y="54" width="918" height="846" opacity="1" stroke="#000000" stroke-opacity="1" stroke-width="1" stroke-linecap="butt" stroke-linejoin="miter" stroke-dasharray="none" fill="#FFFED3" fill-opacity="1" filter="url(#shadow1)" />
    <g>
      <path d="M-10615.92 587.1344 L-10613.79 593.9078 L-10610.35 602.9075 L-10605.44 611.6291 L-10602 617.4749 L-10597.55 622.5775 L-10593.84 626.0102 L-10592.36 628.7014 L-10593.38 629.9075 L-10594.02 631.2061 L-10591.34 638.0726 L-10588.64 640.7626 L-10586.22 645.6807 L-10582.89 651.0619 L-10578.72 658.6699 L-10577.51 665.7216 L-10577.04 676.8557 L-10576.49 678.5256 L-10576.76 681.6802 L-10579 682.887 L-10578.72 684.6497 L-10579.28 686.4128 L-10579 688.6395 L-10578.53 690.4022 L-10581.03 693.3715 L-10583.91 694.7629 L-10587.53 694.9483 L-10588.92 696.4328 L-10591.15 697.3608 L-10592.36 696.8969 L-10593.38 695.9688 L-10593.65 693.2782 L-10594.4 690.1237 L-10597.55 685.2988 L-10600.89 683.165 L-10604.51 682.887 L-10605.25 684.0928 L-10608.13 680.0103 L-10608.68 676.6703 L-10611.1 672.9589 L-10612.77 671.9385 L-10614.25 673.8864 L-10615.92 673.6084 L-10617.88 668.9691 L-10620.56 665.3505 L-10623.25 660.4331 L-10625.66 657.5565 L-10629.01 654.1239 L-10627.06 651.8966 L-10624.09 646.7939 L-10624.28 645.3093 L-10628.45 644.3813 L-10629.94 644.9385 L-10629.65 645.4952 L-10627.24 646.4228 L-10628.63 650.598 L-10629.38 651.0619 L-10631.04 647.3506 L-10632.25 642.8974 L-10632.53 640.3921 L-10631.14 636.0314 L-10631.14 627.2167 L-10633.92 623.7835 L-10635.13 620.9076 L-10639.96 619.7014 L-10641.72 619.145 L-10643.2 616.7323 L-10646.35 615.2483 L-10647.38 612.0931 L-10649.88 611.1652 L-10652.11 607.7325 L-10656.01 606.3405 L-10658.69 604.9487 L-10661.11 604.9487 L-10664.82 605.6912 L-10665 607.4539 L-10664.26 608.382 L-10664.73 609.4025 L-10667.6 609.2167 L-10671.03 612.557 L-10674.38 614.3196 L-10678 614.3196 L-10680.96 615.5262 L-10681.24 613.0209 L-10682.72 611.2579 L-10685.42 610.2374 L-10686.9 608.8456 L-10694.42 605.2269 L-10701.47 603.557 L-10705.55 604.114 L-10711.12 604.5776 L-10716.68 606.5261 L-10719.93 607.0829 L-10720.12 599.6599 L-10722.53 597.8973 L-10724.2 596.2272 L-10723.92 593.351 L-10714.46 592.1448 L-10690.8 589.454 L-10684.49 588.8971 L-10679.47 589.1758 L-10677.07 592.7941 L-10675.68 594.1858 L-10668.16 594.6498 L-10658.14 594.093 L-10638.19 592.8871 L-10633.18 592.2374 L-10628.91 592.2374 L-10628.73 594.9282 L-10625.2 595.6706 L-10624.92 591.217 L-10626.41 587.0417 L-10625.48 586.3921 L-10620.75 586.8558 L-10615.92 587.1344 Z M-10604.33 709.9794 L-10602.1 709.4226 L-10600.89 709.2368 L-10599.49 707.1027 L-10597.36 705.6188 L-10596.16 706.0828 L-10594.58 706.3607 L-10594.21 707.3813 L-10597.46 708.4947 L-10601.36 709.8867 L-10603.5 711 L-10604.33 709.9794 Z M-10591.8 705.3397 L-10590.68 706.3607 L-10588.18 704.412 L-10583.27 700.5155 L-10579.82 696.8969 L-10577.51 690.7728 L-10576.58 689.1956 L-10576.4 686.041 L-10577.04 686.505 L-10577.97 689.1029 L-10579.37 693.3709 L-10582.34 698.2888 L-10586.42 702.1854 L-10589.57 703.9481 L-10591.8 705.3397 Z " fill-rule="evenodd" opacity="1" fill="#D3D3D3" fill-opacity="0.58" />
      <path d="M-10610.54 556.8871 L-10612.21 557.8152 L-10614.62 556.6088 L-10615.18 554.6606 L-10616.39 551.3204 L-10618.52 549.3718 L-10620.93 548.8152 L-10622.42 544.3617 L-10624.92 538.7946 L-10628.81 537.0316 L-10630.76 535.2687 L-10631.97 532.8566 L-10633.92 531.0007 L-10636.06 529.7946 L-10638.19 527.1039 L-10641.07 524.9698 L-10645.24 523.2999 L-10645.7 521.9081 L-10647.94 519.2174 L-10648.39 517.8258 L-10651.55 513.0008 L-10654.7 513.1864 L-10658.42 510.9597 L-10659.63 509.7534 L-10659.9 508.0835 L-10659.16 506.3204 L-10657.02 505.3925 L-10657.3 503.4443 L-10651.64 501.032 L-10643.2 496.8567 L-10636.42 496.1144 L-10621.12 495.6505 L-10618.98 497.4134 L-10617.5 500.3825 L-10613.42 499.9186 L-10601.73 498.5269 L-10599.04 499.2691 L-10587.35 506.3204 L-10577.97 513.836 L-10582.98 518.9391 L-10585.4 524.5989 L-10585.86 530.4441 L-10587.35 531.1863 L-10588.36 533.6917 L-10590.59 534.2484 L-10592.54 537.5886 L-10595.04 540.0936 L-10597.18 543.248 L-10598.66 543.9902 L-10602 547.1451 L-10604.69 547.3305 L-10603.77 550.2999 L-10608.41 555.403 L-10610.54 556.8871 Z " opacity="1" fill="#D3D3D3" fill-opacity="0.58" />
      <path d="M-10676.97 505.9494 L-10681.42 506.6916 L-10689.22 507.7122 L-10697.2 508.5472 L-10697.2 510.5884 L-10697.01 512.5368 L-10696.46 515.6915 L-10693.3 523.0213 L-10691.07 532.2068 L-10689.69 537.8667 L-10688.2 542.3202 L-10686.81 548.8152 L-10684.86 554.6606 L-10682.45 557.8152 L-10681.98 560.9697 L-10680.22 561.712 L-10680.03 563.6604 L-10681.71 568.1138 L-10682.17 571.0829 L-10682.35 572.8458 L-10680.87 576.9283 L-10680.59 581.8459 L-10681.34 584.0725 L-10680.78 584.815 L-10679.39 585.5574 L-10678.83 588.712 L-10676.42 592.3303 L-10675.03 593.7222 L-10667.7 593.9078 L-10657.67 593.351 L-10637.72 592.1448 L-10632.72 591.4954 L-10628.45 591.4954 L-10628.27 594.1861 L-10625.85 594.9283 L-10625.57 590.8457 L-10627.06 586.6708 L-10626.03 585.1861 L-10620.65 585.9282 L-10616.01 586.2067 L-10616.76 580.3613 L-10614.62 571.0829 L-10613.23 567.1862 L-10613.69 564.7738 L-10610.63 559.0213 L-10611.1 557.7219 L-10612.86 558.3719 L-10615.27 557.1655 L-10615.83 555.2171 L-10617.04 551.8771 L-10619.17 549.9285 L-10621.58 549.3718 L-10623.07 544.9183 L-10625.75 539.073 L-10629.65 537.3101 L-10631.6 535.5472 L-10632.81 533.1349 L-10634.76 531.372 L-10636.89 530.1661 L-10639.03 527.4751 L-10641.9 525.341 L-10646.07 523.671 L-10646.54 522.2792 L-10648.77 519.5884 L-10649.23 518.1967 L-10652.39 513.6506 L-10655.54 513.836 L-10659.34 511.0525 L-10660.55 509.8465 L-10660.83 508.1763 L-10660.08 506.4135 L-10657.86 505.3 L-10658.88 504.1865 L-10658.79 503.9083 L-10664.17 504.8361 L-10670.66 505.5784 L-10676.97 505.9494 Z " opacity="1" fill="#D3D3D3" fill-opacity="0.58" />
      <path d="M-10736.35 606.8974 L-10737.84 592.7941 L-10740.35 575.3507 L-10740.15 562.2686 L-10739.41 533.5057 L-10739.6 518.011 L-10739.41 512.073 L-10732.18 511.7018 L-10706.39 509.2896 L-10698.13 508.6402 L-10698.22 510.6813 L-10698.03 512.6298 L-10697.48 515.7844 L-10694.32 523.1141 L-10692.09 532.2998 L-10690.7 537.9595 L-10689.22 542.413 L-10687.82 548.9081 L-10685.88 554.7532 L-10683.47 557.9077 L-10683.01 561.0623 L-10681.24 561.8047 L-10681.05 563.7532 L-10682.72 568.2067 L-10683.19 571.1758 L-10683.38 572.9385 L-10681.88 577.0211 L-10681.61 581.9386 L-10682.35 584.1656 L-10681.79 584.9076 L-10680.4 585.6499 L-10679.47 587.9697 L-10685.33 587.9697 L-10691.63 588.5264 L-10715.29 591.217 L-10724.94 592.516 L-10725.03 596.0415 L-10723.36 597.7117 L-10720.95 599.4749 L-10720.39 606.8043 L-10725.5 609.2167 L-10728 608.9385 L-10725.5 607.1757 L-10725.5 606.2478 L-10728.38 600.6808 L-10730.51 600.124 L-10731.9 604.2067 L-10733.11 606.7117 L-10733.66 606.5261 L-10736.35 606.5261 Z " opacity="1" fill="#D3D3D3" fill-opacity="0.58" />
      <path d="M-10544.76 450.7434 L-10543.18 455.1042 L-10539.84 461.1353 L-10537.61 463.3619 L-10537.06 465.4959 L-10539.28 465.6815 L-10538.54 466.2383 L-10538.82 470.1351 L-10541.23 471.3415 L-10541.79 473.2898 L-10542.99 475.9804 L-10546.42 477.4651 L-10548.65 477.1866 L-10550.04 477.001 L-10551.53 475.795 L-10551.25 477.001 L-10551.25 477.929 L-10549.49 477.929 L-10548.75 479.1352 L-10550.51 484.9804 L-10546.61 484.9804 L-10546.06 486.4648 L-10543.92 484.331 L-10542.72 483.8671 L-10544.48 487.2072 L-10547.35 491.6609 L-10548.56 491.6609 L-10549.58 491.1969 L-10552.08 491.7536 L-10556.91 493.9803 L-10562.95 498.8979 L-10566.09 503.2584 L-10567.86 509.2896 L-10568.33 511.5164 L-10572.68 511.9803 L-10577.79 513.1864 L-10586.98 505.578 L-10598.66 498.5269 L-10601.36 497.7844 L-10613.04 499.1762 L-10617.04 499.9185 L-10618.52 496.9493 L-10621.3 495.001 L-10636.61 495.465 L-10643.39 496.2069 L-10651.82 500.3821 L-10657.48 502.7948 L-10658.97 503.0729 L-10664.35 504.0009 L-10670.85 504.743 L-10677.16 505.2071 L-10676.69 501.4029 L-10675.03 500.0112 L-10672.52 499.4544 L-10671.96 496.0215 L-10668.07 493.5163 L-10664.45 492.1246 L-10660.55 488.7843 L-10656.47 486.836 L-10655.91 483.9597 L-10652.29 480.3412 L-10651.73 480.1557 C-10651.73 480.1557 -10651.73 481.1761 -10651 481.1761 C-10650.25 481.1761 -10649.23 481.4547 -10649.23 481.4547 L-10647.1 478.1142 L-10645.15 477.5575 L-10643.02 477.836 L-10641.54 474.4957 L-10638.84 472.0834 L-10638.38 470.1349 L-10638.38 466.4236 L-10634.2 467.0731 L-10627.61 465.8668 L-10612.95 464.1041 L-10597.09 461.6918 L-10578.63 457.9805 L-10560.35 454.0835 L-10549.76 451.4857 L-10544.76 450.7434 Z M-10541.14 481.3618 L-10538.73 479.0422 L-10535.76 476.6301 L-10534.36 476.0731 L-10534.18 474.2176 L-10534.74 468.5578 L-10536.13 466.4238 L-10536.69 464.6609 L-10536.03 464.4754 L-10533.54 469.5785 L-10533.16 473.6609 L-10533.34 476.8156 L-10536.49 478.2072 L-10539.1 480.4341 L-10540.12 481.5475 L-10541.14 481.3618 Z " fill-rule="evenodd" opacity="1" fill="#D3D3D3" fill-opacity="0.58" />
      <path d="M-10670.02 471.2486 L-10718.17 475.8876 L-10732.82 477.5579 L-10737.09 478.0218 L-10740.72 478.0218 L-10740.72 481.6402 L-10748.51 482.104 L-10755 482.661 L-10765.3 482.7538 L-10765.58 488.135 L-10767.53 493.9803 L-10768.46 496.7639 L-10769.67 500.8462 L-10769.94 503.2584 L-10773.65 505.3925 L-10772.26 508.7328 L-10773.19 512.8152 L-10774.12 513.5577 L-10767.34 513.3719 L-10744.98 511.6089 L-10740.07 511.4236 L-10732.55 510.9596 L-10706.76 508.5472 L-10697.29 507.8049 L-10689.49 506.8771 L-10681.71 505.8564 L-10677.25 505.1143 L-10677.34 500.939 L-10675.68 499.5474 L-10673.17 498.9904 L-10672.61 495.5575 L-10668.72 493.0523 L-10665.1 491.6608 L-10661.21 488.3204 L-10657.12 486.372 L-10656.28 483.1247 L-10652.29 479.5061 L-10651.73 479.3206 C-10651.73 479.3206 -10651.73 480.3412 -10651 480.3412 C-10650.25 480.3412 -10649.23 480.6196 -10649.23 480.6196 L-10647.1 477.2793 L-10645.15 476.7227 L-10643.02 477.001 L-10641.54 473.6608 L-10639.58 471.6194 L-10639.03 470.6917 L-10638.84 467.0733 L-10640.23 466.7947 L-10642.46 468.5576 L-10649.79 468.7434 L-10660.92 470.5062 L-10670.02 471.2486 Z " opacity="1" fill="#D3D3D3" fill-opacity="0.58" />
      <path d="M-10505.79 340.61 L-10506.25 336.7135 L-10507 332.6308 L-10508.57 327.1567 L-10503.28 325.7648 L-10501.8 326.7856 L-10498.64 330.8679 L-10495.95 334.9503 L-10498.64 336.3421 L-10499.85 336.1566 L-10500.87 337.8266 L-10503.1 339.5894 L-10505.79 340.61 Z " opacity="1" fill="#D3D3D3" fill-opacity="0.58" />
      <path d="M-10506.62 340.8885 L-10507.18 336.9916 L-10507.92 332.9091 L-10509.41 327.3423 L-10513.3 328.1773 L-10533.54 332.6308 L-10532.97 335.6925 L-10531.58 342.4659 L-10531.58 349.981 L-10532.61 352.1151 L-10530.93 354.0636 L-10526.29 350.909 L-10522.95 347.94 L-10521.19 345.9915 L-10520.45 346.5482 L-10517.94 345.1566 L-10513.12 344.1357 L-10506.62 340.8885 Z " opacity="1" fill="#D3D3D3" fill-opacity="0.58" />
      <path d="M-10481.76 335.1359 L-10479.72 334.4864 L-10479.25 332.9091 L-10478.33 333.0019 L-10477.4 335.1359 L-10478.61 335.5999 L-10482.22 335.6925 L-10481.76 335.1359 Z M-10490.48 335.8782 L-10488.35 333.4659 L-10486.86 333.4659 L-10485.19 334.8576 L-10487.42 335.7856 L-10489.46 336.7135 L-10490.48 335.8782 Z M-10522.77 315.4658 L-10506.54 311.5689 L-10504.4 311.0123 L-10502.45 308.0432 L-10499.02 306.466 L-10496.32 310.5485 L-10498.55 315.3731 L-10498.83 316.7648 L-10497.07 319.1771 L-10496.04 318.4349 L-10494.38 318.4349 L-10492.24 320.8474 L-10488.62 326.4143 L-10485.29 326.8781 L-10483.15 325.9502 L-10481.48 324.2802 L-10482.22 321.7751 L-10484.17 320.2906 L-10485.56 321.0329 L-10486.49 319.8268 L-10486.02 319.3628 L-10484.08 319.1771 L-10482.41 319.9195 L-10480.64 322.1462 L-10479.72 324.8368 L-10479.43 327.0638 L-10483.34 328.4554 L-10486.95 330.2182 L-10490.57 334.3936 L-10492.34 335.7854 L-10492.34 334.8575 L-10490.11 333.4658 L-10489.64 331.7954 L-10490.39 328.9193 L-10493.08 330.311 L-10493.82 331.7027 L-10493.36 333.8367 L-10495.3 334.7646 L-10497.81 330.5896 L-10500.96 326.5069 L-10502.91 324.8368 L-10508.94 326.5996 L-10513.67 327.6202 L-10533.9 332.0741 L-10534.28 327.5276 L-10533.72 317.6927 L-10528.89 316.8574 L-10522.77 315.4658 Z " fill-rule="evenodd" opacity="1" fill="#D3D3D3" fill-opacity="0.58" />
      <path d="M-10460.23 245.5075 L-10458.47 247.456 L-10456.34 250.889 L-10456.34 252.6518 L-10458.28 257.0126 L-10460.04 257.5694 L-10463.2 260.4455 L-10467.65 265.5485 C-10467.65 265.5485 -10468.21 265.5485 -10468.86 265.5485 C-10469.41 265.5485 -10469.79 263.6003 -10469.79 263.6003 L-10471.46 263.7858 L-10472.39 265.1775 L-10474.61 266.5693 L-10475.54 267.961 L-10474.06 269.3527 L-10474.52 269.9093 L-10474.98 272.4146 L-10476.75 272.2289 L-10476.75 270.7445 L-10477.02 269.5384 L-10478.41 269.8166 L-10480.09 266.8477 L-10482.03 268.0538 L-10480.83 269.4455 L-10480.56 270.4662 L-10481.29 271.6725 L-10481.02 274.5487 L-10480.83 276.0332 L-10482.31 278.4455 L-10485.01 278.9094 L-10485.29 281.6 L-10490.2 284.4765 L-10491.41 284.9404 L-10492.89 283.5487 L-10495.77 286.8885 L-10494.83 289.8579 L-10496.23 291.064 L-10496.42 295.1463 L-10497.43 300.9918 L-10499.76 299.8784 L-10500.22 297.0022 L-10503.84 295.9815 L-10504.12 293.4763 L-10510.89 271.7651 L-10514.79 259.1466 L-10513.49 259.0538 L-10512.09 259.4251 L-10512.09 257.0126 L-10511.35 251.9095 L-10508.94 247.5487 L-10507.54 243.8374 L-10509.31 241.6108 L-10509.31 236.0436 L-10508.57 235.1161 L-10507.83 232.6108 L-10508.01 231.219 L-10508.2 226.7654 L-10506.54 222.3117 L-10503.84 214.054 L-10501.89 210.1571 L-10500.68 210.1571 L-10499.47 210.3428 L-10499.47 211.3633 L-10498.27 213.4974 L-10495.77 214.054 L-10495.03 213.3119 L-10495.03 212.3841 L-10491.31 209.6935 L-10489.64 208.023 L-10488.25 208.2088 L-10482.68 210.4354 L-10480.92 211.3633 L-10472.49 239.1055 L-10466.91 239.1055 L-10466.17 240.8684 L-10465.98 245.3219 L-10463.3 247.456 L-10462.55 247.456 L-10462.36 246.992 L-10462.83 245.9715 L-10460.23 245.5075 Z M-10479.62 273.528 L-10478.23 272.1362 L-10476.94 273.1568 L-10476.38 275.3837 L-10477.95 276.2187 L-10479.62 273.528 Z M-10473.41 268.0538 L-10471.74 269.8166 C-10471.74 269.8166 -10470.53 269.9093 -10470.53 269.6312 C-10470.53 269.3527 -10470.35 267.7756 -10470.35 267.7756 L-10469.51 267.0332 L-10470.25 265.363 L-10472.11 266.0124 L-10473.41 268.0538 Z " fill-rule="evenodd" opacity="1" fill="#D3D3D3" fill-opacity="0.58" />
      <path d="M-10499.57 305.9092 L-10498.74 304.8886 L-10497.72 301.8269 L-10500.03 300.9918 L-10500.5 298.1154 L-10504.12 297.0949 L-10504.4 294.5897 L-10511.17 272.8784 L-10515.44 259.4251 L-10516.28 259.4251 L-10516.83 260.9096 L-10517.39 260.4455 L-10518.31 259.5179 L-10519.7 261.2807 L-10519.7 265.9198 L-10519.43 271.2085 L-10517.66 273.7135 L-10517.66 277.4247 L-10521.1 282.1569 L-10523.51 283.1775 L-10523.51 284.1981 L-10522.49 285.8682 L-10522.49 293.8474 L-10523.23 302.3835 L-10523.42 306.8372 L-10522.49 308.0432 L-10522.68 312.2186 L-10523.15 313.8885 L-10521.75 314.7235 L-10506.54 310.3628 L-10504.4 309.8062 L-10503.01 307.3938 L-10499.57 305.9092 Z " opacity="1" fill="#D3D3D3" fill-opacity="0.58" />
      <path d="M-10533.43 316.3936 L-10534.18 311.1052 L-10536.41 301.8269 L-10536.96 301.5485 L-10539.65 300.3422 L-10538.91 297.6516 L-10539.65 295.7031 L-10542.15 291.4351 L-10541.23 287.8165 L-10541.97 282.9919 L-10544.2 276.961 L-10544.94 272.4146 L-10520.63 266.1982 L-10520.35 271.5795 L-10518.59 274.0847 L-10518.59 277.796 L-10522.02 281.5074 L-10524.43 282.528 L-10524.43 283.5487 L-10523.42 285.2187 L-10523.42 293.198 L-10524.16 301.7339 L-10524.35 306.1876 L-10523.42 307.3938 L-10523.6 311.5689 L-10524.07 313.2391 L-10523.42 314.7235 L-10529.91 316.0225 L-10533.43 316.3936 Z " opacity="1" fill="#D3D3D3" fill-opacity="0.58" />
      <path d="M-10548.01 349.5171 L-10549.02 348.5896 L-10551.43 348.4039 L-10553.57 346.6411 L-10555.06 340.9812 L-10558.3 341.0739 L-10560.53 338.5689 L-10578.53 342.6512 L-10618.42 350.7234 L-10625.39 351.8369 L-10626.03 345.806 L-10624.74 344.7854 L-10623.54 343.7647 L-10622.61 342.2802 L-10620.93 341.2593 L-10619.17 339.5894 L-10618.7 338.105 L-10616.76 335.5999 L-10615.74 334.6719 L-10615.92 333.744 L-10617.13 330.8679 L-10618.8 330.6823 L-10620.56 325.0224 L-10617.88 323.3523 L-10613.79 321.9608 L-10610.08 320.7546 L-10607.11 320.2906 L-10601.27 320.1052 L-10599.49 321.3112 L-10598.01 321.4968 L-10596.07 320.2906 L-10593.65 319.2698 L-10588.82 318.8062 L-10586.88 317.136 L-10585.21 314.167 L-10583.73 312.404 L-10581.78 312.404 L-10580.02 311.3834 L-10579.82 309.2495 L-10581.22 307.301 L-10581.5 305.9092 L-10580.48 303.9607 L-10580.48 302.569 L-10582.15 302.569 L-10583.82 301.8267 L-10584.56 300.8061 L-10584.75 298.3936 L-10579.37 293.2908 L-10578.81 292.5484 L-10577.41 289.8578 L-10574.73 285.6825 L-10572.22 282.2495 L-10570.27 280.0228 L-10568.05 278.3527 L-10565.17 277.2393 L-10560.06 276.033 L-10557.09 276.2186 L-10552.92 274.8269 L-10545.87 272.8784 L-10545.41 277.5176 L-10543.18 283.5484 L-10542.43 288.3733 L-10543.36 291.9917 L-10540.95 296.1669 L-10540.21 298.1154 L-10540.95 300.8061 L-10538.27 302.0123 L-10537.7 302.2908 L-10534.83 312.4967 L-10535.29 317.2286 L-10535.76 327.2493 L-10535.01 332.3523 L-10534.28 335.6924 L-10532.89 342.4658 L-10532.89 349.981 L-10533.9 352.1151 L-10532.23 353.9706 L-10531.49 355.5481 L-10533.25 357.218 L-10532.97 358.4243 L-10531.76 358.146 L-10530.38 356.9398 L-10528.24 354.5274 L-10527.22 353.9706 L-10525.74 354.5274 L-10523.6 354.7129 L-10516.28 351.0945 L-10513.58 348.5893 L-10512.38 347.1974 L-10508.48 348.6819 L-10511.63 352.0222 L-10515.25 354.7129 L-10521.84 359.6305 L-10524.25 360.5583 L-10529.63 362.3211 L-10533.34 363.3419 L-10534.46 362.8779 L-10534.64 359.445 L-10534.18 356.9398 L-10534.36 354.9911 L-10536.96 353.414 L-10541.14 352.4862 L-10544.76 351.4656 L-10548.01 349.5171 Z " opacity="1" fill="#D3D3D3" fill-opacity="0.58" />
      <path d="M-10548.38 350.3523 L-10550.33 352.5793 L-10550.33 355.4554 L-10552.08 358.3315 L-10552.27 359.816 L-10551.07 361.0225 L-10551.25 363.2491 L-10553.39 364.2698 L-10552.64 366.775 L-10552.46 367.7956 L-10549.95 368.0739 L-10549.02 370.4861 L-10545.68 372.713 L-10543.46 374.1974 L-10543.46 374.9398 L-10546.42 377.816 L-10547.91 379.95 L-10549.3 382.4552 L-10551.43 383.6613 L-10552.55 384.3108 L-10552.74 385.4243 L-10553.3 387.8366 L-10552.27 389.8778 L-10549.3 392.5685 L-10544.85 394.7025 L-10541.14 395.2593 L-10540.95 396.651 L-10541.69 397.5788 L-10541.42 400.0841 L-10540.68 400.0841 L-10538.73 397.8573 L-10537.98 393.4037 L-10535.48 389.6923 L-10532.61 383.6613 L-10531.58 378.5583 L-10532.14 377.5378 L-10532.33 368.8162 L-10533.81 365.6614 L-10534.83 366.4037 L-10537.33 366.6821 L-10537.8 366.2182 L-10536.78 365.2902 L-10534.83 363.5274 L-10534.74 362.5068 L-10535.11 359.3521 L-10534.64 356.847 L-10534.83 354.8987 L-10537.24 353.8781 L-10541.42 352.95 L-10545.03 351.9297 L-10548.38 350.3523 Z " opacity="1" fill="#D3D3D3" fill-opacity="0.58" />
      <path d="M-10553.94 383.9398 L-10552.92 383.383 L-10550.79 382.8263 L-10549.39 380.3211 L-10547.91 378.1871 L-10544.94 375.3107 L-10544.94 374.5685 L-10547.17 373.0841 L-10550.51 370.8572 L-10551.43 368.4449 L-10553.94 368.1665 L-10554.13 367.1461 L-10554.88 364.6409 L-10552.74 363.6203 L-10552.55 361.3935 L-10553.75 360.1874 L-10553.57 358.7028 L-10551.81 355.8265 L-10551.81 352.95 L-10549.68 350.7234 L-10549.49 349.7029 L-10551.9 349.5171 L-10554.03 347.7543 L-10556.27 342.8369 L-10559.04 342.0017 L-10561.18 340.0533 L-10578.44 343.7647 L-10618.33 351.8369 L-10626.59 353.2286 L-10627.06 346.6411 L-10632.16 351.8369 L-10633.36 352.3006 L-10637.26 355.0843 L-10634.57 372.8058 L-10632.25 381.8056 L-10628.91 399.7128 L-10625.85 399.1561 L-10614.81 397.7645 L-10579.64 390.6202 L-10565.82 388.0222 L-10558.12 386.5376 L-10557.83 386.3523 L-10555.89 384.8676 L-10553.94 383.9398 Z " opacity="1" fill="#D3D3D3" fill-opacity="0.58" />
      <path d="M-10553.75 387.5583 L-10553.21 385.6097 L-10553.21 384.4965 L-10554.41 384.4037 L-10556.36 385.8882 L-10557.74 387.2799 L-10556.36 391.1768 L-10554.23 396.4654 L-10552.27 405.4653 L-10550.79 411.3106 L-10546.14 411.1252 L-10540.48 410.0116 L-10542.62 403.1458 L-10543.55 403.6098 L-10546.9 401.3828 L-10548.56 397.022 L-10550.33 393.6819 L-10552.46 392.7542 L-10554.41 389.4138 L-10553.75 387.5583 Z " opacity="1" fill="#D3D3D3" fill-opacity="0.58" />
      <path d="M-10540.21 410.6612 L-10545.87 411.8674 L-10551.25 412.053 L-10552.92 405.4653 L-10554.88 396.4654 L-10557 391.1768 L-10558.21 387.0942 L-10565.17 388.5789 L-10579 391.1768 L-10613.79 398.2284 L-10612.77 402.8673 L-10611.84 408.1562 L-10611.56 407.8777 L-10609.61 405.651 L-10607.47 403.2385 L-10605.25 402.6819 L-10603.86 401.2902 L-10602.19 398.8778 L-10600.98 399.4345 L-10598.29 399.1561 L-10595.88 397.2078 L-10594.02 395.8159 L-10592.36 395.3521 L-10590.87 396.3726 L-10588.18 397.7645 L-10586.42 399.4345 L-10585.3 400.8264 L-10581.5 402.4036 L-10581.5 405.0941 L-10576.4 406.3003 L-10575.38 406.7644 L-10574.08 404.9086 L-10571.38 406.7644 L-10572.59 409.0839 L-10573.34 412.7952 L-10575 415.2077 L-10575 417.1561 L-10574.45 418.8261 L-10569.72 420.1251 L-10565.73 420.0323 L-10562.85 420.9601 L-10560.9 421.2385 L-10559.97 419.2899 L-10561.36 417.3415 L-10561.36 415.6715 L-10563.59 413.723 L-10565.54 408.6199 L-10564.34 403.7025 L-10564.52 401.7541 L-10565.73 400.5479 C-10565.73 400.5479 -10564.34 399.0633 -10564.34 398.4139 C-10564.34 397.8573 -10563.87 396.4654 -10563.87 396.4654 L-10562.11 395.2593 L-10560.35 393.7746 L-10559.88 394.7025 L-10561.28 396.187 L-10562.47 399.6199 L-10562.21 400.6406 L-10560.53 400.9189 L-10560.06 406.022 L-10562.02 406.9498 L-10561.74 410.29 L-10561.28 410.1047 L-10560.25 408.3417 L-10558.76 410.0116 L-10560.25 411.218 L-10560.53 414.3725 L-10558.12 417.5271 L-10554.49 417.9911 L-10553.01 417.2488 L-10550.04 421.1458 L-10548.75 421.6097 L-10542.54 419.0117 L-10540.68 415.3003 L-10540.21 410.6612 Z M-10555.7 419.0117 L-10554.68 421.3312 L-10554.49 423.0012 L-10553.48 424.7643 C-10553.48 424.7643 -10552.64 423.9292 -10552.64 423.6509 C-10552.64 423.3726 -10553.3 420.7745 -10553.3 420.7745 L-10553.94 418.6406 L-10555.7 419.0117 Z " fill-rule="evenodd" opacity="1" fill="#D3D3D3" fill-opacity="0.58" />
      <path d="M-10614.81 398.3211 L-10613.79 402.8673 L-10612.77 409.2695 L-10609.43 406.7644 L-10607.29 403.8879 L-10604.97 403.3313 L-10603.58 401.9395 L-10601.91 399.5272 L-10600.8 400.0841 L-10598.11 399.8056 L-10595.69 397.8573 L-10593.84 396.4654 L-10592.17 396.0016 L-10590.96 396.9295 L-10588.92 397.9498 L-10587.15 399.6199 L-10585.86 400.8264 L-10585.95 405.187 L-10591.24 402.3108 L-10595.41 400.6406 L-10595.6 405.5581 L-10596.07 407.5065 L-10597.55 410.0116 L-10598.11 411.4962 L-10600.98 413.723 L-10601.45 415.8571 L-10604.61 416.1355 L-10604.88 419.0117 L-10605.9 424.1148 L-10608.31 424.1148 L-10609.52 423.3726 L-10611.01 420.8673 L-10612.67 421.053 L-10612.95 425.1353 L-10614.89 431.259 L-10619.55 441.2796 L-10618.8 442.4857 L-10618.98 444.9909 L-10620.93 446.7538 L-10622.32 446.4754 L-10625.29 448.7023 L-10627.7 447.7745 L-10629.38 452.1352 C-10629.38 452.1352 -10632.81 452.8774 -10633.46 453.063 C-10634.01 453.2486 -10635.68 451.8568 -10635.68 451.8568 L-10637.91 453.9909 L-10640.33 454.5477 L-10643.02 453.8054 L-10644.22 452.5991 L-10646.26 449.8157 L-10649.14 447.9599 L-10651.55 445.4548 L-10654.24 442.0219 L-10654.8 439.8879 L-10657.21 438.4962 L-10657.95 437.0116 L-10658.14 432.0941 L-10656.1 432.0014 L-10654.34 431.259 L-10654.15 428.7539 L-10652.67 427.3623 L-10652.47 422.7231 L-10651.55 419.1045 L-10650.34 418.5477 L-10649.14 419.5684 L-10648.67 421.2385 L-10647.01 420.3106 L-10646.54 418.8261 L-10647.56 417.1561 L-10647.56 414.9292 L-10646.63 413.723 L-10644.49 410.5685 L-10643.29 409.1767 L-10641.34 409.6407 L-10639.21 408.1562 L-10636.33 405.0015 L-10634.2 401.3828 L-10633.92 396.0944 L-10633.46 391.4551 L-10633.46 387.0942 L-10634.48 384.218 L-10633.56 382.8263 L-10632.34 381.6203 L-10629.09 399.991 L-10624.82 399.2489 L-10614.81 398.3211 Z " opacity="1" fill="#D3D3D3" fill-opacity="0.58" />
      <path d="M-10647.1 450.094 L-10649.23 452.5991 L-10653.13 455.9393 L-10657.12 461.4136 L-10658.79 463.0836 L-10658.79 465.032 L-10662.41 466.9804 L-10667.7 470.1351 L-10670.95 470.5063 L-10719.09 475.0527 L-10733.75 476.7227 L-10738.02 477.1866 L-10741.64 477.1866 L-10741.83 481.0836 L-10749.43 481.1761 L-10755.93 481.7329 L-10765.58 481.9186 L-10763.81 481.7329 L-10761.78 480.0629 L-10759.83 479.0422 L-10759.64 476.0731 L-10758.81 474.403 L-10760.29 472.0835 L-10759.55 470.3208 L-10757.42 468.6505 L-10755.47 468.094 L-10752.96 469.3001 L-10749.62 470.5063 L-10748.61 470.2278 L-10748.42 468.094 L-10749.62 465.8671 L-10749.34 463.733 L-10747.58 462.3415 L-10745.17 461.7846 L-10743.68 461.2279 L-10744.43 459.5579 L-10744.98 457.7951 L-10743.96 457.0528 L-10742.94 453.9909 L-10740.15 452.4137 L-10734.78 451.4859 L-10731.43 451.0219 L-10730.04 452.7847 L-10728.38 453.5269 L-10726.7 450.5578 L-10724.01 449.1662 L-10722.25 450.6507 L-10721.51 451.6713 L-10719.56 451.2073 L-10719.75 448.0528 L-10717.06 446.5682 L-10716.03 445.826 L-10715.01 447.3105 L-10710.65 447.3105 L-10709.91 445.3621 L-10710.19 443.2281 L-10707.49 439.8879 L-10703.14 436.2695 L-10702.67 432.0941 L-10700.17 431.816 L-10696.55 430.1456 L-10694.04 428.3829 L-10694.32 426.6201 L-10695.72 425.2283 L-10695.16 423.187 L-10691.35 423.0014 L-10689.13 422.2593 L-10686.43 423.7438 L-10684.95 427.8262 L-10679.57 428.1045 L-10677.9 429.7745 L-10675.95 429.9603 L-10673.73 428.5684 L-10670.85 429.0323 L-10669.64 430.424 L-10667.14 428.0117 L-10665.47 426.8055 L-10663.98 426.8055 L-10663.42 429.3105 L-10661.75 430.2384 L-10659.53 432.2797 L-10659.34 437.3827 L-10658.6 438.8674 L-10656.19 440.259 L-10655.64 442.3932 L-10652.95 445.8261 L-10650.53 448.3312 L-10647.1 450.094 Z " opacity="1" fill="#D3D3D3" fill-opacity="0.58" />
      <path d="M-10638.19 354.713 L-10643.85 358.5172 L-10647.47 360.6512 L-10650.62 364.0841 L-10654.34 367.7027 L-10657.3 368.4449 L-10660 368.9088 L-10665.1 371.3213 L-10667.04 371.507 L-10670.2 368.6303 L-10675.03 369.1873 L-10677.43 367.7956 L-10679.67 366.4966 L-10684.21 367.1461 L-10693.68 368.6303 L-10700.91 369.744 L-10699.7 383.2902 L-10698.03 396.0016 L-10695.62 417.7128 L-10695.06 422.1664 L-10691.26 422.0736 L-10689.04 421.3312 L-10685.88 422.7231 L-10683.94 426.8054 L-10679.2 426.8054 L-10677.43 428.7539 L-10675.76 428.6612 L-10673.45 427.455 L-10671.13 427.8262 L-10669.27 429.2178 L-10667.7 427.2693 L-10665.56 426.0632 L-10663.62 425.4139 L-10663.06 427.9189 L-10661.39 428.8467 L-10658.14 430.9807 L-10656.1 430.8879 L-10655.08 429.8673 L-10655.17 428.5682 L-10653.68 427.1767 L-10653.49 422.5374 L-10652.57 418.919 L-10651.18 417.6199 L-10649.79 418.4549 L-10649.04 419.5685 L-10647.94 419.3827 L-10648.3 417.1561 L-10648.86 416.5994 L-10648.86 414.3725 L-10647.94 413.1662 L-10645.8 410.0119 L-10644.59 408.6199 L-10642.64 409.0839 L-10640.51 407.5995 L-10637.63 404.4449 L-10635.5 400.8264 L-10635.31 395.816 L-10634.85 391.1768 L-10634.85 386.8161 L-10635.88 383.9398 L-10634.94 382.5482 L-10634.11 381.6203 L-10635.41 372.5274 L-10638.19 354.713 Z " opacity="1" fill="#D3D3D3" fill-opacity="0.58" />
      <path d="M-10777.18 249.961 L-10775.51 248.0126 L-10773.47 247.2705 L-10768.46 243.6518 L-10766.33 243.0953 L-10765.86 243.5592 L-10770.59 248.2911 L-10773.65 250.0539 L-10775.6 250.889 L-10777.18 249.961 Z M-10697.2 279.7445 L-10696.64 282.064 L-10693.68 282.2497 L-10692.48 281.1362 C-10692.48 281.1362 -10692.56 279.7445 -10692.84 279.6516 C-10693.12 279.4659 -10694.32 277.8887 -10694.32 277.8887 L-10696.36 278.0743 L-10697.85 278.2599 L-10698.13 279.2806 L-10697.2 279.7445 Z M-10669.27 338.1978 L-10672.24 330.5897 L-10674.38 322.1463 L-10676.6 319.1771 L-10679.01 317.507 L-10680.5 318.5276 L-10684.12 320.1978 L-10685.88 324.8369 L-10688.39 328.2701 L-10689.4 328.8268 L-10690.8 328.2701 C-10690.8 328.2701 -10693.21 326.8781 -10693.02 326.3216 C-10692.84 325.7648 -10692.56 321.6823 -10692.56 321.6823 L-10689.4 320.4762 L-10688.66 317.3216 L-10688.11 314.9091 L-10685.88 313.4247 L-10686.16 304.1465 L-10687.64 302.0123 L-10688.85 301.2701 L-10689.59 299.3217 L-10688.85 298.5793 L-10687.36 298.8577 L-10687.18 297.3733 L-10689.59 295.3318 L-10690.8 292.9197 L-10693.21 292.9197 L-10697.39 291.5279 L-10702.49 288.3733 L-10705 288.3733 L-10705.55 288.9299 L-10706.48 288.4661 L-10709.35 286.3321 L-10712.04 288.0022 L-10714.74 290.1363 L-10714.46 293.4763 L-10713.53 293.7547 L-10711.58 294.2186 L-10711.12 294.961 L-10713.53 295.7031 L-10715.94 295.9815 L-10717.33 297.6516 L-10717.61 299.6 L-10717.33 301.0845 L-10717.06 306.1876 L-10720.39 308.136 L-10720.95 307.9506 L-10720.95 304.0538 L-10719.75 301.8269 L-10719.19 299.6001 L-10719.93 298.8578 L-10721.69 299.6001 L-10722.62 303.497 L-10725.13 304.5176 L-10726.79 306.2804 L-10726.98 307.2082 L-10726.42 307.9506 L-10726.98 310.3629 L-10729.12 310.8268 L-10729.12 311.8476 L-10728.38 314.0742 L-10729.39 319.7338 L-10730.88 323.4454 L-10730.33 327.8063 L-10729.86 328.8268 L-10730.61 331.0534 L-10730.88 331.7957 L-10731.16 334.3008 L-10727.82 339.8679 L-10725.13 345.8989 L-10723.74 350.3524 L-10724.48 354.713 L-10725.41 360.2802 L-10727.63 365.1049 L-10727.91 367.6099 L-10730.97 370.4863 L-10726.89 370.3008 L-10707.03 368.1666 L-10700.27 367.2389 L-10700.17 368.8163 L-10693.77 367.703 L-10684.21 366.3111 L-10680.59 365.8471 L-10680.5 365.2904 L-10680.31 363.8987 L-10678.36 360.4657 L-10676.51 358.8885 L-10676.69 354.1565 L-10675.21 352.6721 L-10674.19 352.3937 L-10674.01 349.0534 L-10672.61 346.2699 L-10671.59 346.8266 L-10671.4 347.3833 L-10670.66 347.5689 L-10668.9 346.6412 L-10669.27 338.1978 Z M-10790.26 276.961 L-10789.61 276.4042 L-10787.11 275.6619 L-10783.77 273.528 L-10783.77 272.6001 L-10783.21 272.0436 L-10777.64 271.1156 L-10775.41 269.3527 L-10771.34 267.4043 L-10771.15 266.1982 L-10769.39 263.5073 L-10767.72 262.7652 L-10766.51 261.0951 L-10764.38 258.961 L-10760.29 256.7342 L-10755.93 256.2703 L-10754.91 257.2911 L-10755.19 258.2187 L-10758.62 259.1466 L-10760.01 262.0228 L-10762.14 262.7652 L-10762.61 264.992 L-10764.83 267.961 L-10765.12 270.3733 L-10764.38 270.8373 L-10763.45 269.8166 L-10760.11 267.126 L-10758.9 268.3322 L-10756.76 268.3322 L-10753.8 269.26 L-10752.41 270.2806 L-10751.01 273.1568 L-10748.51 275.6619 L-10744.89 275.4765 L-10743.5 274.5487 L-10742.02 275.7548 L-10740.54 276.2187 L-10739.32 275.4765 L-10738.3 275.4765 L-10736.82 274.5487 L-10733.11 271.2085 L-10729.95 270.1878 L-10723.83 269.9093 L-10719.65 268.1465 L-10717.24 266.9405 L-10715.85 267.126 L-10715.85 272.4146 L-10715.39 272.6929 L-10712.69 273.4353 L-10710.93 272.9714 L-10705.27 271.4867 L-10704.25 270.4662 L-10702.86 270.9301 L-10702.86 277.4247 L-10699.89 280.3013 L-10698.68 280.8577 L-10697.48 281.7858 L-10698.68 282.064 L-10699.42 281.7858 L-10702.86 281.3218 L-10704.8 281.8785 L-10706.94 281.6928 L-10709.91 283.0846 L-10711.58 283.0846 L-10716.96 281.8785 L-10721.79 282.064 L-10723.54 284.4765 L-10730.04 285.0331 L-10732.28 285.7753 L-10733.29 288.6516 L-10734.5 289.6722 L-10734.96 289.4867 L-10736.35 288.0022 L-10740.54 290.2289 L-10741.08 290.2289 L-10742.11 288.7446 L-10742.85 288.9299 L-10744.61 293.0125 L-10745.54 296.7237 L-10748.51 303.2186 L-10749.62 302.2908 L-10750.92 301.3628 L-10752.68 291.8062 L-10755.93 290.5074 L-10757.88 288.3733 L-10769.11 285.8682 L-10771.8 284.9404 L-10779.4 282.899 L-10786.74 281.8785 L-10790.26 276.961 Z " fill-rule="evenodd" opacity="1" fill="#D3D3D3" fill-opacity="0.58" />
      <path d="M-10988.08 307.2082 L-10997.81 306.466 L-11027.6 303.404 L-11042.63 301.4557 L-11068.88 297.6516 L-11087.35 294.868 L-11088.65 305.2598 L-11092.17 327.806 L-11097.09 356.0121 L-11098.48 365.7542 L-11100.07 376.7954 L-11094.03 377.6305 L-11070 379.95 L-11050.88 382.0841 L-11016.74 385.8881 L-10994.66 388.5788 L-10990.48 347.5687 L-10989.19 324.0019 L-10988.08 307.2082 Z " opacity="1" fill="#D3D3D3" fill-opacity="0.58" />
      <path d="M-10985.85 287.2599 L-10985.29 276.8682 L-10983.15 253.8581 C-10982.69 249.2187 -10982.13 245.9715 -10981.86 239.5694 L-10981.02 226.0231 L-11009.51 223.4251 L-11036.6 220.1777 L-11063.79 216.4664 L-11093.75 211.5488 L-11110.82 208.3943 L-11141.17 201.9924 L-11145.34 221.755 L-11142.19 228.7138 L-11143.48 232.9819 L-11141.82 237.2498 L-11138.85 238.5488 L-11134.58 248.5694 L-11132.07 251.5385 L-11131.6 252.5591 L-11128.45 253.5798 L-11128 255.5282 L-11134.58 271.858 L-11134.58 274.1774 L-11132.26 277.1465 L-11131.42 277.1465 L-11126.97 274.3629 L-11126.32 273.3425 L-11124.83 273.9919 L-11125.02 278.9094 L-11122.52 290.6001 L-11119.74 292.9197 L-11118.89 293.569 L-11117.22 295.7031 L-11117.69 298.8577 L-11117.04 302.0123 L-11116.02 302.8474 L-11113.89 300.7134 L-11111.39 300.7134 L-11108.41 302.1979 L-11106.09 301.3628 L-11102.28 301.3628 L-11098.86 302.8474 L-11096.35 302.3835 L-11095.88 299.6 L-11093.11 298.9505 L-11091.81 300.2497 L-11091.34 303.2186 L-11089.67 304.5175 L-11088.28 293.7547 L-11069.07 296.5383 L-11042.91 300.2497 L-11027.51 302.0123 L-10998.38 305.2598 L-10988.17 306.6515 L-10987.15 292.3629 L-10985.85 287.2599 Z " opacity="1" fill="#D3D3D3" fill-opacity="0.58" />
      <path d="M-11166.41 341.7236 C-11187.37 337.7337 -11179.48 339.1256 -11185.98 337.6409 L-11181.89 321.404 L-11177.91 304.9813 L-11176.61 301.0845 L-11174.28 295.6103 L-11175.49 293.4763 L-11177.82 293.569 L-11178.55 292.6415 L-11178.09 291.6208 L-11177.82 288.7446 L-11173.64 283.6413 L-11171.97 283.1775 L-11170.95 282.1569 L-11170.39 279.1877 L-11169.56 278.5383 L-11165.94 273.1568 L-11162.32 269.1673 L-11162.13 265.6415 L-11165.28 263.2291 L-11166.49 259.1466 L-11166.13 250.1466 L-11162.69 234.8375 L-11158.52 215.5386 L-11154.99 203.0129 L-11154.25 199.4873 L-11142.19 201.8067 L-11146.08 221.755 L-11143.4 228.8994 L-11144.41 233.1674 L-11142.55 237.4354 L-11139.59 239.0128 L-11135.41 248.1054 L-11132.91 251.6311 L-11132.35 252.6518 L-11129.2 253.6724 L-11128.74 255.992 L-11135.14 271.5795 L-11134.86 274.6414 L-11132.35 277.3321 L-11130.59 277.796 L-11126.14 274.4559 L-11125.76 273.9919 L-11125.58 274.7342 L-11125.3 278.5383 L-11122.89 290.5074 L-11119.64 293.0125 L-11119.27 293.7547 L-11117.32 295.9815 L-11118.07 298.5793 L-11117.41 302.105 L-11115.65 302.9401 L-11113.7 301.4557 L-11111.29 300.9918 L-11108.13 302.4762 L-11105.82 301.9196 L-11102.28 301.7339 L-11098.58 303.2186 L-11096.07 302.9401 L-11095.24 300.8061 L-11092.92 299.3217 L-11092.26 300.899 L-11091.72 302.9401 L-11089.58 305.2598 L-11093.11 327.5278 L-11097.83 354.4348 L-11101.74 354.1563 L-11109.34 352.7646 L-11118.43 351.0945 L-11129.75 348.8678 L-11141.35 346.5482 L-11149.24 344.8781 L-11157.87 343.3008 L-11166.41 341.7236 Z " opacity="1" fill="#D3D3D3" fill-opacity="0.58" />
      <path d="M-11229.96 179.7244 L-11225.88 181.1162 L-11216.88 183.6212 L-11208.89 185.3842 L-11190.34 190.6727 L-11169 195.9615 L-11154.89 199.1161 L-11155.82 202.7344 L-11159.63 215.5386 L-11163.8 234.8375 L-11166.78 249.7756 L-11167.15 258.4971 L-11179.39 254.8787 L-11193.86 251.724 L-11206.58 252.2807 L-11208.06 250.889 L-11212.98 252.6518 L-11216.69 252.3734 L-11219.19 250.7034 L-11220.68 251.1673 L-11224.58 250.9817 L-11226.34 249.6828 L-11230.79 248.1054 L-11232.09 247.9198 L-11236.74 246.7137 L-11238.4 248.1054 L-11243.69 247.8272 L-11248.14 244.3013 L-11247.96 243.5592 L-11247.87 236.2292 L-11249.81 232.6108 L-11253.61 231.9612 L-11253.99 229.7344 L-11256.31 229.1777 L-11259 228.7138 L-11260.67 229.6416 L-11262.8 226.9509 L-11262.53 224.2602 L-11260.02 223.9818 L-11258.53 220.2706 L-11260.94 219.2499 L-11260.76 215.817 L-11256.68 215.2603 L-11259.18 212.7552 L-11260.58 206.1675 L-11260.02 203.4765 L-11260.02 196.1468 L-11261.69 193.1779 L-11259.55 184.4564 L-11257.6 184.9202 L-11255.39 187.6109 L-11252.87 190.0232 L-11249.91 191.7863 L-11245.73 193.7346 L-11242.86 194.2914 L-11240.17 195.6831 L-11237.01 196.6108 L-11234.87 196.4253 L-11234.87 194.1985 L-11233.67 193.1779 L-11231.72 191.9716 L-11231.45 192.9924 L-11231.17 194.6624 L-11233.3 195.1262 L-11233.58 197.0748 L-11231.91 198.4666 L-11230.88 200.6935 L-11230.34 202.4562 L-11228.94 202.2708 L-11228.75 201.0645 L-11229.68 199.8583 L-11230.14 196.8893 L-11229.41 195.219 L-11229.96 193.8272 L-11229.96 191.415 L-11228.28 188.075 L-11229.31 185.6624 L-11231.53 181.2087 L-11231.26 180.4666 L-11229.96 179.7244 Z M-11238.78 185.1987 L-11236.92 185.0128 L-11236.45 186.3119 L-11235.07 184.8276 L-11232.93 184.8276 L-11232.19 186.2193 L-11233.58 187.7964 L-11233.02 188.5387 L-11233.67 190.3945 L-11234.97 190.7657 C-11234.97 190.7657 -11235.8 190.8583 -11235.8 190.58 C-11235.8 190.3017 -11234.41 188.1676 -11234.41 188.1676 L-11235.99 187.6109 L-11236.27 189.0028 L-11236.92 189.5594 L-11238.31 187.4254 L-11238.78 185.1987 Z " fill-rule="evenodd" opacity="1" fill="#D3D3D3" fill-opacity="0.58" />
      <path d="M-10985.47 483.1248 L-10964.41 484.1453 L-10935.55 485.166 L-10937.69 506.9699 L-10937.97 523.8564 L-10937.88 525.8048 L-10933.89 529.3307 L-10932.31 530.0727 L-10930.64 530.351 L-10930 529.145 L-10929.15 529.98 L-10927.58 530.444 L-10926.09 529.7946 L-10925.07 530.1657 L-10925.35 533.3203 L-10921.36 534.2482 L-10918.86 534.9905 L-10915.15 535.4543 L-10913.11 537.1243 L-10910.14 535.6398 L-10907.54 536.0109 L-10905.68 538.609 L-10904.66 538.8871 L-10904.85 540.7427 L-10901.97 541.8561 L-10899.38 540.186 L-10897.98 540.5572 L-10895.76 540.7427 L-10895.39 542.5058 L-10891.12 544.3614 L-10888.61 544.176 L-10886.75 540.3718 L-10886.48 540.3718 L-10885.46 542.1347 L-10881.38 543.0624 L-10878.31 544.176 L-10875.25 544.9182 L-10873.3 544.176 L-10872.55 541.8561 L-10869.13 541.8561 L-10867.36 542.5984 L-10864.48 541.1139 L-10863.83 541.1139 L-10863.47 542.1347 L-10859.48 542.1347 L-10857.25 540.9285 L-10855.68 541.2067 L-10854.38 542.9697 L-10851.68 544.5471 L-10848.43 545.5677 L-10845.94 546.8664 L-10843.7 548.3512 L-10840.64 547.5162 L-10838.88 548.4439 L-10838.41 557.8149 L-10838.13 566.815 L-10837.49 575.6295 L-10837.03 579.3407 L-10834.52 583.6086 L-10833.49 587.4127 L-10829.89 593.258 L-10829.42 595.9487 L-10828.95 596.8766 L-10829.59 603.8351 L-10832.11 607.9179 L-10831.18 610.6087 L-10831.55 612.9282 L-10832.29 619.701 L-10833.59 622.2062 L-10833.03 626.2888 L-10838.33 627.7736 L-10847.51 631.9489 L-10848.43 633.7113 L-10850.85 635.4747 L-10852.8 636.8662 L-10854.01 637.6087 L-10859.29 642.5261 L-10861.79 644.4741 L-10866.72 647.4432 L-10872.01 649.6705 L-10877.85 652.8248 L-10879.52 654.2165 L-10884.9 657.5565 L-10888.06 658.1132 L-10891.68 663.2159 L-10895.39 663.4951 L-10896.31 665.2578 L-10894.18 667.0204 L-10895.57 672.1237 L-10896.78 676.299 L-10897.8 679.9171 L-10898.54 684.0928 L-10897.8 686.3196 L-10896.13 692.8142 L-10895.2 698.4742 L-10893.53 700.9794 L-10894.46 702.3713 L-10897.33 704.1342 L-10902.61 700.5155 L-10907.73 699.4949 L-10908.93 699.9589 L-10911.89 699.402 L-10915.8 696.5256 L-10920.62 695.5054 L-10927.67 692.3509 L-10929.61 688.7322 L-10930.82 682.701 L-10933.8 680.9382 L-10934.35 678.8043 L-10933.8 678.2476 L-10933.52 675.0928 L-10934.73 674.5364 L-10935.28 673.6084 L-10934.07 669.5258 L-10935.55 667.3917 L-10938.53 666.1851 L-10941.67 662.1031 L-10945.02 655.9791 L-10948.92 653.5673 L-10948.74 651.8046 L-10953.65 640.3921 L-10954.39 636.4952 L-10956.06 634.7321 L-10956.25 633.3401 L-10961.81 628.4226 L-10964.22 625.5466 L-10964.22 624.5261 L-10966.64 622.5775 L-10972.95 621.5574 L-10979.81 621.0001 L-10982.69 618.8662 L-10986.87 620.5363 L-10990.21 621.9282 L-10992.34 624.8975 L-10993.27 628.3306 L-10997.35 633.99 L-10999.58 636.2167 L-11001.99 635.2892 L-11003.66 634.2687 L-11005.42 633.7122 L-11009.04 631.5781 L-11009.04 631.0213 L-11010.71 629.258 L-11015.54 627.3094 L-11022.4 620.0728 L-11024.54 615.7122 L-11024.54 608.1965 L-11027.51 602.1656 L-11027.97 599.6603 L-11029.46 598.7327 L-11030.48 596.7843 L-11035.11 594.8359 L-11036.33 593.3511 L-11042.91 586.0215 L-11044.11 583.0519 L-11048.47 580.9185 L-11049.87 576.8358 L-11052.28 574.1451 L-11054.04 573.681 L-11054.6 569.3204 L-11047.18 569.9698 L-11020.26 572.475 L-10993.36 573.9596 L-10991.22 551.8774 L-10987.61 500.2899 L-10986.13 482.9395 L-10984.83 482.9395M-10892.6 700.1442 L-10893.16 693.5568 L-10895.66 686.8763 L-10896.22 680.3817 L-10894.83 672.7731 L-10891.77 666.3711 L-10888.52 661.3611 L-10885.55 658.0206 L-10884.99 658.2064 L-10889.45 664.3298 L-10893.53 670.361 L-10895.39 676.4844 L-10895.66 681.3091 L-10894.83 686.9688 L-10892.42 693.6495 L-10891.95 698.4742 L-10891.77 699.8655 L-10892.6 700.1442 Z " fill-rule="evenodd" opacity="1" fill="#D3D3D3" fill-opacity="0.58" />
      <path d="M-11189.97 532.6708 L-11186.45 532.2068 L-11185.05 530.351 L-11184.41 528.5884 L-11187.37 528.4956 L-11188.39 526.8255 L-11187.65 525.2482 L-11187.65 519.4958 L-11185.61 518.2894 L-11183.11 515.8771 L-11182.73 511.3306 L-11181.25 508.0835 L-11179.48 506.1349 L-11176.42 504.5578 L-11175.22 503.9081 L-11174.47 502.5165 L-11175.31 501.6815 L-11176.24 500.2895 L-11177.07 495.3721 L-11179.76 490.5474 L-11179.67 487.9494 L-11181.72 484.9804 L-11195.63 463.4547 L-11213.63 436.826 L-11234.41 406.2075 L-11246.2 388.1149 L-11244.53 381.4344 L-11238.21 357.4037 L-11230.7 328.2699 L-11242.2 325.2082 L-11254.74 322.0535 L-11266.42 318.2493 L-11273.38 316.3008 L-11283.96 313.5175 L-11290.54 311.2906 L-11292.03 315.6512 L-11292.21 322.5173 L-11297.04 333.4658 L-11299.92 335.8782 L-11300.2 336.8987 L-11301.87 337.6408 L-11303.26 341.5379 L-11304 344.507 L-11301.49 348.4039 L-11300.01 352.3006 L-11298.99 355.6409 L-11299.27 361.6718 L-11300.93 364.5481 L-11301.49 369.9294 L-11302.42 373.3624 L-11300.75 376.981 L-11298.25 381.1563 L-11296.12 385.6097 L-11294.91 389.3211 L-11295.19 392.2902 L-11295.47 392.7542 L-11295.47 394.7025 L-11290.17 400.5479 L-11290.64 402.7746 L-11291.2 404.9086 L-11291.75 406.6715 L-11291.57 414.2799 L-11289.62 417.7128 L-11287.85 420.1251 L-11285.35 420.5891 L-11284.42 423.0942 L-11285.45 426.4343 L-11287.39 427.9188 L-11288.41 427.9188 L-11289.16 431.5374 L-11288.69 434.2283 L-11285.73 438.3105 L-11284.24 443.228 L-11282.85 447.5889 L-11281.64 450.4651 L-11278.48 455.8465 L-11277.09 458.2589 L-11276.63 460.9496 L-11275.14 461.8775 L-11275.14 464.1042 L-11275.88 465.8671 L-11277.55 472.4547 L-11278.02 474.2176 L-11275.79 476.7227 L-11271.89 477.1866 L-11267.72 478.8567 L-11264.1 480.8053 L-11261.41 480.8053 L-11258.73 483.6814 L-11256.31 488.135 L-11255.28 490.269 L-11251.67 492.2173 L-11247.21 492.9599 L-11245.82 494.9082 L-11245.27 497.8773 L-11246.66 498.434 L-11246.38 499.362 L-11243.41 500.1041 L-11240.91 500.2895 L-11238.21 504.6504 L-11234.6 508.5472 L-11233.86 510.6813 L-11231.45 514.5784 L-11231.17 517.5473 L-11231.17 526.2687 L-11230.7 527.9388 L-11221.42 529.3307 L-11203.14 531.8357 L-11189.97 532.6708 Z M-11271.53 486.4648 L-11270.32 487.8567 L-11270.51 489.0629 L-11273.47 488.97 L-11274.03 487.8567 L-11274.59 486.4648 L-11271.53 486.4648 Z M-11269.76 486.4648 L-11268.65 485.9082 L-11265.31 487.8567 L-11262.43 488.97 L-11263.26 489.5267 L-11267.45 489.3412 L-11268.93 487.8567 L-11269.76 486.4648 Z M-11250.55 504.8361 L-11248.88 506.9699 L-11248.14 507.8977 L-11246.75 508.4544 L-11246.2 507.0627 L-11247.13 505.3925 L-11249.63 503.5371 L-11250.65 503.7226 L-11250.65 504.8361 Z M-11251.86 512.908 L-11250.19 515.8771 L-11249.08 517.64 L-11250.47 517.8258 L-11251.67 516.7122 C-11251.67 516.7122 -11252.33 515.3205 -11252.33 514.9493 C-11252.33 514.5784 -11252.33 512.908 -11252.33 512.908 L-11251.86 512.908 Z " fill-rule="evenodd" opacity="1" fill="#D3D3D3" fill-opacity="0.58" />
      <path d="M-11189.04 533.3203 L-11191.45 535.3614 L-11191.73 536.7532 L-11191.27 537.6812 L-11173.74 547.6089 L-11162.51 554.6606 L-11148.86 562.6395 L-11133.28 571.918 L-11121.87 574.145 L-11098.58 576.6501 L-11096.26 565.0521 L-11092.73 539.8153 L-11086.24 490.733 L-11082.25 461.9704 L-11105.07 458.5374 L-11130.31 454.2692 L-11161.3 448.4241 L-11163.99 465.2177 L-11164.46 465.6817 L-11166.03 468.094 L-11168.35 468.0012 L-11169.56 465.496 L-11172.07 465.2177 L-11172.89 464.1972 L-11173.74 464.1972 L-11174.57 464.754 L-11176.33 465.6817 L-11176.42 472.1766 L-11176.61 473.7539 L-11177.17 485.4444 L-11178.55 487.4857 L-11179.12 490.5475 L-11176.61 495.094 L-11175.4 500.4753 L-11174.66 501.4031 L-11173.74 501.9596 L-11173.82 504.0937 L-11175.31 505.3925 L-11178.47 506.9702 L-11180.22 508.7329 L-11181.62 512.1658 L-11182.18 516.7125 L-11184.87 519.2174 L-11186.82 519.8669 L-11186.91 525.2482 L-11187.37 526.8255 L-11186.91 527.5679 L-11183.47 528.1245 L-11184.03 530.6298 L-11185.42 532.671 L-11189.04 533.3203 Z " opacity="1" fill="#D3D3D3" fill-opacity="0.58" />
      <path d="M-11186.26 338.5689 L-11166.78 342.7441 L-11157.78 344.507 L-11149.14 346.1771 L-11143.02 347.6616 L-11143.58 353.1357 L-11146.82 369.1873 L-11150.63 387.7438 L-11152.4 396.7438 L-11154.43 409.0839 L-11157.4 424.3002 L-11160.65 438.8674 L-11162.51 448.3312 L-11164.82 463.9188 L-11165.28 464.9393 L-11166.31 467.2589 L-11168.08 467.1661 L-11169.09 464.6609 L-11171.6 464.197 L-11172.89 463.2691 L-11174.75 463.5475 L-11175.59 464.197 L-11176.8 465.4033 L-11177.17 471.898 L-11177.63 473.4753 L-11178 484.702 L-11179.21 486.2792 L-11180.97 484.1453 L-11194.42 463.0836 L-11212.42 436.1764 L-11233.67 404.8159 L-11245.18 387.5583 L-11243.69 381.4347 L-11237.19 357.4039 L-11229.86 328.3626 L-11198.69 335.8782 L-11185.98 338.6616" opacity="1" fill="#D3D3D3" fill-opacity="0.58" />
      <path d="M-11082.06 460.7639 L-11104.89 457.5166 L-11129.57 452.9702 L-11160.92 447.4033 L-11159.45 438.8674 L-11156.47 424.7643 L-11153.51 409.4549 L-11151.47 396.8366 L-11149.7 388.5789 L-11146.18 369.5583 L-11142.93 353.3214 L-11141.91 348.1255 L-11130.13 350.2594 L-11119 352.2079 L-11109.43 353.8781 L-11101.74 355.177 L-11098.3 355.6409 L-11099.69 365.476 L-11101.82 377.7233 L-11094.59 378.5583 L-11079.38 380.2284 L-11071.76 381.0635 L-11073.72 401.4756 L-11076.68 422.4449 L-11080.2 448.2383 L-11081.79 458.5374 L-11082.06 460.7639 Z " opacity="1" fill="#D3D3D3" fill-opacity="0.58" />
      <path d="M-10965.53 412.053 L-10964.22 392.2902 L-10994.01 389.4138 L-11016.74 386.9087 L-11051.35 383.1047 L-11070.55 380.7852 L-11072.97 401.3828 L-11075.94 422.1664 L-11079.47 448.1456 L-11080.86 458.4446 L-11081.14 461.0424 L-11049.68 464.5681 L-11014.7 468.5578 L-10985.01 471.5269 L-10969.61 472.2692" opacity="1" fill="#D3D3D3" fill-opacity="0.58" />
      <path d="M-11054.51 573.6808 L-11055.16 568.0211 L-11047.18 568.4849 L-11019.8 571.3613 L-10993.46 572.6604 L-10991.6 551.9697 L-10988.17 500.1041 L-10987.15 482.104 L-10985.29 482.3825 L-10985.29 472.0835 L-11015.17 469.857 L-11049.41 465.7744 L-11081.41 461.9703 L-11085.31 490.5474 L-11091.81 539.9078 L-11095.33 564.8666 L-11097.19 577.2065 L-11082.8 579.0623 L-11081.6 569.7841 L-11066.1 572.1964 L-11054.51 573.6808 Z " opacity="1" fill="#D3D3D3" fill-opacity="0.58" />
      <path d="M-11186.63 337.7337 L-11182.64 321.1256 L-11178.28 304.5175 L-11177.25 300.6206 L-11175.03 295.4248 L-11175.59 294.3112 L-11177.91 294.3112 L-11179.12 292.734 L-11178.65 291.3423 L-11178.19 288.3733 L-11174.01 283.27 L-11172.34 282.2497 L-11171.32 281.229 L-11169.93 277.8887 L-11166.21 272.6001 L-11162.87 268.9816 L-11162.69 265.7342 L-11165.75 263.4147 L-11166.87 259.2394 L-11179.12 255.8064 L-11193.12 252.5591 L-11207.42 252.6518 L-11207.87 251.3529 L-11212.98 253.3013 L-11217.15 252.7446 L-11219.39 251.26 L-11220.59 251.9095 L-11224.95 251.724 L-11226.53 250.4251 L-11231.45 248.4766 L-11232.19 248.5694 L-11236.18 247.1777 L-11237.94 248.8478 L-11243.69 248.5694 L-11249.17 244.7653 L-11248.52 244.0229 L-11248.33 236.7859 L-11250.47 233.1674 L-11254.27 232.6108 L-11254.92 230.291 L-11257.14 229.8272 L-11262.53 231.7756 L-11264.66 237.8067 L-11267.63 247.0847 L-11270.6 253.1158 L-11275.24 266.1982 L-11281.27 278.8166 L-11288.79 290.5074 L-11290.54 293.198 L-11291.29 301.1774 L-11292.49 306.7443 L-11289.99 309.9918 L-11283.78 312.1259 L-11273.01 315.1876 L-11265.68 317.507 L-11254.17 320.8474 L-11241.83 324.1875 L-11229.59 327.5278" opacity="1" fill="#D3D3D3" fill-opacity="0.58" />
      <path d="M-10879.52 292.2702 L-10879.88 285.3114 L-10881.75 278.5383 L-10883.41 265.9198 L-10883.88 256.8272 L-10885.74 253.9509 L-10887.22 248.9405 L-10887.22 239.3839 L-10886.57 235.7653 L-10888.52 230.6624 L-10914.87 230.1056 L-10932.13 229.5489 L-10956.72 228.3427 L-10979.81 226.5799 L-10981.02 239.7549 L-10982.32 253.765 L-10984.46 276.8682 L-10984.92 287.0742 L-10932.22 290.6001 L-10879.52 292.2702 Z " opacity="1" fill="#D3D3D3" fill-opacity="0.58" />
      <path d="M-10878.13 362.3214 L-10879.06 361.3008 L-10880.45 357.9606 L-10878.78 354.5274 L-10877.75 349.3318 L-10880.17 347.3833 L-10880.45 344.878 L-10879.88 342.0947 L-10877.85 341.3524 L-10877.57 336.0637 L-10877.66 308.136 L-10878.21 305.3524 L-10882.02 302.0123 L-10882.95 300.1567 L-10882.95 298.3938 L-10881.19 297.1876 L-10879.79 295.4248 L-10879.61 292.9197 L-10932.87 291.4351 L-10985.01 287.8165 L-10985.75 292.734 L-10987.24 307.4865 L-10988.45 324.0946 L-10989.93 346.9193 L-10975.08 347.8471 L-10956.89 348.8678 L-10940.2 350.0739 L-10918.12 351.2802 L-10908.19 350.5379 L-10905.49 352.6718 L-10901.51 355.4554 L-10900.58 356.1974 L-10897.33 355.3626 L-10893.62 355.0843 L-10891.12 354.9915 L-10888.24 356.1049 L-10884.07 357.4039 L-10881.19 359.0739 L-10880.63 360.8367 L-10879.79 362.5996 L-10879.15 362.1357 L-10878.13 362.3214 Z " opacity="1" fill="#D3D3D3" fill-opacity="0.58" />
      <path d="M-10867.55 402.9603 L-10866.25 405.4653 L-10866.16 407.4138 L-10863.93 410.8467 L-10861.42 413.8159 L-10866.07 413.8159 L-10906.42 412.9808 L-10944.29 412.1457 L-10963.95 411.218 L-10962.93 391.4551 L-10993.92 388.95 L-10989.93 348.1255 L-10975.55 349.0534 L-10956.81 350.0739 L-10940.29 351.0945 L-10918.21 352.1151 L-10908.28 351.6512 L-10906.33 353.785 L-10901.88 356.5687 L-10900.86 357.4039 L-10896.87 356.1049 L-10893.25 355.6409 L-10890.74 355.4554 L-10889.08 356.7544 L-10884.43 358.2389 L-10881.65 359.7232 L-10881.19 361.2079 L-10880.35 363.1564 L-10878.68 363.1564 L-10877.94 363.1564 L-10877.01 367.9811 L-10874.51 375.4037 L-10873.4 379.6716 L-10871.45 383.1974 L-10870.98 387.7438 L-10869.68 391.7336 L-10869.21 397.7645" opacity="1" fill="#D3D3D3" fill-opacity="0.58" />
      <path d="M-10791.09 360.8368 L-10790.91 362.5996 L-10788.78 363.6203 L-10787.76 364.8266 L-10787.47 366.0325 L-10783.86 369.0015 L-10783.21 371.0431 L-10783.95 373.7336 L-10785.35 376.981 L-10786.09 379.4861 L-10788.13 380.9706 L-10789.7 381.5273 L-10794.81 382.9191 L-10795.46 385.0532 L-10796.2 387.187 L-10795.64 388.486 L-10794.07 390.0633 L-10794.07 393.4963 L-10796.11 394.9809 L-10796.57 396.3726 L-10796.57 398.6924 L-10797.96 399.1561 L-10799.54 400.455 L-10800 401.8467 L-10799.54 403.424 L-10800.83 404.5376 L-10802.97 402.0325 L-10804.36 399.6199 L-10812.07 400.3622 L-10821.53 400.9189 L-10844.73 401.5684 L-10856.79 401.7541 L-10865.51 401.9397 L-10866.72 402.0325 L-10868.29 397.8573 L-10868.49 391.7336 L-10869.96 387.9294 L-10870.61 383.0121 L-10872.75 379.579 L-10873.58 375.1253 L-10876.09 368.1666 L-10877.11 363.1564 L-10878.4 361.1153 L-10879.88 358.6101 L-10878.21 354.6205 L-10876.92 349.3318 L-10879.42 347.3833 L-10879.88 344.878 L-10879.06 342.5585 L-10877.47 342.5585 L-10866.81 342.5585 L-10820.79 341.9091 L-10802.32 341.2593 L-10800.56 343.7647 L-10798.89 346.1771 L-10798.43 346.9193 L-10800.1 349.4245 L-10799.63 353.3214 L-10797.31 356.9399 L-10794.53 358.6101 L-10792.3 358.7956 L-10791.09 360.8368 Z " opacity="1" fill="#D3D3D3" fill-opacity="0.58" />
      <path d="M-10737.28 607.0831 L-10737.56 608.2888 L-10742.39 608.2888 L-10743.78 607.5464 L-10745.73 607.2684 L-10752.03 609.0311 L-10753.71 608.2888 L-10756.11 612.1863 L-10757.14 612.9282 L-10758.15 610.6087 L-10759.18 606.99 L-10762.34 604.0211 L-10761.31 597.0623 L-10761.96 596.2272 L-10763.63 596.4127 L-10771.24 597.0623 L-10793.69 597.7117 L-10794.16 596.2272 L-10793.51 588.8047 L-10790.35 583.0519 L-10785.43 574.6089 L-10786.27 572.6604 L-10785.25 572.6604 L-10784.6 569.6914 L-10786.74 568.0212 L-10786.55 566.3513 L-10788.5 562.0833 L-10788.78 557.1655 L-10787.47 554.6606 L-10787.85 550.6706 L-10789.14 547.8873 L-10787.85 546.5884 L-10789.14 544.6399 L-10788.68 542.9698 L-10787.85 537.2171 L-10785.06 534.7121 L-10785.72 532.7637 L-10782.28 527.8463 L-10779.78 527.0113 L-10779.78 524.6917 L-10780.42 523.3926 L-10777.92 518.4752 L-10775.41 517.4547 L-10775.33 514.2999 L-10767.25 514.2073 L-10744.89 512.4443 L-10740.62 512.2587 L-10740.62 518.1967 L-10740.43 533.6917 L-10741.18 562.454 L-10741.36 575.5367 L-10738.86 592.98 L-10737.28 607.0831 Z " opacity="1" fill="#D3D3D3" fill-opacity="0.58" />
      <path d="M-10743.03 452.9702 L-10742.94 450.2796 L-10742.47 446.1042 L-10740.35 443.4137 L-10738.68 439.795 L-10736.26 435.8982 L-10736.73 430.5169 L-10738.39 428.0117 L-10738.68 425.0427 L-10737.93 419.9395 L-10738.39 413.4447 L-10739.6 398.5994 L-10740.81 384.3108 L-10741.73 373.4554 L-10738.86 374.2903 L-10737.47 375.2181 L-10736.45 374.9398 L-10734.5 373.177 L-10731.9 371.6922 L-10727.17 371.507 L-10706.76 369.3727 L-10701.56 368.9088 L-10700.17 383.7542 L-10696.18 417.8983 L-10695.62 423.2797 L-10696.09 425.2282 L-10694.97 426.8983 L-10694.88 428.1973 L-10697.2 429.6818 L-10700.45 431.1662 L-10703.42 431.7229 L-10703.97 436.2693 L-10708.24 439.3311 L-10710.84 443.0426 L-10710.56 445.2694 L-10711.12 446.6612 L-10714.18 446.6612 L-10715.66 445.1766 L-10717.98 446.3827 L-10720.48 447.7745 L-10720.3 450.6507 L-10721.41 450.9291 L-10721.88 450.0012 L-10723.92 448.6096 L-10726.98 449.8156 L-10728.46 452.5991 L-10729.76 451.8568 L-10731.16 450.3724 L-10735.33 450.8361 L-10740.54 451.7641 L-10743.03 452.9702 Z " opacity="1" fill="#D3D3D3" fill-opacity="0.58" />
      <path d="M-10743.59 453.6197 L-10743.59 450.2796 L-10743.31 445.7333 L-10741.08 442.8569 L-10739.41 439.3311 L-10737 435.7126 L-10737.38 430.7952 L-10739.22 427.5478 L-10739.32 424.4859 L-10738.68 419.5685 L-10739.41 412.8879 L-10740.43 398.2284 L-10741.64 384.3109 L-10742.47 373.5482 L-10742.75 372.713 L-10743.5 370.3007 L-10744.7 366.8677 L-10746.19 365.1974 L-10747.58 362.7852 L-10747.76 357.6822 L-10756.95 358.8882 L-10782.19 360.4656 L-10790.26 360.0945 L-10790.08 362.3214 L-10787.94 362.9709 L-10787.11 363.9914 L-10786.64 365.6614 L-10783.02 368.8162 L-10782.38 370.9501 L-10783.02 374.1047 L-10784.69 377.5378 L-10785.35 379.8572 L-10787.47 381.5273 L-10789.14 382.1769 L-10794.07 383.4757 L-10794.72 385.146 L-10795.36 387.187 L-10794.72 388.486 L-10793.04 389.9706 L-10793.23 393.7746 L-10794.9 395.2593 L-10795.55 396.7438 L-10795.55 399.2489 L-10797.22 399.7128 L-10798.7 400.7335 L-10798.89 402.0325 L-10798.7 403.9809 L-10800.27 405.187 L-10801.21 407.7849 L-10800.74 411.218 L-10798.61 417.9911 L-10791.84 424.9498 L-10786.74 428.3828 L-10786.92 432.3724 L-10786.09 433.6714 L-10780.15 434.1353 L-10777.64 435.4343 L-10778.29 438.8674 L-10780.42 444.3415 L-10781.08 447.3105 L-10778.94 450.9291 L-10773 455.8465 L-10768.74 456.496 L-10766.79 461.1353 L-10764.83 464.1042 L-10765.68 466.8876 L-10764.19 470.6918 L-10762.52 472.6403 L-10760.76 471.898 L-10760.11 469.857 L-10758.25 468.5578 L-10755.28 467.5373 L-10752.41 468.6505 L-10749.72 469.6713 L-10748.97 469.4857 L-10749.07 468.3723 L-10750.08 465.7744 L-10749.72 463.5475 L-10747.58 462.063 L-10745.35 461.1353 L-10744.24 460.7639 L-10744.8 459.558 L-10745.54 457.5166 L-10744.43 456.3105 L-10743.59 453.6197 Z " opacity="1" fill="#D3D3D3" fill-opacity="0.58" />
      <path d="M-10878.96 293.0125 L-10879.42 285.1259 L-10881.09 278.3527 L-10882.76 265.827 L-10883.23 256.7342 L-10884.9 253.5798 L-10886.39 248.9405 L-10886.39 239.3839 L-10885.74 235.7653 L-10887.41 230.6624 L-10859.48 230.6624 L-10859.2 223.054 L-10858.64 222.8685 L-10856.51 223.3323 L-10854.74 224.0745 L-10854.01 229.1777 L-10852.61 234.8375 L-10851.13 236.322 L-10846.67 236.322 L-10846.39 237.7137 L-10840.55 237.9919 L-10840.55 239.9407 L-10836.09 239.9407 L-10835.81 238.7343 L-10834.8 237.7137 L-10832.67 237.1571 L-10831.46 238.0849 L-10828.76 238.0849 L-10825.15 240.4972 L-10820.23 242.7242 L-10818 243.1879 L-10817.54 242.2601 L-10816.15 241.7962 L-10815.68 244.487 L-10813.27 245.6931 L-10812.81 245.2291 L-10811.6 245.4146 L-10811.6 247.3632 L-10809.19 248.2911 L-10806.31 248.2911 L-10804.82 247.5487 L-10801.86 244.5797 L-10799.44 244.1158 L-10798.7 245.786 L-10798.24 246.992 L-10797.31 246.992 L-10796.39 246.2498 L-10788.13 245.9715 L-10786.46 248.8478 L-10785.89 248.8478 L-10785.25 247.8272 L-10781.17 247.456 L-10781.73 249.59 L-10785.35 251.26 L-10793.88 255.0642 L-10798.33 256.9198 L-10801.21 259.3322 L-10803.44 262.6723 L-10805.57 266.2909 L-10807.24 267.0332 L-10811.42 271.6725 L-10812.62 271.858 L-10816.15 274.5487 L-10818.74 277.5176 L-10818.93 280.3013 L-10818.74 287.5383 L-10820.23 289.0227 L-10825.05 292.5486 L-10826.73 297.8372 L-10824.41 301.1774 L-10823.95 303.497 L-10824.96 306.2802 L-10825.15 309.7135 L-10824.68 316.3011 L-10821.53 320.1052 L-10818.74 320.1052 L-10816.42 322.2392 L-10813.46 323.5381 L-10810.02 328.1773 L-10803.44 332.8162 L-10801.76 334.7646 L-10801.58 339.8678 L-10820.69 340.5174 L-10876.55 340.9812 L-10876.83 307.8576 L-10877.29 305.0742 L-10881.09 301.9196 L-10882.11 300.2497 L-10882.11 298.7648 L-10880.17 297.2804 L-10878.87 295.9815 L-10878.96 293.0125 Z " opacity="1" fill="#D3D3D3" fill-opacity="0.58" />
      <path d="M-10748.14 356.7544 L-10747.76 353.9709 L-10749.25 349.7956 L-10749.81 344.1358 L-10750.82 341.9091 L-10749.9 339.0328 L-10749.16 336.3421 L-10747.76 333.9297 L-10748.33 330.775 L-10748.88 327.4349 L-10748.42 325.7648 L-10746.65 323.5381 L-10746.47 321.0329 L-10747.21 319.8268 L-10746.65 317.4144 L-10746.19 314.4452 L-10743.68 309.1566 L-10740.99 302.8474 L-10740.81 300.7134 L-10741.08 299.7856 L-10741.83 300.2497 L-10745.73 306.0948 L-10748.23 309.8062 L-10749.99 311.4762 L-10750.74 313.6103 L-10752.13 314.3527 L-10753.15 316.1154 L-10754.54 315.837 L-10754.73 314.167 L-10753.52 311.9401 L-10751.57 307.5793 L-10749.9 306.0948 L-10748.88 303.9607 L-10750.37 303.1258 L-10751.66 301.8269 L-10753.15 292.2702 L-10756.58 291.2495 L-10757.88 289.1156 L-10769.57 286.6105 L-10771.89 285.5898 L-10779.5 283.4558 L-10787.11 282.4352 L-10791 277.4247 L-10791.46 278.6311 L-10792.49 278.4455 L-10793.04 277.4247 L-10795.55 276.6825 L-10796.57 276.8682 L-10798.24 277.796 L-10799.17 277.2393 L-10798.61 275.4765 L-10796.85 272.6001 L-10795.82 271.5795 L-10797.59 270.1878 L-10799.54 270.9301 L-10802.23 272.6929 L-10809.09 275.6619 L-10811.79 276.2187 L-10814.48 275.7548 L-10815.41 274.9197 L-10817.35 277.5176 L-10817.54 280.0228 L-10817.54 287.9093 L-10818.56 289.3938 L-10823.48 293.0125 L-10825.61 298.4866 L-10825.15 298.6722 L-10822.82 300.6206 L-10822.18 303.5898 L-10823.85 306.5589 L-10823.85 310.1772 L-10823.39 316.3011 L-10820.6 319.0843 L-10817.45 319.0843 L-10815.78 322.0535 L-10812.62 322.5173 L-10809.01 327.806 L-10802.42 331.6102 L-10800.47 334.1154 L-10799.63 340.9812 L-10798.98 344.0431 L-10796.85 345.5275 L-10796.66 346.8266 L-10798.61 349.981 L-10798.43 352.95 L-10796.11 356.5687 L-10793.79 357.5894 L-10791 358.0531 L-10789.79 359.3521 L-10781.26 359.3521 L-10757.04 357.9606 L-10748.14 356.7544 Z " opacity="1" fill="#D3D3D3" fill-opacity="0.58" />
      <path d="M-10801.12 405.2798 L-10803.44 402.4036 L-10804.46 400.2695 L-10811.69 400.9189 L-10820.79 401.3828 L-10844.35 402.2179 L-10856.88 402.4036 L-10864.21 402.4963 L-10866.34 402.589 L-10865.14 404.9086 L-10865.33 407.0426 L-10863 410.6612 L-10860.13 414.4653 L-10857.25 416.9704 L-10855.12 417.1561 L-10853.81 417.9911 L-10853.81 420.7745 L-10855.48 422.2593 L-10855.95 424.3931 L-10854.01 427.5478 L-10851.68 430.3313 L-10849.36 432.0014 L-10848.07 442.8569 L-10848.72 475.6092 L-10848.53 479.9702 L-10848.07 484.9804 L-10826.35 484.8877 L-10804.82 484.2382 L-10785.53 483.4959 L-10774.67 483.3102 L-10772.63 486.4648 L-10773.29 489.5267 L-10776.16 491.7536 L-10776.72 493.4237 L-10771.7 493.8875 L-10768.09 493.2379 L-10766.51 488.135 L-10765.86 482.661 L-10763.72 480.8053 L-10762.14 479.4135 L-10760.2 478.4856 L-10760.11 475.795 L-10759.55 474.2176 L-10760.47 472.64 L-10762.98 472.7329 L-10765.02 470.3207 L-10766.33 466.4237 L-10765.58 464.1042 L-10767.34 460.9495 L-10769.01 456.6813 L-10773.47 455.9392 L-10779.96 450.7433 L-10781.53 446.9393 L-10780.8 443.9702 L-10778.85 438.3105 L-10778.39 435.6198 L-10780.15 434.6918 L-10786.55 433.9497 L-10787.47 432.3722 L-10787.57 428.4754 L-10792.67 425.3209 L-10799.17 418.0837 L-10801.3 411.3106 L-10801.49 407.4138 L-10801.12 405.2798 Z " opacity="1" fill="#D3D3D3" fill-opacity="0.58" />
      <path d="M-10768.46 493.8875 L-10771.98 494.7227 L-10777.74 494.2589 L-10777.08 491.4753 L-10774.12 488.97 L-10773.65 486.8361 L-10775.33 484.0526 L-10785.53 484.5165 L-10804.82 485.3516 L-10826.45 486.0011 L-10848.25 486.4648 L-10846.77 492.8669 L-10846.77 500.4753 L-10845.47 510.6813 L-10845.28 545.7533 L-10843.14 547.5162 L-10840.36 546.2171 L-10837.86 547.2377 L-10837.49 556.7945 L-10816.24 556.7018 L-10798.7 555.9595 L-10789.34 555.7737 L-10788.31 553.8254 L-10788.59 550.5779 L-10790.26 547.7945 L-10788.78 546.4024 L-10790.26 544.0834 L-10789.61 541.7637 L-10788.31 536.5677 L-10785.99 534.6191 L-10786.64 532.485 L-10783.21 527.4751 L-10780.7 526.1761 L-10780.8 524.7844 L-10781.08 523.1141 L-10778.39 517.9185 L-10776.16 516.7122 L-10775.79 513.5577 L-10774.12 512.4442 L-10773.29 508.5472 L-10774.48 504.8361 L-10770.78 502.6091 L-10770.21 500.7535 L-10769.11 496.7639 L-10768.46 493.8875 Z " opacity="1" fill="#D3D3D3" fill-opacity="0.58" />
      <path d="M-10968.59 473.1041 L-10978.52 472.6403 L-10984.46 472.1763 L-10984.18 472.3619 L-10984.83 482.0114 L-10964.41 483.3102 L-10934.63 484.5165 L-10936.76 507.1556 L-10937.23 523.6708 L-10937.04 525.1555 L-10933.06 528.5884 L-10931.11 529.6089 L-10930.45 529.4236 L-10929.81 527.4751 L-10928.51 529.145 L-10926.56 529.145 L-10926.56 527.8459 L-10924.06 529.145 L-10924.52 532.7637 L-10920.71 532.9491 L-10918.39 533.9701 L-10914.59 534.6191 L-10912.27 536.2894 L-10910.14 534.3409 L-10906.98 534.9905 L-10904.66 538.1451 L-10903.83 538.1451 L-10903.83 540.2791 L-10901.69 540.9288 L-10899.55 538.7946 L-10897.88 539.4439 L-10895.57 539.4439 L-10894.73 541.7637 L-10890.28 543.4338 L-10888.98 542.7842 L-10887.31 538.9799 L-10886.29 538.9799 L-10885.27 540.9288 L-10881.47 541.5779 L-10878.03 542.877 L-10875.25 543.7119 L-10873.58 542.877 L-10872.93 540.5574 L-10868.95 540.5574 L-10866.99 541.3924 L-10864.48 539.4439 L-10863.47 539.4439 L-10862.82 540.9288 L-10859.01 540.9288 L-10857.53 538.9799 L-10855.86 539.4439 L-10853.91 541.7637 L-10850.94 543.4338 L-10847.97 544.2688 L-10846.21 545.2893 L-10846.58 510.7742 L-10847.88 500.5681 L-10848.07 492.3102 L-10849.36 486.2792 L-10850.11 479.5988 L-10850.2 476.0731 L-10861.42 476.3516 L-10904.48 475.8876 L-10946.22 473.9391 L-10968.59 473.1041 Z " opacity="1" fill="#D3D3D3" fill-opacity="0.58" />
      <path d="M-10849.73 475.4238 L-10861.42 475.6092 L-10904.2 475.1456 L-10945.58 473.197 L-10968.41 471.9908 L-10964.6 411.9602 L-10944.38 412.7023 L-10906.8 414.0014 L-10865.88 414.4653 L-10861.15 414.4653 L-10858.18 417.4344 L-10855.58 417.6199 L-10854.74 418.6406 L-10854.74 420.4961 L-10856.42 421.9808 L-10856.88 424.3931 L-10854.83 427.7334 L-10852.52 430.6095 L-10850.2 432.4653 L-10849.18 442.857 L-10849.73 475.4238 Z " opacity="1" fill="#D3D3D3" fill-opacity="0.58" />
      <path d="M-10758.07 612.6495 L-10758.99 610.2374 L-10760.01 607.3611 L-10763.07 604.114 L-10762.24 597.8046 L-10762.34 596.7838 L-10763.54 597.0626 L-10771.15 597.8973 L-10794.34 598.3611 L-10795 596.1344 L-10794.16 588.2481 L-10791.09 582.7736 L-10786.46 574.7015 L-10787.01 572.4749 L-10785.81 571.8253 L-10785.35 569.9698 L-10787.47 568.0211 L-10787.57 566.2582 L-10789.24 562.2686 L-10789.7 556.7945 L-10798.7 556.8871 L-10816.52 557.7219 L-10837.12 557.7219 L-10837.12 566.6296 L-10836.46 575.3507 L-10835.81 578.9697 L-10833.49 582.7736 L-10832.67 587.4127 L-10828.68 592.516 L-10828.49 595.485 L-10827.84 596.1344 L-10828.49 604.0211 L-10831.27 608.6599 L-10829.79 610.6087 L-10830.43 612.9282 L-10831.08 619.7014 L-10832.38 622.6703 L-10832.29 626.0102 L-10827.94 624.6189 L-10820.41 624.3409 L-10810.86 627.6809 L-10804.82 628.7014 L-10801.4 627.3094 L-10798.43 628.3301 L-10795.46 629.258 L-10794.72 627.3094 L-10797.68 626.2888 L-10800.1 626.7527 L-10802.6 625.2682 C-10802.6 625.2682 -10802.42 624.0623 -10801.86 623.8761 C-10801.3 623.6908 -10798.98 622.9489 -10798.98 622.9489 L-10797.31 624.3409 L-10795.64 623.4126 L-10792.67 623.9689 L-10791.28 626.1961 L-10791 628.3301 L-10786.83 628.6087 L-10785.15 630.2787 L-10785.89 631.7628 L-10787.11 632.5054 L-10785.62 633.9893 L-10777.82 637.3301 L-10774.48 636.124 L-10773.56 633.8967 L-10771.15 633.3401 L-10769.48 631.9489 L-10768.27 632.8761 L-10767.53 635.5673 L-10769.67 636.3094 L-10769.11 636.8662 L-10765.95 635.66 L-10763.81 632.5054 L-10763.07 632.0414 L-10765.02 631.7628 L-10764.28 630.2787 L-10764.47 628.8867 L-10762.52 628.4226 L-10761.49 627.2162 L-10760.95 627.9589 C-10760.95 627.9589 -10761.13 630.8355 -10760.39 630.8355 C-10759.64 630.8355 -10756.49 631.3915 -10756.49 631.3915 L-10752.78 633.1549 L-10751.85 634.5466 L-10749.16 634.5466 L-10748.14 635.4747 L-10746 632.598 L-10746 631.2061 L-10747.21 631.2061 L-10750.37 628.7014 L-10755.75 627.9589 L-10758.72 625.825 L-10757.69 623.3195 L-10755.56 623.5981 L-10755.38 623.0414 L-10757.04 622.1136 L-10757.04 621.6495 L-10754.08 621.6495 L-10752.41 618.7729 L-10753.61 617.0102 L-10753.89 614.5054 L-10755.28 614.6909 L-10757.04 616.6396 L-10757.6 619.0515 L-10760.47 618.4949 L-10761.41 616.8248 L-10759.74 615.0623 L-10757.88 613.3922 L-10758.07 612.6495 Z " opacity="1" fill="#D3D3D3" fill-opacity="0.58" />
      <path d="M-10547.73 423.5581 L-10547.82 421.7952 L-10541.79 419.4756 L-10542.54 422.4449 L-10545.23 425.9703 L-10545.59 430.2384 L-10545.13 433.3931 L-10546.8 438.0321 L-10548.84 439.795 L-10550.23 435.5271 L-10549.86 430.5169 L-10548.38 426.62 L-10547.73 423.5581 Z M-10545.59 449.8157 L-10599.59 461.5064 L-10634.29 466.4238 L-10640.51 466.0527 L-10642.92 467.8155 L-10649.69 468.0012 L-10657.48 468.929 L-10665.74 469.857 L-10657.86 465.3105 L-10657.86 463.3619 L-10656.47 461.4136 L-10646.63 450.7434 L-10643.02 454.9188 L-10639.49 455.8465 L-10637.17 454.8259 L-10635.13 453.6197 L-10632.81 454.8259 L-10629.19 453.5269 L-10627.42 449.2589 L-10625.01 449.7227 L-10622.32 447.7745 L-10620.65 448.2383 L-10618.06 444.8054 L-10617.78 442.8569 L-10618.7 441.6507 L-10617.78 439.8879 L-10612.86 428.4758 L-10612.3 423.1869 L-10611.19 422.7231 L-10609.15 424.9498 L-10605.53 424.6714 L-10603.77 417.6199 L-10601.17 417.0633 L-10600.24 414.5581 L-10597.82 412.4241 L-10596.63 410.29 L-10595.23 407.1354 L-10595.14 402.4036 L-10586.04 405.9292 C-10585.4 406.2076 -10585.4 401.4756 -10585.4 401.4756 L-10581.59 402.7746 L-10582.06 405.187 L-10574.45 407.8777 L-10573.24 409.5478 L-10574.08 412.9808 L-10575.29 414.187 L-10575.76 415.7644 L-10575.29 417.9911 L-10573.42 419.1972 L-10569.81 420.4961 L-10567.12 421.4241 L-10562.57 422.2593 L-10560.53 424.2074 L-10557.56 424.5787 L-10556.73 425.6922 L-10557.09 430.053 L-10555.8 431.0735 L-10556.27 432.8364 L-10555.15 433.5785 L-10555.34 434.8776 L-10557.83 434.7849 L-10557.74 436.2693 L-10555.61 437.6612 L-10555.52 438.9601 L-10553.85 440.6299 L-10553.39 442.9495 L-10555.8 444.2485 L-10554.31 445.6403 L-10548.93 444.063 L-10545.59 449.8157 Z " fill-rule="evenodd" opacity="1" fill="#D3D3D3" fill-opacity="0.58" />
      <g>
        <path d="M-10572.87 409.2695 L-10573.89 407.7849 L-10574.82 407.0426 L-10573.8 405.5581 L-10571.76 406.9498 L-10572.87 409.2695 Z " opacity="1" fill="#D3D3D3" fill-opacity="0.58" />
        <ellipse cx="-10573.33" cy="407.4138" rx="4.640626" ry="4.639183" opacity="1" stroke="#FFFFFF" stroke-opacity="1" stroke-width="1.5" stroke-linecap="butt" stroke-linejoin="miter" stroke-dasharray="none" fill="#D3D3D3" fill-opacity="0.58" />
      </g>
    </g>
    <rect x="-11628" y="54" width="216" height="81" opacity="1" stroke="#000000" stroke-opacity="1" stroke-width="1" stroke-linecap="butt" stroke-linejoin="miter" stroke-dasharray="none" fill="#FFFFFF" fill-opacity="1" filter="url(#shadow1)" />
    <text x="-11563.01" y="103.1906" font-size="36" fill="#000000" fill-opacity="1" font-family="Arial" font-weight="normal" font-style="normal">Clock</text>
    <rect x="-11628" y="171" width="216" height="81" opacity="1" stroke="#000000" stroke-opacity="1" stroke-width="1" stroke-linecap="butt" stroke-linejoin="miter" stroke-dasharray="none" fill="#FFFFFF" fill-opacity="1" filter="url(#shadow1)" />
    <text x="-11556.69" y="220.1906" font-size="36" fill="#000000" fill-opacity="1" font-family="Arial" font-weight="normal" font-style="normal">View</text>
    <rect x="-11628" y="288" width="216" height="81" opacity="1" stroke="#000000" stroke-opacity="1" stroke-width="1" stroke-linecap="butt" stroke-linejoin="miter" stroke-dasharray="none" fill="#FFFFFF" fill-opacity="1" filter="url(#shadow1)" />
    <text x="-11558.02" y="337.1906" font-size="36" fill="#000000" fill-opacity="1" font-family="Arial" font-weight="normal" font-style="normal">Sync</text>
    <rect x="-11628" y="549" width="216" height="99" opacity="1" stroke="#000000" stroke-opacity="1" stroke-width="1" stroke-linecap="butt" stroke-linejoin="miter" stroke-dasharray="none" fill="#FFFFFF" fill-opacity="1" filter="url(#shadow1)" />
    <text x="-11591.04" y="607.1906" font-size="36" fill="#000000" fill-opacity="1" font-family="Arial" font-weight="normal" font-style="normal">LayerList</text>
    <rect x="-11628" y="684" width="216" height="90" opacity="1" stroke="#000000" stroke-opacity="1" stroke-width="1" stroke-linecap="butt" stroke-linejoin="miter" stroke-dasharray="none" fill="#FFFFFF" fill-opacity="1" filter="url(#shadow1)" />
    <text x="-11585.04" y="716.6906" font-size="36" fill="#000000" fill-opacity="1" font-family="Arial" font-weight="normal" font-style="normal">selected
</text>
    <text x="-11557.01" y="758.6906" font-size="36" fill="#000000" fill-opacity="1" font-family="Arial" font-weight="normal" font-style="normal">layer</text>
    <rect x="-11628" y="810" width="216" height="90" opacity="1" stroke="#000000" stroke-opacity="1" stroke-width="1" stroke-linecap="butt" stroke-linejoin="miter" stroke-dasharray="none" fill="#FFFFFF" fill-opacity="1" filter="url(#shadow1)" />
    <text x="-11585.04" y="842.6906" font-size="36" fill="#000000" fill-opacity="1" font-family="Arial" font-weight="normal" font-style="normal">selected
</text>
    <text x="-11566.03" y="884.6906" font-size="36" fill="#000000" fill-opacity="1" font-family="Arial" font-weight="normal" font-style="normal">object</text>
    <line x1="-11790" y1="-45" x2="-11790" y2="1062" opacity="1" stroke="#000000" stroke-opacity="1" stroke-width="3" stroke-linecap="butt" stroke-linejoin="miter" stroke-dasharray="24,12,6,12" />
    <text x="-11589.03" y="-14.25781" font-size="30" fill="#000000" fill-opacity="1" font-family="Arial" font-weight="normal" font-style="normal">(collapsible)
</text>
    <text x="-11553.2" y="19.74219" font-size="30" fill="#000000" fill-opacity="1" font-family="Arial" font-weight="normal" font-style="normal">panels</text>
    <text x="-10638.19" y="107.6906" font-size="36" fill="#000000" fill-opacity="1" font-family="Arial" font-weight="normal" font-style="normal">WorldWind</text>
    <text x="-10571.2" y="173.7422" font-size="30" fill="#000000" fill-opacity="1" font-family="Arial" font-weight="normal" font-style="normal">OpenGL</text>
    <text x="-11365.35" y="-10.75781" font-size="30" fill="#000000" fill-opacity="1" font-family="Arial" font-weight="normal" font-style="normal">Swing</text>
    <rect x="-12168" y="-36" width="324" height="90" opacity="1" stroke="#000000" stroke-opacity="1" stroke-width="1" stroke-linecap="butt" stroke-linejoin="miter" stroke-dasharray="none" fill="#FFFFFF" fill-opacity="1" filter="url(#shadow1)" />
    <text x="-12142.73" y="17.69062" font-size="36" fill="#000000" fill-opacity="1" font-family="Arial" font-weight="normal" font-style="normal">RaceViewerActor</text>
    <text x="-12050.56" y="1057.191" font-size="36" fill="#000000" fill-opacity="1" font-family="Arial" font-weight="normal" font-style="normal">Akka threads</text>
    <text x="-11754.04" y="1057.191" font-size="36" fill="#000000" fill-opacity="1" font-family="Arial" font-weight="normal" font-style="normal">UI threads</text>
    <text x="-10955.21" y="-13.80937" font-size="36" fill="#000000" fill-opacity="1" font-family="Arial" font-weight="normal" font-style="normal">RaceView</text>
    <g>
      <rect x="-12105" y="432" width="216" height="81" opacity="1" stroke="#000000" stroke-opacity="1" stroke-width="1" stroke-linecap="butt" stroke-linejoin="miter" stroke-dasharray="none" fill="#FFFFFF" fill-opacity="1" filter="url(#shadow1)" />
      <text x="-12082.04" y="481.1906" font-size="36" fill="#000000" fill-opacity="1" font-family="Arial" font-weight="normal" font-style="normal">LayerActor</text>
      <rect x="-12123" y="414" width="216" height="81" opacity="1" stroke="#000000" stroke-opacity="1" stroke-width="1" stroke-linecap="butt" stroke-linejoin="miter" stroke-dasharray="none" fill="#FFFFFF" fill-opacity="1" filter="url(#shadow1)" />
      <text x="-12100.04" y="463.1906" font-size="36" fill="#000000" fill-opacity="1" font-family="Arial" font-weight="normal" font-style="normal">LayerActor</text>
      <rect x="-12141" y="396" width="216" height="81" opacity="1" stroke="#000000" stroke-opacity="1" stroke-width="1" stroke-linecap="butt" stroke-linejoin="miter" stroke-dasharray="none" fill="#FFFFFF" fill-opacity="1" filter="url(#shadow1)" />
      <text x="-12118.04" y="445.1906" font-size="36" fill="#000000" fill-opacity="1" font-family="Arial" font-weight="normal" font-style="normal">LayerActor</text>
    </g>
    <rect x="-11448" y="441" width="315" height="81" opacity="1" stroke="#000000" stroke-opacity="1" stroke-width="1" stroke-linecap="butt" stroke-linejoin="miter" stroke-dasharray="none" fill="#FFFFFF" fill-opacity="1" filter="url(#shadow1)" />
    <text x="-11375.55" y="491.0988" font-size="36" fill="#000000" fill-opacity="1" font-family="Arial" font-weight="normal" font-style="normal">RaceLayer</text>
    <rect x="-11466" y="423" width="315" height="81" opacity="1" stroke="#000000" stroke-opacity="1" stroke-width="1" stroke-linecap="butt" stroke-linejoin="miter" stroke-dasharray="none" fill="#FFFFFF" fill-opacity="1" filter="url(#shadow1)" />
    <text x="-11393.55" y="473.0988" font-size="36" fill="#000000" fill-opacity="1" font-family="Arial" font-weight="normal" font-style="normal">RaceLayer</text>
    <rect x="-11484" y="405" width="315" height="81" opacity="1" stroke="#000000" stroke-opacity="1" stroke-width="1" stroke-linecap="butt" stroke-linejoin="miter" stroke-dasharray="none" fill="#FFFFFF" fill-opacity="1" filter="url(#shadow1)" />
    <text x="-11411.55" y="454.1906" font-size="36" fill="#000000" fill-opacity="1" font-family="Arial" font-weight="normal" font-style="normal">RaceLayer</text>
    <line x1="-11844" y1="27" x2="-11683.99" y2="27" marker-end="url(#marker1)" opacity="1" stroke="#000000" stroke-opacity="1" stroke-width="2" stroke-linecap="butt" stroke-linejoin="miter" stroke-dasharray="8,8" />
    <rect x="-12141" y="279" width="216" height="81" opacity="1" stroke="#000000" stroke-opacity="1" stroke-width="1" stroke-linecap="butt" stroke-linejoin="miter" stroke-dasharray="none" fill="#FFFFFF" fill-opacity="1" filter="url(#shadow1)" />
    <text x="-12113.03" y="328.1906" font-size="36" fill="#000000" fill-opacity="1" font-family="Arial" font-weight="normal" font-style="normal">SyncActor</text>
    <line x1="-11628" y1="288" x2="-11923.01" y2="288" marker-end="url(#marker2)" opacity="1" stroke="#000000" stroke-opacity="1" stroke-width="2" stroke-linecap="butt" stroke-linejoin="miter" stroke-dasharray="8,8" />
    <line x1="-11484" y1="405" x2="-11923.01" y2="405" marker-end="url(#marker3)" opacity="1" stroke="#000000" stroke-opacity="1" stroke-width="2" stroke-linecap="butt" stroke-linejoin="miter" stroke-dasharray="8,8" />
    <g>
      <rect x="-12275.97" y="255.0129" width="17.85059" height="516.1089" opacity="1" stroke="#000000" stroke-opacity="1" stroke-width="1" stroke-linecap="butt" stroke-linejoin="miter" stroke-dasharray="none" fill="url(#gradient1)" />
      <ellipse cx="-12267.04" cy="254.6109" rx="8.956055" ry="2.610918" opacity="1" stroke="#000000" stroke-opacity="1" stroke-width="1" stroke-linecap="butt" stroke-linejoin="miter" stroke-dasharray="none" fill="#FFFFFF" fill-opacity="1" />
      <ellipse cx="-12266.96" cy="771.389" rx="8.956055" ry="2.611038" opacity="1" stroke="#000000" stroke-opacity="1" stroke-width="1" stroke-linecap="butt" stroke-linejoin="miter" stroke-dasharray="none" fill="#FFFFFF" fill-opacity="1" />
      <rect x="-12274.91" y="765.52" width="15.80273" height="5.704445" opacity="1" fill="url(#gradient2)" />
    </g>
    <line x1="-12239.06" y1="324" x2="-12159.94" y2="324" marker-start="url(#marker4)" marker-end="url(#marker5)" opacity="1" stroke="#000000" stroke-opacity="1" stroke-width="2" stroke-linecap="butt" stroke-linejoin="miter" stroke-dasharray="none" />
    <line x1="-12258" y1="441" x2="-12159.94" y2="441" marker-end="url(#marker6)" opacity="1" stroke="#000000" stroke-opacity="1" stroke-width="2" stroke-linecap="butt" stroke-linejoin="miter" stroke-dasharray="none" />
    <g>
      <rect x="-11682" y="297" width="108" height="54" opacity="1" fill="#FFFFFF" fill-opacity="1" />
      <rect x="-11655" y="306" width="18" height="36" opacity="1" stroke="#000000" stroke-opacity="1" stroke-width="1" stroke-linecap="butt" stroke-linejoin="miter" stroke-dasharray="none" fill="#FFFFFF" fill-opacity="1" />
      <rect x="-11637" y="306" width="18" height="36" opacity="1" stroke="#000000" stroke-opacity="1" stroke-width="1" stroke-linecap="butt" stroke-linejoin="miter" stroke-dasharray="none" fill="#FFFFFF" fill-opacity="1" />
      <rect x="-11619" y="306" width="18" height="36" opacity="1" stroke="#000000" stroke-opacity="1" stroke-width="1" stroke-linecap="butt" stroke-linejoin="miter" stroke-dasharray="none" fill="#FFFFFF" fill-opacity="1" />
      <line x1="-11673" y1="306" x2="-11583" y2="306" opacity="1" stroke="#000000" stroke-opacity="1" stroke-width="2" stroke-linecap="butt" stroke-linejoin="miter" stroke-dasharray="none" />
      <line x1="-11673" y1="342" x2="-11583" y2="342" opacity="1" stroke="#000000" stroke-opacity="1" stroke-width="2" stroke-linecap="butt" stroke-linejoin="miter" stroke-dasharray="none" />
    </g>
    <line x1="-11925" y1="324" x2="-11682.94" y2="324" marker-end="url(#marker7)" opacity="1" stroke="#000000" stroke-opacity="1" stroke-width="2" stroke-linecap="butt" stroke-linejoin="miter" stroke-dasharray="none" />
    <g>
      <rect x="-11538" y="414" width="108" height="54" opacity="1" fill="#FFFFFF" fill-opacity="1" />
      <rect x="-11511" y="423" width="18" height="36" opacity="1" stroke="#000000" stroke-opacity="1" stroke-width="1" stroke-linecap="butt" stroke-linejoin="miter" stroke-dasharray="none" fill="#FFFFFF" fill-opacity="1" />
      <rect x="-11493" y="423" width="18" height="36" opacity="1" stroke="#000000" stroke-opacity="1" stroke-width="1" stroke-linecap="butt" stroke-linejoin="miter" stroke-dasharray="none" fill="#FFFFFF" fill-opacity="1" />
      <rect x="-11475" y="423" width="18" height="36" opacity="1" stroke="#000000" stroke-opacity="1" stroke-width="1" stroke-linecap="butt" stroke-linejoin="miter" stroke-dasharray="none" fill="#FFFFFF" fill-opacity="1" />
      <line x1="-11529" y1="423" x2="-11439" y2="423" opacity="1" stroke="#000000" stroke-opacity="1" stroke-width="2" stroke-linecap="butt" stroke-linejoin="miter" stroke-dasharray="none" />
      <line x1="-11529" y1="459" x2="-11439" y2="459" opacity="1" stroke="#000000" stroke-opacity="1" stroke-width="2" stroke-linecap="butt" stroke-linejoin="miter" stroke-dasharray="none" />
    </g>
    <line x1="-11871" y1="441" x2="-11538.94" y2="441" marker-end="url(#marker8)" opacity="1" stroke="#000000" stroke-opacity="1" stroke-width="2" stroke-linecap="butt" stroke-linejoin="miter" stroke-dasharray="none" />
    <line x1="-11429.06" y1="216" x2="-11070.94" y2="216" marker-start="url(#marker9)" marker-end="url(#marker10)" opacity="1" stroke="#000000" stroke-opacity="1" stroke-width="2" stroke-linecap="butt" stroke-linejoin="miter" stroke-dasharray="none" />
    <line x1="-11429.06" y1="324" x2="-11178.94" y2="324" marker-start="url(#marker11)" marker-end="url(#marker12)" opacity="1" stroke="#000000" stroke-opacity="1" stroke-width="2" stroke-linecap="butt" stroke-linejoin="miter" stroke-dasharray="none" />
    <path d="M-11286 540.9437 L-11286 594 L-11420.06 594" marker-start="url(#marker13)" marker-end="url(#marker14)" opacity="1" stroke="#000000" stroke-opacity="1" stroke-width="2" stroke-linecap="butt" stroke-linejoin="miter" stroke-dasharray="none" fill-opacity="0" />
    <line x1="-11430" y1="696.5563" x2="-11430" y2="634.5" marker-start="url(#marker15)" opacity="1" stroke="#000000" stroke-opacity="1" stroke-width="2" stroke-linecap="butt" stroke-linejoin="miter" stroke-dasharray="none" />
    <line x1="-11430" y1="822.5563" x2="-11430" y2="760.5" marker-start="url(#marker16)" opacity="1" stroke="#000000" stroke-opacity="1" stroke-width="2" stroke-linecap="butt" stroke-linejoin="miter" stroke-dasharray="none" />
    <line x1="-11628" y1="351" x2="-11906.06" y2="351" marker-end="url(#marker17)" opacity="1" stroke="#000000" stroke-opacity="1" stroke-width="2" stroke-linecap="butt" stroke-linejoin="miter" stroke-dasharray="none" />
    <line x1="-11484" y1="468" x2="-11870.06" y2="468" marker-end="url(#marker18)" opacity="1" stroke="#000000" stroke-opacity="1" stroke-width="2" stroke-linecap="butt" stroke-linejoin="miter" stroke-dasharray="none" />
    <ellipse cx="-10980" cy="423" rx="9" ry="9" opacity="1" stroke="#000000" stroke-opacity="1" stroke-width="1" stroke-linecap="butt" stroke-linejoin="miter" stroke-dasharray="none" fill="#FFFFFF" fill-opacity="1" />
    <ellipse cx="-10917" cy="522" rx="9" ry="9" opacity="1" stroke="#000000" stroke-opacity="1" stroke-width="1" stroke-linecap="butt" stroke-linejoin="miter" stroke-dasharray="none" fill="#FFFFFF" fill-opacity="1" />
    <ellipse cx="-10998" cy="684" rx="9" ry="9" opacity="1" stroke="#000000" stroke-opacity="1" stroke-width="1" stroke-linecap="butt" stroke-linejoin="miter" stroke-dasharray="none" fill="#FFFFFF" fill-opacity="1" />
    <line x1="-10975.17" y1="430.5929" x2="-10921.83" y2="514.4071" opacity="1" stroke="#000000" stroke-opacity="1" stroke-width="1" stroke-linecap="butt" stroke-linejoin="miter" stroke-dasharray="none" />
    <line x1="-10921.03" y1="530.0498" x2="-10993.97" y2="675.9501" opacity="1" stroke="#000000" stroke-opacity="1" stroke-width="1" stroke-linecap="butt" stroke-linejoin="miter" stroke-dasharray="none" />
    <g>
      <path d="M-11241 693.4121 C-11241 693.4121 -11160.86 693.0364 -11159.95 693.9766 C-11158.78 695.1663 -11159.65 745.128 -11159.65 745.128 L-11194.12 745.128 L-11165.39 775.2571 L-11207.91 745.3656 L-11241 745.84 L-11241 693.4121 Z " opacity="1" stroke="#000000" stroke-opacity="1" stroke-width="2" stroke-linecap="butt" stroke-linejoin="round" stroke-dasharray="none" fill="#FFFFFF" fill-opacity="1" />
    </g>
    <text x="-11237" y="710.8969" font-size="12" fill="#000000" fill-opacity="1" font-family="Arial" font-weight="normal" font-style="normal">flight: XYZ 123
</text>
    <text x="-11237" y="724.8969" font-size="12" fill="#000000" fill-opacity="1" font-family="Arial" font-weight="normal" font-style="normal">alt: 20000ft
</text>
    <text x="-11237" y="738.8969" font-size="12" fill="#000000" fill-opacity="1" font-family="Arial" font-weight="normal" font-style="normal">speed: 300 kts</text>
    <g>
      <path d="M-11149 774 L-11160 785.0001 L-11149 796.0003 L-11138 785.0001 Z " opacity="1" stroke="#000000" stroke-opacity="1" stroke-width="1" stroke-linecap="butt" stroke-linejoin="miter" stroke-dasharray="none" fill="#7F7F7F" fill-opacity="1" />
    </g>
    <line x1="-11142.41" y1="780.5909" x2="-11005.48" y2="689.0038" opacity="1" stroke="#000000" stroke-opacity="1" stroke-width="1" stroke-linecap="butt" stroke-linejoin="miter" stroke-dasharray="none" />
    <path d="M-11160 828.9437 L-11160 873 L-11420.06 873" marker-start="url(#marker19)" marker-end="url(#marker20)" opacity="1" stroke="#000000" stroke-opacity="1" stroke-width="2" stroke-linecap="butt" stroke-linejoin="miter" stroke-dasharray="none" fill-opacity="0" />
    <text x="-11021" y="210.7422" font-size="30" fill="#000000" fill-opacity="1" font-family="Arial" font-weight="normal" font-style="normal">- eye position
</text>
    <text x="-11021" y="244.7422" font-size="30" fill="#000000" fill-opacity="1" font-family="Arial" font-weight="normal" font-style="normal">- map projection</text>
    <text x="-11129" y="314.2422" font-size="30" fill="#000000" fill-opacity="1" font-family="Arial" font-weight="normal" font-style="normal">eye position
</text>
    <text x="-11129" y="348.2422" font-size="30" fill="#000000" fill-opacity="1" font-family="Arial" font-weight="normal" font-style="normal">layer/object selection</text>
    <text x="-11111" y="493.2422" font-size="30" fill="#000000" fill-opacity="1" font-family="Arial" font-weight="normal" font-style="normal">display data</text>
    <text x="-11274.53" y="818.2422" font-size="30" fill="#000000" fill-opacity="1" font-family="Arial" font-weight="normal" font-style="normal">object </text>
    <text x="-11293.7" y="852.2422" font-size="30" fill="#000000" fill-opacity="1" font-family="Arial" font-weight="normal" font-style="normal">selection</text>
    <text x="-12227" y="512.2422" font-size="30" fill="#000000" fill-opacity="1" font-family="Arial" font-weight="normal" font-style="normal">viewer
</text>
    <text x="-12227" y="546.2422" font-size="30" fill="#000000" fill-opacity="1" font-family="Arial" font-weight="normal" font-style="normal"> data</text>
    <line x1="-11659.5" y1="720" x2="-12239.06" y2="720" marker-end="url(#marker21)" opacity="1" stroke="#000000" stroke-opacity="1" stroke-width="2" stroke-linecap="butt" stroke-linejoin="miter" stroke-dasharray="none" />
    <text x="-12227" y="260.2422" font-size="30" fill="#000000" fill-opacity="1" font-family="Arial" font-weight="normal" font-style="normal">viewer
</text>
    <text x="-12227" y="294.2422" font-size="30" fill="#000000" fill-opacity="1" font-family="Arial" font-weight="normal" font-style="normal"> sync</text>
    <text x="-12209" y="691.2422" font-size="30" fill="#000000" fill-opacity="1" font-family="Arial" font-weight="normal" font-style="normal">ChannelTopic requests</text>
    <text x="-12296.02" y="215.6906" font-size="36" fill="#000000" fill-opacity="1" font-family="Arial" font-weight="normal" font-style="normal">Bus</text>
    <text x="-11264.93" y="584.2422" font-size="30" fill="#000000" fill-opacity="1" font-family="Arial" font-weight="normal" font-style="normal">layer
</text>
    <text x="-11291.62" y="618.2422" font-size="30" fill="#000000" fill-opacity="1" font-family="Arial" font-weight="normal" font-style="normal">selection</text>
    <text x="-12129.52" y="1007.691" font-size="36" fill="#000000" fill-opacity="1" font-family="Arial" font-weight="normal" font-style="normal">actors</text>
    <text x="-11601.76" y="1007.691" font-size="36" fill="#000000" fill-opacity="1" font-family="Arial" font-weight="normal" font-style="normal">Swing / Worldwind objects</text>
    <g>
      <g>
        <g>
          <path d="M-12312 -26 L-12312 34.00001 Q-12300.5 44 -12266 44 Q-12231.5 44 -12220 34.00001 L-12220 -26 Z " opacity="1" stroke="#000000" stroke-opacity="1" stroke-width="1" stroke-linecap="butt" stroke-linejoin="miter" stroke-dasharray="none" fill="#FFFFFF" fill-opacity="1" />
          <text x="-12300.45" y="16.48806" font-size="26" fill="#000000" fill-opacity="1" font-family="Arial" font-weight="normal" font-style="normal">config</text>
          <ellipse cx="-12266" cy="-26" rx="45.99976" ry="9.999996" opacity="1" stroke="#000000" stroke-opacity="1" stroke-width="1" stroke-linecap="butt" stroke-linejoin="miter" stroke-dasharray="none" fill="#FFFFFF" fill-opacity="1" />
        </g>
      </g>
    </g>
    <line x1="-12222" y1="0" x2="-12186.94" y2="0" marker-end="url(#marker22)" opacity="1" stroke="#000000" stroke-opacity="1" stroke-width="2" stroke-linecap="butt" stroke-linejoin="miter" stroke-dasharray="none" />
    <text x="-12245" y="80.24219" font-size="30" fill="#000000" fill-opacity="1" font-family="Arial" font-weight="normal" font-style="normal">layers, </text>
    <text x="-12245" y="114.2422" font-size="30" fill="#000000" fill-opacity="1" font-family="Arial" font-weight="normal" font-style="normal">panels</text>
  </g>
</svg>