<?xml version="1.0" encoding="utf-8"?>
<svg width="100%" height="100%" version="1.1" viewBox="294 78 672 486.875" xmlns:xlink="http://www.w3.org/1999/xlink" xmlns:inkscape="http://www.inkscape.org/namespaces/inkscape" xmlns="http://www.w3.org/2000/svg">
  <defs>
    <filter id="shadow1" width="150%" height="150%">
      <feGaussianBlur in="SourceAlpha" result="blur" stdDeviation="3" />
      <feOffset dx="3" dy="3" in="blur" result="offsetBlur" />
      <feMerge>
        <feMergeNode in="offsetBlur" />
        <feMergeNode in="SourceGraphic" />
      </feMerge>
    </filter>
  </defs>
  <marker id="marker1" markerUnits="strokeWidth" orient="auto" refX="-11.17254" refY="0" markerWidth="13.27247" markerHeight="10.22955" viewBox="-12.27247 -5.114774 13.27247 10.22955">
    <path d="M-11.27247 -4.114774 L0 0 L-11.27247 4.114773 Z " fill="#000000" fill-opacity="1" stroke="#000000" stroke-opacity="1" />
  </marker>
  <marker id="marker2" markerUnits="strokeWidth" orient="auto" refX="-11.17254" refY="0" markerWidth="13.27247" markerHeight="10.22955" viewBox="-12.27247 -5.114774 13.27247 10.22955">
    <path d="M-11.27247 -4.114774 L0 0 L-11.27247 4.114773 Z " fill="#000000" fill-opacity="1" stroke="#000000" stroke-opacity="1" />
  </marker>
  <marker id="marker3" markerUnits="strokeWidth" orient="auto" refX="-11.17254" refY="0" markerWidth="13.27247" markerHeight="10.22955" viewBox="-12.27247 -5.114774 13.27247 10.22955">
    <path d="M-11.27247 -4.114774 L0 0 L-11.27247 4.114773 Z " fill="#000000" fill-opacity="1" stroke="#000000" stroke-opacity="1" />
  </marker>
  <marker id="marker4" markerUnits="strokeWidth" orient="auto" refX="-11.17254" refY="0" markerWidth="13.27247" markerHeight="10.22955" viewBox="-12.27247 -5.114774 13.27247 10.22955">
    <path d="M-11.27247 -4.114774 L0 0 L-11.27247 4.114773 Z " fill="#000000" fill-opacity="1" stroke="#000000" stroke-opacity="1" />
  </marker>
  <marker id="marker5" markerUnits="strokeWidth" orient="auto" refX="-11.17254" refY="0" markerWidth="13.27247" markerHeight="10.22955" viewBox="-12.27247 -5.114774 13.27247 10.22955">
    <path d="M-11.27247 -4.114774 L0 0 L-11.27247 4.114773 Z " fill="#000000" fill-opacity="1" stroke="#000000" stroke-opacity="1" />
  </marker>
  <marker id="marker6" markerUnits="strokeWidth" orient="auto" refX="-11.17254" refY="0" markerWidth="13.27247" markerHeight="10.22955" viewBox="-12.27247 -5.114774 13.27247 10.22955">
    <path d="M-11.27247 -4.114774 L0 0 L-11.27247 4.114773 Z " fill="#000000" fill-opacity="1" stroke="#000000" stroke-opacity="1" />
  </marker>
  <marker id="marker7" markerUnits="strokeWidth" orient="auto" refX="-11.17254" refY="0" markerWidth="13.27247" markerHeight="10.22955" viewBox="-12.27247 -5.114774 13.27247 10.22955">
    <path d="M-11.27247 -4.114774 L0 0 L-11.27247 4.114773 Z " fill="#000000" fill-opacity="1" stroke="#000000" stroke-opacity="1" />
  </marker>
  <g id="layer1" inkscape:label="Layer 1" inkscape:groupmode="layer">
    <rect x="531" y="297" width="180" height="108" rx="18" ry="18" opacity="1" stroke="#000000" stroke-opacity="1" stroke-width="1" stroke-linecap="butt" stroke-linejoin="miter" stroke-dasharray="2,2" fill="#FBF8C5" fill-opacity="1" />
    <text x="584.8362" y="316" font-size="15" fill="#000000" fill-opacity="1" font-family="Helvetica" font-weight="normal" font-style="normal">zim</text>
    <rect x="297" y="297" width="171" height="108" rx="18" ry="18" opacity="1" stroke="#000000" stroke-opacity="1" stroke-width="1" stroke-linecap="butt" stroke-linejoin="miter" stroke-dasharray="2,2" fill="#FDF9D0" fill-opacity="1" />
    <rect x="783" y="297" width="180" height="108" rx="18" ry="18" opacity="1" stroke="#000000" stroke-opacity="1" stroke-width="1" stroke-linecap="butt" stroke-linejoin="miter" stroke-dasharray="2,2" fill="#FBF8C5" fill-opacity="1" />
    <rect x="801" y="324" width="126" height="63" opacity="1" stroke="#000000" stroke-opacity="1" stroke-width="1" stroke-linecap="butt" stroke-linejoin="miter" stroke-dasharray="none" fill="#B0FFEC" fill-opacity="1" filter="url(#shadow1)" />
    <text x="842.6694" y="361.3004" font-size="18" fill="#000000" fill-opacity="1" font-family="Arial" font-weight="normal" font-style="normal">FDz 2</text>
    <rect x="324" y="324" width="126" height="63" opacity="1" stroke="#000000" stroke-opacity="1" stroke-width="1" stroke-linecap="butt" stroke-linejoin="miter" stroke-dasharray="none" fill="#B0FFEC" fill-opacity="1" filter="url(#shadow1)" />
    <text x="366.7725" y="361.3004" font-size="18" fill="#000000" fill-opacity="1" font-family="Arial" font-weight="normal" font-style="normal">FDz 1</text>
    <g>
      <g>
        <path d="M569.3065 503.4403 L571.1296 503.4311 L572.9283 503.4053 L574.7014 503.3627 L576.4456 503.3035 L578.1594 503.2293 L579.8397 503.138 L581.4868 503.0334 L583.0943 502.9137 L584.6639 502.7799 L586.191 502.631 L587.6741 502.4702 L589.1116 502.2958 L590.5006 502.109 L591.8394 501.9101 L593.1237 501.6992 L594.3547 501.4774 L595.5281 501.2439 L596.6409 501.0008 L597.6927 500.7473 L598.681 500.4847 L599.6024 500.2129 L600.4555 499.9323 L601.2372 499.6425 L601.9462 499.3448 L602.5807 499.0413 L603.1378 498.7286 L603.6159 498.4113 L604.0106 498.0865 L604.3218 497.7555 L604.548 497.4198 L604.6846 497.0784 L604.7302 496.734 C604.7302 493.0284 588.8687 490.0273 569.3065 490.0273 C549.7457 490.0273 533.8893 493.0284 533.8893 496.734 C533.8893 500.4392 549.7457 503.4403 569.3065 503.4403 Z " opacity="1" fill="#FFFFFF" fill-opacity="1" />
        <path d="M569.3065 503.4403 L571.1296 503.4311 L572.9283 503.4053 L574.7014 503.3627 L576.4456 503.3035 L578.1594 503.2293 L579.8397 503.138 L581.4868 503.0334 L583.0943 502.9137 L584.6639 502.7799 L586.191 502.631 L587.6741 502.4702 L589.1116 502.2958 L590.5006 502.109 L591.8394 501.9101 L593.1237 501.6992 L594.3547 501.4774 L595.5281 501.2439 L596.6409 501.0008 L597.6927 500.7473 L598.681 500.4847 L599.6024 500.2129 L600.4555 499.9323 L601.2372 499.6425 L601.9462 499.3448 L602.5807 499.0413 L603.1378 498.7286 L603.6159 498.4113 L604.0106 498.0865 L604.3218 497.7555 L604.548 497.4198 L604.6846 497.0784 L604.7302 496.734 C604.7302 493.0284 588.8687 490.0273 569.3065 490.0273 C549.7457 490.0273 533.8893 493.0284 533.8893 496.734 C533.8893 500.4392 549.7457 503.4403 569.3065 503.4403 Z " opacity="1" stroke="#000000" stroke-opacity="1" stroke-width="0.14999" stroke-linecap="butt" stroke-linejoin="miter" stroke-dasharray="none" fill-opacity="0" />
        <path d="M569.4962 515.2106 L571.3193 515.168 L573.1166 515.0438 L574.8866 514.8424 L576.6277 514.5685 L578.337 514.2271 L580.0128 513.8235 L581.6522 513.3602 L583.2552 512.8441 L584.8173 512.2795 L586.3368 511.6725 L587.8123 511.0242 L589.2422 510.3408 L590.6219 509.6292 L591.9517 508.8928 L593.2283 508.1353 L594.4489 507.3611 L595.6132 506.5781 L596.7182 505.7884 L597.7612 504.9962 L598.7402 504.2083 L599.6541 503.4282 L600.4995 502.6614 L601.2737 501.9118 L601.9765 501.1847 L602.6035 500.4835 L603.156 499.8155 L603.6281 499.1822 L604.0197 498.5919 L604.3264 498.0469 L604.5495 497.5521 L604.6846 497.1134 L604.7302 496.734 C604.7302 493.0284 588.8687 490.0273 569.3065 490.0273 C549.7457 490.0273 533.8893 493.0284 533.8893 496.734 C533.8893 500.4392 549.9354 515.2106 569.4962 515.2106 Z " opacity="1" fill="#036998" fill-opacity="1" />
        <path d="M569.3065 503.4403 L571.1296 503.4311 L572.9283 503.4053 L574.7014 503.3627 L576.4456 503.3035 L578.1594 503.2293 L579.8397 503.138 L581.4868 503.0334 L583.0943 502.9137 L584.6639 502.7799 L586.191 502.631 L587.6741 502.4702 L589.1116 502.2958 L590.5006 502.109 L591.8394 501.9101 L593.1237 501.6992 L594.3547 501.4774 L595.5281 501.2439 L596.6409 501.0008 L597.6927 500.7473 L598.681 500.4847 L599.6024 500.2129 L600.4555 499.9323 L601.2372 499.6425 L601.9462 499.3448 L602.5807 499.0413 L603.1378 498.7286 L603.6159 498.4113 L604.0106 498.0865 L604.3218 497.7555 L604.548 497.4198 L604.6846 497.0784 L604.7302 496.734 C604.7302 493.0284 588.8687 490.0273 569.3065 490.0273 C549.7457 490.0273 533.8893 493.0284 533.8893 496.734 C533.8893 500.4392 549.7457 503.4403 569.3065 503.4403 Z " opacity="1" fill="#FFFFFF" fill-opacity="1" />
        <path d="M569.3065 503.4403 L571.1296 503.4311 L572.9283 503.4053 L574.7014 503.3627 L576.4456 503.3035 L578.1594 503.2293 L579.8397 503.138 L581.4868 503.0334 L583.0943 502.9137 L584.6639 502.7799 L586.191 502.631 L587.6741 502.4702 L589.1116 502.2958 L590.5006 502.109 L591.8394 501.9101 L593.1237 501.6992 L594.3547 501.4774 L595.5281 501.2439 L596.6409 501.0008 L597.6927 500.7473 L598.681 500.4847 L599.6024 500.2129 L600.4555 499.9323 L601.2372 499.6425 L601.9462 499.3448 L602.5807 499.0413 L603.1378 498.7286 L603.6159 498.4113 L604.0106 498.0865 L604.3218 497.7555 L604.548 497.4198 L604.6846 497.0784 L604.7302 496.734 C604.7302 493.0284 588.8687 490.0273 569.3065 490.0273 C549.7457 490.0273 533.8893 493.0284 533.8893 496.734 C533.8893 500.4392 549.7457 503.4403 569.3065 503.4403 Z " opacity="1" stroke="#036998" stroke-opacity="1" stroke-width="0.39999" stroke-linecap="butt" stroke-linejoin="miter" stroke-dasharray="none" fill-opacity="0" />
        <path d="M560.0983 491.7109 C554.5122 492.0494 549.5499 492.7019 545.6775 493.5674" opacity="1" stroke="#036998" stroke-opacity="1" stroke-width="0.375" stroke-linecap="butt" stroke-linejoin="miter" stroke-dasharray="none" fill-opacity="0" />
        <path d="M560.4778 493.1105 C555.0526 493.5082 550.3089 494.2321 546.7211 495.1809" opacity="1" stroke="#036998" stroke-opacity="1" stroke-width="0.375" stroke-linecap="butt" stroke-linejoin="miter" stroke-dasharray="none" fill-opacity="0" />
        <path d="M560.8635 494.6165 C555.5565 495.0792 550.9844 495.8914 547.6817 496.9358" opacity="1" stroke="#036998" stroke-opacity="1" stroke-width="0.375" stroke-linecap="butt" stroke-linejoin="miter" stroke-dasharray="none" fill-opacity="0" />
        <path d="M561.6285 496.3725 C556.4461 496.8766 552.0287 497.748 548.9564 498.8683" opacity="1" stroke="#036998" stroke-opacity="1" stroke-width="0.375" stroke-linecap="butt" stroke-linejoin="miter" stroke-dasharray="none" fill-opacity="0" />
        <path d="M561.9958 498.0089 C557.0806 498.5723 552.9714 499.5208 550.2315 500.7065" opacity="1" stroke="#036998" stroke-opacity="1" stroke-width="0.375" stroke-linecap="butt" stroke-linejoin="miter" stroke-dasharray="none" fill-opacity="0" />
        <path d="M562.6652 499.9414 C558.764 500.4755 555.4549 501.2756 553.0776 502.2608" opacity="1" stroke="#036998" stroke-opacity="1" stroke-width="0.375" stroke-linecap="butt" stroke-linejoin="miter" stroke-dasharray="none" fill-opacity="0" />
        <path d="M562.8915 501.7388 C561.3203 502.0223 559.8737 502.3608 558.5804 502.7407" opacity="1" stroke="#036998" stroke-opacity="1" stroke-width="0.375" stroke-linecap="butt" stroke-linejoin="miter" stroke-dasharray="none" fill-opacity="0" />
        <path d="M533.7945 497.3744 L569.4962 479.4666 L604.7302 496.734" opacity="1" stroke="#036998" stroke-opacity="1" stroke-width="0.39999" stroke-linecap="butt" stroke-linejoin="miter" stroke-dasharray="none" fill-opacity="0" />
        <path d="M569.686 483.9965 L569.8104 483.9948 L569.9333 483.9902 L570.0548 483.9827 L570.1733 483.9723 L570.2901 483.9585 L570.4055 483.9431 L570.5178 483.9235 L570.6271 483.9023 L570.7349 483.8781 L570.8381 483.8506 L570.9398 483.8218 L571.0385 483.7913 L571.1326 483.7568 L571.2252 483.7217 L571.3117 483.6838 L571.3968 483.6429 L571.4772 483.6016 L571.5531 483.5578 L571.6244 483.512 L571.6927 483.4653 L571.7549 483.4149 L571.8126 483.3648 L571.8673 483.3132 L571.9159 483.2585 L571.9583 483.2039 L571.9963 483.148 L572.0297 483.0901 L572.0571 483.0309 L572.0783 482.9717 L572.0935 482.9112 L572.1025 482.8503 L572.1056 482.7866 C572.1056 482.1232 571.0203 481.5783 569.686 481.5783 C568.3517 481.5783 567.2739 482.1232 567.2739 482.7866 C567.2739 483.4574 568.3517 483.9965 569.686 483.9965 Z " opacity="1" fill="#036998" fill-opacity="1" />
        <path d="M569.686 477 L568.9269 501.8572 L570.6347 501.8572 Z " opacity="1" fill="#036998" fill-opacity="1" />
        <path d="M578.9836 519.5037 L578.9836 515.519 L561.9063 515.519 L561.9063 519.5037 Z " opacity="1" fill="#036998" fill-opacity="1" />
        <path d="M565.132 519.1243 L575.9476 519.1243 L575.9476 526.3345 C575.9476 526.3345 564.9422 529.7501 565.132 529.7501 C565.3217 529.7501 565.132 519.1243 565.132 519.1243 Z " opacity="1" fill="#036998" fill-opacity="1" />
      </g>
    </g>
    <text x="613.0381" y="551.8172" font-size="14" fill="#000000" fill-opacity="1" font-family="Arial" font-weight="normal" font-style="normal">ADS-B data</text>
    <g>
      <g>
        <path d="M584.9841 239.7114 L584.9841 218.2331 L522.8471 218.2331 L522.8471 239.7114 Z " opacity="1" fill="#00A6D4" fill-opacity="1" />
        <path d="M522.8471 239.7114 L584.9841 239.7114 L584.9841 218.2331 L522.8471 218.2331 Z " opacity="1" stroke="#FFFFFF" stroke-opacity="1" stroke-width="0.39999" stroke-linecap="butt" stroke-linejoin="miter" stroke-dasharray="none" fill-opacity="0" />
        <path d="M522.684 218.3355 L547.783 198 L605.7615 198 L584.9232 218.3355 Z " opacity="1" fill="#00A6D4" fill-opacity="1" />
        <path d="M522.684 218.3355 L547.783 198 L605.7615 198 L584.9232 218.3355 Z " opacity="1" stroke="#FFFFFF" stroke-opacity="1" stroke-width="0.39999" stroke-linecap="butt" stroke-linejoin="miter" stroke-dasharray="none" fill-opacity="0" />
        <path d="M584.9493 240.3432 L605.7006 217.9216 L605.7145 198.033 L584.9493 218.3078 Z " opacity="1" fill="#00A6D4" fill-opacity="1" />
        <path d="M584.9493 240.3432 L605.7006 217.9216 L605.7145 198.033 L584.9493 218.3078 Z " opacity="1" stroke="#FFFFFF" stroke-opacity="1" stroke-width="0.39999" stroke-linecap="butt" stroke-linejoin="miter" stroke-dasharray="none" fill-opacity="0" />
        <path d="M559.1101 213.0426 L557.9012 214.0339 L542.4081 214.0339 L540.86 215.5768 L536.6606 213.7487 L545.106 211.3361 L543.6118 213.0426 Z " opacity="1" fill="#FFFFFF" fill-opacity="1" />
        <path d="M571.2861 205.4326 L570.0772 206.4241 L554.5841 206.4241 L553.036 207.967 L548.837 206.1387 L557.2819 203.728 L555.7878 205.4326 Z " opacity="1" fill="#FFFFFF" fill-opacity="1" />
        <path d="M561.841 210.3586 L563.0447 209.3671 L578.543 209.3671 L580.0911 207.8242 L584.29 209.6525 L575.8452 212.0702 L577.3393 210.3586 Z " opacity="1" fill="#FFFFFF" fill-opacity="1" />
        <path d="M569.8859 202.7486 L571.0895 201.7573 L586.5878 201.7573 L588.1359 200.2144 L592.3349 202.0424 L583.89 204.4603 L585.3841 202.7486 Z " opacity="1" fill="#FFFFFF" fill-opacity="1" />
        <path d="M581.7905 235.9745 L581.7905 221.3587 L567.1828 221.3587 L567.1828 235.9745 Z " opacity="1" fill="#00A6D4" fill-opacity="1" />
        <path d="M567.1828 235.9745 L581.7905 235.9745 L581.7905 221.3587 L567.1828 221.3587 Z " opacity="1" stroke="#FFFFFF" stroke-opacity="1" stroke-width="0.39999" stroke-linecap="butt" stroke-linejoin="miter" stroke-dasharray="none" fill-opacity="0" />
        <path d="M543.7753 235.3493 L544.5946 235.2874 L545.4034 235.2103 L546.2001 235.1186 L546.9828 235.0128 L547.7499 234.8929 L548.5013 234.7598 L549.2372 234.6139 L549.9538 234.4555 L550.6531 234.2849 L551.3314 234.1029 L551.9907 233.9099 L552.6273 233.7062 L553.243 233.4923 L553.8328 233.269 L554.3998 233.0361 L554.9407 232.7944 L555.4556 232.5444 L555.9426 232.2868 L556.4001 232.0214 L556.8297 231.7488 L557.2298 231.47 L557.5968 231.1851 L557.9326 230.8943 L558.2334 230.5986 L558.5013 230.2981 L558.7345 229.9931 L558.931 229.6845 L559.0892 229.3725 L559.2109 229.0574 L559.2927 228.74 L559.3345 228.4206 L559.3345 228.0993 C559.1101 224.675 551.7784 222.3572 542.9665 222.9365 C534.1464 223.5069 527.1819 226.7542 527.4061 230.1854 C527.6303 233.6098 534.955 235.9267 543.7753 235.3493 Z " opacity="1" fill="#00A6D4" fill-opacity="1" />
        <path d="M543.7753 235.3493 L544.5946 235.2874 L545.4034 235.2103 L546.2001 235.1186 L546.9828 235.0128 L547.7499 234.8929 L548.5013 234.7598 L549.2372 234.6139 L549.9538 234.4555 L550.6531 234.2849 L551.3314 234.1029 L551.9907 233.9099 L552.6273 233.7062 L553.243 233.4923 L553.8328 233.269 L554.3998 233.0361 L554.9407 232.7944 L555.4556 232.5444 L555.9426 232.2868 L556.4001 232.0214 L556.8297 231.7488 L557.2298 231.47 L557.5968 231.1851 L557.9326 230.8943 L558.2334 230.5986 L558.5013 230.2981 L558.7345 229.9931 L558.931 229.6845 L559.0892 229.3725 L559.2109 229.0574 L559.2927 228.74 L559.3345 228.4206 L559.3345 228.0993 C559.1101 224.675 551.7784 222.3572 542.9665 222.9365 C534.1464 223.5069 527.1819 226.7542 527.4061 230.1854 C527.6303 233.6098 534.955 235.9267 543.7753 235.3493 Z " opacity="1" stroke="#FFFFFF" stroke-opacity="1" stroke-width="0.39999" stroke-linecap="butt" stroke-linejoin="miter" stroke-dasharray="none" fill-opacity="0" />
        <path d="M539.5625 226.9513 L541.0096 228.8467 L536.1033 230.3213 L537.1294 229.3429 L529.3427 228.5273 L531.184 226.9513 L538.6988 227.7257 Z " opacity="1" fill="#FFFFFF" fill-opacity="1" />
        <path d="M546.8871 231.293 L545.861 229.3087 L550.2913 228.1198 L549.5642 228.8672 L557.1324 229.6555 L555.4348 231.2113 L547.8926 230.3008 Z " opacity="1" fill="#FFFFFF" fill-opacity="1" />
        <path d="M544.0467 225.5787 L548.9936 223.8662 L549.1902 226.0202 L547.9186 225.8641 L545.5947 228.0653 L543.2239 227.8752 L545.6365 225.7144 Z " opacity="1" fill="#FFFFFF" fill-opacity="1" />
        <path d="M542.3942 233.4467 L537.6594 234.663 L537.3332 232.4547 L538.7329 232.6653 L541.2271 230.2398 L543.584 230.4842 L540.9279 233.1207 Z " opacity="1" fill="#FFFFFF" fill-opacity="1" />
      </g>
    </g>
    <g>
      <g>
        <path d="M578.5545 90.05011 L550.2159 90.05011 L550.2159 153 L578.5545 153" opacity="1" fill="#026C9B" fill-opacity="1" />
        <path d="M578.5545 90.05011 L550.2159 90.05011 L550.2159 153 L578.5545 153" opacity="1" stroke="#FFFFFF" stroke-opacity="1" stroke-width="0.4" stroke-linecap="butt" stroke-linejoin="miter" stroke-dasharray="none" fill-opacity="0" />
        <path d="M578.5545 153 L587.6049 143.9499 L587.6049 81 L559.2661 81 L550.2159 90.05011 L578.5545 90.05011 Z " opacity="1" fill="#026C9B" fill-opacity="1" />
        <path d="M578.5545 153 L587.6049 143.9499 L587.6049 81 L559.2661 81 L550.2159 90.05011 L578.5545 90.05011 Z " opacity="1" stroke="#FFFFFF" stroke-opacity="1" stroke-width="0.4" stroke-linecap="butt" stroke-linejoin="miter" stroke-dasharray="none" fill-opacity="0" />
        <line x1="578.5545" y1="90.05011" x2="587.6049" y2="81" opacity="1" stroke="#026C9B" stroke-opacity="1" stroke-width="0" stroke-linecap="butt" stroke-linejoin="miter" stroke-dasharray="none" />
        <line x1="578.5545" y1="90.05011" x2="587.6049" y2="81" opacity="1" stroke="#FFFFFF" stroke-opacity="1" stroke-width="0.4" stroke-linecap="butt" stroke-linejoin="miter" stroke-dasharray="none" />
        <path d="M566.9424 118.842 L566.9424 116.7701 L552.6691 116.7701 L552.6691 118.842 Z " opacity="1" fill="#026C9B" fill-opacity="1" />
        <path d="M552.6691 118.842 L566.9424 118.842 L566.9424 116.7701 L552.6691 116.7701 Z " opacity="1" stroke="#FFFFFF" stroke-opacity="1" stroke-width="0.4" stroke-linecap="butt" stroke-linejoin="miter" stroke-dasharray="none" fill-opacity="0" />
        <path d="M566.9424 123.1372 L566.9424 121.0653 L552.6691 121.0653 L552.6691 123.1372 Z " opacity="1" fill="#026C9B" fill-opacity="1" />
        <path d="M552.6691 123.1372 L566.9424 123.1372 L566.9424 121.0653 L552.6691 121.0653 Z " opacity="1" stroke="#FFFFFF" stroke-opacity="1" stroke-width="0.4" stroke-linecap="butt" stroke-linejoin="miter" stroke-dasharray="none" fill-opacity="0" />
        <path d="M566.9424 127.4394 L566.9424 125.3675 L552.6691 125.3675 L552.6691 127.4394 Z " opacity="1" fill="#026C9B" fill-opacity="1" />
        <path d="M552.6691 127.4394 L566.9424 127.4394 L566.9424 125.3675 L552.6691 125.3675 Z " opacity="1" stroke="#FFFFFF" stroke-opacity="1" stroke-width="0.4" stroke-linecap="butt" stroke-linejoin="miter" stroke-dasharray="none" fill-opacity="0" />
        <path d="M566.9424 131.7346 L566.9424 129.6626 L552.6691 129.6626 L552.6691 131.7346 Z " opacity="1" fill="#026C9B" fill-opacity="1" />
        <path d="M552.6691 131.7346 L566.9424 131.7346 L566.9424 129.6626 L552.6691 129.6626 Z " opacity="1" stroke="#FFFFFF" stroke-opacity="1" stroke-width="0.4" stroke-linecap="butt" stroke-linejoin="miter" stroke-dasharray="none" fill-opacity="0" />
        <path d="M566.9424 136.0287 L566.9424 133.9573 L552.6691 133.9573 L552.6691 136.0287 Z " opacity="1" fill="#026C9B" fill-opacity="1" />
        <path d="M552.6691 136.0287 L566.9424 136.0287 L566.9424 133.9573 L552.6691 133.9573 Z " opacity="1" stroke="#FFFFFF" stroke-opacity="1" stroke-width="0.4" stroke-linecap="butt" stroke-linejoin="miter" stroke-dasharray="none" fill-opacity="0" />
        <path d="M566.9424 140.324 L566.9424 138.252 L552.6691 138.252 L552.6691 140.324 Z " opacity="1" fill="#026C9B" fill-opacity="1" />
        <path d="M552.6691 140.324 L566.9424 140.324 L566.9424 138.252 L552.6691 138.252 Z " opacity="1" stroke="#FFFFFF" stroke-opacity="1" stroke-width="0.4" stroke-linecap="butt" stroke-linejoin="miter" stroke-dasharray="none" fill-opacity="0" />
        <path d="M566.9424 144.6262 L566.9424 142.5542 L552.6691 142.5542 L552.6691 144.6262 Z " opacity="1" fill="#026C9B" fill-opacity="1" />
        <path d="M552.6691 144.6262 L566.9424 144.6262 L566.9424 142.5542 L552.6691 142.5542 Z " opacity="1" stroke="#FFFFFF" stroke-opacity="1" stroke-width="0.4" stroke-linecap="butt" stroke-linejoin="miter" stroke-dasharray="none" fill-opacity="0" />
        <path d="M566.9424 148.9137 L566.9424 146.8418 L552.6691 146.8418 L552.6691 148.9137 Z " opacity="1" fill="#026C9B" fill-opacity="1" />
        <path d="M552.6691 148.9137 L566.9424 148.9137 L566.9424 146.8418 L552.6691 146.8418 Z " opacity="1" stroke="#FFFFFF" stroke-opacity="1" stroke-width="0.4" stroke-linecap="butt" stroke-linejoin="miter" stroke-dasharray="none" fill-opacity="0" />
        <path d="M568.6626 97.38043 L568.6442 97.65302 L568.589 97.92368 L568.4969 98.18871 L568.3716 98.44877 L568.2113 98.70674 L568.018 98.95708 L567.7915 99.20398 L567.5355 99.44533 L567.2482 99.67896 L566.9314 99.90914 L566.587 100.1302 L566.2149 100.3457 L565.8152 100.5536 L565.3898 100.7544 L564.9385 100.9462 L564.4634 101.1303 L563.9661 101.3053 L563.4468 101.4727 L562.9053 101.6295 L562.3436 101.7788 L561.7616 101.9148 L561.1613 102.0438 L560.5442 102.1597 L559.9088 102.2664 L559.2587 102.3625 L558.592 102.4454 L557.9122 102.5173 L557.2189 102.576 L556.5132 102.622 L555.7962 102.6554 L555.0683 102.6756 L554.3311 102.6827 C546.4173 102.6827 540 100.3087 540 97.38043 L540 109.6114 C540 112.5326 546.4173 114.9137 554.3311 114.9137 C562.2441 114.9137 568.6626 112.5326 568.6626 109.6114 Z " opacity="1" fill="#026C9B" fill-opacity="1" />
        <path d="M568.6626 97.38043 L568.6442 97.65302 L568.589 97.92368 L568.4969 98.18871 L568.3716 98.44877 L568.2113 98.70674 L568.018 98.95708 L567.7915 99.20398 L567.5355 99.44533 L567.2482 99.67896 L566.9314 99.90914 L566.587 100.1302 L566.2149 100.3457 L565.8152 100.5536 L565.3898 100.7544 L564.9385 100.9462 L564.4634 101.1303 L563.9661 101.3053 L563.4468 101.4727 L562.9053 101.6295 L562.3436 101.7788 L561.7616 101.9148 L561.1613 102.0438 L560.5442 102.1597 L559.9088 102.2664 L559.2587 102.3625 L558.592 102.4454 L557.9122 102.5173 L557.2189 102.576 L556.5132 102.622 L555.7962 102.6554 L555.0683 102.6756 L554.3311 102.6827 C546.4173 102.6827 540 100.3087 540 97.38043 L540 109.6114 C540 112.5326 546.4173 114.9137 554.3311 114.9137 C562.2441 114.9137 568.6626 112.5326 568.6626 109.6114 Z " opacity="1" stroke="#FFFFFF" stroke-opacity="1" stroke-width="0.4" stroke-linecap="butt" stroke-linejoin="miter" stroke-dasharray="none" fill-opacity="0" />
        <path d="M554.3311 102.6827 L555.0683 102.6756 L555.7962 102.6554 L556.5132 102.622 L557.2189 102.576 L557.9122 102.5173 L558.592 102.4454 L559.2587 102.3625 L559.9088 102.2664 L560.5442 102.1597 L561.1613 102.0438 L561.7616 101.9148 L562.3436 101.7788 L562.9053 101.6295 L563.4468 101.4727 L563.9661 101.3053 L564.4634 101.1303 L564.9385 100.9462 L565.3898 100.7544 L565.8152 100.5536 L566.2149 100.3457 L566.587 100.1302 L566.9314 99.90914 L567.2482 99.67896 L567.5355 99.44533 L567.7915 99.20398 L568.018 98.95708 L568.2113 98.70674 L568.3716 98.44877 L568.4969 98.18871 L568.589 97.92368 L568.6442 97.65302 L568.6626 97.38043 C568.6626 94.4465 562.2441 92.07252 554.3311 92.07252 C546.4173 92.07252 540 94.4465 540 97.38043 C540 100.3087 546.4173 102.6827 554.3311 102.6827 Z " opacity="1" fill="#026C9B" fill-opacity="1" />
        <path d="M554.3311 102.6827 L555.0683 102.6756 L555.7962 102.6554 L556.5132 102.622 L557.2189 102.576 L557.9122 102.5173 L558.592 102.4454 L559.2587 102.3625 L559.9088 102.2664 L560.5442 102.1597 L561.1613 102.0438 L561.7616 101.9148 L562.3436 101.7788 L562.9053 101.6295 L563.4468 101.4727 L563.9661 101.3053 L564.4634 101.1303 L564.9385 100.9462 L565.3898 100.7544 L565.8152 100.5536 L566.2149 100.3457 L566.587 100.1302 L566.9314 99.90914 L567.2482 99.67896 L567.5355 99.44533 L567.7915 99.20398 L568.018 98.95708 L568.2113 98.70674 L568.3716 98.44877 L568.4969 98.18871 L568.589 97.92368 L568.6442 97.65302 L568.6626 97.38043 C568.6626 94.4465 562.2441 92.07252 554.3311 92.07252 C546.4173 92.07252 540 94.4465 540 97.38043 C540 100.3087 546.4173 102.6827 554.3311 102.6827 Z " opacity="1" stroke="#FFFFFF" stroke-opacity="1" stroke-width="0.4" stroke-linecap="butt" stroke-linejoin="miter" stroke-dasharray="none" fill-opacity="0" />
        <path d="M584.008 108.4306 L583.9895 108.7034 L583.9343 108.9739 L583.8422 109.2395 L583.7169 109.499 L583.5568 109.757 L583.3634 110.0074 L583.1387 110.2542 L582.8808 110.4956 L582.5936 110.7292 L582.2786 110.9594 L581.9323 111.1805 L581.5602 111.396 L581.1607 111.6044 L580.7352 111.8052 L580.284 111.9964 L579.8088 112.1805 L579.3115 112.3556 L578.7922 112.523 L578.2507 112.6798 L577.689 112.829 L577.107 112.965 L576.5066 113.0941 L575.8895 113.2104 L575.2542 113.3172 L574.6041 113.4127 L573.9374 113.4957 L573.2578 113.5675 L572.5652 113.6262 L571.858 113.6723 L571.1416 113.7056 L570.4141 113.7259 L569.6756 113.7335 C561.7634 113.7335 555.3453 111.359 555.3453 108.4306 L555.3453 120.6621 C555.3453 123.5829 561.7634 125.9644 569.6756 125.9644 C577.5896 125.9644 584.008 123.5829 584.008 120.6621 Z " opacity="1" fill="#026C9B" fill-opacity="1" />
        <path d="M584.008 108.4306 L583.9895 108.7034 L583.9343 108.9739 L583.8422 109.2395 L583.7169 109.499 L583.5568 109.757 L583.3634 110.0074 L583.1387 110.2542 L582.8808 110.4956 L582.5936 110.7292 L582.2786 110.9594 L581.9323 111.1805 L581.5602 111.396 L581.1607 111.6044 L580.7352 111.8052 L580.284 111.9964 L579.8088 112.1805 L579.3115 112.3556 L578.7922 112.523 L578.2507 112.6798 L577.689 112.829 L577.107 112.965 L576.5066 113.0941 L575.8895 113.2104 L575.2542 113.3172 L574.6041 113.4127 L573.9374 113.4957 L573.2578 113.5675 L572.5652 113.6262 L571.858 113.6723 L571.1416 113.7056 L570.4141 113.7259 L569.6756 113.7335 C561.7634 113.7335 555.3453 111.359 555.3453 108.4306 L555.3453 120.6621 C555.3453 123.5829 561.7634 125.9644 569.6756 125.9644 C577.5896 125.9644 584.008 123.5829 584.008 120.6621 Z " opacity="1" stroke="#FFFFFF" stroke-opacity="1" stroke-width="0.4" stroke-linecap="butt" stroke-linejoin="miter" stroke-dasharray="none" fill-opacity="0" />
        <path d="M569.6756 113.7335 L570.4141 113.7259 L571.1416 113.7056 L571.858 113.6723 L572.5652 113.6262 L573.2578 113.5675 L573.9374 113.4957 L574.6041 113.4127 L575.2542 113.3172 L575.8895 113.2104 L576.5066 113.0941 L577.107 112.965 L577.689 112.829 L578.2507 112.6798 L578.7922 112.523 L579.3115 112.3556 L579.8088 112.1805 L580.284 111.9964 L580.7352 111.8052 L581.1607 111.6044 L581.5602 111.396 L581.9323 111.1805 L582.2786 110.9594 L582.5936 110.7292 L582.8808 110.4956 L583.1387 110.2542 L583.3634 110.0074 L583.5568 109.757 L583.7169 109.499 L583.8422 109.2395 L583.9343 108.9739 L583.9895 108.7034 L584.008 108.4306 C584.008 105.4967 577.5896 103.1228 569.6756 103.1228 C561.7634 103.1228 555.3453 105.4967 555.3453 108.4306 C555.3453 111.359 561.7634 113.7335 569.6756 113.7335 Z " opacity="1" fill="#026C9B" fill-opacity="1" />
        <path d="M569.6756 113.7335 L570.4141 113.7259 L571.1416 113.7056 L571.858 113.6723 L572.5652 113.6262 L573.2578 113.5675 L573.9374 113.4957 L574.6041 113.4127 L575.2542 113.3172 L575.8895 113.2104 L576.5066 113.0941 L577.107 112.965 L577.689 112.829 L578.2507 112.6798 L578.7922 112.523 L579.3115 112.3556 L579.8088 112.1805 L580.284 111.9964 L580.7352 111.8052 L581.1607 111.6044 L581.5602 111.396 L581.9323 111.1805 L582.2786 110.9594 L582.5936 110.7292 L582.8808 110.4956 L583.1387 110.2542 L583.3634 110.0074 L583.5568 109.757 L583.7169 109.499 L583.8422 109.2395 L583.9343 108.9739 L583.9895 108.7034 L584.008 108.4306 C584.008 105.4967 577.5896 103.1228 569.6756 103.1228 C561.7634 103.1228 555.3453 105.4967 555.3453 108.4306 C555.3453 111.359 561.7634 113.7335 569.6756 113.7335 Z " opacity="1" stroke="#FFFFFF" stroke-opacity="1" stroke-width="0.4" stroke-linecap="butt" stroke-linejoin="miter" stroke-dasharray="none" fill-opacity="0" />
      </g>
    </g>
    <text x="453.1778" y="223.8797" font-size="14" fill="#000000" fill-opacity="1" font-family="Arial" font-weight="normal" font-style="normal">gateway</text>
    <text x="478.1983" y="100.8797" font-size="14" fill="#000000" fill-opacity="1" font-family="Arial" font-weight="normal" font-style="normal">SWIM 
</text>
    <text x="477.8018" y="116.8797" font-size="14" fill="#000000" fill-opacity="1" font-family="Arial" font-weight="normal" font-style="normal">server</text>
    <g>
      <g>
        <g>
          <path d="M648 475.6094 L648 514.5155 Q655.0001 521 675.9999 521 Q696.9999 521 704 514.5155 L704 475.6094 Z " opacity="1" stroke="#000000" stroke-opacity="1" stroke-width="1" stroke-linecap="butt" stroke-linejoin="miter" stroke-dasharray="none" fill="#FFFFFF" fill-opacity="1" />
          <text x="654.5596" y="504.2606" font-size="14" fill="#000000" fill-opacity="1" font-family="Arial" font-weight="normal" font-style="normal">archive</text>
          <ellipse cx="676" cy="475.6093" rx="28" ry="6.484338" opacity="1" stroke="#000000" stroke-opacity="1" stroke-width="1" stroke-linecap="butt" stroke-linejoin="miter" stroke-dasharray="none" fill="#FFFFFF" fill-opacity="1" />
        </g>
      </g>
    </g>
    <g>
      <g>
        <g>
          <path d="M648 196.6094 L648 235.5155 Q655.0001 242 675.9999 242 Q696.9999 242 704 235.5155 L704 196.6094 Z " opacity="1" stroke="#000000" stroke-opacity="1" stroke-width="1" stroke-linecap="butt" stroke-linejoin="miter" stroke-dasharray="none" fill="#FFFFFF" fill-opacity="1" />
          <text x="654.5596" y="225.2605" font-size="14" fill="#000000" fill-opacity="1" font-family="Arial" font-weight="normal" font-style="normal">archive</text>
          <ellipse cx="676" cy="196.6093" rx="28" ry="6.484338" opacity="1" stroke="#000000" stroke-opacity="1" stroke-width="1" stroke-linecap="butt" stroke-linejoin="miter" stroke-dasharray="none" fill="#FFFFFF" fill-opacity="1" />
        </g>
      </g>
    </g>
    <line x1="567" y1="162" x2="567" y2="176.8275" marker-end="url(#marker1)" opacity="1" stroke="#000000" stroke-opacity="1" stroke-width="1" stroke-linecap="butt" stroke-linejoin="miter" stroke-dasharray="none" />
    <line x1="621" y1="270" x2="621" y2="311.8275" marker-end="url(#marker2)" opacity="1" stroke="#000000" stroke-opacity="1" stroke-width="1" stroke-linecap="butt" stroke-linejoin="miter" stroke-dasharray="none" />
    <line x1="567" y1="243" x2="567" y2="270" opacity="1" stroke="#000000" stroke-opacity="1" stroke-width="1" stroke-linecap="butt" stroke-linejoin="miter" stroke-dasharray="none" />
    <line x1="675" y1="243" x2="675" y2="270" opacity="1" stroke="#000000" stroke-opacity="1" stroke-width="1" stroke-linecap="butt" stroke-linejoin="miter" stroke-dasharray="none" />
    <line x1="621" y1="441" x2="621" y2="399.1725" marker-end="url(#marker3)" opacity="1" stroke="#000000" stroke-opacity="1" stroke-width="1" stroke-linecap="butt" stroke-linejoin="miter" stroke-dasharray="none" />
    <line x1="675" y1="468" x2="675" y2="441" opacity="1" stroke="#000000" stroke-opacity="1" stroke-width="1" stroke-linecap="butt" stroke-linejoin="miter" stroke-dasharray="none" />
    <line x1="567" y1="468" x2="567" y2="441" opacity="1" stroke="#000000" stroke-opacity="1" stroke-width="1" stroke-linecap="butt" stroke-linejoin="miter" stroke-dasharray="none" />
    <line x1="450" y1="351" x2="545.8275" y2="351" marker-end="url(#marker4)" opacity="1" stroke="#000000" stroke-opacity="1" stroke-width="1" stroke-linecap="butt" stroke-linejoin="miter" stroke-dasharray="none" />
    <line x1="801" y1="360" x2="696.1726" y2="360" marker-end="url(#marker5)" opacity="1" stroke="#000000" stroke-opacity="1" stroke-width="1" stroke-linecap="butt" stroke-linejoin="miter" stroke-dasharray="none" />
    <line x1="558" y1="378" x2="462.1725" y2="378" marker-end="url(#marker6)" opacity="1" stroke="#000000" stroke-opacity="1" stroke-width="1" stroke-linecap="butt" stroke-linejoin="miter" stroke-dasharray="none" />
    <line x1="684" y1="333" x2="788.8274" y2="333" marker-end="url(#marker7)" opacity="1" stroke="#000000" stroke-opacity="1" stroke-width="1" stroke-linecap="butt" stroke-linejoin="miter" stroke-dasharray="none" />
    <line x1="567" y1="441" x2="675" y2="441" opacity="1" stroke="#000000" stroke-opacity="1" stroke-width="1" stroke-linecap="butt" stroke-linejoin="miter" stroke-dasharray="none" />
    <line x1="567" y1="270" x2="675" y2="270" opacity="1" stroke="#000000" stroke-opacity="1" stroke-width="1" stroke-linecap="butt" stroke-linejoin="miter" stroke-dasharray="none" />
    <rect x="558" y="324" width="126" height="63" opacity="1" stroke="#000000" stroke-opacity="1" stroke-width="1" stroke-linecap="butt" stroke-linejoin="miter" stroke-dasharray="none" fill="#FCD6D4" fill-opacity="1" filter="url(#shadow1)" />
    <text x="600.1792" y="361.3004" font-size="18" fill="#000000" fill-opacity="1" font-family="Arial" font-weight="normal" font-style="normal">RACE</text>
    <path d="M621 387 L621 378 L558 378" opacity="1" stroke="#9B9B9B" stroke-opacity="1" stroke-width="1" stroke-linecap="butt" stroke-linejoin="miter" stroke-dasharray="none" fill-opacity="0" />
    <path d="M621 324 L621 333 L684 333" opacity="1" stroke="#9B9B9B" stroke-opacity="1" stroke-width="1" stroke-linecap="butt" stroke-linejoin="miter" stroke-dasharray="none" fill-opacity="0" />
    <text x="867.165" y="316" font-size="15" fill="#000000" fill-opacity="1" font-family="Helvetica" font-weight="normal" font-style="normal">gir</text>
    <text x="379.4915" y="316" font-size="15" fill="#000000" fill-opacity="1" font-family="Helvetica" font-weight="normal" font-style="normal">dib</text>
    <text x="527.2466" y="259.8797" font-size="14" fill="#000000" fill-opacity="1" font-family="Arial" font-weight="normal" font-style="normal">live</text>
    <text x="527.2466" y="475.8797" font-size="14" fill="#000000" fill-opacity="1" font-family="Arial" font-weight="normal" font-style="normal">live</text>
    <text x="465.1519" y="342.8797" font-size="14" fill="#000000" fill-opacity="1" font-family="Arial" font-weight="normal" font-style="normal">sim flight pos</text>
    <text x="708.1519" y="378.8797" font-size="14" fill="#000000" fill-opacity="1" font-family="Arial" font-weight="normal" font-style="normal">sim flight pos</text>
    <text x="715.5483" y="324.8797" font-size="14" fill="#000000" fill-opacity="1" font-family="Arial" font-weight="normal" font-style="normal">proximities</text>
    <text x="472.5483" y="396.8797" font-size="14" fill="#000000" fill-opacity="1" font-family="Arial" font-weight="normal" font-style="normal">proximities</text>
    <text x="619.23" y="160.8797" font-size="14" fill="#000000" fill-opacity="1" font-family="Arial" font-weight="normal" font-style="normal">TRACON (TAIS) data</text>
    <text x="518.4707" y="528.3797" font-size="14" fill="#000000" fill-opacity="1" font-family="Arial" font-weight="normal" font-style="normal">SDR
</text>
    <text x="508.3535" y="544.3797" font-size="14" fill="#000000" fill-opacity="1" font-family="Arial" font-weight="normal" font-style="normal">receiver</text>
  </g>
</svg>