<?xml version="1.0" encoding="utf-8"?><svg width="100%" height="100%" version="1.1" viewBox="159 270.4479 806.9999 295.5521" style="background-color:#FFFFFF" xmlns:xlink="http://www.w3.org/1999/xlink" xmlns="http://www.w3.org/2000/svg"><defs /><marker id="marker1" markerUnits="strokeWidth" orient="auto" refX="8.971846" refY="0" markerWidth="12.27247" markerHeight="9.229548" viewBox="-0.5 -4.614774 12.27247 9.229548"><path d="M11.27247 4.114773 L0 0 L11.27247 -4.114774 Z " fill="#000000" fill-opacity="1" stroke="#000000" stroke-opacity="1" /></marker><marker id="marker2" markerUnits="strokeWidth" orient="auto" refX="-8.971846" refY="0" markerWidth="12.27247" markerHeight="9.229548" viewBox="-11.77247 -4.614774 12.27247 9.229548"><path d="M-11.27247 -4.114774 L0 0 L-11.27247 4.114773 Z " fill="#000000" fill-opacity="1" stroke="#000000" stroke-opacity="1" /></marker><marker id="marker3" markerUnits="strokeWidth" orient="auto" refX="7.869757" refY="0" markerWidth="13.27247" markerHeight="10.22955" viewBox="-1 -5.114774 13.27247 10.22955"><path d="M11.27247 4.114773 L0 0 L11.27247 -4.114774 L8 -3.496911E-07 Z " fill="#FB0106" fill-opacity="1" stroke="#FB0106" stroke-opacity="1" /></marker><marker id="marker4" markerUnits="strokeWidth" orient="auto" refX="-7.869757" refY="0" markerWidth="13.27247" markerHeight="10.22955" viewBox="-12.27247 -5.114774 13.27247 10.22955"><path d="M-11.27247 -4.114774 L0 0 L-11.27247 4.114773 L-8 -3.496911E-07 Z " fill="#FB0106" fill-opacity="1" stroke="#FB0106" stroke-opacity="1" /></marker><marker id="marker5" markerUnits="strokeWidth" orient="auto" refX="-0.4348781" refY="0" markerWidth="7.636236" markerHeight="6.114774" viewBox="-6.636236 -3.057387 7.636236 6.114774"><path d="M-5.636236 -2.057387 L0 0 L-5.636236 2.057387" fill="none" stroke="#000000" stroke-opacity="1" /></marker><marker id="marker6" markerUnits="strokeWidth" orient="auto" refX="-0.4348781" refY="0" markerWidth="7.636236" markerHeight="6.114774" viewBox="-6.636236 -3.057387 7.636236 6.114774"><path d="M-5.636236 -2.057387 L0 0 L-5.636236 2.057387" fill="none" stroke="#000000" stroke-opacity="1" /></marker><marker id="marker7" markerUnits="strokeWidth" orient="auto" refX="-0.4348781" refY="0" markerWidth="7.636236" markerHeight="6.114774" viewBox="-6.636236 -3.057387 7.636236 6.114774"><path d="M-5.636236 -2.057387 L0 0 L-5.636236 2.057387" fill="none" stroke="#000000" stroke-opacity="1" /></marker><marker id="marker8" markerUnits="strokeWidth" orient="auto" refX="-0.4348781" refY="0" markerWidth="7.636236" markerHeight="6.114774" viewBox="-6.636236 -3.057387 7.636236 6.114774"><path d="M-5.636236 -2.057387 L0 0 L-5.636236 2.057387" fill="none" stroke="#000000" stroke-opacity="1" /></marker><marker id="marker9" markerUnits="strokeWidth" orient="auto" refX="-0.4348781" refY="0" markerWidth="7.636236" markerHeight="6.114774" viewBox="-6.636236 -3.057387 7.636236 6.114774"><path d="M-5.636236 -2.057387 L0 0 L-5.636236 2.057387" fill="none" stroke="#000000" stroke-opacity="1" /></marker><marker id="marker10" markerUnits="strokeWidth" orient="auto" refX="-0.4348781" refY="0" markerWidth="7.636236" markerHeight="6.114774" viewBox="-6.636236 -3.057387 7.636236 6.114774"><path d="M-5.636236 -2.057387 L0 0 L-5.636236 2.057387" fill="none" stroke="#000000" stroke-opacity="1" /></marker><marker id="marker11" markerUnits="strokeWidth" orient="auto" refX="-0.4348781" refY="0" markerWidth="7.636236" markerHeight="6.114774" viewBox="-6.636236 -3.057387 7.636236 6.114774"><path d="M-5.636236 -2.057387 L0 0 L-5.636236 2.057387" fill="none" stroke="#000000" stroke-opacity="1" /></marker><g id="layer1"><line x1="306.9437" y1="432" x2="773.0563" y2="432" marker-start="url(#marker1)" marker-end="url(#marker2)" opacity="1" stroke="#000000" stroke-opacity="1" stroke-width="2" stroke-linecap="butt" stroke-linejoin="miter" stroke-dasharray="16,8,4,8" /><text x="274.1304" y="408.8004" font-size="18" fill="#000000" fill-opacity="1" font-family="Arial" font-weight="normal" font-style="normal">macro</text><text x="762.8813" y="408.8004" font-size="18" fill="#000000" fill-opacity="1" font-family="Arial" font-weight="normal" font-style="normal">micro</text><text x="502.3262" y="501.6" font-size="22" fill="#000000" fill-opacity="1" font-family="Helvetica" font-weight="normal" font-style="normal">Actors</text><path d="M396 450 L396 468 L693 468 L693 450" opacity="1" stroke="#000000" stroke-opacity="1" stroke-width="1" stroke-linecap="butt" stroke-linejoin="miter" stroke-dasharray="none" fill-opacity="0" /><path d="M432 486 L432 504 L234 504 L234 486" opacity="1" stroke="#000000" stroke-opacity="1" stroke-width="1" stroke-linecap="butt" stroke-linejoin="miter" stroke-dasharray="none" fill-opacity="0" /><path d="M846 486 L846 504 L648 504 L648 486" opacity="1" stroke="#000000" stroke-opacity="1" stroke-width="1" stroke-linecap="butt" stroke-linejoin="miter" stroke-dasharray="none" fill-opacity="0" /><text x="483.5439" y="462.8004" font-size="18" fill="#000000" fill-opacity="1" font-family="Arial" font-weight="normal" font-style="normal">multi-threading / </text><text x="256.9751" y="498.8004" font-size="18" fill="#000000" fill-opacity="1" font-family="Arial" font-weight="normal" font-style="normal">network / protocols</text><text x="670.7686" y="498.8004" font-size="18" fill="#000000" fill-opacity="1" font-family="Arial" font-weight="normal" font-style="normal">heterogeneous HW</text><text x="413.4277" y="305.9373" font-size="26" fill="#000000" fill-opacity="1" font-family="Arial" font-weight="normal" font-style="normal">parallel computing</text><g><g><path d="M229.1508 453.2724 L226.7094 456.7487 L205.5299 456.7487 L209.0312 453.2724 Z " opacity="1" fill="#036998" fill-opacity="1" /><path d="M229.1508 453.2724 L226.7094 456.7487 L205.5299 456.7487 L209.0312 453.2724 Z " opacity="1" stroke="#FFFFFF" stroke-opacity="1" stroke-width="0.39999" stroke-linecap="butt" stroke-linejoin="miter" stroke-dasharray="none" fill-opacity="0" /><path d="M205.5299 460.5386 L205.5299 456.7487 L225.7523 456.7487 L225.7523 460.5386 Z " opacity="1" fill="#036998" fill-opacity="1" /><path d="M205.5299 460.5386 L225.7523 460.5386 L225.7523 456.7487 L205.5299 456.7487 Z " opacity="1" stroke="#FFFFFF" stroke-opacity="1" stroke-width="0.39999" stroke-linecap="butt" stroke-linejoin="miter" stroke-dasharray="none" fill-opacity="0" /><path d="M225.1498 465.4305 L225.1498 464.2259 L227.7903 460.5592 L227.7903 462.7943 Z " opacity="1" fill="#036998" fill-opacity="1" /><path d="M225.1498 465.4305 L225.1498 464.2259 L227.7903 460.5592 L227.7903 462.7943 Z " opacity="1" stroke="#FFFFFF" stroke-opacity="1" stroke-width="0.39999" stroke-linecap="butt" stroke-linejoin="miter" stroke-dasharray="none" fill-opacity="0" /><path d="M225.1498 464.2259 L225.1498 465.4305 L201.9099 465.4305 L201.9099 464.2259 Z " opacity="1" fill="#036998" fill-opacity="1" /><path d="M201.9099 465.4305 L225.1498 465.4305 L225.1498 464.2259 L201.9099 464.2259 Z " opacity="1" stroke="#FFFFFF" stroke-opacity="1" stroke-width="0.39999" stroke-linecap="butt" stroke-linejoin="miter" stroke-dasharray="none" fill-opacity="0" /><path d="M205.5299 440.724 L225.6125 440.724 L225.6125 455.9145 L205.5299 455.9145 Z " opacity="1" fill="#036998" fill-opacity="1" /><path d="M205.5299 455.9145 L225.6125 455.9145 L225.6125 440.724 L205.5299 440.724 Z " opacity="1" stroke="#FFFFFF" stroke-opacity="1" stroke-width="0.39999" stroke-linecap="butt" stroke-linejoin="miter" stroke-dasharray="none" fill-opacity="0" /><path d="M225.6125 455.9145 L229.0519 452.4802 L229.0519 437.2831 L225.6125 440.724 Z " opacity="1" fill="#036998" fill-opacity="1" /><path d="M225.6125 455.9145 L229.0519 452.4802 L229.0519 437.2831 L225.6125 440.724 Z " opacity="1" stroke="#FFFFFF" stroke-opacity="1" stroke-width="0.39999" stroke-linecap="butt" stroke-linejoin="miter" stroke-dasharray="none" fill-opacity="0" /><path d="M225.1498 464.2259 L201.9099 464.2259 L204.5979 460.5592 L227.7903 460.5592 Z " opacity="1" fill="#036998" fill-opacity="1" /><path d="M225.1498 464.2259 L201.9099 464.2259 L204.5979 460.5592 L227.7903 460.5592 Z " opacity="1" stroke="#FFFFFF" stroke-opacity="1" stroke-width="0.39999" stroke-linecap="butt" stroke-linejoin="miter" stroke-dasharray="none" fill-opacity="0" /><path d="M225.7312 460.549 L225.7312 456.7487 L229.1508 453.3557 L229.1508 457.1296 Z " opacity="1" fill="#036998" fill-opacity="1" /><path d="M225.7312 460.549 L225.7312 456.7487 L229.1508 453.3557 L229.1508 457.1296 Z " opacity="1" stroke="#FFFFFF" stroke-opacity="1" stroke-width="0.39999" stroke-linecap="butt" stroke-linejoin="miter" stroke-dasharray="none" fill-opacity="0" /><path d="M208.8045 442.4746 L222.2707 442.4746 C223.1513 442.4746 223.8618 443.185 223.8618 444.0605 L223.8618 452.5671 C223.8618 453.4425 223.1513 454.153 222.2707 454.153 L208.8045 454.153 C207.9292 454.153 207.2186 453.4425 207.2186 452.5671 L207.2186 444.0605 C207.2186 443.185 207.9292 442.4746 208.8045 442.4746 Z " opacity="1" fill="#036998" fill-opacity="1" /><path d="M208.8045 442.4746 L222.2707 442.4746 C223.1513 442.4746 223.8618 443.185 223.8618 444.0605 L223.8618 452.5671 C223.8618 453.4425 223.1513 454.153 222.2707 454.153 L208.8045 454.153 C207.9292 454.153 207.2186 453.4425 207.2186 452.5671 L207.2186 444.0605 C207.2186 443.185 207.9292 442.4746 208.8045 442.4746 Z " opacity="1" stroke="#FFFFFF" stroke-opacity="1" stroke-width="0.39999" stroke-linecap="butt" stroke-linejoin="miter" stroke-dasharray="none" fill-opacity="0" /><path d="M229.0519 437.2831 L209.4531 437.2831 L205.5299 440.724 L225.6125 440.724 Z " opacity="1" fill="#036998" fill-opacity="1" /><path d="M229.0519 437.2831 L209.4531 437.2831 L205.5299 440.724 L225.6125 440.724 Z " opacity="1" stroke="#FFFFFF" stroke-opacity="1" stroke-width="0.39999" stroke-linecap="butt" stroke-linejoin="miter" stroke-dasharray="none" fill-opacity="0" /><path d="M213.8509 445.2086 L213.7362 445.1862 L213.6241 445.1677 L213.512 445.1507 L213.4027 445.1362 L213.189 445.1138 L212.9834 445.1018 L212.783 445.0978 L212.5906 445.1032 L212.4061 445.1162 L212.2281 445.1373 L212.0567 445.1652 L211.8932 445.2006 L211.7376 445.243 L211.5887 445.2915 L211.4489 445.3469 L211.3158 445.4063 L211.1892 445.4722 L211.072 445.5436 L210.9612 445.6185 L210.8597 445.6989 L210.7648 445.7822 L210.6791 445.8691 L210.6013 445.96 L210.5314 446.0537 L210.4695 446.1486 L210.4155 446.2474 L210.3706 446.3463 L210.3337 446.4477 L210.306 446.5505 L210.2862 446.6533 L210.2743 446.7576 L210.2717 446.8619 L210.2783 446.9647 L210.2928 447.0675 L210.3086 447.124 C208.3932 447.4535 208.8968 449.7143 209.8143 449.7143 L209.9066 449.7143 C209.6903 451.2752 211.9973 452.1967 213.1667 451.3216 L213.2484 451.2332 C213.6149 452.7162 218.5729 452.8295 219.5721 451.7224 L219.6644 451.7484 C221.8383 451.924 222.827 450.4196 222.3484 449.3439 L222.4658 449.3124 C223.208 449.1122 223.295 447.402 222.0229 447.1504 L222.0492 447.0831 C222.6003 445.9758 221.2978 444.9251 219.4905 445.1217 L219.3665 445.0544 C218.0733 443.8849 214.3557 444.0761 213.9234 445.235 Z " opacity="1" fill="#FFFFFF" fill-opacity="1" /><path d="M259.4712 436.1349 L257.0297 439.6113 L235.8503 439.6113 L239.3516 436.1349 Z " opacity="1" fill="#036998" fill-opacity="1" /><path d="M259.4712 436.1349 L257.0297 439.6113 L235.8503 439.6113 L239.3516 436.1349 Z " opacity="1" stroke="#FFFFFF" stroke-opacity="1" stroke-width="0.39999" stroke-linecap="butt" stroke-linejoin="miter" stroke-dasharray="none" fill-opacity="0" /><path d="M235.8503 443.4011 L235.8503 439.6113 L256.0726 439.6113 L256.0726 443.4011 Z " opacity="1" fill="#036998" fill-opacity="1" /><path d="M235.8503 443.4011 L256.0726 443.4011 L256.0726 439.6113 L235.8503 439.6113 Z " opacity="1" stroke="#FFFFFF" stroke-opacity="1" stroke-width="0.39999" stroke-linecap="butt" stroke-linejoin="miter" stroke-dasharray="none" fill-opacity="0" /><path d="M255.4702 448.2935 L255.4702 447.0884 L258.1107 443.4225 L258.1107 445.6569 Z " opacity="1" fill="#036998" fill-opacity="1" /><path d="M255.4702 448.2935 L255.4702 447.0884 L258.1107 443.4225 L258.1107 445.6569 Z " opacity="1" stroke="#FFFFFF" stroke-opacity="1" stroke-width="0.39999" stroke-linecap="butt" stroke-linejoin="miter" stroke-dasharray="none" fill-opacity="0" /><path d="M255.4702 447.0884 L255.4702 448.2935 L232.2302 448.2935 L232.2302 447.0884 Z " opacity="1" fill="#036998" fill-opacity="1" /><path d="M232.2302 448.2935 L255.4702 448.2935 L255.4702 447.0884 L232.2302 447.0884 Z " opacity="1" stroke="#FFFFFF" stroke-opacity="1" stroke-width="0.39999" stroke-linecap="butt" stroke-linejoin="miter" stroke-dasharray="none" fill-opacity="0" /><path d="M235.8503 423.5862 L255.9329 423.5862 L255.9329 438.7767 L235.8503 438.7767 Z " opacity="1" fill="#036998" fill-opacity="1" /><path d="M235.8503 438.7767 L255.9329 438.7767 L255.9329 423.5862 L235.8503 423.5862 Z " opacity="1" stroke="#FFFFFF" stroke-opacity="1" stroke-width="0.39999" stroke-linecap="butt" stroke-linejoin="miter" stroke-dasharray="none" fill-opacity="0" /><path d="M255.9329 438.7767 L259.3723 435.3373 L259.3723 420.1453 L255.9329 423.5862 Z " opacity="1" fill="#036998" fill-opacity="1" /><path d="M255.9329 438.7767 L259.3723 435.3373 L259.3723 420.1453 L255.9329 423.5862 Z " opacity="1" stroke="#FFFFFF" stroke-opacity="1" stroke-width="0.39999" stroke-linecap="butt" stroke-linejoin="miter" stroke-dasharray="none" fill-opacity="0" /><path d="M255.4702 447.0884 L232.2302 447.0884 L234.9182 443.4225 L258.1107 443.4225 Z " opacity="1" fill="#036998" fill-opacity="1" /><path d="M255.4702 447.0884 L232.2302 447.0884 L234.9182 443.4225 L258.1107 443.4225 Z " opacity="1" stroke="#FFFFFF" stroke-opacity="1" stroke-width="0.39999" stroke-linecap="butt" stroke-linejoin="miter" stroke-dasharray="none" fill-opacity="0" /><path d="M256.0515 443.4116 L256.0515 439.6113 L259.4712 436.2179 L259.4712 439.9921 Z " opacity="1" fill="#036998" fill-opacity="1" /><path d="M256.0515 443.4116 L256.0515 439.6113 L259.4712 436.2179 L259.4712 439.9921 Z " opacity="1" stroke="#FFFFFF" stroke-opacity="1" stroke-width="0.39999" stroke-linecap="butt" stroke-linejoin="miter" stroke-dasharray="none" fill-opacity="0" /><path d="M239.1249 425.3318 L252.591 425.3318 C253.4717 425.3318 254.1823 426.0421 254.1823 426.9227 L254.1823 435.4297 C254.1823 436.3048 253.4717 437.0156 252.591 437.0156 L239.1249 437.0156 C238.2495 437.0156 237.5389 436.3048 237.5389 435.4297 L237.5389 426.9227 C237.5389 426.0421 238.2495 425.3318 239.1249 425.3318 Z " opacity="1" fill="#036998" fill-opacity="1" /><path d="M239.1249 425.3318 L252.591 425.3318 C253.4717 425.3318 254.1823 426.0421 254.1823 426.9227 L254.1823 435.4297 C254.1823 436.3048 253.4717 437.0156 252.591 437.0156 L239.1249 437.0156 C238.2495 437.0156 237.5389 436.3048 237.5389 435.4297 L237.5389 426.9227 C237.5389 426.0421 238.2495 425.3318 239.1249 425.3318 Z " opacity="1" stroke="#FFFFFF" stroke-opacity="1" stroke-width="0.39999" stroke-linecap="butt" stroke-linejoin="miter" stroke-dasharray="none" fill-opacity="0" /><path d="M259.3723 420.1453 L239.7735 420.1453 L235.8503 423.5862 L255.9329 423.5862 Z " opacity="1" fill="#036998" fill-opacity="1" /><path d="M259.3723 420.1453 L239.7735 420.1453 L235.8503 423.5862 L255.9329 423.5862 Z " opacity="1" stroke="#FFFFFF" stroke-opacity="1" stroke-width="0.39999" stroke-linecap="butt" stroke-linejoin="miter" stroke-dasharray="none" fill-opacity="0" /><path d="M244.1712 428.0708 L244.0565 428.0484 L243.9445 428.0303 L243.8324 428.0129 L243.723 427.9985 L243.5095 427.976 L243.3038 427.9641 L243.1034 427.9604 L242.9109 427.9655 L242.7264 427.9789 L242.5484 427.9999 L242.3771 428.0274 L242.2136 428.0633 L242.058 428.1053 L241.9091 428.1542 L241.7694 428.2095 L241.6362 428.2689 L241.5096 428.3347 L241.3923 428.4058 L241.2816 428.4811 L241.1801 428.5614 L241.0851 428.6444 L240.9995 428.7313 L240.9216 428.8226 L240.8518 428.916 L240.7898 429.0109 L240.7358 429.1097 L240.691 429.2085 L240.654 429.3103 L240.6264 429.413 L240.6066 429.5159 L240.5948 429.6198 L240.5921 429.7241 L240.5987 429.827 L240.6132 429.9297 L240.629 429.9866 C238.7135 430.3161 239.2171 432.5769 240.1346 432.5769 L240.2269 432.5769 C240.0107 434.1378 242.3177 435.0593 243.487 434.1838 L243.5687 434.0904 C243.9353 435.5785 248.8933 435.6918 249.8926 434.5792 L249.9849 434.611 C252.1586 434.7812 253.1473 433.2822 252.6689 432.2065 L252.7862 432.1696 C253.5283 431.9744 253.6153 430.2646 252.3432 430.0126 L252.3696 429.9457 C252.9206 428.833 251.6182 427.7877 249.8108 427.9839 L249.6869 427.9166 C248.3937 426.7475 244.6761 426.9386 244.2437 428.0973 Z " opacity="1" fill="#FFFFFF" fill-opacity="1" /><path d="M200.8078 434.8167 L198.3663 438.2929 L177.187 438.2929 L180.6882 434.8167 Z " opacity="1" fill="#036998" fill-opacity="1" /><path d="M200.8078 434.8167 L198.3663 438.2929 L177.187 438.2929 L180.6882 434.8167 Z " opacity="1" stroke="#FFFFFF" stroke-opacity="1" stroke-width="0.39999" stroke-linecap="butt" stroke-linejoin="miter" stroke-dasharray="none" fill-opacity="0" /><path d="M177.187 442.0828 L177.187 438.2929 L197.4093 438.2929 L197.4093 442.0828 Z " opacity="1" fill="#036998" fill-opacity="1" /><path d="M177.187 442.0828 L197.4093 442.0828 L197.4093 438.2929 L177.187 438.2929 Z " opacity="1" stroke="#FFFFFF" stroke-opacity="1" stroke-width="0.39999" stroke-linecap="butt" stroke-linejoin="miter" stroke-dasharray="none" fill-opacity="0" /><path d="M196.8069 446.9752 L196.8069 445.7702 L199.4473 442.1042 L199.4473 444.3386 Z " opacity="1" fill="#036998" fill-opacity="1" /><path d="M196.8069 446.9752 L196.8069 445.7702 L199.4473 442.1042 L199.4473 444.3386 Z " opacity="1" stroke="#FFFFFF" stroke-opacity="1" stroke-width="0.39999" stroke-linecap="butt" stroke-linejoin="miter" stroke-dasharray="none" fill-opacity="0" /><path d="M196.8069 445.7702 L196.8069 446.9752 L173.5665 446.9752 L173.5665 445.7702 Z " opacity="1" fill="#036998" fill-opacity="1" /><path d="M173.5665 446.9752 L196.8069 446.9752 L196.8069 445.7702 L173.5665 445.7702 Z " opacity="1" stroke="#FFFFFF" stroke-opacity="1" stroke-width="0.39999" stroke-linecap="butt" stroke-linejoin="miter" stroke-dasharray="none" fill-opacity="0" /><path d="M177.187 422.2678 L197.2696 422.2678 L197.2696 437.4583 L177.187 437.4583 Z " opacity="1" fill="#036998" fill-opacity="1" /><path d="M177.187 437.4583 L197.2696 437.4583 L197.2696 422.2678 L177.187 422.2678 Z " opacity="1" stroke="#FFFFFF" stroke-opacity="1" stroke-width="0.39999" stroke-linecap="butt" stroke-linejoin="miter" stroke-dasharray="none" fill-opacity="0" /><path d="M197.2696 437.4583 L200.709 434.019 L200.709 418.827 L197.2696 422.2678 Z " opacity="1" fill="#036998" fill-opacity="1" /><path d="M197.2696 437.4583 L200.709 434.019 L200.709 418.827 L197.2696 422.2678 Z " opacity="1" stroke="#FFFFFF" stroke-opacity="1" stroke-width="0.39999" stroke-linecap="butt" stroke-linejoin="miter" stroke-dasharray="none" fill-opacity="0" /><path d="M196.8069 445.7702 L173.5665 445.7702 L176.2549 442.1042 L199.4473 442.1042 Z " opacity="1" fill="#036998" fill-opacity="1" /><path d="M196.8069 445.7702 L173.5665 445.7702 L176.2549 442.1042 L199.4473 442.1042 Z " opacity="1" stroke="#FFFFFF" stroke-opacity="1" stroke-width="0.39999" stroke-linecap="butt" stroke-linejoin="miter" stroke-dasharray="none" fill-opacity="0" /><path d="M197.3882 442.0937 L197.3882 438.2929 L200.8078 434.8997 L200.8078 438.6739 Z " opacity="1" fill="#036998" fill-opacity="1" /><path d="M197.3882 442.0937 L197.3882 438.2929 L200.8078 434.8997 L200.8078 438.6739 Z " opacity="1" stroke="#FFFFFF" stroke-opacity="1" stroke-width="0.39999" stroke-linecap="butt" stroke-linejoin="miter" stroke-dasharray="none" fill-opacity="0" /><path d="M180.4615 424.0135 L193.9277 424.0135 C194.8084 424.0135 195.5189 424.7238 195.5189 425.6044 L195.5189 434.1113 C195.5189 434.9865 194.8084 435.6973 193.9277 435.6973 L180.4615 435.6973 C179.5862 435.6973 178.8757 434.9865 178.8757 434.1113 L178.8757 425.6044 C178.8757 424.7238 179.5862 424.0135 180.4615 424.0135 Z " opacity="1" fill="#036998" fill-opacity="1" /><path d="M180.4615 424.0135 L193.9277 424.0135 C194.8084 424.0135 195.5189 424.7238 195.5189 425.6044 L195.5189 434.1113 C195.5189 434.9865 194.8084 435.6973 193.9277 435.6973 L180.4615 435.6973 C179.5862 435.6973 178.8757 434.9865 178.8757 434.1113 L178.8757 425.6044 C178.8757 424.7238 179.5862 424.0135 180.4615 424.0135 Z " opacity="1" stroke="#FFFFFF" stroke-opacity="1" stroke-width="0.39999" stroke-linecap="butt" stroke-linejoin="miter" stroke-dasharray="none" fill-opacity="0" /><path d="M200.709 418.827 L181.1102 418.827 L177.187 422.2678 L197.2696 422.2678 Z " opacity="1" fill="#036998" fill-opacity="1" /><path d="M200.709 418.827 L181.1102 418.827 L177.187 422.2678 L197.2696 422.2678 Z " opacity="1" stroke="#FFFFFF" stroke-opacity="1" stroke-width="0.39999" stroke-linecap="butt" stroke-linejoin="miter" stroke-dasharray="none" fill-opacity="0" /><path d="M184.8488 426.7526 L184.7341 426.7305 L184.622 426.712 L184.5099 426.6946 L184.4006 426.6801 L184.1869 426.6577 L183.9813 426.6461 L183.7809 426.642 L183.5885 426.6472 L183.4039 426.6606 L183.226 426.6816 L183.0546 426.7091 L182.8911 426.7449 L182.7356 426.787 L182.5866 426.8359 L182.4468 426.8913 L182.3137 426.9506 L182.1871 427.0165 L182.0699 427.0874 L181.9591 427.1628 L181.8576 427.2431 L181.7627 427.3261 L181.677 427.4133 L181.5992 427.5043 L181.5293 427.5977 L181.4674 427.6925 L181.4133 427.7917 L181.3685 427.8905 L181.3316 427.992 L181.3039 428.0947 L181.2841 428.1976 L181.2722 428.3019 L181.2696 428.4058 L181.2762 428.5086 L181.2907 428.6115 L181.3066 428.6683 C179.3911 428.9977 179.8947 431.2586 180.8122 431.2586 L180.9045 431.2586 C180.6882 432.8195 182.9953 433.741 184.1646 432.8654 L184.2463 432.7721 C184.6127 434.2602 189.5708 434.3736 190.57 433.2612 L190.6623 433.2927 C192.8362 433.4629 193.8249 431.9639 193.3464 430.8882 L193.4637 430.8513 C194.2059 430.6561 194.2929 428.9464 193.0208 428.6947 L193.0471 428.6274 C193.5981 427.5147 192.2957 426.4694 190.4883 426.6656 L190.3645 426.5983 C189.0712 425.4291 185.3537 425.6203 184.9213 426.779 Z " opacity="1" fill="#FFFFFF" fill-opacity="1" /><path d="M199.4118 415.1201 L198.5285 414.9514 L197.6585 414.8037 L196.8016 414.6748 L195.9579 414.564 L194.3101 414.3978 L192.7176 414.3029 L191.1792 414.2765 L189.6948 414.316 L188.267 414.4178 L186.8947 414.5799 L185.5791 414.7986 L184.3188 415.0727 L183.1178 415.3997 L181.9736 415.7741 L180.8886 416.1973 L179.8617 416.6626 L178.8941 417.1702 L177.9872 417.7159 L177.1394 418.2959 L176.3525 418.9103 L175.6274 419.5549 L174.9643 420.2272 L174.3624 420.9246 L173.8237 421.6444 L173.3481 422.3827 L172.9363 423.1379 L172.5885 423.9066 L172.3054 424.6883 L172.0873 425.4766 L171.9349 426.2717 L171.8486 427.0704 L171.8286 427.8691 L171.876 428.6653 L171.9907 429.4565 L172.1195 429.9138 C157.3248 432.4331 161.2025 449.8899 168.2986 449.8899 L168.9988 449.8685 C167.2067 458.0721 184.4994 466.4193 194.1386 462.2483 L194.7569 461.5687 C198.191 468.9478 210.4009 470.1784 222.4816 470.4877 C232.9461 470.7552 239.0524 469.9264 243.5384 465.3433 L244.2332 465.5442 C260.9845 466.8933 268.6107 455.3224 264.9499 447.0106 L265.8517 446.759 C271.5624 445.2496 272.2215 432.0667 262.4214 430.1155 L262.6127 429.6053 C266.8654 421.0314 256.8346 412.9412 242.9149 414.4612 L241.9473 413.9561 C231.9824 404.9339 203.3046 406.4065 199.984 415.3312 Z " opacity="1" stroke="#036998" stroke-opacity="1" stroke-width="0.39999" stroke-linecap="butt" stroke-linejoin="miter" stroke-dasharray="none" fill-opacity="0" /><line x1="206.9708" y1="454.9821" x2="194.4472" y2="446.6348" opacity="1" stroke="#036998" stroke-opacity="1" stroke-width="0.39999" stroke-linecap="butt" stroke-linejoin="miter" stroke-dasharray="none" /><line x1="227.1839" y1="453.0049" x2="235.0935" y2="447.7319" opacity="1" stroke="#036998" stroke-opacity="1" stroke-width="0.39999" stroke-linecap="butt" stroke-linejoin="miter" stroke-dasharray="none" /><line x1="199.2825" y1="427.2985" x2="236.632" y2="427.2985" opacity="1" stroke="#036998" stroke-opacity="1" stroke-width="0.39999" stroke-linecap="butt" stroke-linejoin="miter" stroke-dasharray="none" /></g></g><g><rect x="819" y="414" width="36" height="36" opacity="1" stroke="#225486" stroke-opacity="1" stroke-width="1" stroke-linecap="butt" stroke-linejoin="miter" stroke-dasharray="none" fill="#FFFFFF" fill-opacity="1" /><line x1="810" y1="423" x2="819" y2="423" opacity="1" stroke="#225486" stroke-opacity="1" stroke-width="1" stroke-linecap="butt" stroke-linejoin="miter" stroke-dasharray="none" /><line x1="810" y1="432" x2="819" y2="432" opacity="1" stroke="#225486" stroke-opacity="1" stroke-width="1" stroke-linecap="butt" stroke-linejoin="miter" stroke-dasharray="none" /><line x1="810" y1="441" x2="819" y2="441" opacity="1" stroke="#225486" stroke-opacity="1" stroke-width="1" stroke-linecap="butt" stroke-linejoin="miter" stroke-dasharray="none" /><line x1="855" y1="423" x2="864" y2="423" opacity="1" stroke="#225486" stroke-opacity="1" stroke-width="1" stroke-linecap="butt" stroke-linejoin="miter" stroke-dasharray="none" /><line x1="855" y1="432" x2="864" y2="432" opacity="1" stroke="#225486" stroke-opacity="1" stroke-width="1" stroke-linecap="butt" stroke-linejoin="miter" stroke-dasharray="none" /><line x1="855" y1="441" x2="864" y2="441" opacity="1" stroke="#225486" stroke-opacity="1" stroke-width="1" stroke-linecap="butt" stroke-linejoin="miter" stroke-dasharray="none" /><line x1="828" y1="450" x2="828" y2="459" opacity="1" stroke="#225486" stroke-opacity="1" stroke-width="1" stroke-linecap="butt" stroke-linejoin="miter" stroke-dasharray="none" /><line x1="837" y1="450" x2="837" y2="459" opacity="1" stroke="#225486" stroke-opacity="1" stroke-width="1" stroke-linecap="butt" stroke-linejoin="miter" stroke-dasharray="none" /><line x1="846" y1="450" x2="846" y2="459" opacity="1" stroke="#225486" stroke-opacity="1" stroke-width="1" stroke-linecap="butt" stroke-linejoin="miter" stroke-dasharray="none" /><line x1="828" y1="405" x2="828" y2="414" opacity="1" stroke="#225486" stroke-opacity="1" stroke-width="1" stroke-linecap="butt" stroke-linejoin="miter" stroke-dasharray="none" /><line x1="837" y1="405" x2="837" y2="414" opacity="1" stroke="#225486" stroke-opacity="1" stroke-width="1" stroke-linecap="butt" stroke-linejoin="miter" stroke-dasharray="none" /><line x1="846" y1="405" x2="846" y2="414" opacity="1" stroke="#225486" stroke-opacity="1" stroke-width="1" stroke-linecap="butt" stroke-linejoin="miter" stroke-dasharray="none" /><rect x="824.6664" y="419.6667" width="9" height="9" opacity="1" stroke="#225486" stroke-opacity="1" stroke-width="1" stroke-linecap="butt" stroke-linejoin="miter" stroke-dasharray="none" fill="#3791EE" fill-opacity="1" /><rect x="840.3336" y="419.6667" width="9" height="9" opacity="1" stroke="#225486" stroke-opacity="1" stroke-width="1" stroke-linecap="butt" stroke-linejoin="miter" stroke-dasharray="none" fill="#3791EE" fill-opacity="1" /><rect x="825.3324" y="434.6667" width="9" height="9" opacity="1" stroke="#225486" stroke-opacity="1" stroke-width="1" stroke-linecap="butt" stroke-linejoin="miter" stroke-dasharray="none" fill="#3791EE" fill-opacity="1" /><rect x="840.9996" y="434.6667" width="9" height="9" opacity="1" stroke="#225486" stroke-opacity="1" stroke-width="1" stroke-linecap="butt" stroke-linejoin="miter" stroke-dasharray="none" fill="#3791EE" fill-opacity="1" /></g><text x="875.9999" y="442.7312" font-size="12" fill="#000000" fill-opacity="1" font-family="Arial" font-weight="normal" font-style="normal">- CPU - SIMD
</text><text x="875.9999" y="457.7312" font-size="12" fill="#000000" fill-opacity="1" font-family="Arial" font-weight="normal" font-style="normal">- iGPU
</text><text x="875.9999" y="472.7312" font-size="12" fill="#000000" fill-opacity="1" font-family="Arial" font-weight="normal" font-style="normal">- dGPU</text><text x="578.3726" y="552.8004" font-size="18" fill="#FB0106" fill-opacity="1" font-family="Arial" font-weight="normal" font-style="normal">JVM</text><path d="M533.8049 530.4146 Q558 603 712.0667 525.9667" marker-start="url(#marker3)" marker-end="url(#marker4)" opacity="1" stroke="#FB0106" stroke-opacity="1" stroke-width="1" stroke-linecap="butt" stroke-linejoin="miter" stroke-dasharray="2,2" fill-opacity="0" /><text x="512.6787" y="533.1449" font-size="22" fill="#FB0106" fill-opacity="1" font-family="Arial" font-weight="normal" font-style="normal">+</text><text x="721.6123" y="533.1449" font-size="22" fill="#FB0106" fill-opacity="1" font-family="Arial" font-weight="normal" font-style="normal">-</text><g><rect x="504.3211" y="367.7176" width="24.2506" height="17.26385" rx="4.702425" ry="4.702425" opacity="1" stroke="#225486" stroke-opacity="1" stroke-width="1" stroke-linecap="butt" stroke-linejoin="miter" stroke-dasharray="none" fill="#A3C0D2" fill-opacity="1" /><rect x="543.1219" y="367.7097" width="24.25064" height="17.27168" rx="4.702425" ry="4.702425" opacity="1" stroke="#225486" stroke-opacity="1" stroke-width="1" stroke-linecap="butt" stroke-linejoin="miter" stroke-dasharray="none" fill="#A3C0D2" fill-opacity="1" /><rect x="527.6017" y="398.7504" width="24.25064" height="17.27168" rx="4.702425" ry="4.702425" opacity="1" stroke="#225486" stroke-opacity="1" stroke-width="1" stroke-linecap="butt" stroke-linejoin="miter" stroke-dasharray="none" fill="#A3C0D2" fill-opacity="1" /><rect x="450" y="383.2298" width="24.25064" height="17.27161" rx="4.702425" ry="4.702425" opacity="1" stroke="#225486" stroke-opacity="1" stroke-width="1" stroke-linecap="butt" stroke-linejoin="miter" stroke-dasharray="none" fill="#A3C0D2" fill-opacity="1" /><rect x="598.4132" y="383.2298" width="27.62262" height="17.27161" rx="4.702425" ry="4.702425" opacity="1" stroke="#225486" stroke-opacity="1" stroke-width="1" stroke-linecap="butt" stroke-linejoin="miter" stroke-dasharray="none" fill="#A3C0D2" fill-opacity="1" /><line x1="489.771" y1="367.7176" x2="489.771" y2="414.2786" opacity="1" stroke="#225486" stroke-opacity="1" stroke-width="3" stroke-linecap="butt" stroke-linejoin="miter" stroke-dasharray="none" /><line x1="582.8929" y1="367.7176" x2="582.8929" y2="414.2786" opacity="1" stroke="#225486" stroke-opacity="1" stroke-width="3" stroke-linecap="butt" stroke-linejoin="miter" stroke-dasharray="none" /><line x1="489.771" y1="375.4777" x2="504.8564" y2="375.4777" marker-end="url(#marker5)" opacity="1" stroke="#000000" stroke-opacity="1" stroke-width="1" stroke-linecap="butt" stroke-linejoin="miter" stroke-dasharray="none" /><line x1="474.2506" y1="390.998" x2="489.3361" y2="390.998" marker-end="url(#marker6)" opacity="1" stroke="#000000" stroke-opacity="1" stroke-width="1" stroke-linecap="butt" stroke-linejoin="miter" stroke-dasharray="none" /><line x1="528.5718" y1="375.4777" x2="543.6572" y2="375.4777" marker-end="url(#marker7)" opacity="1" stroke="#000000" stroke-opacity="1" stroke-width="1" stroke-linecap="butt" stroke-linejoin="miter" stroke-dasharray="none" /><line x1="567.3726" y1="375.4777" x2="582.458" y2="375.4777" marker-end="url(#marker8)" opacity="1" stroke="#000000" stroke-opacity="1" stroke-width="1" stroke-linecap="butt" stroke-linejoin="miter" stroke-dasharray="none" /><line x1="582.8929" y1="390.998" x2="597.9783" y2="390.998" marker-end="url(#marker9)" opacity="1" stroke="#000000" stroke-opacity="1" stroke-width="1" stroke-linecap="butt" stroke-linejoin="miter" stroke-dasharray="none" /><line x1="489.771" y1="406.5184" x2="528.1368" y2="406.5184" marker-end="url(#marker10)" opacity="1" stroke="#000000" stroke-opacity="1" stroke-width="1" stroke-linecap="butt" stroke-linejoin="miter" stroke-dasharray="none" /><line x1="551.8522" y1="406.5184" x2="582.458" y2="406.5184" marker-end="url(#marker11)" opacity="1" stroke="#000000" stroke-opacity="1" stroke-width="1" stroke-linecap="butt" stroke-linejoin="miter" stroke-dasharray="none" /></g></g></svg>