<?xml version="1.0" encoding="utf-8"?>
<svg width="100%" height="100%" version="1.1" viewBox="1050 276 645 448.8835" xmlns:xlink="http://www.w3.org/1999/xlink" xmlns:inkscape="http://www.inkscape.org/namespaces/inkscape" xmlns="http://www.w3.org/2000/svg">
  <defs>
    <filter id="shadow1" width="150%" height="150%">
      <feGaussianBlur in="SourceAlpha" result="blur" stdDeviation="3" />
      <feOffset dx="3" dy="3" in="blur" result="offsetBlur" />
      <feMerge>
        <feMergeNode in="offsetBlur" />
        <feMergeNode in="SourceGraphic" />
      </feMerge>
    </filter>
  </defs>
  <marker id="marker1" markerUnits="strokeWidth" orient="auto" refX="-11.17254" refY="0" markerWidth="13.27247" markerHeight="10.22955" viewBox="-12.27247 -5.114774 13.27247 10.22955">
    <path d="M-11.27247 -4.114774 L0 0 L-11.27247 4.114773 Z " fill="#000000" fill-opacity="1" stroke="#000000" stroke-opacity="1" />
  </marker>
  <marker id="marker2" markerUnits="strokeWidth" orient="auto" refX="-0.8697562" refY="0" markerWidth="13.27247" markerHeight="10.22955" viewBox="-12.27247 -5.114774 13.27247 10.22955">
    <path d="M-11.27247 -4.114774 L0 0 L-11.27247 4.114773" fill="none" stroke="#000000" stroke-opacity="1" />
  </marker>
  <marker id="marker3" markerUnits="strokeWidth" orient="auto" refX="11.17254" refY="0" markerWidth="13.27247" markerHeight="10.22955" viewBox="-1 -5.114774 13.27247 10.22955">
    <path d="M11.27247 4.114773 L0 0 L11.27247 -4.114774 Z " fill="#000000" fill-opacity="1" stroke="#000000" stroke-opacity="1" />
  </marker>
  <marker id="marker4" markerUnits="strokeWidth" orient="auto" refX="-11.17254" refY="0" markerWidth="13.27247" markerHeight="10.22955" viewBox="-12.27247 -5.114774 13.27247 10.22955">
    <path d="M-11.27247 -4.114774 L0 0 L-11.27247 4.114773 Z " fill="#000000" fill-opacity="1" stroke="#000000" stroke-opacity="1" />
  </marker>
  <marker id="marker5" markerUnits="strokeWidth" orient="auto" refX="-11.17254" refY="0" markerWidth="13.27247" markerHeight="10.22955" viewBox="-12.27247 -5.114774 13.27247 10.22955">
    <path d="M-11.27247 -4.114774 L0 0 L-11.27247 4.114773 Z " fill="#000000" fill-opacity="1" stroke="#000000" stroke-opacity="1" />
  </marker>
  <marker id="marker6" markerUnits="strokeWidth" orient="auto" refX="11.17254" refY="0" markerWidth="13.27247" markerHeight="10.22955" viewBox="-1 -5.114774 13.27247 10.22955">
    <path d="M11.27247 4.114773 L0 0 L11.27247 -4.114774 Z " fill="#000000" fill-opacity="1" stroke="#000000" stroke-opacity="1" />
  </marker>
  <marker id="marker7" markerUnits="strokeWidth" orient="auto" refX="-11.17254" refY="0" markerWidth="13.27247" markerHeight="10.22955" viewBox="-12.27247 -5.114774 13.27247 10.22955">
    <path d="M-11.27247 -4.114774 L0 0 L-11.27247 4.114773 Z " fill="#000000" fill-opacity="1" stroke="#000000" stroke-opacity="1" />
  </marker>
  <marker id="marker8" markerUnits="strokeWidth" orient="auto" refX="-11.17254" refY="0" markerWidth="13.27247" markerHeight="10.22955" viewBox="-12.27247 -5.114774 13.27247 10.22955">
    <path d="M-11.27247 -4.114774 L0 0 L-11.27247 4.114773 Z " fill="#000000" fill-opacity="1" stroke="#000000" stroke-opacity="1" />
  </marker>
  <marker id="marker9" markerUnits="strokeWidth" orient="auto" refX="15.57393" refY="0" markerWidth="15.27247" markerHeight="12.22955" viewBox="-2 -6.114774 15.27247 12.22955">
    <path d="M11.27247 4.114773 L0 0 L11.27247 -4.114774 Z " fill="#7F7F7F" fill-opacity="1" stroke="#7F7F7F" stroke-opacity="1" />
  </marker>
  <marker id="marker10" markerUnits="strokeWidth" orient="auto" refX="-15.57393" refY="0" markerWidth="15.27247" markerHeight="12.22955" viewBox="-13.27247 -6.114774 15.27247 12.22955">
    <path d="M-11.27247 -4.114774 L0 0 L-11.27247 4.114773 Z " fill="#7F7F7F" fill-opacity="1" stroke="#7F7F7F" stroke-opacity="1" />
  </marker>
  <marker id="marker11" markerUnits="strokeWidth" orient="auto" refX="-15.57393" refY="0" markerWidth="15.27247" markerHeight="12.22955" viewBox="-13.27247 -6.114774 15.27247 12.22955">
    <path d="M-11.27247 -4.114774 L0 0 L-11.27247 4.114773 Z " fill="#7F7F7F" fill-opacity="1" stroke="#7F7F7F" stroke-opacity="1" />
  </marker>
  <linearGradient id="gradient1" x1="100%" y1="50%" x2="0%" y2="49.99999%">
    <stop offset="2%" stop-color="#969696" stop-opacity="1" />
    <stop offset="44%" stop-color="#FFFFFF" stop-opacity="1" />
  </linearGradient>
  <linearGradient id="gradient2" x1="100%" y1="50%" x2="0%" y2="50%">
    <stop offset="1%" stop-color="#9B9B9B" stop-opacity="1" />
    <stop offset="41%" stop-color="#FFFFFF" stop-opacity="1" />
  </linearGradient>
  <marker id="marker12" markerUnits="strokeWidth" orient="auto" refX="15.57393" refY="0" markerWidth="15.27247" markerHeight="12.22955" viewBox="-2 -6.114774 15.27247 12.22955">
    <path d="M11.27247 4.114773 L0 0 L11.27247 -4.114774 Z " fill="#7F7F7F" fill-opacity="1" stroke="#7F7F7F" stroke-opacity="1" />
  </marker>
  <marker id="marker13" markerUnits="strokeWidth" orient="auto" refX="-15.57393" refY="0" markerWidth="15.27247" markerHeight="12.22955" viewBox="-13.27247 -6.114774 15.27247 12.22955">
    <path d="M-11.27247 -4.114774 L0 0 L-11.27247 4.114773 Z " fill="#7F7F7F" fill-opacity="1" stroke="#7F7F7F" stroke-opacity="1" />
  </marker>
  <g id="layer1" inkscape:label="Layer 1" inkscape:groupmode="layer">
    <rect x="1080" y="369" width="324" height="270" opacity="1" stroke="#000000" stroke-opacity="1" stroke-width="1" stroke-linecap="butt" stroke-linejoin="miter" stroke-dasharray="none" fill="#FFFFFF" fill-opacity="1" filter="url(#shadow1)" />
    <rect x="1098" y="405" width="288" height="216" opacity="1" stroke="#000000" stroke-opacity="1" stroke-width="1" stroke-linecap="butt" stroke-linejoin="miter" stroke-dasharray="none" fill="#FFFFFF" fill-opacity="1" filter="url(#shadow1)" />
    <g>
      <path d="M1206 286.875 L1206 334.125 Q1215 342 1242 342 Q1269 342 1278 334.125 L1278 286.875 Z " opacity="1" stroke="#000000" stroke-opacity="1" stroke-width="1" stroke-linecap="butt" stroke-linejoin="miter" stroke-dasharray="none" fill="#FFFFFF" fill-opacity="1" filter="url(#shadow1)" />
      <text x="1222.32" y="320.0586" font-size="15" fill="#000000" fill-opacity="1" font-family="Arial" font-weight="normal" font-style="normal">Config</text>
      <ellipse cx="1242" cy="286.875" rx="36" ry="7.875" opacity="1" stroke="#000000" stroke-opacity="1" stroke-width="1" stroke-linecap="butt" stroke-linejoin="miter" stroke-dasharray="none" fill="#FFFFFF" fill-opacity="1" />
    </g>
    <g>
      <rect x="1197" y="522" width="81" height="63" opacity="1" stroke="#000000" stroke-opacity="1" stroke-width="1" stroke-linecap="butt" stroke-linejoin="miter" stroke-dasharray="none" fill="#FFFFFF" fill-opacity="1" filter="url(#shadow1)" />
      <rect x="1206" y="531" width="81" height="63" opacity="1" stroke="#000000" stroke-opacity="1" stroke-width="1" stroke-linecap="butt" stroke-linejoin="miter" stroke-dasharray="none" fill="#FFFFFF" fill-opacity="1" filter="url(#shadow1)" />
      <rect x="1215" y="540" width="81" height="63" opacity="1" stroke="#000000" stroke-opacity="1" stroke-width="1" stroke-linecap="butt" stroke-linejoin="miter" stroke-dasharray="none" fill="#FFFFFF" fill-opacity="1" filter="url(#shadow1)" />
      <text x="1238.824" y="567.3625" font-size="16" fill="#000000" fill-opacity="1" font-family="Arial" font-weight="normal" font-style="normal">Race</text>
      <text x="1234.828" y="585.3625" font-size="16" fill="#000000" fill-opacity="1" font-family="Arial" font-weight="normal" font-style="normal">Actors</text>
    </g>
    <rect x="1206" y="441" width="81" height="36" opacity="1" stroke="#000000" stroke-opacity="1" stroke-width="1" stroke-linecap="butt" stroke-linejoin="miter" stroke-dasharray="none" fill="#FFFFFF" fill-opacity="1" filter="url(#shadow1)" />
    <text x="1225.579" y="464.6211" font-size="15" fill="#000000" fill-opacity="1" font-family="Arial" font-weight="normal" font-style="normal">Master</text>
    <g>
      <g>
        <path d="M1143.445 672.7876 L1116.657 672.7876 L1116.657 720 L1143.445 720" opacity="1" fill="#9B9B9B" fill-opacity="1" />
        <path d="M1143.445 672.7876 L1116.657 672.7876 L1116.657 720 L1143.445 720" opacity="1" stroke="#FFFFFF" stroke-opacity="1" stroke-width="0.4" stroke-linecap="butt" stroke-linejoin="miter" stroke-dasharray="none" fill-opacity="0" />
        <path d="M1143.445 720 L1152 713.2124 L1152 666 L1125.212 666 L1116.657 672.7876 L1143.445 672.7876 Z " opacity="1" fill="#9B9B9B" fill-opacity="1" />
        <path d="M1143.445 720 L1152 713.2124 L1152 666 L1125.212 666 L1116.657 672.7876 L1143.445 672.7876 Z " opacity="1" stroke="#FFFFFF" stroke-opacity="1" stroke-width="0.4" stroke-linecap="butt" stroke-linejoin="miter" stroke-dasharray="none" fill-opacity="0" />
        <line x1="1143.445" y1="672.7876" x2="1152" y2="666" opacity="1" stroke="#026C9B" stroke-opacity="1" stroke-width="0" stroke-linecap="butt" stroke-linejoin="miter" stroke-dasharray="none" />
        <line x1="1143.445" y1="672.7876" x2="1152" y2="666" opacity="1" stroke="#FFFFFF" stroke-opacity="1" stroke-width="0.4" stroke-linecap="butt" stroke-linejoin="miter" stroke-dasharray="none" />
        <path d="M1132.468 694.3815 L1132.468 692.8275 L1118.976 692.8275 L1118.976 694.3815 Z " opacity="1" fill="#9B9B9B" fill-opacity="1" />
        <path d="M1118.976 694.3815 L1132.468 694.3815 L1132.468 692.8275 L1118.976 692.8275 Z " opacity="1" stroke="#FFFFFF" stroke-opacity="1" stroke-width="0.4" stroke-linecap="butt" stroke-linejoin="miter" stroke-dasharray="none" fill-opacity="0" />
        <path d="M1132.468 697.6031 L1132.468 696.0489 L1118.976 696.0489 L1118.976 697.6031 Z " opacity="1" fill="#9B9B9B" fill-opacity="1" />
        <path d="M1118.976 697.6031 L1132.468 697.6031 L1132.468 696.0489 L1118.976 696.0489 Z " opacity="1" stroke="#FFFFFF" stroke-opacity="1" stroke-width="0.4" stroke-linecap="butt" stroke-linejoin="miter" stroke-dasharray="none" fill-opacity="0" />
        <path d="M1132.468 700.8297 L1132.468 699.2756 L1118.976 699.2756 L1118.976 700.8297 Z " opacity="1" fill="#9B9B9B" fill-opacity="1" />
        <path d="M1118.976 700.8297 L1132.468 700.8297 L1132.468 699.2756 L1118.976 699.2756 Z " opacity="1" stroke="#FFFFFF" stroke-opacity="1" stroke-width="0.4" stroke-linecap="butt" stroke-linejoin="miter" stroke-dasharray="none" fill-opacity="0" />
        <path d="M1132.468 704.0509 L1132.468 702.497 L1118.976 702.497 L1118.976 704.0509 Z " opacity="1" fill="#9B9B9B" fill-opacity="1" />
        <path d="M1118.976 704.0509 L1132.468 704.0509 L1132.468 702.497 L1118.976 702.497 Z " opacity="1" stroke="#FFFFFF" stroke-opacity="1" stroke-width="0.4" stroke-linecap="butt" stroke-linejoin="miter" stroke-dasharray="none" fill-opacity="0" />
        <path d="M1132.468 707.2714 L1132.468 705.718 L1118.976 705.718 L1118.976 707.2714 Z " opacity="1" fill="#9B9B9B" fill-opacity="1" />
        <path d="M1118.976 707.2714 L1132.468 707.2714 L1132.468 705.718 L1118.976 705.718 Z " opacity="1" stroke="#FFFFFF" stroke-opacity="1" stroke-width="0.4" stroke-linecap="butt" stroke-linejoin="miter" stroke-dasharray="none" fill-opacity="0" />
        <path d="M1132.468 710.493 L1132.468 708.939 L1118.976 708.939 L1118.976 710.493 Z " opacity="1" fill="#9B9B9B" fill-opacity="1" />
        <path d="M1118.976 710.493 L1132.468 710.493 L1132.468 708.939 L1118.976 708.939 Z " opacity="1" stroke="#FFFFFF" stroke-opacity="1" stroke-width="0.4" stroke-linecap="butt" stroke-linejoin="miter" stroke-dasharray="none" fill-opacity="0" />
        <path d="M1132.468 713.7197 L1132.468 712.1656 L1118.976 712.1656 L1118.976 713.7197 Z " opacity="1" fill="#9B9B9B" fill-opacity="1" />
        <path d="M1118.976 713.7197 L1132.468 713.7197 L1132.468 712.1656 L1118.976 712.1656 Z " opacity="1" stroke="#FFFFFF" stroke-opacity="1" stroke-width="0.4" stroke-linecap="butt" stroke-linejoin="miter" stroke-dasharray="none" fill-opacity="0" />
        <path d="M1132.468 716.9354 L1132.468 715.3813 L1118.976 715.3813 L1118.976 716.9354 Z " opacity="1" fill="#9B9B9B" fill-opacity="1" />
        <path d="M1118.976 716.9354 L1132.468 716.9354 L1132.468 715.3813 L1118.976 715.3813 Z " opacity="1" stroke="#FFFFFF" stroke-opacity="1" stroke-width="0.4" stroke-linecap="butt" stroke-linejoin="miter" stroke-dasharray="none" fill-opacity="0" />
        <path d="M1134.094 678.2854 L1134.077 678.4898 L1134.025 678.6927 L1133.937 678.8915 L1133.819 679.0865 L1133.667 679.28 L1133.485 679.4679 L1133.271 679.653 L1133.029 679.834 L1132.757 680.0092 L1132.458 680.1818 L1132.132 680.3477 L1131.781 680.5093 L1131.403 680.6652 L1131 680.8157 L1130.574 680.9595 L1130.125 681.0977 L1129.655 681.2291 L1129.164 681.3546 L1128.652 681.4722 L1128.121 681.584 L1127.571 681.6862 L1127.003 681.7828 L1126.42 681.8698 L1125.819 681.9498 L1125.205 682.0219 L1124.574 682.0841 L1123.932 682.1379 L1123.277 682.1821 L1122.61 682.2165 L1121.932 682.2415 L1121.244 682.2567 L1120.547 682.2621 C1113.066 682.2621 1107 680.4816 1107 678.2854 L1107 687.4585 C1107 689.6495 1113.066 691.4353 1120.547 691.4353 C1128.027 691.4353 1134.094 689.6495 1134.094 687.4585 Z " opacity="1" fill="#9B9B9B" fill-opacity="1" />
        <path d="M1134.094 678.2854 L1134.077 678.4898 L1134.025 678.6927 L1133.937 678.8915 L1133.819 679.0865 L1133.667 679.28 L1133.485 679.4679 L1133.271 679.653 L1133.029 679.834 L1132.757 680.0092 L1132.458 680.1818 L1132.132 680.3477 L1131.781 680.5093 L1131.403 680.6652 L1131 680.8157 L1130.574 680.9595 L1130.125 681.0977 L1129.655 681.2291 L1129.164 681.3546 L1128.652 681.4722 L1128.121 681.584 L1127.571 681.6862 L1127.003 681.7828 L1126.42 681.8698 L1125.819 681.9498 L1125.205 682.0219 L1124.574 682.0841 L1123.932 682.1379 L1123.277 682.1821 L1122.61 682.2165 L1121.932 682.2415 L1121.244 682.2567 L1120.547 682.2621 C1113.066 682.2621 1107 680.4816 1107 678.2854 L1107 687.4585 C1107 689.6495 1113.066 691.4353 1120.547 691.4353 C1128.027 691.4353 1134.094 689.6495 1134.094 687.4585 Z " opacity="1" stroke="#FFFFFF" stroke-opacity="1" stroke-width="0.4" stroke-linecap="butt" stroke-linejoin="miter" stroke-dasharray="none" fill-opacity="0" />
        <path d="M1120.547 682.2621 L1121.244 682.2567 L1121.932 682.2415 L1122.61 682.2165 L1123.277 682.1821 L1123.932 682.1379 L1124.574 682.0841 L1125.205 682.0219 L1125.819 681.9498 L1126.42 681.8698 L1127.003 681.7828 L1127.571 681.6862 L1128.121 681.584 L1128.652 681.4722 L1129.164 681.3546 L1129.655 681.2291 L1130.125 681.0977 L1130.574 680.9595 L1131 680.8157 L1131.403 680.6652 L1131.781 680.5093 L1132.132 680.3477 L1132.458 680.1818 L1132.757 680.0092 L1133.029 679.834 L1133.271 679.653 L1133.485 679.4679 L1133.667 679.28 L1133.819 679.0865 L1133.937 678.8915 L1134.025 678.6927 L1134.077 678.4898 L1134.094 678.2854 C1134.094 676.0848 1128.027 674.3044 1120.547 674.3044 C1113.066 674.3044 1107 676.0848 1107 678.2854 C1107 680.4816 1113.066 682.2621 1120.547 682.2621 Z " opacity="1" fill="#9B9B9B" fill-opacity="1" />
        <path d="M1120.547 682.2621 L1121.244 682.2567 L1121.932 682.2415 L1122.61 682.2165 L1123.277 682.1821 L1123.932 682.1379 L1124.574 682.0841 L1125.205 682.0219 L1125.819 681.9498 L1126.42 681.8698 L1127.003 681.7828 L1127.571 681.6862 L1128.121 681.584 L1128.652 681.4722 L1129.164 681.3546 L1129.655 681.2291 L1130.125 681.0977 L1130.574 680.9595 L1131 680.8157 L1131.403 680.6652 L1131.781 680.5093 L1132.132 680.3477 L1132.458 680.1818 L1132.757 680.0092 L1133.029 679.834 L1133.271 679.653 L1133.485 679.4679 L1133.667 679.28 L1133.819 679.0865 L1133.937 678.8915 L1134.025 678.6927 L1134.077 678.4898 L1134.094 678.2854 C1134.094 676.0848 1128.027 674.3044 1120.547 674.3044 C1113.066 674.3044 1107 676.0848 1107 678.2854 C1107 680.4816 1113.066 682.2621 1120.547 682.2621 Z " opacity="1" stroke="#FFFFFF" stroke-opacity="1" stroke-width="0.4" stroke-linecap="butt" stroke-linejoin="miter" stroke-dasharray="none" fill-opacity="0" />
        <path d="M1148.6 686.573 L1148.583 686.7775 L1148.53 686.9805 L1148.443 687.1796 L1148.325 687.3743 L1148.173 687.5677 L1147.99 687.7556 L1147.778 687.9407 L1147.535 688.1216 L1147.263 688.2969 L1146.965 688.4697 L1146.638 688.6354 L1146.286 688.7971 L1145.908 688.9532 L1145.506 689.1038 L1145.079 689.2473 L1144.631 689.3854 L1144.161 689.5167 L1143.67 689.6422 L1143.158 689.7599 L1142.627 689.8718 L1142.076 689.9738 L1141.509 690.0705 L1140.926 690.1579 L1140.325 690.2379 L1139.711 690.3096 L1139.08 690.3718 L1138.438 690.4257 L1137.784 690.4697 L1137.115 690.5042 L1136.438 690.5292 L1135.75 690.5444 L1135.052 690.5501 C1127.573 690.5501 1121.506 688.7693 1121.506 686.573 L1121.506 695.7466 C1121.506 697.9372 1127.573 699.7233 1135.052 699.7233 C1142.533 699.7233 1148.6 697.9372 1148.6 695.7466 Z " opacity="1" fill="#9B9B9B" fill-opacity="1" />
        <path d="M1148.6 686.573 L1148.583 686.7775 L1148.53 686.9805 L1148.443 687.1796 L1148.325 687.3743 L1148.173 687.5677 L1147.99 687.7556 L1147.778 687.9407 L1147.535 688.1216 L1147.263 688.2969 L1146.965 688.4697 L1146.638 688.6354 L1146.286 688.7971 L1145.908 688.9532 L1145.506 689.1038 L1145.079 689.2473 L1144.631 689.3854 L1144.161 689.5167 L1143.67 689.6422 L1143.158 689.7599 L1142.627 689.8718 L1142.076 689.9738 L1141.509 690.0705 L1140.926 690.1579 L1140.325 690.2379 L1139.711 690.3096 L1139.08 690.3718 L1138.438 690.4257 L1137.784 690.4697 L1137.115 690.5042 L1136.438 690.5292 L1135.75 690.5444 L1135.052 690.5501 C1127.573 690.5501 1121.506 688.7693 1121.506 686.573 L1121.506 695.7466 C1121.506 697.9372 1127.573 699.7233 1135.052 699.7233 C1142.533 699.7233 1148.6 697.9372 1148.6 695.7466 Z " opacity="1" stroke="#FFFFFF" stroke-opacity="1" stroke-width="0.4" stroke-linecap="butt" stroke-linejoin="miter" stroke-dasharray="none" fill-opacity="0" />
        <path d="M1135.052 690.5501 L1135.75 690.5444 L1136.438 690.5292 L1137.115 690.5042 L1137.784 690.4697 L1138.438 690.4257 L1139.08 690.3718 L1139.711 690.3096 L1140.325 690.2379 L1140.926 690.1579 L1141.509 690.0705 L1142.076 689.9738 L1142.627 689.8718 L1143.158 689.7599 L1143.67 689.6422 L1144.161 689.5167 L1144.631 689.3854 L1145.079 689.2473 L1145.506 689.1038 L1145.908 688.9532 L1146.286 688.7971 L1146.638 688.6354 L1146.965 688.4697 L1147.263 688.2969 L1147.535 688.1216 L1147.778 687.9407 L1147.99 687.7556 L1148.173 687.5677 L1148.325 687.3743 L1148.443 687.1796 L1148.53 686.9805 L1148.583 686.7775 L1148.6 686.573 C1148.6 684.3726 1142.533 682.5921 1135.052 682.5921 C1127.573 682.5921 1121.506 684.3726 1121.506 686.573 C1121.506 688.7693 1127.573 690.5501 1135.052 690.5501 Z " opacity="1" fill="#9B9B9B" fill-opacity="1" />
        <path d="M1135.052 690.5501 L1135.75 690.5444 L1136.438 690.5292 L1137.115 690.5042 L1137.784 690.4697 L1138.438 690.4257 L1139.08 690.3718 L1139.711 690.3096 L1140.325 690.2379 L1140.926 690.1579 L1141.509 690.0705 L1142.076 689.9738 L1142.627 689.8718 L1143.158 689.7599 L1143.67 689.6422 L1144.161 689.5167 L1144.631 689.3854 L1145.079 689.2473 L1145.506 689.1038 L1145.908 688.9532 L1146.286 688.7971 L1146.638 688.6354 L1146.965 688.4697 L1147.263 688.2969 L1147.535 688.1216 L1147.778 687.9407 L1147.99 687.7556 L1148.173 687.5677 L1148.325 687.3743 L1148.443 687.1796 L1148.53 686.9805 L1148.583 686.7775 L1148.6 686.573 C1148.6 684.3726 1142.533 682.5921 1135.052 682.5921 C1127.573 682.5921 1121.506 684.3726 1121.506 686.573 C1121.506 688.7693 1127.573 690.5501 1135.052 690.5501 Z " opacity="1" stroke="#FFFFFF" stroke-opacity="1" stroke-width="0.4" stroke-linecap="butt" stroke-linejoin="miter" stroke-dasharray="none" fill-opacity="0" />
      </g>
    </g>
    <g>
      <g>
        <path d="M1212.205 706.1179 L1213.444 706.1084 L1214.665 706.0835 L1215.869 706.0406 L1217.054 705.9819 L1218.217 705.907 L1219.359 705.8176 L1220.476 705.7125 L1221.569 705.5934 L1222.635 705.4587 L1223.672 705.3121 L1224.679 705.1514 L1225.655 704.9773 L1226.599 704.7913 L1227.507 704.5936 L1228.38 704.3837 L1229.216 704.1621 L1230.013 703.9307 L1230.769 703.6876 L1231.483 703.436 L1232.153 703.1737 L1232.778 702.9033 L1233.359 702.623 L1233.89 702.3359 L1234.372 702.0403 L1234.802 701.7362 L1235.18 701.4265 L1235.505 701.1092 L1235.773 700.7864 L1235.984 700.4574 L1236.138 700.1235 L1236.23 699.784 L1236.262 699.4406 C1236.262 695.7489 1225.492 692.7596 1212.205 692.7596 C1198.919 692.7596 1188.153 695.7489 1188.153 699.4406 C1188.153 703.1285 1198.919 706.1179 1212.205 706.1179 Z " opacity="1" fill="#999595" fill-opacity="1" />
        <path d="M1212.205 706.1179 L1213.444 706.1084 L1214.665 706.0835 L1215.869 706.0406 L1217.054 705.9819 L1218.217 705.907 L1219.359 705.8176 L1220.476 705.7125 L1221.569 705.5934 L1222.635 705.4587 L1223.672 705.3121 L1224.679 705.1514 L1225.655 704.9773 L1226.599 704.7913 L1227.507 704.5936 L1228.38 704.3837 L1229.216 704.1621 L1230.013 703.9307 L1230.769 703.6876 L1231.483 703.436 L1232.153 703.1737 L1232.778 702.9033 L1233.359 702.623 L1233.89 702.3359 L1234.372 702.0403 L1234.802 701.7362 L1235.18 701.4265 L1235.505 701.1092 L1235.773 700.7864 L1235.984 700.4574 L1236.138 700.1235 L1236.23 699.784 L1236.262 699.4406 C1236.262 695.7489 1225.492 692.7596 1212.205 692.7596 C1198.919 692.7596 1188.153 695.7489 1188.153 699.4406 C1188.153 703.1285 1198.919 706.1179 1212.205 706.1179 Z " opacity="1" stroke="#FFFFFF" stroke-opacity="1" stroke-width="0.39999" stroke-linecap="butt" stroke-linejoin="miter" stroke-dasharray="none" fill-opacity="0" />
        <path d="M1211.854 675.2758 L1212.714 675.2698 L1213.562 675.2521 L1214.397 675.2224 L1215.221 675.1818 L1216.029 675.1295 L1216.822 675.0673 L1217.598 674.9945 L1218.356 674.9111 L1219.096 674.8181 L1219.816 674.7156 L1220.516 674.6036 L1221.194 674.4832 L1221.849 674.3546 L1222.48 674.2164 L1223.086 674.0706 L1223.666 673.9172 L1224.22 673.7561 L1224.745 673.5881 L1225.24 673.413 L1225.706 673.2306 L1226.141 673.0421 L1226.544 672.8478 L1226.912 672.6489 L1227.247 672.4425 L1227.545 672.2327 L1227.809 672.017 L1228.033 671.7966 L1228.221 671.5723 L1228.367 671.3448 L1228.473 671.1124 L1228.537 670.8763 L1228.56 670.638 C1228.56 668.0775 1221.078 666 1211.854 666 C1202.625 666 1195.15 668.0775 1195.15 670.638 C1195.15 673.1995 1202.625 675.2758 1211.854 675.2758 Z " opacity="1" fill="#999595" fill-opacity="1" />
        <path d="M1211.854 675.2758 L1212.714 675.2698 L1213.562 675.2521 L1214.397 675.2224 L1215.221 675.1818 L1216.029 675.1295 L1216.822 675.0673 L1217.598 674.9945 L1218.356 674.9111 L1219.096 674.8181 L1219.816 674.7156 L1220.516 674.6036 L1221.194 674.4832 L1221.849 674.3546 L1222.48 674.2164 L1223.086 674.0706 L1223.666 673.9172 L1224.22 673.7561 L1224.745 673.5881 L1225.24 673.413 L1225.706 673.2306 L1226.141 673.0421 L1226.544 672.8478 L1226.912 672.6489 L1227.247 672.4425 L1227.545 672.2327 L1227.809 672.017 L1228.033 671.7966 L1228.221 671.5723 L1228.367 671.3448 L1228.473 671.1124 L1228.537 670.8763 L1228.56 670.638 C1228.56 668.0775 1221.078 666 1211.854 666 C1202.625 666 1195.15 668.0775 1195.15 670.638 C1195.15 673.1995 1202.625 675.2758 1211.854 675.2758 Z " opacity="1" stroke="#FFFFFF" stroke-opacity="1" stroke-width="0.39999" stroke-linecap="butt" stroke-linejoin="miter" stroke-dasharray="none" fill-opacity="0" />
        <path d="M1211.897 695.7489 L1211.854 700.9499 C1202.625 700.9499 1195.15 698.8732 1195.15 696.3068 L1195.15 670.638 C1195.15 673.1995 1202.625 675.2758 1211.854 675.2758 C1221.078 675.2758 1228.56 673.1995 1228.56 670.638 L1228.56 696.3068 C1228.56 697.9506 1225.136 699.4645 1220.494 700.2881" opacity="1" fill="#999595" fill-opacity="1" />
        <path d="M1211.897 695.7489 L1211.854 700.9499 C1202.625 700.9499 1195.15 698.8732 1195.15 696.3068 L1195.15 670.638 C1195.15 673.1995 1202.625 675.2758 1211.854 675.2758 C1221.078 675.2758 1228.56 673.1995 1228.56 670.638 L1228.56 696.3068 C1228.56 697.9506 1225.136 699.4645 1220.494 700.2881" opacity="1" stroke="#FFFFFF" stroke-opacity="1" stroke-width="0.39999" stroke-linecap="butt" stroke-linejoin="miter" stroke-dasharray="none" fill-opacity="0" />
        <path d="M1232.487 714.8014 L1232.487 703.087 L1226.078 698.7756 L1226.078 673.1016" opacity="1" stroke="#FFFFFF" stroke-opacity="1" stroke-width="0.39999" stroke-linecap="butt" stroke-linejoin="miter" stroke-dasharray="none" fill-opacity="0" />
        <path d="M1199.087 716.985 L1199.087 705.2657 L1202.875 700.2192 L1202.875 674.5441" opacity="1" stroke="#FFFFFF" stroke-opacity="1" stroke-width="0.39999" stroke-linecap="butt" stroke-linejoin="miter" stroke-dasharray="none" fill-opacity="0" />
        <path d="M1191.534 714.7316 L1191.534 703.0166 L1197.632 698.6299 L1197.632 672.9613" opacity="1" stroke="#FFFFFF" stroke-opacity="1" stroke-width="0.39999" stroke-linecap="butt" stroke-linejoin="miter" stroke-dasharray="none" fill-opacity="0" />
        <line x1="1211.854" y1="675.2758" x2="1211.854" y2="700.9499" opacity="1" stroke="#FFFFFF" stroke-opacity="1" stroke-width="0.39999" stroke-linecap="butt" stroke-linejoin="miter" stroke-dasharray="none" />
        <line x1="1220.378" y1="700.2927" x2="1220.378" y2="674.6049" opacity="1" stroke="#000000" stroke-opacity="1" stroke-width="0" stroke-linecap="butt" stroke-linejoin="miter" stroke-dasharray="none" />
        <line x1="1220.378" y1="700.2927" x2="1220.378" y2="674.6049" opacity="1" stroke="#FFFFFF" stroke-opacity="1" stroke-width="0.39999" stroke-linecap="butt" stroke-linejoin="miter" stroke-dasharray="none" />
        <path d="M1236.262 711.2719 L1236.22 711.4918 L1236.156 711.7106 L1236.068 711.9279 L1235.956 712.144 L1235.822 712.3582 L1235.665 712.5705 L1235.486 712.781 L1235.286 712.9896 L1235.063 713.196 L1234.822 713.3998 L1234.557 713.6012 L1234.273 713.7999 L1233.97 713.9957 L1233.646 714.1885 L1233.303 714.3784 L1232.942 714.565 L1232.562 714.7484 L1232.164 714.9277 L1231.749 715.1035 L1231.314 715.2758 L1230.865 715.4437 L1230.397 715.6074 L1229.913 715.7672 L1229.414 715.922 L1228.899 716.0726 L1228.369 716.2183 L1227.823 716.3594 L1227.264 716.4952 L1226.69 716.6259 L1226.102 716.7509 L1225.501 716.8707 L1224.887 716.985 L1224.905 705.1216 C1231.508 703.9296 1235.955 701.8661 1236.262 699.5159 Z " opacity="1" fill="#999595" fill-opacity="1" />
        <path d="M1236.262 711.2719 L1236.22 711.4918 L1236.156 711.7106 L1236.068 711.9279 L1235.956 712.144 L1235.822 712.3582 L1235.665 712.5705 L1235.486 712.781 L1235.286 712.9896 L1235.063 713.196 L1234.822 713.3998 L1234.557 713.6012 L1234.273 713.7999 L1233.97 713.9957 L1233.646 714.1885 L1233.303 714.3784 L1232.942 714.565 L1232.562 714.7484 L1232.164 714.9277 L1231.749 715.1035 L1231.314 715.2758 L1230.865 715.4437 L1230.397 715.6074 L1229.913 715.7672 L1229.414 715.922 L1228.899 716.0726 L1228.369 716.2183 L1227.823 716.3594 L1227.264 716.4952 L1226.69 716.6259 L1226.102 716.7509 L1225.501 716.8707 L1224.887 716.985 L1224.905 705.1216 C1231.508 703.9296 1235.955 701.8661 1236.262 699.5159 Z " opacity="1" stroke="#FFFFFF" stroke-opacity="1" stroke-width="0.39999" stroke-linecap="butt" stroke-linejoin="miter" stroke-dasharray="none" fill-opacity="0" />
        <path d="M1188 711.095 L1188.02 711.4657 L1188.104 711.8293 L1188.253 712.1859 L1188.465 712.5355 L1188.737 712.8773 L1189.068 713.2109 L1189.457 713.5363 L1189.9 713.8533 L1190.397 714.161 L1190.946 714.4592 L1191.545 714.7484 L1192.191 715.027 L1192.885 715.2954 L1193.623 715.5531 L1194.404 715.7999 L1195.226 716.0352 L1196.088 716.2589 L1196.986 716.4707 L1197.922 716.67 L1198.891 716.8567 L1199.891 717.0303 L1200.924 717.1907 L1201.984 717.3373 L1203.072 717.4698 L1204.186 717.5881 L1205.321 717.6918 L1206.479 717.7802 L1207.657 717.8535 L1208.853 717.9109 L1210.064 717.9524 L1211.291 717.9777 L1212.532 717.9862 L1212.532 706.0894 C1199.015 706.1598 1187.847 703.2536 1188 699.269 Z " opacity="1" fill="#999595" fill-opacity="1" />
        <path d="M1188 711.095 L1188.02 711.4657 L1188.104 711.8293 L1188.253 712.1859 L1188.465 712.5355 L1188.737 712.8773 L1189.068 713.2109 L1189.457 713.5363 L1189.9 713.8533 L1190.397 714.161 L1190.946 714.4592 L1191.545 714.7484 L1192.191 715.027 L1192.885 715.2954 L1193.623 715.5531 L1194.404 715.7999 L1195.226 716.0352 L1196.088 716.2589 L1196.986 716.4707 L1197.922 716.67 L1198.891 716.8567 L1199.891 717.0303 L1200.924 717.1907 L1201.984 717.3373 L1203.072 717.4698 L1204.186 717.5881 L1205.321 717.6918 L1206.479 717.7802 L1207.657 717.8535 L1208.853 717.9109 L1210.064 717.9524 L1211.291 717.9777 L1212.532 717.9862 L1212.532 706.0894 C1199.015 706.1598 1187.847 703.2536 1188 699.269 Z " opacity="1" stroke="#FFFFFF" stroke-opacity="1" stroke-width="0.39999" stroke-linecap="butt" stroke-linejoin="miter" stroke-dasharray="none" fill-opacity="0" />
        <path d="M1211.897 675.1733 L1211.821 672.1185 C1212.864 672.1185 1213.905 672.0349 1214.708 671.9515 L1220.378 674.6049 L1220.378 700.2927 L1224.91 705.0464 L1224.91 717.0502 L1214.572 712.5104 C1214.222 712.5104 1212.594 712.7247 1212.479 712.7247 L1212.479 706.1084 L1211.897 700.9305 Z " opacity="1" fill="#999595" fill-opacity="1" />
        <path d="M1211.897 675.1733 L1211.821 672.1185 C1212.864 672.1185 1213.905 672.0349 1214.708 671.9515 L1220.378 674.6049 L1220.378 700.2927 L1224.91 705.0464 L1224.91 717.0502 L1214.572 712.5104 C1214.222 712.5104 1212.594 712.7247 1212.479 712.7247 L1212.479 706.1084 L1211.897 700.9305 Z " opacity="1" stroke="#FFFFFF" stroke-opacity="1" stroke-width="0.39999" stroke-linecap="butt" stroke-linejoin="miter" stroke-dasharray="none" fill-opacity="0" />
        <line x1="1214.572" y1="671.979" x2="1214.572" y2="712.5104" opacity="1" stroke="#FFFFFF" stroke-opacity="1" stroke-width="0.39999" stroke-linecap="butt" stroke-linejoin="miter" stroke-dasharray="none" />
        <line x1="1188.235" y1="699.0541" x2="1194.996" y2="696.6705" opacity="1" stroke="#000000" stroke-opacity="1" stroke-width="0" stroke-linecap="butt" stroke-linejoin="miter" stroke-dasharray="none" />
        <line x1="1188.235" y1="699.0541" x2="1194.996" y2="696.6705" opacity="1" stroke="#FFFFFF" stroke-opacity="1" stroke-width="0.39999" stroke-linecap="butt" stroke-linejoin="miter" stroke-dasharray="none" />
        <line x1="1236.021" y1="698.7563" x2="1228.645" y2="696.6705" opacity="1" stroke="#000000" stroke-opacity="1" stroke-width="0" stroke-linecap="butt" stroke-linejoin="miter" stroke-dasharray="none" />
        <line x1="1236.021" y1="698.7563" x2="1228.645" y2="696.6705" opacity="1" stroke="#FFFFFF" stroke-opacity="1" stroke-width="0.39999" stroke-linecap="butt" stroke-linejoin="miter" stroke-dasharray="none" />
        <path d="M1215.97 676.114 L1218.735 675.7501 L1224.497 678.2141 C1222.346 678.7719 1217.275 679.4014 1216.277 679.2286 Z " opacity="1" fill="#999595" fill-opacity="1" />
        <path d="M1215.97 676.114 L1218.735 675.7501 L1224.497 678.2141 C1222.346 678.7719 1217.275 679.4014 1216.277 679.2286 Z " opacity="1" stroke="#FFFFFF" stroke-opacity="1" stroke-width="0.39999" stroke-linecap="butt" stroke-linejoin="miter" stroke-dasharray="none" fill-opacity="0" />
        <path d="M1215.892 676.1188 L1216.277 679.2286 L1216.277 704.8558 L1216.892 710.0383 L1216.892 721.8835 L1215.892 716.8685 Z " opacity="1" fill="#999595" fill-opacity="1" />
        <path d="M1215.892 676.1188 L1216.277 679.2286 L1216.277 704.8558 L1216.892 710.0383 L1216.892 721.8835 L1215.892 716.8685 Z " opacity="1" stroke="#FFFFFF" stroke-opacity="1" stroke-width="0.39999" stroke-linecap="butt" stroke-linejoin="miter" stroke-dasharray="none" fill-opacity="0" />
        <path d="M1216.277 679.2286 L1216.432 679.2332 L1216.609 679.2332 L1216.806 679.2295 L1217.021 679.2223 L1217.254 679.2119 L1217.501 679.1974 L1217.762 679.1807 L1218.038 679.1592 L1218.323 679.1365 L1218.617 679.1104 L1218.92 679.0806 L1219.23 679.0495 L1219.861 678.9794 L1220.502 678.9019 L1221.14 678.8171 L1221.453 678.7731 L1221.762 678.7277 L1222.063 678.6802 L1222.356 678.6323 L1222.639 678.585 L1222.91 678.5349 L1223.17 678.4857 L1223.414 678.4356 L1223.643 678.3856 L1223.854 678.3356 L1224.047 678.2858 L1224.22 678.2366 L1224.371 678.1878 L1224.497 678.139 L1224.497 703.9152 C1222.27 704.3301 1218.121 704.9119 1216.277 704.7818 Z " opacity="1" fill="#999595" fill-opacity="1" />
        <path d="M1216.277 679.2286 L1216.432 679.2332 L1216.609 679.2332 L1216.806 679.2295 L1217.021 679.2223 L1217.254 679.2119 L1217.501 679.1974 L1217.762 679.1807 L1218.038 679.1592 L1218.323 679.1365 L1218.617 679.1104 L1218.92 679.0806 L1219.23 679.0495 L1219.861 678.9794 L1220.502 678.9019 L1221.14 678.8171 L1221.453 678.7731 L1221.762 678.7277 L1222.063 678.6802 L1222.356 678.6323 L1222.639 678.585 L1222.91 678.5349 L1223.17 678.4857 L1223.414 678.4356 L1223.643 678.3856 L1223.854 678.3356 L1224.047 678.2858 L1224.22 678.2366 L1224.371 678.1878 L1224.497 678.139 L1224.497 703.9152 C1222.27 704.3301 1218.121 704.9119 1216.277 704.7818 Z " opacity="1" stroke="#FFFFFF" stroke-opacity="1" stroke-width="0.39999" stroke-linecap="butt" stroke-linejoin="miter" stroke-dasharray="none" fill-opacity="0" />
        <path d="M1224.497 703.9152 L1229.107 708.4507 C1226.648 709.0981 1218.429 709.9633 1216.892 709.9633 L1216.277 704.7818 C1217.199 704.8843 1224.114 704.0881 1224.497 703.9152 Z " opacity="1" fill="#999595" fill-opacity="1" />
        <path d="M1224.497 703.9152 L1229.107 708.4507 C1226.648 709.0981 1218.429 709.9633 1216.892 709.9633 L1216.277 704.7818 C1217.199 704.8843 1224.114 704.0881 1224.497 703.9152 Z " opacity="1" stroke="#FFFFFF" stroke-opacity="1" stroke-width="0.39999" stroke-linecap="butt" stroke-linejoin="miter" stroke-dasharray="none" fill-opacity="0" />
        <path d="M1229.031 708.3804 L1229.031 720.3003 C1227.416 720.7568 1218.889 721.8605 1216.892 721.8086 L1216.892 710.0383 C1218.429 710.0383 1225.958 709.1346 1229.031 708.3804 Z " opacity="1" fill="#999595" fill-opacity="1" />
        <path d="M1229.031 708.3804 L1229.031 720.3003 C1227.416 720.7568 1218.889 721.8605 1216.892 721.8086 L1216.892 710.0383 C1218.429 710.0383 1225.958 709.1346 1229.031 708.3804 Z " opacity="1" stroke="#FFFFFF" stroke-opacity="1" stroke-width="0.39999" stroke-linecap="butt" stroke-linejoin="miter" stroke-dasharray="none" fill-opacity="0" />
      </g>
    </g>
    <g>
      <path d="M1291.539 692.4402 L1293.158 692.4311 L1294.756 692.4052 L1296.33 692.3627 L1297.88 692.3035 L1299.402 692.2293 L1300.894 692.138 L1302.357 692.0333 L1303.785 691.9136 L1305.178 691.7798 L1306.535 691.6311 L1307.852 691.4701 L1309.129 691.2959 L1310.363 691.1091 L1311.551 690.9102 L1312.692 690.6992 L1313.786 690.4774 L1314.827 690.2439 L1315.816 690.0008 L1316.75 689.7474 L1317.627 689.4846 L1318.446 689.2128 L1319.203 688.9322 L1319.897 688.6425 L1320.528 688.3448 L1321.091 688.0413 L1321.586 687.7286 L1322.011 687.4113 L1322.361 687.0865 L1322.637 686.7554 L1322.838 686.4197 L1322.96 686.0784 L1323 685.734 C1323 682.0284 1308.913 679.0273 1291.539 679.0273 C1274.167 679.0273 1260.084 682.0284 1260.084 685.734 C1260.084 689.4392 1274.167 692.4402 1291.539 692.4402 Z " opacity="1" fill="#9B9B9B" fill-opacity="1" />
      <path d="M1291.539 692.4402 L1293.158 692.4311 L1294.756 692.4052 L1296.33 692.3627 L1297.88 692.3035 L1299.402 692.2293 L1300.894 692.138 L1302.357 692.0333 L1303.785 691.9136 L1305.178 691.7798 L1306.535 691.6311 L1307.852 691.4701 L1309.129 691.2959 L1310.363 691.1091 L1311.551 690.9102 L1312.692 690.6992 L1313.786 690.4774 L1314.827 690.2439 L1315.816 690.0008 L1316.75 689.7474 L1317.627 689.4846 L1318.446 689.2128 L1319.203 688.9322 L1319.897 688.6425 L1320.528 688.3448 L1321.091 688.0413 L1321.586 687.7286 L1322.011 687.4113 L1322.361 687.0865 L1322.637 686.7554 L1322.838 686.4197 L1322.96 686.0784 L1323 685.734 C1323 682.0284 1308.913 679.0273 1291.539 679.0273 C1274.167 679.0273 1260.084 682.0284 1260.084 685.734 C1260.084 689.4392 1274.167 692.4402 1291.539 692.4402 Z " opacity="1" stroke="#FFFFFF" stroke-opacity="1" stroke-width="0.14999" stroke-linecap="butt" stroke-linejoin="miter" stroke-dasharray="none" fill-opacity="0" />
      <path d="M1291.707 704.2106 L1293.327 704.168 L1294.923 704.0437 L1296.495 703.8424 L1298.041 703.5684 L1299.56 703.2271 L1301.048 702.8234 L1302.504 702.3602 L1303.927 701.8441 L1305.315 701.2795 L1306.664 700.6726 L1307.975 700.0242 L1309.244 699.3408 L1310.47 698.6292 L1311.651 697.8928 L1312.785 697.1353 L1313.869 696.361 L1314.903 695.5781 L1315.884 694.7885 L1316.811 693.9963 L1317.68 693.2082 L1318.491 692.4282 L1319.242 691.6614 L1319.93 690.9119 L1320.554 690.1846 L1321.111 689.4834 L1321.602 688.8155 L1322.021 688.1823 L1322.369 687.5919 L1322.641 687.0469 L1322.839 686.552 L1322.96 686.1134 L1323 685.734 C1323 682.0284 1308.913 679.0273 1291.539 679.0273 C1274.167 679.0273 1260.084 682.0284 1260.084 685.734 C1260.084 689.4392 1274.335 704.2106 1291.707 704.2106 Z " opacity="1" fill="#9B9B9B" fill-opacity="1" />
      <path d="M1291.539 692.4402 L1293.158 692.4311 L1294.756 692.4052 L1296.33 692.3627 L1297.88 692.3035 L1299.402 692.2293 L1300.894 692.138 L1302.357 692.0333 L1303.785 691.9136 L1305.178 691.7798 L1306.535 691.6311 L1307.852 691.4701 L1309.129 691.2959 L1310.363 691.1091 L1311.551 690.9102 L1312.692 690.6992 L1313.786 690.4774 L1314.827 690.2439 L1315.816 690.0008 L1316.75 689.7474 L1317.627 689.4846 L1318.446 689.2128 L1319.203 688.9322 L1319.897 688.6425 L1320.528 688.3448 L1321.091 688.0413 L1321.586 687.7286 L1322.011 687.4113 L1322.361 687.0865 L1322.637 686.7554 L1322.838 686.4197 L1322.96 686.0784 L1323 685.734 C1323 682.0284 1308.913 679.0273 1291.539 679.0273 C1274.167 679.0273 1260.084 682.0284 1260.084 685.734 C1260.084 689.4392 1274.167 692.4402 1291.539 692.4402 Z " opacity="1" fill="#9B9B9B" fill-opacity="1" />
      <path d="M1291.539 692.4402 L1293.158 692.4311 L1294.756 692.4052 L1296.33 692.3627 L1297.88 692.3035 L1299.402 692.2293 L1300.894 692.138 L1302.357 692.0333 L1303.785 691.9136 L1305.178 691.7798 L1306.535 691.6311 L1307.852 691.4701 L1309.129 691.2959 L1310.363 691.1091 L1311.551 690.9102 L1312.692 690.6992 L1313.786 690.4774 L1314.827 690.2439 L1315.816 690.0008 L1316.75 689.7474 L1317.627 689.4846 L1318.446 689.2128 L1319.203 688.9322 L1319.897 688.6425 L1320.528 688.3448 L1321.091 688.0413 L1321.586 687.7286 L1322.011 687.4113 L1322.361 687.0865 L1322.637 686.7554 L1322.838 686.4197 L1322.96 686.0784 L1323 685.734 C1323 682.0284 1308.913 679.0273 1291.539 679.0273 C1274.167 679.0273 1260.084 682.0284 1260.084 685.734 C1260.084 689.4392 1274.167 692.4402 1291.539 692.4402 Z " opacity="1" stroke="#FFFFFF" stroke-opacity="1" stroke-width="0.39999" stroke-linecap="butt" stroke-linejoin="miter" stroke-dasharray="none" fill-opacity="0" />
      <path d="M1283.361 680.7108 C1278.4 681.0495 1273.992 681.7018 1270.554 682.5674" opacity="1" stroke="#FFFFFF" stroke-opacity="1" stroke-width="0.375" stroke-linecap="butt" stroke-linejoin="miter" stroke-dasharray="none" fill-opacity="0" />
      <path d="M1283.698 682.1105 C1278.88 682.5082 1274.667 683.232 1271.48 684.1809" opacity="1" stroke="#FFFFFF" stroke-opacity="1" stroke-width="0.375" stroke-linecap="butt" stroke-linejoin="miter" stroke-dasharray="none" fill-opacity="0" />
      <path d="M1284.041 683.6165 C1279.328 684.0792 1275.267 684.8914 1272.334 685.9358" opacity="1" stroke="#FFFFFF" stroke-opacity="1" stroke-width="0.375" stroke-linecap="butt" stroke-linejoin="miter" stroke-dasharray="none" fill-opacity="0" />
      <path d="M1284.72 685.3726 C1280.117 685.8766 1276.194 686.7479 1273.465 687.8682" opacity="1" stroke="#FFFFFF" stroke-opacity="1" stroke-width="0.375" stroke-linecap="butt" stroke-linejoin="miter" stroke-dasharray="none" fill-opacity="0" />
      <path d="M1285.047 687.009 C1280.681 687.5722 1277.031 688.5208 1274.598 689.7065" opacity="1" stroke="#FFFFFF" stroke-opacity="1" stroke-width="0.375" stroke-linecap="butt" stroke-linejoin="miter" stroke-dasharray="none" fill-opacity="0" />
      <path d="M1285.641 688.9415 C1282.176 689.4755 1279.237 690.2756 1277.126 691.2607" opacity="1" stroke="#FFFFFF" stroke-opacity="1" stroke-width="0.375" stroke-linecap="butt" stroke-linejoin="miter" stroke-dasharray="none" fill-opacity="0" />
      <path d="M1285.842 690.739 C1284.446 691.0223 1283.162 691.3608 1282.013 691.7407" opacity="1" stroke="#FFFFFF" stroke-opacity="1" stroke-width="0.375" stroke-linecap="butt" stroke-linejoin="miter" stroke-dasharray="none" fill-opacity="0" />
      <path d="M1260 686.3744 L1291.707 668.4665 L1323 685.734" opacity="1" stroke="#8E8E8E" stroke-opacity="1" stroke-width="0.39999" stroke-linecap="butt" stroke-linejoin="miter" stroke-dasharray="none" fill-opacity="0" />
      <path d="M1291.877 672.9965 L1291.987 672.9948 L1292.096 672.9902 L1292.204 672.9827 L1292.309 672.9723 L1292.413 672.9585 L1292.515 672.9431 L1292.615 672.9235 L1292.712 672.9022 L1292.808 672.8781 L1292.9 672.8505 L1292.99 672.8218 L1293.078 672.7913 L1293.161 672.7567 L1293.243 672.7217 L1293.32 672.6838 L1293.396 672.6429 L1293.467 672.6016 L1293.535 672.5579 L1293.598 672.512 L1293.659 672.4653 L1293.714 672.4149 L1293.765 672.3648 L1293.813 672.3131 L1293.857 672.2585 L1293.895 672.2039 L1293.928 672.148 L1293.957 672.0901 L1293.982 672.0309 L1294.001 671.9717 L1294.014 671.9112 L1294.022 671.8503 L1294.025 671.7866 C1294.025 671.1232 1293.061 670.5782 1291.877 670.5782 C1290.691 670.5782 1289.734 671.1232 1289.734 671.7866 C1289.734 672.4573 1290.691 672.9965 1291.877 672.9965 Z " opacity="1" fill="#9B9B9B" fill-opacity="1" />
      <path d="M1291.877 666 L1291.202 690.8572 L1292.719 690.8572 Z " opacity="1" fill="#9B9B9B" fill-opacity="1" />
      <path d="M1300.134 708.5037 L1300.134 704.519 L1284.967 704.519 L1284.967 708.5037 Z " opacity="1" fill="#9B9B9B" fill-opacity="1" />
      <path d="M1287.832 708.1243 L1297.437 708.1243 L1297.437 715.3347 C1297.437 715.3347 1287.663 718.75 1287.832 718.75 C1288 718.75 1287.832 708.1243 1287.832 708.1243 Z " opacity="1" fill="#9B9B9B" fill-opacity="1" />
    </g>
    <g>
      <g>
        <path d="M1431 678.3798 L1431 680.8297 L1410.041 689.9104 L1400.487 687.964 L1394.759 686.6523 L1390.825 685.6874 L1390.727 682.5676" opacity="1" fill="#9B9B9B" fill-opacity="1" />
        <path d="M1431 678.3798 L1431 680.8297 L1410.041 689.9104 L1400.487 687.964 L1394.759 686.6523 L1390.825 685.6874 L1390.727 682.5676" opacity="1" stroke="#FFFFFF" stroke-opacity="1" stroke-width="0.39999" stroke-linecap="butt" stroke-linejoin="miter" stroke-dasharray="none" fill-opacity="0" />
        <path d="M1382.046 714.3047 L1382.293 714.3014 L1382.539 714.2917 L1382.78 714.2761 L1383.016 714.254 L1383.251 714.2261 L1383.479 714.1924 L1383.702 714.1533 L1383.921 714.1086 L1384.135 714.0586 L1384.343 714.0037 L1384.543 713.9437 L1384.741 713.8788 L1384.929 713.8091 L1385.111 713.7352 L1385.286 713.6566 L1385.453 713.574 L1385.613 713.4877 L1385.765 713.3969 L1385.907 713.3029 L1386.042 713.2051 L1386.168 713.1039 L1386.284 712.9994 L1386.389 712.892 L1386.487 712.7815 L1386.572 712.6683 L1386.649 712.5525 L1386.713 712.4341 L1386.768 712.3135 L1386.81 712.1909 L1386.841 712.066 L1386.86 711.9393 L1386.866 711.8112 C1386.866 710.4346 1384.706 709.3178 1382.046 709.3178 C1379.387 709.3178 1377.228 710.4346 1377.228 711.8112 C1377.228 713.1876 1379.387 714.3047 1382.046 714.3047 Z " opacity="1" fill="#9B9B9B" fill-opacity="1" />
        <path d="M1382.046 714.3047 L1382.293 714.3014 L1382.539 714.2917 L1382.78 714.2761 L1383.016 714.254 L1383.251 714.2261 L1383.479 714.1924 L1383.702 714.1533 L1383.921 714.1086 L1384.135 714.0586 L1384.343 714.0037 L1384.543 713.9437 L1384.741 713.8788 L1384.929 713.8091 L1385.111 713.7352 L1385.286 713.6566 L1385.453 713.574 L1385.613 713.4877 L1385.765 713.3969 L1385.907 713.3029 L1386.042 713.2051 L1386.168 713.1039 L1386.284 712.9994 L1386.389 712.892 L1386.487 712.7815 L1386.572 712.6683 L1386.649 712.5525 L1386.713 712.4341 L1386.768 712.3135 L1386.81 712.1909 L1386.841 712.066 L1386.86 711.9393 L1386.866 711.8112 C1386.866 710.4346 1384.706 709.3178 1382.046 709.3178 C1379.387 709.3178 1377.228 710.4346 1377.228 711.8112 C1377.228 713.1876 1379.387 714.3047 1382.046 714.3047 Z " opacity="1" stroke="#FFFFFF" stroke-opacity="1" stroke-width="0.39999" stroke-linecap="butt" stroke-linejoin="miter" stroke-dasharray="none" fill-opacity="0" />
        <path d="M1401.072 685.0029 L1410.095 686.6965 L1431 678.3798 L1412.736 675 L1390.727 682.5676 L1397.053 683.8428" opacity="1" fill="#9B9B9B" fill-opacity="1" />
        <path d="M1401.072 685.0029 L1410.095 686.6965 L1431 678.3798 L1412.736 675 L1390.727 682.5676 L1397.053 683.8428" opacity="1" stroke="#FFFFFF" stroke-opacity="1" stroke-width="0.39999" stroke-linecap="butt" stroke-linejoin="miter" stroke-dasharray="none" fill-opacity="0" />
        <path d="M1399.548 685.4421 L1399.848 685.3517 L1400.141 685.2593 L1400.43 685.1689 L1400.707 685.0768 L1400.978 684.9863 L1401.244 684.8958 L1401.502 684.8057 L1401.754 684.717 L1401.998 684.6265 L1402.236 684.5381 L1402.467 684.4494 L1402.692 684.3627 L1402.909 684.2742 L1403.122 684.1874 L1403.526 684.0177 L1403.907 683.85 L1404.263 683.6837 L1404.597 683.5236 L1404.908 683.3665 L1405.198 683.2134 L1405.467 683.0657 L1405.715 682.9237 L1405.943 682.7854 L1406.152 682.6543 L1406.345 682.5289 L1406.518 682.4091 L1406.674 682.2963 L1406.813 682.1912 L1406.938 682.0934 L1407.047 682.0033 L1407.143 681.9202 L1407.224 681.8464 L1407.293 681.7819 L1407.349 681.7263 L1407.393 681.6785 L1407.425 681.6414 L1407.449 681.6155 L1407.461 681.5991 L1407.466 681.5936 C1405.27 680.341 1397.418 683.706 1397.418 683.706 L1396.028 684.2668 Z " opacity="1" fill="#9B9B9B" fill-opacity="1" />
        <path d="M1399.548 685.4421 L1399.848 685.3517 L1400.141 685.2593 L1400.43 685.1689 L1400.707 685.0768 L1400.978 684.9863 L1401.244 684.8958 L1401.502 684.8057 L1401.754 684.717 L1401.998 684.6265 L1402.236 684.5381 L1402.467 684.4494 L1402.692 684.3627 L1402.909 684.2742 L1403.122 684.1874 L1403.526 684.0177 L1403.907 683.85 L1404.263 683.6837 L1404.597 683.5236 L1404.908 683.3665 L1405.198 683.2134 L1405.467 683.0657 L1405.715 682.9237 L1405.943 682.7854 L1406.152 682.6543 L1406.345 682.5289 L1406.518 682.4091 L1406.674 682.2963 L1406.813 682.1912 L1406.938 682.0934 L1407.047 682.0033 L1407.143 681.9202 L1407.224 681.8464 L1407.293 681.7819 L1407.349 681.7263 L1407.393 681.6785 L1407.425 681.6414 L1407.449 681.6155 L1407.461 681.5991 L1407.466 681.5936 C1405.27 680.341 1397.418 683.706 1397.418 683.706 L1396.028 684.2668 Z " opacity="1" stroke="#FFFFFF" stroke-opacity="1" stroke-width="0.39999" stroke-linecap="butt" stroke-linejoin="miter" stroke-dasharray="none" fill-opacity="0" />
        <path d="M1397.053 683.8428 L1390.727 682.5382 L1412.736 675 L1431 678.3798 L1410.095 686.6965 L1400.97 685.0453 C1406.197 683.5472 1407.405 681.5936 1407.405 681.5936 C1405.209 680.341 1398.346 683.339 1398.346 683.339 L1398.322 683.3885 L1391.971 685.6802 L1391.971 689.8089 L1400.256 686.4806 L1400.348 686.4365 C1400.348 686.4365 1400.732 685.3995 1400.732 685.0453" opacity="1" fill="#9B9B9B" fill-opacity="1" />
        <path d="M1397.053 683.8428 L1390.727 682.5382 L1412.736 675 L1431 678.3798 L1410.095 686.6965 L1400.97 685.0453 C1406.197 683.5472 1407.405 681.5936 1407.405 681.5936 C1405.209 680.341 1398.346 683.339 1398.346 683.339 L1398.322 683.3885 L1391.971 685.6802 L1391.971 689.8089 L1400.256 686.4806 L1400.348 686.4365 C1400.348 686.4365 1400.732 685.3995 1400.732 685.0453" opacity="1" stroke="#FFFFFF" stroke-opacity="1" stroke-width="0.39999" stroke-linecap="butt" stroke-linejoin="miter" stroke-dasharray="none" fill-opacity="0" />
        <path d="M1400.28 685.0103 L1400.286 685.0103 L1400.291 685.0121 L1400.298 685.0121 L1400.303 685.0103 L1400.309 685.0103 L1400.315 685.0085 L1400.322 685.0048 L1400.327 685.0029 L1400.332 684.9992 L1400.339 684.9957 L1400.345 684.9919 L1400.351 684.9863 L1400.355 684.9827 L1400.362 684.9772 L1400.366 684.9698 L1400.373 684.9641 L1400.377 684.9569 L1400.382 684.9495 L1400.387 684.9422 L1400.391 684.9346 L1400.396 684.9256 L1400.401 684.9182 L1400.406 684.9088 L1400.409 684.8997 L1400.414 684.8905 L1400.417 684.8795 L1400.419 684.8702 L1400.422 684.859 L1400.426 684.848 L1400.43 684.8389 L1400.43 684.8258 L1400.432 684.8148 C1400.451 684.6929 1400.409 684.5841 1400.342 684.5713 C1400.28 684.5565 1400.214 684.6432 1400.195 684.7648 C1400.176 684.8867 1400.214 684.9957 1400.28 685.0103 Z " opacity="1" fill="#9B9B9B" fill-opacity="1" />
        <path d="M1400.28 685.0103 L1400.286 685.0103 L1400.291 685.0121 L1400.298 685.0121 L1400.303 685.0103 L1400.309 685.0103 L1400.315 685.0085 L1400.322 685.0048 L1400.327 685.0029 L1400.332 684.9992 L1400.339 684.9957 L1400.345 684.9919 L1400.351 684.9863 L1400.355 684.9827 L1400.362 684.9772 L1400.366 684.9698 L1400.373 684.9641 L1400.377 684.9569 L1400.382 684.9495 L1400.387 684.9422 L1400.391 684.9346 L1400.396 684.9256 L1400.401 684.9182 L1400.406 684.9088 L1400.409 684.8997 L1400.414 684.8905 L1400.417 684.8795 L1400.419 684.8702 L1400.422 684.859 L1400.426 684.848 L1400.43 684.8389 L1400.43 684.8258 L1400.432 684.8148 C1400.451 684.6929 1400.409 684.5841 1400.342 684.5713 C1400.28 684.5565 1400.214 684.6432 1400.195 684.7648 C1400.176 684.8867 1400.214 684.9957 1400.28 685.0103 Z " opacity="1" stroke="#FFFFFF" stroke-opacity="1" stroke-width="0.39999" stroke-linecap="butt" stroke-linejoin="miter" stroke-dasharray="none" fill-opacity="0" />
        <path d="M1372.054 675.5701 L1372.054 706.255 C1372.054 709.0944 1376.513 711.4005 1382.016 711.4005 C1387.518 711.4005 1391.977 709.0944 1391.977 706.255 L1391.977 675.3099" opacity="1" fill="#9B9B9B" fill-opacity="1" />
        <path d="M1372.054 675.5701 L1372.054 706.255 C1372.054 709.0944 1376.513 711.4005 1382.016 711.4005 C1387.518 711.4005 1391.977 709.0944 1391.977 706.255 L1391.977 675.3099" opacity="1" stroke="#FFFFFF" stroke-opacity="1" stroke-width="0.39999" stroke-linecap="butt" stroke-linejoin="miter" stroke-dasharray="none" fill-opacity="0" />
        <path d="M1373.195 699.8337 L1373.195 702.63 L1351.301 711.7895 L1332.042 706.5215 L1332 703.2138" opacity="1" fill="#9B9B9B" fill-opacity="1" />
        <path d="M1373.195 699.8337 L1373.195 702.63 L1351.301 711.7895 L1332.042 706.5215 L1332 703.2138" opacity="1" stroke="#FFFFFF" stroke-opacity="1" stroke-width="0.39999" stroke-linecap="butt" stroke-linejoin="miter" stroke-dasharray="none" fill-opacity="0" />
        <path d="M1366.155 698.6522 L1373.195 699.8337 L1351.301 708.4098 L1332.042 703.1419 L1354.986 695.5391 L1360.257 696.6053" opacity="1" fill="#9B9B9B" fill-opacity="1" />
        <path d="M1366.155 698.6522 L1373.195 699.8337 L1351.301 708.4098 L1332.042 703.1419 L1354.986 695.5391 L1360.257 696.6053" opacity="1" stroke="#FFFFFF" stroke-opacity="1" stroke-width="0.39999" stroke-linecap="butt" stroke-linejoin="miter" stroke-dasharray="none" fill-opacity="0" />
        <path d="M1360.146 696.5476 L1359.701 696.6855 L1359.274 696.8309 L1358.864 696.9832 L1358.472 697.1416 L1358.097 697.3051 L1357.739 697.4732 L1357.398 697.645 L1357.071 697.8196 L1356.762 697.9964 L1356.47 698.1745 L1356.191 698.3531 L1355.93 698.5315 L1355.683 698.7087 L1355.45 698.8842 L1355.233 699.0572 L1355.03 699.2267 L1354.841 699.3921 L1354.666 699.5525 L1354.505 699.7071 L1354.357 699.855 L1354.223 699.9959 L1354.101 700.1284 L1353.993 700.2523 L1353.897 700.3663 L1353.812 700.4698 L1353.74 700.5621 L1353.679 700.6425 L1353.631 700.7098 L1353.594 700.7635 L1353.567 700.8032 L1353.551 700.8275 L1353.547 700.8356 C1360.849 701.0879 1366.075 698.6087 1366.075 698.6087" opacity="1" fill="#9B9B9B" fill-opacity="1" />
        <path d="M1360.146 696.5476 L1359.701 696.6855 L1359.274 696.8309 L1358.864 696.9832 L1358.472 697.1416 L1358.097 697.3051 L1357.739 697.4732 L1357.398 697.645 L1357.071 697.8196 L1356.762 697.9964 L1356.47 698.1745 L1356.191 698.3531 L1355.93 698.5315 L1355.683 698.7087 L1355.45 698.8842 L1355.233 699.0572 L1355.03 699.2267 L1354.841 699.3921 L1354.666 699.5525 L1354.505 699.7071 L1354.357 699.855 L1354.223 699.9959 L1354.101 700.1284 L1353.993 700.2523 L1353.897 700.3663 L1353.812 700.4698 L1353.74 700.5621 L1353.679 700.6425 L1353.631 700.7098 L1353.594 700.7635 L1353.567 700.8032 L1353.551 700.8275 L1353.547 700.8356 C1360.849 701.0879 1366.075 698.6087 1366.075 698.6087" opacity="1" stroke="#FFFFFF" stroke-opacity="1" stroke-width="0.39999" stroke-linecap="butt" stroke-linejoin="miter" stroke-dasharray="none" fill-opacity="0" />
        <path d="M1359.762 696.6919 L1375.88 691.1428 C1378.191 691.2718 1377.893 693.4839 1377.893 693.4839 C1378.002 694.9118 1376.166 695.5317 1376.166 695.5317 L1365.637 698.7673" opacity="1" fill="#9B9B9B" fill-opacity="1" />
        <path d="M1359.762 696.6919 L1375.88 691.1428 C1378.191 691.2718 1377.893 693.4839 1377.893 693.4839 C1378.002 694.9118 1376.166 695.5317 1376.166 695.5317 L1365.637 698.7673" opacity="1" stroke="#FFFFFF" stroke-opacity="1" stroke-width="0.39999" stroke-linecap="butt" stroke-linejoin="miter" stroke-dasharray="none" fill-opacity="0" />
        <path d="M1365.387 698.796 L1365.399 698.796 L1365.412 698.7952 L1365.425 698.7944 L1365.435 698.7933 L1365.448 698.7918 L1365.458 698.7897 L1365.47 698.7875 L1365.481 698.7849 L1365.492 698.7817 L1365.502 698.7787 L1365.513 698.7753 L1365.522 698.7714 L1365.532 698.7673 L1365.541 698.7631 L1365.551 698.7585 L1365.558 698.7539 L1365.566 698.7489 L1365.574 698.7436 L1365.582 698.7383 L1365.589 698.7324 L1365.594 698.7265 L1365.601 698.7205 L1365.607 698.7144 L1365.612 698.7078 L1365.615 698.7015 L1365.62 698.6949 L1365.623 698.688 L1365.626 698.6809 L1365.628 698.6739 L1365.629 698.6668 L1365.63 698.6594 L1365.63 698.6522 C1365.63 698.5725 1365.521 698.515 1365.387 698.515 C1365.252 698.515 1365.148 698.5725 1365.148 698.6522 C1365.148 698.7313 1365.252 698.796 1365.387 698.796 Z " opacity="1" fill="#9B9B9B" fill-opacity="1" />
        <path d="M1365.387 698.796 L1365.399 698.796 L1365.412 698.7952 L1365.425 698.7944 L1365.435 698.7933 L1365.448 698.7918 L1365.458 698.7897 L1365.47 698.7875 L1365.481 698.7849 L1365.492 698.7817 L1365.502 698.7787 L1365.513 698.7753 L1365.522 698.7714 L1365.532 698.7673 L1365.541 698.7631 L1365.551 698.7585 L1365.558 698.7539 L1365.566 698.7489 L1365.574 698.7436 L1365.582 698.7383 L1365.589 698.7324 L1365.594 698.7265 L1365.601 698.7205 L1365.607 698.7144 L1365.612 698.7078 L1365.615 698.7015 L1365.62 698.6949 L1365.623 698.688 L1365.626 698.6809 L1365.628 698.6739 L1365.629 698.6668 L1365.63 698.6594 L1365.63 698.6522 C1365.63 698.5725 1365.521 698.515 1365.387 698.515 C1365.252 698.515 1365.148 698.5725 1365.148 698.6522 C1365.148 698.7313 1365.252 698.796 1365.387 698.796 Z " opacity="1" stroke="#FFFFFF" stroke-opacity="1" stroke-width="0.39999" stroke-linecap="butt" stroke-linejoin="miter" stroke-dasharray="none" fill-opacity="0" />
      </g>
    </g>
    <line x1="1242" y1="342" x2="1242" y2="428.8275" marker-end="url(#marker1)" opacity="1" stroke="#000000" stroke-opacity="1" stroke-width="1" stroke-linecap="butt" stroke-linejoin="miter" stroke-dasharray="none" />
    <line x1="1242" y1="477" x2="1242" y2="530.1302" marker-end="url(#marker2)" opacity="1" stroke="#000000" stroke-opacity="1" stroke-width="1" stroke-linecap="butt" stroke-linejoin="miter" stroke-dasharray="4,4" />
    <line x1="1269" y1="516.1725" x2="1269" y2="527.8275" marker-start="url(#marker3)" marker-end="url(#marker4)" opacity="1" stroke="#000000" stroke-opacity="1" stroke-width="1" stroke-linecap="butt" stroke-linejoin="miter" stroke-dasharray="none" />
    <text x="1102.98" y="423.3625" font-size="16" fill="#000000" fill-opacity="1" font-family="Arial" font-weight="normal" font-style="normal">RaceActorSystem</text>
    <line x1="1341" y1="657" x2="1287.905" y2="619.0751" marker-end="url(#marker5)" opacity="1" stroke="#000000" stroke-opacity="1" stroke-width="1" stroke-linecap="butt" stroke-linejoin="miter" stroke-dasharray="none" />
    <line x1="1251" y1="624.1726" x2="1251" y2="653.8274" marker-start="url(#marker6)" marker-end="url(#marker7)" opacity="1" stroke="#000000" stroke-opacity="1" stroke-width="1" stroke-linecap="butt" stroke-linejoin="miter" stroke-dasharray="none" />
    <line x1="1224" y1="612" x2="1179.351" y2="649.2073" marker-end="url(#marker8)" opacity="1" stroke="#000000" stroke-opacity="1" stroke-width="1" stroke-linecap="butt" stroke-linejoin="miter" stroke-dasharray="none" />
    <text x="1469.758" y="684.3625" font-size="16" fill="#000000" fill-opacity="1" font-family="Arial" font-weight="normal" font-style="normal">External Systems</text>
    <g>
      <ellipse cx="1363.5" cy="427.5" rx="13.5" ry="13.5" opacity="1" stroke="#000000" stroke-opacity="1" stroke-width="1" stroke-linecap="butt" stroke-linejoin="miter" stroke-dasharray="none" fill="#FFFFFF" fill-opacity="1" />
      <line x1="1363.5" y1="427.5" x2="1366.875" y2="420.75" opacity="1" stroke="#000000" stroke-opacity="1" stroke-width="2" stroke-linecap="butt" stroke-linejoin="miter" stroke-dasharray="none" />
      <line x1="1363.5" y1="427.5" x2="1373.625" y2="430.875" opacity="1" stroke="#000000" stroke-opacity="1" stroke-width="2" stroke-linecap="butt" stroke-linejoin="miter" stroke-dasharray="none" />
    </g>
    <text x="1301.746" y="428.6211" font-size="15" fill="#000000" fill-opacity="1" font-family="Arial" font-weight="normal" font-style="normal">Clock</text>
    <text x="1086.379" y="387.3625" font-size="16" fill="#000000" fill-opacity="1" font-family="Arial" font-weight="normal" font-style="normal">Race Driver (main)</text>
    <g>
      <rect x="1512" y="414" width="180" height="189" opacity="1" stroke="#7F7F7F" stroke-opacity="1" stroke-width="1" stroke-linecap="butt" stroke-linejoin="miter" stroke-dasharray="none" fill="#FFFFFF" fill-opacity="1" filter="url(#shadow1)" />
      <rect x="1530" y="433.3499" width="144" height="156.6001" opacity="1" stroke="#7F7F7F" stroke-opacity="1" stroke-width="1" stroke-linecap="butt" stroke-linejoin="miter" stroke-dasharray="none" fill="#FFFFFF" fill-opacity="1" filter="url(#shadow1)" />
      <g>
        <rect x="1568.925" y="518.1749" width="58.72529" height="45.67518" opacity="1" stroke="#7F7F7F" stroke-opacity="1" stroke-width="1" stroke-linecap="butt" stroke-linejoin="miter" stroke-dasharray="none" fill="#FFFFFF" fill-opacity="1" filter="url(#shadow1)" />
        <rect x="1575.45" y="524.7" width="58.72481" height="45.67484" opacity="1" stroke="#7F7F7F" stroke-opacity="1" stroke-width="1" stroke-linecap="butt" stroke-linejoin="miter" stroke-dasharray="none" fill="#FFFFFF" fill-opacity="1" filter="url(#shadow1)" />
        <rect x="1581.975" y="531.225" width="58.72501" height="45.67491" opacity="1" stroke="#7F7F7F" stroke-opacity="1" stroke-width="1" stroke-linecap="butt" stroke-linejoin="miter" stroke-dasharray="none" fill="#FFFFFF" fill-opacity="1" filter="url(#shadow1)" />
      </g>
      <rect x="1575.45" y="459.4501" width="58.72481" height="26.09974" opacity="1" stroke="#7F7F7F" stroke-opacity="1" stroke-width="1" stroke-linecap="butt" stroke-linejoin="miter" stroke-dasharray="none" fill="#FFFFFF" fill-opacity="1" filter="url(#shadow1)" />
      <line x1="1621.125" y1="513.9118" x2="1621.125" y2="522.438" marker-start="url(#marker9)" marker-end="url(#marker10)" opacity="1" stroke="#7F7F7F" stroke-opacity="1" stroke-width="0.5" stroke-linecap="butt" stroke-linejoin="miter" stroke-dasharray="none" />
      <g>
        <ellipse cx="1653.637" cy="449.6625" rx="9.787446" ry="9.787582" opacity="1" stroke="#7F7F7F" stroke-opacity="1" stroke-width="1" stroke-linecap="butt" stroke-linejoin="miter" stroke-dasharray="none" fill="#FFFFFF" fill-opacity="1" />
        <line x1="1653.638" y1="449.6625" x2="1656.084" y2="444.7686" opacity="1" stroke="#7F7F7F" stroke-opacity="1" stroke-width="2" stroke-linecap="butt" stroke-linejoin="miter" stroke-dasharray="none" />
        <line x1="1653.638" y1="449.6625" x2="1660.978" y2="452.1095" opacity="1" stroke="#7F7F7F" stroke-opacity="1" stroke-width="2" stroke-linecap="butt" stroke-linejoin="miter" stroke-dasharray="none" />
      </g>
    </g>
    <g>
      <path d="M1575.45 347.7095 L1575.45 381.9658 Q1581.975 387.6749 1601.55 387.6749 Q1621.125 387.6749 1627.65 381.9658 L1627.65 347.7095 Z " opacity="1" stroke="#7F7F7F" stroke-opacity="1" stroke-width="1" stroke-linecap="butt" stroke-linejoin="miter" stroke-dasharray="none" fill="#FFFFFF" fill-opacity="1" filter="url(#shadow1)" />
      <ellipse cx="1601.55" cy="347.7094" rx="26.10005" ry="5.709424" opacity="1" stroke="#7F7F7F" stroke-opacity="1" stroke-width="1" stroke-linecap="butt" stroke-linejoin="miter" stroke-dasharray="none" fill="#FFFFFF" fill-opacity="1" />
    </g>
    <line x1="1601.55" y1="387.6749" x2="1601.55" y2="450.6631" marker-end="url(#marker11)" opacity="1" stroke="#7F7F7F" stroke-opacity="1" stroke-width="0.5" stroke-linecap="butt" stroke-linejoin="miter" stroke-dasharray="none" />
    <g transform="rotate(90 1410.085 499.731)">
      <rect x="1405.56" y="265.5505" width="9" height="468.4835" opacity="1" stroke="#000000" stroke-opacity="1" stroke-width="1" stroke-linecap="butt" stroke-linejoin="miter" stroke-dasharray="none" fill="url(#gradient1)" />
      <ellipse cx="1410.063" cy="265.1856" rx="4.51552" ry="2.369948" opacity="1" stroke="#000000" stroke-opacity="1" stroke-width="1" stroke-linecap="butt" stroke-linejoin="miter" stroke-dasharray="none" fill="#FFFFFF" fill-opacity="1" />
      <ellipse cx="1410.107" cy="734.2765" rx="4.515451" ry="2.36982" opacity="1" stroke="#000000" stroke-opacity="1" stroke-width="1" stroke-linecap="butt" stroke-linejoin="miter" stroke-dasharray="none" fill="#FFFFFF" fill-opacity="1" />
      <rect x="1406.094" y="728.9496" width="7.967282" height="5.17772" opacity="1" fill="url(#gradient2)" />
    </g>
    <g>
      <g>
        <path d="M1468.665 478.1033 C1465.199 477.1916 1461.692 478.2349 1459.271 480.5011 C1458.006 479.0086 1456.294 477.8567 1454.239 477.3162 C1448.953 475.9255 1443.506 479.0126 1442.089 484.2032 C1441.985 484.5845 1441.958 484.968 1441.901 485.3495 C1437.141 484.8638 1432.585 487.7898 1431.307 492.4729 C1430.04 497.113 1432.43 501.8578 1436.725 503.8087 C1436.492 504.3058 1436.275 504.8177 1436.126 505.3643 C1434.709 510.5546 1437.857 515.8903 1443.143 517.2811 C1445.733 517.9625 1448.35 517.5623 1450.522 516.3748 C1451.719 518.8893 1453.952 520.9133 1456.895 521.6873 C1461.093 522.7917 1465.353 521.0421 1467.654 517.6887 C1468.585 518.3362 1469.621 518.8718 1470.788 519.179 C1476.075 520.5696 1481.51 517.4792 1482.927 512.2889 C1483.639 509.6789 1483.198 507.0375 1481.912 504.8729 C1483.184 503.6814 1484.181 502.1722 1484.669 500.3838 C1486.085 495.1933 1482.938 489.8576 1477.65 488.467 C1477.094 488.3206 1476.536 488.2383 1475.981 488.1882 C1476.31 483.6301 1473.327 479.3298 1468.665 478.1033 Z " opacity="1" stroke="#B2B2B2" stroke-opacity="1" stroke-width="2" stroke-linecap="butt" stroke-linejoin="round" stroke-dasharray="none" fill="#FFFFFF" fill-opacity="1" />
      </g>
    </g>
    <line x1="1593" y1="584.8993" x2="1593" y2="648.2131" marker-start="url(#marker12)" marker-end="url(#marker13)" opacity="1" stroke="#7F7F7F" stroke-opacity="1" stroke-width="0.5" stroke-linecap="butt" stroke-linejoin="miter" stroke-dasharray="none" />
    <text x="1343.576" y="491.6211" font-size="15" fill="#000000" fill-opacity="1" font-family="Arial" font-weight="normal" font-style="normal">Bus</text>
    <text x="1065.663" y="361.1211" font-size="15" fill="#000000" fill-opacity="1" font-family="Arial" font-weight="normal" font-style="normal">RACE</text>
    <text x="1494.511" y="410.6211" font-size="15" fill="#000000" fill-opacity="1" font-family="Arial" font-weight="normal" font-style="normal">remote RACE</text>
  </g>
</svg>