<?xml version="1.0" encoding="utf-8"?>
<svg width="100%" height="100%" version="1.1" viewBox="168 195 690 227" xmlns:xlink="http://www.w3.org/1999/xlink" xmlns:inkscape="http://www.inkscape.org/namespaces/inkscape" xmlns="http://www.w3.org/2000/svg">
  <defs>
    <filter id="shadow1" width="150%" height="150%">
      <feGaussianBlur in="SourceAlpha" result="blur" stdDeviation="3" />
      <feOffset dx="3" dy="3" in="blur" result="offsetBlur" />
      <feMerge>
        <feMergeNode in="offsetBlur" />
        <feMergeNode in="SourceGraphic" />
      </feMerge>
    </filter>
  </defs>
  <marker id="marker1" markerUnits="strokeWidth" orient="auto" refX="-7.52078" refY="0" markerWidth="9.89073" markerHeight="7.760683" viewBox="-8.89073 -3.880342 9.89073 7.760683">
    <path d="M-7.89073 -2.880342 L0 0 L-7.89073 2.880341 Z " fill="#000000" fill-opacity="1" stroke="#000000" stroke-opacity="1" />
  </marker>
  <marker id="marker2" markerUnits="strokeWidth" orient="auto" refX="-7.52078" refY="0" markerWidth="9.89073" markerHeight="7.760683" viewBox="-8.89073 -3.880342 9.89073 7.760683">
    <path d="M-7.89073 -2.880342 L0 0 L-7.89073 2.880341 Z " fill="#000000" fill-opacity="1" stroke="#000000" stroke-opacity="1" />
  </marker>
  <marker id="marker3" markerUnits="strokeWidth" orient="auto" refX="7.52078" refY="0" markerWidth="9.89073" markerHeight="7.760683" viewBox="-1 -3.880342 9.89073 7.760683">
    <path d="M7.89073 2.880341 L0 0 L7.89073 -2.880342 Z " fill="#9F9F9F" fill-opacity="1" stroke="#9F9F9F" stroke-opacity="1" />
  </marker>
  <marker id="marker4" markerUnits="strokeWidth" orient="auto" refX="-7.52078" refY="0" markerWidth="9.89073" markerHeight="7.760683" viewBox="-8.89073 -3.880342 9.89073 7.760683">
    <path d="M-7.89073 -2.880342 L0 0 L-7.89073 2.880341 Z " fill="#9F9F9F" fill-opacity="1" stroke="#9F9F9F" stroke-opacity="1" />
  </marker>
  <marker id="marker5" markerUnits="strokeWidth" orient="auto" refX="7.52078" refY="0" markerWidth="9.89073" markerHeight="7.760683" viewBox="-1 -3.880342 9.89073 7.760683">
    <path d="M7.89073 2.880341 L0 0 L7.89073 -2.880342 Z " fill="#000000" fill-opacity="1" stroke="#000000" stroke-opacity="1" />
  </marker>
  <marker id="marker6" markerUnits="strokeWidth" orient="auto" refX="-7.52078" refY="0" markerWidth="9.89073" markerHeight="7.760683" viewBox="-8.89073 -3.880342 9.89073 7.760683">
    <path d="M-7.89073 -2.880342 L0 0 L-7.89073 2.880341 Z " fill="#000000" fill-opacity="1" stroke="#000000" stroke-opacity="1" />
  </marker>
  <marker id="marker7" markerUnits="strokeWidth" orient="auto" refX="7.52078" refY="0" markerWidth="9.89073" markerHeight="7.760683" viewBox="-1 -3.880342 9.89073 7.760683">
    <path d="M7.89073 2.880341 L0 0 L7.89073 -2.880342 Z " fill="#000000" fill-opacity="1" stroke="#000000" stroke-opacity="1" />
  </marker>
  <marker id="marker8" markerUnits="strokeWidth" orient="auto" refX="-7.52078" refY="0" markerWidth="9.89073" markerHeight="7.760683" viewBox="-8.89073 -3.880342 9.89073 7.760683">
    <path d="M-7.89073 -2.880342 L0 0 L-7.89073 2.880341 Z " fill="#000000" fill-opacity="1" stroke="#000000" stroke-opacity="1" />
  </marker>
  <g id="layer1" inkscape:label="Layer 1" inkscape:groupmode="layer">
    <rect x="504" y="288" width="108" height="45" opacity="1" stroke="#000000" stroke-opacity="1" stroke-width="1" stroke-linecap="butt" stroke-linejoin="miter" stroke-dasharray="none" fill="#FBFFE2" fill-opacity="1" filter="url(#shadow1)" />
    <text x="513.9717" y="308.3969" font-size="12" fill="#000000" fill-opacity="1" font-family="Arial" font-weight="normal" font-style="normal">RemoteLauncher
</text>
    <text x="543.3301" y="322.3969" font-size="12" fill="#000000" fill-opacity="1" font-family="Arial" font-weight="normal" font-style="normal">server</text>
    <rect x="261" y="293" width="81" height="45" opacity="1" stroke="#A1A1A1" stroke-opacity="1" stroke-width="1" stroke-linecap="butt" stroke-linejoin="miter" stroke-dasharray="none" fill="#F4F4F4" fill-opacity="1" filter="url(#shadow1)" />
    <text x="278.9878" y="313.533" font-size="12" fill="#616161" fill-opacity="1" font-family="Arial" font-weight="normal" font-style="normal">front end
</text>
    <text x="288.9329" y="328.533" font-size="12" fill="#616161" fill-opacity="1" font-family="Arial" font-weight="normal" font-style="normal">client</text>
    <rect x="252" y="284" width="81" height="45" opacity="1" stroke="#A1A1A1" stroke-opacity="1" stroke-width="1" stroke-linecap="butt" stroke-linejoin="miter" stroke-dasharray="none" fill="#F4F4F4" fill-opacity="1" filter="url(#shadow1)" />
    <text x="270.8164" y="304.3969" font-size="12" fill="#616161" fill-opacity="1" font-family="Arial" font-weight="normal" font-style="normal">front end
</text>
    <text x="280.4932" y="318.3969" font-size="12" fill="#616161" fill-opacity="1" font-family="Arial" font-weight="normal" font-style="normal">client</text>
    <rect x="675" y="293" width="81" height="45" opacity="1" stroke="#000000" stroke-opacity="1" stroke-width="1" stroke-linecap="butt" stroke-linejoin="miter" stroke-dasharray="none" fill="#FFFFFF" fill-opacity="1" filter="url(#shadow1)" />
    <rect x="666" y="284" width="81" height="45" opacity="1" stroke="#000000" stroke-opacity="1" stroke-width="1" stroke-linecap="butt" stroke-linejoin="miter" stroke-dasharray="none" fill="#FFFFFF" fill-opacity="1" filter="url(#shadow1)" />
    <text x="674.4863" y="304.3969" font-size="12" fill="#000000" fill-opacity="1" font-family="Arial" font-weight="normal" font-style="normal">RemoteMain
</text>
    <text x="687.834" y="318.3969" font-size="12" fill="#000000" fill-opacity="1" font-family="Arial" font-weight="normal" font-style="normal">(RACE)</text>
    <g>
      <g>
        <path d="M210.0818 292.422 L210.0758 292.65 L210.0588 292.8741 L210.0308 293.0949 L209.9927 293.313 L209.9428 293.5269 L209.8838 293.736 L209.8138 293.942 L209.7348 294.1419 L209.6468 294.338 L209.5488 294.5289 L209.4427 294.714 L209.3278 294.8931 L209.2048 295.0662 L209.0738 295.2331 L208.9348 295.393 L208.7888 295.547 L208.6348 295.6929 L208.4748 295.8319 L208.3078 295.9629 L208.1348 296.086 L207.9558 296.201 L207.7706 296.3071 L207.5801 296.4051 L207.3844 296.493 L207.1837 296.5721 L206.9784 296.6421 L206.7687 296.7009 L206.5549 296.7501 L206.3372 296.789 L206.116 296.817 L205.8916 296.8341 L205.6641 296.8399 C203.2188 296.8399 201.2422 294.864 201.2422 292.422 C201.2422 289.977 203.2188 288 205.6641 288 C208.1058 288 210.0818 289.977 210.0818 292.422 Z " opacity="1" fill="#02709F" fill-opacity="1" />
        <path d="M210.0818 292.422 L210.0758 292.65 L210.0588 292.8741 L210.0308 293.0949 L209.9927 293.313 L209.9428 293.5269 L209.8838 293.736 L209.8138 293.942 L209.7348 294.1419 L209.6468 294.338 L209.5488 294.5289 L209.4427 294.714 L209.3278 294.8931 L209.2048 295.0662 L209.0738 295.2331 L208.9348 295.393 L208.7888 295.547 L208.6348 295.6929 L208.4748 295.8319 L208.3078 295.9629 L208.1348 296.086 L207.9558 296.201 L207.7706 296.3071 L207.5801 296.4051 L207.3844 296.493 L207.1837 296.5721 L206.9784 296.6421 L206.7687 296.7009 L206.5549 296.7501 L206.3372 296.789 L206.116 296.817 L205.8916 296.8341 L205.6641 296.8399 C203.2188 296.8399 201.2422 294.864 201.2422 292.422 C201.2422 289.977 203.2188 288 205.6641 288 C208.1058 288 210.0818 289.977 210.0818 292.422 Z " opacity="1" stroke="#FFFFFF" stroke-opacity="1" stroke-width="0.39999" stroke-linecap="butt" stroke-linejoin="miter" stroke-dasharray="none" fill-opacity="0" />
        <path d="M230.8948 326.0627 L212.5118 326.0627 L212.5118 306.5161 L230.8948 306.5161 Z " opacity="1" fill="#02709F" fill-opacity="1" />
        <path d="M212.5118 326.0627 L230.8948 326.0627 L230.8948 306.5161 L212.5118 306.5161 Z " opacity="1" stroke="#FFFFFF" stroke-opacity="1" stroke-width="0.39999" stroke-linecap="butt" stroke-linejoin="miter" stroke-dasharray="none" fill-opacity="0" />
        <path d="M218.9458 304.0241 L229.6448 304.0241 L229.6448 306.4609 L218.9458 306.4609 Z " opacity="1" fill="#02709F" fill-opacity="1" />
        <path d="M218.9458 306.4609 L229.6448 306.4609 L229.6448 304.0241 L218.9458 304.0241 Z " opacity="1" stroke="#FFFFFF" stroke-opacity="1" stroke-width="0.39999" stroke-linecap="butt" stroke-linejoin="miter" stroke-dasharray="none" fill-opacity="0" />
        <path d="M227.4768 297.805 L227.4768 304.0241 L219.1488 304.0241 L219.1488 295.7 L226.4998 296.6569 C226.4998 296.6569 227.4958 296.7539 227.4768 297.805 Z " opacity="1" fill="#02709F" fill-opacity="1" />
        <path d="M227.4768 297.805 L227.4768 304.0241 L219.1488 304.0241 L219.1488 295.7 L226.4998 296.6569 C226.4998 296.6569 227.4958 296.7539 227.4768 297.805 Z " opacity="1" stroke="#FFFFFF" stroke-opacity="1" stroke-width="0.39999" stroke-linecap="butt" stroke-linejoin="miter" stroke-dasharray="none" fill-opacity="0" />
        <path d="M211.4178 323.5353 L206.3399 323.5353 L206.3399 317.5315 L203.793 317.5315 L203.793 323.5353 L198.7969 323.5353 C198.3555 323.5353 198 323.891 198 324.3323 L198 325.2582 C198 325.6996 198.3555 326.055 198.7969 326.055 L211.4178 326.055 C211.8557 326.055 212.2108 325.6996 212.2108 325.2582 L212.2108 324.3323 C212.2108 323.891 211.8557 323.5353 211.4178 323.5353 Z " opacity="1" fill="#02709F" fill-opacity="1" />
        <path d="M211.4178 323.5353 L206.3399 323.5353 L206.3399 317.5315 L203.793 317.5315 L203.793 323.5353 L198.7969 323.5353 C198.3555 323.5353 198 323.891 198 324.3323 L198 325.2582 C198 325.6996 198.3555 326.055 198.7969 326.055 L211.4178 326.055 C211.8557 326.055 212.2108 325.6996 212.2108 325.2582 L212.2108 324.3323 C212.2108 323.891 211.8557 323.5353 211.4178 323.5353 Z " opacity="1" stroke="#FFFFFF" stroke-opacity="1" stroke-width="0.39999" stroke-linecap="butt" stroke-linejoin="miter" stroke-dasharray="none" fill-opacity="0" />
        <path d="M211.6408 314.727 L201.1758 314.727 L201.1758 299.8559 C201.1758 299.3711 200.7813 298.9811 200.3008 298.9811 L199.2735 298.9811 C198.789 298.9811 198.3984 299.3711 198.3984 299.8559 L198.3984 316.6254 C198.3984 317.1097 198.789 317.5002 199.2735 317.5002 L200.3008 317.5002 L211.6408 317.5002 C212.1247 317.5002 212.5158 317.1097 212.5158 316.6254 L212.5158 315.6021 C212.5158 315.1181 212.1247 314.727 211.6408 314.727 Z " opacity="1" fill="#02709F" fill-opacity="1" />
        <path d="M211.6408 314.727 L201.1758 314.727 L201.1758 299.8559 C201.1758 299.3711 200.7813 298.9811 200.3008 298.9811 L199.2735 298.9811 C198.789 298.9811 198.3984 299.3711 198.3984 299.8559 L198.3984 316.6254 C198.3984 317.1097 198.789 317.5002 199.2735 317.5002 L200.3008 317.5002 L211.6408 317.5002 C212.1247 317.5002 212.5158 317.1097 212.5158 316.6254 L212.5158 315.6021 C212.5158 315.1181 212.1247 314.727 211.6408 314.727 Z " opacity="1" stroke="#FFFFFF" stroke-opacity="1" stroke-width="0.39999" stroke-linecap="butt" stroke-linejoin="miter" stroke-dasharray="none" fill-opacity="0" />
        <path d="M209.1838 297.7929 L217.2148 303.6171 C217.5588 303.9139 217.7738 304.3521 217.7738 304.836 C217.7738 305.727 217.0508 306.4499 216.1598 306.4499 C215.8908 306.4499 215.5308 306.3601 215.2458 306.2 L208.5238 302.043 L208.5238 309.5901 L212.3198 309.6101 L212.3198 314.465 L201.578 314.446 L201.578 298.426 C201.578 298.426 201.6485 297.1571 203.7305 297.1571 L207.5977 297.1571 C207.5977 297.1571 208.3318 297.192 209.1838 297.7929 Z " opacity="1" fill="#02709F" fill-opacity="1" />
        <path d="M209.1838 297.7929 L217.2148 303.6171 C217.5588 303.9139 217.7738 304.3521 217.7738 304.836 C217.7738 305.727 217.0508 306.4499 216.1598 306.4499 C215.8908 306.4499 215.5308 306.3601 215.2458 306.2 L208.5238 302.043 L208.5238 309.5901 L212.3198 309.6101 L212.3198 314.465 L201.578 314.446 L201.578 298.426 C201.578 298.426 201.6485 297.1571 203.7305 297.1571 L207.5977 297.1571 C207.5977 297.1571 208.3318 297.192 209.1838 297.7929 Z " opacity="1" stroke="#FFFFFF" stroke-opacity="1" stroke-width="0.39999" stroke-linecap="butt" stroke-linejoin="miter" stroke-dasharray="none" fill-opacity="0" />
      </g>
    </g>
    <g>
      <g>
        <path d="M802.692 321.6569 L803.7 321.6489 L804.6936 321.628 L805.6735 321.5921 L806.6376 321.5429 L807.5829 321.48 L808.5125 321.4051 L809.4211 321.3169 L810.3103 321.2169 L811.1772 321.104 L812.0211 320.981 L812.8404 320.8461 L813.6345 320.7 L814.4021 320.544 L815.1415 320.3781 L815.8514 320.202 L816.5311 320.0161 L817.1791 319.8219 L817.7939 319.6181 L818.375 319.4069 L818.92 319.1869 L819.4291 318.96 L819.9014 318.7249 L820.3335 318.484 L820.7251 318.236 L821.0751 317.9809 L821.3832 317.721 L821.6475 317.4549 L821.8656 317.1841 L822.037 316.9081 L822.1622 316.6279 L822.2371 316.3431 L822.263 316.0549 C822.263 312.9579 813.5013 310.45 802.692 310.45 C791.8841 310.45 783.126 312.9579 783.126 316.0549 C783.126 319.149 791.8841 321.6569 802.692 321.6569 Z " opacity="1" fill="#036998" fill-opacity="1" />
        <path d="M802.692 321.6569 L803.7 321.6489 L804.6936 321.628 L805.6735 321.5921 L806.6376 321.5429 L807.5829 321.48 L808.5125 321.4051 L809.4211 321.3169 L810.3103 321.2169 L811.1772 321.104 L812.0211 320.981 L812.8404 320.8461 L813.6345 320.7 L814.4021 320.544 L815.1415 320.3781 L815.8514 320.202 L816.5311 320.0161 L817.1791 319.8219 L817.7939 319.6181 L818.375 319.4069 L818.92 319.1869 L819.4291 318.96 L819.9014 318.7249 L820.3335 318.484 L820.7251 318.236 L821.0751 317.9809 L821.3832 317.721 L821.6475 317.4549 L821.8656 317.1841 L822.037 316.9081 L822.1622 316.6279 L822.2371 316.3431 L822.263 316.0549 C822.263 312.9579 813.5013 310.45 802.692 310.45 C791.8841 310.45 783.126 312.9579 783.126 316.0549 C783.126 319.149 791.8841 321.6569 802.692 321.6569 Z " opacity="1" stroke="#FFFFFF" stroke-opacity="1" stroke-width="0.39999" stroke-linecap="butt" stroke-linejoin="miter" stroke-dasharray="none" fill-opacity="0" />
        <path d="M802.4076 295.7819 L803.106 295.7769 L803.7965 295.7621 L804.4761 295.7371 L805.1464 295.7031 L805.8032 295.6591 L806.4482 295.6069 L807.0789 295.546 L807.696 295.4759 L808.2986 295.3979 L808.884 295.312 L809.4535 295.218 L810.005 295.1169 L810.5385 295.009 L811.0512 294.8931 L811.5444 294.7709 L812.016 294.6421 L812.466 294.5069 L812.8929 294.366 L813.2976 294.2191 L813.6763 294.0661 L814.0291 293.9079 L814.3574 293.745 L814.657 293.5781 L814.9291 293.405 L815.1725 293.2289 L815.3864 293.0479 L815.5692 292.8631 L815.7211 292.675 L815.8399 292.4841 L815.9271 292.289 L815.9796 292.091 L815.9976 291.8911 C815.9976 289.743 809.9114 288 802.4076 288 C794.8994 288 788.8176 289.743 788.8176 291.8911 C788.8176 294.04 794.8994 295.7819 802.4076 295.7819 Z " opacity="1" fill="#036998" fill-opacity="1" />
        <path d="M802.4076 295.7819 L803.106 295.7769 L803.7965 295.7621 L804.4761 295.7371 L805.1464 295.7031 L805.8032 295.6591 L806.4482 295.6069 L807.0789 295.546 L807.696 295.4759 L808.2986 295.3979 L808.884 295.312 L809.4535 295.218 L810.005 295.1169 L810.5385 295.009 L811.0512 294.8931 L811.5444 294.7709 L812.016 294.6421 L812.466 294.5069 L812.8929 294.366 L813.2976 294.2191 L813.6763 294.0661 L814.0291 293.9079 L814.3574 293.745 L814.657 293.5781 L814.9291 293.405 L815.1725 293.2289 L815.3864 293.0479 L815.5692 292.8631 L815.7211 292.675 L815.8399 292.4841 L815.9271 292.289 L815.9796 292.091 L815.9976 291.8911 C815.9976 289.743 809.9114 288 802.4076 288 C794.8994 288 788.8176 289.743 788.8176 291.8911 C788.8176 294.04 794.8994 295.7819 802.4076 295.7819 Z " opacity="1" stroke="#FFFFFF" stroke-opacity="1" stroke-width="0.39999" stroke-linecap="butt" stroke-linejoin="miter" stroke-dasharray="none" fill-opacity="0" />
        <path d="M802.4421 312.9579 L802.4076 317.3211 C794.8994 317.3211 788.8176 315.5789 788.8176 313.4259 L788.8176 291.8911 C788.8176 294.04 794.8994 295.7819 802.4076 295.7819 C809.9114 295.7819 815.9976 294.04 815.9976 291.8911 L815.9976 313.4259 C815.9976 314.805 813.2119 316.075 809.4355 316.7661" opacity="1" fill="#036998" fill-opacity="1" />
        <path d="M802.4421 312.9579 L802.4076 317.3211 C794.8994 317.3211 788.8176 315.5789 788.8176 313.4259 L788.8176 291.8911 C788.8176 294.04 794.8994 295.7819 802.4076 295.7819 C809.9114 295.7819 815.9976 294.04 815.9976 291.8911 L815.9976 313.4259 C815.9976 314.805 813.2119 316.075 809.4355 316.7661" opacity="1" stroke="#FFFFFF" stroke-opacity="1" stroke-width="0.39999" stroke-linecap="butt" stroke-linejoin="miter" stroke-dasharray="none" fill-opacity="0" />
        <path d="M819.1923 328.9419 L819.1923 319.1141 L813.978 315.4972 L813.978 293.9579" opacity="1" stroke="#FFFFFF" stroke-opacity="1" stroke-width="0.39999" stroke-linecap="butt" stroke-linejoin="miter" stroke-dasharray="none" fill-opacity="0" />
        <path d="M792.0209 330.7739 L792.0209 320.942 L795.1025 316.7081 L795.1025 295.168" opacity="1" stroke="#FFFFFF" stroke-opacity="1" stroke-width="0.39999" stroke-linecap="butt" stroke-linejoin="miter" stroke-dasharray="none" fill-opacity="0" />
        <path d="M785.8764 328.8834 L785.8764 319.0551 L790.8372 315.3749 L790.8372 293.8401" opacity="1" stroke="#FFFFFF" stroke-opacity="1" stroke-width="0.39999" stroke-linecap="butt" stroke-linejoin="miter" stroke-dasharray="none" fill-opacity="0" />
        <line x1="802.4076" y1="295.7819" x2="802.4076" y2="317.3211" opacity="1" stroke="#FFFFFF" stroke-opacity="1" stroke-width="0.39999" stroke-linecap="butt" stroke-linejoin="miter" stroke-dasharray="none" />
        <line x1="809.3412" y1="316.7699" x2="809.3412" y2="295.2191" opacity="1" stroke="#000000" stroke-opacity="1" stroke-width="0" stroke-linecap="butt" stroke-linejoin="miter" stroke-dasharray="none" />
        <line x1="809.3412" y1="316.7699" x2="809.3412" y2="295.2191" opacity="1" stroke="#FFFFFF" stroke-opacity="1" stroke-width="0.39999" stroke-linecap="butt" stroke-linejoin="miter" stroke-dasharray="none" />
        <path d="M822.263 325.9809 L822.2292 326.1654 L822.1774 326.3488 L822.1053 326.5312 L822.0146 326.7125 L821.9052 326.8922 L821.7771 327.0704 L821.6323 327.247 L821.4696 327.4219 L821.2882 327.595 L821.0916 327.7661 L820.8763 327.935 L820.6452 328.1018 L820.3982 328.266 L820.1354 328.4278 L819.8561 328.587 L819.5623 328.7437 L819.2534 328.8974 L818.9294 329.0479 L818.5911 329.1954 L818.2382 329.3399 L817.8724 329.4808 L817.4923 329.6182 L817.0984 329.7522 L816.6924 329.8821 L816.2733 330.0084 L815.842 330.1306 L815.3986 330.249 L814.9435 330.363 L814.4763 330.4726 L813.9981 330.5775 L813.5093 330.6781 L813.0096 330.7739 L813.024 320.8211 C818.3952 319.821 822.0132 318.0899 822.263 316.1182 Z " opacity="1" fill="#036998" fill-opacity="1" />
        <path d="M822.263 325.9809 L822.2292 326.1654 L822.1774 326.3488 L822.1053 326.5312 L822.0146 326.7125 L821.9052 326.8922 L821.7771 327.0704 L821.6323 327.247 L821.4696 327.4219 L821.2882 327.595 L821.0916 327.7661 L820.8763 327.935 L820.6452 328.1018 L820.3982 328.266 L820.1354 328.4278 L819.8561 328.587 L819.5623 328.7437 L819.2534 328.8974 L818.9294 329.0479 L818.5911 329.1954 L818.2382 329.3399 L817.8724 329.4808 L817.4923 329.6182 L817.0984 329.7522 L816.6924 329.8821 L816.2733 330.0084 L815.842 330.1306 L815.3986 330.249 L814.9435 330.363 L814.4763 330.4726 L813.9981 330.5775 L813.5093 330.6781 L813.0096 330.7739 L813.024 320.8211 C818.3952 319.821 822.0132 318.0899 822.263 316.1182 Z " opacity="1" stroke="#FFFFFF" stroke-opacity="1" stroke-width="0.39999" stroke-linecap="butt" stroke-linejoin="miter" stroke-dasharray="none" fill-opacity="0" />
        <path d="M783.0015 325.8326 L783.0165 326.1434 L783.0857 326.4486 L783.2074 326.7477 L783.3795 327.041 L783.6012 327.3278 L783.8705 327.6076 L784.1859 327.8806 L784.5465 328.1465 L784.9512 328.4047 L785.3976 328.6549 L785.8843 328.8974 L786.4106 329.1312 L786.9751 329.3564 L787.5756 329.5725 L788.2106 329.7797 L788.8795 329.9771 L789.5808 330.1647 L790.3123 330.3424 L791.0726 330.5097 L791.861 330.6663 L792.6754 330.8118 L793.5156 330.9464 L794.3774 331.0694 L795.2623 331.1806 L796.1681 331.2798 L797.0926 331.3669 L798.0343 331.441 L798.9927 331.5025 L799.9653 331.5506 L800.951 331.5855 L801.949 331.6067 L802.9584 331.6138 L802.9584 321.633 C791.9618 321.692 782.8761 319.2539 783.0015 315.911 Z " opacity="1" fill="#036998" fill-opacity="1" />
        <path d="M783.0015 325.8326 L783.0165 326.1434 L783.0857 326.4486 L783.2074 326.7477 L783.3795 327.041 L783.6012 327.3278 L783.8705 327.6076 L784.1859 327.8806 L784.5465 328.1465 L784.9512 328.4047 L785.3976 328.6549 L785.8843 328.8974 L786.4106 329.1312 L786.9751 329.3564 L787.5756 329.5725 L788.2106 329.7797 L788.8795 329.9771 L789.5808 330.1647 L790.3123 330.3424 L791.0726 330.5097 L791.861 330.6663 L792.6754 330.8118 L793.5156 330.9464 L794.3774 331.0694 L795.2623 331.1806 L796.1681 331.2798 L797.0926 331.3669 L798.0343 331.441 L798.9927 331.5025 L799.9653 331.5506 L800.951 331.5855 L801.949 331.6067 L802.9584 331.6138 L802.9584 321.633 C791.9618 321.692 782.8761 319.2539 783.0015 315.911 Z " opacity="1" stroke="#FFFFFF" stroke-opacity="1" stroke-width="0.39999" stroke-linecap="butt" stroke-linejoin="miter" stroke-dasharray="none" fill-opacity="0" />
        <path d="M802.4421 295.6959 L802.3802 293.1331 C803.2284 293.1331 804.0751 293.063 804.7281 292.993 L809.3412 295.2191 L809.3412 316.7699 L813.0283 320.7579 L813.0283 330.8286 L804.618 327.0199 C804.3336 327.0199 803.0095 327.1998 802.9152 327.1998 L802.9152 321.6489 L802.4421 317.3049 Z " opacity="1" fill="#036998" fill-opacity="1" />
        <path d="M802.4421 295.6959 L802.3802 293.1331 C803.2284 293.1331 804.0751 293.063 804.7281 292.993 L809.3412 295.2191 L809.3412 316.7699 L813.0283 320.7579 L813.0283 330.8286 L804.618 327.0199 C804.3336 327.0199 803.0095 327.1998 802.9152 327.1998 L802.9152 321.6489 L802.4421 317.3049 Z " opacity="1" stroke="#FFFFFF" stroke-opacity="1" stroke-width="0.39999" stroke-linecap="butt" stroke-linejoin="miter" stroke-dasharray="none" fill-opacity="0" />
        <line x1="804.618" y1="293.0161" x2="804.618" y2="327.0199" opacity="1" stroke="#FFFFFF" stroke-opacity="1" stroke-width="0.39999" stroke-linecap="butt" stroke-linejoin="miter" stroke-dasharray="none" />
        <line x1="783.1929" y1="315.7309" x2="788.6931" y2="313.7311" opacity="1" stroke="#000000" stroke-opacity="1" stroke-width="0" stroke-linecap="butt" stroke-linejoin="miter" stroke-dasharray="none" />
        <line x1="783.1929" y1="315.7309" x2="788.6931" y2="313.7311" opacity="1" stroke="#FFFFFF" stroke-opacity="1" stroke-width="0.39999" stroke-linecap="butt" stroke-linejoin="miter" stroke-dasharray="none" />
        <line x1="822.0672" y1="315.481" x2="816.0674" y2="313.7311" opacity="1" stroke="#000000" stroke-opacity="1" stroke-width="0" stroke-linecap="butt" stroke-linejoin="miter" stroke-dasharray="none" />
        <line x1="822.0672" y1="315.481" x2="816.0674" y2="313.7311" opacity="1" stroke="#FFFFFF" stroke-opacity="1" stroke-width="0.39999" stroke-linecap="butt" stroke-linejoin="miter" stroke-dasharray="none" />
        <path d="M805.7556 296.485 L808.0056 296.1798 L812.6921 298.247 C810.9425 298.715 806.8176 299.2432 806.0054 299.0981 Z " opacity="1" fill="#036998" fill-opacity="1" />
        <path d="M805.7556 296.485 L808.0056 296.1798 L812.6921 298.247 C810.9425 298.715 806.8176 299.2432 806.0054 299.0981 Z " opacity="1" stroke="#FFFFFF" stroke-opacity="1" stroke-width="0.39999" stroke-linecap="butt" stroke-linejoin="miter" stroke-dasharray="none" fill-opacity="0" />
        <path d="M805.6923 296.4892 L806.0054 299.0981 L806.0054 320.5981 L806.5051 324.9459 L806.5051 334.8833 L805.6923 330.6761 Z " opacity="1" fill="#036998" fill-opacity="1" />
        <path d="M805.6923 296.4892 L806.0054 299.0981 L806.0054 320.5981 L806.5051 324.9459 L806.5051 334.8833 L805.6923 330.6761 Z " opacity="1" stroke="#FFFFFF" stroke-opacity="1" stroke-width="0.39999" stroke-linecap="butt" stroke-linejoin="miter" stroke-dasharray="none" fill-opacity="0" />
        <path d="M806.0054 299.0981 L806.1315 299.102 L806.2755 299.102 L806.4353 299.0989 L806.6102 299.0929 L806.7996 299.0841 L807.0012 299.072 L807.2136 299.058 L807.4375 299.0399 L807.6694 299.021 L807.9084 298.9989 L808.1553 298.974 L808.4073 298.9479 L808.9214 298.8891 L809.442 298.824 L809.9611 298.7528 L810.216 298.7161 L810.4673 298.6779 L810.712 298.6381 L810.9504 298.598 L811.1801 298.5581 L811.4011 298.5161 L811.6121 298.4749 L811.8115 298.4329 L811.9973 298.3909 L812.1694 298.3491 L812.3263 298.3071 L812.466 298.2659 L812.5891 298.225 L812.6921 298.1841 L812.6921 319.809 C810.8806 320.157 807.5052 320.645 806.0054 320.536 Z " opacity="1" fill="#036998" fill-opacity="1" />
        <path d="M806.0054 299.0981 L806.1315 299.102 L806.2755 299.102 L806.4353 299.0989 L806.6102 299.0929 L806.7996 299.0841 L807.0012 299.072 L807.2136 299.058 L807.4375 299.0399 L807.6694 299.021 L807.9084 298.9989 L808.1553 298.974 L808.4073 298.9479 L808.9214 298.8891 L809.442 298.824 L809.9611 298.7528 L810.216 298.7161 L810.4673 298.6779 L810.712 298.6381 L810.9504 298.598 L811.1801 298.5581 L811.4011 298.5161 L811.6121 298.4749 L811.8115 298.4329 L811.9973 298.3909 L812.1694 298.3491 L812.3263 298.3071 L812.466 298.2659 L812.5891 298.225 L812.6921 298.1841 L812.6921 319.809 C810.8806 320.157 807.5052 320.645 806.0054 320.536 Z " opacity="1" stroke="#FFFFFF" stroke-opacity="1" stroke-width="0.39999" stroke-linecap="butt" stroke-linejoin="miter" stroke-dasharray="none" fill-opacity="0" />
        <path d="M812.6921 319.809 L816.4426 323.6141 C814.4424 324.1571 807.755 324.883 806.5051 324.883 L806.0054 320.536 C806.7557 320.622 812.3803 319.954 812.6921 319.809 Z " opacity="1" fill="#036998" fill-opacity="1" />
        <path d="M812.6921 319.809 L816.4426 323.6141 C814.4424 324.1571 807.755 324.883 806.5051 324.883 L806.0054 320.536 C806.7557 320.622 812.3803 319.954 812.6921 319.809 Z " opacity="1" stroke="#FFFFFF" stroke-opacity="1" stroke-width="0.39999" stroke-linecap="butt" stroke-linejoin="miter" stroke-dasharray="none" fill-opacity="0" />
        <path d="M816.3807 323.5551 L816.3807 333.5551 C815.0674 333.938 808.1301 334.8639 806.5051 334.8207 L806.5051 324.9459 C807.755 324.9459 813.8801 324.1878 816.3807 323.5551 Z " opacity="1" fill="#036998" fill-opacity="1" />
        <path d="M816.3807 323.5551 L816.3807 333.5551 C815.0674 333.938 808.1301 334.8639 806.5051 334.8207 L806.5051 324.9459 C807.755 324.9459 813.8801 324.1878 816.3807 323.5551 Z " opacity="1" stroke="#FFFFFF" stroke-opacity="1" stroke-width="0.39999" stroke-linecap="butt" stroke-linejoin="miter" stroke-dasharray="none" fill-opacity="0" />
      </g>
    </g>
    <rect x="387" y="288" width="63" height="45" opacity="1" stroke="#A1A1A1" stroke-opacity="1" stroke-width="1" stroke-linecap="butt" stroke-linejoin="miter" stroke-dasharray="none" fill="#F4F4F4" fill-opacity="1" filter="url(#shadow1)" />
    <text x="396.8164" y="308.3969" font-size="12" fill="#616161" fill-opacity="1" font-family="Arial" font-weight="normal" font-style="normal">front end
</text>
    <text x="403.8301" y="322.3969" font-size="12" fill="#616161" fill-opacity="1" font-family="Arial" font-weight="normal" font-style="normal">server</text>
    <g>
      <g>
        <path d="M569.9338 220.9139 L554.5469 220.9139 L554.5469 255.0935 L569.9338 255.0935" opacity="1" fill="#026C9B" fill-opacity="1" />
        <path d="M569.9338 220.9139 L554.5469 220.9139 L554.5469 255.0935 L569.9338 255.0935" opacity="1" stroke="#FFFFFF" stroke-opacity="1" stroke-width="0.4" stroke-linecap="butt" stroke-linejoin="miter" stroke-dasharray="none" fill-opacity="0" />
        <path d="M569.9338 255.0935 L574.8478 250.1796 L574.8478 216 L559.4608 216 L554.5469 220.9139 L569.9338 220.9139 Z " opacity="1" fill="#026C9B" fill-opacity="1" />
        <path d="M569.9338 255.0935 L574.8478 250.1796 L574.8478 216 L559.4608 216 L554.5469 220.9139 L569.9338 220.9139 Z " opacity="1" stroke="#FFFFFF" stroke-opacity="1" stroke-width="0.4" stroke-linecap="butt" stroke-linejoin="miter" stroke-dasharray="none" fill-opacity="0" />
        <line x1="569.9338" y1="220.9139" x2="574.8478" y2="216" opacity="1" stroke="#026C9B" stroke-opacity="1" stroke-width="0" stroke-linecap="butt" stroke-linejoin="miter" stroke-dasharray="none" />
        <line x1="569.9338" y1="220.9139" x2="574.8478" y2="216" opacity="1" stroke="#FFFFFF" stroke-opacity="1" stroke-width="0.4" stroke-linecap="butt" stroke-linejoin="miter" stroke-dasharray="none" />
        <path d="M563.6288 236.5469 L563.6288 235.4219 L555.8789 235.4219 L555.8789 236.5469 Z " opacity="1" fill="#026C9B" fill-opacity="1" />
        <path d="M555.8789 236.5469 L563.6288 236.5469 L563.6288 235.4219 L555.8789 235.4219 Z " opacity="1" stroke="#FFFFFF" stroke-opacity="1" stroke-width="0.4" stroke-linecap="butt" stroke-linejoin="miter" stroke-dasharray="none" fill-opacity="0" />
        <path d="M563.6288 238.879 L563.6288 237.754 L555.8789 237.754 L555.8789 238.879 Z " opacity="1" fill="#026C9B" fill-opacity="1" />
        <path d="M555.8789 238.879 L563.6288 238.879 L563.6288 237.754 L555.8789 237.754 Z " opacity="1" stroke="#FFFFFF" stroke-opacity="1" stroke-width="0.4" stroke-linecap="butt" stroke-linejoin="miter" stroke-dasharray="none" fill-opacity="0" />
        <path d="M563.6288 241.215 L563.6288 240.09 L555.8789 240.09 L555.8789 241.215 Z " opacity="1" fill="#026C9B" fill-opacity="1" />
        <path d="M555.8789 241.215 L563.6288 241.215 L563.6288 240.09 L555.8789 240.09 Z " opacity="1" stroke="#FFFFFF" stroke-opacity="1" stroke-width="0.4" stroke-linecap="butt" stroke-linejoin="miter" stroke-dasharray="none" fill-opacity="0" />
        <path d="M563.6288 243.5471 L563.6288 242.4221 L555.8789 242.4221 L555.8789 243.5471 Z " opacity="1" fill="#026C9B" fill-opacity="1" />
        <path d="M555.8789 243.5471 L563.6288 243.5471 L563.6288 242.4221 L555.8789 242.4221 Z " opacity="1" stroke="#FFFFFF" stroke-opacity="1" stroke-width="0.4" stroke-linecap="butt" stroke-linejoin="miter" stroke-dasharray="none" fill-opacity="0" />
        <path d="M563.6288 245.8787 L563.6288 244.754 L555.8789 244.754 L555.8789 245.8787 Z " opacity="1" fill="#026C9B" fill-opacity="1" />
        <path d="M555.8789 245.8787 L563.6288 245.8787 L563.6288 244.754 L555.8789 244.754 Z " opacity="1" stroke="#FFFFFF" stroke-opacity="1" stroke-width="0.4" stroke-linecap="butt" stroke-linejoin="miter" stroke-dasharray="none" fill-opacity="0" />
        <path d="M563.6288 248.2108 L563.6288 247.0858 L555.8789 247.0858 L555.8789 248.2108 Z " opacity="1" fill="#026C9B" fill-opacity="1" />
        <path d="M555.8789 248.2108 L563.6288 248.2108 L563.6288 247.0858 L555.8789 247.0858 Z " opacity="1" stroke="#FFFFFF" stroke-opacity="1" stroke-width="0.4" stroke-linecap="butt" stroke-linejoin="miter" stroke-dasharray="none" fill-opacity="0" />
        <path d="M563.6288 250.5468 L563.6288 249.4218 L555.8789 249.4218 L555.8789 250.5468 Z " opacity="1" fill="#026C9B" fill-opacity="1" />
        <path d="M555.8789 250.5468 L563.6288 250.5468 L563.6288 249.4218 L555.8789 249.4218 Z " opacity="1" stroke="#FFFFFF" stroke-opacity="1" stroke-width="0.4" stroke-linecap="butt" stroke-linejoin="miter" stroke-dasharray="none" fill-opacity="0" />
        <path d="M563.6288 252.8748 L563.6288 251.7498 L555.8789 251.7498 L555.8789 252.8748 Z " opacity="1" fill="#026C9B" fill-opacity="1" />
        <path d="M555.8789 252.8748 L563.6288 252.8748 L563.6288 251.7498 L555.8789 251.7498 Z " opacity="1" stroke="#FFFFFF" stroke-opacity="1" stroke-width="0.4" stroke-linecap="butt" stroke-linejoin="miter" stroke-dasharray="none" fill-opacity="0" />
        <path d="M564.5628 224.894 L564.5528 225.042 L564.5228 225.189 L564.4728 225.3329 L564.4048 225.4741 L564.3178 225.6141 L564.2128 225.7501 L564.0898 225.8841 L563.9508 226.0151 L563.7948 226.142 L563.6228 226.267 L563.4359 226.387 L563.2338 226.504 L563.0168 226.6169 L562.7858 226.726 L562.5408 226.83 L562.2828 226.93 L562.0128 227.0251 L561.7308 227.116 L561.4368 227.2011 L561.1318 227.2821 L560.8158 227.356 L560.4897 227.4261 L560.1548 227.489 L559.8098 227.5469 L559.4568 227.5991 L559.0948 227.6441 L558.7257 227.6831 L558.3493 227.715 L557.9661 227.74 L557.5768 227.7581 L557.1816 227.7691 L556.7813 227.7729 C552.4844 227.7729 549 226.484 549 224.894 L549 231.5349 C549 233.1211 552.4844 234.4139 556.7813 234.4139 C561.0778 234.4139 564.5628 233.1211 564.5628 231.5349 Z " opacity="1" fill="#026C9B" fill-opacity="1" />
        <path d="M564.5628 224.894 L564.5528 225.042 L564.5228 225.189 L564.4728 225.3329 L564.4048 225.4741 L564.3178 225.6141 L564.2128 225.7501 L564.0898 225.8841 L563.9508 226.0151 L563.7948 226.142 L563.6228 226.267 L563.4359 226.387 L563.2338 226.504 L563.0168 226.6169 L562.7858 226.726 L562.5408 226.83 L562.2828 226.93 L562.0128 227.0251 L561.7308 227.116 L561.4368 227.2011 L561.1318 227.2821 L560.8158 227.356 L560.4897 227.4261 L560.1548 227.489 L559.8098 227.5469 L559.4568 227.5991 L559.0948 227.6441 L558.7257 227.6831 L558.3493 227.715 L557.9661 227.74 L557.5768 227.7581 L557.1816 227.7691 L556.7813 227.7729 C552.4844 227.7729 549 226.484 549 224.894 L549 231.5349 C549 233.1211 552.4844 234.4139 556.7813 234.4139 C561.0778 234.4139 564.5628 233.1211 564.5628 231.5349 Z " opacity="1" stroke="#FFFFFF" stroke-opacity="1" stroke-width="0.4" stroke-linecap="butt" stroke-linejoin="miter" stroke-dasharray="none" fill-opacity="0" />
        <path d="M556.7813 227.7729 L557.1816 227.7691 L557.5768 227.7581 L557.9661 227.74 L558.3493 227.715 L558.7257 227.6831 L559.0948 227.6441 L559.4568 227.5991 L559.8098 227.5469 L560.1548 227.489 L560.4897 227.4261 L560.8158 227.356 L561.1318 227.2821 L561.4368 227.2011 L561.7308 227.116 L562.0128 227.0251 L562.2828 226.93 L562.5408 226.83 L562.7858 226.726 L563.0168 226.6169 L563.2338 226.504 L563.4359 226.387 L563.6228 226.267 L563.7948 226.142 L563.9508 226.0151 L564.0898 225.8841 L564.2128 225.7501 L564.3178 225.6141 L564.4048 225.4741 L564.4728 225.3329 L564.5228 225.189 L564.5528 225.042 L564.5628 224.894 C564.5628 223.301 561.0778 222.012 556.7813 222.012 C552.4844 222.012 549 223.301 549 224.894 C549 226.484 552.4844 227.7729 556.7813 227.7729 Z " opacity="1" fill="#026C9B" fill-opacity="1" />
        <path d="M556.7813 227.7729 L557.1816 227.7691 L557.5768 227.7581 L557.9661 227.74 L558.3493 227.715 L558.7257 227.6831 L559.0948 227.6441 L559.4568 227.5991 L559.8098 227.5469 L560.1548 227.489 L560.4897 227.4261 L560.8158 227.356 L561.1318 227.2821 L561.4368 227.2011 L561.7308 227.116 L562.0128 227.0251 L562.2828 226.93 L562.5408 226.83 L562.7858 226.726 L563.0168 226.6169 L563.2338 226.504 L563.4359 226.387 L563.6228 226.267 L563.7948 226.142 L563.9508 226.0151 L564.0898 225.8841 L564.2128 225.7501 L564.3178 225.6141 L564.4048 225.4741 L564.4728 225.3329 L564.5228 225.189 L564.5528 225.042 L564.5628 224.894 C564.5628 223.301 561.0778 222.012 556.7813 222.012 C552.4844 222.012 549 223.301 549 224.894 C549 226.484 552.4844 227.7729 556.7813 227.7729 Z " opacity="1" stroke="#FFFFFF" stroke-opacity="1" stroke-width="0.4" stroke-linecap="butt" stroke-linejoin="miter" stroke-dasharray="none" fill-opacity="0" />
        <path d="M572.8948 230.8939 L572.8848 231.0419 L572.8548 231.1889 L572.8047 231.3331 L572.7368 231.474 L572.6498 231.614 L572.5448 231.75 L572.4228 231.884 L572.2828 232.015 L572.1268 232.1419 L571.9558 232.2669 L571.7678 232.3869 L571.5658 232.5039 L571.3488 232.6171 L571.1178 232.7261 L570.8728 232.83 L570.6147 232.9299 L570.3448 233.025 L570.0628 233.1159 L569.7688 233.201 L569.4638 233.282 L569.1478 233.3559 L568.8218 233.426 L568.4868 233.4891 L568.1418 233.5471 L567.7888 233.599 L567.4268 233.644 L567.0578 233.683 L566.6818 233.7149 L566.2979 233.7399 L565.9088 233.758 L565.5138 233.769 L565.1128 233.7731 C560.8168 233.7731 557.332 232.4839 557.332 230.8939 L557.332 237.5351 C557.332 239.121 560.8168 240.4141 565.1128 240.4141 C569.4098 240.4141 572.8948 239.121 572.8948 237.5351 Z " opacity="1" fill="#026C9B" fill-opacity="1" />
        <path d="M572.8948 230.8939 L572.8848 231.0419 L572.8548 231.1889 L572.8047 231.3331 L572.7368 231.474 L572.6498 231.614 L572.5448 231.75 L572.4228 231.884 L572.2828 232.015 L572.1268 232.1419 L571.9558 232.2669 L571.7678 232.3869 L571.5658 232.5039 L571.3488 232.6171 L571.1178 232.7261 L570.8728 232.83 L570.6147 232.9299 L570.3448 233.025 L570.0628 233.1159 L569.7688 233.201 L569.4638 233.282 L569.1478 233.3559 L568.8218 233.426 L568.4868 233.4891 L568.1418 233.5471 L567.7888 233.599 L567.4268 233.644 L567.0578 233.683 L566.6818 233.7149 L566.2979 233.7399 L565.9088 233.758 L565.5138 233.769 L565.1128 233.7731 C560.8168 233.7731 557.332 232.4839 557.332 230.8939 L557.332 237.5351 C557.332 239.121 560.8168 240.4141 565.1128 240.4141 C569.4098 240.4141 572.8948 239.121 572.8948 237.5351 Z " opacity="1" stroke="#FFFFFF" stroke-opacity="1" stroke-width="0.4" stroke-linecap="butt" stroke-linejoin="miter" stroke-dasharray="none" fill-opacity="0" />
        <path d="M565.1128 233.7731 L565.5138 233.769 L565.9088 233.758 L566.2979 233.7399 L566.6818 233.7149 L567.0578 233.683 L567.4268 233.644 L567.7888 233.599 L568.1418 233.5471 L568.4868 233.4891 L568.8218 233.426 L569.1478 233.3559 L569.4638 233.282 L569.7688 233.201 L570.0628 233.1159 L570.3448 233.025 L570.6147 232.9299 L570.8728 232.83 L571.1178 232.7261 L571.3488 232.6171 L571.5658 232.5039 L571.7678 232.3869 L571.9558 232.2669 L572.1268 232.1419 L572.2828 232.015 L572.4228 231.884 L572.5448 231.75 L572.6498 231.614 L572.7368 231.474 L572.8047 231.3331 L572.8548 231.1889 L572.8848 231.0419 L572.8948 230.8939 C572.8948 229.3009 569.4098 228.0119 565.1128 228.0119 C560.8168 228.0119 557.332 229.3009 557.332 230.8939 C557.332 232.4839 560.8168 233.7731 565.1128 233.7731 Z " opacity="1" fill="#026C9B" fill-opacity="1" />
        <path d="M565.1128 233.7731 L565.5138 233.769 L565.9088 233.758 L566.2979 233.7399 L566.6818 233.7149 L567.0578 233.683 L567.4268 233.644 L567.7888 233.599 L568.1418 233.5471 L568.4868 233.4891 L568.8218 233.426 L569.1478 233.3559 L569.4638 233.282 L569.7688 233.201 L570.0628 233.1159 L570.3448 233.025 L570.6147 232.9299 L570.8728 232.83 L571.1178 232.7261 L571.3488 232.6171 L571.5658 232.5039 L571.7678 232.3869 L571.9558 232.2669 L572.1268 232.1419 L572.2828 232.015 L572.4228 231.884 L572.5448 231.75 L572.6498 231.614 L572.7368 231.474 L572.8047 231.3331 L572.8548 231.1889 L572.8848 231.0419 L572.8948 230.8939 C572.8948 229.3009 569.4098 228.0119 565.1128 228.0119 C560.8168 228.0119 557.332 229.3009 557.332 230.8939 C557.332 232.4839 560.8168 233.7731 565.1128 233.7731 Z " opacity="1" stroke="#FFFFFF" stroke-opacity="1" stroke-width="0.4" stroke-linecap="butt" stroke-linejoin="miter" stroke-dasharray="none" fill-opacity="0" />
      </g>
    </g>
    <line x1="366" y1="234" x2="366" y2="396" opacity="1" stroke="#7F7F7F" stroke-opacity="1" stroke-width="1" stroke-linecap="butt" stroke-linejoin="miter" stroke-dasharray="8,4,2,4" />
    <line x1="639" y1="234" x2="639" y2="396" opacity="1" stroke="#7F7F7F" stroke-opacity="1" stroke-width="1" stroke-linecap="butt" stroke-linejoin="miter" stroke-dasharray="8,4,2,4" />
    <g>
      <g>
        <path d="M580.1208 383.7621 L580.1008 384.058 L580.0408 384.3511 L579.9418 384.64 L579.8047 384.923 L579.6318 385.202 L579.4218 385.4761 L579.1768 385.743 L578.8987 386.0051 L578.5867 386.2599 L578.2438 386.509 L577.8688 386.7501 L577.4638 386.9839 L577.0308 387.21 L576.5687 387.4269 L576.0798 387.636 L575.5648 387.8361 L575.0237 388.0269 L574.4598 388.2079 L573.8718 388.3791 L573.2618 388.54 L572.6307 388.69 L571.9788 388.828 L571.3077 388.956 L570.6188 389.071 L569.9127 389.1741 L569.1898 389.265 L568.4507 389.342 L567.6987 389.407 L566.9318 389.457 L566.1538 389.494 L565.3628 389.516 L564.5627 389.523 C555.9688 389.523 549 386.9449 549 383.7621 L549 397.0432 C549 400.2227 555.9688 402.8048 564.5627 402.8048 C573.1558 402.8048 580.1208 400.2227 580.1208 397.0432 Z " opacity="1" fill="#026C9B" fill-opacity="1" />
        <path d="M580.1208 383.7621 L580.1008 384.058 L580.0408 384.3511 L579.9418 384.64 L579.8047 384.923 L579.6318 385.202 L579.4218 385.4761 L579.1768 385.743 L578.8987 386.0051 L578.5867 386.2599 L578.2438 386.509 L577.8688 386.7501 L577.4638 386.9839 L577.0308 387.21 L576.5687 387.4269 L576.0798 387.636 L575.5648 387.8361 L575.0237 388.0269 L574.4598 388.2079 L573.8718 388.3791 L573.2618 388.54 L572.6307 388.69 L571.9788 388.828 L571.3077 388.956 L570.6188 389.071 L569.9127 389.1741 L569.1898 389.265 L568.4507 389.342 L567.6987 389.407 L566.9318 389.457 L566.1538 389.494 L565.3628 389.516 L564.5627 389.523 C555.9688 389.523 549 386.9449 549 383.7621 L549 397.0432 C549 400.2227 555.9688 402.8048 564.5627 402.8048 C573.1558 402.8048 580.1208 400.2227 580.1208 397.0432 Z " opacity="1" stroke="#FFFFFF" stroke-opacity="1" stroke-width="0.4" stroke-linecap="butt" stroke-linejoin="miter" stroke-dasharray="none" fill-opacity="0" />
        <path d="M564.5627 389.523 L565.3628 389.516 L566.1538 389.494 L566.9318 389.457 L567.6987 389.407 L568.4507 389.342 L569.1898 389.265 L569.9127 389.1741 L570.6188 389.071 L571.3077 388.956 L571.9788 388.828 L572.6307 388.69 L573.2618 388.54 L573.8718 388.3791 L574.4598 388.2079 L575.0237 388.0269 L575.5648 387.8361 L576.0798 387.636 L576.5687 387.4269 L577.0308 387.21 L577.4638 386.9839 L577.8688 386.7501 L578.2438 386.509 L578.5867 386.2599 L578.8987 386.0051 L579.1768 385.743 L579.4218 385.4761 L579.6318 385.202 L579.8047 384.923 L579.9418 384.64 L580.0408 384.3511 L580.1008 384.058 L580.1208 383.7621 C580.1208 380.5779 573.1558 378 564.5627 378 C555.9688 378 549 380.5779 549 383.7621 C549 386.9449 555.9688 389.523 564.5627 389.523 Z " opacity="1" fill="#026C9B" fill-opacity="1" />
        <path d="M564.5627 389.523 L565.3628 389.516 L566.1538 389.494 L566.9318 389.457 L567.6987 389.407 L568.4507 389.342 L569.1898 389.265 L569.9127 389.1741 L570.6188 389.071 L571.3077 388.956 L571.9788 388.828 L572.6307 388.69 L573.2618 388.54 L573.8718 388.3791 L574.4598 388.2079 L575.0237 388.0269 L575.5648 387.8361 L576.0798 387.636 L576.5687 387.4269 L577.0308 387.21 L577.4638 386.9839 L577.8688 386.7501 L578.2438 386.509 L578.5867 386.2599 L578.8987 386.0051 L579.1768 385.743 L579.4218 385.4761 L579.6318 385.202 L579.8047 384.923 L579.9418 384.64 L580.0408 384.3511 L580.1008 384.058 L580.1208 383.7621 C580.1208 380.5779 573.1558 378 564.5627 378 C555.9688 378 549 380.5779 549 383.7621 C549 386.9449 555.9688 389.523 564.5627 389.523 Z " opacity="1" stroke="#FFFFFF" stroke-opacity="1" stroke-width="0.4" stroke-linecap="butt" stroke-linejoin="miter" stroke-dasharray="none" fill-opacity="0" />
      </g>
    </g>
    <line x1="564" y1="261" x2="564" y2="279.4792" marker-end="url(#marker1)" opacity="1" stroke="#000000" stroke-opacity="1" stroke-width="1" stroke-linecap="butt" stroke-linejoin="miter" stroke-dasharray="none" />
    <line x1="564" y1="369" x2="564" y2="341.5208" marker-end="url(#marker2)" opacity="1" stroke="#000000" stroke-opacity="1" stroke-width="1" stroke-linecap="butt" stroke-linejoin="miter" stroke-dasharray="none" />
    <line x1="350.5208" y1="312" x2="378.4792" y2="312" marker-start="url(#marker3)" marker-end="url(#marker4)" opacity="1" stroke="#9F9F9F" stroke-opacity="1" stroke-width="1" stroke-linecap="butt" stroke-linejoin="miter" stroke-dasharray="none" />
    <line x1="458.5208" y1="312" x2="494.6068" y2="312" marker-start="url(#marker5)" marker-end="url(#marker6)" opacity="1" stroke="#000000" stroke-opacity="1" stroke-width="1" stroke-linecap="butt" stroke-linejoin="miter" stroke-dasharray="none" />
    <line x1="620.5208" y1="312" x2="657.4792" y2="312" marker-start="url(#marker7)" marker-end="url(#marker8)" opacity="1" stroke="#000000" stroke-opacity="1" stroke-width="1" stroke-linecap="butt" stroke-linejoin="miter" stroke-dasharray="none" />
    <text x="197.3301" y="256.8969" font-size="12" fill="#000000" fill-opacity="1" font-family="Arial" font-weight="normal" font-style="normal">(phys)
</text>
    <text x="202.3281" y="270.8969" font-size="12" fill="#000000" fill-opacity="1" font-family="Arial" font-weight="normal" font-style="normal">user</text>
    <text x="769.1563" y="256.8969" font-size="12" fill="#000000" fill-opacity="1" font-family="Arial" font-weight="normal" font-style="normal">sim. machines
</text>
    <text x="782.1582" y="270.8969" font-size="12" fill="#000000" fill-opacity="1" font-family="Arial" font-weight="normal" font-style="normal">(log) user</text>
    <line x1="478" y1="261" x2="478" y2="360" opacity="1" stroke="#9F9F9F" stroke-opacity="1" stroke-width="1" stroke-linecap="butt" stroke-linejoin="miter" stroke-dasharray="8,4,2,4" />
    <text x="489.9854" y="211.8969" font-size="12" fill="#000000" fill-opacity="1" font-family="Arial" font-weight="normal" font-style="normal">data server
</text>
    <text x="497.6523" y="225.8969" font-size="12" fill="#000000" fill-opacity="1" font-family="Arial" font-weight="normal" font-style="normal">gateway</text>
    <text x="503.3301" y="400.8969" font-size="12" fill="#000000" fill-opacity="1" font-family="Arial" font-weight="normal" font-style="normal">RACE
</text>
    <text x="482.6436" y="414.8969" font-size="12" fill="#000000" fill-opacity="1" font-family="Arial" font-weight="normal" font-style="normal">configurations</text>
    <text x="375.9912" y="238.8969" font-size="12" fill="#000000" fill-opacity="1" font-family="Arial" font-weight="normal" font-style="normal">central
</text>
    <text x="377.3301" y="252.8969" font-size="12" fill="#000000" fill-opacity="1" font-family="Arial" font-weight="normal" font-style="normal">facility</text>
    <rect x="459" y="288" width="36" height="18" opacity="1" fill="#FFFFFF" fill-opacity="0.85" />
    <text x="467.6592" y="301.8969" font-size="12" fill="#7F7F7F" fill-opacity="1" font-family="Arial" font-weight="normal" font-style="italic">SSL</text>
    <rect x="621" y="288" width="36" height="18" opacity="1" fill="#FFFFFF" fill-opacity="0.85" />
    <text x="628.6631" y="301.8969" font-size="12" fill="#7F7F7F" fill-opacity="1" font-family="Arial" font-weight="normal" font-style="italic">SSH</text>
    <text x="654.3262" y="238.8969" font-size="12" fill="#000000" fill-opacity="1" font-family="Arial" font-weight="normal" font-style="normal">remote
</text>
    <text x="651.6602" y="252.8969" font-size="12" fill="#000000" fill-opacity="1" font-family="Arial" font-weight="normal" font-style="normal">facilities</text>
  </g>
</svg>