<?xml version="1.0" encoding="utf-8"?>
<svg width="100%" height="100%" version="1.1" viewBox="267 276 1005 481.7501" xmlns:xlink="http://www.w3.org/1999/xlink" xmlns:inkscape="http://www.inkscape.org/namespaces/inkscape" xmlns="http://www.w3.org/2000/svg">
  <defs>
    <filter id="shadow1" width="150%" height="150%">
      <feGaussianBlur in="SourceAlpha" result="blur" stdDeviation="3" />
      <feOffset dx="3" dy="3" in="blur" result="offsetBlur" />
      <feMerge>
        <feMergeNode in="offsetBlur" />
        <feMergeNode in="SourceGraphic" />
      </feMerge>
    </filter>
  </defs>
  <marker id="marker1" markerUnits="strokeWidth" orient="auto" refX="11.17254" refY="0" markerWidth="13.27247" markerHeight="10.22955" viewBox="-1 -5.114774 13.27247 10.22955">
    <path d="M11.27247 4.114773 L0 0 L11.27247 -4.114774 Z " fill="#000000" fill-opacity="1" stroke="#000000" stroke-opacity="1" />
  </marker>
  <marker id="marker2" markerUnits="strokeWidth" orient="auto" refX="-11.17254" refY="0" markerWidth="13.27247" markerHeight="10.22955" viewBox="-12.27247 -5.114774 13.27247 10.22955">
    <path d="M-11.27247 -4.114774 L0 0 L-11.27247 4.114773 Z " fill="#000000" fill-opacity="1" stroke="#000000" stroke-opacity="1" />
  </marker>
  <marker id="marker3" markerUnits="strokeWidth" orient="auto" refX="-0.7626134" refY="0" markerWidth="14.12961" markerHeight="11.08669" viewBox="-12.70104 -5.543345 14.12961 11.08669">
    <path d="M-11.27247 -4.114774 L0 0 L-11.27247 4.114773" fill="none" stroke="#000000" stroke-opacity="1" />
  </marker>
  <marker id="marker4" markerUnits="strokeWidth" orient="auto" refX="-0.7626134" refY="0" markerWidth="14.12961" markerHeight="11.08669" viewBox="-12.70104 -5.543345 14.12961 11.08669">
    <path d="M-11.27247 -4.114774 L0 0 L-11.27247 4.114773" fill="none" stroke="#000000" stroke-opacity="1" />
  </marker>
  <marker id="marker5" markerUnits="strokeWidth" orient="auto" refX="-0.7626134" refY="0" markerWidth="14.12961" markerHeight="11.08669" viewBox="-12.70104 -5.543345 14.12961 11.08669">
    <path d="M-11.27247 -4.114774 L0 0 L-11.27247 4.114773" fill="none" stroke="#000000" stroke-opacity="1" />
  </marker>
  <marker id="marker6" markerUnits="strokeWidth" orient="auto" refX="-11.17254" refY="0" markerWidth="13.27247" markerHeight="10.22955" viewBox="-12.27247 -5.114774 13.27247 10.22955">
    <path d="M-11.27247 -4.114774 L0 0 L-11.27247 4.114773 Z " fill="#000000" fill-opacity="1" stroke="#000000" stroke-opacity="1" />
  </marker>
  <marker id="marker7" markerUnits="strokeWidth" orient="auto" refX="-0.7626134" refY="0" markerWidth="14.12961" markerHeight="11.08669" viewBox="-12.70104 -5.543345 14.12961 11.08669">
    <path d="M-11.27247 -4.114774 L0 0 L-11.27247 4.114773" fill="none" stroke="#000000" stroke-opacity="1" />
  </marker>
  <marker id="marker8" markerUnits="strokeWidth" orient="auto" refX="0.7626134" refY="0" markerWidth="14.12961" markerHeight="11.08669" viewBox="-1.428571 -5.543345 14.12961 11.08669">
    <path d="M11.27247 4.114773 L0 0 L11.27247 -4.114774" fill="none" stroke="#000000" stroke-opacity="1" />
  </marker>
  <marker id="marker9" markerUnits="strokeWidth" orient="auto" refX="-0.7626134" refY="0" markerWidth="14.12961" markerHeight="11.08669" viewBox="-12.70104 -5.543345 14.12961 11.08669">
    <path d="M-11.27247 -4.114774 L0 0 L-11.27247 4.114773" fill="none" stroke="#000000" stroke-opacity="1" />
  </marker>
  <marker id="marker10" markerUnits="strokeWidth" orient="auto" refX="-11.17254" refY="0" markerWidth="13.27247" markerHeight="10.22955" viewBox="-12.27247 -5.114774 13.27247 10.22955">
    <path d="M-11.27247 -4.114774 L0 0 L-11.27247 4.114773 Z " fill="#000000" fill-opacity="1" stroke="#000000" stroke-opacity="1" />
  </marker>
  <marker id="marker11" markerUnits="strokeWidth" orient="auto" refX="-11.17254" refY="0" markerWidth="13.27247" markerHeight="10.22955" viewBox="-12.27247 -5.114774 13.27247 10.22955">
    <path d="M-11.27247 -4.114774 L0 0 L-11.27247 4.114773 Z " fill="#000000" fill-opacity="1" stroke="#000000" stroke-opacity="1" />
  </marker>
  <marker id="marker12" markerUnits="strokeWidth" orient="auto" refX="-11.17254" refY="0" markerWidth="13.27247" markerHeight="10.22955" viewBox="-12.27247 -5.114774 13.27247 10.22955">
    <path d="M-11.27247 -4.114774 L0 0 L-11.27247 4.114773 Z " fill="#000000" fill-opacity="1" stroke="#000000" stroke-opacity="1" />
  </marker>
  <linearGradient id="gradient1" x1="100%" y1="50.00002%" x2="0%" y2="50.00002%">
    <stop offset="2%" stop-color="#969696" stop-opacity="1" />
    <stop offset="44%" stop-color="#FFFFFF" stop-opacity="1" />
  </linearGradient>
  <linearGradient id="gradient2" x1="100%" y1="49.99855%" x2="0%" y2="49.99855%">
    <stop offset="1%" stop-color="#9B9B9B" stop-opacity="1" />
    <stop offset="41%" stop-color="#FFFFFF" stop-opacity="1" />
  </linearGradient>
  <marker id="marker13" markerUnits="strokeWidth" orient="auto" refX="-11.17254" refY="0" markerWidth="13.27247" markerHeight="10.22955" viewBox="-12.27247 -5.114774 13.27247 10.22955">
    <path d="M-11.27247 -4.114774 L0 0 L-11.27247 4.114773 Z " fill="#000000" fill-opacity="1" stroke="#000000" stroke-opacity="1" />
  </marker>
  <marker id="marker14" markerUnits="strokeWidth" orient="auto" refX="11.17254" refY="0" markerWidth="13.27247" markerHeight="10.22955" viewBox="-1 -5.114774 13.27247 10.22955">
    <path d="M11.27247 4.114773 L0 0 L11.27247 -4.114774 Z " fill="#000000" fill-opacity="1" stroke="#000000" stroke-opacity="1" />
  </marker>
  <marker id="marker15" markerUnits="strokeWidth" orient="auto" refX="-11.17254" refY="0" markerWidth="13.27247" markerHeight="10.22955" viewBox="-12.27247 -5.114774 13.27247 10.22955">
    <path d="M-11.27247 -4.114774 L0 0 L-11.27247 4.114773 Z " fill="#000000" fill-opacity="1" stroke="#000000" stroke-opacity="1" />
  </marker>
  <marker id="marker16" markerUnits="strokeWidth" orient="auto" refX="-0.8697562" refY="0" markerWidth="13.27247" markerHeight="10.22955" viewBox="-12.27247 -5.114774 13.27247 10.22955">
    <path d="M-11.27247 -4.114774 L0 0 L-11.27247 4.114773" fill="none" stroke="#000000" stroke-opacity="1" />
  </marker>
  <g id="layer1" inkscape:label="Layer 1" inkscape:groupmode="layer">
    <g>
      <rect x="963" y="540" width="90" height="108" opacity="1" stroke="#000000" stroke-opacity="1" stroke-width="1" stroke-linecap="butt" stroke-linejoin="miter" stroke-dasharray="none" fill="#FFFFFF" fill-opacity="1" filter="url(#shadow1)" />
      <rect x="969.4288" y="551.5714" width="77.14268" height="90" opacity="1" stroke="#000000" stroke-opacity="1" stroke-width="1" stroke-linecap="butt" stroke-linejoin="miter" stroke-dasharray="none" fill="#FFFFFF" fill-opacity="1" filter="url(#shadow1)" />
      <rect x="988.7141" y="557.9999" width="38.57135" height="19.28578" opacity="1" stroke="#000000" stroke-opacity="1" stroke-width="1" stroke-linecap="butt" stroke-linejoin="miter" stroke-dasharray="none" fill="#FFFFFF" fill-opacity="1" filter="url(#shadow1)" />
      <rect x="995.1429" y="609.4286" width="38.57121" height="19.28554" opacity="1" stroke="#000000" stroke-opacity="1" stroke-width="1" stroke-linecap="butt" stroke-linejoin="miter" stroke-dasharray="none" fill="#FFFFFF" fill-opacity="1" filter="url(#shadow1)" />
      <rect x="988.7141" y="603" width="38.57135" height="19.2856" opacity="1" stroke="#000000" stroke-opacity="1" stroke-width="1" stroke-linecap="butt" stroke-linejoin="miter" stroke-dasharray="none" fill="#FFFFFF" fill-opacity="1" filter="url(#shadow1)" />
    </g>
    <g>
      <path d="M576 637.875 L576 685.125 Q583.875 693 607.5 693 Q631.125 693 639 685.125 L639 637.875 Z " opacity="1" stroke="#000000" stroke-opacity="1" stroke-width="1" stroke-linecap="butt" stroke-linejoin="miter" stroke-dasharray="none" fill="#FFFFFF" fill-opacity="1" filter="url(#shadow1)" />
      <text x="587.8203" y="671.0586" font-size="15" fill="#000000" fill-opacity="1" font-family="Arial" font-weight="normal" font-style="normal">Config</text>
      <ellipse cx="607.5" cy="637.875" rx="31.5" ry="7.875" opacity="1" stroke="#000000" stroke-opacity="1" stroke-width="1" stroke-linecap="butt" stroke-linejoin="miter" stroke-dasharray="none" fill="#FFFFFF" fill-opacity="1" />
    </g>
    <rect x="279" y="405" width="117" height="45" opacity="1" stroke="#000000" stroke-opacity="1" stroke-width="1" stroke-linecap="butt" stroke-linejoin="miter" stroke-dasharray="none" fill="#FFFFFF" fill-opacity="1" filter="url(#shadow1)" />
    <rect x="1080" y="459" width="180" height="234" opacity="1" stroke="#000000" stroke-opacity="1" stroke-width="1" stroke-linecap="butt" stroke-linejoin="miter" stroke-dasharray="none" fill="#FFFFFF" fill-opacity="1" filter="url(#shadow1)" />
    <rect x="1071" y="450" width="180" height="234" opacity="1" stroke="#000000" stroke-opacity="1" stroke-width="1" stroke-linecap="butt" stroke-linejoin="miter" stroke-dasharray="none" fill="#FFFFFF" fill-opacity="1" filter="url(#shadow1)" />
    <rect x="1089" y="513" width="144" height="153" opacity="1" stroke="#000000" stroke-opacity="1" stroke-width="1" stroke-linecap="butt" stroke-linejoin="miter" stroke-dasharray="none" fill="#FFFFFF" fill-opacity="1" filter="url(#shadow1)" />
    <rect x="1134" y="540" width="54" height="27" opacity="1" stroke="#000000" stroke-opacity="1" stroke-width="1" stroke-linecap="butt" stroke-linejoin="miter" stroke-dasharray="none" fill="#FFFFFF" fill-opacity="1" filter="url(#shadow1)" />
    <text x="1143.135" y="558.6383" font-size="13" fill="#000000" fill-opacity="1" font-family="Arial" font-weight="normal" font-style="normal">master</text>
    <g>
      <rect x="1136.25" y="630" width="60.75" height="27" opacity="1" stroke="#000000" stroke-opacity="1" stroke-width="1" stroke-linecap="butt" stroke-linejoin="miter" stroke-dasharray="none" fill="#FFFFFF" fill-opacity="1" filter="url(#shadow1)" />
      <rect x="1126.125" y="621" width="60.75" height="27" opacity="1" stroke="#000000" stroke-opacity="1" stroke-width="1" stroke-linecap="butt" stroke-linejoin="miter" stroke-dasharray="none" fill="#FFFFFF" fill-opacity="1" filter="url(#shadow1)" />
      <rect x="1116" y="612" width="60.75" height="27" opacity="1" stroke="#000000" stroke-opacity="1" stroke-width="1" stroke-linecap="butt" stroke-linejoin="miter" stroke-dasharray="none" fill="#FFFFFF" fill-opacity="1" filter="url(#shadow1)" />
      <text x="1130.675" y="630.6383" font-size="13" fill="#000000" fill-opacity="1" font-family="Arial" font-weight="normal" font-style="normal">actors</text>
    </g>
    <text x="1123.317" y="468.8797" font-size="14" fill="#000000" fill-opacity="1" font-family="Arial" font-weight="normal" font-style="normal">RemoteMain</text>
    <line x1="855" y1="279" x2="855" y2="747" opacity="1" stroke="#000000" stroke-opacity="1" stroke-width="3" stroke-linecap="butt" stroke-linejoin="miter" stroke-dasharray="24,12,6,12" />
    <rect x="547.1617" y="387.4334" width="198" height="180" opacity="1" stroke="#000000" stroke-opacity="1" stroke-width="1" stroke-linecap="butt" stroke-linejoin="miter" stroke-dasharray="none" fill="#FFFFFF" fill-opacity="1" filter="url(#shadow1)" />
    <rect x="594" y="450" width="126" height="90" opacity="1" stroke="#000000" stroke-opacity="1" stroke-width="1" stroke-linecap="butt" stroke-linejoin="miter" stroke-dasharray="none" fill="#FFFFFF" fill-opacity="1" filter="url(#shadow1)" />
    <rect x="584.5217" y="441.4334" width="126.4782" height="90" opacity="1" stroke="#000000" stroke-opacity="1" stroke-width="1" stroke-linecap="butt" stroke-linejoin="miter" stroke-dasharray="none" fill="#FFFFFF" fill-opacity="1" filter="url(#shadow1)" />
    <line x1="399.1725" y1="423" x2="554.8275" y2="423" marker-start="url(#marker1)" marker-end="url(#marker2)" opacity="1" stroke="#000000" stroke-opacity="1" stroke-width="1" stroke-linecap="butt" stroke-linejoin="miter" stroke-dasharray="none" />
    <g transform="rotate(270 540 426)">
      <path d="M519 417 L524.25 435 L555.75 435 L561 417 Z " opacity="1" stroke="#000000" stroke-opacity="1" stroke-width="1" stroke-linecap="butt" stroke-linejoin="miter" stroke-dasharray="none" fill="#FFFFFF" fill-opacity="1" />
      <text x="527.9932" y="430.8969" font-size="12" fill="#000000" fill-opacity="1" font-family="Arial" font-weight="normal" font-style="normal">listen</text>
    </g>
    <g>
      <rect x="684" y="468" width="402.3877" height="54" opacity="1" fill="#FFFFFF" fill-opacity="1" />
      <ellipse cx="1075.115" cy="495.358" rx="4.470955" ry="17.99997" opacity="1" stroke="#000000" stroke-opacity="1" stroke-width="2" stroke-linecap="butt" stroke-linejoin="miter" stroke-dasharray="none" fill-opacity="0" />
      <g>
        <ellipse cx="695.6385" cy="494.6299" rx="4.470989" ry="18.00002" opacity="1" stroke="#000000" stroke-opacity="1" stroke-width="2" stroke-linecap="butt" stroke-linejoin="miter" stroke-dasharray="none" fill-opacity="0" />
        <path d="M695.8586 476.6081 C698.2943 477.5424 700.1857 484.9918 700.1034 493.9311 C700.0197 503.0342 698.7054 511.9751 695.8586 512.6082" opacity="1" stroke="#BFBFBF" stroke-opacity="1" stroke-width="2" stroke-linecap="butt" stroke-linejoin="miter" stroke-dasharray="none" fill-opacity="0" />
      </g>
      <line x1="695.1772" y1="477" x2="1075.21" y2="477" opacity="1" stroke="#000000" stroke-opacity="1" stroke-width="2" stroke-linecap="butt" stroke-linejoin="miter" stroke-dasharray="none" />
      <line x1="695.1772" y1="512.9999" x2="1075.21" y2="512.9999" opacity="1" stroke="#000000" stroke-opacity="1" stroke-width="2" stroke-linecap="butt" stroke-linejoin="miter" stroke-dasharray="none" />
    </g>
    <text x="900.1445" y="306.3625" font-size="16" fill="#000000" fill-opacity="1" font-family="Arial" font-weight="normal" font-style="normal">untrusted</text>
    <text x="905.4883" y="324.3625" font-size="16" fill="#000000" fill-opacity="1" font-family="Arial" font-weight="normal" font-style="normal">network</text>
    <text x="797.8242" y="453.3797" font-size="14" fill="#000000" fill-opacity="1" font-family="Arial" font-weight="normal" font-style="normal">status</text>
    <line x1="828" y1="459" x2="774.5338" y2="459" marker-end="url(#marker3)" opacity="1" stroke="#000000" stroke-opacity="1" stroke-width="0.7" stroke-linecap="butt" stroke-linejoin="miter" stroke-dasharray="none" />
    <text x="791.9795" y="550.8797" font-size="14" fill="#000000" fill-opacity="1" font-family="Arial" font-weight="normal" font-style="normal">logging/</text>
    <text x="801.7139" y="566.8797" font-size="14" fill="#000000" fill-opacity="1" font-family="Arial" font-weight="normal" font-style="normal">stdio</text>
    <line x1="828" y1="531" x2="774.5338" y2="531" marker-end="url(#marker4)" opacity="1" stroke="#000000" stroke-opacity="1" stroke-width="0.7" stroke-linecap="butt" stroke-linejoin="miter" stroke-dasharray="none" />
    <text x="885.4897" y="453.3797" font-size="14" fill="#000000" fill-opacity="1" font-family="Arial" font-weight="normal" font-style="normal">control</text>
    <line x1="882" y1="459" x2="935.4662" y2="459" marker-end="url(#marker5)" opacity="1" stroke="#000000" stroke-opacity="1" stroke-width="0.7" stroke-linecap="butt" stroke-linejoin="miter" stroke-dasharray="none" />
    <line x1="603" y1="621" x2="603" y2="525.1725" marker-end="url(#marker6)" opacity="1" stroke="#000000" stroke-opacity="1" stroke-width="1" stroke-linecap="butt" stroke-linejoin="miter" stroke-dasharray="none" />
    <text x="575.6831" y="405.8797" font-size="14" fill="#000000" fill-opacity="1" font-family="Arial" font-weight="normal" font-style="normal">RemoteLauncherServer</text>
    <text x="596.3003" y="464.3797" font-size="14" fill="#000000" fill-opacity="1" font-family="Arial" font-weight="normal" font-style="normal">RemoteLauncher</text>
    <text x="459.7656" y="377.5046" font-size="14" fill="#000000" fill-opacity="1" font-family="Arial" font-weight="normal" font-style="normal">session</text>
    <text x="456.6519" y="393.5046" font-size="14" fill="#000000" fill-opacity="1" font-family="Arial" font-weight="normal" font-style="normal">requests</text>
    <line x1="457.7143" y1="405" x2="513.752" y2="405" marker-end="url(#marker7)" opacity="1" stroke="#000000" stroke-opacity="1" stroke-width="0.7" stroke-linecap="butt" stroke-linejoin="miter" stroke-dasharray="none" />
    <text x="468.7656" y="455.3919" font-size="14" fill="#000000" fill-opacity="1" font-family="Arial" font-weight="normal" font-style="normal">session</text>
    <text x="473.8242" y="471.3919" font-size="14" fill="#000000" fill-opacity="1" font-family="Arial" font-weight="normal" font-style="normal">status</text>
    <line x1="450.5338" y1="441" x2="504" y2="441" marker-start="url(#marker8)" opacity="1" stroke="#000000" stroke-opacity="1" stroke-width="0.7" stroke-linecap="butt" stroke-linejoin="miter" stroke-dasharray="none" />
    <text x="881.9829" y="549.8797" font-size="14" fill="#000000" fill-opacity="1" font-family="Arial" font-weight="normal" font-style="normal">gw data</text>
    <line x1="882" y1="531" x2="935.4662" y2="531" marker-end="url(#marker9)" opacity="1" stroke="#000000" stroke-opacity="1" stroke-width="0.7" stroke-linecap="butt" stroke-linejoin="miter" stroke-dasharray="none" />
    <text x="407.269" y="410.3797" font-size="14" fill="#000000" fill-opacity="1" font-family="Arial" font-weight="normal" font-style="normal">SSL</text>
    <rect x="270" y="396" width="117" height="45" opacity="1" stroke="#000000" stroke-opacity="1" stroke-width="1" stroke-linecap="butt" stroke-linejoin="miter" stroke-dasharray="none" fill="#FFFFFF" fill-opacity="1" filter="url(#shadow1)" />
    <text x="276.8003" y="415.8797" font-size="14" fill="#000000" fill-opacity="1" font-family="Arial" font-weight="normal" font-style="normal">RemoteLauncher</text>
    <text x="312.6035" y="431.8797" font-size="14" fill="#000000" fill-opacity="1" font-family="Arial" font-weight="normal" font-style="normal">Client</text>
    <text x="573.8193" y="427.8969" font-size="12" fill="#000000" fill-opacity="1" font-family="Arial" font-weight="normal" font-style="normal">session id</text>
    <path d="M630 423 L666 423 L666 441" opacity="1" stroke="#666666" stroke-opacity="1" stroke-width="1" stroke-linecap="butt" stroke-linejoin="miter" stroke-dasharray="none" fill-opacity="0" />
    <text x="756.043" y="306.3625" font-size="16" fill="#000000" fill-opacity="1" font-family="Arial" font-weight="normal" font-style="normal">trusted</text>
    <text x="752.4883" y="324.3625" font-size="16" fill="#000000" fill-opacity="1" font-family="Arial" font-weight="normal" font-style="normal">network</text>
    <line x1="684" y1="684" x2="684" y2="525.1725" marker-end="url(#marker10)" opacity="1" stroke="#000000" stroke-opacity="1" stroke-width="1" stroke-linecap="butt" stroke-linejoin="miter" stroke-dasharray="none" />
    <rect x="666" y="567" width="36" height="18" opacity="1" stroke="#000000" stroke-opacity="1" stroke-width="1" stroke-linecap="butt" stroke-linejoin="miter" stroke-dasharray="none" fill="#FFFFFF" fill-opacity="1" />
    <text x="678.3301" y="580.8969" font-size="12" fill="#000000" fill-opacity="1" font-family="Arial" font-weight="normal" font-style="normal">gw</text>
    <text x="405.7139" y="446.3797" font-size="14" fill="#000000" fill-opacity="1" font-family="Arial" font-weight="normal" font-style="normal">Json</text>
    <path d="M1143 513 L1143 495 L468 495 L468 509.8275" marker-end="url(#marker11)" opacity="1" stroke="#000000" stroke-opacity="1" stroke-width="1" stroke-linecap="butt" stroke-linejoin="miter" stroke-dasharray="none" fill-opacity="0" />
    <path d="M630 486 L1161 486 L1161 500.8275" marker-end="url(#marker12)" opacity="1" stroke="#000000" stroke-opacity="1" stroke-width="1" stroke-linecap="butt" stroke-linejoin="miter" stroke-dasharray="none" fill-opacity="0" />
    <rect x="1080" y="387" width="144" height="18" opacity="1" fill="#FFFFFF" fill-opacity="0.34" />
    <text x="1097.983" y="401.3797" font-size="14" fill="#000000" fill-opacity="1" font-family="Arial" font-weight="normal" font-style="normal">RaceActorSystem</text>
    <text x="1180.321" y="500.3797" font-size="14" fill="#000000" fill-opacity="1" font-family="Arial" font-weight="normal" font-style="normal">config</text>
    <rect x="597.8829" y="489.0638" width="9.829671" height="18" opacity="1" fill="#FFFFFF" fill-opacity="0.91" />
    <path d="M603 513 L603 486 L648 486" opacity="1" stroke="#000000" stroke-opacity="1" stroke-width="1" stroke-linecap="butt" stroke-linejoin="miter" stroke-dasharray="none" fill-opacity="0" />
    <g>
      <path d="M567 628.875 L567 676.125 Q574.875 684 598.5 684 Q622.125 684 630 676.125 L630 628.875 Z " opacity="1" stroke="#000000" stroke-opacity="1" stroke-width="1" stroke-linecap="butt" stroke-linejoin="miter" stroke-dasharray="none" fill="#FFFFFF" fill-opacity="1" filter="url(#shadow1)" />
      <text x="578.8203" y="662.0586" font-size="15" fill="#000000" fill-opacity="1" font-family="Arial" font-weight="normal" font-style="normal">Config</text>
      <ellipse cx="598.5" cy="628.875" rx="31.5" ry="7.875" opacity="1" stroke="#000000" stroke-opacity="1" stroke-width="1" stroke-linecap="butt" stroke-linejoin="miter" stroke-dasharray="none" fill="#FFFFFF" fill-opacity="1" />
    </g>
    <g>
      <path d="M441 528.75 L441 569.25 Q447.75 576 468 576 Q488.25 576 495 569.25 L495 528.75 Z " opacity="1" stroke="#000000" stroke-opacity="1" stroke-width="1" stroke-linecap="butt" stroke-linejoin="miter" stroke-dasharray="none" fill="#FFFFFF" fill-opacity="1" filter="url(#shadow1)" />
      <text x="446.2656" y="549.7547" font-size="14" fill="#000000" fill-opacity="1" font-family="Arial" font-weight="normal" font-style="normal">session</text>
      <text x="460.6587" y="565.7547" font-size="14" fill="#000000" fill-opacity="1" font-family="Arial" font-weight="normal" font-style="normal">log</text>
      <ellipse cx="468" cy="528.75" rx="27" ry="6.75" opacity="1" stroke="#000000" stroke-opacity="1" stroke-width="1" stroke-linecap="butt" stroke-linejoin="miter" stroke-dasharray="none" fill="#FFFFFF" fill-opacity="1" />
    </g>
    <g transform="rotate(90 1089 589.7308)">
      <rect x="1084.475" y="482.9776" width="9" height="213.5625" opacity="1" stroke="#000000" stroke-opacity="1" stroke-width="1" stroke-linecap="butt" stroke-linejoin="miter" stroke-dasharray="none" fill="url(#gradient1)" />
      <ellipse cx="1088.978" cy="482.8113" rx="4.51552" ry="1.080437" opacity="1" stroke="#000000" stroke-opacity="1" stroke-width="1" stroke-linecap="butt" stroke-linejoin="miter" stroke-dasharray="none" fill="#FFFFFF" fill-opacity="1" />
      <ellipse cx="1089.022" cy="696.6506" rx="4.515451" ry="1.080299" opacity="1" stroke="#000000" stroke-opacity="1" stroke-width="1" stroke-linecap="butt" stroke-linejoin="miter" stroke-dasharray="none" fill="#FFFFFF" fill-opacity="1" />
      <rect x="1085.01" y="694.2222" width="7.967282" height="2.360481" opacity="1" fill="url(#gradient2)" />
    </g>
    <g>
      <path d="M1129.539 728.4406 L1131.158 728.4312 L1132.756 728.4053 L1134.33 728.3628 L1135.88 728.3037 L1137.402 728.2296 L1138.894 728.1382 L1140.357 728.0331 L1141.785 727.9135 L1143.178 727.7796 L1144.535 727.6313 L1145.852 727.47 L1147.128 727.2958 L1148.363 727.1093 L1149.551 726.9099 L1150.692 726.6989 L1151.785 726.4771 L1152.827 726.2439 L1153.816 726.0005 L1154.75 725.747 L1155.627 725.485 L1156.446 725.2128 L1157.203 724.9319 L1157.897 724.6426 L1158.528 724.3445 L1159.091 724.0414 L1159.586 723.7289 L1160.011 723.4114 L1160.361 723.0866 L1160.637 722.7554 L1160.838 722.4199 L1160.96 722.0786 L1161 721.7338 C1161 718.0284 1146.913 715.0273 1129.539 715.0273 C1112.167 715.0273 1098.084 718.0284 1098.084 721.7338 C1098.084 725.4388 1112.167 728.4406 1129.539 728.4406 Z " opacity="1" fill="#9B9B9B" fill-opacity="1" />
      <path d="M1129.539 728.4406 L1131.158 728.4312 L1132.756 728.4053 L1134.33 728.3628 L1135.88 728.3037 L1137.402 728.2296 L1138.894 728.1382 L1140.357 728.0331 L1141.785 727.9135 L1143.178 727.7796 L1144.535 727.6313 L1145.852 727.47 L1147.128 727.2958 L1148.363 727.1093 L1149.551 726.9099 L1150.692 726.6989 L1151.785 726.4771 L1152.827 726.2439 L1153.816 726.0005 L1154.75 725.747 L1155.627 725.485 L1156.446 725.2128 L1157.203 724.9319 L1157.897 724.6426 L1158.528 724.3445 L1159.091 724.0414 L1159.586 723.7289 L1160.011 723.4114 L1160.361 723.0866 L1160.637 722.7554 L1160.838 722.4199 L1160.96 722.0786 L1161 721.7338 C1161 718.0284 1146.913 715.0273 1129.539 715.0273 C1112.167 715.0273 1098.084 718.0284 1098.084 721.7338 C1098.084 725.4388 1112.167 728.4406 1129.539 728.4406 Z " opacity="1" stroke="#FFFFFF" stroke-opacity="1" stroke-width="0.14999" stroke-linecap="butt" stroke-linejoin="miter" stroke-dasharray="none" fill-opacity="0" />
      <path d="M1129.707 740.2104 L1131.327 740.168 L1132.923 740.0441 L1134.495 739.8425 L1136.041 739.5682 L1137.56 739.2269 L1139.048 738.8237 L1140.504 738.36 L1141.927 737.8438 L1143.315 737.2793 L1144.664 736.6723 L1145.975 736.0243 L1147.244 735.3411 L1148.471 734.629 L1149.651 733.8931 L1150.785 733.135 L1151.869 732.361 L1152.903 731.5784 L1153.884 730.7885 L1154.811 729.9965 L1155.68 729.2081 L1156.491 728.4283 L1157.242 727.6615 L1157.93 726.912 L1158.554 726.1848 L1159.111 725.4835 L1159.602 724.8154 L1160.021 724.1825 L1160.369 723.592 L1160.641 723.0471 L1160.839 722.5517 L1160.96 722.1132 L1161 721.7338 C1161 718.0284 1146.913 715.0273 1129.539 715.0273 C1112.167 715.0273 1098.084 718.0284 1098.084 721.7338 C1098.084 725.4388 1112.335 740.2104 1129.707 740.2104 Z " opacity="1" fill="#9B9B9B" fill-opacity="1" />
      <path d="M1129.539 728.4406 L1131.158 728.4312 L1132.756 728.4053 L1134.33 728.3628 L1135.88 728.3037 L1137.402 728.2296 L1138.894 728.1382 L1140.357 728.0331 L1141.785 727.9135 L1143.178 727.7796 L1144.535 727.6313 L1145.852 727.47 L1147.128 727.2958 L1148.363 727.1093 L1149.551 726.9099 L1150.692 726.6989 L1151.785 726.4771 L1152.827 726.2439 L1153.816 726.0005 L1154.75 725.747 L1155.627 725.485 L1156.446 725.2128 L1157.203 724.9319 L1157.897 724.6426 L1158.528 724.3445 L1159.091 724.0414 L1159.586 723.7289 L1160.011 723.4114 L1160.361 723.0866 L1160.637 722.7554 L1160.838 722.4199 L1160.96 722.0786 L1161 721.7338 C1161 718.0284 1146.913 715.0273 1129.539 715.0273 C1112.167 715.0273 1098.084 718.0284 1098.084 721.7338 C1098.084 725.4388 1112.167 728.4406 1129.539 728.4406 Z " opacity="1" fill="#9B9B9B" fill-opacity="1" />
      <path d="M1129.539 728.4406 L1131.158 728.4312 L1132.756 728.4053 L1134.33 728.3628 L1135.88 728.3037 L1137.402 728.2296 L1138.894 728.1382 L1140.357 728.0331 L1141.785 727.9135 L1143.178 727.7796 L1144.535 727.6313 L1145.852 727.47 L1147.128 727.2958 L1148.363 727.1093 L1149.551 726.9099 L1150.692 726.6989 L1151.785 726.4771 L1152.827 726.2439 L1153.816 726.0005 L1154.75 725.747 L1155.627 725.485 L1156.446 725.2128 L1157.203 724.9319 L1157.897 724.6426 L1158.528 724.3445 L1159.091 724.0414 L1159.586 723.7289 L1160.011 723.4114 L1160.361 723.0866 L1160.637 722.7554 L1160.838 722.4199 L1160.96 722.0786 L1161 721.7338 C1161 718.0284 1146.913 715.0273 1129.539 715.0273 C1112.167 715.0273 1098.084 718.0284 1098.084 721.7338 C1098.084 725.4388 1112.167 728.4406 1129.539 728.4406 Z " opacity="1" stroke="#FFFFFF" stroke-opacity="1" stroke-width="0.39999" stroke-linecap="butt" stroke-linejoin="miter" stroke-dasharray="none" fill-opacity="0" />
      <path d="M1121.361 716.7108 C1116.4 717.0495 1111.992 717.7018 1108.554 718.5674" opacity="1" stroke="#FFFFFF" stroke-opacity="1" stroke-width="0.375" stroke-linecap="butt" stroke-linejoin="miter" stroke-dasharray="none" fill-opacity="0" />
      <path d="M1121.698 718.1105 C1116.88 718.5082 1112.667 719.232 1109.48 720.1807" opacity="1" stroke="#FFFFFF" stroke-opacity="1" stroke-width="0.375" stroke-linecap="butt" stroke-linejoin="miter" stroke-dasharray="none" fill-opacity="0" />
      <path d="M1122.041 719.6165 C1117.328 720.0792 1113.267 720.8914 1110.334 721.936" opacity="1" stroke="#FFFFFF" stroke-opacity="1" stroke-width="0.375" stroke-linecap="butt" stroke-linejoin="miter" stroke-dasharray="none" fill-opacity="0" />
      <path d="M1122.72 721.3723 C1118.118 721.8763 1114.194 722.7482 1111.465 723.8679" opacity="1" stroke="#FFFFFF" stroke-opacity="1" stroke-width="0.375" stroke-linecap="butt" stroke-linejoin="miter" stroke-dasharray="none" fill-opacity="0" />
      <path d="M1123.047 723.0089 C1118.681 723.5719 1115.032 724.5209 1112.598 725.7067" opacity="1" stroke="#FFFFFF" stroke-opacity="1" stroke-width="0.375" stroke-linecap="butt" stroke-linejoin="miter" stroke-dasharray="none" fill-opacity="0" />
      <path d="M1123.641 724.9414 C1120.176 725.4756 1117.237 726.2755 1115.126 727.2604" opacity="1" stroke="#FFFFFF" stroke-opacity="1" stroke-width="0.375" stroke-linecap="butt" stroke-linejoin="miter" stroke-dasharray="none" fill-opacity="0" />
      <path d="M1123.842 726.7392 C1122.446 727.0222 1121.162 727.3606 1120.013 727.7407" opacity="1" stroke="#FFFFFF" stroke-opacity="1" stroke-width="0.375" stroke-linecap="butt" stroke-linejoin="miter" stroke-dasharray="none" fill-opacity="0" />
      <path d="M1098 722.3746 L1129.707 704.4665 L1161 721.7338" opacity="1" stroke="#8E8E8E" stroke-opacity="1" stroke-width="0.39999" stroke-linecap="butt" stroke-linejoin="miter" stroke-dasharray="none" fill-opacity="0" />
      <path d="M1129.877 708.9965 L1129.987 708.9948 L1130.096 708.9902 L1130.204 708.9827 L1130.309 708.9723 L1130.413 708.9585 L1130.515 708.9431 L1130.615 708.9235 L1130.712 708.9022 L1130.808 708.8781 L1130.9 708.8505 L1130.99 708.8218 L1131.078 708.7913 L1131.161 708.7567 L1131.243 708.7217 L1131.32 708.6838 L1131.396 708.6429 L1131.467 708.6016 L1131.535 708.5579 L1131.598 708.512 L1131.659 708.4653 L1131.714 708.4149 L1131.765 708.3648 L1131.813 708.3131 L1131.857 708.2585 L1131.895 708.2039 L1131.928 708.148 L1131.957 708.0901 L1131.982 708.0309 L1132.001 707.9717 L1132.014 707.9112 L1132.022 707.8503 L1132.025 707.7866 C1132.025 707.1232 1131.061 706.5782 1129.877 706.5782 C1128.691 706.5782 1127.734 707.1232 1127.734 707.7866 C1127.734 708.4573 1128.691 708.9965 1129.877 708.9965 Z " opacity="1" fill="#9B9B9B" fill-opacity="1" />
      <path d="M1129.877 702 L1129.202 726.8572 L1130.719 726.8572 Z " opacity="1" fill="#9B9B9B" fill-opacity="1" />
      <path d="M1138.134 744.5038 L1138.134 740.5193 L1122.967 740.5193 L1122.967 744.5038 Z " opacity="1" fill="#9B9B9B" fill-opacity="1" />
      <path d="M1125.832 744.1243 L1135.437 744.1243 L1135.437 751.3344 C1135.437 751.3344 1125.663 754.7501 1125.832 754.7501 C1126 754.7501 1125.832 744.1243 1125.832 744.1243 Z " opacity="1" fill="#9B9B9B" fill-opacity="1" />
    </g>
    <g>
      <g>
        <path d="M1269 714.3798 L1269 716.8297 L1248.041 725.9105 L1238.487 723.9644 L1232.759 722.6525 L1228.825 721.6877 L1228.727 718.5676" opacity="1" fill="#9B9B9B" fill-opacity="1" />
        <path d="M1269 714.3798 L1269 716.8297 L1248.041 725.9105 L1238.487 723.9644 L1232.759 722.6525 L1228.825 721.6877 L1228.727 718.5676" opacity="1" stroke="#FFFFFF" stroke-opacity="1" stroke-width="0.39999" stroke-linecap="butt" stroke-linejoin="miter" stroke-dasharray="none" fill-opacity="0" />
        <path d="M1220.046 750.3048 L1220.293 750.3012 L1220.539 750.2919 L1220.78 750.276 L1221.016 750.2537 L1221.251 750.2263 L1221.479 750.1925 L1221.702 750.1536 L1221.921 750.1082 L1222.135 750.0586 L1222.343 750.0038 L1222.543 749.9434 L1222.741 749.8785 L1222.929 749.8094 L1223.111 749.7352 L1223.286 749.6567 L1223.453 749.574 L1223.613 749.4875 L1223.765 749.3969 L1223.907 749.3026 L1224.042 749.2054 L1224.168 749.1038 L1224.284 748.9995 L1224.389 748.8922 L1224.487 748.7813 L1224.572 748.6683 L1224.649 748.5523 L1224.713 748.4343 L1224.768 748.3133 L1224.81 748.1909 L1224.841 748.0663 L1224.86 747.9396 L1224.866 747.8114 C1224.866 746.4348 1222.706 745.3181 1220.046 745.3181 C1217.387 745.3181 1215.228 746.4348 1215.228 747.8114 C1215.228 749.1874 1217.387 750.3048 1220.046 750.3048 Z " opacity="1" fill="#9B9B9B" fill-opacity="1" />
        <path d="M1220.046 750.3048 L1220.293 750.3012 L1220.539 750.2919 L1220.78 750.276 L1221.016 750.2537 L1221.251 750.2263 L1221.479 750.1925 L1221.702 750.1536 L1221.921 750.1082 L1222.135 750.0586 L1222.343 750.0038 L1222.543 749.9434 L1222.741 749.8785 L1222.929 749.8094 L1223.111 749.7352 L1223.286 749.6567 L1223.453 749.574 L1223.613 749.4875 L1223.765 749.3969 L1223.907 749.3026 L1224.042 749.2054 L1224.168 749.1038 L1224.284 748.9995 L1224.389 748.8922 L1224.487 748.7813 L1224.572 748.6683 L1224.649 748.5523 L1224.713 748.4343 L1224.768 748.3133 L1224.81 748.1909 L1224.841 748.0663 L1224.86 747.9396 L1224.866 747.8114 C1224.866 746.4348 1222.706 745.3181 1220.046 745.3181 C1217.387 745.3181 1215.228 746.4348 1215.228 747.8114 C1215.228 749.1874 1217.387 750.3048 1220.046 750.3048 Z " opacity="1" stroke="#FFFFFF" stroke-opacity="1" stroke-width="0.39999" stroke-linecap="butt" stroke-linejoin="miter" stroke-dasharray="none" fill-opacity="0" />
        <path d="M1239.072 721.003 L1248.095 722.6964 L1269 714.3798 L1250.736 711 L1228.727 718.5676 L1235.053 719.8428" opacity="1" fill="#9B9B9B" fill-opacity="1" />
        <path d="M1239.072 721.003 L1248.095 722.6964 L1269 714.3798 L1250.736 711 L1228.727 718.5676 L1235.053 719.8428" opacity="1" stroke="#FFFFFF" stroke-opacity="1" stroke-width="0.39999" stroke-linecap="butt" stroke-linejoin="miter" stroke-dasharray="none" fill-opacity="0" />
        <path d="M1237.548 721.4421 L1237.848 721.3514 L1238.141 721.2593 L1238.43 721.1693 L1238.707 721.0771 L1238.978 720.9864 L1239.244 720.8956 L1239.502 720.8057 L1239.754 720.7172 L1239.998 720.6264 L1240.236 720.5378 L1240.467 720.4493 L1240.692 720.3629 L1240.909 720.2743 L1241.122 720.1872 L1241.526 720.018 L1241.907 719.85 L1242.263 719.6837 L1242.597 719.5236 L1242.908 719.3665 L1243.198 719.2134 L1243.467 719.0657 L1243.715 718.9237 L1243.943 718.7854 L1244.152 718.6543 L1244.345 718.5289 L1244.518 718.4091 L1244.674 718.2963 L1244.813 718.1912 L1244.938 718.0934 L1245.047 718.0033 L1245.143 717.9202 L1245.224 717.8464 L1245.293 717.7819 L1245.349 717.7263 L1245.393 717.6785 L1245.425 717.6414 L1245.449 717.6155 L1245.461 717.5991 L1245.466 717.5936 C1243.27 716.341 1235.418 719.706 1235.418 719.706 L1234.028 720.2671 Z " opacity="1" fill="#9B9B9B" fill-opacity="1" />
        <path d="M1237.548 721.4421 L1237.848 721.3514 L1238.141 721.2593 L1238.43 721.1693 L1238.707 721.0771 L1238.978 720.9864 L1239.244 720.8956 L1239.502 720.8057 L1239.754 720.7172 L1239.998 720.6264 L1240.236 720.5378 L1240.467 720.4493 L1240.692 720.3629 L1240.909 720.2743 L1241.122 720.1872 L1241.526 720.018 L1241.907 719.85 L1242.263 719.6837 L1242.597 719.5236 L1242.908 719.3665 L1243.198 719.2134 L1243.467 719.0657 L1243.715 718.9237 L1243.943 718.7854 L1244.152 718.6543 L1244.345 718.5289 L1244.518 718.4091 L1244.674 718.2963 L1244.813 718.1912 L1244.938 718.0934 L1245.047 718.0033 L1245.143 717.9202 L1245.224 717.8464 L1245.293 717.7819 L1245.349 717.7263 L1245.393 717.6785 L1245.425 717.6414 L1245.449 717.6155 L1245.461 717.5991 L1245.466 717.5936 C1243.27 716.341 1235.418 719.706 1235.418 719.706 L1234.028 720.2671 Z " opacity="1" stroke="#FFFFFF" stroke-opacity="1" stroke-width="0.39999" stroke-linecap="butt" stroke-linejoin="miter" stroke-dasharray="none" fill-opacity="0" />
        <path d="M1235.053 719.8428 L1228.727 718.5382 L1250.736 711 L1269 714.3798 L1248.095 722.6964 L1238.97 721.0454 C1244.197 719.5472 1245.405 717.5936 1245.405 717.5936 C1243.209 716.341 1236.346 719.339 1236.346 719.339 L1236.322 719.3885 L1229.971 721.6805 L1229.971 725.809 L1238.256 722.4803 L1238.348 722.4365 C1238.348 722.4365 1238.732 721.3997 1238.732 721.0454" opacity="1" fill="#9B9B9B" fill-opacity="1" />
        <path d="M1235.053 719.8428 L1228.727 718.5382 L1250.736 711 L1269 714.3798 L1248.095 722.6964 L1238.97 721.0454 C1244.197 719.5472 1245.405 717.5936 1245.405 717.5936 C1243.209 716.341 1236.346 719.339 1236.346 719.339 L1236.322 719.3885 L1229.971 721.6805 L1229.971 725.809 L1238.256 722.4803 L1238.348 722.4365 C1238.348 722.4365 1238.732 721.3997 1238.732 721.0454" opacity="1" stroke="#FFFFFF" stroke-opacity="1" stroke-width="0.39999" stroke-linecap="butt" stroke-linejoin="miter" stroke-dasharray="none" fill-opacity="0" />
        <path d="M1238.28 721.0102 L1238.286 721.0102 L1238.291 721.0123 L1238.298 721.0123 L1238.303 721.0102 L1238.309 721.0102 L1238.315 721.0087 L1238.322 721.0051 L1238.327 721.003 L1238.332 720.9993 L1238.339 720.9958 L1238.345 720.9921 L1238.351 720.9864 L1238.355 720.9828 L1238.362 720.9771 L1238.366 720.9698 L1238.373 720.9641 L1238.377 720.9569 L1238.382 720.9497 L1238.387 720.9425 L1238.391 720.9346 L1238.396 720.926 L1238.401 720.918 L1238.406 720.9086 L1238.409 720.9 L1238.414 720.8906 L1238.417 720.8791 L1238.419 720.8705 L1238.422 720.859 L1238.426 720.8481 L1238.43 720.8388 L1238.43 720.8258 L1238.432 720.8151 C1238.451 720.6926 1238.409 720.5839 1238.342 720.5709 C1238.28 720.5565 1238.214 720.6429 1238.195 720.7646 C1238.176 720.887 1238.214 720.9958 1238.28 721.0102 Z " opacity="1" fill="#9B9B9B" fill-opacity="1" />
        <path d="M1238.28 721.0102 L1238.286 721.0102 L1238.291 721.0123 L1238.298 721.0123 L1238.303 721.0102 L1238.309 721.0102 L1238.315 721.0087 L1238.322 721.0051 L1238.327 721.003 L1238.332 720.9993 L1238.339 720.9958 L1238.345 720.9921 L1238.351 720.9864 L1238.355 720.9828 L1238.362 720.9771 L1238.366 720.9698 L1238.373 720.9641 L1238.377 720.9569 L1238.382 720.9497 L1238.387 720.9425 L1238.391 720.9346 L1238.396 720.926 L1238.401 720.918 L1238.406 720.9086 L1238.409 720.9 L1238.414 720.8906 L1238.417 720.8791 L1238.419 720.8705 L1238.422 720.859 L1238.426 720.8481 L1238.43 720.8388 L1238.43 720.8258 L1238.432 720.8151 C1238.451 720.6926 1238.409 720.5839 1238.342 720.5709 C1238.28 720.5565 1238.214 720.6429 1238.195 720.7646 C1238.176 720.887 1238.214 720.9958 1238.28 721.0102 Z " opacity="1" stroke="#FFFFFF" stroke-opacity="1" stroke-width="0.39999" stroke-linecap="butt" stroke-linejoin="miter" stroke-dasharray="none" fill-opacity="0" />
        <path d="M1210.054 711.5701 L1210.054 742.2552 C1210.054 745.0941 1214.513 747.4003 1220.016 747.4003 C1225.518 747.4003 1229.977 745.0941 1229.977 742.2552 L1229.977 711.3099" opacity="1" fill="#9B9B9B" fill-opacity="1" />
        <path d="M1210.054 711.5701 L1210.054 742.2552 C1210.054 745.0941 1214.513 747.4003 1220.016 747.4003 C1225.518 747.4003 1229.977 745.0941 1229.977 742.2552 L1229.977 711.3099" opacity="1" stroke="#FFFFFF" stroke-opacity="1" stroke-width="0.39999" stroke-linecap="butt" stroke-linejoin="miter" stroke-dasharray="none" fill-opacity="0" />
        <path d="M1211.195 735.8335 L1211.195 738.63 L1189.301 747.7899 L1170.042 742.5216 L1170 739.2139" opacity="1" fill="#9B9B9B" fill-opacity="1" />
        <path d="M1211.195 735.8335 L1211.195 738.63 L1189.301 747.7899 L1170.042 742.5216 L1170 739.2139" opacity="1" stroke="#FFFFFF" stroke-opacity="1" stroke-width="0.39999" stroke-linecap="butt" stroke-linejoin="miter" stroke-dasharray="none" fill-opacity="0" />
        <path d="M1204.155 734.652 L1211.195 735.8335 L1189.301 744.4094 L1170.042 739.1419 L1192.986 731.5388 L1198.257 732.605" opacity="1" fill="#9B9B9B" fill-opacity="1" />
        <path d="M1204.155 734.652 L1211.195 735.8335 L1189.301 744.4094 L1170.042 739.1419 L1192.986 731.5388 L1198.257 732.605" opacity="1" stroke="#FFFFFF" stroke-opacity="1" stroke-width="0.39999" stroke-linecap="butt" stroke-linejoin="miter" stroke-dasharray="none" fill-opacity="0" />
        <path d="M1198.146 732.5474 L1197.701 732.6857 L1197.274 732.8311 L1196.864 732.983 L1196.472 733.1414 L1196.097 733.3049 L1195.739 733.4734 L1195.398 733.6448 L1195.071 733.8197 L1194.762 733.9961 L1194.47 734.1746 L1194.191 734.3532 L1193.93 734.5317 L1193.683 734.7089 L1193.45 734.8839 L1193.233 735.0574 L1193.03 735.2266 L1192.841 735.3922 L1192.666 735.5527 L1192.505 735.7068 L1192.357 735.8551 L1192.223 735.9962 L1192.101 736.128 L1191.993 736.2526 L1191.897 736.3663 L1191.812 736.47 L1191.74 736.5621 L1191.679 736.6421 L1191.631 736.7098 L1191.594 736.7638 L1191.567 736.8034 L1191.551 736.8278 L1191.547 736.8358 C1198.849 737.0878 1204.075 734.6088 1204.075 734.6088" opacity="1" fill="#9B9B9B" fill-opacity="1" />
        <path d="M1198.146 732.5474 L1197.701 732.6857 L1197.274 732.8311 L1196.864 732.983 L1196.472 733.1414 L1196.097 733.3049 L1195.739 733.4734 L1195.398 733.6448 L1195.071 733.8197 L1194.762 733.9961 L1194.47 734.1746 L1194.191 734.3532 L1193.93 734.5317 L1193.683 734.7089 L1193.45 734.8839 L1193.233 735.0574 L1193.03 735.2266 L1192.841 735.3922 L1192.666 735.5527 L1192.505 735.7068 L1192.357 735.8551 L1192.223 735.9962 L1192.101 736.128 L1191.993 736.2526 L1191.897 736.3663 L1191.812 736.47 L1191.74 736.5621 L1191.679 736.6421 L1191.631 736.7098 L1191.594 736.7638 L1191.567 736.8034 L1191.551 736.8278 L1191.547 736.8358 C1198.849 737.0878 1204.075 734.6088 1204.075 734.6088" opacity="1" stroke="#FFFFFF" stroke-opacity="1" stroke-width="0.39999" stroke-linecap="butt" stroke-linejoin="miter" stroke-dasharray="none" fill-opacity="0" />
        <path d="M1197.762 732.6921 L1213.88 727.1431 C1216.191 727.272 1215.893 729.4838 1215.893 729.4838 C1216.002 730.9116 1214.166 731.5315 1214.166 731.5315 L1203.637 734.7672" opacity="1" fill="#9B9B9B" fill-opacity="1" />
        <path d="M1197.762 732.6921 L1213.88 727.1431 C1216.191 727.272 1215.893 729.4838 1215.893 729.4838 C1216.002 730.9116 1214.166 731.5315 1214.166 731.5315 L1203.637 734.7672" opacity="1" stroke="#FFFFFF" stroke-opacity="1" stroke-width="0.39999" stroke-linecap="butt" stroke-linejoin="miter" stroke-dasharray="none" fill-opacity="0" />
        <path d="M1203.387 734.796 L1203.399 734.796 L1203.412 734.7953 L1203.425 734.7946 L1203.435 734.7931 L1203.448 734.7916 L1203.458 734.7896 L1203.47 734.7874 L1203.481 734.7852 L1203.492 734.7816 L1203.502 734.7787 L1203.513 734.7751 L1203.522 734.7715 L1203.532 734.7672 L1203.541 734.7629 L1203.551 734.7585 L1203.558 734.7542 L1203.566 734.7492 L1203.574 734.7435 L1203.582 734.7384 L1203.589 734.7327 L1203.594 734.7261 L1203.601 734.7204 L1203.607 734.7146 L1203.612 734.7081 L1203.615 734.7017 L1203.62 734.6952 L1203.623 734.688 L1203.626 734.6808 L1203.628 734.6736 L1203.629 734.6671 L1203.63 734.6592 L1203.63 734.652 C1203.63 734.5728 1203.521 734.5152 1203.387 734.5152 C1203.252 734.5152 1203.148 734.5728 1203.148 734.652 C1203.148 734.7312 1203.252 734.796 1203.387 734.796 Z " opacity="1" fill="#9B9B9B" fill-opacity="1" />
        <path d="M1203.387 734.796 L1203.399 734.796 L1203.412 734.7953 L1203.425 734.7946 L1203.435 734.7931 L1203.448 734.7916 L1203.458 734.7896 L1203.47 734.7874 L1203.481 734.7852 L1203.492 734.7816 L1203.502 734.7787 L1203.513 734.7751 L1203.522 734.7715 L1203.532 734.7672 L1203.541 734.7629 L1203.551 734.7585 L1203.558 734.7542 L1203.566 734.7492 L1203.574 734.7435 L1203.582 734.7384 L1203.589 734.7327 L1203.594 734.7261 L1203.601 734.7204 L1203.607 734.7146 L1203.612 734.7081 L1203.615 734.7017 L1203.62 734.6952 L1203.623 734.688 L1203.626 734.6808 L1203.628 734.6736 L1203.629 734.6671 L1203.63 734.6592 L1203.63 734.652 C1203.63 734.5728 1203.521 734.5152 1203.387 734.5152 C1203.252 734.5152 1203.148 734.5728 1203.148 734.652 C1203.148 734.7312 1203.252 734.796 1203.387 734.796 Z " opacity="1" stroke="#FFFFFF" stroke-opacity="1" stroke-width="0.39999" stroke-linecap="butt" stroke-linejoin="miter" stroke-dasharray="none" fill-opacity="0" />
      </g>
    </g>
    <line x1="1161" y1="648" x2="1146.344" y2="699.2958" marker-end="url(#marker13)" opacity="1" stroke="#000000" stroke-opacity="1" stroke-width="1" stroke-linecap="butt" stroke-linejoin="miter" stroke-dasharray="none" />
    <line x1="1184.444" y1="658.8875" x2="1206" y2="702" marker-start="url(#marker14)" opacity="1" stroke="#000000" stroke-opacity="1" stroke-width="1" stroke-linecap="butt" stroke-linejoin="miter" stroke-dasharray="none" />
    <g>
      <g>
        <path d="M693.4449 699.7876 L666.6566 699.7876 L666.6566 747 L693.4449 747" opacity="1" fill="#9B9B9B" fill-opacity="1" />
        <path d="M693.4449 699.7876 L666.6566 699.7876 L666.6566 747 L693.4449 747" opacity="1" stroke="#FFFFFF" stroke-opacity="1" stroke-width="0.4" stroke-linecap="butt" stroke-linejoin="miter" stroke-dasharray="none" fill-opacity="0" />
        <path d="M693.4449 747 L702 740.2126 L702 693 L675.2117 693 L666.6566 699.7876 L693.4449 699.7876 Z " opacity="1" fill="#9B9B9B" fill-opacity="1" />
        <path d="M693.4449 747 L702 740.2126 L702 693 L675.2117 693 L666.6566 699.7876 L693.4449 699.7876 Z " opacity="1" stroke="#FFFFFF" stroke-opacity="1" stroke-width="0.4" stroke-linecap="butt" stroke-linejoin="miter" stroke-dasharray="none" fill-opacity="0" />
        <line x1="693.4449" y1="699.7876" x2="702" y2="693" opacity="1" stroke="#026C9B" stroke-opacity="1" stroke-width="0" stroke-linecap="butt" stroke-linejoin="miter" stroke-dasharray="none" />
        <line x1="693.4449" y1="699.7876" x2="702" y2="693" opacity="1" stroke="#FFFFFF" stroke-opacity="1" stroke-width="0.4" stroke-linecap="butt" stroke-linejoin="miter" stroke-dasharray="none" />
        <path d="M682.4678 721.3817 L682.4678 719.8275 L668.9758 719.8275 L668.9758 721.3817 Z " opacity="1" fill="#9B9B9B" fill-opacity="1" />
        <path d="M668.9758 721.3817 L682.4678 721.3817 L682.4678 719.8275 L668.9758 719.8275 Z " opacity="1" stroke="#FFFFFF" stroke-opacity="1" stroke-width="0.4" stroke-linecap="butt" stroke-linejoin="miter" stroke-dasharray="none" fill-opacity="0" />
        <path d="M682.4678 724.6029 L682.4678 723.0492 L668.9758 723.0492 L668.9758 724.6029 Z " opacity="1" fill="#9B9B9B" fill-opacity="1" />
        <path d="M668.9758 724.6029 L682.4678 724.6029 L682.4678 723.0492 L668.9758 723.0492 Z " opacity="1" stroke="#FFFFFF" stroke-opacity="1" stroke-width="0.4" stroke-linecap="butt" stroke-linejoin="miter" stroke-dasharray="none" fill-opacity="0" />
        <path d="M682.4678 727.83 L682.4678 726.2755 L668.9758 726.2755 L668.9758 727.83 Z " opacity="1" fill="#9B9B9B" fill-opacity="1" />
        <path d="M668.9758 727.83 L682.4678 727.83 L682.4678 726.2755 L668.9758 726.2755 Z " opacity="1" stroke="#FFFFFF" stroke-opacity="1" stroke-width="0.4" stroke-linecap="butt" stroke-linejoin="miter" stroke-dasharray="none" fill-opacity="0" />
        <path d="M682.4678 731.0505 L682.4678 729.4968 L668.9758 729.4968 L668.9758 731.0505 Z " opacity="1" fill="#9B9B9B" fill-opacity="1" />
        <path d="M668.9758 731.0505 L682.4678 731.0505 L682.4678 729.4968 L668.9758 729.4968 Z " opacity="1" stroke="#FFFFFF" stroke-opacity="1" stroke-width="0.4" stroke-linecap="butt" stroke-linejoin="miter" stroke-dasharray="none" fill-opacity="0" />
        <path d="M682.4678 734.2711 L682.4678 732.718 L668.9758 732.718 L668.9758 734.2711 Z " opacity="1" fill="#9B9B9B" fill-opacity="1" />
        <path d="M668.9758 734.2711 L682.4678 734.2711 L682.4678 732.718 L668.9758 732.718 Z " opacity="1" stroke="#FFFFFF" stroke-opacity="1" stroke-width="0.4" stroke-linecap="butt" stroke-linejoin="miter" stroke-dasharray="none" fill-opacity="0" />
        <path d="M682.4678 737.4931 L682.4678 735.9394 L668.9758 735.9394 L668.9758 737.4931 Z " opacity="1" fill="#9B9B9B" fill-opacity="1" />
        <path d="M668.9758 737.4931 L682.4678 737.4931 L682.4678 735.9394 L668.9758 735.9394 Z " opacity="1" stroke="#FFFFFF" stroke-opacity="1" stroke-width="0.4" stroke-linecap="butt" stroke-linejoin="miter" stroke-dasharray="none" fill-opacity="0" />
        <path d="M682.4678 740.7195 L682.4678 739.1656 L668.9758 739.1656 L668.9758 740.7195 Z " opacity="1" fill="#9B9B9B" fill-opacity="1" />
        <path d="M668.9758 740.7195 L682.4678 740.7195 L682.4678 739.1656 L668.9758 739.1656 Z " opacity="1" stroke="#FFFFFF" stroke-opacity="1" stroke-width="0.4" stroke-linecap="butt" stroke-linejoin="miter" stroke-dasharray="none" fill-opacity="0" />
        <path d="M682.4678 743.9357 L682.4678 742.3812 L668.9758 742.3812 L668.9758 743.9357 Z " opacity="1" fill="#9B9B9B" fill-opacity="1" />
        <path d="M668.9758 743.9357 L682.4678 743.9357 L682.4678 742.3812 L668.9758 742.3812 Z " opacity="1" stroke="#FFFFFF" stroke-opacity="1" stroke-width="0.4" stroke-linecap="butt" stroke-linejoin="miter" stroke-dasharray="none" fill-opacity="0" />
        <path d="M684.0944 705.2854 L684.077 705.4898 L684.0245 705.6927 L683.9374 705.8915 L683.8193 706.0865 L683.6674 706.28 L683.4852 706.4679 L683.2706 706.653 L683.0287 706.834 L682.7573 707.0092 L682.4578 707.1818 L682.1323 707.3477 L681.7809 707.5093 L681.403 707.6652 L681.0005 707.8157 L680.5743 707.9595 L680.125 708.0977 L679.6548 708.2291 L679.1638 708.3546 L678.6519 708.4722 L678.1212 708.584 L677.5712 708.6862 L677.003 708.7828 L676.4199 708.8698 L675.8194 708.9498 L675.2052 709.0219 L674.5745 709.0841 L673.9323 709.1379 L673.2771 709.1821 L672.6096 709.2165 L671.9321 709.2415 L671.2438 709.2567 L670.5468 709.2621 C663.066 709.2621 657 707.4816 657 705.2854 L657 714.4585 C657 716.6495 663.066 718.4353 670.5468 718.4353 C678.0269 718.4353 684.0944 716.6495 684.0944 714.4585 Z " opacity="1" fill="#9B9B9B" fill-opacity="1" />
        <path d="M684.0944 705.2854 L684.077 705.4898 L684.0245 705.6927 L683.9374 705.8915 L683.8193 706.0865 L683.6674 706.28 L683.4852 706.4679 L683.2706 706.653 L683.0287 706.834 L682.7573 707.0092 L682.4578 707.1818 L682.1323 707.3477 L681.7809 707.5093 L681.403 707.6652 L681.0005 707.8157 L680.5743 707.9595 L680.125 708.0977 L679.6548 708.2291 L679.1638 708.3546 L678.6519 708.4722 L678.1212 708.584 L677.5712 708.6862 L677.003 708.7828 L676.4199 708.8698 L675.8194 708.9498 L675.2052 709.0219 L674.5745 709.0841 L673.9323 709.1379 L673.2771 709.1821 L672.6096 709.2165 L671.9321 709.2415 L671.2438 709.2567 L670.5468 709.2621 C663.066 709.2621 657 707.4816 657 705.2854 L657 714.4585 C657 716.6495 663.066 718.4353 670.5468 718.4353 C678.0269 718.4353 684.0944 716.6495 684.0944 714.4585 Z " opacity="1" stroke="#FFFFFF" stroke-opacity="1" stroke-width="0.4" stroke-linecap="butt" stroke-linejoin="miter" stroke-dasharray="none" fill-opacity="0" />
        <path d="M670.5468 709.2621 L671.2438 709.2567 L671.9321 709.2415 L672.6096 709.2165 L673.2771 709.1821 L673.9323 709.1379 L674.5745 709.0841 L675.2052 709.0219 L675.8194 708.9498 L676.4199 708.8698 L677.003 708.7828 L677.5712 708.6862 L678.1212 708.584 L678.6519 708.4722 L679.1638 708.3546 L679.6548 708.2291 L680.125 708.0977 L680.5743 707.9595 L681.0005 707.8157 L681.403 707.6652 L681.7809 707.5093 L682.1323 707.3477 L682.4578 707.1818 L682.7573 707.0092 L683.0287 706.834 L683.2706 706.653 L683.4852 706.4679 L683.6674 706.28 L683.8193 706.0865 L683.9374 705.8915 L684.0245 705.6927 L684.077 705.4898 L684.0944 705.2854 C684.0944 703.0848 678.0269 701.3044 670.5468 701.3044 C663.066 701.3044 657 703.0848 657 705.2854 C657 707.4816 663.066 709.2621 670.5468 709.2621 Z " opacity="1" fill="#9B9B9B" fill-opacity="1" />
        <path d="M670.5468 709.2621 L671.2438 709.2567 L671.9321 709.2415 L672.6096 709.2165 L673.2771 709.1821 L673.9323 709.1379 L674.5745 709.0841 L675.2052 709.0219 L675.8194 708.9498 L676.4199 708.8698 L677.003 708.7828 L677.5712 708.6862 L678.1212 708.584 L678.6519 708.4722 L679.1638 708.3546 L679.6548 708.2291 L680.125 708.0977 L680.5743 707.9595 L681.0005 707.8157 L681.403 707.6652 L681.7809 707.5093 L682.1323 707.3477 L682.4578 707.1818 L682.7573 707.0092 L683.0287 706.834 L683.2706 706.653 L683.4852 706.4679 L683.6674 706.28 L683.8193 706.0865 L683.9374 705.8915 L684.0245 705.6927 L684.077 705.4898 L684.0944 705.2854 C684.0944 703.0848 678.0269 701.3044 670.5468 701.3044 C663.066 701.3044 657 703.0848 657 705.2854 C657 707.4816 663.066 709.2621 670.5468 709.2621 Z " opacity="1" stroke="#FFFFFF" stroke-opacity="1" stroke-width="0.4" stroke-linecap="butt" stroke-linejoin="miter" stroke-dasharray="none" fill-opacity="0" />
        <path d="M698.6002 713.573 L698.583 713.7775 L698.5303 713.9805 L698.4432 714.1796 L698.3251 714.3743 L698.1732 714.5677 L697.9902 714.7556 L697.778 714.9407 L697.5346 715.1216 L697.2631 715.2969 L696.965 715.4697 L696.6381 715.6354 L696.286 715.7971 L695.9081 715.9532 L695.5062 716.1038 L695.0795 716.2473 L694.6308 716.3854 L694.1607 716.5167 L693.6696 716.6422 L693.1577 716.7599 L692.627 716.8718 L692.0762 716.9738 L691.5089 717.0705 L690.9257 717.1579 L690.3252 717.2379 L689.7111 717.3096 L689.0803 717.3718 L688.438 717.4257 L687.7836 717.4697 L687.1147 717.5042 L686.4379 717.5292 L685.7496 717.5444 L685.0519 717.5501 C677.5726 717.5501 671.5059 715.7693 671.5059 713.573 L671.5059 722.7468 C671.5059 724.9371 677.5726 726.7234 685.0519 726.7234 C692.5327 726.7234 698.6002 724.9371 698.6002 722.7468 Z " opacity="1" fill="#9B9B9B" fill-opacity="1" />
        <path d="M698.6002 713.573 L698.583 713.7775 L698.5303 713.9805 L698.4432 714.1796 L698.3251 714.3743 L698.1732 714.5677 L697.9902 714.7556 L697.778 714.9407 L697.5346 715.1216 L697.2631 715.2969 L696.965 715.4697 L696.6381 715.6354 L696.286 715.7971 L695.9081 715.9532 L695.5062 716.1038 L695.0795 716.2473 L694.6308 716.3854 L694.1607 716.5167 L693.6696 716.6422 L693.1577 716.7599 L692.627 716.8718 L692.0762 716.9738 L691.5089 717.0705 L690.9257 717.1579 L690.3252 717.2379 L689.7111 717.3096 L689.0803 717.3718 L688.438 717.4257 L687.7836 717.4697 L687.1147 717.5042 L686.4379 717.5292 L685.7496 717.5444 L685.0519 717.5501 C677.5726 717.5501 671.5059 715.7693 671.5059 713.573 L671.5059 722.7468 C671.5059 724.9371 677.5726 726.7234 685.0519 726.7234 C692.5327 726.7234 698.6002 724.9371 698.6002 722.7468 Z " opacity="1" stroke="#FFFFFF" stroke-opacity="1" stroke-width="0.4" stroke-linecap="butt" stroke-linejoin="miter" stroke-dasharray="none" fill-opacity="0" />
        <path d="M685.0519 717.5501 L685.7496 717.5444 L686.4379 717.5292 L687.1147 717.5042 L687.7836 717.4697 L688.438 717.4257 L689.0803 717.3718 L689.7111 717.3096 L690.3252 717.2379 L690.9257 717.1579 L691.5089 717.0705 L692.0762 716.9738 L692.627 716.8718 L693.1577 716.7599 L693.6696 716.6422 L694.1607 716.5167 L694.6308 716.3854 L695.0795 716.2473 L695.5062 716.1038 L695.9081 715.9532 L696.286 715.7971 L696.6381 715.6354 L696.965 715.4697 L697.2631 715.2969 L697.5346 715.1216 L697.778 714.9407 L697.9902 714.7556 L698.1732 714.5677 L698.3251 714.3743 L698.4432 714.1796 L698.5303 713.9805 L698.583 713.7775 L698.6002 713.573 C698.6002 711.3726 692.5327 709.5921 685.0519 709.5921 C677.5726 709.5921 671.5059 711.3726 671.5059 713.573 C671.5059 715.7693 677.5726 717.5501 685.0519 717.5501 Z " opacity="1" fill="#9B9B9B" fill-opacity="1" />
        <path d="M685.0519 717.5501 L685.7496 717.5444 L686.4379 717.5292 L687.1147 717.5042 L687.7836 717.4697 L688.438 717.4257 L689.0803 717.3718 L689.7111 717.3096 L690.3252 717.2379 L690.9257 717.1579 L691.5089 717.0705 L692.0762 716.9738 L692.627 716.8718 L693.1577 716.7599 L693.6696 716.6422 L694.1607 716.5167 L694.6308 716.3854 L695.0795 716.2473 L695.5062 716.1038 L695.9081 715.9532 L696.286 715.7971 L696.6381 715.6354 L696.965 715.4697 L697.2631 715.2969 L697.5346 715.1216 L697.778 714.9407 L697.9902 714.7556 L698.1732 714.5677 L698.3251 714.3743 L698.4432 714.1796 L698.5303 713.9805 L698.583 713.7775 L698.6002 713.573 C698.6002 711.3726 692.5327 709.5921 685.0519 709.5921 C677.5726 709.5921 671.5059 711.3726 671.5059 713.573 C671.5059 715.7693 677.5726 717.5501 685.0519 717.5501 Z " opacity="1" stroke="#FFFFFF" stroke-opacity="1" stroke-width="0.4" stroke-linecap="butt" stroke-linejoin="miter" stroke-dasharray="none" fill-opacity="0" />
      </g>
    </g>
    <text x="723.438" y="618.3797" font-size="14" fill="#000000" fill-opacity="1" font-family="Arial" font-weight="normal" font-style="normal">port</text>
    <text x="702.8174" y="634.3797" font-size="14" fill="#000000" fill-opacity="1" font-family="Arial" font-weight="normal" font-style="normal">forwarding</text>
    <text x="720.0967" y="712.8797" font-size="14" fill="#000000" fill-opacity="1" font-family="Arial" font-weight="normal" font-style="normal">external</text>
    <text x="725.5518" y="728.8797" font-size="14" fill="#000000" fill-opacity="1" font-family="Arial" font-weight="normal" font-style="normal">server</text>
    <path d="M684 513 L684 504 L1125 504 L1125 599.8274" marker-end="url(#marker15)" opacity="1" stroke="#000000" stroke-opacity="1" stroke-width="1" stroke-linecap="butt" stroke-linejoin="miter" stroke-dasharray="none" fill-opacity="0" />
    <rect x="1099.321" y="513.8868" width="126" height="19.43269" opacity="1" fill="#FFFFFF" fill-opacity="0.89" />
    <text x="1112.306" y="528.7415" font-size="13" fill="#000000" fill-opacity="1" font-family="Arial" font-weight="normal" font-style="normal">RaceActorSystem</text>
    <rect x="981" y="477.0124" width="54.49899" height="35.83181" opacity="1" fill="#FFFFFF" fill-opacity="0.89" />
    <text x="995.8564" y="492.308" font-size="14" fill="#000000" fill-opacity="1" font-family="Arial" font-weight="normal" font-style="normal">SSH</text>
    <text x="991.1772" y="508.308" font-size="14" fill="#000000" fill-opacity="1" font-family="Arial" font-weight="normal" font-style="normal">tunnel</text>
    <line x1="1161" y1="567" x2="1161" y2="611.1302" marker-end="url(#marker16)" opacity="1" stroke="#000000" stroke-opacity="1" stroke-width="1" stroke-linecap="butt" stroke-linejoin="miter" stroke-dasharray="4,4" />
  </g>
</svg>