<?xml version="1.0" encoding="utf-8"?><svg width="100%" height="100%" version="1.1" viewBox="285 168 539.3737 242.0514" style="background-color:#FFFFFF" xmlns:xlink="http://www.w3.org/1999/xlink" xmlns="http://www.w3.org/2000/svg"><defs><filter id="shadow1" width="150%" height="150%"><feGaussianBlur in="SourceAlpha" result="blur" stdDeviation="5" /><feOffset dx="5" dy="5" in="blur" result="offsetBlur" /><feMerge><feMergeNode in="offsetBlur" /><feMergeNode in="SourceGraphic" /></feMerge></filter></defs><marker id="marker1" markerUnits="strokeWidth" orient="auto" refX="-5.086271" refY="0" markerWidth="7.636236" markerHeight="6.114774" viewBox="-6.636236 -3.057387 7.636236 6.114774"><path d="M-5.636236 -2.057387 L0 0 L-5.636236 2.057387 Z " fill="#FB0106" fill-opacity="1" stroke="#FB0106" stroke-opacity="1" /></marker><marker id="marker2" markerUnits="strokeWidth" orient="auto" refX="-5.086271" refY="0" markerWidth="7.636236" markerHeight="6.114774" viewBox="-6.636236 -3.057387 7.636236 6.114774"><path d="M-5.636236 -2.057387 L0 0 L-5.636236 2.057387 Z " fill="#FB0106" fill-opacity="1" stroke="#FB0106" stroke-opacity="1" /></marker><marker id="marker3" markerUnits="strokeWidth" orient="auto" refX="-5.086271" refY="0" markerWidth="7.636236" markerHeight="6.114774" viewBox="-6.636236 -3.057387 7.636236 6.114774"><path d="M-5.636236 -2.057387 L0 0 L-5.636236 2.057387 Z " fill="#FB0106" fill-opacity="1" stroke="#FB0106" stroke-opacity="1" /></marker><marker id="marker4" markerUnits="strokeWidth" orient="auto" refX="-5.086271" refY="0" markerWidth="7.636236" markerHeight="6.114774" viewBox="-6.636236 -3.057387 7.636236 6.114774"><path d="M-5.636236 -2.057387 L0 0 L-5.636236 2.057387 Z " fill="#0000FE" fill-opacity="1" stroke="#0000FE" stroke-opacity="1" /></marker><g id="layer1"><rect x="306" y="303.9521" width="63" height="72" opacity="1" stroke="#000000" stroke-opacity="1" stroke-width="1" stroke-linecap="butt" stroke-linejoin="miter" stroke-dasharray="none" fill="#FFFFFF" fill-opacity="1" filter="url(#shadow1)" /><rect x="405" y="303.9521" width="63" height="72" opacity="1" stroke="#000000" stroke-opacity="1" stroke-width="1" stroke-linecap="butt" stroke-linejoin="miter" stroke-dasharray="none" fill="#FFFFFF" fill-opacity="1" filter="url(#shadow1)" /><rect x="504" y="303.9521" width="63" height="72" opacity="1" stroke="#000000" stroke-opacity="1" stroke-width="1" stroke-linecap="butt" stroke-linejoin="miter" stroke-dasharray="none" fill="#FFFFFF" fill-opacity="1" filter="url(#shadow1)" /><rect x="405" y="198" width="81" height="72" opacity="1" stroke="#000000" stroke-opacity="1" stroke-width="1" stroke-linecap="butt" stroke-linejoin="miter" stroke-dasharray="none" fill="#FFFFFF" fill-opacity="1" filter="url(#shadow1)" /><rect x="425.763" y="218.048" width="9" height="45" opacity="1" stroke="#0000FE" stroke-opacity="1" stroke-width="1" stroke-linecap="butt" stroke-linejoin="miter" stroke-dasharray="none" fill="#0000FE" fill-opacity="0.09930678" /><line x1="425.763" y1="227.048" x2="434.763" y2="227.048" opacity="1" stroke="#0000FE" stroke-opacity="1" stroke-width="1" stroke-linecap="butt" stroke-linejoin="miter" stroke-dasharray="none" /><line x1="425.763" y1="236.048" x2="434.763" y2="236.048" opacity="1" stroke="#0000FE" stroke-opacity="1" stroke-width="1" stroke-linecap="butt" stroke-linejoin="miter" stroke-dasharray="none" /><line x1="425.763" y1="245.048" x2="434.763" y2="245.048" opacity="1" stroke="#0000FE" stroke-opacity="1" stroke-width="1" stroke-linecap="butt" stroke-linejoin="miter" stroke-dasharray="none" /><line x1="425.763" y1="254.048" x2="434.763" y2="254.048" opacity="1" stroke="#0000FE" stroke-opacity="1" stroke-width="1" stroke-linecap="butt" stroke-linejoin="miter" stroke-dasharray="none" /><rect x="443.763" y="218.048" width="9" height="45" opacity="1" stroke="#0000FE" stroke-opacity="1" stroke-width="1" stroke-linecap="butt" stroke-linejoin="miter" stroke-dasharray="none" fill="#0000FE" fill-opacity="0.09930678" /><line x1="443.763" y1="227.048" x2="452.763" y2="227.048" opacity="1" stroke="#0000FE" stroke-opacity="1" stroke-width="1" stroke-linecap="butt" stroke-linejoin="miter" stroke-dasharray="none" /><line x1="443.763" y1="236.048" x2="452.763" y2="236.048" opacity="1" stroke="#0000FE" stroke-opacity="1" stroke-width="1" stroke-linecap="butt" stroke-linejoin="miter" stroke-dasharray="none" /><line x1="443.763" y1="245.048" x2="452.763" y2="245.048" opacity="1" stroke="#0000FE" stroke-opacity="1" stroke-width="1" stroke-linecap="butt" stroke-linejoin="miter" stroke-dasharray="none" /><line x1="443.763" y1="254.048" x2="452.763" y2="254.048" opacity="1" stroke="#0000FE" stroke-opacity="1" stroke-width="1" stroke-linecap="butt" stroke-linejoin="miter" stroke-dasharray="none" /><rect x="461.763" y="218.048" width="9" height="45" opacity="1" stroke="#0000FE" stroke-opacity="1" stroke-width="1" stroke-linecap="butt" stroke-linejoin="miter" stroke-dasharray="none" fill="#0000FE" fill-opacity="0.09930678" /><line x1="461.763" y1="227.048" x2="470.763" y2="227.048" opacity="1" stroke="#0000FE" stroke-opacity="1" stroke-width="1" stroke-linecap="butt" stroke-linejoin="miter" stroke-dasharray="none" /><line x1="461.763" y1="236.048" x2="470.763" y2="236.048" opacity="1" stroke="#0000FE" stroke-opacity="1" stroke-width="1" stroke-linecap="butt" stroke-linejoin="miter" stroke-dasharray="none" /><line x1="461.763" y1="245.048" x2="470.763" y2="245.048" opacity="1" stroke="#0000FE" stroke-opacity="1" stroke-width="1" stroke-linecap="butt" stroke-linejoin="miter" stroke-dasharray="none" /><line x1="461.763" y1="254.048" x2="470.763" y2="254.048" opacity="1" stroke="#0000FE" stroke-opacity="1" stroke-width="1" stroke-linecap="butt" stroke-linejoin="miter" stroke-dasharray="none" /><text x="427.5698" y="212.1593" font-size="10" fill="#0000FE" fill-opacity="1" font-family="Arial" font-weight="normal" font-style="normal">P1</text><text x="444.3969" y="212.1593" font-size="10" fill="#0000FE" fill-opacity="1" font-family="Arial" font-weight="normal" font-style="normal">P2</text><text x="462.2577" y="212.1593" font-size="10" fill="#0000FE" fill-opacity="1" font-family="Arial" font-weight="normal" font-style="normal">P3</text><text x="412.4493" y="234.6815" font-size="10" fill="#0000FE" fill-opacity="1" font-family="Arial" font-weight="normal" font-style="normal">y</text><text x="411.8797" y="225.8835" font-size="10" fill="#0000FE" fill-opacity="1" font-family="Arial" font-weight="normal" font-style="normal">x</text><text x="411.8309" y="253.3853" font-size="14" fill="#0000FE" fill-opacity="1" font-family="Arial" font-weight="normal" font-style="normal">⋮</text><rect x="513" y="324" width="9" height="45" opacity="1" stroke="#0000FE" stroke-opacity="1" stroke-width="1" stroke-linecap="butt" stroke-linejoin="miter" stroke-dasharray="none" fill="#0000FE" fill-opacity="0.09930678" /><line x1="513" y1="333" x2="522" y2="333" opacity="1" stroke="#0000FE" stroke-opacity="1" stroke-width="1" stroke-linecap="butt" stroke-linejoin="miter" stroke-dasharray="none" /><line x1="513" y1="342" x2="522" y2="342" opacity="1" stroke="#0000FE" stroke-opacity="1" stroke-width="1" stroke-linecap="butt" stroke-linejoin="miter" stroke-dasharray="none" /><line x1="513" y1="351" x2="522" y2="351" opacity="1" stroke="#0000FE" stroke-opacity="1" stroke-width="1" stroke-linecap="butt" stroke-linejoin="miter" stroke-dasharray="none" /><line x1="513" y1="360" x2="522" y2="360" opacity="1" stroke="#0000FE" stroke-opacity="1" stroke-width="1" stroke-linecap="butt" stroke-linejoin="miter" stroke-dasharray="none" /><rect x="531" y="324" width="9" height="45" opacity="1" stroke="#0000FE" stroke-opacity="1" stroke-width="1" stroke-linecap="butt" stroke-linejoin="miter" stroke-dasharray="none" fill="#0000FE" fill-opacity="0.09930678" /><line x1="531" y1="333" x2="540" y2="333" opacity="1" stroke="#0000FE" stroke-opacity="1" stroke-width="1" stroke-linecap="butt" stroke-linejoin="miter" stroke-dasharray="none" /><line x1="531" y1="342" x2="540" y2="342" opacity="1" stroke="#0000FE" stroke-opacity="1" stroke-width="1" stroke-linecap="butt" stroke-linejoin="miter" stroke-dasharray="none" /><line x1="531" y1="351" x2="540" y2="351" opacity="1" stroke="#0000FE" stroke-opacity="1" stroke-width="1" stroke-linecap="butt" stroke-linejoin="miter" stroke-dasharray="none" /><line x1="531" y1="360" x2="540" y2="360" opacity="1" stroke="#0000FE" stroke-opacity="1" stroke-width="1" stroke-linecap="butt" stroke-linejoin="miter" stroke-dasharray="none" /><rect x="549" y="324" width="9" height="45" opacity="1" stroke="#0000FE" stroke-opacity="1" stroke-width="1" stroke-linecap="butt" stroke-linejoin="miter" stroke-dasharray="none" fill="#20FEFE" fill-opacity="1" /><line x1="549" y1="333" x2="558" y2="333" opacity="1" stroke="#0000FE" stroke-opacity="1" stroke-width="1" stroke-linecap="butt" stroke-linejoin="miter" stroke-dasharray="none" /><line x1="549" y1="342" x2="558" y2="342" opacity="1" stroke="#0000FE" stroke-opacity="1" stroke-width="1" stroke-linecap="butt" stroke-linejoin="miter" stroke-dasharray="none" /><line x1="549" y1="351" x2="558" y2="351" opacity="1" stroke="#0000FE" stroke-opacity="1" stroke-width="1" stroke-linecap="butt" stroke-linejoin="miter" stroke-dasharray="none" /><line x1="549" y1="360" x2="558" y2="360" opacity="1" stroke="#0000FE" stroke-opacity="1" stroke-width="1" stroke-linecap="butt" stroke-linejoin="miter" stroke-dasharray="none" /><text x="514.8068" y="318.1113" font-size="10" fill="#0000FE" fill-opacity="1" font-family="Arial" font-weight="normal" font-style="normal">P1</text><text x="531.6339" y="318.1113" font-size="10" fill="#0000FE" fill-opacity="1" font-family="Arial" font-weight="normal" font-style="normal">P2</text><text x="549.4948" y="318.1113" font-size="10" fill="#0000FE" fill-opacity="1" font-family="Arial" font-weight="normal" font-style="normal">P3</text><rect x="549" y="333" width="9" height="9" opacity="1" stroke="#0000FE" stroke-opacity="1" stroke-width="1" stroke-linecap="butt" stroke-linejoin="miter" stroke-dasharray="none" fill="#FB0106" fill-opacity="1" /><rect x="461.763" y="227.048" width="9" height="9" opacity="1" stroke="#0000FE" stroke-opacity="1" stroke-width="1" stroke-linecap="butt" stroke-linejoin="miter" stroke-dasharray="none" fill="#FB0106" fill-opacity="1" /><rect x="414" y="324" width="9" height="45" opacity="1" stroke="#0000FE" stroke-opacity="1" stroke-width="1" stroke-linecap="butt" stroke-linejoin="miter" stroke-dasharray="none" fill="#0000FE" fill-opacity="0.09930678" /><line x1="414" y1="333" x2="423" y2="333" opacity="1" stroke="#0000FE" stroke-opacity="1" stroke-width="1" stroke-linecap="butt" stroke-linejoin="miter" stroke-dasharray="none" /><line x1="414" y1="342" x2="423" y2="342" opacity="1" stroke="#0000FE" stroke-opacity="1" stroke-width="1" stroke-linecap="butt" stroke-linejoin="miter" stroke-dasharray="none" /><line x1="414" y1="351" x2="423" y2="351" opacity="1" stroke="#0000FE" stroke-opacity="1" stroke-width="1" stroke-linecap="butt" stroke-linejoin="miter" stroke-dasharray="none" /><line x1="414" y1="360" x2="423" y2="360" opacity="1" stroke="#0000FE" stroke-opacity="1" stroke-width="1" stroke-linecap="butt" stroke-linejoin="miter" stroke-dasharray="none" /><rect x="432" y="324" width="9" height="45" opacity="1" stroke="#0000FE" stroke-opacity="1" stroke-width="1" stroke-linecap="butt" stroke-linejoin="miter" stroke-dasharray="none" fill="#20FEFE" fill-opacity="1" /><line x1="432" y1="333" x2="441" y2="333" opacity="1" stroke="#0000FE" stroke-opacity="1" stroke-width="1" stroke-linecap="butt" stroke-linejoin="miter" stroke-dasharray="none" /><line x1="432" y1="342" x2="441" y2="342" opacity="1" stroke="#0000FE" stroke-opacity="1" stroke-width="1" stroke-linecap="butt" stroke-linejoin="miter" stroke-dasharray="none" /><line x1="432" y1="351" x2="441" y2="351" opacity="1" stroke="#0000FE" stroke-opacity="1" stroke-width="1" stroke-linecap="butt" stroke-linejoin="miter" stroke-dasharray="none" /><line x1="432" y1="360" x2="441" y2="360" opacity="1" stroke="#0000FE" stroke-opacity="1" stroke-width="1" stroke-linecap="butt" stroke-linejoin="miter" stroke-dasharray="none" /><rect x="450" y="324" width="9" height="45" opacity="1" stroke="#0000FE" stroke-opacity="1" stroke-width="1" stroke-linecap="butt" stroke-linejoin="miter" stroke-dasharray="none" fill="#E5E5FE" fill-opacity="1" /><line x1="450" y1="333" x2="459" y2="333" opacity="1" stroke="#0000FE" stroke-opacity="1" stroke-width="1" stroke-linecap="butt" stroke-linejoin="miter" stroke-dasharray="none" /><line x1="450" y1="342" x2="459" y2="342" opacity="1" stroke="#0000FE" stroke-opacity="1" stroke-width="1" stroke-linecap="butt" stroke-linejoin="miter" stroke-dasharray="none" /><line x1="450" y1="351" x2="459" y2="351" opacity="1" stroke="#0000FE" stroke-opacity="1" stroke-width="1" stroke-linecap="butt" stroke-linejoin="miter" stroke-dasharray="none" /><line x1="450" y1="360" x2="459" y2="360" opacity="1" stroke="#0000FE" stroke-opacity="1" stroke-width="1" stroke-linecap="butt" stroke-linejoin="miter" stroke-dasharray="none" /><text x="415.8068" y="318.1113" font-size="10" fill="#0000FE" fill-opacity="1" font-family="Arial" font-weight="normal" font-style="normal">P1</text><text x="432.6339" y="318.1113" font-size="10" fill="#0000FE" fill-opacity="1" font-family="Arial" font-weight="normal" font-style="normal">P2</text><text x="450.4948" y="318.1113" font-size="10" fill="#0000FE" fill-opacity="1" font-family="Arial" font-weight="normal" font-style="normal">P3</text><rect x="450" y="333" width="9" height="9" opacity="1" stroke="#0000FE" stroke-opacity="1" stroke-width="1" stroke-linecap="butt" stroke-linejoin="miter" stroke-dasharray="none" fill="#FB0106" fill-opacity="1" /><rect x="315" y="324" width="9" height="45" opacity="1" stroke="#0000FE" stroke-opacity="1" stroke-width="1" stroke-linecap="butt" stroke-linejoin="miter" stroke-dasharray="none" fill="#20FEFE" fill-opacity="1" /><line x1="315" y1="333" x2="324" y2="333" opacity="1" stroke="#0000FE" stroke-opacity="1" stroke-width="1" stroke-linecap="butt" stroke-linejoin="miter" stroke-dasharray="none" /><line x1="315" y1="342" x2="324" y2="342" opacity="1" stroke="#0000FE" stroke-opacity="1" stroke-width="1" stroke-linecap="butt" stroke-linejoin="miter" stroke-dasharray="none" /><line x1="315" y1="351" x2="324" y2="351" opacity="1" stroke="#0000FE" stroke-opacity="1" stroke-width="1" stroke-linecap="butt" stroke-linejoin="miter" stroke-dasharray="none" /><line x1="315" y1="360" x2="324" y2="360" opacity="1" stroke="#0000FE" stroke-opacity="1" stroke-width="1" stroke-linecap="butt" stroke-linejoin="miter" stroke-dasharray="none" /><rect x="333" y="324" width="9" height="45" opacity="1" stroke="#0000FE" stroke-opacity="1" stroke-width="1" stroke-linecap="butt" stroke-linejoin="miter" stroke-dasharray="none" fill="#E5E5FE" fill-opacity="1" /><line x1="333" y1="333" x2="342" y2="333" opacity="1" stroke="#0000FE" stroke-opacity="1" stroke-width="1" stroke-linecap="butt" stroke-linejoin="miter" stroke-dasharray="none" /><line x1="333" y1="342" x2="342" y2="342" opacity="1" stroke="#0000FE" stroke-opacity="1" stroke-width="1" stroke-linecap="butt" stroke-linejoin="miter" stroke-dasharray="none" /><line x1="333" y1="351" x2="342" y2="351" opacity="1" stroke="#0000FE" stroke-opacity="1" stroke-width="1" stroke-linecap="butt" stroke-linejoin="miter" stroke-dasharray="none" /><line x1="333" y1="360" x2="342" y2="360" opacity="1" stroke="#0000FE" stroke-opacity="1" stroke-width="1" stroke-linecap="butt" stroke-linejoin="miter" stroke-dasharray="none" /><rect x="351" y="324" width="9" height="45" opacity="1" stroke="#0000FE" stroke-opacity="1" stroke-width="1" stroke-linecap="butt" stroke-linejoin="miter" stroke-dasharray="none" fill="#E5E5FE" fill-opacity="1" /><line x1="351" y1="333" x2="360" y2="333" opacity="1" stroke="#0000FE" stroke-opacity="1" stroke-width="1" stroke-linecap="butt" stroke-linejoin="miter" stroke-dasharray="none" /><line x1="351" y1="342" x2="360" y2="342" opacity="1" stroke="#0000FE" stroke-opacity="1" stroke-width="1" stroke-linecap="butt" stroke-linejoin="miter" stroke-dasharray="none" /><line x1="351" y1="351" x2="360" y2="351" opacity="1" stroke="#0000FE" stroke-opacity="1" stroke-width="1" stroke-linecap="butt" stroke-linejoin="miter" stroke-dasharray="none" /><line x1="351" y1="360" x2="360" y2="360" opacity="1" stroke="#0000FE" stroke-opacity="1" stroke-width="1" stroke-linecap="butt" stroke-linejoin="miter" stroke-dasharray="none" /><text x="316.8068" y="318.1113" font-size="10" fill="#0000FE" fill-opacity="1" font-family="Arial" font-weight="normal" font-style="normal">P1</text><text x="333.6339" y="318.1113" font-size="10" fill="#0000FE" fill-opacity="1" font-family="Arial" font-weight="normal" font-style="normal">P2</text><text x="351.4948" y="318.1113" font-size="10" fill="#0000FE" fill-opacity="1" font-family="Arial" font-weight="normal" font-style="normal">P3</text><rect x="351" y="333" width="9" height="9" opacity="1" stroke="#0000FE" stroke-opacity="1" stroke-width="1" stroke-linecap="butt" stroke-linejoin="miter" stroke-dasharray="none" fill="#FB0106" fill-opacity="1" /><path d="M558 333 Q586.8854 240.3862 480.0831 232.2571" marker-end="url(#marker1)" opacity="1" stroke="#FB0106" stroke-opacity="1" stroke-width="1" stroke-linecap="butt" stroke-linejoin="miter" stroke-dasharray="none" fill-opacity="0" /><path d="M466.5131 231.9579 Q355.741 243.4553 355.5164 326.9138" marker-end="url(#marker2)" opacity="1" stroke="#FB0106" stroke-opacity="1" stroke-width="1" stroke-linecap="butt" stroke-linejoin="miter" stroke-dasharray="none" fill-opacity="0" /><path d="M466.5131 231.9579 Q429.7319 283.6988 451.7678 327.5615" marker-end="url(#marker3)" opacity="1" stroke="#FB0106" stroke-opacity="1" stroke-width="1" stroke-linecap="butt" stroke-linejoin="miter" stroke-dasharray="none" fill-opacity="0" /><text x="402.7051" y="188.0336" font-size="12" fill="#000000" fill-opacity="1" font-family="Arial" font-weight="normal" font-style="normal">C</text><text x="301.3906" y="296.0336" font-size="12" fill="#000000" fill-opacity="1" font-family="Arial" font-weight="normal" font-style="normal">P1</text><text x="399.5938" y="296.0336" font-size="12" fill="#000000" fill-opacity="1" font-family="Arial" font-weight="normal" font-style="normal">P2</text><text x="498.4268" y="296.0336" font-size="12" fill="#000000" fill-opacity="1" font-family="Arial" font-weight="normal" font-style="normal">P3</text><line x1="387" y1="279" x2="387" y2="387" opacity="1" stroke="#0000FE" stroke-opacity="1" stroke-width="1" stroke-linecap="butt" stroke-linejoin="miter" stroke-dasharray="8,4,2,4" /><line x1="486" y1="279" x2="486" y2="387" opacity="1" stroke="#0000FE" stroke-opacity="1" stroke-width="1" stroke-linecap="butt" stroke-linejoin="miter" stroke-dasharray="8,4,2,4" /><text x="613.7759" y="291.9555" font-size="12" fill="#000000" fill-opacity="1" font-family="Arial" font-weight="normal" font-style="normal">manual entry</text><text x="613.7759" y="325.4866" font-size="12" fill="#000000" fill-opacity="1" font-family="Arial" font-weight="normal" font-style="normal">value triggered formula</text><text x="613.7759" y="356.2951" font-size="12" fill="#000000" fill-opacity="1" font-family="Arial" font-weight="normal" font-style="normal">time triggered formula</text><text x="613.7759" y="384.9554" font-size="12" fill="#000000" fill-opacity="1" font-family="Arial" font-weight="normal" font-style="normal">provider import</text><g><g><path d="M722.2372 383.1942 L714.5814 383.1942 L714.6217 406.1019 L722.2372 406.1019 Z " opacity="1" fill="#02709F" fill-opacity="1" /><path d="M722.2372 383.1942 L714.5814 383.1942 L714.6217 406.1019 L722.2372 406.1019 Z " opacity="1" stroke="#FFFFFF" stroke-opacity="1" stroke-width="0.39999" stroke-linecap="butt" stroke-linejoin="miter" stroke-dasharray="none" fill-opacity="0" /><path d="M715.6671 386.3611 L721.07 386.3611 L721.07 391.5424 L715.6671 391.5424 Z " opacity="1" fill="#02709F" fill-opacity="1" /><path d="M715.6671 391.5424 L721.07 391.5424 L721.07 386.3611 L715.6671 386.3611 Z " opacity="1" stroke="#FFFFFF" stroke-opacity="1" stroke-width="0.39999" stroke-linecap="butt" stroke-linejoin="miter" stroke-dasharray="none" fill-opacity="0" /><path d="M726.7781 378.5826 L722.2465 383.2877 L722.2465 406.1085 L726.7746 400.7394 Z " opacity="1" fill="#02709F" fill-opacity="1" /><path d="M726.7781 378.5826 L722.2465 383.2877 L722.2465 406.1085 L726.7746 400.7394 Z " opacity="1" stroke="#FFFFFF" stroke-opacity="1" stroke-width="0.39999" stroke-linecap="butt" stroke-linejoin="miter" stroke-dasharray="none" fill-opacity="0" /><line x1="707.9321" y1="383.0639" x2="714.2026" y2="383.0639" opacity="1" stroke="#02709F" stroke-opacity="1" stroke-width="0" stroke-linecap="butt" stroke-linejoin="miter" stroke-dasharray="none" /><line x1="707.9321" y1="383.0639" x2="714.2026" y2="383.0639" opacity="1" stroke="#FFFFFF" stroke-opacity="1" stroke-width="0.39999" stroke-linecap="butt" stroke-linejoin="miter" stroke-dasharray="none" /><line x1="715.48" y1="382.3029" x2="718.3585" y2="379.1523" opacity="1" stroke="#02709F" stroke-opacity="1" stroke-width="0" stroke-linecap="butt" stroke-linejoin="miter" stroke-dasharray="none" /><line x1="715.48" y1="382.3029" x2="718.3585" y2="379.1523" opacity="1" stroke="#FFFFFF" stroke-opacity="1" stroke-width="0.39999" stroke-linecap="butt" stroke-linejoin="miter" stroke-dasharray="none" /><path d="M714.3337 383.5358 L714.333 383.5401 L714.3322 383.5528 L714.3301 383.5736 L714.3265 383.6008 L714.3207 383.6353 L714.3121 383.6756 L714.2999 383.722 L714.2847 383.7724 L714.2652 383.8283 L714.2408 383.8874 L714.2113 383.9492 L714.1767 384.0144 L714.1357 384.0823 L714.0874 384.1509 L714.0327 384.2213 L713.9701 384.2915 L713.9003 384.3621 L713.8211 384.4316 L713.7778 384.4658 L713.7325 384.5001 L713.685 384.5336 L713.6353 384.5661 L713.5819 384.5989 L713.5273 384.6305 L713.4697 384.6622 L713.4092 384.6922 L713.3458 384.7214 L713.2795 384.7507 L713.2105 384.7782 L713.1385 384.8046 L713.0643 384.8295 L712.9858 384.8536 L712.9052 384.8767 L712.821 384.8981 L712.7332 384.918 L712.6424 384.9368 L712.5481 384.9531 L712.4502 384.9686 L712.3494 384.9822 L712.2449 384.9942 L712.1362 385.0046 L712.0239 385.0123 L711.9087 385.0183 L711.7892 385.0226 L711.6653 385.0242 L711.5387 385.0242 L706.652 384.2769 L706.652 383.9819 L713.5223 378.5053 L726.7414 378.5157 L722.2868 383.1942 L714.6282 383.1942" opacity="1" fill="#02709F" fill-opacity="1" /><path d="M714.3337 383.5358 L714.333 383.5401 L714.3322 383.5528 L714.3301 383.5736 L714.3265 383.6008 L714.3207 383.6353 L714.3121 383.6756 L714.2999 383.722 L714.2847 383.7724 L714.2652 383.8283 L714.2408 383.8874 L714.2113 383.9492 L714.1767 384.0144 L714.1357 384.0823 L714.0874 384.1509 L714.0327 384.2213 L713.9701 384.2915 L713.9003 384.3621 L713.8211 384.4316 L713.7778 384.4658 L713.7325 384.5001 L713.685 384.5336 L713.6353 384.5661 L713.5819 384.5989 L713.5273 384.6305 L713.4697 384.6622 L713.4092 384.6922 L713.3458 384.7214 L713.2795 384.7507 L713.2105 384.7782 L713.1385 384.8046 L713.0643 384.8295 L712.9858 384.8536 L712.9052 384.8767 L712.821 384.8981 L712.7332 384.918 L712.6424 384.9368 L712.5481 384.9531 L712.4502 384.9686 L712.3494 384.9822 L712.2449 384.9942 L712.1362 385.0046 L712.0239 385.0123 L711.9087 385.0183 L711.7892 385.0226 L711.6653 385.0242 L711.5387 385.0242 L706.652 384.2769 L706.652 383.9819 L713.5223 378.5053 L726.7414 378.5157 L722.2868 383.1942 L714.6282 383.1942" opacity="1" stroke="#FFFFFF" stroke-opacity="1" stroke-width="0.39999" stroke-linecap="butt" stroke-linejoin="miter" stroke-dasharray="none" fill-opacity="0" /><path d="M714.5684 383.275 L714.5662 383.2757 L714.5619 383.2783 L714.5425 383.2896 L714.5108 383.3066 L714.4677 383.3298 L714.4129 383.3591 L714.3466 383.3932 L714.2696 383.431 L714.1818 383.4738 L714.0839 383.5193 L713.9758 383.5684 L713.8585 383.619 L713.7318 383.6714 L713.5964 383.7253 L713.4524 383.7802 L713.3005 383.8351 L713.1406 383.8893 L712.9729 383.9433 L712.7986 383.9956 L712.6172 384.0463 L712.43 384.0934 L712.2356 384.1388 L712.0361 384.1801 L711.8317 384.2178 L711.6215 384.2504 L711.4069 384.2779 L711.188 384.3002 L710.9648 384.3157 L710.7387 384.325 L710.5084 384.3268 L710.2758 384.3209 L710.0403 384.3062 L709.802 384.2831 L706.5916 384.0118 L706.5916 406.8694 L709.802 407.0067 C713.0565 407.2917 714.5814 406.1185 714.5814 406.1185 Z " opacity="1" fill="#02709F" fill-opacity="1" /><path d="M714.5684 383.275 L714.5662 383.2757 L714.5619 383.2783 L714.5425 383.2896 L714.5108 383.3066 L714.4677 383.3298 L714.4129 383.3591 L714.3466 383.3932 L714.2696 383.431 L714.1818 383.4738 L714.0839 383.5193 L713.9758 383.5684 L713.8585 383.619 L713.7318 383.6714 L713.5964 383.7253 L713.4524 383.7802 L713.3005 383.8351 L713.1406 383.8893 L712.9729 383.9433 L712.7986 383.9956 L712.6172 384.0463 L712.43 384.0934 L712.2356 384.1388 L712.0361 384.1801 L711.8317 384.2178 L711.6215 384.2504 L711.4069 384.2779 L711.188 384.3002 L710.9648 384.3157 L710.7387 384.325 L710.5084 384.3268 L710.2758 384.3209 L710.0403 384.3062 L709.802 384.2831 L706.5916 384.0118 L706.5916 406.8694 L709.802 407.0067 C713.0565 407.2917 714.5814 406.1185 714.5814 406.1185 Z " opacity="1" stroke="#FFFFFF" stroke-opacity="1" stroke-width="0.39999" stroke-linecap="butt" stroke-linejoin="miter" stroke-dasharray="none" fill-opacity="0" /><line x1="707.9926" y1="382.9566" x2="714.2631" y2="382.9566" opacity="1" stroke="#02709F" stroke-opacity="1" stroke-width="0" stroke-linecap="butt" stroke-linejoin="miter" stroke-dasharray="none" /><line x1="707.9926" y1="382.9566" x2="714.2631" y2="382.9566" opacity="1" stroke="#FFFFFF" stroke-opacity="1" stroke-width="0.39999" stroke-linecap="butt" stroke-linejoin="miter" stroke-dasharray="none" /><line x1="716.1063" y1="382.1989" x2="719.545" y2="379.0278" opacity="1" stroke="#02709F" stroke-opacity="1" stroke-width="0" stroke-linecap="butt" stroke-linejoin="miter" stroke-dasharray="none" /><line x1="716.1063" y1="382.1989" x2="719.545" y2="379.0278" opacity="1" stroke="#FFFFFF" stroke-opacity="1" stroke-width="0.39999" stroke-linecap="butt" stroke-linejoin="miter" stroke-dasharray="none" /></g></g><g><g><path d="M723.8765 293.7176 L723.8894 293.7003 L723.8995 293.6832 L723.9074 293.6656 L723.9117 293.6479 L723.9146 293.63 L723.9146 293.6119 L723.9132 293.5939 L723.9089 293.5755 L723.9031 293.5571 L723.8959 293.5385 L723.8872 293.52 L723.8765 293.5011 L723.8649 293.4821 L723.8513 293.4632 L723.8369 293.4441 L723.8224 293.425 L723.7893 293.3864 L723.7534 293.3475 L723.7166 293.3086 L723.6799 293.2695 L723.6432 293.2303 L723.6079 293.1912 L723.5755 293.1521 L723.5604 293.1325 L723.546 293.1131 L723.5338 293.0936 L723.5215 293.0743 L723.5121 293.0549 L723.5028 293.0356 L723.4963 293.0164 L723.4913 292.9973 L723.4869 292.9783 L723.4862 292.9594 L723.4869 292.9406 L723.4905 292.9219 L723.4963 292.9032 L723.5035 292.8847 L723.515 292.8664 L723.528 292.8482 L723.5446 292.8301 L723.564 292.8122 L723.5863 292.7944 L723.6122 292.7769 L723.6418 292.7595 L723.6741 292.7422 L723.7108 292.7252 L723.7303 292.7168 L723.7512 292.7083 L723.7728 292.7 L723.7951 292.6917 L723.8188 292.6834 L723.8441 292.6753 L723.8693 292.6671 L723.8959 292.6591 L723.9233 292.651 L723.9528 292.643 L723.9823 292.6351 L724.014 292.6273 L724.0457 292.6195 L724.0795 292.6118 L724.114 292.6041 L724.1494 292.5966 L724.186 292.589 L724.2242 292.5815 L724.2638 292.5742 L724.3049 292.5668 L724.3466 292.5595 L724.3891 292.5522 C725.5807 292.3571 729.1901 290.2334 720.7242 290.1228" opacity="1" stroke="#000000" stroke-opacity="1" stroke-width="0.39999" stroke-linecap="butt" stroke-linejoin="miter" stroke-dasharray="none" fill-opacity="0" /><path d="M704.5092 293.097 L704.5092 291.0317 L718.1956 291.0317 L718.1956 293.097 Z " opacity="1" fill="#036998" fill-opacity="1" /><path d="M704.5092 293.097 L718.1956 293.097 L718.1956 291.0317 L704.5092 291.0317 Z " opacity="1" stroke="#FFFFFF" stroke-opacity="1" stroke-width="0.39999" stroke-linecap="butt" stroke-linejoin="miter" stroke-dasharray="none" fill-opacity="0" /><path d="M718.1813 293.1058 L718.1813 291.0317 L720.9424 288.2205 L720.9424 290.3441 Z " opacity="1" fill="#036998" fill-opacity="1" /><path d="M718.1813 293.1058 L718.1813 291.0317 L720.9424 288.2205 L720.9424 290.3441 Z " opacity="1" stroke="#FFFFFF" stroke-opacity="1" stroke-width="0.39999" stroke-linecap="butt" stroke-linejoin="miter" stroke-dasharray="none" fill-opacity="0" /><path d="M704.5092 293.47 L704.5092 291.0317 L718.1956 291.0317 L718.1956 293.47 Z " opacity="1" fill="#036998" fill-opacity="1" /><path d="M704.5092 293.47 L718.1956 293.47 L718.1956 291.0317 L704.5092 291.0317 Z " opacity="1" stroke="#FFFFFF" stroke-opacity="1" stroke-width="0.39999" stroke-linecap="butt" stroke-linejoin="miter" stroke-dasharray="none" fill-opacity="0" /><path d="M718.1813 293.4788 L718.1813 291.0317 L720.9424 288.2205 L720.9424 290.7169 Z " opacity="1" fill="#036998" fill-opacity="1" /><path d="M718.1813 293.4788 L718.1813 291.0317 L720.9424 288.2205 L720.9424 290.7169 Z " opacity="1" stroke="#FFFFFF" stroke-opacity="1" stroke-width="0.39999" stroke-linecap="butt" stroke-linejoin="miter" stroke-dasharray="none" fill-opacity="0" /><path d="M721.9015 287.8477 L719.9669 290.6588 L702.9331 290.6588 L705.6749 287.8477 Z " opacity="1" fill="#036998" fill-opacity="1" /><path d="M721.9015 287.8477 L719.9669 290.6588 L702.9331 290.6588 L705.6749 287.8477 Z " opacity="1" stroke="#FFFFFF" stroke-opacity="1" stroke-width="0.39999" stroke-linecap="butt" stroke-linejoin="miter" stroke-dasharray="none" fill-opacity="0" /><path d="M702.8928 291.6055 L702.8928 290.6588 L719.1893 290.6588 L719.1893 291.6055 Z " opacity="1" fill="#036998" fill-opacity="1" /><path d="M702.8928 291.6055 L719.1893 291.6055 L719.1893 290.6588 L702.8928 290.6588 Z " opacity="1" stroke="#FFFFFF" stroke-opacity="1" stroke-width="0.39999" stroke-linecap="butt" stroke-linejoin="miter" stroke-dasharray="none" fill-opacity="0" /><path d="M719.1741 291.6142 L719.1741 290.6588 L721.936 287.8477 L721.936 288.853 Z " opacity="1" fill="#036998" fill-opacity="1" /><path d="M719.1741 291.6142 L719.1741 290.6588 L721.936 287.8477 L721.936 288.853 Z " opacity="1" stroke="#FFFFFF" stroke-opacity="1" stroke-width="0.39999" stroke-linecap="butt" stroke-linejoin="miter" stroke-dasharray="none" fill-opacity="0" /><path d="M721.9015 287.8477 L719.9669 290.6588 L702.9331 290.6588 L705.6749 287.8477 Z " opacity="1" fill="#036998" fill-opacity="1" /><path d="M721.9015 287.8477 L719.9669 290.6588 L702.9331 290.6588 L705.6749 287.8477 Z " opacity="1" stroke="#FFFFFF" stroke-opacity="1" stroke-width="0.39999" stroke-linecap="butt" stroke-linejoin="miter" stroke-dasharray="none" fill-opacity="0" /><path d="M702.8928 291.6055 L702.8928 290.6588 L719.1893 290.6588 L719.1893 291.6055 Z " opacity="1" fill="#036998" fill-opacity="1" /><path d="M702.8928 291.6055 L719.1893 291.6055 L719.1893 290.6588 L702.8928 290.6588 Z " opacity="1" stroke="#FFFFFF" stroke-opacity="1" stroke-width="0.39999" stroke-linecap="butt" stroke-linejoin="miter" stroke-dasharray="none" fill-opacity="0" /><path d="M719.1741 291.6142 L719.1741 290.6588 L721.936 287.8477 L721.936 288.853 Z " opacity="1" fill="#036998" fill-opacity="1" /><path d="M719.1741 291.6142 L719.1741 290.6588 L721.936 287.8477 L721.936 288.853 Z " opacity="1" stroke="#FFFFFF" stroke-opacity="1" stroke-width="0.39999" stroke-linecap="butt" stroke-linejoin="miter" stroke-dasharray="none" fill-opacity="0" /><path d="M721.9886 274.9219 L707.2711 274.9219 L702.9655 275.9355 L720.0137 275.9355 Z " opacity="1" fill="#036998" fill-opacity="1" /><path d="M721.9886 274.9219 L707.2711 274.9219 L702.9655 275.9355 L720.0137 275.9355 Z " opacity="1" stroke="#FFFFFF" stroke-opacity="1" stroke-width="0.39999" stroke-linecap="butt" stroke-linejoin="miter" stroke-dasharray="none" fill-opacity="0" /><path d="M719.2764 289.4644 L718.5218 288.844 L704.6956 288.844 L705.4243 289.4644 Z " opacity="1" fill="#036998" fill-opacity="1" /><path d="M719.2764 289.4644 L718.5218 288.844 L704.6956 288.844 L705.4243 289.4644 Z " opacity="1" stroke="#FFFFFF" stroke-opacity="1" stroke-width="0.39999" stroke-linecap="butt" stroke-linejoin="miter" stroke-dasharray="none" fill-opacity="0" /><path d="M719.3606 289.3563 L718.4088 288.7187 L721.9338 286.8542 L719.6644 289.0998 Z " opacity="1" fill="#036998" fill-opacity="1" /><path d="M719.3606 289.3563 L718.4088 288.7187 L721.9338 286.8542 L719.6644 289.0998 Z " opacity="1" stroke="#FFFFFF" stroke-opacity="1" stroke-width="0.39999" stroke-linecap="butt" stroke-linejoin="miter" stroke-dasharray="none" fill-opacity="0" /><path d="M720.0137 275.9355 L720.0137 288.6485 L721.9886 286.8103 L721.9886 274.9219 Z " opacity="1" fill="#036998" fill-opacity="1" /><path d="M720.0137 275.9355 L720.0137 288.6485 L721.9886 286.8103 L721.9886 274.9219 Z " opacity="1" stroke="#FFFFFF" stroke-opacity="1" stroke-width="0.39999" stroke-linecap="butt" stroke-linejoin="miter" stroke-dasharray="none" fill-opacity="0" /><path d="M720.0137 288.7888 L720.0137 275.9355 L702.9655 275.9355 L702.9655 288.7888 Z " opacity="1" fill="#036998" fill-opacity="1" /><path d="M702.9655 288.7888 L720.0137 288.7888 L720.0137 275.9355 L702.9655 275.9355 Z " opacity="1" stroke="#FFFFFF" stroke-opacity="1" stroke-width="0.39999" stroke-linecap="butt" stroke-linejoin="miter" stroke-dasharray="none" fill-opacity="0" /><path d="M718.5801 296.8055 L718.5801 295.8179 L720.7128 292.8669 L720.7128 294.6732 Z " opacity="1" fill="#036998" fill-opacity="1" /><path d="M718.5801 296.8055 L718.5801 295.8179 L720.7128 292.8669 L720.7128 294.6732 Z " opacity="1" stroke="#FFFFFF" stroke-opacity="1" stroke-width="0.39999" stroke-linecap="butt" stroke-linejoin="miter" stroke-dasharray="none" fill-opacity="0" /><path d="M718.5801 295.8326 L718.5801 296.8055 L699.7759 296.8055 L699.7759 295.8326 Z " opacity="1" fill="#036998" fill-opacity="1" /><path d="M699.7759 296.8055 L718.5801 296.8055 L718.5801 295.8326 L699.7759 295.8326 Z " opacity="1" stroke="#FFFFFF" stroke-opacity="1" stroke-width="0.39999" stroke-linecap="butt" stroke-linejoin="miter" stroke-dasharray="none" fill-opacity="0" /><path d="M723.9261 296.0249 L725.1753 293.5311 L722.3234 293.5311 L721.0771 296.0249 Z " opacity="1" fill="#036998" fill-opacity="1" /><path d="M723.9261 296.0249 L725.1753 293.5311 L722.3234 293.5311 L721.0771 296.0249 Z " opacity="1" stroke="#FFFFFF" stroke-opacity="1" stroke-width="0.39999" stroke-linecap="butt" stroke-linejoin="miter" stroke-dasharray="none" fill-opacity="0" /><path d="M721.0771 296.0249 L723.9261 296.0249 L723.9261 296.8289 L721.0771 296.8289 Z " opacity="1" fill="#036998" fill-opacity="1" /><path d="M721.0771 296.8289 L723.9261 296.8289 L723.9261 296.0249 L721.0771 296.0249 Z " opacity="1" stroke="#FFFFFF" stroke-opacity="1" stroke-width="0.39999" stroke-linecap="butt" stroke-linejoin="miter" stroke-dasharray="none" fill-opacity="0" /><path d="M723.906 296.8493 L723.9117 296.0249 L725.1588 293.5311 L725.1523 295.247 Z " opacity="1" fill="#036998" fill-opacity="1" /><path d="M723.906 296.8493 L723.9117 296.0249 L725.1588 293.5311 L725.1523 295.247 Z " opacity="1" stroke="#FFFFFF" stroke-opacity="1" stroke-width="0.39999" stroke-linecap="butt" stroke-linejoin="miter" stroke-dasharray="none" fill-opacity="0" /><path d="M718.5801 295.8326 L699.837 295.8326 L701.9691 292.8669 L720.7128 292.8669 Z " opacity="1" fill="#036998" fill-opacity="1" /><path d="M718.5801 295.8326 L699.837 295.8326 L701.9691 292.8669 L720.7128 292.8669 Z " opacity="1" stroke="#FFFFFF" stroke-opacity="1" stroke-width="0.39999" stroke-linecap="butt" stroke-linejoin="miter" stroke-dasharray="none" fill-opacity="0" /><path d="M705.4416 277.2785 L717.4152 277.2785 C718.1927 277.2785 718.8256 277.9081 718.8256 278.6889 L718.8256 286.2509 C718.8256 287.0317 718.1927 287.6641 717.4152 287.6641 L705.4416 287.6641 C704.6611 287.6641 704.0318 287.0317 704.0318 286.2509 L704.0318 278.6889 C704.0318 277.9081 704.6611 277.2785 705.4416 277.2785 Z " opacity="1" fill="#036998" fill-opacity="1" /><path d="M705.4416 277.2785 L717.4152 277.2785 C718.1927 277.2785 718.8256 277.9081 718.8256 278.6889 L718.8256 286.2509 C718.8256 287.0317 718.1927 287.6641 717.4152 287.6641 L705.4416 287.6641 C704.6611 287.6641 704.0318 287.0317 704.0318 286.2509 L704.0318 278.6889 C704.0318 277.9081 704.6611 277.2785 705.4416 277.2785 Z " opacity="1" stroke="#FFFFFF" stroke-opacity="1" stroke-width="0.39999" stroke-linecap="butt" stroke-linejoin="miter" stroke-dasharray="none" fill-opacity="0" /></g></g><text x="738.7759" y="360.1468" font-size="20" fill="#000000" fill-opacity="1" font-family="Arial" font-weight="normal" font-style="normal">🕑</text><g><text x="752.6643" y="325.3993" font-size="14" fill="#225486" fill-opacity="1" font-family="Gill Sans" font-weight="normal" font-style="normal">𝑓</text><text x="761.0791" y="325.9064" font-size="12" fill="#225486" fill-opacity="1" font-family="Times" font-weight="normal" font-style="normal">(v1, v2, ..)</text></g><g><text x="765.7073" y="356.0244" font-size="14" fill="#225486" fill-opacity="1" font-family="Gill Sans" font-weight="normal" font-style="normal">𝑓</text><text x="774.5299" y="356.4962" font-size="12" fill="#225486" fill-opacity="1" font-family="Times" font-weight="normal" font-style="normal">( t, v1, ..)</text></g><text x="740.4371" y="292.6344" font-size="12" fill="#225486" fill-opacity="1" font-family="Arial" font-weight="normal" font-style="normal">browser</text><line x1="599.4556" y1="289.4141" x2="599.4556" y2="381.7461" opacity="1" stroke="#0000FE" stroke-opacity="1" stroke-width="1" stroke-linecap="butt" stroke-linejoin="miter" stroke-dasharray="none" /><line x1="599.4556" y1="289.4141" x2="609.6919" y2="289.4141" opacity="1" stroke="#0000FE" stroke-opacity="1" stroke-width="1" stroke-linecap="butt" stroke-linejoin="miter" stroke-dasharray="none" /><line x1="599.9553" y1="322.9148" x2="610.1917" y2="322.9148" opacity="1" stroke="#0000FE" stroke-opacity="1" stroke-width="1" stroke-linecap="butt" stroke-linejoin="miter" stroke-dasharray="none" /><line x1="599.4551" y1="352.9154" x2="609.6913" y2="352.9154" opacity="1" stroke="#0000FE" stroke-opacity="1" stroke-width="1" stroke-linecap="butt" stroke-linejoin="miter" stroke-dasharray="none" /><line x1="599.4548" y1="381.416" x2="609.6911" y2="381.416" opacity="1" stroke="#0000FE" stroke-opacity="1" stroke-width="1" stroke-linecap="butt" stroke-linejoin="miter" stroke-dasharray="none" /><line x1="599.4556" y1="338.0801" x2="564.0863" y2="338.0801" marker-end="url(#marker4)" opacity="1" stroke="#0000FE" stroke-opacity="1" stroke-width="1" stroke-linecap="butt" stroke-linejoin="miter" stroke-dasharray="none" /></g></svg>