<?xml version="1.0" encoding="utf-8"?><svg width="100%" height="100%" version="1.1" viewBox="362.3984 140.4375 540.6016 299.0351" style="background-color:#FFFFFF" xmlns:xlink="http://www.w3.org/1999/xlink" xmlns="http://www.w3.org/2000/svg"><defs /><marker id="marker1" markerUnits="strokeWidth" orient="auto" refX="-5.086271" refY="0" markerWidth="7.636236" markerHeight="6.114774" viewBox="-6.636236 -3.057387 7.636236 6.114774"><path d="M-5.636236 -2.057387 L0 0 L-5.636236 2.057387 Z " fill="#0000FE" fill-opacity="1" stroke="#0000FE" stroke-opacity="1" /></marker><marker id="marker2" markerUnits="strokeWidth" orient="auto" refX="-5.086271" refY="0" markerWidth="7.636236" markerHeight="6.114774" viewBox="-6.636236 -3.057387 7.636236 6.114774"><path d="M-5.636236 -2.057387 L0 0 L-5.636236 2.057387 Z " fill="#0000FE" fill-opacity="1" stroke="#0000FE" stroke-opacity="1" /></marker><marker id="marker3" markerUnits="strokeWidth" orient="auto" refX="-5.086271" refY="0" markerWidth="7.636236" markerHeight="6.114774" viewBox="-6.636236 -3.057387 7.636236 6.114774"><path d="M-5.636236 -2.057387 L0 0 L-5.636236 2.057387 Z " fill="#0000FE" fill-opacity="1" stroke="#0000FE" stroke-opacity="1" /></marker><marker id="marker4" markerUnits="strokeWidth" orient="auto" refX="-5.086271" refY="0" markerWidth="7.636236" markerHeight="6.114774" viewBox="-6.636236 -3.057387 7.636236 6.114774"><path d="M-5.636236 -2.057387 L0 0 L-5.636236 2.057387 Z " fill="#0000FE" fill-opacity="1" stroke="#0000FE" stroke-opacity="1" /></marker><g id="layer1"><g><g><path d="M782.1007 299.9105 C768.5532 297.5425 754.8415 300.2529 745.3757 306.1412 C740.4314 302.2637 733.7355 299.27 725.7039 297.866 C705.0336 294.2535 683.7397 302.274 678.2008 315.7581 C677.7945 316.7498 677.686 317.7457 677.4681 318.7359 C658.8527 317.4745 641.0413 325.0766 636.0446 337.2437 C631.0941 349.2981 640.437 361.6252 657.2316 366.6934 C656.3185 367.9846 655.4656 369.3149 654.8826 370.7343 C649.3462 384.2193 661.6506 398.0819 682.3229 401.6943 C692.4457 403.4644 702.6778 402.425 711.1715 399.3401 C715.8525 405.8738 724.58 411.1314 736.0855 413.1417 C752.4987 416.012 769.1566 411.4658 778.1494 402.7536 C781.7925 404.4366 785.8404 405.8283 790.4023 406.6258 C811.0721 410.2379 832.3215 402.21 837.859 388.7245 C840.6439 381.9443 838.9224 375.0827 833.8939 369.4579 C838.8705 366.3628 842.7629 362.4417 844.673 357.7959 C850.2112 344.312 837.9043 330.4497 817.2346 326.8363 C815.0587 326.4557 812.88 326.2407 810.7085 326.1126 C811.9951 314.2705 800.3282 303.098 782.1007 299.9105 Z " opacity="1" stroke="#FB0106" stroke-opacity="0.2528059" stroke-width="1" stroke-linecap="butt" stroke-linejoin="round" stroke-dasharray="none" fill="#FEECF8" fill-opacity="0.4455876" /></g></g><g><g><path d="M480.6568 307.4741 C470.3925 305.9518 460.0052 307.6944 452.8339 311.48 C449.0878 308.9872 444.0146 307.0623 437.9298 306.1598 C422.2692 303.8372 406.1379 308.9937 401.9412 317.663 C401.6344 318.3006 401.5517 318.9409 401.3859 319.5775 C387.2828 318.7664 373.7884 323.654 370.0033 331.4766 C366.2521 339.2268 373.3304 347.1521 386.055 350.4106 C385.3625 351.2408 384.7169 352.0961 384.274 353.0086 C380.0808 361.6784 389.4029 370.591 405.0645 372.9136 C412.7334 374.0516 420.4853 373.3833 426.9197 371.3999 C430.4665 375.6006 437.0788 378.9809 445.7953 380.2733 C458.2313 382.1187 470.8503 379.1959 477.6628 373.5946 C480.4243 374.6766 483.4907 375.5714 486.9456 376.0841 C502.606 378.4065 518.7043 373.2451 522.8997 364.5749 C525.0086 360.2157 523.7046 355.8043 519.8962 352.1879 C523.6655 350.198 526.6151 347.6771 528.0622 344.6902 C532.2584 336.021 522.9338 327.1085 507.2748 324.7855 C505.6265 324.5407 503.9753 324.4026 502.3311 324.3202 C503.3048 316.7066 494.4666 309.5234 480.6568 307.4741 Z " opacity="1" stroke="#FB0106" stroke-opacity="0.2528059" stroke-width="1" stroke-linecap="butt" stroke-linejoin="round" stroke-dasharray="none" fill="#FEECF8" fill-opacity="0.4455876" /></g></g><g><g><path d="M598.5836 317.2866 C592.9059 315.7642 587.16 317.5068 583.1932 321.2925 C581.1216 318.7996 578.3152 316.8748 574.9493 315.9722 C566.2864 313.6497 557.3635 318.8062 555.0421 327.4755 C554.8724 328.1131 554.8267 328.7533 554.7349 329.39 C546.9337 328.5789 539.4687 333.4665 537.3748 341.2891 C535.2999 349.0392 539.2161 356.9645 546.2548 360.223 C545.8712 361.0532 545.5142 361.9084 545.2695 362.821 C542.9498 371.4908 548.1064 380.4034 556.7698 382.726 C561.0118 383.864 565.2997 383.1957 568.8591 381.2124 C570.8209 385.4131 574.4788 388.7933 579.3003 390.0858 C586.179 391.9312 593.1594 389.0084 596.9277 383.407 C598.4554 384.4891 600.1512 385.3837 602.0623 385.8965 C610.725 388.219 619.6306 383.0576 621.9496 374.3873 C623.1176 370.0281 622.3961 365.6167 620.2896 362.0004 C622.3749 360.0104 624.0059 357.4896 624.8068 354.5026 C627.1272 345.8334 621.97 336.921 613.3074 334.5979 C612.3953 334.3532 611.4827 334.215 610.5731 334.1326 C611.1115 326.5191 606.2233 319.3359 598.5836 317.2866 Z " opacity="1" stroke="#FB0106" stroke-opacity="0.2528059" stroke-width="1" stroke-linecap="butt" stroke-linejoin="round" stroke-dasharray="none" fill="#FEECF8" fill-opacity="0.4455876" /></g></g><g><g><path d="M596.2452 207.2093 C590.5674 205.6869 584.8216 207.4296 580.8549 211.2152 C578.7831 208.7223 575.9767 206.7975 572.6109 205.8949 C563.948 203.5724 555.025 208.7289 552.7036 217.3982 C552.5341 218.0358 552.4883 218.676 552.3965 219.3127 C544.5953 218.5016 537.1303 223.3892 535.0364 231.2118 C532.9615 238.9619 536.8777 246.8873 543.9164 250.1457 C543.5328 250.9759 543.1757 251.8311 542.931 252.7438 C540.6113 261.4136 545.7681 270.3262 554.4314 272.6487 C558.6734 273.7868 562.9613 273.1185 566.5207 271.1351 C568.4824 275.3358 572.1403 278.716 576.9619 280.0085 C583.8405 281.8539 590.821 278.9311 594.5893 273.3298 C596.1169 274.4118 597.8128 275.3065 599.7239 275.8192 C608.3866 278.1417 617.2921 272.9803 619.6112 264.3101 C620.7792 259.9509 620.0576 255.5395 617.9512 251.9231 C620.0365 249.9332 621.6674 247.4123 622.4683 244.4253 C624.7888 235.7561 619.6315 226.8437 610.9689 224.5206 C610.0568 224.2759 609.1442 224.1377 608.2347 224.0554 C608.7731 216.4418 603.8848 209.2586 596.2452 207.2093 Z " opacity="1" stroke="#FB0106" stroke-opacity="0.2528059" stroke-width="1" stroke-linecap="butt" stroke-linejoin="round" stroke-dasharray="none" fill="#FEECF8" fill-opacity="0.4455876" /></g></g><rect x="558" y="225" width="45" height="36" opacity="1" stroke="#FB0106" stroke-opacity="1" stroke-width="1" stroke-linecap="butt" stroke-linejoin="miter" stroke-dasharray="none" fill="#FED3C8" fill-opacity="1" /><text x="578.2051" y="248.5336" font-size="12" fill="#FB0106" fill-opacity="1" font-family="Arial" font-weight="normal" font-style="normal">C</text><rect x="450" y="324" width="45" height="36" opacity="1" stroke="#FB0106" stroke-opacity="1" stroke-width="1" stroke-linecap="butt" stroke-linejoin="miter" stroke-dasharray="none" fill="#FED3C8" fill-opacity="1" /><text x="467.8906" y="347.5336" font-size="12" fill="#FB0106" fill-opacity="1" font-family="Arial" font-weight="normal" font-style="normal">P1</text><rect x="558" y="333" width="45" height="36" opacity="1" stroke="#FB0106" stroke-opacity="1" stroke-width="1" stroke-linecap="butt" stroke-linejoin="miter" stroke-dasharray="none" fill="#FED3C8" fill-opacity="1" /><text x="575.0938" y="356.5336" font-size="12" fill="#FB0106" fill-opacity="1" font-family="Arial" font-weight="normal" font-style="normal">P2</text><rect x="666" y="324" width="45" height="36" opacity="1" stroke="#FB0106" stroke-opacity="1" stroke-width="1" stroke-linecap="butt" stroke-linejoin="miter" stroke-dasharray="none" fill="#FED3C8" fill-opacity="1" /><text x="682.9268" y="347.5336" font-size="12" fill="#FB0106" fill-opacity="1" font-family="Arial" font-weight="normal" font-style="normal">P3</text><line x1="560.8636" y1="261" x2="492.1364" y2="324" opacity="1" stroke="#FB0106" stroke-opacity="1" stroke-width="1" stroke-linecap="butt" stroke-linejoin="miter" stroke-dasharray="none" /><line x1="580.5" y1="261" x2="580.5" y2="333" opacity="1" stroke="#FB0106" stroke-opacity="1" stroke-width="1" stroke-linecap="butt" stroke-linejoin="miter" stroke-dasharray="none" /><line x1="600.1364" y1="261" x2="668.8636" y2="324" opacity="1" stroke="#FB0106" stroke-opacity="1" stroke-width="1" stroke-linecap="butt" stroke-linejoin="miter" stroke-dasharray="none" /><line x1="589.709" y1="225" x2="631.4375" y2="143.4375" opacity="1" stroke="#FB0106" stroke-opacity="1" stroke-width="1" stroke-linecap="butt" stroke-linejoin="miter" stroke-dasharray="none" /><line x1="459.6323" y1="360" x2="406.5586" y2="434.2421" opacity="1" stroke="#FB0106" stroke-opacity="1" stroke-width="1" stroke-linecap="butt" stroke-linejoin="miter" stroke-dasharray="none" /><line x1="476.8979" y1="360" x2="495.582" y2="436.4726" opacity="1" stroke="#FB0106" stroke-opacity="1" stroke-width="1" stroke-linecap="butt" stroke-linejoin="miter" stroke-dasharray="none" /><line x1="679.5" y1="360" x2="648" y2="423" opacity="1" stroke="#FB0106" stroke-opacity="1" stroke-width="1" stroke-linecap="butt" stroke-linejoin="miter" stroke-dasharray="none" /><line x1="690.4324" y1="360" x2="697.6523" y2="427.2539" opacity="1" stroke="#FB0106" stroke-opacity="1" stroke-width="1" stroke-linecap="butt" stroke-linejoin="miter" stroke-dasharray="none" /><line x1="703.4766" y1="360" x2="755.9337" y2="423.0469" opacity="1" stroke="#FB0106" stroke-opacity="1" stroke-width="1" stroke-linecap="butt" stroke-linejoin="miter" stroke-dasharray="none" /><rect x="711" y="207" width="9" height="45" opacity="1" stroke="#0000FE" stroke-opacity="1" stroke-width="1" stroke-linecap="butt" stroke-linejoin="miter" stroke-dasharray="none" fill="#0000FE" fill-opacity="0.09930678" /><line x1="711" y1="216" x2="720" y2="216" opacity="1" stroke="#0000FE" stroke-opacity="1" stroke-width="1" stroke-linecap="butt" stroke-linejoin="miter" stroke-dasharray="none" /><line x1="711" y1="225" x2="720" y2="225" opacity="1" stroke="#0000FE" stroke-opacity="1" stroke-width="1" stroke-linecap="butt" stroke-linejoin="miter" stroke-dasharray="none" /><line x1="711" y1="234" x2="720" y2="234" opacity="1" stroke="#0000FE" stroke-opacity="1" stroke-width="1" stroke-linecap="butt" stroke-linejoin="miter" stroke-dasharray="none" /><line x1="711" y1="243" x2="720" y2="243" opacity="1" stroke="#0000FE" stroke-opacity="1" stroke-width="1" stroke-linecap="butt" stroke-linejoin="miter" stroke-dasharray="none" /><rect x="729" y="207" width="9" height="45" opacity="1" stroke="#0000FE" stroke-opacity="1" stroke-width="1" stroke-linecap="butt" stroke-linejoin="miter" stroke-dasharray="none" fill="#0000FE" fill-opacity="0.09930678" /><line x1="729" y1="216" x2="738" y2="216" opacity="1" stroke="#0000FE" stroke-opacity="1" stroke-width="1" stroke-linecap="butt" stroke-linejoin="miter" stroke-dasharray="none" /><line x1="729" y1="225" x2="738" y2="225" opacity="1" stroke="#0000FE" stroke-opacity="1" stroke-width="1" stroke-linecap="butt" stroke-linejoin="miter" stroke-dasharray="none" /><line x1="729" y1="234" x2="738" y2="234" opacity="1" stroke="#0000FE" stroke-opacity="1" stroke-width="1" stroke-linecap="butt" stroke-linejoin="miter" stroke-dasharray="none" /><line x1="729" y1="243" x2="738" y2="243" opacity="1" stroke="#0000FE" stroke-opacity="1" stroke-width="1" stroke-linecap="butt" stroke-linejoin="miter" stroke-dasharray="none" /><rect x="747" y="207" width="9" height="45" opacity="1" stroke="#0000FE" stroke-opacity="1" stroke-width="1" stroke-linecap="butt" stroke-linejoin="miter" stroke-dasharray="none" fill="#0000FE" fill-opacity="0.09930678" /><line x1="747" y1="216" x2="756" y2="216" opacity="1" stroke="#0000FE" stroke-opacity="1" stroke-width="1" stroke-linecap="butt" stroke-linejoin="miter" stroke-dasharray="none" /><line x1="747" y1="225" x2="756" y2="225" opacity="1" stroke="#0000FE" stroke-opacity="1" stroke-width="1" stroke-linecap="butt" stroke-linejoin="miter" stroke-dasharray="none" /><line x1="747" y1="234" x2="756" y2="234" opacity="1" stroke="#0000FE" stroke-opacity="1" stroke-width="1" stroke-linecap="butt" stroke-linejoin="miter" stroke-dasharray="none" /><line x1="747" y1="243" x2="756" y2="243" opacity="1" stroke="#0000FE" stroke-opacity="1" stroke-width="1" stroke-linecap="butt" stroke-linejoin="miter" stroke-dasharray="none" /><text x="712.8068" y="201.1113" font-size="10" fill="#0000FE" fill-opacity="1" font-family="Arial" font-weight="normal" font-style="normal">P1</text><text x="729.6339" y="201.1113" font-size="10" fill="#0000FE" fill-opacity="1" font-family="Arial" font-weight="normal" font-style="normal">P2</text><text x="747.4948" y="201.1113" font-size="10" fill="#0000FE" fill-opacity="1" font-family="Arial" font-weight="normal" font-style="normal">P3</text><text x="736.1561" y="185.6285" font-size="10" fill="#0000FE" fill-opacity="1" font-family="Arial" font-weight="normal" font-style="normal">columns </text><text x="770.9696" y="222.6531" font-size="10" fill="#0000FE" fill-opacity="1" font-family="Arial" font-weight="normal" font-style="normal">y</text><text x="770.3999" y="213.8551" font-size="10" fill="#0000FE" fill-opacity="1" font-family="Arial" font-weight="normal" font-style="normal">x</text><text x="770.3511" y="241.3569" font-size="14" fill="#0000FE" fill-opacity="1" font-family="Arial" font-weight="normal" font-style="normal">⋮</text><text x="795.0336" y="225.4646" font-size="10" fill="#0000FE" fill-opacity="1" font-family="Arial" font-weight="normal" font-style="normal">typed
</text><text x="778.8934" y="237.4646" font-size="10" fill="#0000FE" fill-opacity="1" font-family="Arial" font-weight="normal" font-style="normal">rows (fields)</text><g><g><path d="M762.5959 314.9817 L763.3455 315.9501 L761.3208 327.046 L760.3942 326.4732 Z " opacity="1" fill="#02709F" fill-opacity="1" /><path d="M762.5959 314.9817 L763.3455 315.9501 L761.3208 327.046 L760.3942 326.4732 Z " opacity="1" stroke="#FFFFFF" stroke-opacity="1" stroke-width="0.39999" stroke-linecap="butt" stroke-linejoin="miter" stroke-dasharray="none" fill-opacity="0" /><path d="M740.939 326.4732 L741.775 327.046 L761.3208 327.046 L760.3942 326.4732 Z " opacity="1" fill="#000000" fill-opacity="1" /><path d="M740.939 326.4732 L741.775 327.046 L761.3208 327.046 L760.3942 326.4732 Z " opacity="1" stroke="#FFFFFF" stroke-opacity="1" stroke-width="0.2" stroke-linecap="butt" stroke-linejoin="miter" stroke-dasharray="none" fill-opacity="0" /><path d="M760.5706 327.3743 L760.5706 329.3336 L760.0666 329.7749 C760.0666 329.7749 758.8764 330.1252 759.1392 330.8302 L753.8364 335.7633 L753.8364 333.6046 Z " opacity="1" fill="#02709F" fill-opacity="1" /><path d="M760.5706 327.3743 L760.5706 329.3336 L760.0666 329.7749 C760.0666 329.7749 758.8764 330.1252 759.1392 330.8302 L753.8364 335.7633 L753.8364 333.6046 Z " opacity="1" stroke="#FFFFFF" stroke-opacity="1" stroke-width="0.39999" stroke-linecap="butt" stroke-linejoin="miter" stroke-dasharray="none" fill-opacity="0" /><path d="M732.7289 333.6046 L732.7289 335.7633 L753.8364 335.7633 L753.8364 333.6046 Z " opacity="1" fill="#02709F" fill-opacity="1" /><path d="M732.7289 333.6046 L732.7289 335.7633 L753.8364 335.7633 L753.8364 333.6046 Z " opacity="1" stroke="#FFFFFF" stroke-opacity="1" stroke-width="0.39999" stroke-linecap="butt" stroke-linejoin="miter" stroke-dasharray="none" fill-opacity="0" /><path d="M741.1601 327.5061 L760.5706 327.3743 L753.8364 333.6046 L732.7289 333.6046 Z " opacity="1" fill="#02709F" fill-opacity="1" /><path d="M741.1601 327.5061 L760.5706 327.3743 L753.8364 333.6046 L732.7289 333.6046 Z " opacity="1" stroke="#FFFFFF" stroke-opacity="1" stroke-width="0.39999" stroke-linecap="butt" stroke-linejoin="miter" stroke-dasharray="none" fill-opacity="0" /><path d="M760.3942 326.4732 L762.5959 314.9817 L743.449 314.9817 L740.939 326.4732 Z " opacity="1" fill="#02709F" fill-opacity="1" /><path d="M760.3942 326.4732 L762.5959 314.9817 L743.449 314.9817 L740.939 326.4732 Z " opacity="1" stroke="#FFFFFF" stroke-opacity="1" stroke-width="0.39999" stroke-linecap="butt" stroke-linejoin="miter" stroke-dasharray="none" fill-opacity="0" /><path d="M758.772 325.187 L760.4683 316.5594 L744.8969 316.5594 L743.2013 325.187 Z " opacity="1" fill="#02709F" fill-opacity="1" /><path d="M758.772 325.187 L760.4683 316.5594 L744.8969 316.5594 L743.2013 325.187 Z " opacity="1" stroke="#FFFFFF" stroke-opacity="1" stroke-width="0.39999" stroke-linecap="butt" stroke-linejoin="miter" stroke-dasharray="none" fill-opacity="0" /><line x1="741.6158" y1="327.6469" x2="736.7169" y2="331.5995" opacity="1" stroke="#FFFFFF" stroke-opacity="1" stroke-width="0.10001" stroke-linecap="butt" stroke-linejoin="miter" stroke-dasharray="none" /><line x1="743.1868" y1="327.6469" x2="738.2902" y2="331.5995" opacity="1" stroke="#FFFFFF" stroke-opacity="1" stroke-width="0.10001" stroke-linecap="butt" stroke-linejoin="miter" stroke-dasharray="none" /><line x1="744.7587" y1="327.6469" x2="739.8627" y2="331.5995" opacity="1" stroke="#FFFFFF" stroke-opacity="1" stroke-width="0.10001" stroke-linecap="butt" stroke-linejoin="miter" stroke-dasharray="none" /><line x1="746.3304" y1="327.6469" x2="741.4352" y2="331.5995" opacity="1" stroke="#FFFFFF" stroke-opacity="1" stroke-width="0.10001" stroke-linecap="butt" stroke-linejoin="miter" stroke-dasharray="none" /><line x1="747.9029" y1="327.6469" x2="743.0076" y2="331.5995" opacity="1" stroke="#FFFFFF" stroke-opacity="1" stroke-width="0.10001" stroke-linecap="butt" stroke-linejoin="miter" stroke-dasharray="none" /><line x1="749.4761" y1="327.6469" x2="744.5793" y2="331.5995" opacity="1" stroke="#FFFFFF" stroke-opacity="1" stroke-width="0.10001" stroke-linecap="butt" stroke-linejoin="miter" stroke-dasharray="none" /><line x1="751.0471" y1="327.6469" x2="746.1525" y2="331.5995" opacity="1" stroke="#FFFFFF" stroke-opacity="1" stroke-width="0.10001" stroke-linecap="butt" stroke-linejoin="miter" stroke-dasharray="none" /><line x1="752.6204" y1="327.6469" x2="747.7236" y2="331.5995" opacity="1" stroke="#FFFFFF" stroke-opacity="1" stroke-width="0.10001" stroke-linecap="butt" stroke-linejoin="miter" stroke-dasharray="none" /><line x1="754.1921" y1="327.6469" x2="749.2968" y2="331.5995" opacity="1" stroke="#FFFFFF" stroke-opacity="1" stroke-width="0.10001" stroke-linecap="butt" stroke-linejoin="miter" stroke-dasharray="none" /><line x1="755.7653" y1="327.6469" x2="750.8685" y2="331.5995" opacity="1" stroke="#FFFFFF" stroke-opacity="1" stroke-width="0.10001" stroke-linecap="butt" stroke-linejoin="miter" stroke-dasharray="none" /><line x1="757.337" y1="327.6469" x2="752.4396" y2="331.5995" opacity="1" stroke="#FFFFFF" stroke-opacity="1" stroke-width="0.10001" stroke-linecap="butt" stroke-linejoin="miter" stroke-dasharray="none" /><line x1="758.9095" y1="327.6469" x2="754.0114" y2="331.5995" opacity="1" stroke="#FFFFFF" stroke-opacity="1" stroke-width="0.10001" stroke-linecap="butt" stroke-linejoin="miter" stroke-dasharray="none" /><line x1="737.2649" y1="331.1814" x2="754.6954" y2="331.1814" opacity="1" stroke="#FFFFFF" stroke-opacity="1" stroke-width="0.10001" stroke-linecap="butt" stroke-linejoin="miter" stroke-dasharray="none" /><line x1="738.4399" y1="330.2774" x2="755.5997" y2="330.2774" opacity="1" stroke="#FFFFFF" stroke-opacity="1" stroke-width="0.10001" stroke-linecap="butt" stroke-linejoin="miter" stroke-dasharray="none" /><line x1="739.6553" y1="329.3706" x2="756.7704" y2="329.3706" opacity="1" stroke="#FFFFFF" stroke-opacity="1" stroke-width="0.10001" stroke-linecap="butt" stroke-linejoin="miter" stroke-dasharray="none" /><line x1="740.736" y1="328.464" x2="757.9886" y2="328.464" opacity="1" stroke="#FFFFFF" stroke-opacity="1" stroke-width="0.10001" stroke-linecap="butt" stroke-linejoin="miter" stroke-dasharray="none" /></g></g><line x1="711" y1="335.7162" x2="742.0451" y2="327.046" opacity="1" stroke="#000000" stroke-opacity="1" stroke-width="1" stroke-linecap="butt" stroke-linejoin="miter" stroke-dasharray="none" /><line x1="431.789" y1="330.9381" x2="449.2814" y2="335.1592" opacity="1" stroke="#000000" stroke-opacity="1" stroke-width="1" stroke-linecap="butt" stroke-linejoin="miter" stroke-dasharray="none" /><line x1="448.9953" y1="341.7283" x2="429.894" y2="344.6721" opacity="1" stroke="#000000" stroke-opacity="1" stroke-width="1" stroke-linecap="butt" stroke-linejoin="miter" stroke-dasharray="none" /><line x1="449.8157" y1="350.234" x2="432.1267" y2="358.7319" opacity="1" stroke="#000000" stroke-opacity="1" stroke-width="1" stroke-linecap="butt" stroke-linejoin="miter" stroke-dasharray="none" /><g><g><path d="M771.6499 344.5893 L771.6737 344.5587 L771.6938 344.5284 L771.714 344.5012 L771.737 344.4728 L771.7565 344.4473 L771.7745 344.4225 L771.7925 344.3985 L771.8105 344.3741 L771.8285 344.353 L771.8458 344.3316 L771.8609 344.311 L771.8753 344.291 L771.8918 344.2715 L771.9062 344.2537 L771.9192 344.2356 L771.9343 344.2203 L771.9466 344.2041 L771.9588 344.1892 L771.9718 344.1741 L771.9825 344.1589 L772.0056 344.1331 L772.0272 344.1093 L772.0452 344.0871 L772.0632 344.0664 L772.0812 344.0489 L772.0984 344.0315 L772.1136 344.0151 L772.128 344 L772.1424 343.9866 L772.1553 343.9742 L772.1819 343.9483 L772.2079 343.9226 L772.2216 343.9082 L772.2352 343.895 L772.2482 343.8808 L772.2626 343.8651 L772.2785 343.8476 L772.2936 343.8304 L772.3102 343.81 L772.3281 343.7888 C774.2657 341.4098 776.2407 342.5602 774.9008 344.7688 C773.7948 346.5961 773.6788 346.7165 773.2512 347.3224 C772.4995 348.3863 771.7399 349.5547 771.21 350.4018" opacity="1" stroke="#000000" stroke-opacity="1" stroke-width="0.4" stroke-linecap="butt" stroke-linejoin="miter" stroke-dasharray="none" fill-opacity="0" /><path d="M773.5795 346.9142 L773.6703 346.8066 L773.7625 346.7036 L773.8546 346.6058 L773.9446 346.5132 L774.0345 346.425 L774.1246 346.3424 L774.2138 346.2641 L774.3024 346.1894 L774.3917 346.1212 L774.4802 346.0559 L774.5637 345.9955 L774.6516 345.9402 L774.7351 345.8886 L774.8186 345.8405 L774.9022 345.799 L774.9835 345.759 L775.0634 345.7258 L775.1419 345.6959 L775.2218 345.6693 L775.2953 345.6459 L775.3716 345.629 L775.4457 345.6147 L775.517 345.604 L775.5854 345.5961 L775.6545 345.5944 L775.72 345.5944 L775.7834 345.599 L775.8461 345.6058 L775.908 345.6178 L775.9649 345.6324 L776.0211 345.6508 L776.0751 345.6716 L776.1254 345.697 L776.1773 345.7258 L776.2234 345.7573 L776.2673 345.7903 L776.3062 345.8293 L776.3479 345.8689 L776.3832 345.9123 L776.4156 345.9586 L776.4473 346.0087 L776.4753 346.061 L776.4984 346.116 L776.5208 346.1736 L776.5394 346.2336 L776.5532 346.2962 L776.566 346.3618 L776.574 346.4294 L776.5784 346.499 L776.5805 346.5721 L776.5776 346.6465 L776.5732 346.7241 L776.564 346.8043 L776.5495 346.8859 L776.533 346.9691 L776.5121 347.0556 L776.4875 347.143 L776.4588 347.2327 L776.4257 347.3243 L776.3875 347.4177 L776.3487 347.5124 L776.3033 347.6096 L776.2507 347.7081 L776.1967 347.8093 C775.1678 349.6538 774.8914 349.727 774.5162 350.3743 C773.8178 351.5784 774.0353 351.3871 773.5054 352.2354" opacity="1" stroke="#000000" stroke-opacity="1" stroke-width="0.4" stroke-linecap="butt" stroke-linejoin="miter" stroke-dasharray="none" fill-opacity="0" /><path d="M769.6267 347.4352 L769.6749 347.3839 L769.7203 347.3359 L769.7635 347.2885 L769.8067 347.2441 L769.8816 347.1549 L769.955 347.0689 L770.0249 346.9796 L770.0961 346.8864 L770.1321 346.8353 L770.1682 346.784 L770.2078 346.7282 L770.2488 346.6712 L770.2899 346.6096 L770.3338 346.5433 L770.382 346.4734 L770.431 346.3987 L770.4843 346.3184 L770.5404 346.2336 L770.6016 346.1427 L770.665 346.0454 L770.7362 345.9402 L770.7729 345.8861 L770.809 345.8293 L770.8464 345.7699 L770.8882 345.711 L770.9277 345.6475 L770.9717 345.5842 L771.0163 345.5175 L771.0617 345.4496 L771.1085 345.3787 L771.1589 345.3065 L771.2078 345.2304 L771.2604 345.1534 L771.3144 345.0734 L771.3691 344.9916 C772.8811 342.7589 770.7571 341.6679 768.7786 343.9844 C766.6848 346.4371 766.1548 347.1384 764.995 348.2274 C763.8307 349.3158 761.665 353.5615 760.2984 354.7136 C759.3912 355.4804 760.6743 352.4756 760.5569 351.5976 C760.3063 349.6966 760.2473 349.9145 759.9794 349.2449 C759.708 348.5777 758.0333 347.3883 757.6797 348.4186 C757.4998 348.9511 757.5847 348.9683 757.7165 349.5748 C757.7863 349.886 757.512 349.7943 757.5898 351.2861 C757.6351 352.1309 755.9676 354.6423 755.465 355.7623 C754.3929 358.1364 755.5752 358.2619 755.1345 360.2379 C754.6551 362.4042 755.2209 361.9542 754.7407 362.8786 C754.2576 363.803 751.5252 367.3614 751.2573 367.9307" opacity="1" stroke="#000000" stroke-opacity="1" stroke-width="0.4" stroke-linecap="butt" stroke-linejoin="miter" stroke-dasharray="none" fill-opacity="0" /><path d="M761.1271 355.7647 C762.7255 356.5008 761.2444 360.5001 761.2444 360.5001" opacity="1" stroke="#000000" stroke-opacity="1" stroke-width="0.4" stroke-linecap="butt" stroke-linejoin="miter" stroke-dasharray="none" fill-opacity="0" /><path d="M760.3676 355.4781 C759.9902 355.0899 759.9794 354.8329 759.9794 354.8329" opacity="1" stroke="#000000" stroke-opacity="1" stroke-width="0.4" stroke-linecap="butt" stroke-linejoin="miter" stroke-dasharray="none" fill-opacity="0" /><path d="M755.5485 358.6305 L767.7676 358.6305 L775.6165 346.9729 L763.9935 346.9729 Z " opacity="1" fill="#00AAD7" fill-opacity="1" /><path d="M755.5485 358.6305 L767.7676 358.6305 L775.6165 346.9729 L763.9935 346.9729 Z " opacity="1" stroke="#FFFFFF" stroke-opacity="1" stroke-width="0.4" stroke-linecap="butt" stroke-linejoin="miter" stroke-dasharray="none" fill-opacity="0" /><path d="M755.5485 358.6305 L755.5485 360.5573 L767.7676 360.5573 L767.7676 358.6305 Z " opacity="1" fill="#00AAD7" fill-opacity="1" /><path d="M755.5485 360.5573 L767.7676 360.5573 L767.7676 358.6305 L755.5485 358.6305 Z " opacity="1" stroke="#FFFFFF" stroke-opacity="1" stroke-width="0.4" stroke-linecap="butt" stroke-linejoin="miter" stroke-dasharray="none" fill-opacity="0" /><path d="M775.6165 346.9729 L775.6165 348.7794 L767.7676 360.5573 L767.7676 358.6305 Z " opacity="1" fill="#00AAD7" fill-opacity="1" /><path d="M775.6165 346.9729 L775.6165 348.7794 L767.7676 360.5573 L767.7676 358.6305 Z " opacity="1" stroke="#FFFFFF" stroke-opacity="1" stroke-width="0.4" stroke-linecap="butt" stroke-linejoin="miter" stroke-dasharray="none" fill-opacity="0" /><path d="M773.5687 348.1484 L768.3991 355.9453 L758.8606 355.9453 L764.4333 348.1484 Z " opacity="1" fill="#FFFFFF" fill-opacity="1" /><path d="M773.5687 348.1484 L768.3991 355.9453 L758.8606 355.9453 L764.4333 348.1484 Z " opacity="1" stroke="#FFFFFF" stroke-opacity="1" stroke-width="0.1926" stroke-linecap="butt" stroke-linejoin="miter" stroke-dasharray="none" fill-opacity="0" /><path d="M759.3379 357.0263 L758.767 357.8774 L757.6711 357.8774 L758.2781 357.0263 Z " opacity="1" fill="#FFFFFF" fill-opacity="1" /><path d="M759.3379 357.0263 L758.767 357.8774 L757.6711 357.8774 L758.2781 357.0263 Z " opacity="1" stroke="#FFFFFF" stroke-opacity="1" stroke-width="0.1926" stroke-linecap="butt" stroke-linejoin="miter" stroke-dasharray="none" fill-opacity="0" /><path d="M767.7856 357.0263 L767.2176 357.8774 L766.1224 357.8774 L766.7294 357.0263 Z " opacity="1" fill="#FFFFFF" fill-opacity="1" /><path d="M767.7856 357.0263 L767.2176 357.8774 L766.1224 357.8774 L766.7294 357.0263 Z " opacity="1" stroke="#FFFFFF" stroke-opacity="1" stroke-width="0.1926" stroke-linecap="butt" stroke-linejoin="miter" stroke-dasharray="none" fill-opacity="0" /><path d="M765.6775 357.0263 L765.1087 357.8774 L764.0165 357.8774 L764.6191 357.0263 Z " opacity="1" fill="#FFFFFF" fill-opacity="1" /><path d="M765.6775 357.0263 L765.1087 357.8774 L764.0165 357.8774 L764.6191 357.0263 Z " opacity="1" stroke="#FFFFFF" stroke-opacity="1" stroke-width="0.1926" stroke-linecap="butt" stroke-linejoin="miter" stroke-dasharray="none" fill-opacity="0" /><path d="M763.4714 357.0263 L762.9033 357.8774 L761.8097 357.8774 L762.416 357.0263 Z " opacity="1" fill="#FFFFFF" fill-opacity="1" /><path d="M763.4714 357.0263 L762.9033 357.8774 L761.8097 357.8774 L762.416 357.0263 Z " opacity="1" stroke="#FFFFFF" stroke-opacity="1" stroke-width="0.1926" stroke-linecap="butt" stroke-linejoin="miter" stroke-dasharray="none" fill-opacity="0" /><path d="M761.3849 357.0263 L760.8146 357.8774 L759.7231 357.8774 L760.3251 357.0263 Z " opacity="1" fill="#FFFFFF" fill-opacity="1" /><path d="M761.3849 357.0263 L760.8146 357.8774 L759.7231 357.8774 L760.3251 357.0263 Z " opacity="1" stroke="#FFFFFF" stroke-opacity="1" stroke-width="0.1926" stroke-linecap="butt" stroke-linejoin="miter" stroke-dasharray="none" fill-opacity="0" /><path d="M759.7318 371.2451 L759.7663 371.2013 L759.8045 371.1553 L759.8441 371.1039 L759.8909 371.0475 L759.9406 370.9874 L759.991 370.9246 L760.104 370.7871 L760.2278 370.6373 L760.3618 370.4746 L760.505 370.3025 L760.6562 370.1198 L760.8168 369.9301 L760.981 369.7345 L761.1516 369.532 L761.3244 369.326 L761.6808 368.9073 L762.0401 368.488 L762.2187 368.2801 L762.3958 368.0774 L762.5693 367.8788 L762.7385 367.686 L762.9026 367.5005 L763.0588 367.3251 L763.2101 367.1595 L763.3527 367.004 L763.4851 366.8627 L763.6075 366.7346 L763.663 366.6756 L763.7162 366.6218 L763.7695 366.5713 L763.8148 366.5251 L763.8602 366.4838 L763.8998 366.4462 L763.9373 366.4133 L763.9689 366.3868 L763.9992 366.3641 L764.0237 366.3467 L764.0453 366.3357 L764.0626 366.3298 C767.4999 365.5692 771.4231 359.3671 773.2606 357.5593 C773.6609 357.1666 774.005 356.3983 774.18 356.0362 C774.2657 355.8597 775.0419 354.5296 775.476 353.901 L776.17 351.3475 L776.2831 349.1059 C776.2831 349.1059 775.1902 346.9779 774.563 349.7067 L774.121 351.4603 C773.9143 351.7345 773.1576 352.6345 772.9625 353.0232 C772.7667 353.4118 771.5801 354.6096 771.5901 355.2752" opacity="1" fill="#FFFFFF" fill-opacity="1" /><path d="M759.7318 371.2451 L759.7663 371.2013 L759.8045 371.1553 L759.8441 371.1039 L759.8909 371.0475 L759.9406 370.9874 L759.991 370.9246 L760.104 370.7871 L760.2278 370.6373 L760.3618 370.4746 L760.505 370.3025 L760.6562 370.1198 L760.8168 369.9301 L760.981 369.7345 L761.1516 369.532 L761.3244 369.326 L761.6808 368.9073 L762.0401 368.488 L762.2187 368.2801 L762.3958 368.0774 L762.5693 367.8788 L762.7385 367.686 L762.9026 367.5005 L763.0588 367.3251 L763.2101 367.1595 L763.3527 367.004 L763.4851 366.8627 L763.6075 366.7346 L763.663 366.6756 L763.7162 366.6218 L763.7695 366.5713 L763.8148 366.5251 L763.8602 366.4838 L763.8998 366.4462 L763.9373 366.4133 L763.9689 366.3868 L763.9992 366.3641 L764.0237 366.3467 L764.0453 366.3357 L764.0626 366.3298 C767.4999 365.5692 771.4231 359.3671 773.2606 357.5593 C773.6609 357.1666 774.005 356.3983 774.18 356.0362 C774.2657 355.8597 775.0419 354.5296 775.476 353.901 L776.17 351.3475 L776.2831 349.1059 C776.2831 349.1059 775.1902 346.9779 774.563 349.7067 L774.121 351.4603 C773.9143 351.7345 773.1576 352.6345 772.9625 353.0232 C772.7667 353.4118 771.5801 354.6096 771.5901 355.2752" opacity="1" stroke="#000000" stroke-opacity="1" stroke-width="0.4" stroke-linecap="butt" stroke-linejoin="miter" stroke-dasharray="none" fill-opacity="0" /></g></g><line x1="711" y1="346.4324" x2="755.7233" y2="355.2435" opacity="1" stroke="#000000" stroke-opacity="1" stroke-width="1" stroke-linecap="butt" stroke-linejoin="miter" stroke-dasharray="none" /><text x="819.6178" y="305.1889" font-size="10" fill="#000000" fill-opacity="1" font-family="Arial" font-weight="normal" font-style="normal">existing </text><text x="797.86" y="317.1889" font-size="10" fill="#000000" fill-opacity="1" font-family="Arial" font-weight="normal" font-style="normal">isolated provider </text><text x="818.9537" y="329.1889" font-size="10" fill="#000000" fill-opacity="1" font-family="Arial" font-weight="normal" font-style="normal">network</text><text x="772.6136" y="326.3022" font-size="10" fill="#000000" fill-opacity="1" font-family="Arial" font-weight="normal" font-style="normal">user </text><text x="764.6448" y="338.3022" font-size="10" fill="#000000" fill-opacity="1" font-family="Arial" font-weight="normal" font-style="normal">devices</text><path d="M750.5122 359.6437 Q614.3293 358.0306 584.285 256.9621" marker-end="url(#marker1)" opacity="1" stroke="#0000FE" stroke-opacity="1" stroke-width="1" stroke-linecap="butt" stroke-linejoin="miter" stroke-dasharray="2,2" fill-opacity="0" /><path d="M576.2506 253.7979 Q547.1577 297.5961 565.6849 345.9628" marker-end="url(#marker2)" opacity="1" stroke="#0000FE" stroke-opacity="1" stroke-width="1" stroke-linecap="butt" stroke-linejoin="miter" stroke-dasharray="2,2" fill-opacity="0" /><path d="M569.2684 249.8767 Q491.5223 273.4713 475.2647 327.9919" marker-end="url(#marker3)" opacity="1" stroke="#0000FE" stroke-opacity="1" stroke-width="1" stroke-linecap="butt" stroke-linejoin="miter" stroke-dasharray="2,2" fill-opacity="0" /><path d="M580.585 232.4936 Q571.2687 183.8068 607.3044 149.622" marker-end="url(#marker4)" opacity="1" stroke="#0000FE" stroke-opacity="1" stroke-width="1" stroke-linecap="butt" stroke-linejoin="miter" stroke-dasharray="2,2" fill-opacity="0" /><text x="549.061" y="167.3908" font-size="10" fill="#0000FE" fill-opacity="1" font-family="Arial" font-weight="normal" font-style="normal">summary</text><text x="489.7003" y="197.4345" font-size="12" fill="#0000FE" fill-opacity="1" font-family="Arial" font-weight="normal" font-style="normal">upstream
</text><text x="483.7237" y="212.4345" font-size="12" fill="#0000FE" fill-opacity="1" font-family="Arial" font-weight="normal" font-style="normal">coordinator</text><text x="380.9911" y="297.05" font-size="12" fill="#0000FE" fill-opacity="1" font-family="Arial" font-weight="normal" font-style="normal">provider</text><text x="645.9971" y="164.2109" font-size="12" fill="#0000FE" fill-opacity="1" font-family="Arial" font-weight="normal" font-style="normal">data model: replicated / filtered spreadsheet</text><text x="501.4707" y="339.4451" font-size="10" fill="#FB0106" fill-opacity="1" font-family="Arial" font-weight="normal" font-style="normal">HiReS
</text><text x="503.9072" y="351.4451" font-size="10" fill="#FB0106" fill-opacity="1" font-family="Arial" font-weight="normal" font-style="normal">node</text><text x="403.6136" y="344.3022" font-size="10" fill="#000000" fill-opacity="1" font-family="Arial" font-weight="normal" font-style="normal">user </text><text x="395.6449" y="356.3022" font-size="10" fill="#000000" fill-opacity="1" font-family="Arial" font-weight="normal" font-style="normal">devices</text><g><g><path d="M780.6456 379.19 L772.9898 379.19 L773.0302 402.0977 L780.6456 402.0977 Z " opacity="1" fill="#02709F" fill-opacity="1" /><path d="M780.6456 379.19 L772.9898 379.19 L773.0302 402.0977 L780.6456 402.0977 Z " opacity="1" stroke="#FFFFFF" stroke-opacity="1" stroke-width="0.39999" stroke-linecap="butt" stroke-linejoin="miter" stroke-dasharray="none" fill-opacity="0" /><path d="M774.0756 382.3569 L779.4785 382.3569 L779.4785 387.5383 L774.0756 387.5383 Z " opacity="1" fill="#02709F" fill-opacity="1" /><path d="M774.0756 387.5383 L779.4785 387.5383 L779.4785 382.3569 L774.0756 382.3569 Z " opacity="1" stroke="#FFFFFF" stroke-opacity="1" stroke-width="0.39999" stroke-linecap="butt" stroke-linejoin="miter" stroke-dasharray="none" fill-opacity="0" /><path d="M785.1866 374.5784 L780.655 379.2835 L780.655 402.1043 L785.183 396.7352 Z " opacity="1" fill="#02709F" fill-opacity="1" /><path d="M785.1866 374.5784 L780.655 379.2835 L780.655 402.1043 L785.183 396.7352 Z " opacity="1" stroke="#FFFFFF" stroke-opacity="1" stroke-width="0.39999" stroke-linecap="butt" stroke-linejoin="miter" stroke-dasharray="none" fill-opacity="0" /><line x1="766.3406" y1="379.0597" x2="772.6111" y2="379.0597" opacity="1" stroke="#02709F" stroke-opacity="1" stroke-width="0" stroke-linecap="butt" stroke-linejoin="miter" stroke-dasharray="none" /><line x1="766.3406" y1="379.0597" x2="772.6111" y2="379.0597" opacity="1" stroke="#FFFFFF" stroke-opacity="1" stroke-width="0.39999" stroke-linecap="butt" stroke-linejoin="miter" stroke-dasharray="none" /><line x1="773.8884" y1="378.2987" x2="776.767" y2="375.1481" opacity="1" stroke="#02709F" stroke-opacity="1" stroke-width="0" stroke-linecap="butt" stroke-linejoin="miter" stroke-dasharray="none" /><line x1="773.8884" y1="378.2987" x2="776.767" y2="375.1481" opacity="1" stroke="#FFFFFF" stroke-opacity="1" stroke-width="0.39999" stroke-linecap="butt" stroke-linejoin="miter" stroke-dasharray="none" /><path d="M772.7421 379.5317 L772.7415 379.5359 L772.7407 379.5486 L772.7386 379.5694 L772.735 379.5966 L772.7292 379.6311 L772.7206 379.6714 L772.7084 379.7178 L772.6932 379.7682 L772.6738 379.8241 L772.6493 379.8832 L772.6198 379.945 L772.5851 380.0102 L772.5442 380.0781 L772.4959 380.1468 L772.4412 380.2172 L772.3785 380.2874 L772.3087 380.3579 L772.2296 380.4274 L772.1863 380.4616 L772.141 380.496 L772.0934 380.5294 L772.0438 380.5619 L771.9905 380.5947 L771.9357 380.6263 L771.8781 380.6581 L771.8177 380.688 L771.7543 380.7172 L771.688 380.7465 L771.619 380.774 L771.5469 380.8004 L771.4728 380.8253 L771.3943 380.8494 L771.3137 380.8725 L771.2294 380.894 L771.1416 380.9138 L771.0508 380.9326 L770.9566 380.9489 L770.8586 380.9644 L770.7579 380.9781 L770.6534 380.9901 L770.5447 381.0005 L770.4324 381.0081 L770.3172 381.0141 L770.1977 381.0184 L770.0739 381.0201 L769.9471 381.0201 L765.0605 380.2728 L765.0605 379.9778 L771.9307 374.5012 L785.1499 374.5115 L780.6953 379.19 L773.0366 379.19" opacity="1" fill="#02709F" fill-opacity="1" /><path d="M772.7421 379.5317 L772.7415 379.5359 L772.7407 379.5486 L772.7386 379.5694 L772.735 379.5966 L772.7292 379.6311 L772.7206 379.6714 L772.7084 379.7178 L772.6932 379.7682 L772.6738 379.8241 L772.6493 379.8832 L772.6198 379.945 L772.5851 380.0102 L772.5442 380.0781 L772.4959 380.1468 L772.4412 380.2172 L772.3785 380.2874 L772.3087 380.3579 L772.2296 380.4274 L772.1863 380.4616 L772.141 380.496 L772.0934 380.5294 L772.0438 380.5619 L771.9905 380.5947 L771.9357 380.6263 L771.8781 380.6581 L771.8177 380.688 L771.7543 380.7172 L771.688 380.7465 L771.619 380.774 L771.5469 380.8004 L771.4728 380.8253 L771.3943 380.8494 L771.3137 380.8725 L771.2294 380.894 L771.1416 380.9138 L771.0508 380.9326 L770.9566 380.9489 L770.8586 380.9644 L770.7579 380.9781 L770.6534 380.9901 L770.5447 381.0005 L770.4324 381.0081 L770.3172 381.0141 L770.1977 381.0184 L770.0739 381.0201 L769.9471 381.0201 L765.0605 380.2728 L765.0605 379.9778 L771.9307 374.5012 L785.1499 374.5115 L780.6953 379.19 L773.0366 379.19" opacity="1" stroke="#FFFFFF" stroke-opacity="1" stroke-width="0.39999" stroke-linecap="butt" stroke-linejoin="miter" stroke-dasharray="none" fill-opacity="0" /><path d="M772.9769 379.2708 L772.9747 379.2715 L772.9704 379.2741 L772.9509 379.2854 L772.9193 379.3024 L772.8761 379.3257 L772.8214 379.3549 L772.7551 379.3891 L772.6781 379.4268 L772.5903 379.4697 L772.4923 379.5151 L772.3843 379.5642 L772.267 379.6149 L772.1402 379.6672 L772.0049 379.7211 L771.8609 379.776 L771.7089 379.831 L771.5491 379.8852 L771.3813 379.9391 L771.2072 379.9915 L771.0256 380.0421 L770.8385 380.0892 L770.6441 380.1346 L770.4446 380.1759 L770.2401 380.2137 L770.03 380.2462 L769.8154 380.2737 L769.5965 380.2961 L769.3733 380.3115 L769.1472 380.3209 L768.9168 380.3226 L768.6843 380.3167 L768.4488 380.302 L768.2104 380.2789 L765 380.0077 L765 402.8652 L768.2104 403.0026 C771.4649 403.2875 772.9898 402.1144 772.9898 402.1144 Z " opacity="1" fill="#02709F" fill-opacity="1" /><path d="M772.9769 379.2708 L772.9747 379.2715 L772.9704 379.2741 L772.9509 379.2854 L772.9193 379.3024 L772.8761 379.3257 L772.8214 379.3549 L772.7551 379.3891 L772.6781 379.4268 L772.5903 379.4697 L772.4923 379.5151 L772.3843 379.5642 L772.267 379.6149 L772.1402 379.6672 L772.0049 379.7211 L771.8609 379.776 L771.7089 379.831 L771.5491 379.8852 L771.3813 379.9391 L771.2072 379.9915 L771.0256 380.0421 L770.8385 380.0892 L770.6441 380.1346 L770.4446 380.1759 L770.2401 380.2137 L770.03 380.2462 L769.8154 380.2737 L769.5965 380.2961 L769.3733 380.3115 L769.1472 380.3209 L768.9168 380.3226 L768.6843 380.3167 L768.4488 380.302 L768.2104 380.2789 L765 380.0077 L765 402.8652 L768.2104 403.0026 C771.4649 403.2875 772.9898 402.1144 772.9898 402.1144 Z " opacity="1" stroke="#FFFFFF" stroke-opacity="1" stroke-width="0.39999" stroke-linecap="butt" stroke-linejoin="miter" stroke-dasharray="none" fill-opacity="0" /><line x1="766.4011" y1="378.9524" x2="772.6716" y2="378.9524" opacity="1" stroke="#02709F" stroke-opacity="1" stroke-width="0" stroke-linecap="butt" stroke-linejoin="miter" stroke-dasharray="none" /><line x1="766.4011" y1="378.9524" x2="772.6716" y2="378.9524" opacity="1" stroke="#FFFFFF" stroke-opacity="1" stroke-width="0.39999" stroke-linecap="butt" stroke-linejoin="miter" stroke-dasharray="none" /><line x1="774.5148" y1="378.1948" x2="777.9535" y2="375.0236" opacity="1" stroke="#02709F" stroke-opacity="1" stroke-width="0" stroke-linecap="butt" stroke-linejoin="miter" stroke-dasharray="none" /><line x1="774.5148" y1="378.1948" x2="777.9535" y2="375.0236" opacity="1" stroke="#FFFFFF" stroke-opacity="1" stroke-width="0.39999" stroke-linecap="butt" stroke-linejoin="miter" stroke-dasharray="none" /></g></g><text x="792.1331" y="380.3022" font-size="10" fill="#000000" fill-opacity="1" font-family="Arial" font-weight="normal" font-style="normal">provide</text><text x="808.1829" y="392.3022" font-size="10" fill="#000000" fill-opacity="1" font-family="Arial" font-weight="normal" font-style="normal">r
</text><line x1="711" y1="354.1536" x2="765" y2="383.3222" opacity="1" stroke="#000000" stroke-opacity="1" stroke-width="1" stroke-linecap="butt" stroke-linejoin="miter" stroke-dasharray="none" /><text x="593.4012" y="297.4646" font-size="10" fill="#0000FE" fill-opacity="1" font-family="Arial" font-weight="normal" font-style="normal">own data </text><text x="598.5477" y="309.4646" font-size="10" fill="#0000FE" fill-opacity="1" font-family="Arial" font-weight="normal" font-style="normal">update</text><text x="456.6647" y="277.9646" font-size="10" fill="#0000FE" fill-opacity="1" font-family="Arial" font-weight="normal" font-style="normal">- peer data update
</text><text x="456.6647" y="289.9646" font-size="10" fill="#0000FE" fill-opacity="1" font-family="Arial" font-weight="normal" font-style="normal">- summaries
</text><text x="456.6647" y="301.9646" font-size="10" fill="#0000FE" fill-opacity="1" font-family="Arial" font-weight="normal" font-style="normal">- goals</text><text x="625.3281" y="276.4451" font-size="10" fill="#FB0106" fill-opacity="1" font-family="Arial" font-weight="normal" font-style="normal">JSON over </text><text x="636.7905" y="288.4451" font-size="10" fill="#FB0106" fill-opacity="1" font-family="Arial" font-weight="normal" font-style="normal">wss://</text><text x="381.9756" y="224.0666" font-size="10" fill="#0000FE" fill-opacity="1" font-family="Arial" font-weight="normal" font-style="normal">responsible for filtered </text><text x="399.2608" y="236.0666" font-size="10" fill="#0000FE" fill-opacity="1" font-family="Arial" font-weight="normal" font-style="normal">data replication</text><rect x="693" y="207" width="9" height="45" opacity="1" stroke="#0000FE" stroke-opacity="0.5166978" stroke-width="1" stroke-linecap="butt" stroke-linejoin="miter" stroke-dasharray="none" fill="#0000FE" fill-opacity="0.09930678" /><line x1="693" y1="216" x2="702" y2="216" opacity="1" stroke="#0000FE" stroke-opacity="0.5166978" stroke-width="1" stroke-linecap="butt" stroke-linejoin="miter" stroke-dasharray="none" /><line x1="693" y1="225" x2="702" y2="225" opacity="1" stroke="#0000FE" stroke-opacity="0.5166978" stroke-width="1" stroke-linecap="butt" stroke-linejoin="miter" stroke-dasharray="none" /><line x1="693" y1="234" x2="702" y2="234" opacity="1" stroke="#0000FE" stroke-opacity="0.5166978" stroke-width="1" stroke-linecap="butt" stroke-linejoin="miter" stroke-dasharray="none" /><line x1="693" y1="243" x2="702" y2="243" opacity="1" stroke="#0000FE" stroke-opacity="0.5166978" stroke-width="1" stroke-linecap="butt" stroke-linejoin="miter" stroke-dasharray="none" /><text x="697.214" y="201.1113" font-size="10" fill="#0000FE" fill-opacity="0.4516395" font-family="Arial" font-weight="normal" font-style="normal">∑</text></g></svg>