<?xml version="1.0" encoding="utf-8"?><svg width="100%" height="100%" version="1.1" viewBox="543.0468 79.58637 422.9532 292.4136" style="background-color:#FFFFFF" xmlns:xlink="http://www.w3.org/1999/xlink" xmlns="http://www.w3.org/2000/svg"><defs /><marker id="marker1" markerUnits="strokeWidth" orient="auto" refX="3.869017" refY="0" markerWidth="6.508989" markerHeight="5.291819" viewBox="-1 -2.64591 6.508989 5.291819"><path d="M4.508989 1.645909 L0 0 L4.508989 -1.64591 Z " fill="#0000FE" fill-opacity="1" stroke="#0000FE" stroke-opacity="1" /></marker><marker id="marker2" markerUnits="strokeWidth" orient="auto" refX="-3.869017" refY="0" markerWidth="6.508989" markerHeight="5.291819" viewBox="-5.508989 -2.64591 6.508989 5.291819"><path d="M-4.508989 -1.64591 L0 0 L-4.508989 1.645909 Z " fill="#0000FE" fill-opacity="1" stroke="#0000FE" stroke-opacity="1" /></marker><marker id="marker3" markerUnits="strokeWidth" orient="auto" refX="3.869017" refY="0" markerWidth="6.508989" markerHeight="5.291819" viewBox="-1 -2.64591 6.508989 5.291819"><path d="M4.508989 1.645909 L0 0 L4.508989 -1.64591 Z " fill="#0000FE" fill-opacity="1" stroke="#0000FE" stroke-opacity="1" /></marker><marker id="marker4" markerUnits="strokeWidth" orient="auto" refX="-3.869017" refY="0" markerWidth="6.508989" markerHeight="5.291819" viewBox="-5.508989 -2.64591 6.508989 5.291819"><path d="M-4.508989 -1.64591 L0 0 L-4.508989 1.645909 Z " fill="#0000FE" fill-opacity="1" stroke="#0000FE" stroke-opacity="1" /></marker><marker id="marker5" markerUnits="strokeWidth" orient="auto" refX="3.869017" refY="0" markerWidth="6.508989" markerHeight="5.291819" viewBox="-1 -2.64591 6.508989 5.291819"><path d="M4.508989 1.645909 L0 0 L4.508989 -1.64591 Z " fill="#0000FE" fill-opacity="1" stroke="#0000FE" stroke-opacity="1" /></marker><marker id="marker6" markerUnits="strokeWidth" orient="auto" refX="-3.869017" refY="0" markerWidth="6.508989" markerHeight="5.291819" viewBox="-5.508989 -2.64591 6.508989 5.291819"><path d="M-4.508989 -1.64591 L0 0 L-4.508989 1.645909 Z " fill="#0000FE" fill-opacity="1" stroke="#0000FE" stroke-opacity="1" /></marker><g id="layer1"><g><g><path d="M780.3951 157.0298 C758.8519 153.7512 737.0496 157.504 721.9987 165.657 C714.1372 160.2881 703.489 156.1431 690.7183 154.1991 C657.8506 149.1972 623.9917 160.3025 615.1837 178.9727 C614.5383 180.3459 614.366 181.7248 614.0193 183.0959 C584.4193 181.3493 556.0967 191.8753 548.1519 208.7221 C540.2802 225.4126 555.1365 242.481 581.8408 249.4985 C580.3899 251.2863 579.0333 253.1284 578.1066 255.0936 C569.3025 273.7652 588.868 292.9596 621.7388 297.9614 C637.8348 300.4122 654.105 298.9731 667.6104 294.7017 C675.0537 303.7484 688.9312 311.0281 707.226 313.8116 C733.3251 317.7858 759.8132 311.4911 774.1123 299.428 C779.9047 301.7584 786.3415 303.6854 793.5948 304.7896 C826.462 309.7909 860.2502 298.6754 869.0552 280.0031 C873.4832 270.6151 870.745 261.1146 862.7501 253.3262 C870.6643 249.0409 876.8535 243.6116 879.8896 237.179 C888.696 218.5089 869.1279 199.315 836.2606 194.3118 C832.8003 193.7848 829.3364 193.4871 825.8832 193.3098 C827.9294 176.913 809.3779 161.4434 780.3951 157.0298 Z " opacity="1" stroke="#FB0106" stroke-opacity="0.2528059" stroke-width="1" stroke-linecap="butt" stroke-linejoin="round" stroke-dasharray="none" fill="#FEECF8" fill-opacity="0.4455876" /></g></g><rect x="659.3847" y="193.0664" width="96.61528" height="91.37769" opacity="1" stroke="#FB0106" stroke-opacity="1" stroke-width="1" stroke-linecap="butt" stroke-linejoin="miter" stroke-dasharray="none" fill="#FED3C8" fill-opacity="1" /><text x="663.3847" y="208.7976" font-size="12" fill="#FB0106" fill-opacity="1" font-family="Arial" font-weight="normal" font-style="normal">P1</text><rect x="693" y="225" width="9" height="45" opacity="1" stroke="#0000FE" stroke-opacity="1" stroke-width="1" stroke-linecap="butt" stroke-linejoin="miter" stroke-dasharray="none" fill="#20FEFE" fill-opacity="1" /><line x1="693" y1="234" x2="702" y2="234" opacity="1" stroke="#0000FE" stroke-opacity="1" stroke-width="1" stroke-linecap="butt" stroke-linejoin="miter" stroke-dasharray="none" /><line x1="693" y1="243" x2="702" y2="243" opacity="1" stroke="#0000FE" stroke-opacity="1" stroke-width="1" stroke-linecap="butt" stroke-linejoin="miter" stroke-dasharray="none" /><line x1="693" y1="252" x2="702" y2="252" opacity="1" stroke="#0000FE" stroke-opacity="1" stroke-width="1" stroke-linecap="butt" stroke-linejoin="miter" stroke-dasharray="none" /><line x1="693" y1="261" x2="702" y2="261" opacity="1" stroke="#0000FE" stroke-opacity="1" stroke-width="1" stroke-linecap="butt" stroke-linejoin="miter" stroke-dasharray="none" /><rect x="711" y="225" width="9" height="45" opacity="1" stroke="#0000FE" stroke-opacity="1" stroke-width="1" stroke-linecap="butt" stroke-linejoin="miter" stroke-dasharray="none" fill="#E5E5FE" fill-opacity="1" /><line x1="711" y1="234" x2="720" y2="234" opacity="1" stroke="#0000FE" stroke-opacity="1" stroke-width="1" stroke-linecap="butt" stroke-linejoin="miter" stroke-dasharray="none" /><line x1="711" y1="243" x2="720" y2="243" opacity="1" stroke="#0000FE" stroke-opacity="1" stroke-width="1" stroke-linecap="butt" stroke-linejoin="miter" stroke-dasharray="none" /><line x1="711" y1="252" x2="720" y2="252" opacity="1" stroke="#0000FE" stroke-opacity="1" stroke-width="1" stroke-linecap="butt" stroke-linejoin="miter" stroke-dasharray="none" /><line x1="711" y1="261" x2="720" y2="261" opacity="1" stroke="#0000FE" stroke-opacity="1" stroke-width="1" stroke-linecap="butt" stroke-linejoin="miter" stroke-dasharray="none" /><rect x="729" y="225" width="9" height="45" opacity="1" stroke="#0000FE" stroke-opacity="1" stroke-width="1" stroke-linecap="butt" stroke-linejoin="miter" stroke-dasharray="none" fill="#E5E5FE" fill-opacity="1" /><line x1="729" y1="234" x2="738" y2="234" opacity="1" stroke="#0000FE" stroke-opacity="1" stroke-width="1" stroke-linecap="butt" stroke-linejoin="miter" stroke-dasharray="none" /><line x1="729" y1="243" x2="738" y2="243" opacity="1" stroke="#0000FE" stroke-opacity="1" stroke-width="1" stroke-linecap="butt" stroke-linejoin="miter" stroke-dasharray="none" /><line x1="729" y1="252" x2="738" y2="252" opacity="1" stroke="#0000FE" stroke-opacity="1" stroke-width="1" stroke-linecap="butt" stroke-linejoin="miter" stroke-dasharray="none" /><line x1="729" y1="261" x2="738" y2="261" opacity="1" stroke="#0000FE" stroke-opacity="1" stroke-width="1" stroke-linecap="butt" stroke-linejoin="miter" stroke-dasharray="none" /><text x="694.8068" y="219.1113" font-size="10" fill="#0000FE" fill-opacity="1" font-family="Arial" font-weight="normal" font-style="normal">P1</text><text x="711.6339" y="219.1113" font-size="10" fill="#0000FE" fill-opacity="1" font-family="Arial" font-weight="normal" font-style="normal">P2</text><text x="731.8507" y="219.1113" font-size="10" fill="#0000FE" fill-opacity="1" font-family="Arial" font-weight="normal" font-style="normal">…</text><text x="680.9696" y="240.6531" font-size="10" fill="#0000FE" fill-opacity="1" font-family="Arial" font-weight="normal" font-style="normal">y</text><text x="680.3999" y="231.8551" font-size="10" fill="#0000FE" fill-opacity="1" font-family="Arial" font-weight="normal" font-style="normal">x</text><text x="680.3511" y="259.3569" font-size="14" fill="#0000FE" fill-opacity="1" font-family="Arial" font-weight="normal" font-style="normal">⋮</text><g><g><path d="M843.6499 254.5893 L843.6737 254.5587 L843.6938 254.5284 L843.714 254.5012 L843.737 254.4728 L843.7565 254.4473 L843.7745 254.4224 L843.7925 254.3985 L843.8105 254.3741 L843.8285 254.353 L843.8458 254.3316 L843.8609 254.311 L843.8753 254.291 L843.8918 254.2715 L843.9062 254.2537 L843.9192 254.2356 L843.9343 254.2203 L843.9466 254.2041 L843.9588 254.1892 L843.9718 254.174 L843.9825 254.1589 L844.0056 254.1331 L844.0272 254.1092 L844.0452 254.0871 L844.0632 254.0664 L844.0812 254.0489 L844.0984 254.0315 L844.1136 254.0151 L844.128 254 L844.1424 253.9866 L844.1553 253.9742 L844.1819 253.9483 L844.2079 253.9226 L844.2216 253.9082 L844.2352 253.895 L844.2482 253.8808 L844.2626 253.8651 L844.2785 253.8476 L844.2936 253.8304 L844.3102 253.81 L844.3281 253.7888 C846.2657 251.4098 848.2407 252.5602 846.9008 254.7688 C845.7948 256.596 845.6788 256.7165 845.2512 257.3224 C844.4995 258.3863 843.7399 259.5547 843.21 260.4018" opacity="1" stroke="#000000" stroke-opacity="1" stroke-width="0.4" stroke-linecap="butt" stroke-linejoin="miter" stroke-dasharray="none" fill-opacity="0" /><path d="M845.5795 256.9142 L845.6703 256.8066 L845.7625 256.7036 L845.8546 256.6058 L845.9446 256.5132 L846.0345 256.425 L846.1246 256.3424 L846.2138 256.2641 L846.3024 256.1894 L846.3917 256.1212 L846.4802 256.0559 L846.5637 255.9955 L846.6516 255.9401 L846.7351 255.8886 L846.8186 255.8405 L846.9022 255.799 L846.9835 255.759 L847.0634 255.7259 L847.1419 255.6959 L847.2218 255.6693 L847.2953 255.6459 L847.3716 255.629 L847.4457 255.6147 L847.517 255.604 L847.5854 255.5961 L847.6545 255.5944 L847.72 255.5944 L847.7834 255.599 L847.8461 255.6058 L847.908 255.6178 L847.9649 255.6325 L848.0211 255.6508 L848.0751 255.6716 L848.1254 255.697 L848.1773 255.7259 L848.2234 255.7573 L848.2673 255.7904 L848.3062 255.8293 L848.3479 255.8689 L848.3832 255.9123 L848.4156 255.9586 L848.4473 256.0087 L848.4753 256.0609 L848.4984 256.116 L848.5208 256.1736 L848.5394 256.2336 L848.5532 256.2962 L848.566 256.3618 L848.574 256.4294 L848.5784 256.499 L848.5805 256.5721 L848.5776 256.6465 L848.5732 256.7242 L848.564 256.8043 L848.5495 256.8858 L848.533 256.9691 L848.5121 257.0556 L848.4875 257.1429 L848.4588 257.2327 L848.4257 257.3243 L848.3875 257.4177 L848.3487 257.5124 L848.3033 257.6096 L848.2507 257.7081 L848.1967 257.8092 C847.1678 259.6538 846.8914 259.727 846.5162 260.3743 C845.8178 261.5784 846.0353 261.3871 845.5054 262.2354" opacity="1" stroke="#000000" stroke-opacity="1" stroke-width="0.4" stroke-linecap="butt" stroke-linejoin="miter" stroke-dasharray="none" fill-opacity="0" /><path d="M841.6267 257.4352 L841.6749 257.3839 L841.7203 257.3359 L841.7635 257.2885 L841.8067 257.2441 L841.8816 257.1549 L841.955 257.0689 L842.0249 256.9796 L842.0961 256.8864 L842.1321 256.8353 L842.1682 256.784 L842.2078 256.7282 L842.2488 256.6712 L842.2899 256.6096 L842.3338 256.5433 L842.382 256.4734 L842.431 256.3988 L842.4843 256.3184 L842.5404 256.2336 L842.6016 256.1427 L842.665 256.0454 L842.7362 255.9401 L842.7729 255.8861 L842.809 255.8293 L842.8464 255.7699 L842.8882 255.711 L842.9277 255.6475 L842.9717 255.5842 L843.0163 255.5176 L843.0617 255.4496 L843.1085 255.3787 L843.1589 255.3065 L843.2078 255.2304 L843.2604 255.1535 L843.3144 255.0734 L843.3691 254.9916 C844.8811 252.7589 842.7571 251.6679 840.7786 253.9844 C838.6848 256.4371 838.1548 257.1384 836.995 258.2274 C835.8307 259.3158 833.665 263.5616 832.2984 264.7136 C831.3912 265.4804 832.6743 262.4756 832.5569 261.5976 C832.3063 259.6966 832.2473 259.9145 831.9794 259.2449 C831.708 258.5777 830.0333 257.3883 829.6797 258.4186 C829.4998 258.9511 829.5847 258.9683 829.7165 259.5748 C829.7863 259.886 829.512 259.7943 829.5898 261.2861 C829.6351 262.1309 827.9676 264.6423 827.465 265.7623 C826.3929 268.1364 827.5752 268.2618 827.1345 270.2379 C826.6551 272.4042 827.2209 271.9542 826.7407 272.8786 C826.2576 273.803 823.5252 277.3614 823.2573 277.9307" opacity="1" stroke="#000000" stroke-opacity="1" stroke-width="0.4" stroke-linecap="butt" stroke-linejoin="miter" stroke-dasharray="none" fill-opacity="0" /><path d="M833.1271 265.7647 C834.7255 266.5008 833.2444 270.5 833.2444 270.5" opacity="1" stroke="#000000" stroke-opacity="1" stroke-width="0.4" stroke-linecap="butt" stroke-linejoin="miter" stroke-dasharray="none" fill-opacity="0" /><path d="M832.3676 265.4781 C831.9902 265.0899 831.9794 264.8329 831.9794 264.8329" opacity="1" stroke="#000000" stroke-opacity="1" stroke-width="0.4" stroke-linecap="butt" stroke-linejoin="miter" stroke-dasharray="none" fill-opacity="0" /><path d="M827.5485 268.6305 L839.7676 268.6305 L847.6165 256.9729 L835.9935 256.9729 Z " opacity="1" fill="#00AAD7" fill-opacity="1" /><path d="M827.5485 268.6305 L839.7676 268.6305 L847.6165 256.9729 L835.9935 256.9729 Z " opacity="1" stroke="#FFFFFF" stroke-opacity="1" stroke-width="0.4" stroke-linecap="butt" stroke-linejoin="miter" stroke-dasharray="none" fill-opacity="0" /><path d="M827.5485 268.6305 L827.5485 270.5573 L839.7676 270.5573 L839.7676 268.6305 Z " opacity="1" fill="#00AAD7" fill-opacity="1" /><path d="M827.5485 270.5573 L839.7676 270.5573 L839.7676 268.6305 L827.5485 268.6305 Z " opacity="1" stroke="#FFFFFF" stroke-opacity="1" stroke-width="0.4" stroke-linecap="butt" stroke-linejoin="miter" stroke-dasharray="none" fill-opacity="0" /><path d="M847.6165 256.9729 L847.6165 258.7794 L839.7676 270.5573 L839.7676 268.6305 Z " opacity="1" fill="#00AAD7" fill-opacity="1" /><path d="M847.6165 256.9729 L847.6165 258.7794 L839.7676 270.5573 L839.7676 268.6305 Z " opacity="1" stroke="#FFFFFF" stroke-opacity="1" stroke-width="0.4" stroke-linecap="butt" stroke-linejoin="miter" stroke-dasharray="none" fill-opacity="0" /><path d="M845.5687 258.1484 L840.3991 265.9453 L830.8606 265.9453 L836.4333 258.1484 Z " opacity="1" fill="#FFFFFF" fill-opacity="1" /><path d="M845.5687 258.1484 L840.3991 265.9453 L830.8606 265.9453 L836.4333 258.1484 Z " opacity="1" stroke="#FFFFFF" stroke-opacity="1" stroke-width="0.1926" stroke-linecap="butt" stroke-linejoin="miter" stroke-dasharray="none" fill-opacity="0" /><path d="M831.3379 267.0263 L830.767 267.8774 L829.6711 267.8774 L830.2781 267.0263 Z " opacity="1" fill="#FFFFFF" fill-opacity="1" /><path d="M831.3379 267.0263 L830.767 267.8774 L829.6711 267.8774 L830.2781 267.0263 Z " opacity="1" stroke="#FFFFFF" stroke-opacity="1" stroke-width="0.1926" stroke-linecap="butt" stroke-linejoin="miter" stroke-dasharray="none" fill-opacity="0" /><path d="M839.7856 267.0263 L839.2176 267.8774 L838.1224 267.8774 L838.7294 267.0263 Z " opacity="1" fill="#FFFFFF" fill-opacity="1" /><path d="M839.7856 267.0263 L839.2176 267.8774 L838.1224 267.8774 L838.7294 267.0263 Z " opacity="1" stroke="#FFFFFF" stroke-opacity="1" stroke-width="0.1926" stroke-linecap="butt" stroke-linejoin="miter" stroke-dasharray="none" fill-opacity="0" /><path d="M837.6775 267.0263 L837.1087 267.8774 L836.0165 267.8774 L836.6191 267.0263 Z " opacity="1" fill="#FFFFFF" fill-opacity="1" /><path d="M837.6775 267.0263 L837.1087 267.8774 L836.0165 267.8774 L836.6191 267.0263 Z " opacity="1" stroke="#FFFFFF" stroke-opacity="1" stroke-width="0.1926" stroke-linecap="butt" stroke-linejoin="miter" stroke-dasharray="none" fill-opacity="0" /><path d="M835.4714 267.0263 L834.9033 267.8774 L833.8097 267.8774 L834.416 267.0263 Z " opacity="1" fill="#FFFFFF" fill-opacity="1" /><path d="M835.4714 267.0263 L834.9033 267.8774 L833.8097 267.8774 L834.416 267.0263 Z " opacity="1" stroke="#FFFFFF" stroke-opacity="1" stroke-width="0.1926" stroke-linecap="butt" stroke-linejoin="miter" stroke-dasharray="none" fill-opacity="0" /><path d="M833.3849 267.0263 L832.8146 267.8774 L831.7231 267.8774 L832.3251 267.0263 Z " opacity="1" fill="#FFFFFF" fill-opacity="1" /><path d="M833.3849 267.0263 L832.8146 267.8774 L831.7231 267.8774 L832.3251 267.0263 Z " opacity="1" stroke="#FFFFFF" stroke-opacity="1" stroke-width="0.1926" stroke-linecap="butt" stroke-linejoin="miter" stroke-dasharray="none" fill-opacity="0" /><path d="M831.7318 281.2451 L831.7663 281.2013 L831.8045 281.1553 L831.8441 281.1039 L831.8909 281.0475 L831.9406 280.9874 L831.991 280.9246 L832.104 280.7871 L832.2278 280.6374 L832.3618 280.4745 L832.505 280.3025 L832.6562 280.1198 L832.8168 279.9301 L832.981 279.7345 L833.1516 279.532 L833.3244 279.326 L833.6808 278.9073 L834.0401 278.488 L834.2187 278.2801 L834.3958 278.0774 L834.5693 277.8788 L834.7385 277.686 L834.9026 277.5005 L835.0588 277.3251 L835.2101 277.1595 L835.3527 277.004 L835.4851 276.8627 L835.6075 276.7346 L835.663 276.6755 L835.7162 276.6218 L835.7695 276.5713 L835.8148 276.5251 L835.8602 276.4838 L835.8998 276.4462 L835.9373 276.4133 L835.9689 276.3868 L835.9992 276.3642 L836.0237 276.3467 L836.0453 276.3357 L836.0626 276.3298 C839.4999 275.5692 843.4231 269.3671 845.2606 267.5593 C845.6609 267.1666 846.005 266.3983 846.18 266.0362 C846.2657 265.8597 847.0419 264.5296 847.476 263.901 L848.17 261.3475 L848.2831 259.1059 C848.2831 259.1059 847.1902 256.9779 846.563 259.7067 L846.121 261.4603 C845.9143 261.7345 845.1576 262.6345 844.9625 263.0232 C844.7667 263.4118 843.5801 264.6096 843.5901 265.2752" opacity="1" fill="#FFFFFF" fill-opacity="1" /><path d="M831.7318 281.2451 L831.7663 281.2013 L831.8045 281.1553 L831.8441 281.1039 L831.8909 281.0475 L831.9406 280.9874 L831.991 280.9246 L832.104 280.7871 L832.2278 280.6374 L832.3618 280.4745 L832.505 280.3025 L832.6562 280.1198 L832.8168 279.9301 L832.981 279.7345 L833.1516 279.532 L833.3244 279.326 L833.6808 278.9073 L834.0401 278.488 L834.2187 278.2801 L834.3958 278.0774 L834.5693 277.8788 L834.7385 277.686 L834.9026 277.5005 L835.0588 277.3251 L835.2101 277.1595 L835.3527 277.004 L835.4851 276.8627 L835.6075 276.7346 L835.663 276.6755 L835.7162 276.6218 L835.7695 276.5713 L835.8148 276.5251 L835.8602 276.4838 L835.8998 276.4462 L835.9373 276.4133 L835.9689 276.3868 L835.9992 276.3642 L836.0237 276.3467 L836.0453 276.3357 L836.0626 276.3298 C839.4999 275.5692 843.4231 269.3671 845.2606 267.5593 C845.6609 267.1666 846.005 266.3983 846.18 266.0362 C846.2657 265.8597 847.0419 264.5296 847.476 263.901 L848.17 261.3475 L848.2831 259.1059 C848.2831 259.1059 847.1902 256.9779 846.563 259.7067 L846.121 261.4603 C845.9143 261.7345 845.1576 262.6345 844.9625 263.0232 C844.7667 263.4118 843.5801 264.6096 843.5901 265.2752" opacity="1" stroke="#000000" stroke-opacity="1" stroke-width="0.4" stroke-linecap="butt" stroke-linejoin="miter" stroke-dasharray="none" fill-opacity="0" /></g></g><line x1="772.1033" y1="244.8687" x2="828.2848" y2="264.2287" opacity="1" stroke="#000000" stroke-opacity="1" stroke-width="1" stroke-linecap="butt" stroke-linejoin="miter" stroke-dasharray="none" /><text x="850.8062" y="229.1637" font-size="10" fill="#000000" fill-opacity="1" font-family="Arial" font-weight="normal" font-style="normal">user </text><text x="842.8374" y="241.1637" font-size="10" fill="#000000" fill-opacity="1" font-family="Arial" font-weight="normal" font-style="normal">devices</text><g><g><path d="M839.9109 223.8676 L839.924 223.8504 L839.934 223.8332 L839.942 223.8156 L839.9463 223.7979 L839.9492 223.78 L839.9492 223.762 L839.9477 223.7439 L839.9434 223.7255 L839.9376 223.7071 L839.9304 223.6886 L839.9218 223.67 L839.9109 223.6511 L839.8994 223.6322 L839.8857 223.6132 L839.8713 223.5941 L839.8569 223.575 L839.8239 223.5364 L839.7878 223.4976 L839.7511 223.4586 L839.7144 223.4195 L839.6777 223.3804 L839.6424 223.3412 L839.61 223.3022 L839.5949 223.2826 L839.5805 223.2632 L839.5682 223.2436 L839.556 223.2243 L839.5466 223.205 L839.5373 223.1857 L839.5308 223.1664 L839.5258 223.1474 L839.5214 223.1284 L839.5208 223.1094 L839.5214 223.0906 L839.5251 223.0719 L839.5308 223.0533 L839.538 223.0348 L839.5495 223.0164 L839.5625 222.9983 L839.579 222.9801 L839.5984 222.9623 L839.6208 222.9445 L839.6467 222.9269 L839.6763 222.9095 L839.7086 222.8923 L839.7454 222.8752 L839.7648 222.8668 L839.7856 222.8584 L839.8073 222.8501 L839.8296 222.8416 L839.8533 222.8335 L839.8785 222.8253 L839.9037 222.8172 L839.9304 222.8091 L839.9578 222.8011 L839.9872 222.7931 L840.0168 222.7851 L840.0485 222.7774 L840.0801 222.7696 L840.114 222.7618 L840.1486 222.7541 L840.1838 222.7466 L840.2206 222.739 L840.2587 222.7316 L840.2983 222.7242 L840.3394 222.7168 L840.3811 222.7095 L840.4236 222.7023 C841.6152 222.5071 845.2245 220.3834 836.7588 220.2728" opacity="1" stroke="#000000" stroke-opacity="1" stroke-width="0.39999" stroke-linecap="butt" stroke-linejoin="miter" stroke-dasharray="none" fill-opacity="0" /><path d="M820.5436 223.247 L820.5436 221.1817 L834.2302 221.1817 L834.2302 223.247 Z " opacity="1" fill="#036998" fill-opacity="1" /><path d="M820.5436 223.247 L834.2302 223.247 L834.2302 221.1817 L820.5436 221.1817 Z " opacity="1" stroke="#FFFFFF" stroke-opacity="1" stroke-width="0.39999" stroke-linecap="butt" stroke-linejoin="miter" stroke-dasharray="none" fill-opacity="0" /><path d="M834.2158 223.2559 L834.2158 221.1817 L836.9769 218.3705 L836.9769 220.4942 Z " opacity="1" fill="#036998" fill-opacity="1" /><path d="M834.2158 223.2559 L834.2158 221.1817 L836.9769 218.3705 L836.9769 220.4942 Z " opacity="1" stroke="#FFFFFF" stroke-opacity="1" stroke-width="0.39999" stroke-linecap="butt" stroke-linejoin="miter" stroke-dasharray="none" fill-opacity="0" /><path d="M820.5436 223.62 L820.5436 221.1817 L834.2302 221.1817 L834.2302 223.62 Z " opacity="1" fill="#036998" fill-opacity="1" /><path d="M820.5436 223.62 L834.2302 223.62 L834.2302 221.1817 L820.5436 221.1817 Z " opacity="1" stroke="#FFFFFF" stroke-opacity="1" stroke-width="0.39999" stroke-linecap="butt" stroke-linejoin="miter" stroke-dasharray="none" fill-opacity="0" /><path d="M834.2158 223.6288 L834.2158 221.1817 L836.9769 218.3705 L836.9769 220.867 Z " opacity="1" fill="#036998" fill-opacity="1" /><path d="M834.2158 223.6288 L834.2158 221.1817 L836.9769 218.3705 L836.9769 220.867 Z " opacity="1" stroke="#FFFFFF" stroke-opacity="1" stroke-width="0.39999" stroke-linecap="butt" stroke-linejoin="miter" stroke-dasharray="none" fill-opacity="0" /><path d="M837.936 217.9976 L836.0013 220.8088 L818.9676 220.8088 L821.7094 217.9976 Z " opacity="1" fill="#036998" fill-opacity="1" /><path d="M837.936 217.9976 L836.0013 220.8088 L818.9676 220.8088 L821.7094 217.9976 Z " opacity="1" stroke="#FFFFFF" stroke-opacity="1" stroke-width="0.39999" stroke-linecap="butt" stroke-linejoin="miter" stroke-dasharray="none" fill-opacity="0" /><path d="M818.9273 221.7555 L818.9273 220.8088 L835.2238 220.8088 L835.2238 221.7555 Z " opacity="1" fill="#036998" fill-opacity="1" /><path d="M818.9273 221.7555 L835.2238 221.7555 L835.2238 220.8088 L818.9273 220.8088 Z " opacity="1" stroke="#FFFFFF" stroke-opacity="1" stroke-width="0.39999" stroke-linecap="butt" stroke-linejoin="miter" stroke-dasharray="none" fill-opacity="0" /><path d="M835.2086 221.7643 L835.2086 220.8088 L837.9706 217.9976 L837.9706 219.003 Z " opacity="1" fill="#036998" fill-opacity="1" /><path d="M835.2086 221.7643 L835.2086 220.8088 L837.9706 217.9976 L837.9706 219.003 Z " opacity="1" stroke="#FFFFFF" stroke-opacity="1" stroke-width="0.39999" stroke-linecap="butt" stroke-linejoin="miter" stroke-dasharray="none" fill-opacity="0" /><path d="M837.936 217.9976 L836.0013 220.8088 L818.9676 220.8088 L821.7094 217.9976 Z " opacity="1" fill="#036998" fill-opacity="1" /><path d="M837.936 217.9976 L836.0013 220.8088 L818.9676 220.8088 L821.7094 217.9976 Z " opacity="1" stroke="#FFFFFF" stroke-opacity="1" stroke-width="0.39999" stroke-linecap="butt" stroke-linejoin="miter" stroke-dasharray="none" fill-opacity="0" /><path d="M818.9273 221.7555 L818.9273 220.8088 L835.2238 220.8088 L835.2238 221.7555 Z " opacity="1" fill="#036998" fill-opacity="1" /><path d="M818.9273 221.7555 L835.2238 221.7555 L835.2238 220.8088 L818.9273 220.8088 Z " opacity="1" stroke="#FFFFFF" stroke-opacity="1" stroke-width="0.39999" stroke-linecap="butt" stroke-linejoin="miter" stroke-dasharray="none" fill-opacity="0" /><path d="M835.2086 221.7643 L835.2086 220.8088 L837.9706 217.9976 L837.9706 219.003 Z " opacity="1" fill="#036998" fill-opacity="1" /><path d="M835.2086 221.7643 L835.2086 220.8088 L837.9706 217.9976 L837.9706 219.003 Z " opacity="1" stroke="#FFFFFF" stroke-opacity="1" stroke-width="0.39999" stroke-linecap="butt" stroke-linejoin="miter" stroke-dasharray="none" fill-opacity="0" /><path d="M838.0231 205.0717 L823.3056 205.0717 L819 206.0852 L836.0482 206.0852 Z " opacity="1" fill="#036998" fill-opacity="1" /><path d="M838.0231 205.0717 L823.3056 205.0717 L819 206.0852 L836.0482 206.0852 Z " opacity="1" stroke="#FFFFFF" stroke-opacity="1" stroke-width="0.39999" stroke-linecap="butt" stroke-linejoin="miter" stroke-dasharray="none" fill-opacity="0" /><path d="M835.3109 219.6145 L834.5563 218.994 L820.7302 218.994 L821.4588 219.6145 Z " opacity="1" fill="#036998" fill-opacity="1" /><path d="M835.3109 219.6145 L834.5563 218.994 L820.7302 218.994 L821.4588 219.6145 Z " opacity="1" stroke="#FFFFFF" stroke-opacity="1" stroke-width="0.39999" stroke-linecap="butt" stroke-linejoin="miter" stroke-dasharray="none" fill-opacity="0" /><path d="M835.3951 219.5063 L834.4433 218.8687 L837.9684 217.0042 L835.699 219.2498 Z " opacity="1" fill="#036998" fill-opacity="1" /><path d="M835.3951 219.5063 L834.4433 218.8687 L837.9684 217.0042 L835.699 219.2498 Z " opacity="1" stroke="#FFFFFF" stroke-opacity="1" stroke-width="0.39999" stroke-linecap="butt" stroke-linejoin="miter" stroke-dasharray="none" fill-opacity="0" /><path d="M836.0482 206.0852 L836.0482 218.7986 L838.0231 216.9603 L838.0231 205.0717 Z " opacity="1" fill="#036998" fill-opacity="1" /><path d="M836.0482 206.0852 L836.0482 218.7986 L838.0231 216.9603 L838.0231 205.0717 Z " opacity="1" stroke="#FFFFFF" stroke-opacity="1" stroke-width="0.39999" stroke-linecap="butt" stroke-linejoin="miter" stroke-dasharray="none" fill-opacity="0" /><path d="M836.0482 218.9388 L836.0482 206.0852 L819 206.0852 L819 218.9388 Z " opacity="1" fill="#036998" fill-opacity="1" /><path d="M819 218.9388 L836.0482 218.9388 L836.0482 206.0852 L819 206.0852 Z " opacity="1" stroke="#FFFFFF" stroke-opacity="1" stroke-width="0.39999" stroke-linecap="butt" stroke-linejoin="miter" stroke-dasharray="none" fill-opacity="0" /><path d="M834.6147 226.9556 L834.6147 225.968 L836.7473 223.0169 L836.7473 224.8232 Z " opacity="1" fill="#036998" fill-opacity="1" /><path d="M834.6147 226.9556 L834.6147 225.968 L836.7473 223.0169 L836.7473 224.8232 Z " opacity="1" stroke="#FFFFFF" stroke-opacity="1" stroke-width="0.39999" stroke-linecap="butt" stroke-linejoin="miter" stroke-dasharray="none" fill-opacity="0" /><path d="M834.6147 225.9827 L834.6147 226.9556 L815.8104 226.9556 L815.8104 225.9827 Z " opacity="1" fill="#036998" fill-opacity="1" /><path d="M815.8104 226.9556 L834.6147 226.9556 L834.6147 225.9827 L815.8104 225.9827 Z " opacity="1" stroke="#FFFFFF" stroke-opacity="1" stroke-width="0.39999" stroke-linecap="butt" stroke-linejoin="miter" stroke-dasharray="none" fill-opacity="0" /><path d="M839.9606 226.1749 L841.2098 223.6811 L838.3579 223.6811 L837.1116 226.1749 Z " opacity="1" fill="#036998" fill-opacity="1" /><path d="M839.9606 226.1749 L841.2098 223.6811 L838.3579 223.6811 L837.1116 226.1749 Z " opacity="1" stroke="#FFFFFF" stroke-opacity="1" stroke-width="0.39999" stroke-linecap="butt" stroke-linejoin="miter" stroke-dasharray="none" fill-opacity="0" /><path d="M837.1116 226.1749 L839.9606 226.1749 L839.9606 226.9789 L837.1116 226.9789 Z " opacity="1" fill="#036998" fill-opacity="1" /><path d="M837.1116 226.9789 L839.9606 226.9789 L839.9606 226.1749 L837.1116 226.1749 Z " opacity="1" stroke="#FFFFFF" stroke-opacity="1" stroke-width="0.39999" stroke-linecap="butt" stroke-linejoin="miter" stroke-dasharray="none" fill-opacity="0" /><path d="M839.9405 226.9993 L839.9463 226.1749 L841.1933 223.6811 L841.1868 225.397 Z " opacity="1" fill="#036998" fill-opacity="1" /><path d="M839.9405 226.9993 L839.9463 226.1749 L841.1933 223.6811 L841.1868 225.397 Z " opacity="1" stroke="#FFFFFF" stroke-opacity="1" stroke-width="0.39999" stroke-linecap="butt" stroke-linejoin="miter" stroke-dasharray="none" fill-opacity="0" /><path d="M834.6147 225.9827 L815.8716 225.9827 L818.0035 223.0169 L836.7473 223.0169 Z " opacity="1" fill="#036998" fill-opacity="1" /><path d="M834.6147 225.9827 L815.8716 225.9827 L818.0035 223.0169 L836.7473 223.0169 Z " opacity="1" stroke="#FFFFFF" stroke-opacity="1" stroke-width="0.39999" stroke-linecap="butt" stroke-linejoin="miter" stroke-dasharray="none" fill-opacity="0" /><path d="M821.4761 207.4283 L833.4497 207.4283 C834.2272 207.4283 834.8601 208.0578 834.8601 208.8387 L834.8601 216.4008 C834.8601 217.1817 834.2272 217.8141 833.4497 217.8141 L821.4761 217.8141 C820.6956 217.8141 820.0663 217.1817 820.0663 216.4008 L820.0663 208.8387 C820.0663 208.0578 820.6956 207.4283 821.4761 207.4283 Z " opacity="1" fill="#036998" fill-opacity="1" /><path d="M821.4761 207.4283 L833.4497 207.4283 C834.2272 207.4283 834.8601 208.0578 834.8601 208.8387 L834.8601 216.4008 C834.8601 217.1817 834.2272 217.8141 833.4497 217.8141 L821.4761 217.8141 C820.6956 217.8141 820.0663 217.1817 820.0663 216.4008 L820.0663 208.8387 C820.0663 208.0578 820.6956 207.4283 821.4761 207.4283 Z " opacity="1" stroke="#FFFFFF" stroke-opacity="1" stroke-width="0.39999" stroke-linecap="butt" stroke-linejoin="miter" stroke-dasharray="none" fill-opacity="0" /></g></g><line x1="820.5871" y1="218.9388" x2="772.1033" y2="235.6474" opacity="1" stroke="#000000" stroke-opacity="1" stroke-width="1" stroke-linecap="butt" stroke-linejoin="miter" stroke-dasharray="none" /><g><g><path d="M587.4607 210.7725 L579.8048 210.7725 L579.8452 233.6803 L587.4607 233.6803 Z " opacity="1" fill="#02709F" fill-opacity="1" /><path d="M587.4607 210.7725 L579.8048 210.7725 L579.8452 233.6803 L587.4607 233.6803 Z " opacity="1" stroke="#FFFFFF" stroke-opacity="1" stroke-width="0.39999" stroke-linecap="butt" stroke-linejoin="miter" stroke-dasharray="none" fill-opacity="0" /><path d="M580.8906 213.9394 L586.2935 213.9394 L586.2935 219.1208 L580.8906 219.1208 Z " opacity="1" fill="#02709F" fill-opacity="1" /><path d="M580.8906 219.1208 L586.2935 219.1208 L586.2935 213.9394 L580.8906 213.9394 Z " opacity="1" stroke="#FFFFFF" stroke-opacity="1" stroke-width="0.39999" stroke-linecap="butt" stroke-linejoin="miter" stroke-dasharray="none" fill-opacity="0" /><path d="M592.0016 206.1609 L587.47 210.866 L587.47 233.6868 L591.9981 228.3177 Z " opacity="1" fill="#02709F" fill-opacity="1" /><path d="M592.0016 206.1609 L587.47 210.866 L587.47 233.6868 L591.9981 228.3177 Z " opacity="1" stroke="#FFFFFF" stroke-opacity="1" stroke-width="0.39999" stroke-linecap="butt" stroke-linejoin="miter" stroke-dasharray="none" fill-opacity="0" /><line x1="573.1556" y1="210.6422" x2="579.4261" y2="210.6422" opacity="1" stroke="#02709F" stroke-opacity="1" stroke-width="0" stroke-linecap="butt" stroke-linejoin="miter" stroke-dasharray="none" /><line x1="573.1556" y1="210.6422" x2="579.4261" y2="210.6422" opacity="1" stroke="#FFFFFF" stroke-opacity="1" stroke-width="0.39999" stroke-linecap="butt" stroke-linejoin="miter" stroke-dasharray="none" /><line x1="580.7034" y1="209.8812" x2="583.582" y2="206.7306" opacity="1" stroke="#02709F" stroke-opacity="1" stroke-width="0" stroke-linecap="butt" stroke-linejoin="miter" stroke-dasharray="none" /><line x1="580.7034" y1="209.8812" x2="583.582" y2="206.7306" opacity="1" stroke="#FFFFFF" stroke-opacity="1" stroke-width="0.39999" stroke-linecap="butt" stroke-linejoin="miter" stroke-dasharray="none" /><path d="M579.5572 211.1142 L579.5565 211.1184 L579.5557 211.1311 L579.5536 211.1519 L579.55 211.1792 L579.5443 211.2136 L579.5356 211.254 L579.5234 211.3003 L579.5082 211.3507 L579.4887 211.4066 L579.4644 211.4657 L579.4348 211.5275 L579.4002 211.5927 L579.3592 211.6606 L579.3109 211.7292 L579.2562 211.7997 L579.1936 211.8699 L579.1238 211.9403 L579.0446 212.0099 L579.0013 212.0441 L578.956 212.0784 L578.9085 212.1119 L578.8588 212.1444 L578.8054 212.1772 L578.7508 212.2088 L578.6932 212.2406 L578.6328 212.2705 L578.5693 212.2997 L578.5031 212.329 L578.434 212.3565 L578.362 212.3829 L578.2878 212.4079 L578.2094 212.432 L578.1287 212.455 L578.0445 212.4765 L577.9567 212.4963 L577.8659 212.5151 L577.7716 212.5314 L577.6737 212.547 L577.5729 212.5606 L577.4684 212.5726 L577.3597 212.583 L577.2474 212.5906 L577.1322 212.5966 L577.0128 212.6009 L576.8889 212.6025 L576.7622 212.6025 L571.8755 211.8553 L571.8755 211.5603 L578.7457 206.0836 L591.9649 206.094 L587.5103 210.7725 L579.8517 210.7725" opacity="1" fill="#02709F" fill-opacity="1" /><path d="M579.5572 211.1142 L579.5565 211.1184 L579.5557 211.1311 L579.5536 211.1519 L579.55 211.1792 L579.5443 211.2136 L579.5356 211.254 L579.5234 211.3003 L579.5082 211.3507 L579.4887 211.4066 L579.4644 211.4657 L579.4348 211.5275 L579.4002 211.5927 L579.3592 211.6606 L579.3109 211.7292 L579.2562 211.7997 L579.1936 211.8699 L579.1238 211.9403 L579.0446 212.0099 L579.0013 212.0441 L578.956 212.0784 L578.9085 212.1119 L578.8588 212.1444 L578.8054 212.1772 L578.7508 212.2088 L578.6932 212.2406 L578.6328 212.2705 L578.5693 212.2997 L578.5031 212.329 L578.434 212.3565 L578.362 212.3829 L578.2878 212.4079 L578.2094 212.432 L578.1287 212.455 L578.0445 212.4765 L577.9567 212.4963 L577.8659 212.5151 L577.7716 212.5314 L577.6737 212.547 L577.5729 212.5606 L577.4684 212.5726 L577.3597 212.583 L577.2474 212.5906 L577.1322 212.5966 L577.0128 212.6009 L576.8889 212.6025 L576.7622 212.6025 L571.8755 211.8553 L571.8755 211.5603 L578.7457 206.0836 L591.9649 206.094 L587.5103 210.7725 L579.8517 210.7725" opacity="1" stroke="#FFFFFF" stroke-opacity="1" stroke-width="0.39999" stroke-linecap="butt" stroke-linejoin="miter" stroke-dasharray="none" fill-opacity="0" /><path d="M579.7919 210.8533 L579.7897 210.854 L579.7854 210.8566 L579.766 210.8679 L579.7343 210.8849 L579.6912 210.9082 L579.6364 210.9374 L579.5701 210.9716 L579.4931 211.0094 L579.4053 211.0522 L579.3074 211.0977 L579.1994 211.1467 L579.082 211.1974 L578.9553 211.2496 L578.8198 211.3036 L578.6759 211.3585 L578.524 211.4135 L578.3641 211.4677 L578.1964 211.5216 L578.0222 211.5739 L577.8407 211.6246 L577.6535 211.6717 L577.4591 211.7171 L577.2596 211.7584 L577.0552 211.7961 L576.845 211.8287 L576.6304 211.8562 L576.4115 211.8786 L576.1884 211.894 L575.9622 211.9033 L575.7319 211.9051 L575.4993 211.8992 L575.2639 211.8845 L575.0255 211.8614 L571.815 211.5901 L571.815 234.4477 L575.0255 234.5851 C578.2799 234.8701 579.8048 233.6969 579.8048 233.6969 Z " opacity="1" fill="#02709F" fill-opacity="1" /><path d="M579.7919 210.8533 L579.7897 210.854 L579.7854 210.8566 L579.766 210.8679 L579.7343 210.8849 L579.6912 210.9082 L579.6364 210.9374 L579.5701 210.9716 L579.4931 211.0094 L579.4053 211.0522 L579.3074 211.0977 L579.1994 211.1467 L579.082 211.1974 L578.9553 211.2496 L578.8198 211.3036 L578.6759 211.3585 L578.524 211.4135 L578.3641 211.4677 L578.1964 211.5216 L578.0222 211.5739 L577.8407 211.6246 L577.6535 211.6717 L577.4591 211.7171 L577.2596 211.7584 L577.0552 211.7961 L576.845 211.8287 L576.6304 211.8562 L576.4115 211.8786 L576.1884 211.894 L575.9622 211.9033 L575.7319 211.9051 L575.4993 211.8992 L575.2639 211.8845 L575.0255 211.8614 L571.815 211.5901 L571.815 234.4477 L575.0255 234.5851 C578.2799 234.8701 579.8048 233.6969 579.8048 233.6969 Z " opacity="1" stroke="#FFFFFF" stroke-opacity="1" stroke-width="0.39999" stroke-linecap="butt" stroke-linejoin="miter" stroke-dasharray="none" fill-opacity="0" /><line x1="573.2161" y1="210.5349" x2="579.4866" y2="210.5349" opacity="1" stroke="#02709F" stroke-opacity="1" stroke-width="0" stroke-linecap="butt" stroke-linejoin="miter" stroke-dasharray="none" /><line x1="573.2161" y1="210.5349" x2="579.4866" y2="210.5349" opacity="1" stroke="#FFFFFF" stroke-opacity="1" stroke-width="0.39999" stroke-linecap="butt" stroke-linejoin="miter" stroke-dasharray="none" /><line x1="581.3298" y1="209.7773" x2="584.7686" y2="206.6061" opacity="1" stroke="#02709F" stroke-opacity="1" stroke-width="0" stroke-linecap="butt" stroke-linejoin="miter" stroke-dasharray="none" /><line x1="581.3298" y1="209.7773" x2="584.7686" y2="206.6061" opacity="1" stroke="#FFFFFF" stroke-opacity="1" stroke-width="0.39999" stroke-linecap="butt" stroke-linejoin="miter" stroke-dasharray="none" /></g></g><line x1="591.9991" y1="221.8327" x2="659.3847" y2="231.6892" opacity="1" stroke="#000000" stroke-opacity="1" stroke-width="1" stroke-linecap="butt" stroke-linejoin="miter" stroke-dasharray="none" /><text x="591.9353" y="196.0321" font-size="10" fill="#000000" fill-opacity="1" font-family="Arial" font-weight="normal" font-style="normal">provider
</text><text x="594.1814" y="208.0321" font-size="10" fill="#000000" fill-opacity="1" font-family="Arial" font-weight="normal" font-style="normal">servers</text><rect x="711" y="90" width="45" height="36" opacity="1" stroke="#FB0106" stroke-opacity="0.4699329" stroke-width="1" stroke-linecap="butt" stroke-linejoin="miter" stroke-dasharray="none" fill="#FED3C8" fill-opacity="1" /><text x="731.2051" y="113.5336" font-size="12" fill="#FB0106" fill-opacity="0.4557658" font-family="Arial" font-weight="normal" font-style="normal">C</text><line x1="715.7204" y1="186.1567" x2="729.4053" y2="126" opacity="1" stroke="#FB0106" stroke-opacity="1" stroke-width="1" stroke-linecap="butt" stroke-linejoin="miter" stroke-dasharray="none" /><rect x="639" y="333" width="36" height="27" opacity="1" stroke="#FB0106" stroke-opacity="0.4699329" stroke-width="1" stroke-linecap="butt" stroke-linejoin="miter" stroke-dasharray="none" fill="#FED3C8" fill-opacity="1" /><rect x="693" y="342" width="36" height="27" opacity="1" stroke="#FB0106" stroke-opacity="0.4699329" stroke-width="1" stroke-linecap="butt" stroke-linejoin="miter" stroke-dasharray="none" fill="#FED3C8" fill-opacity="1" /><rect x="747" y="333" width="36" height="27" opacity="1" stroke="#FB0106" stroke-opacity="0.4699329" stroke-width="1" stroke-linecap="butt" stroke-linejoin="miter" stroke-dasharray="none" fill="#FED3C8" fill-opacity="1" /><line x1="669.1893" y1="333" x2="708.5166" y2="289.4441" opacity="1" stroke="#FB0106" stroke-opacity="1" stroke-width="1" stroke-linecap="butt" stroke-linejoin="miter" stroke-dasharray="none" /><line x1="711.5294" y1="342" x2="713.5903" y2="289.4441" opacity="1" stroke="#FB0106" stroke-opacity="1" stroke-width="1" stroke-linecap="butt" stroke-linejoin="miter" stroke-dasharray="none" /><line x1="754.0209" y1="333" x2="718.5981" y2="289.4441" opacity="1" stroke="#FB0106" stroke-opacity="1" stroke-width="1" stroke-linecap="butt" stroke-linejoin="miter" stroke-dasharray="none" /><rect x="918" y="189" width="45" height="36" opacity="1" stroke="#FB0106" stroke-opacity="0.4699329" stroke-width="1" stroke-linecap="butt" stroke-linejoin="miter" stroke-dasharray="none" fill="#FED3C8" fill-opacity="1" /><text x="935.0938" y="212.5336" font-size="12" fill="#FB0106" fill-opacity="0.4557658" font-family="Arial" font-weight="normal" font-style="normal">P2</text><line x1="756" y1="118.7609" x2="918" y2="196.2391" opacity="1" stroke="#FB0106" stroke-opacity="1" stroke-width="1" stroke-linecap="butt" stroke-linejoin="miter" stroke-dasharray="none" /><text x="678.383" y="165.0547" font-size="10" fill="#0000FE" fill-opacity="1" font-family="Arial" font-weight="normal" font-style="normal">own </text><text x="678.383" y="177.0547" font-size="10" fill="#0000FE" fill-opacity="1" font-family="Arial" font-weight="normal" font-style="normal">changes</text><text x="737.6664" y="154.6094" font-size="10" fill="#0000FE" fill-opacity="1" font-family="Arial" font-weight="normal" font-style="normal">- peer updates
</text><text x="737.6664" y="166.6094" font-size="10" fill="#0000FE" fill-opacity="1" font-family="Arial" font-weight="normal" font-style="normal">- upstream </text><line x1="732.6962" y1="151.6428" x2="735.6132" y2="137.3651" marker-start="url(#marker1)" opacity="1" stroke="#0000FE" stroke-opacity="1" stroke-width="1" stroke-linecap="butt" stroke-linejoin="miter" stroke-dasharray="none" /><line x1="714.048" y1="155.1789" x2="717.9356" y2="139.0709" marker-end="url(#marker2)" opacity="1" stroke="#0000FE" stroke-opacity="1" stroke-width="1" stroke-linecap="butt" stroke-linejoin="miter" stroke-dasharray="none" /><text x="585.6101" y="251.8853" font-size="10" fill="#0000FE" fill-opacity="1" font-family="Arial" font-weight="normal" font-style="normal">legacy </text><text x="585.6101" y="263.8853" font-size="10" fill="#0000FE" fill-opacity="1" font-family="Arial" font-weight="normal" font-style="normal">data
</text><text x="585.6101" y="275.8853" font-size="10" fill="#0000FE" fill-opacity="1" font-family="Arial" font-weight="normal" font-style="normal">  - import
</text><line x1="605.3895" y1="231.3328" x2="625.6276" y2="233.801" marker-start="url(#marker3)" marker-end="url(#marker4)" opacity="1" stroke="#0000FE" stroke-opacity="1" stroke-width="1" stroke-linecap="butt" stroke-linejoin="miter" stroke-dasharray="none" /><text x="776.1316" y="203.2673" font-size="10" fill="#0000FE" fill-opacity="1" font-family="Arial" font-weight="normal" font-style="normal">data
</text><text x="776.1316" y="215.2673" font-size="10" fill="#0000FE" fill-opacity="1" font-family="Arial" font-weight="normal" font-style="normal">display</text><text x="796.7934" y="247.306" font-size="10" fill="#0000FE" fill-opacity="1" font-family="Arial" font-weight="normal" font-style="normal">entry</text><line x1="787.8948" y1="236.4443" x2="808.6219" y2="229.8728" marker-start="url(#marker5)" opacity="1" stroke="#0000FE" stroke-opacity="1" stroke-width="1" stroke-linecap="butt" stroke-linejoin="miter" stroke-dasharray="none" /><rect x="701.004" y="186.1567" width="26.76009" height="11.74869" opacity="1" stroke="#000000" stroke-opacity="1" stroke-width="1" stroke-linecap="butt" stroke-linejoin="miter" stroke-dasharray="none" fill="#FFFFFF" fill-opacity="1" /><text x="705.2239" y="195.1424" font-size="10" fill="#000000" fill-opacity="1" font-family="Arial" font-weight="normal" font-style="normal">wss</text><rect x="700.4406" y="277.6953" width="26.76009" height="11.74869" opacity="1" stroke="#000000" stroke-opacity="1" stroke-width="1" stroke-linecap="butt" stroke-linejoin="miter" stroke-dasharray="none" fill="#FFFFFF" fill-opacity="1" /><text x="704.6605" y="286.681" font-size="10" fill="#000000" fill-opacity="1" font-family="Arial" font-weight="normal" font-style="normal">wss</text><rect x="745.3433" y="234.3841" width="26.76009" height="11.74869" opacity="1" stroke="#000000" stroke-opacity="1" stroke-width="1" stroke-linecap="butt" stroke-linejoin="miter" stroke-dasharray="none" fill="#FFFFFF" fill-opacity="1" /><text x="749.5631" y="243.3698" font-size="10" fill="#000000" fill-opacity="1" font-family="Arial" font-weight="normal" font-style="normal">wss</text><line x1="783.5861" y1="224.2492" x2="804.3133" y2="217.6777" marker-end="url(#marker6)" opacity="1" stroke="#0000FE" stroke-opacity="1" stroke-width="1" stroke-linecap="butt" stroke-linejoin="miter" stroke-dasharray="none" /><text x="658.9301" y="97.43272" font-size="10" fill="#000000" fill-opacity="1" font-family="Arial" font-weight="normal" font-style="normal">upstream
</text><text x="653.7738" y="109.4327" font-size="10" fill="#000000" fill-opacity="1" font-family="Arial" font-weight="normal" font-style="normal">coordinator
</text><text x="669.538" y="121.4327" font-size="10" fill="#000000" fill-opacity="1" font-family="Arial" font-weight="normal" font-style="normal">node</text><text x="581.1313" y="327.3103" font-size="10" fill="#000000" fill-opacity="1" font-family="Arial" font-weight="normal" font-style="normal">downstream
</text><text x="595.9312" y="339.3103" font-size="10" fill="#000000" fill-opacity="1" font-family="Arial" font-weight="normal" font-style="normal">nodes</text><text x="909.1957" y="170.0968" font-size="10" fill="#000000" fill-opacity="1" font-family="Arial" font-weight="normal" font-style="normal">peer
</text><text x="905.3847" y="182.0968" font-size="10" fill="#000000" fill-opacity="1" font-family="Arial" font-weight="normal" font-style="normal">nodes</text><g><g><g><path d="M646.9471 272.8424 L646.9471 290.3291 Q650.1727 293.2436 659.8525 293.2436 Q669.532 293.2436 672.7576 290.3291 L672.7576 272.8424 Z " opacity="1" stroke="#000000" stroke-opacity="1" stroke-width="1" stroke-linecap="butt" stroke-linejoin="miter" stroke-dasharray="none" fill="#FFFFFF" fill-opacity="1" /><text x="654.0594" y="287.5209" font-size="7" fill="#000000" fill-opacity="1" font-family="Arial" font-weight="normal" font-style="normal">conf</text><ellipse cx="659.8523" cy="272.8421" rx="12.90526" ry="2.914433" opacity="1" stroke="#000000" stroke-opacity="1" stroke-width="1" stroke-linecap="butt" stroke-linejoin="miter" stroke-dasharray="none" fill="#FFFFFF" fill-opacity="1" /></g></g></g><g><g><g><path d="M647.1191 246.3756 L647.1191 263.8623 Q650.3447 266.7768 660.0244 266.7768 Q669.704 266.7768 672.9296 263.8623 L672.9296 246.3756 Z " opacity="1" stroke="#000000" stroke-opacity="1" stroke-width="1" stroke-linecap="butt" stroke-linejoin="miter" stroke-dasharray="none" fill="#FFFFFF" fill-opacity="1" /><text x="654.2827" y="261.0541" font-size="7" fill="#000000" fill-opacity="1" font-family="Arial" font-weight="normal" font-style="normal">data</text><ellipse cx="660.0244" cy="246.3753" rx="12.90526" ry="2.914433" opacity="1" stroke="#000000" stroke-opacity="1" stroke-width="1" stroke-linecap="butt" stroke-linejoin="miter" stroke-dasharray="none" fill="#FFFFFF" fill-opacity="1" /></g></g></g></g></svg>