<?xml version="1.0" encoding="utf-8"?><svg width="100%" height="100%" version="1.1" viewBox="404.9012 222 390.0988 231" style="background-color:#FFFFFF" xmlns:xlink="http://www.w3.org/1999/xlink" xmlns="http://www.w3.org/2000/svg"><defs><filter id="shadow1" width="150%" height="150%"><feGaussianBlur in="SourceAlpha" result="blur" stdDeviation="5" /><feOffset dx="5" dy="5" in="blur" result="offsetBlur" /><feMerge><feMergeNode in="offsetBlur" /><feMergeNode in="SourceGraphic" /></feMerge></filter></defs><marker id="marker1" markerUnits="strokeWidth" orient="auto" refX="-5.086271" refY="0" markerWidth="7.636236" markerHeight="6.114774" viewBox="-6.636236 -3.057387 7.636236 6.114774"><path d="M-5.636236 -2.057387 L0 0 L-5.636236 2.057387 Z " fill="#000000" fill-opacity="1" stroke="#000000" stroke-opacity="1" /></marker><marker id="marker2" markerUnits="strokeWidth" orient="auto" refX="-5.086271" refY="0" markerWidth="7.636236" markerHeight="6.114774" viewBox="-6.636236 -3.057387 7.636236 6.114774"><path d="M-5.636236 -2.057387 L0 0 L-5.636236 2.057387 Z " fill="#000000" fill-opacity="1" stroke="#000000" stroke-opacity="1" /></marker><marker id="marker3" markerUnits="strokeWidth" orient="auto" refX="-5.086271" refY="0" markerWidth="7.636236" markerHeight="6.114774" viewBox="-6.636236 -3.057387 7.636236 6.114774"><path d="M-5.636236 -2.057387 L0 0 L-5.636236 2.057387 Z " fill="#000000" fill-opacity="1" stroke="#000000" stroke-opacity="1" /></marker><marker id="marker4" markerUnits="strokeWidth" orient="auto" refX="-5.086271" refY="0" markerWidth="7.636236" markerHeight="6.114774" viewBox="-6.636236 -3.057387 7.636236 6.114774"><path d="M-5.636236 -2.057387 L0 0 L-5.636236 2.057387 Z " fill="#000000" fill-opacity="1" stroke="#000000" stroke-opacity="1" /></marker><marker id="marker5" markerUnits="strokeWidth" orient="auto" refX="-5.086271" refY="0" markerWidth="7.636236" markerHeight="6.114774" viewBox="-6.636236 -3.057387 7.636236 6.114774"><path d="M-5.636236 -2.057387 L0 0 L-5.636236 2.057387 Z " fill="#000000" fill-opacity="1" stroke="#000000" stroke-opacity="1" /></marker><marker id="marker6" markerUnits="strokeWidth" orient="auto" refX="-5.086271" refY="0" markerWidth="7.636236" markerHeight="6.114774" viewBox="-6.636236 -3.057387 7.636236 6.114774"><path d="M-5.636236 -2.057387 L0 0 L-5.636236 2.057387 Z " fill="#000000" fill-opacity="1" stroke="#000000" stroke-opacity="1" /></marker><marker id="marker7" markerUnits="strokeWidth" orient="auto" refX="-5.086271" refY="0" markerWidth="7.636236" markerHeight="6.114774" viewBox="-6.636236 -3.057387 7.636236 6.114774"><path d="M-5.636236 -2.057387 L0 0 L-5.636236 2.057387 Z " fill="#000000" fill-opacity="1" stroke="#000000" stroke-opacity="1" /></marker><marker id="marker8" markerUnits="strokeWidth" orient="auto" refX="-5.086271" refY="0" markerWidth="7.636236" markerHeight="6.114774" viewBox="-6.636236 -3.057387 7.636236 6.114774"><path d="M-5.636236 -2.057387 L0 0 L-5.636236 2.057387 Z " fill="#000000" fill-opacity="1" stroke="#000000" stroke-opacity="1" /></marker><marker id="marker9" markerUnits="strokeWidth" orient="auto" refX="-0.8697562" refY="0" markerWidth="13.27247" markerHeight="10.22955" viewBox="-12.27247 -5.114774 13.27247 10.22955"><path d="M-11.27247 -4.114774 L0 0 L-11.27247 4.114773" fill="none" stroke="#FC7F08" stroke-opacity="1" /></marker><marker id="marker10" markerUnits="strokeWidth" orient="auto" refX="-0.8697562" refY="0" markerWidth="13.27247" markerHeight="10.22955" viewBox="-12.27247 -5.114774 13.27247 10.22955"><path d="M-11.27247 -4.114774 L0 0 L-11.27247 4.114773" fill="none" stroke="#FC7F08" stroke-opacity="1" /></marker><g id="layer1"><rect x="603" y="387" width="189" height="63" rx="9" ry="9" opacity="1" stroke="#FC7F08" stroke-opacity="1" stroke-width="1" stroke-linecap="butt" stroke-linejoin="miter" stroke-dasharray="none" fill="#FFFECB" fill-opacity="1" /><rect x="603" y="234" width="189" height="63" rx="9" ry="9" opacity="1" stroke="#FC7F08" stroke-opacity="1" stroke-width="1" stroke-linecap="butt" stroke-linejoin="miter" stroke-dasharray="none" fill="#FFFECB" fill-opacity="1" /><rect x="505.3226" y="252" width="61.67733" height="36" opacity="1" stroke="#000000" stroke-opacity="1" stroke-width="1" stroke-linecap="butt" stroke-linejoin="miter" stroke-dasharray="none" fill="#FFFFFF" fill-opacity="1" filter="url(#shadow1)" /><text x="512.9532" y="274.5336" font-size="12" fill="#000000" fill-opacity="1" font-family="Arial" font-weight="normal" font-style="normal">importer</text><rect x="613.3226" y="243" width="61.67733" height="36" opacity="1" stroke="#000000" stroke-opacity="1" stroke-width="1" stroke-linecap="butt" stroke-linejoin="miter" stroke-dasharray="none" fill="#FFFFFF" fill-opacity="1" filter="url(#shadow1)" /><rect x="721.3226" y="252" width="61.67733" height="36" opacity="1" stroke="#000000" stroke-opacity="1" stroke-width="1" stroke-linecap="butt" stroke-linejoin="miter" stroke-dasharray="none" fill="#FFFFFF" fill-opacity="1" filter="url(#shadow1)" /><text x="734.7628" y="274.5336" font-size="12" fill="#000000" fill-opacity="1" font-family="Arial" font-weight="normal" font-style="normal">viewer</text><line x1="567" y1="270" x2="605.9137" y2="270" marker-end="url(#marker1)" opacity="1" stroke="#000000" stroke-opacity="1" stroke-width="1" stroke-linecap="butt" stroke-linejoin="miter" stroke-dasharray="none" /><line x1="675" y1="270" x2="713.9137" y2="270" marker-end="url(#marker2)" opacity="1" stroke="#000000" stroke-opacity="1" stroke-width="1" stroke-linecap="butt" stroke-linejoin="miter" stroke-dasharray="none" /><rect x="505.3227" y="405" width="61.67733" height="36" opacity="1" stroke="#000000" stroke-opacity="1" stroke-width="1" stroke-linecap="butt" stroke-linejoin="miter" stroke-dasharray="none" fill="#FFFFFF" fill-opacity="1" filter="url(#shadow1)" /><text x="514.3215" y="427.5336" font-size="12" fill="#000000" fill-opacity="1" font-family="Arial" font-weight="normal" font-style="normal">replayer</text><rect x="613.3226" y="396" width="61.67733" height="36" opacity="1" stroke="#000000" stroke-opacity="1" stroke-width="1" stroke-linecap="butt" stroke-linejoin="miter" stroke-dasharray="none" fill="#FFFFFF" fill-opacity="1" filter="url(#shadow1)" /><rect x="721.3226" y="405" width="61.67733" height="36" opacity="1" stroke="#000000" stroke-opacity="1" stroke-width="1" stroke-linecap="butt" stroke-linejoin="miter" stroke-dasharray="none" fill="#FFFFFF" fill-opacity="1" filter="url(#shadow1)" /><text x="734.7628" y="427.5336" font-size="12" fill="#000000" fill-opacity="1" font-family="Arial" font-weight="normal" font-style="normal">viewer</text><line x1="567" y1="423" x2="605.9137" y2="423" marker-end="url(#marker3)" opacity="1" stroke="#000000" stroke-opacity="1" stroke-width="1" stroke-linecap="butt" stroke-linejoin="miter" stroke-dasharray="none" /><line x1="675" y1="423" x2="713.9137" y2="423" marker-end="url(#marker4)" opacity="1" stroke="#000000" stroke-opacity="1" stroke-width="1" stroke-linecap="butt" stroke-linejoin="miter" stroke-dasharray="none" /><rect x="550.3226" y="306" width="61.67733" height="36" opacity="1" stroke="#000000" stroke-opacity="1" stroke-width="1" stroke-linecap="butt" stroke-linejoin="miter" stroke-dasharray="none" fill="#FFFFFF" fill-opacity="1" filter="url(#shadow1)" /><text x="559.4093" y="328.5336" font-size="12" fill="#000000" fill-opacity="1" font-family="Arial" font-weight="normal" font-style="normal">archiver</text><g><g><g><path d="M413.5013 392.5 L413.5013 425.4998 Q419.4387 431 437.2506 431 Q455.0625 431 461 425.4998 L461 392.5 Z " opacity="1" stroke="#000000" stroke-opacity="1" stroke-width="1" stroke-linecap="butt" stroke-linejoin="miter" stroke-dasharray="none" fill="#81A9C3" fill-opacity="1" /><ellipse cx="437.2506" cy="392.5" rx="23.74939" ry="5.499962" opacity="1" stroke="#000000" stroke-opacity="1" stroke-width="1" stroke-linecap="butt" stroke-linejoin="miter" stroke-dasharray="none" fill="#81A9C3" fill-opacity="1" /></g></g></g><g><g><path d="M436.8171 267.7876 L415.5632 267.7876 L415.5632 315 L436.8171 315" opacity="1" fill="#026C9B" fill-opacity="1" /><path d="M436.8171 267.7876 L415.5632 267.7876 L415.5632 315 L436.8171 315" opacity="1" stroke="#FFFFFF" stroke-opacity="1" stroke-width="0.4" stroke-linecap="butt" stroke-linejoin="miter" stroke-dasharray="none" fill-opacity="0" /><path d="M436.8171 315 L443.6049 308.2124 L443.6049 261 L422.3507 261 L415.5632 267.7876 L436.8171 267.7876 Z " opacity="1" fill="#026C9B" fill-opacity="1" /><path d="M436.8171 315 L443.6049 308.2124 L443.6049 261 L422.3507 261 L415.5632 267.7876 L436.8171 267.7876 Z " opacity="1" stroke="#FFFFFF" stroke-opacity="1" stroke-width="0.4" stroke-linecap="butt" stroke-linejoin="miter" stroke-dasharray="none" fill-opacity="0" /><line x1="436.8171" y1="267.7876" x2="443.6049" y2="261" opacity="1" stroke="#026C9B" stroke-opacity="1" stroke-width="0" stroke-linecap="butt" stroke-linejoin="miter" stroke-dasharray="none" /><line x1="436.8171" y1="267.7876" x2="443.6049" y2="261" opacity="1" stroke="#FFFFFF" stroke-opacity="1" stroke-width="0.4" stroke-linecap="butt" stroke-linejoin="miter" stroke-dasharray="none" /><path d="M428.108 289.3815 L428.108 287.8276 L417.403 287.8276 L417.403 289.3815 Z " opacity="1" fill="#026C9B" fill-opacity="1" /><path d="M417.403 289.3815 L428.108 289.3815 L428.108 287.8276 L417.403 287.8276 Z " opacity="1" stroke="#FFFFFF" stroke-opacity="1" stroke-width="0.4" stroke-linecap="butt" stroke-linejoin="miter" stroke-dasharray="none" fill-opacity="0" /><path d="M428.108 292.6029 L428.108 291.049 L417.403 291.049 L417.403 292.6029 Z " opacity="1" fill="#026C9B" fill-opacity="1" /><path d="M417.403 292.6029 L428.108 292.6029 L428.108 291.049 L417.403 291.049 Z " opacity="1" stroke="#FFFFFF" stroke-opacity="1" stroke-width="0.4" stroke-linecap="butt" stroke-linejoin="miter" stroke-dasharray="none" fill-opacity="0" /><path d="M428.108 295.8296 L428.108 294.2756 L417.403 294.2756 L417.403 295.8296 Z " opacity="1" fill="#026C9B" fill-opacity="1" /><path d="M417.403 295.8296 L428.108 295.8296 L428.108 294.2756 L417.403 294.2756 Z " opacity="1" stroke="#FFFFFF" stroke-opacity="1" stroke-width="0.4" stroke-linecap="butt" stroke-linejoin="miter" stroke-dasharray="none" fill-opacity="0" /><path d="M428.108 299.051 L428.108 297.497 L417.403 297.497 L417.403 299.051 Z " opacity="1" fill="#026C9B" fill-opacity="1" /><path d="M417.403 299.051 L428.108 299.051 L428.108 297.497 L417.403 297.497 Z " opacity="1" stroke="#FFFFFF" stroke-opacity="1" stroke-width="0.4" stroke-linecap="butt" stroke-linejoin="miter" stroke-dasharray="none" fill-opacity="0" /><path d="M428.108 302.2715 L428.108 300.718 L417.403 300.718 L417.403 302.2715 Z " opacity="1" fill="#026C9B" fill-opacity="1" /><path d="M417.403 302.2715 L428.108 302.2715 L428.108 300.718 L417.403 300.718 Z " opacity="1" stroke="#FFFFFF" stroke-opacity="1" stroke-width="0.4" stroke-linecap="butt" stroke-linejoin="miter" stroke-dasharray="none" fill-opacity="0" /><path d="M428.108 305.493 L428.108 303.939 L417.403 303.939 L417.403 305.493 Z " opacity="1" fill="#026C9B" fill-opacity="1" /><path d="M417.403 305.493 L428.108 305.493 L428.108 303.939 L417.403 303.939 Z " opacity="1" stroke="#FFFFFF" stroke-opacity="1" stroke-width="0.4" stroke-linecap="butt" stroke-linejoin="miter" stroke-dasharray="none" fill-opacity="0" /><path d="M428.108 308.7197 L428.108 307.1657 L417.403 307.1657 L417.403 308.7197 Z " opacity="1" fill="#026C9B" fill-opacity="1" /><path d="M417.403 308.7197 L428.108 308.7197 L428.108 307.1657 L417.403 307.1657 Z " opacity="1" stroke="#FFFFFF" stroke-opacity="1" stroke-width="0.4" stroke-linecap="butt" stroke-linejoin="miter" stroke-dasharray="none" fill-opacity="0" /><path d="M428.108 311.9353 L428.108 310.3813 L417.403 310.3813 L417.403 311.9353 Z " opacity="1" fill="#026C9B" fill-opacity="1" /><path d="M417.403 311.9353 L428.108 311.9353 L428.108 310.3813 L417.403 310.3813 Z " opacity="1" stroke="#FFFFFF" stroke-opacity="1" stroke-width="0.4" stroke-linecap="butt" stroke-linejoin="miter" stroke-dasharray="none" fill-opacity="0" /><path d="M429.3982 273.2853 L429.3844 273.4898 L429.3429 273.6927 L429.2739 273.8915 L429.18 274.0866 L429.0597 274.2801 L428.9147 274.4678 L428.7448 274.653 L428.5528 274.834 L428.3373 275.0092 L428.0998 275.1819 L427.8414 275.3476 L427.5624 275.5093 L427.2626 275.6652 L426.9435 275.8158 L426.6051 275.9596 L426.2488 276.0977 L425.8758 276.229 L425.4863 276.3545 L425.0802 276.4721 L424.6589 276.5841 L424.2224 276.6861 L423.7721 276.7829 L423.3094 276.8697 L422.8328 276.9498 L422.3452 277.0219 L421.8452 277.0841 L421.3353 277.1379 L420.8154 277.1819 L420.2861 277.2165 L419.7484 277.2415 L419.2025 277.2567 L418.6495 277.262 C412.7142 277.262 407.9012 275.4816 407.9012 273.2853 L407.9012 282.4585 C407.9012 284.6495 412.7142 286.4352 418.6495 286.4352 C424.5843 286.4352 429.3982 284.6495 429.3982 282.4585 Z " opacity="1" fill="#026C9B" fill-opacity="1" /><path d="M429.3982 273.2853 L429.3844 273.4898 L429.3429 273.6927 L429.2739 273.8915 L429.18 274.0866 L429.0597 274.2801 L428.9147 274.4678 L428.7448 274.653 L428.5528 274.834 L428.3373 275.0092 L428.0998 275.1819 L427.8414 275.3476 L427.5624 275.5093 L427.2626 275.6652 L426.9435 275.8158 L426.6051 275.9596 L426.2488 276.0977 L425.8758 276.229 L425.4863 276.3545 L425.0802 276.4721 L424.6589 276.5841 L424.2224 276.6861 L423.7721 276.7829 L423.3094 276.8697 L422.8328 276.9498 L422.3452 277.0219 L421.8452 277.0841 L421.3353 277.1379 L420.8154 277.1819 L420.2861 277.2165 L419.7484 277.2415 L419.2025 277.2567 L418.6495 277.262 C412.7142 277.262 407.9012 275.4816 407.9012 273.2853 L407.9012 282.4585 C407.9012 284.6495 412.7142 286.4352 418.6495 286.4352 C424.5843 286.4352 429.3982 284.6495 429.3982 282.4585 Z " opacity="1" stroke="#FFFFFF" stroke-opacity="1" stroke-width="0.4" stroke-linecap="butt" stroke-linejoin="miter" stroke-dasharray="none" fill-opacity="0" /><path d="M418.6495 277.262 L419.2025 277.2567 L419.7484 277.2415 L420.2861 277.2165 L420.8154 277.1819 L421.3353 277.1379 L421.8452 277.0841 L422.3452 277.0219 L422.8328 276.9498 L423.3094 276.8697 L423.7721 276.7829 L424.2224 276.6861 L424.6589 276.5841 L425.0802 276.4721 L425.4863 276.3545 L425.8758 276.229 L426.2488 276.0977 L426.6051 275.9596 L426.9435 275.8158 L427.2626 275.6652 L427.5624 275.5093 L427.8414 275.3476 L428.0998 275.1819 L428.3373 275.0092 L428.5528 274.834 L428.7448 274.653 L428.9147 274.4678 L429.0597 274.2801 L429.18 274.0866 L429.2739 273.8915 L429.3429 273.6927 L429.3844 273.4898 L429.3982 273.2853 C429.3982 271.0849 424.5843 269.3044 418.6495 269.3044 C412.7142 269.3044 407.9012 271.0849 407.9012 273.2853 C407.9012 275.4816 412.7142 277.262 418.6495 277.262 Z " opacity="1" fill="#026C9B" fill-opacity="1" /><path d="M418.6495 277.262 L419.2025 277.2567 L419.7484 277.2415 L420.2861 277.2165 L420.8154 277.1819 L421.3353 277.1379 L421.8452 277.0841 L422.3452 277.0219 L422.8328 276.9498 L423.3094 276.8697 L423.7721 276.7829 L424.2224 276.6861 L424.6589 276.5841 L425.0802 276.4721 L425.4863 276.3545 L425.8758 276.229 L426.2488 276.0977 L426.6051 275.9596 L426.9435 275.8158 L427.2626 275.6652 L427.5624 275.5093 L427.8414 275.3476 L428.0998 275.1819 L428.3373 275.0092 L428.5528 274.834 L428.7448 274.653 L428.9147 274.4678 L429.0597 274.2801 L429.18 274.0866 L429.2739 273.8915 L429.3429 273.6927 L429.3844 273.4898 L429.3982 273.2853 C429.3982 271.0849 424.5843 269.3044 418.6495 269.3044 C412.7142 269.3044 407.9012 271.0849 407.9012 273.2853 C407.9012 275.4816 412.7142 277.262 418.6495 277.262 Z " opacity="1" stroke="#FFFFFF" stroke-opacity="1" stroke-width="0.4" stroke-linecap="butt" stroke-linejoin="miter" stroke-dasharray="none" fill-opacity="0" /><path d="M440.9072 281.573 L440.8934 281.7775 L440.8519 281.9805 L440.7829 282.1797 L440.689 282.3743 L440.5688 282.5678 L440.4238 282.7556 L440.2552 282.9407 L440.0619 283.1217 L439.8464 283.2969 L439.6102 283.4695 L439.3504 283.6353 L439.0714 283.797 L438.7717 283.9533 L438.4526 284.1039 L438.1142 284.2473 L437.7578 284.3854 L437.3849 284.5167 L436.9954 284.6422 L436.5893 284.7598 L436.168 284.8718 L435.7315 284.9738 L435.2812 285.0706 L434.8184 285.1578 L434.3419 285.2379 L433.8542 285.3095 L433.3542 285.3718 L432.8445 285.4257 L432.3251 285.4697 L431.7947 285.5042 L431.2574 285.5292 L430.7118 285.5444 L430.1579 285.5501 C424.2238 285.5501 419.4102 283.7693 419.4102 281.573 L419.4102 290.7466 C419.4102 292.9372 424.2238 294.7233 430.1579 294.7233 C436.0934 294.7233 440.9072 292.9372 440.9072 290.7466 Z " opacity="1" fill="#026C9B" fill-opacity="1" /><path d="M440.9072 281.573 L440.8934 281.7775 L440.8519 281.9805 L440.7829 282.1797 L440.689 282.3743 L440.5688 282.5678 L440.4238 282.7556 L440.2552 282.9407 L440.0619 283.1217 L439.8464 283.2969 L439.6102 283.4695 L439.3504 283.6353 L439.0714 283.797 L438.7717 283.9533 L438.4526 284.1039 L438.1142 284.2473 L437.7578 284.3854 L437.3849 284.5167 L436.9954 284.6422 L436.5893 284.7598 L436.168 284.8718 L435.7315 284.9738 L435.2812 285.0706 L434.8184 285.1578 L434.3419 285.2379 L433.8542 285.3095 L433.3542 285.3718 L432.8445 285.4257 L432.3251 285.4697 L431.7947 285.5042 L431.2574 285.5292 L430.7118 285.5444 L430.1579 285.5501 C424.2238 285.5501 419.4102 283.7693 419.4102 281.573 L419.4102 290.7466 C419.4102 292.9372 424.2238 294.7233 430.1579 294.7233 C436.0934 294.7233 440.9072 292.9372 440.9072 290.7466 Z " opacity="1" stroke="#FFFFFF" stroke-opacity="1" stroke-width="0.4" stroke-linecap="butt" stroke-linejoin="miter" stroke-dasharray="none" fill-opacity="0" /><path d="M430.1579 285.5501 L430.7118 285.5444 L431.2574 285.5292 L431.7947 285.5042 L432.3251 285.4697 L432.8445 285.4257 L433.3542 285.3718 L433.8542 285.3095 L434.3419 285.2379 L434.8184 285.1578 L435.2812 285.0706 L435.7315 284.9738 L436.168 284.8718 L436.5893 284.7598 L436.9954 284.6422 L437.3849 284.5167 L437.7578 284.3854 L438.1142 284.2473 L438.4526 284.1039 L438.7717 283.9533 L439.0714 283.797 L439.3504 283.6353 L439.6102 283.4695 L439.8464 283.2969 L440.0619 283.1217 L440.2552 282.9407 L440.4238 282.7556 L440.5688 282.5678 L440.689 282.3743 L440.7829 282.1797 L440.8519 281.9805 L440.8934 281.7775 L440.9072 281.573 C440.9072 279.3725 436.0934 277.5921 430.1579 277.5921 C424.2238 277.5921 419.4102 279.3725 419.4102 281.573 C419.4102 283.7693 424.2238 285.5501 430.1579 285.5501 Z " opacity="1" fill="#026C9B" fill-opacity="1" /><path d="M430.1579 285.5501 L430.7118 285.5444 L431.2574 285.5292 L431.7947 285.5042 L432.3251 285.4697 L432.8445 285.4257 L433.3542 285.3718 L433.8542 285.3095 L434.3419 285.2379 L434.8184 285.1578 L435.2812 285.0706 L435.7315 284.9738 L436.168 284.8718 L436.5893 284.7598 L436.9954 284.6422 L437.3849 284.5167 L437.7578 284.3854 L438.1142 284.2473 L438.4526 284.1039 L438.7717 283.9533 L439.0714 283.797 L439.3504 283.6353 L439.6102 283.4695 L439.8464 283.2969 L440.0619 283.1217 L440.2552 282.9407 L440.4238 282.7556 L440.5688 282.5678 L440.689 282.3743 L440.7829 282.1797 L440.8519 281.9805 L440.8934 281.7775 L440.9072 281.573 C440.9072 279.3725 436.0934 277.5921 430.1579 277.5921 C424.2238 277.5921 419.4102 279.3725 419.4102 281.573 C419.4102 283.7693 424.2238 285.5501 430.1579 285.5501 Z " opacity="1" stroke="#FFFFFF" stroke-opacity="1" stroke-width="0.4" stroke-linecap="butt" stroke-linejoin="miter" stroke-dasharray="none" fill-opacity="0" /></g></g><g><g><g><path d="M422.5013 401.5 L422.5013 434.4998 Q428.4387 440 446.2506 440 Q464.0625 440 470 434.4998 L470 401.5 Z " opacity="1" stroke="#000000" stroke-opacity="1" stroke-width="1" stroke-linecap="butt" stroke-linejoin="miter" stroke-dasharray="none" fill="#81A9C3" fill-opacity="1" /><text x="427.7838" y="426.2836" font-size="12" fill="#000000" fill-opacity="1" font-family="Arial" font-weight="normal" font-style="normal">archive</text><ellipse cx="446.2506" cy="401.5" rx="23.74939" ry="5.499961" opacity="1" stroke="#000000" stroke-opacity="1" stroke-width="1" stroke-linecap="butt" stroke-linejoin="miter" stroke-dasharray="none" fill="#81A9C3" fill-opacity="1" /></g></g></g><line x1="472.5" y1="423" x2="497.9137" y2="423" marker-end="url(#marker5)" opacity="1" stroke="#000000" stroke-opacity="1" stroke-width="1" stroke-linecap="butt" stroke-linejoin="miter" stroke-dasharray="none" /><g><g><path d="M455.3942 242.418 L456.5952 242.412 L457.7801 242.395 L458.9482 242.3669 L460.0971 242.3279 L461.2262 242.279 L462.3331 242.2189 L463.4181 242.15 L464.4771 242.0711 L465.5111 241.983 L466.5172 241.8849 L467.4942 241.7789 L468.4412 241.6641 L469.3562 241.5411 L470.2382 241.41 L471.0841 241.2711 L471.8952 241.1249 L472.6682 240.9711 L473.4012 240.811 L474.0942 240.644 L474.7452 240.471 L475.3521 240.2919 L475.9142 240.1071 L476.4291 239.9162 L476.8961 239.7201 L477.3141 239.5201 L477.6812 239.3141 L477.9961 239.1051 L478.2562 238.8911 L478.4611 238.6731 L478.6101 238.452 L478.7001 238.227 L478.7302 238.0001 C478.7302 235.559 468.2812 233.582 455.3942 233.582 C442.5081 233.582 432.0626 235.559 432.0626 238.0001 C432.0626 240.441 442.5081 242.418 455.3942 242.418 Z " opacity="1" fill="#FFFFFF" fill-opacity="1" /><path d="M455.3942 242.418 L456.5952 242.412 L457.7801 242.395 L458.9482 242.3669 L460.0971 242.3279 L461.2262 242.279 L462.3331 242.2189 L463.4181 242.15 L464.4771 242.0711 L465.5111 241.983 L466.5172 241.8849 L467.4942 241.7789 L468.4412 241.6641 L469.3562 241.5411 L470.2382 241.41 L471.0841 241.2711 L471.8952 241.1249 L472.6682 240.9711 L473.4012 240.811 L474.0942 240.644 L474.7452 240.471 L475.3521 240.2919 L475.9142 240.1071 L476.4291 239.9162 L476.8961 239.7201 L477.3141 239.5201 L477.6812 239.3141 L477.9961 239.1051 L478.2562 238.8911 L478.4611 238.6731 L478.6101 238.452 L478.7001 238.227 L478.7302 238.0001 C478.7302 235.559 468.2812 233.582 455.3942 233.582 C442.5081 233.582 432.0626 235.559 432.0626 238.0001 C432.0626 240.441 442.5081 242.418 455.3942 242.418 Z " opacity="1" stroke="#000000" stroke-opacity="1" stroke-width="0.14999" stroke-linecap="butt" stroke-linejoin="miter" stroke-dasharray="none" fill-opacity="0" /><path d="M455.5191 250.1719 L456.7201 250.1439 L457.9041 250.062 L459.0702 249.9294 L460.2171 249.7489 L461.3431 249.524 L462.4471 249.2581 L463.5272 248.9529 L464.5832 248.6129 L465.6122 248.2411 L466.6132 247.8411 L467.5852 247.414 L468.5271 246.9639 L469.4361 246.4951 L470.3121 246.01 L471.1531 245.511 L471.9572 245.0009 L472.7242 244.4851 L473.4522 243.9649 L474.1392 243.4431 L474.7841 242.924 L475.3861 242.41 L475.9431 241.9049 L476.4532 241.4112 L476.9161 240.9321 L477.3292 240.4702 L477.6932 240.0301 L478.0041 239.6129 L478.2621 239.224 L478.4642 238.865 L478.6111 238.539 L478.7001 238.2501 L478.7302 238.0001 C478.7302 235.559 468.2812 233.582 455.3942 233.582 C442.5081 233.582 432.0626 235.559 432.0626 238.0001 C432.0626 240.441 442.6331 250.1719 455.5191 250.1719 Z " opacity="1" fill="#036998" fill-opacity="1" /><path d="M455.3942 242.418 L456.5952 242.412 L457.7801 242.395 L458.9482 242.3669 L460.0971 242.3279 L461.2262 242.279 L462.3331 242.2189 L463.4181 242.15 L464.4771 242.0711 L465.5111 241.983 L466.5172 241.8849 L467.4942 241.7789 L468.4412 241.6641 L469.3562 241.5411 L470.2382 241.41 L471.0841 241.2711 L471.8952 241.1249 L472.6682 240.9711 L473.4012 240.811 L474.0942 240.644 L474.7452 240.471 L475.3521 240.2919 L475.9142 240.1071 L476.4291 239.9162 L476.8961 239.7201 L477.3141 239.5201 L477.6812 239.3141 L477.9961 239.1051 L478.2562 238.8911 L478.4611 238.6731 L478.6101 238.452 L478.7001 238.227 L478.7302 238.0001 C478.7302 235.559 468.2812 233.582 455.3942 233.582 C442.5081 233.582 432.0626 235.559 432.0626 238.0001 C432.0626 240.441 442.5081 242.418 455.3942 242.418 Z " opacity="1" fill="#FFFFFF" fill-opacity="1" /><path d="M455.3942 242.418 L456.5952 242.412 L457.7801 242.395 L458.9482 242.3669 L460.0971 242.3279 L461.2262 242.279 L462.3331 242.2189 L463.4181 242.15 L464.4771 242.0711 L465.5111 241.983 L466.5172 241.8849 L467.4942 241.7789 L468.4412 241.6641 L469.3562 241.5411 L470.2382 241.41 L471.0841 241.2711 L471.8952 241.1249 L472.6682 240.9711 L473.4012 240.811 L474.0942 240.644 L474.7452 240.471 L475.3521 240.2919 L475.9142 240.1071 L476.4291 239.9162 L476.8961 239.7201 L477.3141 239.5201 L477.6812 239.3141 L477.9961 239.1051 L478.2562 238.8911 L478.4611 238.6731 L478.6101 238.452 L478.7001 238.227 L478.7302 238.0001 C478.7302 235.559 468.2812 233.582 455.3942 233.582 C442.5081 233.582 432.0626 235.559 432.0626 238.0001 C432.0626 240.441 442.5081 242.418 455.3942 242.418 Z " opacity="1" stroke="#036998" stroke-opacity="1" stroke-width="0.39999" stroke-linecap="butt" stroke-linejoin="miter" stroke-dasharray="none" fill-opacity="0" /><path d="M449.3282 234.6911 C445.6482 234.9141 442.3791 235.3439 439.8281 235.9141" opacity="1" stroke="#036998" stroke-opacity="1" stroke-width="0.375" stroke-linecap="butt" stroke-linejoin="miter" stroke-dasharray="none" fill-opacity="0" /><path d="M449.5781 235.6131 C446.0042 235.8751 442.8792 236.3519 440.5156 236.977" opacity="1" stroke="#036998" stroke-opacity="1" stroke-width="0.375" stroke-linecap="butt" stroke-linejoin="miter" stroke-dasharray="none" fill-opacity="0" /><path d="M449.8322 236.6052 C446.3362 236.91 443.3242 237.445 441.1484 238.1331" opacity="1" stroke="#036998" stroke-opacity="1" stroke-width="0.375" stroke-linecap="butt" stroke-linejoin="miter" stroke-dasharray="none" fill-opacity="0" /><path d="M450.3362 237.762 C446.9221 238.0941 444.0122 238.6681 441.9881 239.4061" opacity="1" stroke="#036998" stroke-opacity="1" stroke-width="0.375" stroke-linecap="butt" stroke-linejoin="miter" stroke-dasharray="none" fill-opacity="0" /><path d="M450.5782 238.84 C447.3401 239.2111 444.6332 239.836 442.8282 240.6171" opacity="1" stroke="#036998" stroke-opacity="1" stroke-width="0.375" stroke-linecap="butt" stroke-linejoin="miter" stroke-dasharray="none" fill-opacity="0" /><path d="M451.0191 240.1131 C448.4492 240.4649 446.2692 240.992 444.7032 241.641" opacity="1" stroke="#036998" stroke-opacity="1" stroke-width="0.375" stroke-linecap="butt" stroke-linejoin="miter" stroke-dasharray="none" fill-opacity="0" /><path d="M451.1682 241.2971 C450.1332 241.4839 449.1802 241.7069 448.3281 241.9571" opacity="1" stroke="#036998" stroke-opacity="1" stroke-width="0.375" stroke-linecap="butt" stroke-linejoin="miter" stroke-dasharray="none" fill-opacity="0" /><path d="M432 238.422 L455.5191 226.6249 L478.7302 238.0001" opacity="1" stroke="#036998" stroke-opacity="1" stroke-width="0.39999" stroke-linecap="butt" stroke-linejoin="miter" stroke-dasharray="none" fill-opacity="0" /><path d="M455.6442 229.609 L455.7261 229.6079 L455.8072 229.6049 L455.8871 229.6 L455.9651 229.5931 L456.0421 229.584 L456.1182 229.5739 L456.1922 229.561 L456.2642 229.547 L456.3351 229.5311 L456.4032 229.513 L456.4701 229.494 L456.5351 229.4739 L456.5972 229.4511 L456.6581 229.4281 L456.7152 229.4031 L456.7711 229.3761 L456.8242 229.3489 L456.8741 229.3201 L456.9212 229.2899 L456.9662 229.2591 L457.0071 229.2259 L457.0451 229.1929 L457.0812 229.1589 L457.1131 229.1229 L457.1411 229.0869 L457.1661 229.0501 L457.1881 229.012 L457.2061 228.9729 L457.2202 228.934 L457.2302 228.8941 L457.2361 228.854 L457.2381 228.812 C457.2381 228.375 456.5232 228.0161 455.6442 228.0161 C454.7652 228.0161 454.0552 228.375 454.0552 228.812 C454.0552 229.2539 454.7652 229.609 455.6442 229.609 Z " opacity="1" fill="#036998" fill-opacity="1" /><path d="M455.6442 225 L455.1441 241.3751 L456.2691 241.3751 Z " opacity="1" fill="#036998" fill-opacity="1" /><path d="M461.7691 253.0001 L461.7691 250.3751 L450.5192 250.3751 L450.5192 253.0001 Z " opacity="1" fill="#036998" fill-opacity="1" /><path d="M452.6441 252.7501 L459.7691 252.7501 L459.7691 257.5 C459.7691 257.5 452.5192 259.7501 452.6441 259.7501 C452.7691 259.7501 452.6441 252.7501 452.6441 252.7501 Z " opacity="1" fill="#036998" fill-opacity="1" /></g></g><line x1="461.25" y1="270" x2="497.9137" y2="270" marker-end="url(#marker6)" opacity="1" stroke="#000000" stroke-opacity="1" stroke-width="1" stroke-linecap="butt" stroke-linejoin="miter" stroke-dasharray="none" /><rect x="622.3226" y="252" width="61.67733" height="36" opacity="1" stroke="#000000" stroke-opacity="1" stroke-width="1" stroke-linecap="butt" stroke-linejoin="miter" stroke-dasharray="none" fill="#FFFFFF" fill-opacity="1" filter="url(#shadow1)" /><text x="626.9562" y="274.5336" font-size="12" fill="#000000" fill-opacity="1" font-family="Arial" font-weight="normal" font-style="normal">translator</text><rect x="622.3226" y="405" width="61.67733" height="36" opacity="1" stroke="#000000" stroke-opacity="1" stroke-width="1" stroke-linecap="butt" stroke-linejoin="miter" stroke-dasharray="none" fill="#FFFFFF" fill-opacity="1" filter="url(#shadow1)" /><text x="626.9562" y="427.5336" font-size="12" fill="#000000" fill-opacity="1" font-family="Arial" font-weight="normal" font-style="normal">translator</text><line x1="584.471" y1="270" x2="584.471" y2="299.9137" marker-end="url(#marker7)" opacity="1" stroke="#000000" stroke-opacity="1" stroke-width="1" stroke-linecap="butt" stroke-linejoin="miter" stroke-dasharray="none" /><path d="M585 342 L585 360 L441 360 L441 371.9137" marker-end="url(#marker8)" opacity="1" stroke="#000000" stroke-opacity="1" stroke-width="1" stroke-linecap="butt" stroke-linejoin="miter" stroke-dasharray="none" fill-opacity="0" /><text x="698.5732" y="345.5336" font-size="12" fill="#000000" fill-opacity="1" font-family="Arial" font-weight="normal" font-style="normal">identical</text><line x1="720" y1="333" x2="720" y2="297.8698" marker-end="url(#marker9)" opacity="1" stroke="#FC7F08" stroke-opacity="1" stroke-width="1" stroke-linecap="butt" stroke-linejoin="miter" stroke-dasharray="2,2" /><line x1="720" y1="351" x2="720" y2="386.1302" marker-end="url(#marker10)" opacity="1" stroke="#FC7F08" stroke-opacity="1" stroke-width="1" stroke-linecap="butt" stroke-linejoin="miter" stroke-dasharray="2,2" /></g></svg>